%TF.GenerationSoftware,KiCad,Pcbnew,8.0.3*%
%TF.CreationDate,2024-06-08T17:14:44+02:00*%
%TF.ProjectId,chip8-pcb,63686970-382d-4706-9362-2e6b69636164,1*%
%TF.SameCoordinates,Original*%
%TF.FileFunction,Drillmap*%
%TF.FilePolarity,Positive*%
%FSLAX45Y45*%
G04 Gerber Fmt 4.5, Leading zero omitted, Abs format (unit mm)*
G04 Created by KiCad (PCBNEW 8.0.3) date 2024-06-08 17:14:44*
%MOMM*%
%LPD*%
G01*
G04 APERTURE LIST*
%ADD10C,0.100000*%
%ADD11C,0.200000*%
%ADD12C,0.220000*%
%ADD13C,0.270000*%
G04 APERTURE END LIST*
D10*
X12000000Y-16500000D02*
G75*
G02*
X11500000Y-17000000I-500000J0D01*
G01*
X4000000Y-5000000D02*
G75*
G02*
X4500000Y-4500000I500000J0D01*
G01*
X4500000Y-17000000D02*
G75*
G02*
X4000000Y-16500000I0J500000D01*
G01*
X4500000Y-17000000D02*
X11500000Y-17000000D01*
X4500000Y-4500000D02*
X11500000Y-4500000D01*
X12000000Y-5000000D02*
X12000000Y-16500000D01*
X11500000Y-4500000D02*
G75*
G02*
X12000000Y-5000000I0J-500000D01*
G01*
X4000000Y-16500000D02*
X4000000Y-5000000D01*
D11*
D10*
X11805000Y-6715000D02*
X11895000Y-6805000D01*
X11895000Y-6715000D02*
X11805000Y-6805000D01*
X11805000Y-7395000D02*
X11895000Y-7485000D01*
X11895000Y-7395000D02*
X11805000Y-7485000D01*
D12*
X5040000Y-9790000D02*
G75*
G02*
X4820000Y-9790000I-110000J0D01*
G01*
X4820000Y-9790000D02*
G75*
G02*
X5040000Y-9790000I110000J0D01*
G01*
X5040000Y-15790000D02*
G75*
G02*
X4820000Y-15790000I-110000J0D01*
G01*
X4820000Y-15790000D02*
G75*
G02*
X5040000Y-15790000I110000J0D01*
G01*
X11170000Y-15790000D02*
G75*
G02*
X10950000Y-15790000I-110000J0D01*
G01*
X10950000Y-15790000D02*
G75*
G02*
X11170000Y-15790000I110000J0D01*
G01*
X11180000Y-9790000D02*
G75*
G02*
X10960000Y-9790000I-110000J0D01*
G01*
X10960000Y-9790000D02*
G75*
G02*
X11180000Y-9790000I110000J0D01*
G01*
D13*
X4500000Y-4865000D02*
X4500000Y-5135000D01*
X4365000Y-5000000D02*
X4635000Y-5000000D01*
X4500000Y-16365000D02*
X4500000Y-16635000D01*
X4365000Y-16500000D02*
X4635000Y-16500000D01*
X5210000Y-5465000D02*
X5210000Y-5735000D01*
X5075000Y-5600000D02*
X5345000Y-5600000D01*
X5210000Y-8705000D02*
X5210000Y-8975000D01*
X5075000Y-8840000D02*
X5345000Y-8840000D01*
X10790000Y-5465000D02*
X10790000Y-5735000D01*
X10655000Y-5600000D02*
X10925000Y-5600000D01*
X10790000Y-8705000D02*
X10790000Y-8975000D01*
X10655000Y-8840000D02*
X10925000Y-8840000D01*
X11500000Y-4865000D02*
X11500000Y-5135000D01*
X11365000Y-5000000D02*
X11635000Y-5000000D01*
X11500000Y-16365000D02*
X11500000Y-16635000D01*
X11365000Y-16500000D02*
X11635000Y-16500000D01*
D11*
X4255777Y-17316484D02*
X4255777Y-17116484D01*
X4255777Y-17116484D02*
X4303396Y-17116484D01*
X4303396Y-17116484D02*
X4331967Y-17126008D01*
X4331967Y-17126008D02*
X4351015Y-17145055D01*
X4351015Y-17145055D02*
X4360539Y-17164103D01*
X4360539Y-17164103D02*
X4370063Y-17202198D01*
X4370063Y-17202198D02*
X4370063Y-17230770D01*
X4370063Y-17230770D02*
X4360539Y-17268865D01*
X4360539Y-17268865D02*
X4351015Y-17287912D01*
X4351015Y-17287912D02*
X4331967Y-17306960D01*
X4331967Y-17306960D02*
X4303396Y-17316484D01*
X4303396Y-17316484D02*
X4255777Y-17316484D01*
X4455777Y-17316484D02*
X4455777Y-17183150D01*
X4455777Y-17221246D02*
X4465301Y-17202198D01*
X4465301Y-17202198D02*
X4474824Y-17192674D01*
X4474824Y-17192674D02*
X4493872Y-17183150D01*
X4493872Y-17183150D02*
X4512920Y-17183150D01*
X4579586Y-17316484D02*
X4579586Y-17183150D01*
X4579586Y-17116484D02*
X4570063Y-17126008D01*
X4570063Y-17126008D02*
X4579586Y-17135531D01*
X4579586Y-17135531D02*
X4589110Y-17126008D01*
X4589110Y-17126008D02*
X4579586Y-17116484D01*
X4579586Y-17116484D02*
X4579586Y-17135531D01*
X4703396Y-17316484D02*
X4684348Y-17306960D01*
X4684348Y-17306960D02*
X4674824Y-17287912D01*
X4674824Y-17287912D02*
X4674824Y-17116484D01*
X4808158Y-17316484D02*
X4789110Y-17306960D01*
X4789110Y-17306960D02*
X4779586Y-17287912D01*
X4779586Y-17287912D02*
X4779586Y-17116484D01*
X5036729Y-17316484D02*
X5036729Y-17116484D01*
X5036729Y-17116484D02*
X5103396Y-17259341D01*
X5103396Y-17259341D02*
X5170063Y-17116484D01*
X5170063Y-17116484D02*
X5170063Y-17316484D01*
X5351015Y-17316484D02*
X5351015Y-17211722D01*
X5351015Y-17211722D02*
X5341491Y-17192674D01*
X5341491Y-17192674D02*
X5322444Y-17183150D01*
X5322444Y-17183150D02*
X5284348Y-17183150D01*
X5284348Y-17183150D02*
X5265301Y-17192674D01*
X5351015Y-17306960D02*
X5331967Y-17316484D01*
X5331967Y-17316484D02*
X5284348Y-17316484D01*
X5284348Y-17316484D02*
X5265301Y-17306960D01*
X5265301Y-17306960D02*
X5255777Y-17287912D01*
X5255777Y-17287912D02*
X5255777Y-17268865D01*
X5255777Y-17268865D02*
X5265301Y-17249817D01*
X5265301Y-17249817D02*
X5284348Y-17240293D01*
X5284348Y-17240293D02*
X5331967Y-17240293D01*
X5331967Y-17240293D02*
X5351015Y-17230770D01*
X5446253Y-17183150D02*
X5446253Y-17383150D01*
X5446253Y-17192674D02*
X5465301Y-17183150D01*
X5465301Y-17183150D02*
X5503396Y-17183150D01*
X5503396Y-17183150D02*
X5522444Y-17192674D01*
X5522444Y-17192674D02*
X5531967Y-17202198D01*
X5531967Y-17202198D02*
X5541491Y-17221246D01*
X5541491Y-17221246D02*
X5541491Y-17278389D01*
X5541491Y-17278389D02*
X5531967Y-17297436D01*
X5531967Y-17297436D02*
X5522444Y-17306960D01*
X5522444Y-17306960D02*
X5503396Y-17316484D01*
X5503396Y-17316484D02*
X5465301Y-17316484D01*
X5465301Y-17316484D02*
X5446253Y-17306960D01*
X5627205Y-17297436D02*
X5636729Y-17306960D01*
X5636729Y-17306960D02*
X5627205Y-17316484D01*
X5627205Y-17316484D02*
X5617682Y-17306960D01*
X5617682Y-17306960D02*
X5627205Y-17297436D01*
X5627205Y-17297436D02*
X5627205Y-17316484D01*
X5627205Y-17192674D02*
X5636729Y-17202198D01*
X5636729Y-17202198D02*
X5627205Y-17211722D01*
X5627205Y-17211722D02*
X5617682Y-17202198D01*
X5617682Y-17202198D02*
X5627205Y-17192674D01*
X5627205Y-17192674D02*
X5627205Y-17211722D01*
D10*
X3905000Y-17600000D02*
X3995000Y-17690000D01*
X3995000Y-17600000D02*
X3905000Y-17690000D01*
D11*
X4293872Y-17536484D02*
X4312920Y-17536484D01*
X4312920Y-17536484D02*
X4331967Y-17546008D01*
X4331967Y-17546008D02*
X4341491Y-17555531D01*
X4341491Y-17555531D02*
X4351015Y-17574579D01*
X4351015Y-17574579D02*
X4360539Y-17612674D01*
X4360539Y-17612674D02*
X4360539Y-17660293D01*
X4360539Y-17660293D02*
X4351015Y-17698389D01*
X4351015Y-17698389D02*
X4341491Y-17717436D01*
X4341491Y-17717436D02*
X4331967Y-17726960D01*
X4331967Y-17726960D02*
X4312920Y-17736484D01*
X4312920Y-17736484D02*
X4293872Y-17736484D01*
X4293872Y-17736484D02*
X4274824Y-17726960D01*
X4274824Y-17726960D02*
X4265301Y-17717436D01*
X4265301Y-17717436D02*
X4255777Y-17698389D01*
X4255777Y-17698389D02*
X4246253Y-17660293D01*
X4246253Y-17660293D02*
X4246253Y-17612674D01*
X4246253Y-17612674D02*
X4255777Y-17574579D01*
X4255777Y-17574579D02*
X4265301Y-17555531D01*
X4265301Y-17555531D02*
X4274824Y-17546008D01*
X4274824Y-17546008D02*
X4293872Y-17536484D01*
X4446253Y-17717436D02*
X4455777Y-17726960D01*
X4455777Y-17726960D02*
X4446253Y-17736484D01*
X4446253Y-17736484D02*
X4436729Y-17726960D01*
X4436729Y-17726960D02*
X4446253Y-17717436D01*
X4446253Y-17717436D02*
X4446253Y-17736484D01*
X4551015Y-17736484D02*
X4589110Y-17736484D01*
X4589110Y-17736484D02*
X4608158Y-17726960D01*
X4608158Y-17726960D02*
X4617682Y-17717436D01*
X4617682Y-17717436D02*
X4636729Y-17688865D01*
X4636729Y-17688865D02*
X4646253Y-17650770D01*
X4646253Y-17650770D02*
X4646253Y-17574579D01*
X4646253Y-17574579D02*
X4636729Y-17555531D01*
X4636729Y-17555531D02*
X4627205Y-17546008D01*
X4627205Y-17546008D02*
X4608158Y-17536484D01*
X4608158Y-17536484D02*
X4570063Y-17536484D01*
X4570063Y-17536484D02*
X4551015Y-17546008D01*
X4551015Y-17546008D02*
X4541491Y-17555531D01*
X4541491Y-17555531D02*
X4531967Y-17574579D01*
X4531967Y-17574579D02*
X4531967Y-17622198D01*
X4531967Y-17622198D02*
X4541491Y-17641246D01*
X4541491Y-17641246D02*
X4551015Y-17650770D01*
X4551015Y-17650770D02*
X4570063Y-17660293D01*
X4570063Y-17660293D02*
X4608158Y-17660293D01*
X4608158Y-17660293D02*
X4627205Y-17650770D01*
X4627205Y-17650770D02*
X4636729Y-17641246D01*
X4636729Y-17641246D02*
X4646253Y-17622198D01*
X4770063Y-17536484D02*
X4789110Y-17536484D01*
X4789110Y-17536484D02*
X4808158Y-17546008D01*
X4808158Y-17546008D02*
X4817682Y-17555531D01*
X4817682Y-17555531D02*
X4827205Y-17574579D01*
X4827205Y-17574579D02*
X4836729Y-17612674D01*
X4836729Y-17612674D02*
X4836729Y-17660293D01*
X4836729Y-17660293D02*
X4827205Y-17698389D01*
X4827205Y-17698389D02*
X4817682Y-17717436D01*
X4817682Y-17717436D02*
X4808158Y-17726960D01*
X4808158Y-17726960D02*
X4789110Y-17736484D01*
X4789110Y-17736484D02*
X4770063Y-17736484D01*
X4770063Y-17736484D02*
X4751015Y-17726960D01*
X4751015Y-17726960D02*
X4741491Y-17717436D01*
X4741491Y-17717436D02*
X4731967Y-17698389D01*
X4731967Y-17698389D02*
X4722444Y-17660293D01*
X4722444Y-17660293D02*
X4722444Y-17612674D01*
X4722444Y-17612674D02*
X4731967Y-17574579D01*
X4731967Y-17574579D02*
X4741491Y-17555531D01*
X4741491Y-17555531D02*
X4751015Y-17546008D01*
X4751015Y-17546008D02*
X4770063Y-17536484D01*
X4960539Y-17536484D02*
X4979586Y-17536484D01*
X4979586Y-17536484D02*
X4998634Y-17546008D01*
X4998634Y-17546008D02*
X5008158Y-17555531D01*
X5008158Y-17555531D02*
X5017682Y-17574579D01*
X5017682Y-17574579D02*
X5027205Y-17612674D01*
X5027205Y-17612674D02*
X5027205Y-17660293D01*
X5027205Y-17660293D02*
X5017682Y-17698389D01*
X5017682Y-17698389D02*
X5008158Y-17717436D01*
X5008158Y-17717436D02*
X4998634Y-17726960D01*
X4998634Y-17726960D02*
X4979586Y-17736484D01*
X4979586Y-17736484D02*
X4960539Y-17736484D01*
X4960539Y-17736484D02*
X4941491Y-17726960D01*
X4941491Y-17726960D02*
X4931967Y-17717436D01*
X4931967Y-17717436D02*
X4922444Y-17698389D01*
X4922444Y-17698389D02*
X4912920Y-17660293D01*
X4912920Y-17660293D02*
X4912920Y-17612674D01*
X4912920Y-17612674D02*
X4922444Y-17574579D01*
X4922444Y-17574579D02*
X4931967Y-17555531D01*
X4931967Y-17555531D02*
X4941491Y-17546008D01*
X4941491Y-17546008D02*
X4960539Y-17536484D01*
X5112920Y-17736484D02*
X5112920Y-17603150D01*
X5112920Y-17622198D02*
X5122444Y-17612674D01*
X5122444Y-17612674D02*
X5141491Y-17603150D01*
X5141491Y-17603150D02*
X5170063Y-17603150D01*
X5170063Y-17603150D02*
X5189110Y-17612674D01*
X5189110Y-17612674D02*
X5198634Y-17631722D01*
X5198634Y-17631722D02*
X5198634Y-17736484D01*
X5198634Y-17631722D02*
X5208158Y-17612674D01*
X5208158Y-17612674D02*
X5227205Y-17603150D01*
X5227205Y-17603150D02*
X5255777Y-17603150D01*
X5255777Y-17603150D02*
X5274825Y-17612674D01*
X5274825Y-17612674D02*
X5284348Y-17631722D01*
X5284348Y-17631722D02*
X5284348Y-17736484D01*
X5379586Y-17736484D02*
X5379586Y-17603150D01*
X5379586Y-17622198D02*
X5389110Y-17612674D01*
X5389110Y-17612674D02*
X5408158Y-17603150D01*
X5408158Y-17603150D02*
X5436729Y-17603150D01*
X5436729Y-17603150D02*
X5455777Y-17612674D01*
X5455777Y-17612674D02*
X5465301Y-17631722D01*
X5465301Y-17631722D02*
X5465301Y-17736484D01*
X5465301Y-17631722D02*
X5474825Y-17612674D01*
X5474825Y-17612674D02*
X5493872Y-17603150D01*
X5493872Y-17603150D02*
X5522444Y-17603150D01*
X5522444Y-17603150D02*
X5541491Y-17612674D01*
X5541491Y-17612674D02*
X5551015Y-17631722D01*
X5551015Y-17631722D02*
X5551015Y-17736484D01*
X5941491Y-17526960D02*
X5770063Y-17784103D01*
X6198634Y-17536484D02*
X6217682Y-17536484D01*
X6217682Y-17536484D02*
X6236729Y-17546008D01*
X6236729Y-17546008D02*
X6246253Y-17555531D01*
X6246253Y-17555531D02*
X6255777Y-17574579D01*
X6255777Y-17574579D02*
X6265301Y-17612674D01*
X6265301Y-17612674D02*
X6265301Y-17660293D01*
X6265301Y-17660293D02*
X6255777Y-17698389D01*
X6255777Y-17698389D02*
X6246253Y-17717436D01*
X6246253Y-17717436D02*
X6236729Y-17726960D01*
X6236729Y-17726960D02*
X6217682Y-17736484D01*
X6217682Y-17736484D02*
X6198634Y-17736484D01*
X6198634Y-17736484D02*
X6179586Y-17726960D01*
X6179586Y-17726960D02*
X6170063Y-17717436D01*
X6170063Y-17717436D02*
X6160539Y-17698389D01*
X6160539Y-17698389D02*
X6151015Y-17660293D01*
X6151015Y-17660293D02*
X6151015Y-17612674D01*
X6151015Y-17612674D02*
X6160539Y-17574579D01*
X6160539Y-17574579D02*
X6170063Y-17555531D01*
X6170063Y-17555531D02*
X6179586Y-17546008D01*
X6179586Y-17546008D02*
X6198634Y-17536484D01*
X6351015Y-17717436D02*
X6360539Y-17726960D01*
X6360539Y-17726960D02*
X6351015Y-17736484D01*
X6351015Y-17736484D02*
X6341491Y-17726960D01*
X6341491Y-17726960D02*
X6351015Y-17717436D01*
X6351015Y-17717436D02*
X6351015Y-17736484D01*
X6484348Y-17536484D02*
X6503396Y-17536484D01*
X6503396Y-17536484D02*
X6522444Y-17546008D01*
X6522444Y-17546008D02*
X6531967Y-17555531D01*
X6531967Y-17555531D02*
X6541491Y-17574579D01*
X6541491Y-17574579D02*
X6551015Y-17612674D01*
X6551015Y-17612674D02*
X6551015Y-17660293D01*
X6551015Y-17660293D02*
X6541491Y-17698389D01*
X6541491Y-17698389D02*
X6531967Y-17717436D01*
X6531967Y-17717436D02*
X6522444Y-17726960D01*
X6522444Y-17726960D02*
X6503396Y-17736484D01*
X6503396Y-17736484D02*
X6484348Y-17736484D01*
X6484348Y-17736484D02*
X6465301Y-17726960D01*
X6465301Y-17726960D02*
X6455777Y-17717436D01*
X6455777Y-17717436D02*
X6446253Y-17698389D01*
X6446253Y-17698389D02*
X6436729Y-17660293D01*
X6436729Y-17660293D02*
X6436729Y-17612674D01*
X6436729Y-17612674D02*
X6446253Y-17574579D01*
X6446253Y-17574579D02*
X6455777Y-17555531D01*
X6455777Y-17555531D02*
X6465301Y-17546008D01*
X6465301Y-17546008D02*
X6484348Y-17536484D01*
X6617682Y-17536484D02*
X6741491Y-17536484D01*
X6741491Y-17536484D02*
X6674825Y-17612674D01*
X6674825Y-17612674D02*
X6703396Y-17612674D01*
X6703396Y-17612674D02*
X6722444Y-17622198D01*
X6722444Y-17622198D02*
X6731967Y-17631722D01*
X6731967Y-17631722D02*
X6741491Y-17650770D01*
X6741491Y-17650770D02*
X6741491Y-17698389D01*
X6741491Y-17698389D02*
X6731967Y-17717436D01*
X6731967Y-17717436D02*
X6722444Y-17726960D01*
X6722444Y-17726960D02*
X6703396Y-17736484D01*
X6703396Y-17736484D02*
X6646253Y-17736484D01*
X6646253Y-17736484D02*
X6627206Y-17726960D01*
X6627206Y-17726960D02*
X6617682Y-17717436D01*
X6922444Y-17536484D02*
X6827206Y-17536484D01*
X6827206Y-17536484D02*
X6817682Y-17631722D01*
X6817682Y-17631722D02*
X6827206Y-17622198D01*
X6827206Y-17622198D02*
X6846253Y-17612674D01*
X6846253Y-17612674D02*
X6893872Y-17612674D01*
X6893872Y-17612674D02*
X6912920Y-17622198D01*
X6912920Y-17622198D02*
X6922444Y-17631722D01*
X6922444Y-17631722D02*
X6931967Y-17650770D01*
X6931967Y-17650770D02*
X6931967Y-17698389D01*
X6931967Y-17698389D02*
X6922444Y-17717436D01*
X6922444Y-17717436D02*
X6912920Y-17726960D01*
X6912920Y-17726960D02*
X6893872Y-17736484D01*
X6893872Y-17736484D02*
X6846253Y-17736484D01*
X6846253Y-17736484D02*
X6827206Y-17726960D01*
X6827206Y-17726960D02*
X6817682Y-17717436D01*
X7103396Y-17603150D02*
X7103396Y-17736484D01*
X7055777Y-17526960D02*
X7008158Y-17669817D01*
X7008158Y-17669817D02*
X7131967Y-17669817D01*
X7198634Y-17536484D02*
X7198634Y-17574579D01*
X7274825Y-17536484D02*
X7274825Y-17574579D01*
X7570063Y-17812674D02*
X7560539Y-17803150D01*
X7560539Y-17803150D02*
X7541491Y-17774579D01*
X7541491Y-17774579D02*
X7531968Y-17755531D01*
X7531968Y-17755531D02*
X7522444Y-17726960D01*
X7522444Y-17726960D02*
X7512920Y-17679341D01*
X7512920Y-17679341D02*
X7512920Y-17641246D01*
X7512920Y-17641246D02*
X7522444Y-17593627D01*
X7522444Y-17593627D02*
X7531968Y-17565055D01*
X7531968Y-17565055D02*
X7541491Y-17546008D01*
X7541491Y-17546008D02*
X7560539Y-17517436D01*
X7560539Y-17517436D02*
X7570063Y-17507912D01*
X7636729Y-17555531D02*
X7646253Y-17546008D01*
X7646253Y-17546008D02*
X7665301Y-17536484D01*
X7665301Y-17536484D02*
X7712920Y-17536484D01*
X7712920Y-17536484D02*
X7731968Y-17546008D01*
X7731968Y-17546008D02*
X7741491Y-17555531D01*
X7741491Y-17555531D02*
X7751015Y-17574579D01*
X7751015Y-17574579D02*
X7751015Y-17593627D01*
X7751015Y-17593627D02*
X7741491Y-17622198D01*
X7741491Y-17622198D02*
X7627206Y-17736484D01*
X7627206Y-17736484D02*
X7751015Y-17736484D01*
X7989110Y-17736484D02*
X7989110Y-17536484D01*
X8074825Y-17736484D02*
X8074825Y-17631722D01*
X8074825Y-17631722D02*
X8065301Y-17612674D01*
X8065301Y-17612674D02*
X8046253Y-17603150D01*
X8046253Y-17603150D02*
X8017682Y-17603150D01*
X8017682Y-17603150D02*
X7998634Y-17612674D01*
X7998634Y-17612674D02*
X7989110Y-17622198D01*
X8198634Y-17736484D02*
X8179587Y-17726960D01*
X8179587Y-17726960D02*
X8170063Y-17717436D01*
X8170063Y-17717436D02*
X8160539Y-17698389D01*
X8160539Y-17698389D02*
X8160539Y-17641246D01*
X8160539Y-17641246D02*
X8170063Y-17622198D01*
X8170063Y-17622198D02*
X8179587Y-17612674D01*
X8179587Y-17612674D02*
X8198634Y-17603150D01*
X8198634Y-17603150D02*
X8227206Y-17603150D01*
X8227206Y-17603150D02*
X8246253Y-17612674D01*
X8246253Y-17612674D02*
X8255777Y-17622198D01*
X8255777Y-17622198D02*
X8265301Y-17641246D01*
X8265301Y-17641246D02*
X8265301Y-17698389D01*
X8265301Y-17698389D02*
X8255777Y-17717436D01*
X8255777Y-17717436D02*
X8246253Y-17726960D01*
X8246253Y-17726960D02*
X8227206Y-17736484D01*
X8227206Y-17736484D02*
X8198634Y-17736484D01*
X8379587Y-17736484D02*
X8360539Y-17726960D01*
X8360539Y-17726960D02*
X8351015Y-17707912D01*
X8351015Y-17707912D02*
X8351015Y-17536484D01*
X8531968Y-17726960D02*
X8512920Y-17736484D01*
X8512920Y-17736484D02*
X8474825Y-17736484D01*
X8474825Y-17736484D02*
X8455777Y-17726960D01*
X8455777Y-17726960D02*
X8446253Y-17707912D01*
X8446253Y-17707912D02*
X8446253Y-17631722D01*
X8446253Y-17631722D02*
X8455777Y-17612674D01*
X8455777Y-17612674D02*
X8474825Y-17603150D01*
X8474825Y-17603150D02*
X8512920Y-17603150D01*
X8512920Y-17603150D02*
X8531968Y-17612674D01*
X8531968Y-17612674D02*
X8541492Y-17631722D01*
X8541492Y-17631722D02*
X8541492Y-17650770D01*
X8541492Y-17650770D02*
X8446253Y-17669817D01*
X8617682Y-17726960D02*
X8636730Y-17736484D01*
X8636730Y-17736484D02*
X8674825Y-17736484D01*
X8674825Y-17736484D02*
X8693873Y-17726960D01*
X8693873Y-17726960D02*
X8703396Y-17707912D01*
X8703396Y-17707912D02*
X8703396Y-17698389D01*
X8703396Y-17698389D02*
X8693873Y-17679341D01*
X8693873Y-17679341D02*
X8674825Y-17669817D01*
X8674825Y-17669817D02*
X8646253Y-17669817D01*
X8646253Y-17669817D02*
X8627206Y-17660293D01*
X8627206Y-17660293D02*
X8617682Y-17641246D01*
X8617682Y-17641246D02*
X8617682Y-17631722D01*
X8617682Y-17631722D02*
X8627206Y-17612674D01*
X8627206Y-17612674D02*
X8646253Y-17603150D01*
X8646253Y-17603150D02*
X8674825Y-17603150D01*
X8674825Y-17603150D02*
X8693873Y-17612674D01*
X8770063Y-17812674D02*
X8779587Y-17803150D01*
X8779587Y-17803150D02*
X8798634Y-17774579D01*
X8798634Y-17774579D02*
X8808158Y-17755531D01*
X8808158Y-17755531D02*
X8817682Y-17726960D01*
X8817682Y-17726960D02*
X8827206Y-17679341D01*
X8827206Y-17679341D02*
X8827206Y-17641246D01*
X8827206Y-17641246D02*
X8817682Y-17593627D01*
X8817682Y-17593627D02*
X8808158Y-17565055D01*
X8808158Y-17565055D02*
X8798634Y-17546008D01*
X8798634Y-17546008D02*
X8779587Y-17517436D01*
X8779587Y-17517436D02*
X8770063Y-17507912D01*
X9131968Y-17812674D02*
X9122444Y-17803150D01*
X9122444Y-17803150D02*
X9103396Y-17774579D01*
X9103396Y-17774579D02*
X9093873Y-17755531D01*
X9093873Y-17755531D02*
X9084349Y-17726960D01*
X9084349Y-17726960D02*
X9074825Y-17679341D01*
X9074825Y-17679341D02*
X9074825Y-17641246D01*
X9074825Y-17641246D02*
X9084349Y-17593627D01*
X9084349Y-17593627D02*
X9093873Y-17565055D01*
X9093873Y-17565055D02*
X9103396Y-17546008D01*
X9103396Y-17546008D02*
X9122444Y-17517436D01*
X9122444Y-17517436D02*
X9131968Y-17507912D01*
X9208158Y-17603150D02*
X9208158Y-17736484D01*
X9208158Y-17622198D02*
X9217682Y-17612674D01*
X9217682Y-17612674D02*
X9236730Y-17603150D01*
X9236730Y-17603150D02*
X9265301Y-17603150D01*
X9265301Y-17603150D02*
X9284349Y-17612674D01*
X9284349Y-17612674D02*
X9293873Y-17631722D01*
X9293873Y-17631722D02*
X9293873Y-17736484D01*
X9417682Y-17736484D02*
X9398634Y-17726960D01*
X9398634Y-17726960D02*
X9389111Y-17717436D01*
X9389111Y-17717436D02*
X9379587Y-17698389D01*
X9379587Y-17698389D02*
X9379587Y-17641246D01*
X9379587Y-17641246D02*
X9389111Y-17622198D01*
X9389111Y-17622198D02*
X9398634Y-17612674D01*
X9398634Y-17612674D02*
X9417682Y-17603150D01*
X9417682Y-17603150D02*
X9446254Y-17603150D01*
X9446254Y-17603150D02*
X9465301Y-17612674D01*
X9465301Y-17612674D02*
X9474825Y-17622198D01*
X9474825Y-17622198D02*
X9484349Y-17641246D01*
X9484349Y-17641246D02*
X9484349Y-17698389D01*
X9484349Y-17698389D02*
X9474825Y-17717436D01*
X9474825Y-17717436D02*
X9465301Y-17726960D01*
X9465301Y-17726960D02*
X9446254Y-17736484D01*
X9446254Y-17736484D02*
X9417682Y-17736484D01*
X9541492Y-17603150D02*
X9617682Y-17603150D01*
X9570063Y-17536484D02*
X9570063Y-17707912D01*
X9570063Y-17707912D02*
X9579587Y-17726960D01*
X9579587Y-17726960D02*
X9598634Y-17736484D01*
X9598634Y-17736484D02*
X9617682Y-17736484D01*
X9836730Y-17603150D02*
X9836730Y-17803150D01*
X9836730Y-17612674D02*
X9855777Y-17603150D01*
X9855777Y-17603150D02*
X9893873Y-17603150D01*
X9893873Y-17603150D02*
X9912920Y-17612674D01*
X9912920Y-17612674D02*
X9922444Y-17622198D01*
X9922444Y-17622198D02*
X9931968Y-17641246D01*
X9931968Y-17641246D02*
X9931968Y-17698389D01*
X9931968Y-17698389D02*
X9922444Y-17717436D01*
X9922444Y-17717436D02*
X9912920Y-17726960D01*
X9912920Y-17726960D02*
X9893873Y-17736484D01*
X9893873Y-17736484D02*
X9855777Y-17736484D01*
X9855777Y-17736484D02*
X9836730Y-17726960D01*
X10046254Y-17736484D02*
X10027206Y-17726960D01*
X10027206Y-17726960D02*
X10017682Y-17707912D01*
X10017682Y-17707912D02*
X10017682Y-17536484D01*
X10208158Y-17736484D02*
X10208158Y-17631722D01*
X10208158Y-17631722D02*
X10198635Y-17612674D01*
X10198635Y-17612674D02*
X10179587Y-17603150D01*
X10179587Y-17603150D02*
X10141492Y-17603150D01*
X10141492Y-17603150D02*
X10122444Y-17612674D01*
X10208158Y-17726960D02*
X10189111Y-17736484D01*
X10189111Y-17736484D02*
X10141492Y-17736484D01*
X10141492Y-17736484D02*
X10122444Y-17726960D01*
X10122444Y-17726960D02*
X10112920Y-17707912D01*
X10112920Y-17707912D02*
X10112920Y-17688865D01*
X10112920Y-17688865D02*
X10122444Y-17669817D01*
X10122444Y-17669817D02*
X10141492Y-17660293D01*
X10141492Y-17660293D02*
X10189111Y-17660293D01*
X10189111Y-17660293D02*
X10208158Y-17650770D01*
X10274825Y-17603150D02*
X10351015Y-17603150D01*
X10303396Y-17536484D02*
X10303396Y-17707912D01*
X10303396Y-17707912D02*
X10312920Y-17726960D01*
X10312920Y-17726960D02*
X10331968Y-17736484D01*
X10331968Y-17736484D02*
X10351015Y-17736484D01*
X10493873Y-17726960D02*
X10474825Y-17736484D01*
X10474825Y-17736484D02*
X10436730Y-17736484D01*
X10436730Y-17736484D02*
X10417682Y-17726960D01*
X10417682Y-17726960D02*
X10408158Y-17707912D01*
X10408158Y-17707912D02*
X10408158Y-17631722D01*
X10408158Y-17631722D02*
X10417682Y-17612674D01*
X10417682Y-17612674D02*
X10436730Y-17603150D01*
X10436730Y-17603150D02*
X10474825Y-17603150D01*
X10474825Y-17603150D02*
X10493873Y-17612674D01*
X10493873Y-17612674D02*
X10503396Y-17631722D01*
X10503396Y-17631722D02*
X10503396Y-17650770D01*
X10503396Y-17650770D02*
X10408158Y-17669817D01*
X10674825Y-17736484D02*
X10674825Y-17536484D01*
X10674825Y-17726960D02*
X10655777Y-17736484D01*
X10655777Y-17736484D02*
X10617682Y-17736484D01*
X10617682Y-17736484D02*
X10598635Y-17726960D01*
X10598635Y-17726960D02*
X10589111Y-17717436D01*
X10589111Y-17717436D02*
X10579587Y-17698389D01*
X10579587Y-17698389D02*
X10579587Y-17641246D01*
X10579587Y-17641246D02*
X10589111Y-17622198D01*
X10589111Y-17622198D02*
X10598635Y-17612674D01*
X10598635Y-17612674D02*
X10617682Y-17603150D01*
X10617682Y-17603150D02*
X10655777Y-17603150D01*
X10655777Y-17603150D02*
X10674825Y-17612674D01*
X10751016Y-17812674D02*
X10760539Y-17803150D01*
X10760539Y-17803150D02*
X10779587Y-17774579D01*
X10779587Y-17774579D02*
X10789111Y-17755531D01*
X10789111Y-17755531D02*
X10798635Y-17726960D01*
X10798635Y-17726960D02*
X10808158Y-17679341D01*
X10808158Y-17679341D02*
X10808158Y-17641246D01*
X10808158Y-17641246D02*
X10798635Y-17593627D01*
X10798635Y-17593627D02*
X10789111Y-17565055D01*
X10789111Y-17565055D02*
X10779587Y-17546008D01*
X10779587Y-17546008D02*
X10760539Y-17517436D01*
X10760539Y-17517436D02*
X10751016Y-17507912D01*
X3995000Y-17909000D02*
G75*
G02*
X3795000Y-17909000I-100000J0D01*
G01*
X3795000Y-17909000D02*
G75*
G02*
X3995000Y-17909000I100000J0D01*
G01*
X4246253Y-17819531D02*
X4255777Y-17810008D01*
X4255777Y-17810008D02*
X4274824Y-17800484D01*
X4274824Y-17800484D02*
X4322444Y-17800484D01*
X4322444Y-17800484D02*
X4341491Y-17810008D01*
X4341491Y-17810008D02*
X4351015Y-17819531D01*
X4351015Y-17819531D02*
X4360539Y-17838579D01*
X4360539Y-17838579D02*
X4360539Y-17857627D01*
X4360539Y-17857627D02*
X4351015Y-17886198D01*
X4351015Y-17886198D02*
X4236729Y-18000484D01*
X4236729Y-18000484D02*
X4360539Y-18000484D01*
X4446253Y-17981436D02*
X4455777Y-17990960D01*
X4455777Y-17990960D02*
X4446253Y-18000484D01*
X4446253Y-18000484D02*
X4436729Y-17990960D01*
X4436729Y-17990960D02*
X4446253Y-17981436D01*
X4446253Y-17981436D02*
X4446253Y-18000484D01*
X4531967Y-17819531D02*
X4541491Y-17810008D01*
X4541491Y-17810008D02*
X4560539Y-17800484D01*
X4560539Y-17800484D02*
X4608158Y-17800484D01*
X4608158Y-17800484D02*
X4627205Y-17810008D01*
X4627205Y-17810008D02*
X4636729Y-17819531D01*
X4636729Y-17819531D02*
X4646253Y-17838579D01*
X4646253Y-17838579D02*
X4646253Y-17857627D01*
X4646253Y-17857627D02*
X4636729Y-17886198D01*
X4636729Y-17886198D02*
X4522444Y-18000484D01*
X4522444Y-18000484D02*
X4646253Y-18000484D01*
X4770063Y-17800484D02*
X4789110Y-17800484D01*
X4789110Y-17800484D02*
X4808158Y-17810008D01*
X4808158Y-17810008D02*
X4817682Y-17819531D01*
X4817682Y-17819531D02*
X4827205Y-17838579D01*
X4827205Y-17838579D02*
X4836729Y-17876674D01*
X4836729Y-17876674D02*
X4836729Y-17924293D01*
X4836729Y-17924293D02*
X4827205Y-17962389D01*
X4827205Y-17962389D02*
X4817682Y-17981436D01*
X4817682Y-17981436D02*
X4808158Y-17990960D01*
X4808158Y-17990960D02*
X4789110Y-18000484D01*
X4789110Y-18000484D02*
X4770063Y-18000484D01*
X4770063Y-18000484D02*
X4751015Y-17990960D01*
X4751015Y-17990960D02*
X4741491Y-17981436D01*
X4741491Y-17981436D02*
X4731967Y-17962389D01*
X4731967Y-17962389D02*
X4722444Y-17924293D01*
X4722444Y-17924293D02*
X4722444Y-17876674D01*
X4722444Y-17876674D02*
X4731967Y-17838579D01*
X4731967Y-17838579D02*
X4741491Y-17819531D01*
X4741491Y-17819531D02*
X4751015Y-17810008D01*
X4751015Y-17810008D02*
X4770063Y-17800484D01*
X4960539Y-17800484D02*
X4979586Y-17800484D01*
X4979586Y-17800484D02*
X4998634Y-17810008D01*
X4998634Y-17810008D02*
X5008158Y-17819531D01*
X5008158Y-17819531D02*
X5017682Y-17838579D01*
X5017682Y-17838579D02*
X5027205Y-17876674D01*
X5027205Y-17876674D02*
X5027205Y-17924293D01*
X5027205Y-17924293D02*
X5017682Y-17962389D01*
X5017682Y-17962389D02*
X5008158Y-17981436D01*
X5008158Y-17981436D02*
X4998634Y-17990960D01*
X4998634Y-17990960D02*
X4979586Y-18000484D01*
X4979586Y-18000484D02*
X4960539Y-18000484D01*
X4960539Y-18000484D02*
X4941491Y-17990960D01*
X4941491Y-17990960D02*
X4931967Y-17981436D01*
X4931967Y-17981436D02*
X4922444Y-17962389D01*
X4922444Y-17962389D02*
X4912920Y-17924293D01*
X4912920Y-17924293D02*
X4912920Y-17876674D01*
X4912920Y-17876674D02*
X4922444Y-17838579D01*
X4922444Y-17838579D02*
X4931967Y-17819531D01*
X4931967Y-17819531D02*
X4941491Y-17810008D01*
X4941491Y-17810008D02*
X4960539Y-17800484D01*
X5112920Y-18000484D02*
X5112920Y-17867150D01*
X5112920Y-17886198D02*
X5122444Y-17876674D01*
X5122444Y-17876674D02*
X5141491Y-17867150D01*
X5141491Y-17867150D02*
X5170063Y-17867150D01*
X5170063Y-17867150D02*
X5189110Y-17876674D01*
X5189110Y-17876674D02*
X5198634Y-17895722D01*
X5198634Y-17895722D02*
X5198634Y-18000484D01*
X5198634Y-17895722D02*
X5208158Y-17876674D01*
X5208158Y-17876674D02*
X5227205Y-17867150D01*
X5227205Y-17867150D02*
X5255777Y-17867150D01*
X5255777Y-17867150D02*
X5274825Y-17876674D01*
X5274825Y-17876674D02*
X5284348Y-17895722D01*
X5284348Y-17895722D02*
X5284348Y-18000484D01*
X5379586Y-18000484D02*
X5379586Y-17867150D01*
X5379586Y-17886198D02*
X5389110Y-17876674D01*
X5389110Y-17876674D02*
X5408158Y-17867150D01*
X5408158Y-17867150D02*
X5436729Y-17867150D01*
X5436729Y-17867150D02*
X5455777Y-17876674D01*
X5455777Y-17876674D02*
X5465301Y-17895722D01*
X5465301Y-17895722D02*
X5465301Y-18000484D01*
X5465301Y-17895722D02*
X5474825Y-17876674D01*
X5474825Y-17876674D02*
X5493872Y-17867150D01*
X5493872Y-17867150D02*
X5522444Y-17867150D01*
X5522444Y-17867150D02*
X5541491Y-17876674D01*
X5541491Y-17876674D02*
X5551015Y-17895722D01*
X5551015Y-17895722D02*
X5551015Y-18000484D01*
X5941491Y-17790960D02*
X5770063Y-18048103D01*
X6198634Y-17800484D02*
X6217682Y-17800484D01*
X6217682Y-17800484D02*
X6236729Y-17810008D01*
X6236729Y-17810008D02*
X6246253Y-17819531D01*
X6246253Y-17819531D02*
X6255777Y-17838579D01*
X6255777Y-17838579D02*
X6265301Y-17876674D01*
X6265301Y-17876674D02*
X6265301Y-17924293D01*
X6265301Y-17924293D02*
X6255777Y-17962389D01*
X6255777Y-17962389D02*
X6246253Y-17981436D01*
X6246253Y-17981436D02*
X6236729Y-17990960D01*
X6236729Y-17990960D02*
X6217682Y-18000484D01*
X6217682Y-18000484D02*
X6198634Y-18000484D01*
X6198634Y-18000484D02*
X6179586Y-17990960D01*
X6179586Y-17990960D02*
X6170063Y-17981436D01*
X6170063Y-17981436D02*
X6160539Y-17962389D01*
X6160539Y-17962389D02*
X6151015Y-17924293D01*
X6151015Y-17924293D02*
X6151015Y-17876674D01*
X6151015Y-17876674D02*
X6160539Y-17838579D01*
X6160539Y-17838579D02*
X6170063Y-17819531D01*
X6170063Y-17819531D02*
X6179586Y-17810008D01*
X6179586Y-17810008D02*
X6198634Y-17800484D01*
X6351015Y-17981436D02*
X6360539Y-17990960D01*
X6360539Y-17990960D02*
X6351015Y-18000484D01*
X6351015Y-18000484D02*
X6341491Y-17990960D01*
X6341491Y-17990960D02*
X6351015Y-17981436D01*
X6351015Y-17981436D02*
X6351015Y-18000484D01*
X6484348Y-17800484D02*
X6503396Y-17800484D01*
X6503396Y-17800484D02*
X6522444Y-17810008D01*
X6522444Y-17810008D02*
X6531967Y-17819531D01*
X6531967Y-17819531D02*
X6541491Y-17838579D01*
X6541491Y-17838579D02*
X6551015Y-17876674D01*
X6551015Y-17876674D02*
X6551015Y-17924293D01*
X6551015Y-17924293D02*
X6541491Y-17962389D01*
X6541491Y-17962389D02*
X6531967Y-17981436D01*
X6531967Y-17981436D02*
X6522444Y-17990960D01*
X6522444Y-17990960D02*
X6503396Y-18000484D01*
X6503396Y-18000484D02*
X6484348Y-18000484D01*
X6484348Y-18000484D02*
X6465301Y-17990960D01*
X6465301Y-17990960D02*
X6455777Y-17981436D01*
X6455777Y-17981436D02*
X6446253Y-17962389D01*
X6446253Y-17962389D02*
X6436729Y-17924293D01*
X6436729Y-17924293D02*
X6436729Y-17876674D01*
X6436729Y-17876674D02*
X6446253Y-17838579D01*
X6446253Y-17838579D02*
X6455777Y-17819531D01*
X6455777Y-17819531D02*
X6465301Y-17810008D01*
X6465301Y-17810008D02*
X6484348Y-17800484D01*
X6665301Y-17886198D02*
X6646253Y-17876674D01*
X6646253Y-17876674D02*
X6636729Y-17867150D01*
X6636729Y-17867150D02*
X6627206Y-17848103D01*
X6627206Y-17848103D02*
X6627206Y-17838579D01*
X6627206Y-17838579D02*
X6636729Y-17819531D01*
X6636729Y-17819531D02*
X6646253Y-17810008D01*
X6646253Y-17810008D02*
X6665301Y-17800484D01*
X6665301Y-17800484D02*
X6703396Y-17800484D01*
X6703396Y-17800484D02*
X6722444Y-17810008D01*
X6722444Y-17810008D02*
X6731967Y-17819531D01*
X6731967Y-17819531D02*
X6741491Y-17838579D01*
X6741491Y-17838579D02*
X6741491Y-17848103D01*
X6741491Y-17848103D02*
X6731967Y-17867150D01*
X6731967Y-17867150D02*
X6722444Y-17876674D01*
X6722444Y-17876674D02*
X6703396Y-17886198D01*
X6703396Y-17886198D02*
X6665301Y-17886198D01*
X6665301Y-17886198D02*
X6646253Y-17895722D01*
X6646253Y-17895722D02*
X6636729Y-17905246D01*
X6636729Y-17905246D02*
X6627206Y-17924293D01*
X6627206Y-17924293D02*
X6627206Y-17962389D01*
X6627206Y-17962389D02*
X6636729Y-17981436D01*
X6636729Y-17981436D02*
X6646253Y-17990960D01*
X6646253Y-17990960D02*
X6665301Y-18000484D01*
X6665301Y-18000484D02*
X6703396Y-18000484D01*
X6703396Y-18000484D02*
X6722444Y-17990960D01*
X6722444Y-17990960D02*
X6731967Y-17981436D01*
X6731967Y-17981436D02*
X6741491Y-17962389D01*
X6741491Y-17962389D02*
X6741491Y-17924293D01*
X6741491Y-17924293D02*
X6731967Y-17905246D01*
X6731967Y-17905246D02*
X6722444Y-17895722D01*
X6722444Y-17895722D02*
X6703396Y-17886198D01*
X6912920Y-17800484D02*
X6874825Y-17800484D01*
X6874825Y-17800484D02*
X6855777Y-17810008D01*
X6855777Y-17810008D02*
X6846253Y-17819531D01*
X6846253Y-17819531D02*
X6827206Y-17848103D01*
X6827206Y-17848103D02*
X6817682Y-17886198D01*
X6817682Y-17886198D02*
X6817682Y-17962389D01*
X6817682Y-17962389D02*
X6827206Y-17981436D01*
X6827206Y-17981436D02*
X6836729Y-17990960D01*
X6836729Y-17990960D02*
X6855777Y-18000484D01*
X6855777Y-18000484D02*
X6893872Y-18000484D01*
X6893872Y-18000484D02*
X6912920Y-17990960D01*
X6912920Y-17990960D02*
X6922444Y-17981436D01*
X6922444Y-17981436D02*
X6931967Y-17962389D01*
X6931967Y-17962389D02*
X6931967Y-17914770D01*
X6931967Y-17914770D02*
X6922444Y-17895722D01*
X6922444Y-17895722D02*
X6912920Y-17886198D01*
X6912920Y-17886198D02*
X6893872Y-17876674D01*
X6893872Y-17876674D02*
X6855777Y-17876674D01*
X6855777Y-17876674D02*
X6836729Y-17886198D01*
X6836729Y-17886198D02*
X6827206Y-17895722D01*
X6827206Y-17895722D02*
X6817682Y-17914770D01*
X7103396Y-17800484D02*
X7065301Y-17800484D01*
X7065301Y-17800484D02*
X7046253Y-17810008D01*
X7046253Y-17810008D02*
X7036729Y-17819531D01*
X7036729Y-17819531D02*
X7017682Y-17848103D01*
X7017682Y-17848103D02*
X7008158Y-17886198D01*
X7008158Y-17886198D02*
X7008158Y-17962389D01*
X7008158Y-17962389D02*
X7017682Y-17981436D01*
X7017682Y-17981436D02*
X7027206Y-17990960D01*
X7027206Y-17990960D02*
X7046253Y-18000484D01*
X7046253Y-18000484D02*
X7084348Y-18000484D01*
X7084348Y-18000484D02*
X7103396Y-17990960D01*
X7103396Y-17990960D02*
X7112920Y-17981436D01*
X7112920Y-17981436D02*
X7122444Y-17962389D01*
X7122444Y-17962389D02*
X7122444Y-17914770D01*
X7122444Y-17914770D02*
X7112920Y-17895722D01*
X7112920Y-17895722D02*
X7103396Y-17886198D01*
X7103396Y-17886198D02*
X7084348Y-17876674D01*
X7084348Y-17876674D02*
X7046253Y-17876674D01*
X7046253Y-17876674D02*
X7027206Y-17886198D01*
X7027206Y-17886198D02*
X7017682Y-17895722D01*
X7017682Y-17895722D02*
X7008158Y-17914770D01*
X7198634Y-17800484D02*
X7198634Y-17838579D01*
X7274825Y-17800484D02*
X7274825Y-17838579D01*
X7570063Y-18076674D02*
X7560539Y-18067150D01*
X7560539Y-18067150D02*
X7541491Y-18038579D01*
X7541491Y-18038579D02*
X7531968Y-18019531D01*
X7531968Y-18019531D02*
X7522444Y-17990960D01*
X7522444Y-17990960D02*
X7512920Y-17943341D01*
X7512920Y-17943341D02*
X7512920Y-17905246D01*
X7512920Y-17905246D02*
X7522444Y-17857627D01*
X7522444Y-17857627D02*
X7531968Y-17829055D01*
X7531968Y-17829055D02*
X7541491Y-17810008D01*
X7541491Y-17810008D02*
X7560539Y-17781436D01*
X7560539Y-17781436D02*
X7570063Y-17771912D01*
X7731968Y-17867150D02*
X7731968Y-18000484D01*
X7684348Y-17790960D02*
X7636729Y-17933817D01*
X7636729Y-17933817D02*
X7760539Y-17933817D01*
X7989110Y-18000484D02*
X7989110Y-17800484D01*
X8074825Y-18000484D02*
X8074825Y-17895722D01*
X8074825Y-17895722D02*
X8065301Y-17876674D01*
X8065301Y-17876674D02*
X8046253Y-17867150D01*
X8046253Y-17867150D02*
X8017682Y-17867150D01*
X8017682Y-17867150D02*
X7998634Y-17876674D01*
X7998634Y-17876674D02*
X7989110Y-17886198D01*
X8198634Y-18000484D02*
X8179587Y-17990960D01*
X8179587Y-17990960D02*
X8170063Y-17981436D01*
X8170063Y-17981436D02*
X8160539Y-17962389D01*
X8160539Y-17962389D02*
X8160539Y-17905246D01*
X8160539Y-17905246D02*
X8170063Y-17886198D01*
X8170063Y-17886198D02*
X8179587Y-17876674D01*
X8179587Y-17876674D02*
X8198634Y-17867150D01*
X8198634Y-17867150D02*
X8227206Y-17867150D01*
X8227206Y-17867150D02*
X8246253Y-17876674D01*
X8246253Y-17876674D02*
X8255777Y-17886198D01*
X8255777Y-17886198D02*
X8265301Y-17905246D01*
X8265301Y-17905246D02*
X8265301Y-17962389D01*
X8265301Y-17962389D02*
X8255777Y-17981436D01*
X8255777Y-17981436D02*
X8246253Y-17990960D01*
X8246253Y-17990960D02*
X8227206Y-18000484D01*
X8227206Y-18000484D02*
X8198634Y-18000484D01*
X8379587Y-18000484D02*
X8360539Y-17990960D01*
X8360539Y-17990960D02*
X8351015Y-17971912D01*
X8351015Y-17971912D02*
X8351015Y-17800484D01*
X8531968Y-17990960D02*
X8512920Y-18000484D01*
X8512920Y-18000484D02*
X8474825Y-18000484D01*
X8474825Y-18000484D02*
X8455777Y-17990960D01*
X8455777Y-17990960D02*
X8446253Y-17971912D01*
X8446253Y-17971912D02*
X8446253Y-17895722D01*
X8446253Y-17895722D02*
X8455777Y-17876674D01*
X8455777Y-17876674D02*
X8474825Y-17867150D01*
X8474825Y-17867150D02*
X8512920Y-17867150D01*
X8512920Y-17867150D02*
X8531968Y-17876674D01*
X8531968Y-17876674D02*
X8541492Y-17895722D01*
X8541492Y-17895722D02*
X8541492Y-17914770D01*
X8541492Y-17914770D02*
X8446253Y-17933817D01*
X8617682Y-17990960D02*
X8636730Y-18000484D01*
X8636730Y-18000484D02*
X8674825Y-18000484D01*
X8674825Y-18000484D02*
X8693873Y-17990960D01*
X8693873Y-17990960D02*
X8703396Y-17971912D01*
X8703396Y-17971912D02*
X8703396Y-17962389D01*
X8703396Y-17962389D02*
X8693873Y-17943341D01*
X8693873Y-17943341D02*
X8674825Y-17933817D01*
X8674825Y-17933817D02*
X8646253Y-17933817D01*
X8646253Y-17933817D02*
X8627206Y-17924293D01*
X8627206Y-17924293D02*
X8617682Y-17905246D01*
X8617682Y-17905246D02*
X8617682Y-17895722D01*
X8617682Y-17895722D02*
X8627206Y-17876674D01*
X8627206Y-17876674D02*
X8646253Y-17867150D01*
X8646253Y-17867150D02*
X8674825Y-17867150D01*
X8674825Y-17867150D02*
X8693873Y-17876674D01*
X8770063Y-18076674D02*
X8779587Y-18067150D01*
X8779587Y-18067150D02*
X8798634Y-18038579D01*
X8798634Y-18038579D02*
X8808158Y-18019531D01*
X8808158Y-18019531D02*
X8817682Y-17990960D01*
X8817682Y-17990960D02*
X8827206Y-17943341D01*
X8827206Y-17943341D02*
X8827206Y-17905246D01*
X8827206Y-17905246D02*
X8817682Y-17857627D01*
X8817682Y-17857627D02*
X8808158Y-17829055D01*
X8808158Y-17829055D02*
X8798634Y-17810008D01*
X8798634Y-17810008D02*
X8779587Y-17781436D01*
X8779587Y-17781436D02*
X8770063Y-17771912D01*
X9131968Y-18076674D02*
X9122444Y-18067150D01*
X9122444Y-18067150D02*
X9103396Y-18038579D01*
X9103396Y-18038579D02*
X9093873Y-18019531D01*
X9093873Y-18019531D02*
X9084349Y-17990960D01*
X9084349Y-17990960D02*
X9074825Y-17943341D01*
X9074825Y-17943341D02*
X9074825Y-17905246D01*
X9074825Y-17905246D02*
X9084349Y-17857627D01*
X9084349Y-17857627D02*
X9093873Y-17829055D01*
X9093873Y-17829055D02*
X9103396Y-17810008D01*
X9103396Y-17810008D02*
X9122444Y-17781436D01*
X9122444Y-17781436D02*
X9131968Y-17771912D01*
X9208158Y-17867150D02*
X9208158Y-18000484D01*
X9208158Y-17886198D02*
X9217682Y-17876674D01*
X9217682Y-17876674D02*
X9236730Y-17867150D01*
X9236730Y-17867150D02*
X9265301Y-17867150D01*
X9265301Y-17867150D02*
X9284349Y-17876674D01*
X9284349Y-17876674D02*
X9293873Y-17895722D01*
X9293873Y-17895722D02*
X9293873Y-18000484D01*
X9417682Y-18000484D02*
X9398634Y-17990960D01*
X9398634Y-17990960D02*
X9389111Y-17981436D01*
X9389111Y-17981436D02*
X9379587Y-17962389D01*
X9379587Y-17962389D02*
X9379587Y-17905246D01*
X9379587Y-17905246D02*
X9389111Y-17886198D01*
X9389111Y-17886198D02*
X9398634Y-17876674D01*
X9398634Y-17876674D02*
X9417682Y-17867150D01*
X9417682Y-17867150D02*
X9446254Y-17867150D01*
X9446254Y-17867150D02*
X9465301Y-17876674D01*
X9465301Y-17876674D02*
X9474825Y-17886198D01*
X9474825Y-17886198D02*
X9484349Y-17905246D01*
X9484349Y-17905246D02*
X9484349Y-17962389D01*
X9484349Y-17962389D02*
X9474825Y-17981436D01*
X9474825Y-17981436D02*
X9465301Y-17990960D01*
X9465301Y-17990960D02*
X9446254Y-18000484D01*
X9446254Y-18000484D02*
X9417682Y-18000484D01*
X9541492Y-17867150D02*
X9617682Y-17867150D01*
X9570063Y-17800484D02*
X9570063Y-17971912D01*
X9570063Y-17971912D02*
X9579587Y-17990960D01*
X9579587Y-17990960D02*
X9598634Y-18000484D01*
X9598634Y-18000484D02*
X9617682Y-18000484D01*
X9836730Y-17867150D02*
X9836730Y-18067150D01*
X9836730Y-17876674D02*
X9855777Y-17867150D01*
X9855777Y-17867150D02*
X9893873Y-17867150D01*
X9893873Y-17867150D02*
X9912920Y-17876674D01*
X9912920Y-17876674D02*
X9922444Y-17886198D01*
X9922444Y-17886198D02*
X9931968Y-17905246D01*
X9931968Y-17905246D02*
X9931968Y-17962389D01*
X9931968Y-17962389D02*
X9922444Y-17981436D01*
X9922444Y-17981436D02*
X9912920Y-17990960D01*
X9912920Y-17990960D02*
X9893873Y-18000484D01*
X9893873Y-18000484D02*
X9855777Y-18000484D01*
X9855777Y-18000484D02*
X9836730Y-17990960D01*
X10046254Y-18000484D02*
X10027206Y-17990960D01*
X10027206Y-17990960D02*
X10017682Y-17971912D01*
X10017682Y-17971912D02*
X10017682Y-17800484D01*
X10208158Y-18000484D02*
X10208158Y-17895722D01*
X10208158Y-17895722D02*
X10198635Y-17876674D01*
X10198635Y-17876674D02*
X10179587Y-17867150D01*
X10179587Y-17867150D02*
X10141492Y-17867150D01*
X10141492Y-17867150D02*
X10122444Y-17876674D01*
X10208158Y-17990960D02*
X10189111Y-18000484D01*
X10189111Y-18000484D02*
X10141492Y-18000484D01*
X10141492Y-18000484D02*
X10122444Y-17990960D01*
X10122444Y-17990960D02*
X10112920Y-17971912D01*
X10112920Y-17971912D02*
X10112920Y-17952865D01*
X10112920Y-17952865D02*
X10122444Y-17933817D01*
X10122444Y-17933817D02*
X10141492Y-17924293D01*
X10141492Y-17924293D02*
X10189111Y-17924293D01*
X10189111Y-17924293D02*
X10208158Y-17914770D01*
X10274825Y-17867150D02*
X10351015Y-17867150D01*
X10303396Y-17800484D02*
X10303396Y-17971912D01*
X10303396Y-17971912D02*
X10312920Y-17990960D01*
X10312920Y-17990960D02*
X10331968Y-18000484D01*
X10331968Y-18000484D02*
X10351015Y-18000484D01*
X10493873Y-17990960D02*
X10474825Y-18000484D01*
X10474825Y-18000484D02*
X10436730Y-18000484D01*
X10436730Y-18000484D02*
X10417682Y-17990960D01*
X10417682Y-17990960D02*
X10408158Y-17971912D01*
X10408158Y-17971912D02*
X10408158Y-17895722D01*
X10408158Y-17895722D02*
X10417682Y-17876674D01*
X10417682Y-17876674D02*
X10436730Y-17867150D01*
X10436730Y-17867150D02*
X10474825Y-17867150D01*
X10474825Y-17867150D02*
X10493873Y-17876674D01*
X10493873Y-17876674D02*
X10503396Y-17895722D01*
X10503396Y-17895722D02*
X10503396Y-17914770D01*
X10503396Y-17914770D02*
X10408158Y-17933817D01*
X10674825Y-18000484D02*
X10674825Y-17800484D01*
X10674825Y-17990960D02*
X10655777Y-18000484D01*
X10655777Y-18000484D02*
X10617682Y-18000484D01*
X10617682Y-18000484D02*
X10598635Y-17990960D01*
X10598635Y-17990960D02*
X10589111Y-17981436D01*
X10589111Y-17981436D02*
X10579587Y-17962389D01*
X10579587Y-17962389D02*
X10579587Y-17905246D01*
X10579587Y-17905246D02*
X10589111Y-17886198D01*
X10589111Y-17886198D02*
X10598635Y-17876674D01*
X10598635Y-17876674D02*
X10617682Y-17867150D01*
X10617682Y-17867150D02*
X10655777Y-17867150D01*
X10655777Y-17867150D02*
X10674825Y-17876674D01*
X10751016Y-18076674D02*
X10760539Y-18067150D01*
X10760539Y-18067150D02*
X10779587Y-18038579D01*
X10779587Y-18038579D02*
X10789111Y-18019531D01*
X10789111Y-18019531D02*
X10798635Y-17990960D01*
X10798635Y-17990960D02*
X10808158Y-17943341D01*
X10808158Y-17943341D02*
X10808158Y-17905246D01*
X10808158Y-17905246D02*
X10798635Y-17857627D01*
X10798635Y-17857627D02*
X10789111Y-17829055D01*
X10789111Y-17829055D02*
X10779587Y-17810008D01*
X10779587Y-17810008D02*
X10760539Y-17781436D01*
X10760539Y-17781436D02*
X10751016Y-17771912D01*
X3895000Y-18129000D02*
X3895000Y-18329000D01*
X3795000Y-18229000D02*
X3995000Y-18229000D01*
X4246253Y-18139531D02*
X4255777Y-18130008D01*
X4255777Y-18130008D02*
X4274824Y-18120484D01*
X4274824Y-18120484D02*
X4322444Y-18120484D01*
X4322444Y-18120484D02*
X4341491Y-18130008D01*
X4341491Y-18130008D02*
X4351015Y-18139531D01*
X4351015Y-18139531D02*
X4360539Y-18158579D01*
X4360539Y-18158579D02*
X4360539Y-18177627D01*
X4360539Y-18177627D02*
X4351015Y-18206198D01*
X4351015Y-18206198D02*
X4236729Y-18320484D01*
X4236729Y-18320484D02*
X4360539Y-18320484D01*
X4446253Y-18301436D02*
X4455777Y-18310960D01*
X4455777Y-18310960D02*
X4446253Y-18320484D01*
X4446253Y-18320484D02*
X4436729Y-18310960D01*
X4436729Y-18310960D02*
X4446253Y-18301436D01*
X4446253Y-18301436D02*
X4446253Y-18320484D01*
X4522444Y-18120484D02*
X4655777Y-18120484D01*
X4655777Y-18120484D02*
X4570063Y-18320484D01*
X4770063Y-18120484D02*
X4789110Y-18120484D01*
X4789110Y-18120484D02*
X4808158Y-18130008D01*
X4808158Y-18130008D02*
X4817682Y-18139531D01*
X4817682Y-18139531D02*
X4827205Y-18158579D01*
X4827205Y-18158579D02*
X4836729Y-18196674D01*
X4836729Y-18196674D02*
X4836729Y-18244293D01*
X4836729Y-18244293D02*
X4827205Y-18282389D01*
X4827205Y-18282389D02*
X4817682Y-18301436D01*
X4817682Y-18301436D02*
X4808158Y-18310960D01*
X4808158Y-18310960D02*
X4789110Y-18320484D01*
X4789110Y-18320484D02*
X4770063Y-18320484D01*
X4770063Y-18320484D02*
X4751015Y-18310960D01*
X4751015Y-18310960D02*
X4741491Y-18301436D01*
X4741491Y-18301436D02*
X4731967Y-18282389D01*
X4731967Y-18282389D02*
X4722444Y-18244293D01*
X4722444Y-18244293D02*
X4722444Y-18196674D01*
X4722444Y-18196674D02*
X4731967Y-18158579D01*
X4731967Y-18158579D02*
X4741491Y-18139531D01*
X4741491Y-18139531D02*
X4751015Y-18130008D01*
X4751015Y-18130008D02*
X4770063Y-18120484D01*
X4960539Y-18120484D02*
X4979586Y-18120484D01*
X4979586Y-18120484D02*
X4998634Y-18130008D01*
X4998634Y-18130008D02*
X5008158Y-18139531D01*
X5008158Y-18139531D02*
X5017682Y-18158579D01*
X5017682Y-18158579D02*
X5027205Y-18196674D01*
X5027205Y-18196674D02*
X5027205Y-18244293D01*
X5027205Y-18244293D02*
X5017682Y-18282389D01*
X5017682Y-18282389D02*
X5008158Y-18301436D01*
X5008158Y-18301436D02*
X4998634Y-18310960D01*
X4998634Y-18310960D02*
X4979586Y-18320484D01*
X4979586Y-18320484D02*
X4960539Y-18320484D01*
X4960539Y-18320484D02*
X4941491Y-18310960D01*
X4941491Y-18310960D02*
X4931967Y-18301436D01*
X4931967Y-18301436D02*
X4922444Y-18282389D01*
X4922444Y-18282389D02*
X4912920Y-18244293D01*
X4912920Y-18244293D02*
X4912920Y-18196674D01*
X4912920Y-18196674D02*
X4922444Y-18158579D01*
X4922444Y-18158579D02*
X4931967Y-18139531D01*
X4931967Y-18139531D02*
X4941491Y-18130008D01*
X4941491Y-18130008D02*
X4960539Y-18120484D01*
X5112920Y-18320484D02*
X5112920Y-18187150D01*
X5112920Y-18206198D02*
X5122444Y-18196674D01*
X5122444Y-18196674D02*
X5141491Y-18187150D01*
X5141491Y-18187150D02*
X5170063Y-18187150D01*
X5170063Y-18187150D02*
X5189110Y-18196674D01*
X5189110Y-18196674D02*
X5198634Y-18215722D01*
X5198634Y-18215722D02*
X5198634Y-18320484D01*
X5198634Y-18215722D02*
X5208158Y-18196674D01*
X5208158Y-18196674D02*
X5227205Y-18187150D01*
X5227205Y-18187150D02*
X5255777Y-18187150D01*
X5255777Y-18187150D02*
X5274825Y-18196674D01*
X5274825Y-18196674D02*
X5284348Y-18215722D01*
X5284348Y-18215722D02*
X5284348Y-18320484D01*
X5379586Y-18320484D02*
X5379586Y-18187150D01*
X5379586Y-18206198D02*
X5389110Y-18196674D01*
X5389110Y-18196674D02*
X5408158Y-18187150D01*
X5408158Y-18187150D02*
X5436729Y-18187150D01*
X5436729Y-18187150D02*
X5455777Y-18196674D01*
X5455777Y-18196674D02*
X5465301Y-18215722D01*
X5465301Y-18215722D02*
X5465301Y-18320484D01*
X5465301Y-18215722D02*
X5474825Y-18196674D01*
X5474825Y-18196674D02*
X5493872Y-18187150D01*
X5493872Y-18187150D02*
X5522444Y-18187150D01*
X5522444Y-18187150D02*
X5541491Y-18196674D01*
X5541491Y-18196674D02*
X5551015Y-18215722D01*
X5551015Y-18215722D02*
X5551015Y-18320484D01*
X5941491Y-18110960D02*
X5770063Y-18368103D01*
X6198634Y-18120484D02*
X6217682Y-18120484D01*
X6217682Y-18120484D02*
X6236729Y-18130008D01*
X6236729Y-18130008D02*
X6246253Y-18139531D01*
X6246253Y-18139531D02*
X6255777Y-18158579D01*
X6255777Y-18158579D02*
X6265301Y-18196674D01*
X6265301Y-18196674D02*
X6265301Y-18244293D01*
X6265301Y-18244293D02*
X6255777Y-18282389D01*
X6255777Y-18282389D02*
X6246253Y-18301436D01*
X6246253Y-18301436D02*
X6236729Y-18310960D01*
X6236729Y-18310960D02*
X6217682Y-18320484D01*
X6217682Y-18320484D02*
X6198634Y-18320484D01*
X6198634Y-18320484D02*
X6179586Y-18310960D01*
X6179586Y-18310960D02*
X6170063Y-18301436D01*
X6170063Y-18301436D02*
X6160539Y-18282389D01*
X6160539Y-18282389D02*
X6151015Y-18244293D01*
X6151015Y-18244293D02*
X6151015Y-18196674D01*
X6151015Y-18196674D02*
X6160539Y-18158579D01*
X6160539Y-18158579D02*
X6170063Y-18139531D01*
X6170063Y-18139531D02*
X6179586Y-18130008D01*
X6179586Y-18130008D02*
X6198634Y-18120484D01*
X6351015Y-18301436D02*
X6360539Y-18310960D01*
X6360539Y-18310960D02*
X6351015Y-18320484D01*
X6351015Y-18320484D02*
X6341491Y-18310960D01*
X6341491Y-18310960D02*
X6351015Y-18301436D01*
X6351015Y-18301436D02*
X6351015Y-18320484D01*
X6551015Y-18320484D02*
X6436729Y-18320484D01*
X6493872Y-18320484D02*
X6493872Y-18120484D01*
X6493872Y-18120484D02*
X6474825Y-18149055D01*
X6474825Y-18149055D02*
X6455777Y-18168103D01*
X6455777Y-18168103D02*
X6436729Y-18177627D01*
X6674825Y-18120484D02*
X6693872Y-18120484D01*
X6693872Y-18120484D02*
X6712920Y-18130008D01*
X6712920Y-18130008D02*
X6722444Y-18139531D01*
X6722444Y-18139531D02*
X6731967Y-18158579D01*
X6731967Y-18158579D02*
X6741491Y-18196674D01*
X6741491Y-18196674D02*
X6741491Y-18244293D01*
X6741491Y-18244293D02*
X6731967Y-18282389D01*
X6731967Y-18282389D02*
X6722444Y-18301436D01*
X6722444Y-18301436D02*
X6712920Y-18310960D01*
X6712920Y-18310960D02*
X6693872Y-18320484D01*
X6693872Y-18320484D02*
X6674825Y-18320484D01*
X6674825Y-18320484D02*
X6655777Y-18310960D01*
X6655777Y-18310960D02*
X6646253Y-18301436D01*
X6646253Y-18301436D02*
X6636729Y-18282389D01*
X6636729Y-18282389D02*
X6627206Y-18244293D01*
X6627206Y-18244293D02*
X6627206Y-18196674D01*
X6627206Y-18196674D02*
X6636729Y-18158579D01*
X6636729Y-18158579D02*
X6646253Y-18139531D01*
X6646253Y-18139531D02*
X6655777Y-18130008D01*
X6655777Y-18130008D02*
X6674825Y-18120484D01*
X6912920Y-18120484D02*
X6874825Y-18120484D01*
X6874825Y-18120484D02*
X6855777Y-18130008D01*
X6855777Y-18130008D02*
X6846253Y-18139531D01*
X6846253Y-18139531D02*
X6827206Y-18168103D01*
X6827206Y-18168103D02*
X6817682Y-18206198D01*
X6817682Y-18206198D02*
X6817682Y-18282389D01*
X6817682Y-18282389D02*
X6827206Y-18301436D01*
X6827206Y-18301436D02*
X6836729Y-18310960D01*
X6836729Y-18310960D02*
X6855777Y-18320484D01*
X6855777Y-18320484D02*
X6893872Y-18320484D01*
X6893872Y-18320484D02*
X6912920Y-18310960D01*
X6912920Y-18310960D02*
X6922444Y-18301436D01*
X6922444Y-18301436D02*
X6931967Y-18282389D01*
X6931967Y-18282389D02*
X6931967Y-18234770D01*
X6931967Y-18234770D02*
X6922444Y-18215722D01*
X6922444Y-18215722D02*
X6912920Y-18206198D01*
X6912920Y-18206198D02*
X6893872Y-18196674D01*
X6893872Y-18196674D02*
X6855777Y-18196674D01*
X6855777Y-18196674D02*
X6836729Y-18206198D01*
X6836729Y-18206198D02*
X6827206Y-18215722D01*
X6827206Y-18215722D02*
X6817682Y-18234770D01*
X6998634Y-18120484D02*
X7122444Y-18120484D01*
X7122444Y-18120484D02*
X7055777Y-18196674D01*
X7055777Y-18196674D02*
X7084348Y-18196674D01*
X7084348Y-18196674D02*
X7103396Y-18206198D01*
X7103396Y-18206198D02*
X7112920Y-18215722D01*
X7112920Y-18215722D02*
X7122444Y-18234770D01*
X7122444Y-18234770D02*
X7122444Y-18282389D01*
X7122444Y-18282389D02*
X7112920Y-18301436D01*
X7112920Y-18301436D02*
X7103396Y-18310960D01*
X7103396Y-18310960D02*
X7084348Y-18320484D01*
X7084348Y-18320484D02*
X7027206Y-18320484D01*
X7027206Y-18320484D02*
X7008158Y-18310960D01*
X7008158Y-18310960D02*
X6998634Y-18301436D01*
X7198634Y-18120484D02*
X7198634Y-18158579D01*
X7274825Y-18120484D02*
X7274825Y-18158579D01*
X7570063Y-18396674D02*
X7560539Y-18387150D01*
X7560539Y-18387150D02*
X7541491Y-18358579D01*
X7541491Y-18358579D02*
X7531968Y-18339531D01*
X7531968Y-18339531D02*
X7522444Y-18310960D01*
X7522444Y-18310960D02*
X7512920Y-18263341D01*
X7512920Y-18263341D02*
X7512920Y-18225246D01*
X7512920Y-18225246D02*
X7522444Y-18177627D01*
X7522444Y-18177627D02*
X7531968Y-18149055D01*
X7531968Y-18149055D02*
X7541491Y-18130008D01*
X7541491Y-18130008D02*
X7560539Y-18101436D01*
X7560539Y-18101436D02*
X7570063Y-18091912D01*
X7674825Y-18206198D02*
X7655777Y-18196674D01*
X7655777Y-18196674D02*
X7646253Y-18187150D01*
X7646253Y-18187150D02*
X7636729Y-18168103D01*
X7636729Y-18168103D02*
X7636729Y-18158579D01*
X7636729Y-18158579D02*
X7646253Y-18139531D01*
X7646253Y-18139531D02*
X7655777Y-18130008D01*
X7655777Y-18130008D02*
X7674825Y-18120484D01*
X7674825Y-18120484D02*
X7712920Y-18120484D01*
X7712920Y-18120484D02*
X7731968Y-18130008D01*
X7731968Y-18130008D02*
X7741491Y-18139531D01*
X7741491Y-18139531D02*
X7751015Y-18158579D01*
X7751015Y-18158579D02*
X7751015Y-18168103D01*
X7751015Y-18168103D02*
X7741491Y-18187150D01*
X7741491Y-18187150D02*
X7731968Y-18196674D01*
X7731968Y-18196674D02*
X7712920Y-18206198D01*
X7712920Y-18206198D02*
X7674825Y-18206198D01*
X7674825Y-18206198D02*
X7655777Y-18215722D01*
X7655777Y-18215722D02*
X7646253Y-18225246D01*
X7646253Y-18225246D02*
X7636729Y-18244293D01*
X7636729Y-18244293D02*
X7636729Y-18282389D01*
X7636729Y-18282389D02*
X7646253Y-18301436D01*
X7646253Y-18301436D02*
X7655777Y-18310960D01*
X7655777Y-18310960D02*
X7674825Y-18320484D01*
X7674825Y-18320484D02*
X7712920Y-18320484D01*
X7712920Y-18320484D02*
X7731968Y-18310960D01*
X7731968Y-18310960D02*
X7741491Y-18301436D01*
X7741491Y-18301436D02*
X7751015Y-18282389D01*
X7751015Y-18282389D02*
X7751015Y-18244293D01*
X7751015Y-18244293D02*
X7741491Y-18225246D01*
X7741491Y-18225246D02*
X7731968Y-18215722D01*
X7731968Y-18215722D02*
X7712920Y-18206198D01*
X7989110Y-18320484D02*
X7989110Y-18120484D01*
X8074825Y-18320484D02*
X8074825Y-18215722D01*
X8074825Y-18215722D02*
X8065301Y-18196674D01*
X8065301Y-18196674D02*
X8046253Y-18187150D01*
X8046253Y-18187150D02*
X8017682Y-18187150D01*
X8017682Y-18187150D02*
X7998634Y-18196674D01*
X7998634Y-18196674D02*
X7989110Y-18206198D01*
X8198634Y-18320484D02*
X8179587Y-18310960D01*
X8179587Y-18310960D02*
X8170063Y-18301436D01*
X8170063Y-18301436D02*
X8160539Y-18282389D01*
X8160539Y-18282389D02*
X8160539Y-18225246D01*
X8160539Y-18225246D02*
X8170063Y-18206198D01*
X8170063Y-18206198D02*
X8179587Y-18196674D01*
X8179587Y-18196674D02*
X8198634Y-18187150D01*
X8198634Y-18187150D02*
X8227206Y-18187150D01*
X8227206Y-18187150D02*
X8246253Y-18196674D01*
X8246253Y-18196674D02*
X8255777Y-18206198D01*
X8255777Y-18206198D02*
X8265301Y-18225246D01*
X8265301Y-18225246D02*
X8265301Y-18282389D01*
X8265301Y-18282389D02*
X8255777Y-18301436D01*
X8255777Y-18301436D02*
X8246253Y-18310960D01*
X8246253Y-18310960D02*
X8227206Y-18320484D01*
X8227206Y-18320484D02*
X8198634Y-18320484D01*
X8379587Y-18320484D02*
X8360539Y-18310960D01*
X8360539Y-18310960D02*
X8351015Y-18291912D01*
X8351015Y-18291912D02*
X8351015Y-18120484D01*
X8531968Y-18310960D02*
X8512920Y-18320484D01*
X8512920Y-18320484D02*
X8474825Y-18320484D01*
X8474825Y-18320484D02*
X8455777Y-18310960D01*
X8455777Y-18310960D02*
X8446253Y-18291912D01*
X8446253Y-18291912D02*
X8446253Y-18215722D01*
X8446253Y-18215722D02*
X8455777Y-18196674D01*
X8455777Y-18196674D02*
X8474825Y-18187150D01*
X8474825Y-18187150D02*
X8512920Y-18187150D01*
X8512920Y-18187150D02*
X8531968Y-18196674D01*
X8531968Y-18196674D02*
X8541492Y-18215722D01*
X8541492Y-18215722D02*
X8541492Y-18234770D01*
X8541492Y-18234770D02*
X8446253Y-18253817D01*
X8617682Y-18310960D02*
X8636730Y-18320484D01*
X8636730Y-18320484D02*
X8674825Y-18320484D01*
X8674825Y-18320484D02*
X8693873Y-18310960D01*
X8693873Y-18310960D02*
X8703396Y-18291912D01*
X8703396Y-18291912D02*
X8703396Y-18282389D01*
X8703396Y-18282389D02*
X8693873Y-18263341D01*
X8693873Y-18263341D02*
X8674825Y-18253817D01*
X8674825Y-18253817D02*
X8646253Y-18253817D01*
X8646253Y-18253817D02*
X8627206Y-18244293D01*
X8627206Y-18244293D02*
X8617682Y-18225246D01*
X8617682Y-18225246D02*
X8617682Y-18215722D01*
X8617682Y-18215722D02*
X8627206Y-18196674D01*
X8627206Y-18196674D02*
X8646253Y-18187150D01*
X8646253Y-18187150D02*
X8674825Y-18187150D01*
X8674825Y-18187150D02*
X8693873Y-18196674D01*
X8770063Y-18396674D02*
X8779587Y-18387150D01*
X8779587Y-18387150D02*
X8798634Y-18358579D01*
X8798634Y-18358579D02*
X8808158Y-18339531D01*
X8808158Y-18339531D02*
X8817682Y-18310960D01*
X8817682Y-18310960D02*
X8827206Y-18263341D01*
X8827206Y-18263341D02*
X8827206Y-18225246D01*
X8827206Y-18225246D02*
X8817682Y-18177627D01*
X8817682Y-18177627D02*
X8808158Y-18149055D01*
X8808158Y-18149055D02*
X8798634Y-18130008D01*
X8798634Y-18130008D02*
X8779587Y-18101436D01*
X8779587Y-18101436D02*
X8770063Y-18091912D01*
X9131968Y-18396674D02*
X9122444Y-18387150D01*
X9122444Y-18387150D02*
X9103396Y-18358579D01*
X9103396Y-18358579D02*
X9093873Y-18339531D01*
X9093873Y-18339531D02*
X9084349Y-18310960D01*
X9084349Y-18310960D02*
X9074825Y-18263341D01*
X9074825Y-18263341D02*
X9074825Y-18225246D01*
X9074825Y-18225246D02*
X9084349Y-18177627D01*
X9084349Y-18177627D02*
X9093873Y-18149055D01*
X9093873Y-18149055D02*
X9103396Y-18130008D01*
X9103396Y-18130008D02*
X9122444Y-18101436D01*
X9122444Y-18101436D02*
X9131968Y-18091912D01*
X9208158Y-18187150D02*
X9208158Y-18320484D01*
X9208158Y-18206198D02*
X9217682Y-18196674D01*
X9217682Y-18196674D02*
X9236730Y-18187150D01*
X9236730Y-18187150D02*
X9265301Y-18187150D01*
X9265301Y-18187150D02*
X9284349Y-18196674D01*
X9284349Y-18196674D02*
X9293873Y-18215722D01*
X9293873Y-18215722D02*
X9293873Y-18320484D01*
X9417682Y-18320484D02*
X9398634Y-18310960D01*
X9398634Y-18310960D02*
X9389111Y-18301436D01*
X9389111Y-18301436D02*
X9379587Y-18282389D01*
X9379587Y-18282389D02*
X9379587Y-18225246D01*
X9379587Y-18225246D02*
X9389111Y-18206198D01*
X9389111Y-18206198D02*
X9398634Y-18196674D01*
X9398634Y-18196674D02*
X9417682Y-18187150D01*
X9417682Y-18187150D02*
X9446254Y-18187150D01*
X9446254Y-18187150D02*
X9465301Y-18196674D01*
X9465301Y-18196674D02*
X9474825Y-18206198D01*
X9474825Y-18206198D02*
X9484349Y-18225246D01*
X9484349Y-18225246D02*
X9484349Y-18282389D01*
X9484349Y-18282389D02*
X9474825Y-18301436D01*
X9474825Y-18301436D02*
X9465301Y-18310960D01*
X9465301Y-18310960D02*
X9446254Y-18320484D01*
X9446254Y-18320484D02*
X9417682Y-18320484D01*
X9541492Y-18187150D02*
X9617682Y-18187150D01*
X9570063Y-18120484D02*
X9570063Y-18291912D01*
X9570063Y-18291912D02*
X9579587Y-18310960D01*
X9579587Y-18310960D02*
X9598634Y-18320484D01*
X9598634Y-18320484D02*
X9617682Y-18320484D01*
X9836730Y-18187150D02*
X9836730Y-18387150D01*
X9836730Y-18196674D02*
X9855777Y-18187150D01*
X9855777Y-18187150D02*
X9893873Y-18187150D01*
X9893873Y-18187150D02*
X9912920Y-18196674D01*
X9912920Y-18196674D02*
X9922444Y-18206198D01*
X9922444Y-18206198D02*
X9931968Y-18225246D01*
X9931968Y-18225246D02*
X9931968Y-18282389D01*
X9931968Y-18282389D02*
X9922444Y-18301436D01*
X9922444Y-18301436D02*
X9912920Y-18310960D01*
X9912920Y-18310960D02*
X9893873Y-18320484D01*
X9893873Y-18320484D02*
X9855777Y-18320484D01*
X9855777Y-18320484D02*
X9836730Y-18310960D01*
X10046254Y-18320484D02*
X10027206Y-18310960D01*
X10027206Y-18310960D02*
X10017682Y-18291912D01*
X10017682Y-18291912D02*
X10017682Y-18120484D01*
X10208158Y-18320484D02*
X10208158Y-18215722D01*
X10208158Y-18215722D02*
X10198635Y-18196674D01*
X10198635Y-18196674D02*
X10179587Y-18187150D01*
X10179587Y-18187150D02*
X10141492Y-18187150D01*
X10141492Y-18187150D02*
X10122444Y-18196674D01*
X10208158Y-18310960D02*
X10189111Y-18320484D01*
X10189111Y-18320484D02*
X10141492Y-18320484D01*
X10141492Y-18320484D02*
X10122444Y-18310960D01*
X10122444Y-18310960D02*
X10112920Y-18291912D01*
X10112920Y-18291912D02*
X10112920Y-18272865D01*
X10112920Y-18272865D02*
X10122444Y-18253817D01*
X10122444Y-18253817D02*
X10141492Y-18244293D01*
X10141492Y-18244293D02*
X10189111Y-18244293D01*
X10189111Y-18244293D02*
X10208158Y-18234770D01*
X10274825Y-18187150D02*
X10351015Y-18187150D01*
X10303396Y-18120484D02*
X10303396Y-18291912D01*
X10303396Y-18291912D02*
X10312920Y-18310960D01*
X10312920Y-18310960D02*
X10331968Y-18320484D01*
X10331968Y-18320484D02*
X10351015Y-18320484D01*
X10493873Y-18310960D02*
X10474825Y-18320484D01*
X10474825Y-18320484D02*
X10436730Y-18320484D01*
X10436730Y-18320484D02*
X10417682Y-18310960D01*
X10417682Y-18310960D02*
X10408158Y-18291912D01*
X10408158Y-18291912D02*
X10408158Y-18215722D01*
X10408158Y-18215722D02*
X10417682Y-18196674D01*
X10417682Y-18196674D02*
X10436730Y-18187150D01*
X10436730Y-18187150D02*
X10474825Y-18187150D01*
X10474825Y-18187150D02*
X10493873Y-18196674D01*
X10493873Y-18196674D02*
X10503396Y-18215722D01*
X10503396Y-18215722D02*
X10503396Y-18234770D01*
X10503396Y-18234770D02*
X10408158Y-18253817D01*
X10674825Y-18320484D02*
X10674825Y-18120484D01*
X10674825Y-18310960D02*
X10655777Y-18320484D01*
X10655777Y-18320484D02*
X10617682Y-18320484D01*
X10617682Y-18320484D02*
X10598635Y-18310960D01*
X10598635Y-18310960D02*
X10589111Y-18301436D01*
X10589111Y-18301436D02*
X10579587Y-18282389D01*
X10579587Y-18282389D02*
X10579587Y-18225246D01*
X10579587Y-18225246D02*
X10589111Y-18206198D01*
X10589111Y-18206198D02*
X10598635Y-18196674D01*
X10598635Y-18196674D02*
X10617682Y-18187150D01*
X10617682Y-18187150D02*
X10655777Y-18187150D01*
X10655777Y-18187150D02*
X10674825Y-18196674D01*
X10751016Y-18396674D02*
X10760539Y-18387150D01*
X10760539Y-18387150D02*
X10779587Y-18358579D01*
X10779587Y-18358579D02*
X10789111Y-18339531D01*
X10789111Y-18339531D02*
X10798635Y-18310960D01*
X10798635Y-18310960D02*
X10808158Y-18263341D01*
X10808158Y-18263341D02*
X10808158Y-18225246D01*
X10808158Y-18225246D02*
X10798635Y-18177627D01*
X10798635Y-18177627D02*
X10789111Y-18149055D01*
X10789111Y-18149055D02*
X10779587Y-18130008D01*
X10779587Y-18130008D02*
X10760539Y-18101436D01*
X10760539Y-18101436D02*
X10751016Y-18091912D01*
M02*
