G04 #@! TF.GenerationSoftware,KiCad,Pcbnew,8.0.3*
G04 #@! TF.CreationDate,2024-06-09T12:16:37+02:00*
G04 #@! TF.ProjectId,chip8-pcb,63686970-382d-4706-9362-2e6b69636164,1*
G04 #@! TF.SameCoordinates,Original*
G04 #@! TF.FileFunction,Legend,Top*
G04 #@! TF.FilePolarity,Positive*
%FSLAX46Y46*%
G04 Gerber Fmt 4.6, Leading zero omitted, Abs format (unit mm)*
G04 Created by KiCad (PCBNEW 8.0.3) date 2024-06-09 12:16:37*
%MOMM*%
%LPD*%
G01*
G04 APERTURE LIST*
G04 Aperture macros list*
%AMRoundRect*
0 Rectangle with rounded corners*
0 $1 Rounding radius*
0 $2 $3 $4 $5 $6 $7 $8 $9 X,Y pos of 4 corners*
0 Add a 4 corners polygon primitive as box body*
4,1,4,$2,$3,$4,$5,$6,$7,$8,$9,$2,$3,0*
0 Add four circle primitives for the rounded corners*
1,1,$1+$1,$2,$3*
1,1,$1+$1,$4,$5*
1,1,$1+$1,$6,$7*
1,1,$1+$1,$8,$9*
0 Add four rect primitives between the rounded corners*
20,1,$1+$1,$2,$3,$4,$5,0*
20,1,$1+$1,$4,$5,$6,$7,0*
20,1,$1+$1,$6,$7,$8,$9,0*
20,1,$1+$1,$8,$9,$2,$3,0*%
%AMFreePoly0*
4,1,19,0.000000,0.744911,0.071157,0.744911,0.207708,0.704816,0.327430,0.627875,0.420627,0.520320,0.479746,0.390866,0.500000,0.250000,0.500000,-0.250000,0.479746,-0.390866,0.420627,-0.520320,0.327430,-0.627875,0.207708,-0.704816,0.071157,-0.744911,0.000000,-0.744911,0.000000,-0.750000,-0.500000,-0.750000,-0.500000,0.750000,0.000000,0.750000,0.000000,0.744911,0.000000,0.744911,
$1*%
%AMFreePoly1*
4,1,19,0.500000,-0.750000,0.000000,-0.750000,0.000000,-0.744911,-0.071157,-0.744911,-0.207708,-0.704816,-0.327430,-0.627875,-0.420627,-0.520320,-0.479746,-0.390866,-0.500000,-0.250000,-0.500000,0.250000,-0.479746,0.390866,-0.420627,0.520320,-0.327430,0.627875,-0.207708,0.704816,-0.071157,0.744911,0.000000,0.744911,0.000000,0.750000,0.500000,0.750000,0.500000,-0.750000,0.500000,-0.750000,
$1*%
G04 Aperture macros list end*
%ADD10C,0.200000*%
%ADD11C,0.150000*%
%ADD12C,0.250000*%
%ADD13C,0.120000*%
%ADD14C,0.100000*%
%ADD15O,1.700000X1.700000*%
%ADD16R,1.700000X1.700000*%
%ADD17RoundRect,0.200000X-0.275000X0.200000X-0.275000X-0.200000X0.275000X-0.200000X0.275000X0.200000X0*%
%ADD18RoundRect,0.150000X-0.650000X-0.150000X0.650000X-0.150000X0.650000X0.150000X-0.650000X0.150000X0*%
%ADD19RoundRect,0.150000X-0.512500X-0.150000X0.512500X-0.150000X0.512500X0.150000X-0.512500X0.150000X0*%
%ADD20RoundRect,0.225000X-0.250000X0.225000X-0.250000X-0.225000X0.250000X-0.225000X0.250000X0.225000X0*%
%ADD21C,2.700000*%
%ADD22FreePoly0,270.000000*%
%ADD23FreePoly1,270.000000*%
%ADD24RoundRect,0.200000X-0.200000X-0.275000X0.200000X-0.275000X0.200000X0.275000X-0.200000X0.275000X0*%
%ADD25RoundRect,0.225000X0.250000X-0.225000X0.250000X0.225000X-0.250000X0.225000X-0.250000X-0.225000X0*%
%ADD26RoundRect,0.133334X-0.266666X-1.366666X0.266666X-1.366666X0.266666X1.366666X-0.266666X1.366666X0*%
%ADD27RoundRect,0.225000X-0.225000X-0.625000X0.225000X-0.625000X0.225000X0.625000X-0.225000X0.625000X0*%
%ADD28RoundRect,0.225000X-0.225000X-0.250000X0.225000X-0.250000X0.225000X0.250000X-0.225000X0.250000X0*%
%ADD29R,3.200000X2.400000*%
%ADD30RoundRect,0.150000X-0.150000X0.650000X-0.150000X-0.650000X0.150000X-0.650000X0.150000X0.650000X0*%
%ADD31FreePoly0,180.000000*%
%ADD32FreePoly1,180.000000*%
%ADD33R,1.100000X3.700000*%
%ADD34RoundRect,0.200000X0.275000X-0.200000X0.275000X0.200000X-0.275000X0.200000X-0.275000X-0.200000X0*%
%ADD35RoundRect,0.225000X0.225000X0.250000X-0.225000X0.250000X-0.225000X-0.250000X0.225000X-0.250000X0*%
%ADD36FreePoly0,0.000000*%
%ADD37FreePoly1,0.000000*%
%ADD38RoundRect,0.200000X0.200000X0.275000X-0.200000X0.275000X-0.200000X-0.275000X0.200000X-0.275000X0*%
%ADD39RoundRect,0.243750X0.456250X-0.243750X0.456250X0.243750X-0.456250X0.243750X-0.456250X-0.243750X0*%
%ADD40RoundRect,0.100000X0.100000X-0.225000X0.100000X0.225000X-0.100000X0.225000X-0.100000X-0.225000X0*%
%ADD41RoundRect,0.150000X0.587500X0.150000X-0.587500X0.150000X-0.587500X-0.150000X0.587500X-0.150000X0*%
%ADD42RoundRect,0.150000X-0.150000X0.587500X-0.150000X-0.587500X0.150000X-0.587500X0.150000X0.587500X0*%
%ADD43RoundRect,0.250000X1.500000X0.550000X-1.500000X0.550000X-1.500000X-0.550000X1.500000X-0.550000X0*%
%ADD44RoundRect,0.218750X0.256250X-0.218750X0.256250X0.218750X-0.256250X0.218750X-0.256250X-0.218750X0*%
%ADD45R,2.300000X2.300000*%
%ADD46RoundRect,0.250000X-1.000000X0.375000X-1.000000X-0.375000X1.000000X-0.375000X1.000000X0.375000X0*%
%ADD47C,0.900000*%
%ADD48RoundRect,0.600000X1.150000X0.150000X-1.150000X0.150000X-1.150000X-0.150000X1.150000X-0.150000X0*%
%ADD49RoundRect,0.600000X-1.150000X-0.150000X1.150000X-0.150000X1.150000X0.150000X-1.150000X0.150000X0*%
%ADD50RoundRect,0.250000X-0.650000X1.000000X-0.650000X-1.000000X0.650000X-1.000000X0.650000X1.000000X0*%
G04 APERTURE END LIST*
D10*
X110754079Y-116067219D02*
X110754079Y-115067219D01*
X111325507Y-116067219D02*
X110896936Y-115495790D01*
X111325507Y-115067219D02*
X110754079Y-115638647D01*
X112135031Y-116019600D02*
X112039793Y-116067219D01*
X112039793Y-116067219D02*
X111849317Y-116067219D01*
X111849317Y-116067219D02*
X111754079Y-116019600D01*
X111754079Y-116019600D02*
X111706460Y-115924361D01*
X111706460Y-115924361D02*
X111706460Y-115543409D01*
X111706460Y-115543409D02*
X111754079Y-115448171D01*
X111754079Y-115448171D02*
X111849317Y-115400552D01*
X111849317Y-115400552D02*
X112039793Y-115400552D01*
X112039793Y-115400552D02*
X112135031Y-115448171D01*
X112135031Y-115448171D02*
X112182650Y-115543409D01*
X112182650Y-115543409D02*
X112182650Y-115638647D01*
X112182650Y-115638647D02*
X111706460Y-115733885D01*
X112515984Y-115400552D02*
X112754079Y-116067219D01*
X112992174Y-115400552D02*
X112754079Y-116067219D01*
X112754079Y-116067219D02*
X112658841Y-116305314D01*
X112658841Y-116305314D02*
X112611222Y-116352933D01*
X112611222Y-116352933D02*
X112515984Y-116400552D01*
X113373127Y-115400552D02*
X113373127Y-116400552D01*
X113373127Y-115448171D02*
X113468365Y-115400552D01*
X113468365Y-115400552D02*
X113658841Y-115400552D01*
X113658841Y-115400552D02*
X113754079Y-115448171D01*
X113754079Y-115448171D02*
X113801698Y-115495790D01*
X113801698Y-115495790D02*
X113849317Y-115591028D01*
X113849317Y-115591028D02*
X113849317Y-115876742D01*
X113849317Y-115876742D02*
X113801698Y-115971980D01*
X113801698Y-115971980D02*
X113754079Y-116019600D01*
X113754079Y-116019600D02*
X113658841Y-116067219D01*
X113658841Y-116067219D02*
X113468365Y-116067219D01*
X113468365Y-116067219D02*
X113373127Y-116019600D01*
X114706460Y-116067219D02*
X114706460Y-115543409D01*
X114706460Y-115543409D02*
X114658841Y-115448171D01*
X114658841Y-115448171D02*
X114563603Y-115400552D01*
X114563603Y-115400552D02*
X114373127Y-115400552D01*
X114373127Y-115400552D02*
X114277889Y-115448171D01*
X114706460Y-116019600D02*
X114611222Y-116067219D01*
X114611222Y-116067219D02*
X114373127Y-116067219D01*
X114373127Y-116067219D02*
X114277889Y-116019600D01*
X114277889Y-116019600D02*
X114230270Y-115924361D01*
X114230270Y-115924361D02*
X114230270Y-115829123D01*
X114230270Y-115829123D02*
X114277889Y-115733885D01*
X114277889Y-115733885D02*
X114373127Y-115686266D01*
X114373127Y-115686266D02*
X114611222Y-115686266D01*
X114611222Y-115686266D02*
X114706460Y-115638647D01*
X115611222Y-116067219D02*
X115611222Y-115067219D01*
X115611222Y-116019600D02*
X115515984Y-116067219D01*
X115515984Y-116067219D02*
X115325508Y-116067219D01*
X115325508Y-116067219D02*
X115230270Y-116019600D01*
X115230270Y-116019600D02*
X115182651Y-115971980D01*
X115182651Y-115971980D02*
X115135032Y-115876742D01*
X115135032Y-115876742D02*
X115135032Y-115591028D01*
X115135032Y-115591028D02*
X115182651Y-115495790D01*
X115182651Y-115495790D02*
X115230270Y-115448171D01*
X115230270Y-115448171D02*
X115325508Y-115400552D01*
X115325508Y-115400552D02*
X115515984Y-115400552D01*
X115515984Y-115400552D02*
X115611222Y-115448171D01*
X115551625Y-108430326D02*
X114551625Y-108430326D01*
X114551625Y-108430326D02*
X114551625Y-108192231D01*
X114551625Y-108192231D02*
X114599244Y-108049374D01*
X114599244Y-108049374D02*
X114694482Y-107954136D01*
X114694482Y-107954136D02*
X114789720Y-107906517D01*
X114789720Y-107906517D02*
X114980196Y-107858898D01*
X114980196Y-107858898D02*
X115123053Y-107858898D01*
X115123053Y-107858898D02*
X115313529Y-107906517D01*
X115313529Y-107906517D02*
X115408767Y-107954136D01*
X115408767Y-107954136D02*
X115504006Y-108049374D01*
X115504006Y-108049374D02*
X115551625Y-108192231D01*
X115551625Y-108192231D02*
X115551625Y-108430326D01*
X115551625Y-107430326D02*
X114884958Y-107430326D01*
X114551625Y-107430326D02*
X114599244Y-107477945D01*
X114599244Y-107477945D02*
X114646863Y-107430326D01*
X114646863Y-107430326D02*
X114599244Y-107382707D01*
X114599244Y-107382707D02*
X114551625Y-107430326D01*
X114551625Y-107430326D02*
X114646863Y-107430326D01*
X115504006Y-107001755D02*
X115551625Y-106906517D01*
X115551625Y-106906517D02*
X115551625Y-106716041D01*
X115551625Y-106716041D02*
X115504006Y-106620803D01*
X115504006Y-106620803D02*
X115408767Y-106573184D01*
X115408767Y-106573184D02*
X115361148Y-106573184D01*
X115361148Y-106573184D02*
X115265910Y-106620803D01*
X115265910Y-106620803D02*
X115218291Y-106716041D01*
X115218291Y-106716041D02*
X115218291Y-106858898D01*
X115218291Y-106858898D02*
X115170672Y-106954136D01*
X115170672Y-106954136D02*
X115075434Y-107001755D01*
X115075434Y-107001755D02*
X115027815Y-107001755D01*
X115027815Y-107001755D02*
X114932577Y-106954136D01*
X114932577Y-106954136D02*
X114884958Y-106858898D01*
X114884958Y-106858898D02*
X114884958Y-106716041D01*
X114884958Y-106716041D02*
X114932577Y-106620803D01*
X114884958Y-106144612D02*
X115884958Y-106144612D01*
X114932577Y-106144612D02*
X114884958Y-106049374D01*
X114884958Y-106049374D02*
X114884958Y-105858898D01*
X114884958Y-105858898D02*
X114932577Y-105763660D01*
X114932577Y-105763660D02*
X114980196Y-105716041D01*
X114980196Y-105716041D02*
X115075434Y-105668422D01*
X115075434Y-105668422D02*
X115361148Y-105668422D01*
X115361148Y-105668422D02*
X115456386Y-105716041D01*
X115456386Y-105716041D02*
X115504006Y-105763660D01*
X115504006Y-105763660D02*
X115551625Y-105858898D01*
X115551625Y-105858898D02*
X115551625Y-106049374D01*
X115551625Y-106049374D02*
X115504006Y-106144612D01*
X115551625Y-105096993D02*
X115504006Y-105192231D01*
X115504006Y-105192231D02*
X115408767Y-105239850D01*
X115408767Y-105239850D02*
X114551625Y-105239850D01*
X115551625Y-104287469D02*
X115027815Y-104287469D01*
X115027815Y-104287469D02*
X114932577Y-104335088D01*
X114932577Y-104335088D02*
X114884958Y-104430326D01*
X114884958Y-104430326D02*
X114884958Y-104620802D01*
X114884958Y-104620802D02*
X114932577Y-104716040D01*
X115504006Y-104287469D02*
X115551625Y-104382707D01*
X115551625Y-104382707D02*
X115551625Y-104620802D01*
X115551625Y-104620802D02*
X115504006Y-104716040D01*
X115504006Y-104716040D02*
X115408767Y-104763659D01*
X115408767Y-104763659D02*
X115313529Y-104763659D01*
X115313529Y-104763659D02*
X115218291Y-104716040D01*
X115218291Y-104716040D02*
X115170672Y-104620802D01*
X115170672Y-104620802D02*
X115170672Y-104382707D01*
X115170672Y-104382707D02*
X115123053Y-104287469D01*
X114884958Y-103906516D02*
X115551625Y-103668421D01*
X114884958Y-103430326D02*
X115551625Y-103668421D01*
X115551625Y-103668421D02*
X115789720Y-103763659D01*
X115789720Y-103763659D02*
X115837339Y-103811278D01*
X115837339Y-103811278D02*
X115884958Y-103906516D01*
X107727815Y-87730326D02*
X107727815Y-87396993D01*
X108251625Y-87254136D02*
X108251625Y-87730326D01*
X108251625Y-87730326D02*
X107251625Y-87730326D01*
X107251625Y-87730326D02*
X107251625Y-87254136D01*
X108204006Y-86873183D02*
X108251625Y-86730326D01*
X108251625Y-86730326D02*
X108251625Y-86492231D01*
X108251625Y-86492231D02*
X108204006Y-86396993D01*
X108204006Y-86396993D02*
X108156386Y-86349374D01*
X108156386Y-86349374D02*
X108061148Y-86301755D01*
X108061148Y-86301755D02*
X107965910Y-86301755D01*
X107965910Y-86301755D02*
X107870672Y-86349374D01*
X107870672Y-86349374D02*
X107823053Y-86396993D01*
X107823053Y-86396993D02*
X107775434Y-86492231D01*
X107775434Y-86492231D02*
X107727815Y-86682707D01*
X107727815Y-86682707D02*
X107680196Y-86777945D01*
X107680196Y-86777945D02*
X107632577Y-86825564D01*
X107632577Y-86825564D02*
X107537339Y-86873183D01*
X107537339Y-86873183D02*
X107442101Y-86873183D01*
X107442101Y-86873183D02*
X107346863Y-86825564D01*
X107346863Y-86825564D02*
X107299244Y-86777945D01*
X107299244Y-86777945D02*
X107251625Y-86682707D01*
X107251625Y-86682707D02*
X107251625Y-86444612D01*
X107251625Y-86444612D02*
X107299244Y-86301755D01*
X108251625Y-85873183D02*
X107251625Y-85873183D01*
X107251625Y-85873183D02*
X107251625Y-85492231D01*
X107251625Y-85492231D02*
X107299244Y-85396993D01*
X107299244Y-85396993D02*
X107346863Y-85349374D01*
X107346863Y-85349374D02*
X107442101Y-85301755D01*
X107442101Y-85301755D02*
X107584958Y-85301755D01*
X107584958Y-85301755D02*
X107680196Y-85349374D01*
X107680196Y-85349374D02*
X107727815Y-85396993D01*
X107727815Y-85396993D02*
X107775434Y-85492231D01*
X107775434Y-85492231D02*
X107775434Y-85873183D01*
X107251625Y-84968421D02*
X107251625Y-84349374D01*
X107251625Y-84349374D02*
X107632577Y-84682707D01*
X107632577Y-84682707D02*
X107632577Y-84539850D01*
X107632577Y-84539850D02*
X107680196Y-84444612D01*
X107680196Y-84444612D02*
X107727815Y-84396993D01*
X107727815Y-84396993D02*
X107823053Y-84349374D01*
X107823053Y-84349374D02*
X108061148Y-84349374D01*
X108061148Y-84349374D02*
X108156386Y-84396993D01*
X108156386Y-84396993D02*
X108204006Y-84444612D01*
X108204006Y-84444612D02*
X108251625Y-84539850D01*
X108251625Y-84539850D02*
X108251625Y-84825564D01*
X108251625Y-84825564D02*
X108204006Y-84920802D01*
X108204006Y-84920802D02*
X108156386Y-84968421D01*
X107346863Y-83968421D02*
X107299244Y-83920802D01*
X107299244Y-83920802D02*
X107251625Y-83825564D01*
X107251625Y-83825564D02*
X107251625Y-83587469D01*
X107251625Y-83587469D02*
X107299244Y-83492231D01*
X107299244Y-83492231D02*
X107346863Y-83444612D01*
X107346863Y-83444612D02*
X107442101Y-83396993D01*
X107442101Y-83396993D02*
X107537339Y-83396993D01*
X107537339Y-83396993D02*
X107680196Y-83444612D01*
X107680196Y-83444612D02*
X108251625Y-84016040D01*
X108251625Y-84016040D02*
X108251625Y-83396993D01*
X107870672Y-82968421D02*
X107870672Y-82206517D01*
X108156386Y-81158898D02*
X108204006Y-81206517D01*
X108204006Y-81206517D02*
X108251625Y-81349374D01*
X108251625Y-81349374D02*
X108251625Y-81444612D01*
X108251625Y-81444612D02*
X108204006Y-81587469D01*
X108204006Y-81587469D02*
X108108767Y-81682707D01*
X108108767Y-81682707D02*
X108013529Y-81730326D01*
X108013529Y-81730326D02*
X107823053Y-81777945D01*
X107823053Y-81777945D02*
X107680196Y-81777945D01*
X107680196Y-81777945D02*
X107489720Y-81730326D01*
X107489720Y-81730326D02*
X107394482Y-81682707D01*
X107394482Y-81682707D02*
X107299244Y-81587469D01*
X107299244Y-81587469D02*
X107251625Y-81444612D01*
X107251625Y-81444612D02*
X107251625Y-81349374D01*
X107251625Y-81349374D02*
X107299244Y-81206517D01*
X107299244Y-81206517D02*
X107346863Y-81158898D01*
X107251625Y-80825564D02*
X107251625Y-80206517D01*
X107251625Y-80206517D02*
X107632577Y-80539850D01*
X107632577Y-80539850D02*
X107632577Y-80396993D01*
X107632577Y-80396993D02*
X107680196Y-80301755D01*
X107680196Y-80301755D02*
X107727815Y-80254136D01*
X107727815Y-80254136D02*
X107823053Y-80206517D01*
X107823053Y-80206517D02*
X108061148Y-80206517D01*
X108061148Y-80206517D02*
X108156386Y-80254136D01*
X108156386Y-80254136D02*
X108204006Y-80301755D01*
X108204006Y-80301755D02*
X108251625Y-80396993D01*
X108251625Y-80396993D02*
X108251625Y-80682707D01*
X108251625Y-80682707D02*
X108204006Y-80777945D01*
X108204006Y-80777945D02*
X108156386Y-80825564D01*
X107870672Y-79777945D02*
X107870672Y-79016041D01*
X107251625Y-78635088D02*
X107251625Y-77968422D01*
X107251625Y-77968422D02*
X108251625Y-78635088D01*
X108251625Y-78635088D02*
X108251625Y-77968422D01*
X107727815Y-77587469D02*
X107727815Y-77254136D01*
X108251625Y-77111279D02*
X108251625Y-77587469D01*
X108251625Y-77587469D02*
X107251625Y-77587469D01*
X107251625Y-77587469D02*
X107251625Y-77111279D01*
X108251625Y-76111279D02*
X107775434Y-76444612D01*
X108251625Y-76682707D02*
X107251625Y-76682707D01*
X107251625Y-76682707D02*
X107251625Y-76301755D01*
X107251625Y-76301755D02*
X107299244Y-76206517D01*
X107299244Y-76206517D02*
X107346863Y-76158898D01*
X107346863Y-76158898D02*
X107442101Y-76111279D01*
X107442101Y-76111279D02*
X107584958Y-76111279D01*
X107584958Y-76111279D02*
X107680196Y-76158898D01*
X107680196Y-76158898D02*
X107727815Y-76206517D01*
X107727815Y-76206517D02*
X107775434Y-76301755D01*
X107775434Y-76301755D02*
X107775434Y-76682707D01*
X107251625Y-75492231D02*
X107251625Y-75301755D01*
X107251625Y-75301755D02*
X107299244Y-75206517D01*
X107299244Y-75206517D02*
X107394482Y-75111279D01*
X107394482Y-75111279D02*
X107584958Y-75063660D01*
X107584958Y-75063660D02*
X107918291Y-75063660D01*
X107918291Y-75063660D02*
X108108767Y-75111279D01*
X108108767Y-75111279D02*
X108204006Y-75206517D01*
X108204006Y-75206517D02*
X108251625Y-75301755D01*
X108251625Y-75301755D02*
X108251625Y-75492231D01*
X108251625Y-75492231D02*
X108204006Y-75587469D01*
X108204006Y-75587469D02*
X108108767Y-75682707D01*
X108108767Y-75682707D02*
X107918291Y-75730326D01*
X107918291Y-75730326D02*
X107584958Y-75730326D01*
X107584958Y-75730326D02*
X107394482Y-75682707D01*
X107394482Y-75682707D02*
X107299244Y-75587469D01*
X107299244Y-75587469D02*
X107251625Y-75492231D01*
X74244555Y-76667219D02*
X74435031Y-76667219D01*
X74435031Y-76667219D02*
X74530269Y-76714838D01*
X74530269Y-76714838D02*
X74625507Y-76810076D01*
X74625507Y-76810076D02*
X74673126Y-77000552D01*
X74673126Y-77000552D02*
X74673126Y-77333885D01*
X74673126Y-77333885D02*
X74625507Y-77524361D01*
X74625507Y-77524361D02*
X74530269Y-77619600D01*
X74530269Y-77619600D02*
X74435031Y-77667219D01*
X74435031Y-77667219D02*
X74244555Y-77667219D01*
X74244555Y-77667219D02*
X74149317Y-77619600D01*
X74149317Y-77619600D02*
X74054079Y-77524361D01*
X74054079Y-77524361D02*
X74006460Y-77333885D01*
X74006460Y-77333885D02*
X74006460Y-77000552D01*
X74006460Y-77000552D02*
X74054079Y-76810076D01*
X74054079Y-76810076D02*
X74149317Y-76714838D01*
X74149317Y-76714838D02*
X74244555Y-76667219D01*
X75101698Y-77667219D02*
X75101698Y-76667219D01*
X75101698Y-76667219D02*
X75673126Y-77667219D01*
X75673126Y-77667219D02*
X75673126Y-76667219D01*
X70658841Y-110957275D02*
X71277888Y-110957275D01*
X71277888Y-110957275D02*
X70944555Y-111338227D01*
X70944555Y-111338227D02*
X71087412Y-111338227D01*
X71087412Y-111338227D02*
X71182650Y-111385846D01*
X71182650Y-111385846D02*
X71230269Y-111433465D01*
X71230269Y-111433465D02*
X71277888Y-111528703D01*
X71277888Y-111528703D02*
X71277888Y-111766798D01*
X71277888Y-111766798D02*
X71230269Y-111862036D01*
X71230269Y-111862036D02*
X71182650Y-111909656D01*
X71182650Y-111909656D02*
X71087412Y-111957275D01*
X71087412Y-111957275D02*
X70801698Y-111957275D01*
X70801698Y-111957275D02*
X70706460Y-111909656D01*
X70706460Y-111909656D02*
X70658841Y-111862036D01*
X71706460Y-111862036D02*
X71754079Y-111909656D01*
X71754079Y-111909656D02*
X71706460Y-111957275D01*
X71706460Y-111957275D02*
X71658841Y-111909656D01*
X71658841Y-111909656D02*
X71706460Y-111862036D01*
X71706460Y-111862036D02*
X71706460Y-111957275D01*
X72087412Y-110957275D02*
X72754078Y-110957275D01*
X72754078Y-110957275D02*
X72325507Y-111957275D01*
X72992174Y-110957275D02*
X73325507Y-111957275D01*
X73325507Y-111957275D02*
X73658840Y-110957275D01*
X75230269Y-111957275D02*
X74754079Y-111957275D01*
X74754079Y-111957275D02*
X74754079Y-110957275D01*
X75563603Y-111957275D02*
X75563603Y-111290608D01*
X75563603Y-110957275D02*
X75515984Y-111004894D01*
X75515984Y-111004894D02*
X75563603Y-111052513D01*
X75563603Y-111052513D02*
X75611222Y-111004894D01*
X75611222Y-111004894D02*
X75563603Y-110957275D01*
X75563603Y-110957275D02*
X75563603Y-111052513D01*
X71087412Y-113043409D02*
X71230269Y-113091028D01*
X71230269Y-113091028D02*
X71277888Y-113138647D01*
X71277888Y-113138647D02*
X71325507Y-113233885D01*
X71325507Y-113233885D02*
X71325507Y-113376742D01*
X71325507Y-113376742D02*
X71277888Y-113471980D01*
X71277888Y-113471980D02*
X71230269Y-113519600D01*
X71230269Y-113519600D02*
X71135031Y-113567219D01*
X71135031Y-113567219D02*
X70754079Y-113567219D01*
X70754079Y-113567219D02*
X70754079Y-112567219D01*
X70754079Y-112567219D02*
X71087412Y-112567219D01*
X71087412Y-112567219D02*
X71182650Y-112614838D01*
X71182650Y-112614838D02*
X71230269Y-112662457D01*
X71230269Y-112662457D02*
X71277888Y-112757695D01*
X71277888Y-112757695D02*
X71277888Y-112852933D01*
X71277888Y-112852933D02*
X71230269Y-112948171D01*
X71230269Y-112948171D02*
X71182650Y-112995790D01*
X71182650Y-112995790D02*
X71087412Y-113043409D01*
X71087412Y-113043409D02*
X70754079Y-113043409D01*
X72182650Y-113567219D02*
X72182650Y-113043409D01*
X72182650Y-113043409D02*
X72135031Y-112948171D01*
X72135031Y-112948171D02*
X72039793Y-112900552D01*
X72039793Y-112900552D02*
X71849317Y-112900552D01*
X71849317Y-112900552D02*
X71754079Y-112948171D01*
X72182650Y-113519600D02*
X72087412Y-113567219D01*
X72087412Y-113567219D02*
X71849317Y-113567219D01*
X71849317Y-113567219D02*
X71754079Y-113519600D01*
X71754079Y-113519600D02*
X71706460Y-113424361D01*
X71706460Y-113424361D02*
X71706460Y-113329123D01*
X71706460Y-113329123D02*
X71754079Y-113233885D01*
X71754079Y-113233885D02*
X71849317Y-113186266D01*
X71849317Y-113186266D02*
X72087412Y-113186266D01*
X72087412Y-113186266D02*
X72182650Y-113138647D01*
X72515984Y-112900552D02*
X72896936Y-112900552D01*
X72658841Y-112567219D02*
X72658841Y-113424361D01*
X72658841Y-113424361D02*
X72706460Y-113519600D01*
X72706460Y-113519600D02*
X72801698Y-113567219D01*
X72801698Y-113567219D02*
X72896936Y-113567219D01*
X73087413Y-112900552D02*
X73468365Y-112900552D01*
X73230270Y-112567219D02*
X73230270Y-113424361D01*
X73230270Y-113424361D02*
X73277889Y-113519600D01*
X73277889Y-113519600D02*
X73373127Y-113567219D01*
X73373127Y-113567219D02*
X73468365Y-113567219D01*
X74182651Y-113519600D02*
X74087413Y-113567219D01*
X74087413Y-113567219D02*
X73896937Y-113567219D01*
X73896937Y-113567219D02*
X73801699Y-113519600D01*
X73801699Y-113519600D02*
X73754080Y-113424361D01*
X73754080Y-113424361D02*
X73754080Y-113043409D01*
X73754080Y-113043409D02*
X73801699Y-112948171D01*
X73801699Y-112948171D02*
X73896937Y-112900552D01*
X73896937Y-112900552D02*
X74087413Y-112900552D01*
X74087413Y-112900552D02*
X74182651Y-112948171D01*
X74182651Y-112948171D02*
X74230270Y-113043409D01*
X74230270Y-113043409D02*
X74230270Y-113138647D01*
X74230270Y-113138647D02*
X73754080Y-113233885D01*
X74658842Y-113567219D02*
X74658842Y-112900552D01*
X74658842Y-113091028D02*
X74706461Y-112995790D01*
X74706461Y-112995790D02*
X74754080Y-112948171D01*
X74754080Y-112948171D02*
X74849318Y-112900552D01*
X74849318Y-112900552D02*
X74944556Y-112900552D01*
X75182652Y-112900552D02*
X75420747Y-113567219D01*
X75658842Y-112900552D02*
X75420747Y-113567219D01*
X75420747Y-113567219D02*
X75325509Y-113805314D01*
X75325509Y-113805314D02*
X75277890Y-113852933D01*
X75277890Y-113852933D02*
X75182652Y-113900552D01*
D11*
X88251072Y-114754819D02*
X88251072Y-115469104D01*
X88251072Y-115469104D02*
X88203453Y-115611961D01*
X88203453Y-115611961D02*
X88108215Y-115707200D01*
X88108215Y-115707200D02*
X87965358Y-115754819D01*
X87965358Y-115754819D02*
X87870120Y-115754819D01*
X89155834Y-115088152D02*
X89155834Y-115754819D01*
X88917739Y-114707200D02*
X88679644Y-115421485D01*
X88679644Y-115421485D02*
X89298691Y-115421485D01*
X117551072Y-94454819D02*
X117551072Y-95169104D01*
X117551072Y-95169104D02*
X117503453Y-95311961D01*
X117503453Y-95311961D02*
X117408215Y-95407200D01*
X117408215Y-95407200D02*
X117265358Y-95454819D01*
X117265358Y-95454819D02*
X117170120Y-95454819D01*
X118503453Y-94454819D02*
X118027263Y-94454819D01*
X118027263Y-94454819D02*
X117979644Y-94931009D01*
X117979644Y-94931009D02*
X118027263Y-94883390D01*
X118027263Y-94883390D02*
X118122501Y-94835771D01*
X118122501Y-94835771D02*
X118360596Y-94835771D01*
X118360596Y-94835771D02*
X118455834Y-94883390D01*
X118455834Y-94883390D02*
X118503453Y-94931009D01*
X118503453Y-94931009D02*
X118551072Y-95026247D01*
X118551072Y-95026247D02*
X118551072Y-95264342D01*
X118551072Y-95264342D02*
X118503453Y-95359580D01*
X118503453Y-95359580D02*
X118455834Y-95407200D01*
X118455834Y-95407200D02*
X118360596Y-95454819D01*
X118360596Y-95454819D02*
X118122501Y-95454819D01*
X118122501Y-95454819D02*
X118027263Y-95407200D01*
X118027263Y-95407200D02*
X117979644Y-95359580D01*
X91667739Y-112454819D02*
X91334406Y-111978628D01*
X91096311Y-112454819D02*
X91096311Y-111454819D01*
X91096311Y-111454819D02*
X91477263Y-111454819D01*
X91477263Y-111454819D02*
X91572501Y-111502438D01*
X91572501Y-111502438D02*
X91620120Y-111550057D01*
X91620120Y-111550057D02*
X91667739Y-111645295D01*
X91667739Y-111645295D02*
X91667739Y-111788152D01*
X91667739Y-111788152D02*
X91620120Y-111883390D01*
X91620120Y-111883390D02*
X91572501Y-111931009D01*
X91572501Y-111931009D02*
X91477263Y-111978628D01*
X91477263Y-111978628D02*
X91096311Y-111978628D01*
X92572501Y-111454819D02*
X92096311Y-111454819D01*
X92096311Y-111454819D02*
X92048692Y-111931009D01*
X92048692Y-111931009D02*
X92096311Y-111883390D01*
X92096311Y-111883390D02*
X92191549Y-111835771D01*
X92191549Y-111835771D02*
X92429644Y-111835771D01*
X92429644Y-111835771D02*
X92524882Y-111883390D01*
X92524882Y-111883390D02*
X92572501Y-111931009D01*
X92572501Y-111931009D02*
X92620120Y-112026247D01*
X92620120Y-112026247D02*
X92620120Y-112264342D01*
X92620120Y-112264342D02*
X92572501Y-112359580D01*
X92572501Y-112359580D02*
X92524882Y-112407200D01*
X92524882Y-112407200D02*
X92429644Y-112454819D01*
X92429644Y-112454819D02*
X92191549Y-112454819D01*
X92191549Y-112454819D02*
X92096311Y-112407200D01*
X92096311Y-112407200D02*
X92048692Y-112359580D01*
X104322501Y-95204819D02*
X104322501Y-96014342D01*
X104322501Y-96014342D02*
X104370120Y-96109580D01*
X104370120Y-96109580D02*
X104417739Y-96157200D01*
X104417739Y-96157200D02*
X104512977Y-96204819D01*
X104512977Y-96204819D02*
X104703453Y-96204819D01*
X104703453Y-96204819D02*
X104798691Y-96157200D01*
X104798691Y-96157200D02*
X104846310Y-96109580D01*
X104846310Y-96109580D02*
X104893929Y-96014342D01*
X104893929Y-96014342D02*
X104893929Y-95204819D01*
X105274882Y-95204819D02*
X105893929Y-95204819D01*
X105893929Y-95204819D02*
X105560596Y-95585771D01*
X105560596Y-95585771D02*
X105703453Y-95585771D01*
X105703453Y-95585771D02*
X105798691Y-95633390D01*
X105798691Y-95633390D02*
X105846310Y-95681009D01*
X105846310Y-95681009D02*
X105893929Y-95776247D01*
X105893929Y-95776247D02*
X105893929Y-96014342D01*
X105893929Y-96014342D02*
X105846310Y-96109580D01*
X105846310Y-96109580D02*
X105798691Y-96157200D01*
X105798691Y-96157200D02*
X105703453Y-96204819D01*
X105703453Y-96204819D02*
X105417739Y-96204819D01*
X105417739Y-96204819D02*
X105322501Y-96157200D01*
X105322501Y-96157200D02*
X105274882Y-96109580D01*
X85822501Y-82204819D02*
X85822501Y-83014342D01*
X85822501Y-83014342D02*
X85870120Y-83109580D01*
X85870120Y-83109580D02*
X85917739Y-83157200D01*
X85917739Y-83157200D02*
X86012977Y-83204819D01*
X86012977Y-83204819D02*
X86203453Y-83204819D01*
X86203453Y-83204819D02*
X86298691Y-83157200D01*
X86298691Y-83157200D02*
X86346310Y-83109580D01*
X86346310Y-83109580D02*
X86393929Y-83014342D01*
X86393929Y-83014342D02*
X86393929Y-82204819D01*
X86822501Y-82300057D02*
X86870120Y-82252438D01*
X86870120Y-82252438D02*
X86965358Y-82204819D01*
X86965358Y-82204819D02*
X87203453Y-82204819D01*
X87203453Y-82204819D02*
X87298691Y-82252438D01*
X87298691Y-82252438D02*
X87346310Y-82300057D01*
X87346310Y-82300057D02*
X87393929Y-82395295D01*
X87393929Y-82395295D02*
X87393929Y-82490533D01*
X87393929Y-82490533D02*
X87346310Y-82633390D01*
X87346310Y-82633390D02*
X86774882Y-83204819D01*
X86774882Y-83204819D02*
X87393929Y-83204819D01*
X113193986Y-100916666D02*
X113241606Y-100964285D01*
X113241606Y-100964285D02*
X113289225Y-101107142D01*
X113289225Y-101107142D02*
X113289225Y-101202380D01*
X113289225Y-101202380D02*
X113241606Y-101345237D01*
X113241606Y-101345237D02*
X113146367Y-101440475D01*
X113146367Y-101440475D02*
X113051129Y-101488094D01*
X113051129Y-101488094D02*
X112860653Y-101535713D01*
X112860653Y-101535713D02*
X112717796Y-101535713D01*
X112717796Y-101535713D02*
X112527320Y-101488094D01*
X112527320Y-101488094D02*
X112432082Y-101440475D01*
X112432082Y-101440475D02*
X112336844Y-101345237D01*
X112336844Y-101345237D02*
X112289225Y-101202380D01*
X112289225Y-101202380D02*
X112289225Y-101107142D01*
X112289225Y-101107142D02*
X112336844Y-100964285D01*
X112336844Y-100964285D02*
X112384463Y-100916666D01*
X113289225Y-100440475D02*
X113289225Y-100249999D01*
X113289225Y-100249999D02*
X113241606Y-100154761D01*
X113241606Y-100154761D02*
X113193986Y-100107142D01*
X113193986Y-100107142D02*
X113051129Y-100011904D01*
X113051129Y-100011904D02*
X112860653Y-99964285D01*
X112860653Y-99964285D02*
X112479701Y-99964285D01*
X112479701Y-99964285D02*
X112384463Y-100011904D01*
X112384463Y-100011904D02*
X112336844Y-100059523D01*
X112336844Y-100059523D02*
X112289225Y-100154761D01*
X112289225Y-100154761D02*
X112289225Y-100345237D01*
X112289225Y-100345237D02*
X112336844Y-100440475D01*
X112336844Y-100440475D02*
X112384463Y-100488094D01*
X112384463Y-100488094D02*
X112479701Y-100535713D01*
X112479701Y-100535713D02*
X112717796Y-100535713D01*
X112717796Y-100535713D02*
X112813034Y-100488094D01*
X112813034Y-100488094D02*
X112860653Y-100440475D01*
X112860653Y-100440475D02*
X112908272Y-100345237D01*
X112908272Y-100345237D02*
X112908272Y-100154761D01*
X112908272Y-100154761D02*
X112860653Y-100059523D01*
X112860653Y-100059523D02*
X112813034Y-100011904D01*
X112813034Y-100011904D02*
X112717796Y-99964285D01*
X71001072Y-96454819D02*
X71001072Y-97169104D01*
X71001072Y-97169104D02*
X70953453Y-97311961D01*
X70953453Y-97311961D02*
X70858215Y-97407200D01*
X70858215Y-97407200D02*
X70715358Y-97454819D01*
X70715358Y-97454819D02*
X70620120Y-97454819D01*
X71477263Y-97454819D02*
X71477263Y-96454819D01*
X71477263Y-96454819D02*
X71858215Y-96454819D01*
X71858215Y-96454819D02*
X71953453Y-96502438D01*
X71953453Y-96502438D02*
X72001072Y-96550057D01*
X72001072Y-96550057D02*
X72048691Y-96645295D01*
X72048691Y-96645295D02*
X72048691Y-96788152D01*
X72048691Y-96788152D02*
X72001072Y-96883390D01*
X72001072Y-96883390D02*
X71953453Y-96931009D01*
X71953453Y-96931009D02*
X71858215Y-96978628D01*
X71858215Y-96978628D02*
X71477263Y-96978628D01*
X73001072Y-97454819D02*
X72429644Y-97454819D01*
X72715358Y-97454819D02*
X72715358Y-96454819D01*
X72715358Y-96454819D02*
X72620120Y-96597676D01*
X72620120Y-96597676D02*
X72524882Y-96692914D01*
X72524882Y-96692914D02*
X72429644Y-96740533D01*
X90841548Y-82654819D02*
X90508215Y-82178628D01*
X90270120Y-82654819D02*
X90270120Y-81654819D01*
X90270120Y-81654819D02*
X90651072Y-81654819D01*
X90651072Y-81654819D02*
X90746310Y-81702438D01*
X90746310Y-81702438D02*
X90793929Y-81750057D01*
X90793929Y-81750057D02*
X90841548Y-81845295D01*
X90841548Y-81845295D02*
X90841548Y-81988152D01*
X90841548Y-81988152D02*
X90793929Y-82083390D01*
X90793929Y-82083390D02*
X90746310Y-82131009D01*
X90746310Y-82131009D02*
X90651072Y-82178628D01*
X90651072Y-82178628D02*
X90270120Y-82178628D01*
X91793929Y-82654819D02*
X91222501Y-82654819D01*
X91508215Y-82654819D02*
X91508215Y-81654819D01*
X91508215Y-81654819D02*
X91412977Y-81797676D01*
X91412977Y-81797676D02*
X91317739Y-81892914D01*
X91317739Y-81892914D02*
X91222501Y-81940533D01*
X92127263Y-81654819D02*
X92793929Y-81654819D01*
X92793929Y-81654819D02*
X92365358Y-82654819D01*
X87693986Y-74041666D02*
X87741606Y-74089285D01*
X87741606Y-74089285D02*
X87789225Y-74232142D01*
X87789225Y-74232142D02*
X87789225Y-74327380D01*
X87789225Y-74327380D02*
X87741606Y-74470237D01*
X87741606Y-74470237D02*
X87646367Y-74565475D01*
X87646367Y-74565475D02*
X87551129Y-74613094D01*
X87551129Y-74613094D02*
X87360653Y-74660713D01*
X87360653Y-74660713D02*
X87217796Y-74660713D01*
X87217796Y-74660713D02*
X87027320Y-74613094D01*
X87027320Y-74613094D02*
X86932082Y-74565475D01*
X86932082Y-74565475D02*
X86836844Y-74470237D01*
X86836844Y-74470237D02*
X86789225Y-74327380D01*
X86789225Y-74327380D02*
X86789225Y-74232142D01*
X86789225Y-74232142D02*
X86836844Y-74089285D01*
X86836844Y-74089285D02*
X86884463Y-74041666D01*
X87217796Y-73470237D02*
X87170177Y-73565475D01*
X87170177Y-73565475D02*
X87122558Y-73613094D01*
X87122558Y-73613094D02*
X87027320Y-73660713D01*
X87027320Y-73660713D02*
X86979701Y-73660713D01*
X86979701Y-73660713D02*
X86884463Y-73613094D01*
X86884463Y-73613094D02*
X86836844Y-73565475D01*
X86836844Y-73565475D02*
X86789225Y-73470237D01*
X86789225Y-73470237D02*
X86789225Y-73279761D01*
X86789225Y-73279761D02*
X86836844Y-73184523D01*
X86836844Y-73184523D02*
X86884463Y-73136904D01*
X86884463Y-73136904D02*
X86979701Y-73089285D01*
X86979701Y-73089285D02*
X87027320Y-73089285D01*
X87027320Y-73089285D02*
X87122558Y-73136904D01*
X87122558Y-73136904D02*
X87170177Y-73184523D01*
X87170177Y-73184523D02*
X87217796Y-73279761D01*
X87217796Y-73279761D02*
X87217796Y-73470237D01*
X87217796Y-73470237D02*
X87265415Y-73565475D01*
X87265415Y-73565475D02*
X87313034Y-73613094D01*
X87313034Y-73613094D02*
X87408272Y-73660713D01*
X87408272Y-73660713D02*
X87598748Y-73660713D01*
X87598748Y-73660713D02*
X87693986Y-73613094D01*
X87693986Y-73613094D02*
X87741606Y-73565475D01*
X87741606Y-73565475D02*
X87789225Y-73470237D01*
X87789225Y-73470237D02*
X87789225Y-73279761D01*
X87789225Y-73279761D02*
X87741606Y-73184523D01*
X87741606Y-73184523D02*
X87693986Y-73136904D01*
X87693986Y-73136904D02*
X87598748Y-73089285D01*
X87598748Y-73089285D02*
X87408272Y-73089285D01*
X87408272Y-73089285D02*
X87313034Y-73136904D01*
X87313034Y-73136904D02*
X87265415Y-73184523D01*
X87265415Y-73184523D02*
X87217796Y-73279761D01*
X77651072Y-109654819D02*
X77651072Y-110369104D01*
X77651072Y-110369104D02*
X77603453Y-110511961D01*
X77603453Y-110511961D02*
X77508215Y-110607200D01*
X77508215Y-110607200D02*
X77365358Y-110654819D01*
X77365358Y-110654819D02*
X77270120Y-110654819D01*
X78032025Y-109654819D02*
X78651072Y-109654819D01*
X78651072Y-109654819D02*
X78317739Y-110035771D01*
X78317739Y-110035771D02*
X78460596Y-110035771D01*
X78460596Y-110035771D02*
X78555834Y-110083390D01*
X78555834Y-110083390D02*
X78603453Y-110131009D01*
X78603453Y-110131009D02*
X78651072Y-110226247D01*
X78651072Y-110226247D02*
X78651072Y-110464342D01*
X78651072Y-110464342D02*
X78603453Y-110559580D01*
X78603453Y-110559580D02*
X78555834Y-110607200D01*
X78555834Y-110607200D02*
X78460596Y-110654819D01*
X78460596Y-110654819D02*
X78174882Y-110654819D01*
X78174882Y-110654819D02*
X78079644Y-110607200D01*
X78079644Y-110607200D02*
X78032025Y-110559580D01*
X96667739Y-112454819D02*
X96334406Y-111978628D01*
X96096311Y-112454819D02*
X96096311Y-111454819D01*
X96096311Y-111454819D02*
X96477263Y-111454819D01*
X96477263Y-111454819D02*
X96572501Y-111502438D01*
X96572501Y-111502438D02*
X96620120Y-111550057D01*
X96620120Y-111550057D02*
X96667739Y-111645295D01*
X96667739Y-111645295D02*
X96667739Y-111788152D01*
X96667739Y-111788152D02*
X96620120Y-111883390D01*
X96620120Y-111883390D02*
X96572501Y-111931009D01*
X96572501Y-111931009D02*
X96477263Y-111978628D01*
X96477263Y-111978628D02*
X96096311Y-111978628D01*
X97524882Y-111454819D02*
X97334406Y-111454819D01*
X97334406Y-111454819D02*
X97239168Y-111502438D01*
X97239168Y-111502438D02*
X97191549Y-111550057D01*
X97191549Y-111550057D02*
X97096311Y-111692914D01*
X97096311Y-111692914D02*
X97048692Y-111883390D01*
X97048692Y-111883390D02*
X97048692Y-112264342D01*
X97048692Y-112264342D02*
X97096311Y-112359580D01*
X97096311Y-112359580D02*
X97143930Y-112407200D01*
X97143930Y-112407200D02*
X97239168Y-112454819D01*
X97239168Y-112454819D02*
X97429644Y-112454819D01*
X97429644Y-112454819D02*
X97524882Y-112407200D01*
X97524882Y-112407200D02*
X97572501Y-112359580D01*
X97572501Y-112359580D02*
X97620120Y-112264342D01*
X97620120Y-112264342D02*
X97620120Y-112026247D01*
X97620120Y-112026247D02*
X97572501Y-111931009D01*
X97572501Y-111931009D02*
X97524882Y-111883390D01*
X97524882Y-111883390D02*
X97429644Y-111835771D01*
X97429644Y-111835771D02*
X97239168Y-111835771D01*
X97239168Y-111835771D02*
X97143930Y-111883390D01*
X97143930Y-111883390D02*
X97096311Y-111931009D01*
X97096311Y-111931009D02*
X97048692Y-112026247D01*
X107289225Y-109642857D02*
X106813034Y-109976190D01*
X107289225Y-110214285D02*
X106289225Y-110214285D01*
X106289225Y-110214285D02*
X106289225Y-109833333D01*
X106289225Y-109833333D02*
X106336844Y-109738095D01*
X106336844Y-109738095D02*
X106384463Y-109690476D01*
X106384463Y-109690476D02*
X106479701Y-109642857D01*
X106479701Y-109642857D02*
X106622558Y-109642857D01*
X106622558Y-109642857D02*
X106717796Y-109690476D01*
X106717796Y-109690476D02*
X106765415Y-109738095D01*
X106765415Y-109738095D02*
X106813034Y-109833333D01*
X106813034Y-109833333D02*
X106813034Y-110214285D01*
X107289225Y-108690476D02*
X107289225Y-109261904D01*
X107289225Y-108976190D02*
X106289225Y-108976190D01*
X106289225Y-108976190D02*
X106432082Y-109071428D01*
X106432082Y-109071428D02*
X106527320Y-109166666D01*
X106527320Y-109166666D02*
X106574939Y-109261904D01*
X106622558Y-107833333D02*
X107289225Y-107833333D01*
X106241606Y-108071428D02*
X106955891Y-108309523D01*
X106955891Y-108309523D02*
X106955891Y-107690476D01*
X85443986Y-74041666D02*
X85491606Y-74089285D01*
X85491606Y-74089285D02*
X85539225Y-74232142D01*
X85539225Y-74232142D02*
X85539225Y-74327380D01*
X85539225Y-74327380D02*
X85491606Y-74470237D01*
X85491606Y-74470237D02*
X85396367Y-74565475D01*
X85396367Y-74565475D02*
X85301129Y-74613094D01*
X85301129Y-74613094D02*
X85110653Y-74660713D01*
X85110653Y-74660713D02*
X84967796Y-74660713D01*
X84967796Y-74660713D02*
X84777320Y-74613094D01*
X84777320Y-74613094D02*
X84682082Y-74565475D01*
X84682082Y-74565475D02*
X84586844Y-74470237D01*
X84586844Y-74470237D02*
X84539225Y-74327380D01*
X84539225Y-74327380D02*
X84539225Y-74232142D01*
X84539225Y-74232142D02*
X84586844Y-74089285D01*
X84586844Y-74089285D02*
X84634463Y-74041666D01*
X84539225Y-73708332D02*
X84539225Y-73041666D01*
X84539225Y-73041666D02*
X85539225Y-73470237D01*
X99167739Y-112454819D02*
X98834406Y-111978628D01*
X98596311Y-112454819D02*
X98596311Y-111454819D01*
X98596311Y-111454819D02*
X98977263Y-111454819D01*
X98977263Y-111454819D02*
X99072501Y-111502438D01*
X99072501Y-111502438D02*
X99120120Y-111550057D01*
X99120120Y-111550057D02*
X99167739Y-111645295D01*
X99167739Y-111645295D02*
X99167739Y-111788152D01*
X99167739Y-111788152D02*
X99120120Y-111883390D01*
X99120120Y-111883390D02*
X99072501Y-111931009D01*
X99072501Y-111931009D02*
X98977263Y-111978628D01*
X98977263Y-111978628D02*
X98596311Y-111978628D01*
X99501073Y-111454819D02*
X100167739Y-111454819D01*
X100167739Y-111454819D02*
X99739168Y-112454819D01*
X86667739Y-91609580D02*
X86620120Y-91657200D01*
X86620120Y-91657200D02*
X86477263Y-91704819D01*
X86477263Y-91704819D02*
X86382025Y-91704819D01*
X86382025Y-91704819D02*
X86239168Y-91657200D01*
X86239168Y-91657200D02*
X86143930Y-91561961D01*
X86143930Y-91561961D02*
X86096311Y-91466723D01*
X86096311Y-91466723D02*
X86048692Y-91276247D01*
X86048692Y-91276247D02*
X86048692Y-91133390D01*
X86048692Y-91133390D02*
X86096311Y-90942914D01*
X86096311Y-90942914D02*
X86143930Y-90847676D01*
X86143930Y-90847676D02*
X86239168Y-90752438D01*
X86239168Y-90752438D02*
X86382025Y-90704819D01*
X86382025Y-90704819D02*
X86477263Y-90704819D01*
X86477263Y-90704819D02*
X86620120Y-90752438D01*
X86620120Y-90752438D02*
X86667739Y-90800057D01*
X87001073Y-90704819D02*
X87620120Y-90704819D01*
X87620120Y-90704819D02*
X87286787Y-91085771D01*
X87286787Y-91085771D02*
X87429644Y-91085771D01*
X87429644Y-91085771D02*
X87524882Y-91133390D01*
X87524882Y-91133390D02*
X87572501Y-91181009D01*
X87572501Y-91181009D02*
X87620120Y-91276247D01*
X87620120Y-91276247D02*
X87620120Y-91514342D01*
X87620120Y-91514342D02*
X87572501Y-91609580D01*
X87572501Y-91609580D02*
X87524882Y-91657200D01*
X87524882Y-91657200D02*
X87429644Y-91704819D01*
X87429644Y-91704819D02*
X87143930Y-91704819D01*
X87143930Y-91704819D02*
X87048692Y-91657200D01*
X87048692Y-91657200D02*
X87001073Y-91609580D01*
X83072501Y-92454819D02*
X83072501Y-93264342D01*
X83072501Y-93264342D02*
X83120120Y-93359580D01*
X83120120Y-93359580D02*
X83167739Y-93407200D01*
X83167739Y-93407200D02*
X83262977Y-93454819D01*
X83262977Y-93454819D02*
X83453453Y-93454819D01*
X83453453Y-93454819D02*
X83548691Y-93407200D01*
X83548691Y-93407200D02*
X83596310Y-93359580D01*
X83596310Y-93359580D02*
X83643929Y-93264342D01*
X83643929Y-93264342D02*
X83643929Y-92454819D01*
X84643929Y-93454819D02*
X84072501Y-93454819D01*
X84358215Y-93454819D02*
X84358215Y-92454819D01*
X84358215Y-92454819D02*
X84262977Y-92597676D01*
X84262977Y-92597676D02*
X84167739Y-92692914D01*
X84167739Y-92692914D02*
X84072501Y-92740533D01*
X111251072Y-109704819D02*
X111251072Y-110419104D01*
X111251072Y-110419104D02*
X111203453Y-110561961D01*
X111203453Y-110561961D02*
X111108215Y-110657200D01*
X111108215Y-110657200D02*
X110965358Y-110704819D01*
X110965358Y-110704819D02*
X110870120Y-110704819D01*
X111727263Y-110704819D02*
X111727263Y-109704819D01*
X111727263Y-109704819D02*
X112108215Y-109704819D01*
X112108215Y-109704819D02*
X112203453Y-109752438D01*
X112203453Y-109752438D02*
X112251072Y-109800057D01*
X112251072Y-109800057D02*
X112298691Y-109895295D01*
X112298691Y-109895295D02*
X112298691Y-110038152D01*
X112298691Y-110038152D02*
X112251072Y-110133390D01*
X112251072Y-110133390D02*
X112203453Y-110181009D01*
X112203453Y-110181009D02*
X112108215Y-110228628D01*
X112108215Y-110228628D02*
X111727263Y-110228628D01*
X112632025Y-109704819D02*
X113251072Y-109704819D01*
X113251072Y-109704819D02*
X112917739Y-110085771D01*
X112917739Y-110085771D02*
X113060596Y-110085771D01*
X113060596Y-110085771D02*
X113155834Y-110133390D01*
X113155834Y-110133390D02*
X113203453Y-110181009D01*
X113203453Y-110181009D02*
X113251072Y-110276247D01*
X113251072Y-110276247D02*
X113251072Y-110514342D01*
X113251072Y-110514342D02*
X113203453Y-110609580D01*
X113203453Y-110609580D02*
X113155834Y-110657200D01*
X113155834Y-110657200D02*
X113060596Y-110704819D01*
X113060596Y-110704819D02*
X112774882Y-110704819D01*
X112774882Y-110704819D02*
X112679644Y-110657200D01*
X112679644Y-110657200D02*
X112632025Y-110609580D01*
X89114225Y-104016666D02*
X89114225Y-104492856D01*
X89114225Y-104492856D02*
X88114225Y-104492856D01*
X89114225Y-103159523D02*
X89114225Y-103730951D01*
X89114225Y-103445237D02*
X88114225Y-103445237D01*
X88114225Y-103445237D02*
X88257082Y-103540475D01*
X88257082Y-103540475D02*
X88352320Y-103635713D01*
X88352320Y-103635713D02*
X88399939Y-103730951D01*
X115039225Y-101642857D02*
X114563034Y-101976190D01*
X115039225Y-102214285D02*
X114039225Y-102214285D01*
X114039225Y-102214285D02*
X114039225Y-101833333D01*
X114039225Y-101833333D02*
X114086844Y-101738095D01*
X114086844Y-101738095D02*
X114134463Y-101690476D01*
X114134463Y-101690476D02*
X114229701Y-101642857D01*
X114229701Y-101642857D02*
X114372558Y-101642857D01*
X114372558Y-101642857D02*
X114467796Y-101690476D01*
X114467796Y-101690476D02*
X114515415Y-101738095D01*
X114515415Y-101738095D02*
X114563034Y-101833333D01*
X114563034Y-101833333D02*
X114563034Y-102214285D01*
X114134463Y-101261904D02*
X114086844Y-101214285D01*
X114086844Y-101214285D02*
X114039225Y-101119047D01*
X114039225Y-101119047D02*
X114039225Y-100880952D01*
X114039225Y-100880952D02*
X114086844Y-100785714D01*
X114086844Y-100785714D02*
X114134463Y-100738095D01*
X114134463Y-100738095D02*
X114229701Y-100690476D01*
X114229701Y-100690476D02*
X114324939Y-100690476D01*
X114324939Y-100690476D02*
X114467796Y-100738095D01*
X114467796Y-100738095D02*
X115039225Y-101309523D01*
X115039225Y-101309523D02*
X115039225Y-100690476D01*
X114039225Y-100357142D02*
X114039225Y-99738095D01*
X114039225Y-99738095D02*
X114420177Y-100071428D01*
X114420177Y-100071428D02*
X114420177Y-99928571D01*
X114420177Y-99928571D02*
X114467796Y-99833333D01*
X114467796Y-99833333D02*
X114515415Y-99785714D01*
X114515415Y-99785714D02*
X114610653Y-99738095D01*
X114610653Y-99738095D02*
X114848748Y-99738095D01*
X114848748Y-99738095D02*
X114943986Y-99785714D01*
X114943986Y-99785714D02*
X114991606Y-99833333D01*
X114991606Y-99833333D02*
X115039225Y-99928571D01*
X115039225Y-99928571D02*
X115039225Y-100214285D01*
X115039225Y-100214285D02*
X114991606Y-100309523D01*
X114991606Y-100309523D02*
X114943986Y-100357142D01*
X107539225Y-105642857D02*
X107063034Y-105976190D01*
X107539225Y-106214285D02*
X106539225Y-106214285D01*
X106539225Y-106214285D02*
X106539225Y-105833333D01*
X106539225Y-105833333D02*
X106586844Y-105738095D01*
X106586844Y-105738095D02*
X106634463Y-105690476D01*
X106634463Y-105690476D02*
X106729701Y-105642857D01*
X106729701Y-105642857D02*
X106872558Y-105642857D01*
X106872558Y-105642857D02*
X106967796Y-105690476D01*
X106967796Y-105690476D02*
X107015415Y-105738095D01*
X107015415Y-105738095D02*
X107063034Y-105833333D01*
X107063034Y-105833333D02*
X107063034Y-106214285D01*
X107539225Y-104690476D02*
X107539225Y-105261904D01*
X107539225Y-104976190D02*
X106539225Y-104976190D01*
X106539225Y-104976190D02*
X106682082Y-105071428D01*
X106682082Y-105071428D02*
X106777320Y-105166666D01*
X106777320Y-105166666D02*
X106824939Y-105261904D01*
X106634463Y-104309523D02*
X106586844Y-104261904D01*
X106586844Y-104261904D02*
X106539225Y-104166666D01*
X106539225Y-104166666D02*
X106539225Y-103928571D01*
X106539225Y-103928571D02*
X106586844Y-103833333D01*
X106586844Y-103833333D02*
X106634463Y-103785714D01*
X106634463Y-103785714D02*
X106729701Y-103738095D01*
X106729701Y-103738095D02*
X106824939Y-103738095D01*
X106824939Y-103738095D02*
X106967796Y-103785714D01*
X106967796Y-103785714D02*
X107539225Y-104357142D01*
X107539225Y-104357142D02*
X107539225Y-103738095D01*
X90841548Y-87754819D02*
X90508215Y-87278628D01*
X90270120Y-87754819D02*
X90270120Y-86754819D01*
X90270120Y-86754819D02*
X90651072Y-86754819D01*
X90651072Y-86754819D02*
X90746310Y-86802438D01*
X90746310Y-86802438D02*
X90793929Y-86850057D01*
X90793929Y-86850057D02*
X90841548Y-86945295D01*
X90841548Y-86945295D02*
X90841548Y-87088152D01*
X90841548Y-87088152D02*
X90793929Y-87183390D01*
X90793929Y-87183390D02*
X90746310Y-87231009D01*
X90746310Y-87231009D02*
X90651072Y-87278628D01*
X90651072Y-87278628D02*
X90270120Y-87278628D01*
X91222501Y-86850057D02*
X91270120Y-86802438D01*
X91270120Y-86802438D02*
X91365358Y-86754819D01*
X91365358Y-86754819D02*
X91603453Y-86754819D01*
X91603453Y-86754819D02*
X91698691Y-86802438D01*
X91698691Y-86802438D02*
X91746310Y-86850057D01*
X91746310Y-86850057D02*
X91793929Y-86945295D01*
X91793929Y-86945295D02*
X91793929Y-87040533D01*
X91793929Y-87040533D02*
X91746310Y-87183390D01*
X91746310Y-87183390D02*
X91174882Y-87754819D01*
X91174882Y-87754819D02*
X91793929Y-87754819D01*
X92412977Y-86754819D02*
X92508215Y-86754819D01*
X92508215Y-86754819D02*
X92603453Y-86802438D01*
X92603453Y-86802438D02*
X92651072Y-86850057D01*
X92651072Y-86850057D02*
X92698691Y-86945295D01*
X92698691Y-86945295D02*
X92746310Y-87135771D01*
X92746310Y-87135771D02*
X92746310Y-87373866D01*
X92746310Y-87373866D02*
X92698691Y-87564342D01*
X92698691Y-87564342D02*
X92651072Y-87659580D01*
X92651072Y-87659580D02*
X92603453Y-87707200D01*
X92603453Y-87707200D02*
X92508215Y-87754819D01*
X92508215Y-87754819D02*
X92412977Y-87754819D01*
X92412977Y-87754819D02*
X92317739Y-87707200D01*
X92317739Y-87707200D02*
X92270120Y-87659580D01*
X92270120Y-87659580D02*
X92222501Y-87564342D01*
X92222501Y-87564342D02*
X92174882Y-87373866D01*
X92174882Y-87373866D02*
X92174882Y-87135771D01*
X92174882Y-87135771D02*
X92222501Y-86945295D01*
X92222501Y-86945295D02*
X92270120Y-86850057D01*
X92270120Y-86850057D02*
X92317739Y-86802438D01*
X92317739Y-86802438D02*
X92412977Y-86754819D01*
X77892739Y-104409580D02*
X77845120Y-104457200D01*
X77845120Y-104457200D02*
X77702263Y-104504819D01*
X77702263Y-104504819D02*
X77607025Y-104504819D01*
X77607025Y-104504819D02*
X77464168Y-104457200D01*
X77464168Y-104457200D02*
X77368930Y-104361961D01*
X77368930Y-104361961D02*
X77321311Y-104266723D01*
X77321311Y-104266723D02*
X77273692Y-104076247D01*
X77273692Y-104076247D02*
X77273692Y-103933390D01*
X77273692Y-103933390D02*
X77321311Y-103742914D01*
X77321311Y-103742914D02*
X77368930Y-103647676D01*
X77368930Y-103647676D02*
X77464168Y-103552438D01*
X77464168Y-103552438D02*
X77607025Y-103504819D01*
X77607025Y-103504819D02*
X77702263Y-103504819D01*
X77702263Y-103504819D02*
X77845120Y-103552438D01*
X77845120Y-103552438D02*
X77892739Y-103600057D01*
X78749882Y-103838152D02*
X78749882Y-104504819D01*
X78511787Y-103457200D02*
X78273692Y-104171485D01*
X78273692Y-104171485D02*
X78892739Y-104171485D01*
X94167739Y-112454819D02*
X93834406Y-111978628D01*
X93596311Y-112454819D02*
X93596311Y-111454819D01*
X93596311Y-111454819D02*
X93977263Y-111454819D01*
X93977263Y-111454819D02*
X94072501Y-111502438D01*
X94072501Y-111502438D02*
X94120120Y-111550057D01*
X94120120Y-111550057D02*
X94167739Y-111645295D01*
X94167739Y-111645295D02*
X94167739Y-111788152D01*
X94167739Y-111788152D02*
X94120120Y-111883390D01*
X94120120Y-111883390D02*
X94072501Y-111931009D01*
X94072501Y-111931009D02*
X93977263Y-111978628D01*
X93977263Y-111978628D02*
X93596311Y-111978628D01*
X95024882Y-111788152D02*
X95024882Y-112454819D01*
X94786787Y-111407200D02*
X94548692Y-112121485D01*
X94548692Y-112121485D02*
X95167739Y-112121485D01*
X105789225Y-109642857D02*
X105313034Y-109976190D01*
X105789225Y-110214285D02*
X104789225Y-110214285D01*
X104789225Y-110214285D02*
X104789225Y-109833333D01*
X104789225Y-109833333D02*
X104836844Y-109738095D01*
X104836844Y-109738095D02*
X104884463Y-109690476D01*
X104884463Y-109690476D02*
X104979701Y-109642857D01*
X104979701Y-109642857D02*
X105122558Y-109642857D01*
X105122558Y-109642857D02*
X105217796Y-109690476D01*
X105217796Y-109690476D02*
X105265415Y-109738095D01*
X105265415Y-109738095D02*
X105313034Y-109833333D01*
X105313034Y-109833333D02*
X105313034Y-110214285D01*
X105789225Y-108690476D02*
X105789225Y-109261904D01*
X105789225Y-108976190D02*
X104789225Y-108976190D01*
X104789225Y-108976190D02*
X104932082Y-109071428D01*
X104932082Y-109071428D02*
X105027320Y-109166666D01*
X105027320Y-109166666D02*
X105074939Y-109261904D01*
X104789225Y-108357142D02*
X104789225Y-107738095D01*
X104789225Y-107738095D02*
X105170177Y-108071428D01*
X105170177Y-108071428D02*
X105170177Y-107928571D01*
X105170177Y-107928571D02*
X105217796Y-107833333D01*
X105217796Y-107833333D02*
X105265415Y-107785714D01*
X105265415Y-107785714D02*
X105360653Y-107738095D01*
X105360653Y-107738095D02*
X105598748Y-107738095D01*
X105598748Y-107738095D02*
X105693986Y-107785714D01*
X105693986Y-107785714D02*
X105741606Y-107833333D01*
X105741606Y-107833333D02*
X105789225Y-107928571D01*
X105789225Y-107928571D02*
X105789225Y-108214285D01*
X105789225Y-108214285D02*
X105741606Y-108309523D01*
X105741606Y-108309523D02*
X105693986Y-108357142D01*
X90841548Y-80154819D02*
X90508215Y-79678628D01*
X90270120Y-80154819D02*
X90270120Y-79154819D01*
X90270120Y-79154819D02*
X90651072Y-79154819D01*
X90651072Y-79154819D02*
X90746310Y-79202438D01*
X90746310Y-79202438D02*
X90793929Y-79250057D01*
X90793929Y-79250057D02*
X90841548Y-79345295D01*
X90841548Y-79345295D02*
X90841548Y-79488152D01*
X90841548Y-79488152D02*
X90793929Y-79583390D01*
X90793929Y-79583390D02*
X90746310Y-79631009D01*
X90746310Y-79631009D02*
X90651072Y-79678628D01*
X90651072Y-79678628D02*
X90270120Y-79678628D01*
X91793929Y-80154819D02*
X91222501Y-80154819D01*
X91508215Y-80154819D02*
X91508215Y-79154819D01*
X91508215Y-79154819D02*
X91412977Y-79297676D01*
X91412977Y-79297676D02*
X91317739Y-79392914D01*
X91317739Y-79392914D02*
X91222501Y-79440533D01*
X92365358Y-79583390D02*
X92270120Y-79535771D01*
X92270120Y-79535771D02*
X92222501Y-79488152D01*
X92222501Y-79488152D02*
X92174882Y-79392914D01*
X92174882Y-79392914D02*
X92174882Y-79345295D01*
X92174882Y-79345295D02*
X92222501Y-79250057D01*
X92222501Y-79250057D02*
X92270120Y-79202438D01*
X92270120Y-79202438D02*
X92365358Y-79154819D01*
X92365358Y-79154819D02*
X92555834Y-79154819D01*
X92555834Y-79154819D02*
X92651072Y-79202438D01*
X92651072Y-79202438D02*
X92698691Y-79250057D01*
X92698691Y-79250057D02*
X92746310Y-79345295D01*
X92746310Y-79345295D02*
X92746310Y-79392914D01*
X92746310Y-79392914D02*
X92698691Y-79488152D01*
X92698691Y-79488152D02*
X92651072Y-79535771D01*
X92651072Y-79535771D02*
X92555834Y-79583390D01*
X92555834Y-79583390D02*
X92365358Y-79583390D01*
X92365358Y-79583390D02*
X92270120Y-79631009D01*
X92270120Y-79631009D02*
X92222501Y-79678628D01*
X92222501Y-79678628D02*
X92174882Y-79773866D01*
X92174882Y-79773866D02*
X92174882Y-79964342D01*
X92174882Y-79964342D02*
X92222501Y-80059580D01*
X92222501Y-80059580D02*
X92270120Y-80107200D01*
X92270120Y-80107200D02*
X92365358Y-80154819D01*
X92365358Y-80154819D02*
X92555834Y-80154819D01*
X92555834Y-80154819D02*
X92651072Y-80107200D01*
X92651072Y-80107200D02*
X92698691Y-80059580D01*
X92698691Y-80059580D02*
X92746310Y-79964342D01*
X92746310Y-79964342D02*
X92746310Y-79773866D01*
X92746310Y-79773866D02*
X92698691Y-79678628D01*
X92698691Y-79678628D02*
X92651072Y-79631009D01*
X92651072Y-79631009D02*
X92555834Y-79583390D01*
X87251072Y-107204819D02*
X87251072Y-107919104D01*
X87251072Y-107919104D02*
X87203453Y-108061961D01*
X87203453Y-108061961D02*
X87108215Y-108157200D01*
X87108215Y-108157200D02*
X86965358Y-108204819D01*
X86965358Y-108204819D02*
X86870120Y-108204819D01*
X87727263Y-108204819D02*
X87727263Y-107204819D01*
X87727263Y-107204819D02*
X88108215Y-107204819D01*
X88108215Y-107204819D02*
X88203453Y-107252438D01*
X88203453Y-107252438D02*
X88251072Y-107300057D01*
X88251072Y-107300057D02*
X88298691Y-107395295D01*
X88298691Y-107395295D02*
X88298691Y-107538152D01*
X88298691Y-107538152D02*
X88251072Y-107633390D01*
X88251072Y-107633390D02*
X88203453Y-107681009D01*
X88203453Y-107681009D02*
X88108215Y-107728628D01*
X88108215Y-107728628D02*
X87727263Y-107728628D01*
X88679644Y-107300057D02*
X88727263Y-107252438D01*
X88727263Y-107252438D02*
X88822501Y-107204819D01*
X88822501Y-107204819D02*
X89060596Y-107204819D01*
X89060596Y-107204819D02*
X89155834Y-107252438D01*
X89155834Y-107252438D02*
X89203453Y-107300057D01*
X89203453Y-107300057D02*
X89251072Y-107395295D01*
X89251072Y-107395295D02*
X89251072Y-107490533D01*
X89251072Y-107490533D02*
X89203453Y-107633390D01*
X89203453Y-107633390D02*
X88632025Y-108204819D01*
X88632025Y-108204819D02*
X89251072Y-108204819D01*
X75917739Y-92854819D02*
X75584406Y-92378628D01*
X75346311Y-92854819D02*
X75346311Y-91854819D01*
X75346311Y-91854819D02*
X75727263Y-91854819D01*
X75727263Y-91854819D02*
X75822501Y-91902438D01*
X75822501Y-91902438D02*
X75870120Y-91950057D01*
X75870120Y-91950057D02*
X75917739Y-92045295D01*
X75917739Y-92045295D02*
X75917739Y-92188152D01*
X75917739Y-92188152D02*
X75870120Y-92283390D01*
X75870120Y-92283390D02*
X75822501Y-92331009D01*
X75822501Y-92331009D02*
X75727263Y-92378628D01*
X75727263Y-92378628D02*
X75346311Y-92378628D01*
X76251073Y-91854819D02*
X76870120Y-91854819D01*
X76870120Y-91854819D02*
X76536787Y-92235771D01*
X76536787Y-92235771D02*
X76679644Y-92235771D01*
X76679644Y-92235771D02*
X76774882Y-92283390D01*
X76774882Y-92283390D02*
X76822501Y-92331009D01*
X76822501Y-92331009D02*
X76870120Y-92426247D01*
X76870120Y-92426247D02*
X76870120Y-92664342D01*
X76870120Y-92664342D02*
X76822501Y-92759580D01*
X76822501Y-92759580D02*
X76774882Y-92807200D01*
X76774882Y-92807200D02*
X76679644Y-92854819D01*
X76679644Y-92854819D02*
X76393930Y-92854819D01*
X76393930Y-92854819D02*
X76298692Y-92807200D01*
X76298692Y-92807200D02*
X76251073Y-92759580D01*
X70846311Y-91954819D02*
X70846311Y-90954819D01*
X70846311Y-90954819D02*
X71084406Y-90954819D01*
X71084406Y-90954819D02*
X71227263Y-91002438D01*
X71227263Y-91002438D02*
X71322501Y-91097676D01*
X71322501Y-91097676D02*
X71370120Y-91192914D01*
X71370120Y-91192914D02*
X71417739Y-91383390D01*
X71417739Y-91383390D02*
X71417739Y-91526247D01*
X71417739Y-91526247D02*
X71370120Y-91716723D01*
X71370120Y-91716723D02*
X71322501Y-91811961D01*
X71322501Y-91811961D02*
X71227263Y-91907200D01*
X71227263Y-91907200D02*
X71084406Y-91954819D01*
X71084406Y-91954819D02*
X70846311Y-91954819D01*
X72370120Y-91954819D02*
X71798692Y-91954819D01*
X72084406Y-91954819D02*
X72084406Y-90954819D01*
X72084406Y-90954819D02*
X71989168Y-91097676D01*
X71989168Y-91097676D02*
X71893930Y-91192914D01*
X71893930Y-91192914D02*
X71798692Y-91240533D01*
X77892739Y-106109580D02*
X77845120Y-106157200D01*
X77845120Y-106157200D02*
X77702263Y-106204819D01*
X77702263Y-106204819D02*
X77607025Y-106204819D01*
X77607025Y-106204819D02*
X77464168Y-106157200D01*
X77464168Y-106157200D02*
X77368930Y-106061961D01*
X77368930Y-106061961D02*
X77321311Y-105966723D01*
X77321311Y-105966723D02*
X77273692Y-105776247D01*
X77273692Y-105776247D02*
X77273692Y-105633390D01*
X77273692Y-105633390D02*
X77321311Y-105442914D01*
X77321311Y-105442914D02*
X77368930Y-105347676D01*
X77368930Y-105347676D02*
X77464168Y-105252438D01*
X77464168Y-105252438D02*
X77607025Y-105204819D01*
X77607025Y-105204819D02*
X77702263Y-105204819D01*
X77702263Y-105204819D02*
X77845120Y-105252438D01*
X77845120Y-105252438D02*
X77892739Y-105300057D01*
X78273692Y-105300057D02*
X78321311Y-105252438D01*
X78321311Y-105252438D02*
X78416549Y-105204819D01*
X78416549Y-105204819D02*
X78654644Y-105204819D01*
X78654644Y-105204819D02*
X78749882Y-105252438D01*
X78749882Y-105252438D02*
X78797501Y-105300057D01*
X78797501Y-105300057D02*
X78845120Y-105395295D01*
X78845120Y-105395295D02*
X78845120Y-105490533D01*
X78845120Y-105490533D02*
X78797501Y-105633390D01*
X78797501Y-105633390D02*
X78226073Y-106204819D01*
X78226073Y-106204819D02*
X78845120Y-106204819D01*
X81901667Y-79950057D02*
X81806429Y-79902438D01*
X81806429Y-79902438D02*
X81711191Y-79807200D01*
X81711191Y-79807200D02*
X81568334Y-79664342D01*
X81568334Y-79664342D02*
X81473096Y-79616723D01*
X81473096Y-79616723D02*
X81377858Y-79616723D01*
X81425477Y-79854819D02*
X81330239Y-79807200D01*
X81330239Y-79807200D02*
X81235001Y-79711961D01*
X81235001Y-79711961D02*
X81187382Y-79521485D01*
X81187382Y-79521485D02*
X81187382Y-79188152D01*
X81187382Y-79188152D02*
X81235001Y-78997676D01*
X81235001Y-78997676D02*
X81330239Y-78902438D01*
X81330239Y-78902438D02*
X81425477Y-78854819D01*
X81425477Y-78854819D02*
X81615953Y-78854819D01*
X81615953Y-78854819D02*
X81711191Y-78902438D01*
X81711191Y-78902438D02*
X81806429Y-78997676D01*
X81806429Y-78997676D02*
X81854048Y-79188152D01*
X81854048Y-79188152D02*
X81854048Y-79521485D01*
X81854048Y-79521485D02*
X81806429Y-79711961D01*
X81806429Y-79711961D02*
X81711191Y-79807200D01*
X81711191Y-79807200D02*
X81615953Y-79854819D01*
X81615953Y-79854819D02*
X81425477Y-79854819D01*
X82235001Y-78950057D02*
X82282620Y-78902438D01*
X82282620Y-78902438D02*
X82377858Y-78854819D01*
X82377858Y-78854819D02*
X82615953Y-78854819D01*
X82615953Y-78854819D02*
X82711191Y-78902438D01*
X82711191Y-78902438D02*
X82758810Y-78950057D01*
X82758810Y-78950057D02*
X82806429Y-79045295D01*
X82806429Y-79045295D02*
X82806429Y-79140533D01*
X82806429Y-79140533D02*
X82758810Y-79283390D01*
X82758810Y-79283390D02*
X82187382Y-79854819D01*
X82187382Y-79854819D02*
X82806429Y-79854819D01*
X83751725Y-82742857D02*
X83275534Y-83076190D01*
X83751725Y-83314285D02*
X82751725Y-83314285D01*
X82751725Y-83314285D02*
X82751725Y-82933333D01*
X82751725Y-82933333D02*
X82799344Y-82838095D01*
X82799344Y-82838095D02*
X82846963Y-82790476D01*
X82846963Y-82790476D02*
X82942201Y-82742857D01*
X82942201Y-82742857D02*
X83085058Y-82742857D01*
X83085058Y-82742857D02*
X83180296Y-82790476D01*
X83180296Y-82790476D02*
X83227915Y-82838095D01*
X83227915Y-82838095D02*
X83275534Y-82933333D01*
X83275534Y-82933333D02*
X83275534Y-83314285D01*
X83751725Y-81790476D02*
X83751725Y-82361904D01*
X83751725Y-82076190D02*
X82751725Y-82076190D01*
X82751725Y-82076190D02*
X82894582Y-82171428D01*
X82894582Y-82171428D02*
X82989820Y-82266666D01*
X82989820Y-82266666D02*
X83037439Y-82361904D01*
X82751725Y-80933333D02*
X82751725Y-81123809D01*
X82751725Y-81123809D02*
X82799344Y-81219047D01*
X82799344Y-81219047D02*
X82846963Y-81266666D01*
X82846963Y-81266666D02*
X82989820Y-81361904D01*
X82989820Y-81361904D02*
X83180296Y-81409523D01*
X83180296Y-81409523D02*
X83561248Y-81409523D01*
X83561248Y-81409523D02*
X83656486Y-81361904D01*
X83656486Y-81361904D02*
X83704106Y-81314285D01*
X83704106Y-81314285D02*
X83751725Y-81219047D01*
X83751725Y-81219047D02*
X83751725Y-81028571D01*
X83751725Y-81028571D02*
X83704106Y-80933333D01*
X83704106Y-80933333D02*
X83656486Y-80885714D01*
X83656486Y-80885714D02*
X83561248Y-80838095D01*
X83561248Y-80838095D02*
X83323153Y-80838095D01*
X83323153Y-80838095D02*
X83227915Y-80885714D01*
X83227915Y-80885714D02*
X83180296Y-80933333D01*
X83180296Y-80933333D02*
X83132677Y-81028571D01*
X83132677Y-81028571D02*
X83132677Y-81219047D01*
X83132677Y-81219047D02*
X83180296Y-81314285D01*
X83180296Y-81314285D02*
X83227915Y-81361904D01*
X83227915Y-81361904D02*
X83323153Y-81409523D01*
X79801667Y-74750057D02*
X79706429Y-74702438D01*
X79706429Y-74702438D02*
X79611191Y-74607200D01*
X79611191Y-74607200D02*
X79468334Y-74464342D01*
X79468334Y-74464342D02*
X79373096Y-74416723D01*
X79373096Y-74416723D02*
X79277858Y-74416723D01*
X79325477Y-74654819D02*
X79230239Y-74607200D01*
X79230239Y-74607200D02*
X79135001Y-74511961D01*
X79135001Y-74511961D02*
X79087382Y-74321485D01*
X79087382Y-74321485D02*
X79087382Y-73988152D01*
X79087382Y-73988152D02*
X79135001Y-73797676D01*
X79135001Y-73797676D02*
X79230239Y-73702438D01*
X79230239Y-73702438D02*
X79325477Y-73654819D01*
X79325477Y-73654819D02*
X79515953Y-73654819D01*
X79515953Y-73654819D02*
X79611191Y-73702438D01*
X79611191Y-73702438D02*
X79706429Y-73797676D01*
X79706429Y-73797676D02*
X79754048Y-73988152D01*
X79754048Y-73988152D02*
X79754048Y-74321485D01*
X79754048Y-74321485D02*
X79706429Y-74511961D01*
X79706429Y-74511961D02*
X79611191Y-74607200D01*
X79611191Y-74607200D02*
X79515953Y-74654819D01*
X79515953Y-74654819D02*
X79325477Y-74654819D01*
X80087382Y-73654819D02*
X80706429Y-73654819D01*
X80706429Y-73654819D02*
X80373096Y-74035771D01*
X80373096Y-74035771D02*
X80515953Y-74035771D01*
X80515953Y-74035771D02*
X80611191Y-74083390D01*
X80611191Y-74083390D02*
X80658810Y-74131009D01*
X80658810Y-74131009D02*
X80706429Y-74226247D01*
X80706429Y-74226247D02*
X80706429Y-74464342D01*
X80706429Y-74464342D02*
X80658810Y-74559580D01*
X80658810Y-74559580D02*
X80611191Y-74607200D01*
X80611191Y-74607200D02*
X80515953Y-74654819D01*
X80515953Y-74654819D02*
X80230239Y-74654819D01*
X80230239Y-74654819D02*
X80135001Y-74607200D01*
X80135001Y-74607200D02*
X80087382Y-74559580D01*
X77892739Y-102709580D02*
X77845120Y-102757200D01*
X77845120Y-102757200D02*
X77702263Y-102804819D01*
X77702263Y-102804819D02*
X77607025Y-102804819D01*
X77607025Y-102804819D02*
X77464168Y-102757200D01*
X77464168Y-102757200D02*
X77368930Y-102661961D01*
X77368930Y-102661961D02*
X77321311Y-102566723D01*
X77321311Y-102566723D02*
X77273692Y-102376247D01*
X77273692Y-102376247D02*
X77273692Y-102233390D01*
X77273692Y-102233390D02*
X77321311Y-102042914D01*
X77321311Y-102042914D02*
X77368930Y-101947676D01*
X77368930Y-101947676D02*
X77464168Y-101852438D01*
X77464168Y-101852438D02*
X77607025Y-101804819D01*
X77607025Y-101804819D02*
X77702263Y-101804819D01*
X77702263Y-101804819D02*
X77845120Y-101852438D01*
X77845120Y-101852438D02*
X77892739Y-101900057D01*
X78797501Y-101804819D02*
X78321311Y-101804819D01*
X78321311Y-101804819D02*
X78273692Y-102281009D01*
X78273692Y-102281009D02*
X78321311Y-102233390D01*
X78321311Y-102233390D02*
X78416549Y-102185771D01*
X78416549Y-102185771D02*
X78654644Y-102185771D01*
X78654644Y-102185771D02*
X78749882Y-102233390D01*
X78749882Y-102233390D02*
X78797501Y-102281009D01*
X78797501Y-102281009D02*
X78845120Y-102376247D01*
X78845120Y-102376247D02*
X78845120Y-102614342D01*
X78845120Y-102614342D02*
X78797501Y-102709580D01*
X78797501Y-102709580D02*
X78749882Y-102757200D01*
X78749882Y-102757200D02*
X78654644Y-102804819D01*
X78654644Y-102804819D02*
X78416549Y-102804819D01*
X78416549Y-102804819D02*
X78321311Y-102757200D01*
X78321311Y-102757200D02*
X78273692Y-102709580D01*
X90841548Y-85254819D02*
X90508215Y-84778628D01*
X90270120Y-85254819D02*
X90270120Y-84254819D01*
X90270120Y-84254819D02*
X90651072Y-84254819D01*
X90651072Y-84254819D02*
X90746310Y-84302438D01*
X90746310Y-84302438D02*
X90793929Y-84350057D01*
X90793929Y-84350057D02*
X90841548Y-84445295D01*
X90841548Y-84445295D02*
X90841548Y-84588152D01*
X90841548Y-84588152D02*
X90793929Y-84683390D01*
X90793929Y-84683390D02*
X90746310Y-84731009D01*
X90746310Y-84731009D02*
X90651072Y-84778628D01*
X90651072Y-84778628D02*
X90270120Y-84778628D01*
X91793929Y-85254819D02*
X91222501Y-85254819D01*
X91508215Y-85254819D02*
X91508215Y-84254819D01*
X91508215Y-84254819D02*
X91412977Y-84397676D01*
X91412977Y-84397676D02*
X91317739Y-84492914D01*
X91317739Y-84492914D02*
X91222501Y-84540533D01*
X92270120Y-85254819D02*
X92460596Y-85254819D01*
X92460596Y-85254819D02*
X92555834Y-85207200D01*
X92555834Y-85207200D02*
X92603453Y-85159580D01*
X92603453Y-85159580D02*
X92698691Y-85016723D01*
X92698691Y-85016723D02*
X92746310Y-84826247D01*
X92746310Y-84826247D02*
X92746310Y-84445295D01*
X92746310Y-84445295D02*
X92698691Y-84350057D01*
X92698691Y-84350057D02*
X92651072Y-84302438D01*
X92651072Y-84302438D02*
X92555834Y-84254819D01*
X92555834Y-84254819D02*
X92365358Y-84254819D01*
X92365358Y-84254819D02*
X92270120Y-84302438D01*
X92270120Y-84302438D02*
X92222501Y-84350057D01*
X92222501Y-84350057D02*
X92174882Y-84445295D01*
X92174882Y-84445295D02*
X92174882Y-84683390D01*
X92174882Y-84683390D02*
X92222501Y-84778628D01*
X92222501Y-84778628D02*
X92270120Y-84826247D01*
X92270120Y-84826247D02*
X92365358Y-84873866D01*
X92365358Y-84873866D02*
X92555834Y-84873866D01*
X92555834Y-84873866D02*
X92651072Y-84826247D01*
X92651072Y-84826247D02*
X92698691Y-84778628D01*
X92698691Y-84778628D02*
X92746310Y-84683390D01*
X101739167Y-103050057D02*
X101643929Y-103002438D01*
X101643929Y-103002438D02*
X101548691Y-102907200D01*
X101548691Y-102907200D02*
X101405834Y-102764342D01*
X101405834Y-102764342D02*
X101310596Y-102716723D01*
X101310596Y-102716723D02*
X101215358Y-102716723D01*
X101262977Y-102954819D02*
X101167739Y-102907200D01*
X101167739Y-102907200D02*
X101072501Y-102811961D01*
X101072501Y-102811961D02*
X101024882Y-102621485D01*
X101024882Y-102621485D02*
X101024882Y-102288152D01*
X101024882Y-102288152D02*
X101072501Y-102097676D01*
X101072501Y-102097676D02*
X101167739Y-102002438D01*
X101167739Y-102002438D02*
X101262977Y-101954819D01*
X101262977Y-101954819D02*
X101453453Y-101954819D01*
X101453453Y-101954819D02*
X101548691Y-102002438D01*
X101548691Y-102002438D02*
X101643929Y-102097676D01*
X101643929Y-102097676D02*
X101691548Y-102288152D01*
X101691548Y-102288152D02*
X101691548Y-102621485D01*
X101691548Y-102621485D02*
X101643929Y-102811961D01*
X101643929Y-102811961D02*
X101548691Y-102907200D01*
X101548691Y-102907200D02*
X101453453Y-102954819D01*
X101453453Y-102954819D02*
X101262977Y-102954819D01*
X102643929Y-102954819D02*
X102072501Y-102954819D01*
X102358215Y-102954819D02*
X102358215Y-101954819D01*
X102358215Y-101954819D02*
X102262977Y-102097676D01*
X102262977Y-102097676D02*
X102167739Y-102192914D01*
X102167739Y-102192914D02*
X102072501Y-102240533D01*
X111251072Y-102954819D02*
X111251072Y-103669104D01*
X111251072Y-103669104D02*
X111203453Y-103811961D01*
X111203453Y-103811961D02*
X111108215Y-103907200D01*
X111108215Y-103907200D02*
X110965358Y-103954819D01*
X110965358Y-103954819D02*
X110870120Y-103954819D01*
X111727263Y-103954819D02*
X111727263Y-102954819D01*
X111727263Y-102954819D02*
X112108215Y-102954819D01*
X112108215Y-102954819D02*
X112203453Y-103002438D01*
X112203453Y-103002438D02*
X112251072Y-103050057D01*
X112251072Y-103050057D02*
X112298691Y-103145295D01*
X112298691Y-103145295D02*
X112298691Y-103288152D01*
X112298691Y-103288152D02*
X112251072Y-103383390D01*
X112251072Y-103383390D02*
X112203453Y-103431009D01*
X112203453Y-103431009D02*
X112108215Y-103478628D01*
X112108215Y-103478628D02*
X111727263Y-103478628D01*
X113155834Y-103288152D02*
X113155834Y-103954819D01*
X112917739Y-102907200D02*
X112679644Y-103621485D01*
X112679644Y-103621485D02*
X113298691Y-103621485D01*
X85167739Y-86609580D02*
X85120120Y-86657200D01*
X85120120Y-86657200D02*
X84977263Y-86704819D01*
X84977263Y-86704819D02*
X84882025Y-86704819D01*
X84882025Y-86704819D02*
X84739168Y-86657200D01*
X84739168Y-86657200D02*
X84643930Y-86561961D01*
X84643930Y-86561961D02*
X84596311Y-86466723D01*
X84596311Y-86466723D02*
X84548692Y-86276247D01*
X84548692Y-86276247D02*
X84548692Y-86133390D01*
X84548692Y-86133390D02*
X84596311Y-85942914D01*
X84596311Y-85942914D02*
X84643930Y-85847676D01*
X84643930Y-85847676D02*
X84739168Y-85752438D01*
X84739168Y-85752438D02*
X84882025Y-85704819D01*
X84882025Y-85704819D02*
X84977263Y-85704819D01*
X84977263Y-85704819D02*
X85120120Y-85752438D01*
X85120120Y-85752438D02*
X85167739Y-85800057D01*
X86024882Y-85704819D02*
X85834406Y-85704819D01*
X85834406Y-85704819D02*
X85739168Y-85752438D01*
X85739168Y-85752438D02*
X85691549Y-85800057D01*
X85691549Y-85800057D02*
X85596311Y-85942914D01*
X85596311Y-85942914D02*
X85548692Y-86133390D01*
X85548692Y-86133390D02*
X85548692Y-86514342D01*
X85548692Y-86514342D02*
X85596311Y-86609580D01*
X85596311Y-86609580D02*
X85643930Y-86657200D01*
X85643930Y-86657200D02*
X85739168Y-86704819D01*
X85739168Y-86704819D02*
X85929644Y-86704819D01*
X85929644Y-86704819D02*
X86024882Y-86657200D01*
X86024882Y-86657200D02*
X86072501Y-86609580D01*
X86072501Y-86609580D02*
X86120120Y-86514342D01*
X86120120Y-86514342D02*
X86120120Y-86276247D01*
X86120120Y-86276247D02*
X86072501Y-86181009D01*
X86072501Y-86181009D02*
X86024882Y-86133390D01*
X86024882Y-86133390D02*
X85929644Y-86085771D01*
X85929644Y-86085771D02*
X85739168Y-86085771D01*
X85739168Y-86085771D02*
X85643930Y-86133390D01*
X85643930Y-86133390D02*
X85596311Y-86181009D01*
X85596311Y-86181009D02*
X85548692Y-86276247D01*
X106441548Y-112454819D02*
X106108215Y-111978628D01*
X105870120Y-112454819D02*
X105870120Y-111454819D01*
X105870120Y-111454819D02*
X106251072Y-111454819D01*
X106251072Y-111454819D02*
X106346310Y-111502438D01*
X106346310Y-111502438D02*
X106393929Y-111550057D01*
X106393929Y-111550057D02*
X106441548Y-111645295D01*
X106441548Y-111645295D02*
X106441548Y-111788152D01*
X106441548Y-111788152D02*
X106393929Y-111883390D01*
X106393929Y-111883390D02*
X106346310Y-111931009D01*
X106346310Y-111931009D02*
X106251072Y-111978628D01*
X106251072Y-111978628D02*
X105870120Y-111978628D01*
X107393929Y-112454819D02*
X106822501Y-112454819D01*
X107108215Y-112454819D02*
X107108215Y-111454819D01*
X107108215Y-111454819D02*
X107012977Y-111597676D01*
X107012977Y-111597676D02*
X106917739Y-111692914D01*
X106917739Y-111692914D02*
X106822501Y-111740533D01*
X108012977Y-111454819D02*
X108108215Y-111454819D01*
X108108215Y-111454819D02*
X108203453Y-111502438D01*
X108203453Y-111502438D02*
X108251072Y-111550057D01*
X108251072Y-111550057D02*
X108298691Y-111645295D01*
X108298691Y-111645295D02*
X108346310Y-111835771D01*
X108346310Y-111835771D02*
X108346310Y-112073866D01*
X108346310Y-112073866D02*
X108298691Y-112264342D01*
X108298691Y-112264342D02*
X108251072Y-112359580D01*
X108251072Y-112359580D02*
X108203453Y-112407200D01*
X108203453Y-112407200D02*
X108108215Y-112454819D01*
X108108215Y-112454819D02*
X108012977Y-112454819D01*
X108012977Y-112454819D02*
X107917739Y-112407200D01*
X107917739Y-112407200D02*
X107870120Y-112359580D01*
X107870120Y-112359580D02*
X107822501Y-112264342D01*
X107822501Y-112264342D02*
X107774882Y-112073866D01*
X107774882Y-112073866D02*
X107774882Y-111835771D01*
X107774882Y-111835771D02*
X107822501Y-111645295D01*
X107822501Y-111645295D02*
X107870120Y-111550057D01*
X107870120Y-111550057D02*
X107917739Y-111502438D01*
X107917739Y-111502438D02*
X108012977Y-111454819D01*
X73246311Y-91954819D02*
X73246311Y-90954819D01*
X73246311Y-90954819D02*
X73484406Y-90954819D01*
X73484406Y-90954819D02*
X73627263Y-91002438D01*
X73627263Y-91002438D02*
X73722501Y-91097676D01*
X73722501Y-91097676D02*
X73770120Y-91192914D01*
X73770120Y-91192914D02*
X73817739Y-91383390D01*
X73817739Y-91383390D02*
X73817739Y-91526247D01*
X73817739Y-91526247D02*
X73770120Y-91716723D01*
X73770120Y-91716723D02*
X73722501Y-91811961D01*
X73722501Y-91811961D02*
X73627263Y-91907200D01*
X73627263Y-91907200D02*
X73484406Y-91954819D01*
X73484406Y-91954819D02*
X73246311Y-91954819D01*
X74198692Y-91050057D02*
X74246311Y-91002438D01*
X74246311Y-91002438D02*
X74341549Y-90954819D01*
X74341549Y-90954819D02*
X74579644Y-90954819D01*
X74579644Y-90954819D02*
X74674882Y-91002438D01*
X74674882Y-91002438D02*
X74722501Y-91050057D01*
X74722501Y-91050057D02*
X74770120Y-91145295D01*
X74770120Y-91145295D02*
X74770120Y-91240533D01*
X74770120Y-91240533D02*
X74722501Y-91383390D01*
X74722501Y-91383390D02*
X74151073Y-91954819D01*
X74151073Y-91954819D02*
X74770120Y-91954819D01*
X77751072Y-92931009D02*
X77417739Y-92931009D01*
X77417739Y-93454819D02*
X77417739Y-92454819D01*
X77417739Y-92454819D02*
X77893929Y-92454819D01*
X78798691Y-93454819D02*
X78227263Y-93454819D01*
X78512977Y-93454819D02*
X78512977Y-92454819D01*
X78512977Y-92454819D02*
X78417739Y-92597676D01*
X78417739Y-92597676D02*
X78322501Y-92692914D01*
X78322501Y-92692914D02*
X78227263Y-92740533D01*
X104417739Y-112454819D02*
X104084406Y-111978628D01*
X103846311Y-112454819D02*
X103846311Y-111454819D01*
X103846311Y-111454819D02*
X104227263Y-111454819D01*
X104227263Y-111454819D02*
X104322501Y-111502438D01*
X104322501Y-111502438D02*
X104370120Y-111550057D01*
X104370120Y-111550057D02*
X104417739Y-111645295D01*
X104417739Y-111645295D02*
X104417739Y-111788152D01*
X104417739Y-111788152D02*
X104370120Y-111883390D01*
X104370120Y-111883390D02*
X104322501Y-111931009D01*
X104322501Y-111931009D02*
X104227263Y-111978628D01*
X104227263Y-111978628D02*
X103846311Y-111978628D01*
X104893930Y-112454819D02*
X105084406Y-112454819D01*
X105084406Y-112454819D02*
X105179644Y-112407200D01*
X105179644Y-112407200D02*
X105227263Y-112359580D01*
X105227263Y-112359580D02*
X105322501Y-112216723D01*
X105322501Y-112216723D02*
X105370120Y-112026247D01*
X105370120Y-112026247D02*
X105370120Y-111645295D01*
X105370120Y-111645295D02*
X105322501Y-111550057D01*
X105322501Y-111550057D02*
X105274882Y-111502438D01*
X105274882Y-111502438D02*
X105179644Y-111454819D01*
X105179644Y-111454819D02*
X104989168Y-111454819D01*
X104989168Y-111454819D02*
X104893930Y-111502438D01*
X104893930Y-111502438D02*
X104846311Y-111550057D01*
X104846311Y-111550057D02*
X104798692Y-111645295D01*
X104798692Y-111645295D02*
X104798692Y-111883390D01*
X104798692Y-111883390D02*
X104846311Y-111978628D01*
X104846311Y-111978628D02*
X104893930Y-112026247D01*
X104893930Y-112026247D02*
X104989168Y-112073866D01*
X104989168Y-112073866D02*
X105179644Y-112073866D01*
X105179644Y-112073866D02*
X105274882Y-112026247D01*
X105274882Y-112026247D02*
X105322501Y-111978628D01*
X105322501Y-111978628D02*
X105370120Y-111883390D01*
X77539225Y-83392857D02*
X77063034Y-83726190D01*
X77539225Y-83964285D02*
X76539225Y-83964285D01*
X76539225Y-83964285D02*
X76539225Y-83583333D01*
X76539225Y-83583333D02*
X76586844Y-83488095D01*
X76586844Y-83488095D02*
X76634463Y-83440476D01*
X76634463Y-83440476D02*
X76729701Y-83392857D01*
X76729701Y-83392857D02*
X76872558Y-83392857D01*
X76872558Y-83392857D02*
X76967796Y-83440476D01*
X76967796Y-83440476D02*
X77015415Y-83488095D01*
X77015415Y-83488095D02*
X77063034Y-83583333D01*
X77063034Y-83583333D02*
X77063034Y-83964285D01*
X77539225Y-82440476D02*
X77539225Y-83011904D01*
X77539225Y-82726190D02*
X76539225Y-82726190D01*
X76539225Y-82726190D02*
X76682082Y-82821428D01*
X76682082Y-82821428D02*
X76777320Y-82916666D01*
X76777320Y-82916666D02*
X76824939Y-83011904D01*
X76539225Y-81535714D02*
X76539225Y-82011904D01*
X76539225Y-82011904D02*
X77015415Y-82059523D01*
X77015415Y-82059523D02*
X76967796Y-82011904D01*
X76967796Y-82011904D02*
X76920177Y-81916666D01*
X76920177Y-81916666D02*
X76920177Y-81678571D01*
X76920177Y-81678571D02*
X76967796Y-81583333D01*
X76967796Y-81583333D02*
X77015415Y-81535714D01*
X77015415Y-81535714D02*
X77110653Y-81488095D01*
X77110653Y-81488095D02*
X77348748Y-81488095D01*
X77348748Y-81488095D02*
X77443986Y-81535714D01*
X77443986Y-81535714D02*
X77491606Y-81583333D01*
X77491606Y-81583333D02*
X77539225Y-81678571D01*
X77539225Y-81678571D02*
X77539225Y-81916666D01*
X77539225Y-81916666D02*
X77491606Y-82011904D01*
X77491606Y-82011904D02*
X77443986Y-82059523D01*
X101917739Y-112454819D02*
X101584406Y-111978628D01*
X101346311Y-112454819D02*
X101346311Y-111454819D01*
X101346311Y-111454819D02*
X101727263Y-111454819D01*
X101727263Y-111454819D02*
X101822501Y-111502438D01*
X101822501Y-111502438D02*
X101870120Y-111550057D01*
X101870120Y-111550057D02*
X101917739Y-111645295D01*
X101917739Y-111645295D02*
X101917739Y-111788152D01*
X101917739Y-111788152D02*
X101870120Y-111883390D01*
X101870120Y-111883390D02*
X101822501Y-111931009D01*
X101822501Y-111931009D02*
X101727263Y-111978628D01*
X101727263Y-111978628D02*
X101346311Y-111978628D01*
X102489168Y-111883390D02*
X102393930Y-111835771D01*
X102393930Y-111835771D02*
X102346311Y-111788152D01*
X102346311Y-111788152D02*
X102298692Y-111692914D01*
X102298692Y-111692914D02*
X102298692Y-111645295D01*
X102298692Y-111645295D02*
X102346311Y-111550057D01*
X102346311Y-111550057D02*
X102393930Y-111502438D01*
X102393930Y-111502438D02*
X102489168Y-111454819D01*
X102489168Y-111454819D02*
X102679644Y-111454819D01*
X102679644Y-111454819D02*
X102774882Y-111502438D01*
X102774882Y-111502438D02*
X102822501Y-111550057D01*
X102822501Y-111550057D02*
X102870120Y-111645295D01*
X102870120Y-111645295D02*
X102870120Y-111692914D01*
X102870120Y-111692914D02*
X102822501Y-111788152D01*
X102822501Y-111788152D02*
X102774882Y-111835771D01*
X102774882Y-111835771D02*
X102679644Y-111883390D01*
X102679644Y-111883390D02*
X102489168Y-111883390D01*
X102489168Y-111883390D02*
X102393930Y-111931009D01*
X102393930Y-111931009D02*
X102346311Y-111978628D01*
X102346311Y-111978628D02*
X102298692Y-112073866D01*
X102298692Y-112073866D02*
X102298692Y-112264342D01*
X102298692Y-112264342D02*
X102346311Y-112359580D01*
X102346311Y-112359580D02*
X102393930Y-112407200D01*
X102393930Y-112407200D02*
X102489168Y-112454819D01*
X102489168Y-112454819D02*
X102679644Y-112454819D01*
X102679644Y-112454819D02*
X102774882Y-112407200D01*
X102774882Y-112407200D02*
X102822501Y-112359580D01*
X102822501Y-112359580D02*
X102870120Y-112264342D01*
X102870120Y-112264342D02*
X102870120Y-112073866D01*
X102870120Y-112073866D02*
X102822501Y-111978628D01*
X102822501Y-111978628D02*
X102774882Y-111931009D01*
X102774882Y-111931009D02*
X102679644Y-111883390D01*
X74167739Y-100609580D02*
X74120120Y-100657200D01*
X74120120Y-100657200D02*
X73977263Y-100704819D01*
X73977263Y-100704819D02*
X73882025Y-100704819D01*
X73882025Y-100704819D02*
X73739168Y-100657200D01*
X73739168Y-100657200D02*
X73643930Y-100561961D01*
X73643930Y-100561961D02*
X73596311Y-100466723D01*
X73596311Y-100466723D02*
X73548692Y-100276247D01*
X73548692Y-100276247D02*
X73548692Y-100133390D01*
X73548692Y-100133390D02*
X73596311Y-99942914D01*
X73596311Y-99942914D02*
X73643930Y-99847676D01*
X73643930Y-99847676D02*
X73739168Y-99752438D01*
X73739168Y-99752438D02*
X73882025Y-99704819D01*
X73882025Y-99704819D02*
X73977263Y-99704819D01*
X73977263Y-99704819D02*
X74120120Y-99752438D01*
X74120120Y-99752438D02*
X74167739Y-99800057D01*
X75120120Y-100704819D02*
X74548692Y-100704819D01*
X74834406Y-100704819D02*
X74834406Y-99704819D01*
X74834406Y-99704819D02*
X74739168Y-99847676D01*
X74739168Y-99847676D02*
X74643930Y-99942914D01*
X74643930Y-99942914D02*
X74548692Y-99990533D01*
X94703453Y-99681009D02*
X94846310Y-99728628D01*
X94846310Y-99728628D02*
X94893929Y-99776247D01*
X94893929Y-99776247D02*
X94941548Y-99871485D01*
X94941548Y-99871485D02*
X94941548Y-100014342D01*
X94941548Y-100014342D02*
X94893929Y-100109580D01*
X94893929Y-100109580D02*
X94846310Y-100157200D01*
X94846310Y-100157200D02*
X94751072Y-100204819D01*
X94751072Y-100204819D02*
X94370120Y-100204819D01*
X94370120Y-100204819D02*
X94370120Y-99204819D01*
X94370120Y-99204819D02*
X94703453Y-99204819D01*
X94703453Y-99204819D02*
X94798691Y-99252438D01*
X94798691Y-99252438D02*
X94846310Y-99300057D01*
X94846310Y-99300057D02*
X94893929Y-99395295D01*
X94893929Y-99395295D02*
X94893929Y-99490533D01*
X94893929Y-99490533D02*
X94846310Y-99585771D01*
X94846310Y-99585771D02*
X94798691Y-99633390D01*
X94798691Y-99633390D02*
X94703453Y-99681009D01*
X94703453Y-99681009D02*
X94370120Y-99681009D01*
X95274882Y-99204819D02*
X95941548Y-99204819D01*
X95941548Y-99204819D02*
X95274882Y-100204819D01*
X95274882Y-100204819D02*
X95941548Y-100204819D01*
X96846310Y-100204819D02*
X96274882Y-100204819D01*
X96560596Y-100204819D02*
X96560596Y-99204819D01*
X96560596Y-99204819D02*
X96465358Y-99347676D01*
X96465358Y-99347676D02*
X96370120Y-99442914D01*
X96370120Y-99442914D02*
X96274882Y-99490533D01*
X74167739Y-99204819D02*
X73834406Y-98728628D01*
X73596311Y-99204819D02*
X73596311Y-98204819D01*
X73596311Y-98204819D02*
X73977263Y-98204819D01*
X73977263Y-98204819D02*
X74072501Y-98252438D01*
X74072501Y-98252438D02*
X74120120Y-98300057D01*
X74120120Y-98300057D02*
X74167739Y-98395295D01*
X74167739Y-98395295D02*
X74167739Y-98538152D01*
X74167739Y-98538152D02*
X74120120Y-98633390D01*
X74120120Y-98633390D02*
X74072501Y-98681009D01*
X74072501Y-98681009D02*
X73977263Y-98728628D01*
X73977263Y-98728628D02*
X73596311Y-98728628D01*
X75120120Y-99204819D02*
X74548692Y-99204819D01*
X74834406Y-99204819D02*
X74834406Y-98204819D01*
X74834406Y-98204819D02*
X74739168Y-98347676D01*
X74739168Y-98347676D02*
X74643930Y-98442914D01*
X74643930Y-98442914D02*
X74548692Y-98490533D01*
X70251073Y-76157200D02*
X70393930Y-76204819D01*
X70393930Y-76204819D02*
X70632025Y-76204819D01*
X70632025Y-76204819D02*
X70727263Y-76157200D01*
X70727263Y-76157200D02*
X70774882Y-76109580D01*
X70774882Y-76109580D02*
X70822501Y-76014342D01*
X70822501Y-76014342D02*
X70822501Y-75919104D01*
X70822501Y-75919104D02*
X70774882Y-75823866D01*
X70774882Y-75823866D02*
X70727263Y-75776247D01*
X70727263Y-75776247D02*
X70632025Y-75728628D01*
X70632025Y-75728628D02*
X70441549Y-75681009D01*
X70441549Y-75681009D02*
X70346311Y-75633390D01*
X70346311Y-75633390D02*
X70298692Y-75585771D01*
X70298692Y-75585771D02*
X70251073Y-75490533D01*
X70251073Y-75490533D02*
X70251073Y-75395295D01*
X70251073Y-75395295D02*
X70298692Y-75300057D01*
X70298692Y-75300057D02*
X70346311Y-75252438D01*
X70346311Y-75252438D02*
X70441549Y-75204819D01*
X70441549Y-75204819D02*
X70679644Y-75204819D01*
X70679644Y-75204819D02*
X70822501Y-75252438D01*
X71155835Y-75204819D02*
X71393930Y-76204819D01*
X71393930Y-76204819D02*
X71584406Y-75490533D01*
X71584406Y-75490533D02*
X71774882Y-76204819D01*
X71774882Y-76204819D02*
X72012978Y-75204819D01*
X72917739Y-76204819D02*
X72346311Y-76204819D01*
X72632025Y-76204819D02*
X72632025Y-75204819D01*
X72632025Y-75204819D02*
X72536787Y-75347676D01*
X72536787Y-75347676D02*
X72441549Y-75442914D01*
X72441549Y-75442914D02*
X72346311Y-75490533D01*
X109191548Y-112454819D02*
X108858215Y-111978628D01*
X108620120Y-112454819D02*
X108620120Y-111454819D01*
X108620120Y-111454819D02*
X109001072Y-111454819D01*
X109001072Y-111454819D02*
X109096310Y-111502438D01*
X109096310Y-111502438D02*
X109143929Y-111550057D01*
X109143929Y-111550057D02*
X109191548Y-111645295D01*
X109191548Y-111645295D02*
X109191548Y-111788152D01*
X109191548Y-111788152D02*
X109143929Y-111883390D01*
X109143929Y-111883390D02*
X109096310Y-111931009D01*
X109096310Y-111931009D02*
X109001072Y-111978628D01*
X109001072Y-111978628D02*
X108620120Y-111978628D01*
X110143929Y-112454819D02*
X109572501Y-112454819D01*
X109858215Y-112454819D02*
X109858215Y-111454819D01*
X109858215Y-111454819D02*
X109762977Y-111597676D01*
X109762977Y-111597676D02*
X109667739Y-111692914D01*
X109667739Y-111692914D02*
X109572501Y-111740533D01*
X111096310Y-112454819D02*
X110524882Y-112454819D01*
X110810596Y-112454819D02*
X110810596Y-111454819D01*
X110810596Y-111454819D02*
X110715358Y-111597676D01*
X110715358Y-111597676D02*
X110620120Y-111692914D01*
X110620120Y-111692914D02*
X110524882Y-111740533D01*
D12*
X93691548Y-73930928D02*
X93691548Y-75145214D01*
X93691548Y-75145214D02*
X93762977Y-75288071D01*
X93762977Y-75288071D02*
X93834406Y-75359500D01*
X93834406Y-75359500D02*
X93977263Y-75430928D01*
X93977263Y-75430928D02*
X94262977Y-75430928D01*
X94262977Y-75430928D02*
X94405834Y-75359500D01*
X94405834Y-75359500D02*
X94477263Y-75288071D01*
X94477263Y-75288071D02*
X94548691Y-75145214D01*
X94548691Y-75145214D02*
X94548691Y-73930928D01*
X95905835Y-74430928D02*
X95905835Y-75430928D01*
X95548692Y-73859500D02*
X95191549Y-74930928D01*
X95191549Y-74930928D02*
X96120120Y-74930928D01*
D11*
X74167739Y-97454819D02*
X73834406Y-96978628D01*
X73596311Y-97454819D02*
X73596311Y-96454819D01*
X73596311Y-96454819D02*
X73977263Y-96454819D01*
X73977263Y-96454819D02*
X74072501Y-96502438D01*
X74072501Y-96502438D02*
X74120120Y-96550057D01*
X74120120Y-96550057D02*
X74167739Y-96645295D01*
X74167739Y-96645295D02*
X74167739Y-96788152D01*
X74167739Y-96788152D02*
X74120120Y-96883390D01*
X74120120Y-96883390D02*
X74072501Y-96931009D01*
X74072501Y-96931009D02*
X73977263Y-96978628D01*
X73977263Y-96978628D02*
X73596311Y-96978628D01*
X74548692Y-96550057D02*
X74596311Y-96502438D01*
X74596311Y-96502438D02*
X74691549Y-96454819D01*
X74691549Y-96454819D02*
X74929644Y-96454819D01*
X74929644Y-96454819D02*
X75024882Y-96502438D01*
X75024882Y-96502438D02*
X75072501Y-96550057D01*
X75072501Y-96550057D02*
X75120120Y-96645295D01*
X75120120Y-96645295D02*
X75120120Y-96740533D01*
X75120120Y-96740533D02*
X75072501Y-96883390D01*
X75072501Y-96883390D02*
X74501073Y-97454819D01*
X74501073Y-97454819D02*
X75120120Y-97454819D01*
X90841548Y-90354819D02*
X90508215Y-89878628D01*
X90270120Y-90354819D02*
X90270120Y-89354819D01*
X90270120Y-89354819D02*
X90651072Y-89354819D01*
X90651072Y-89354819D02*
X90746310Y-89402438D01*
X90746310Y-89402438D02*
X90793929Y-89450057D01*
X90793929Y-89450057D02*
X90841548Y-89545295D01*
X90841548Y-89545295D02*
X90841548Y-89688152D01*
X90841548Y-89688152D02*
X90793929Y-89783390D01*
X90793929Y-89783390D02*
X90746310Y-89831009D01*
X90746310Y-89831009D02*
X90651072Y-89878628D01*
X90651072Y-89878628D02*
X90270120Y-89878628D01*
X91222501Y-89450057D02*
X91270120Y-89402438D01*
X91270120Y-89402438D02*
X91365358Y-89354819D01*
X91365358Y-89354819D02*
X91603453Y-89354819D01*
X91603453Y-89354819D02*
X91698691Y-89402438D01*
X91698691Y-89402438D02*
X91746310Y-89450057D01*
X91746310Y-89450057D02*
X91793929Y-89545295D01*
X91793929Y-89545295D02*
X91793929Y-89640533D01*
X91793929Y-89640533D02*
X91746310Y-89783390D01*
X91746310Y-89783390D02*
X91174882Y-90354819D01*
X91174882Y-90354819D02*
X91793929Y-90354819D01*
X92746310Y-90354819D02*
X92174882Y-90354819D01*
X92460596Y-90354819D02*
X92460596Y-89354819D01*
X92460596Y-89354819D02*
X92365358Y-89497676D01*
X92365358Y-89497676D02*
X92270120Y-89592914D01*
X92270120Y-89592914D02*
X92174882Y-89640533D01*
X90039225Y-98238094D02*
X89039225Y-98238094D01*
X89039225Y-98238094D02*
X89039225Y-97999999D01*
X89039225Y-97999999D02*
X89086844Y-97857142D01*
X89086844Y-97857142D02*
X89182082Y-97761904D01*
X89182082Y-97761904D02*
X89277320Y-97714285D01*
X89277320Y-97714285D02*
X89467796Y-97666666D01*
X89467796Y-97666666D02*
X89610653Y-97666666D01*
X89610653Y-97666666D02*
X89801129Y-97714285D01*
X89801129Y-97714285D02*
X89896367Y-97761904D01*
X89896367Y-97761904D02*
X89991606Y-97857142D01*
X89991606Y-97857142D02*
X90039225Y-97999999D01*
X90039225Y-97999999D02*
X90039225Y-98238094D01*
X89039225Y-97333332D02*
X89039225Y-96714285D01*
X89039225Y-96714285D02*
X89420177Y-97047618D01*
X89420177Y-97047618D02*
X89420177Y-96904761D01*
X89420177Y-96904761D02*
X89467796Y-96809523D01*
X89467796Y-96809523D02*
X89515415Y-96761904D01*
X89515415Y-96761904D02*
X89610653Y-96714285D01*
X89610653Y-96714285D02*
X89848748Y-96714285D01*
X89848748Y-96714285D02*
X89943986Y-96761904D01*
X89943986Y-96761904D02*
X89991606Y-96809523D01*
X89991606Y-96809523D02*
X90039225Y-96904761D01*
X90039225Y-96904761D02*
X90039225Y-97190475D01*
X90039225Y-97190475D02*
X89991606Y-97285713D01*
X89991606Y-97285713D02*
X89943986Y-97333332D01*
X90841548Y-92854819D02*
X90508215Y-92378628D01*
X90270120Y-92854819D02*
X90270120Y-91854819D01*
X90270120Y-91854819D02*
X90651072Y-91854819D01*
X90651072Y-91854819D02*
X90746310Y-91902438D01*
X90746310Y-91902438D02*
X90793929Y-91950057D01*
X90793929Y-91950057D02*
X90841548Y-92045295D01*
X90841548Y-92045295D02*
X90841548Y-92188152D01*
X90841548Y-92188152D02*
X90793929Y-92283390D01*
X90793929Y-92283390D02*
X90746310Y-92331009D01*
X90746310Y-92331009D02*
X90651072Y-92378628D01*
X90651072Y-92378628D02*
X90270120Y-92378628D01*
X91222501Y-91950057D02*
X91270120Y-91902438D01*
X91270120Y-91902438D02*
X91365358Y-91854819D01*
X91365358Y-91854819D02*
X91603453Y-91854819D01*
X91603453Y-91854819D02*
X91698691Y-91902438D01*
X91698691Y-91902438D02*
X91746310Y-91950057D01*
X91746310Y-91950057D02*
X91793929Y-92045295D01*
X91793929Y-92045295D02*
X91793929Y-92140533D01*
X91793929Y-92140533D02*
X91746310Y-92283390D01*
X91746310Y-92283390D02*
X91174882Y-92854819D01*
X91174882Y-92854819D02*
X91793929Y-92854819D01*
X92174882Y-91950057D02*
X92222501Y-91902438D01*
X92222501Y-91902438D02*
X92317739Y-91854819D01*
X92317739Y-91854819D02*
X92555834Y-91854819D01*
X92555834Y-91854819D02*
X92651072Y-91902438D01*
X92651072Y-91902438D02*
X92698691Y-91950057D01*
X92698691Y-91950057D02*
X92746310Y-92045295D01*
X92746310Y-92045295D02*
X92746310Y-92140533D01*
X92746310Y-92140533D02*
X92698691Y-92283390D01*
X92698691Y-92283390D02*
X92127263Y-92854819D01*
X92127263Y-92854819D02*
X92746310Y-92854819D01*
D13*
X88004406Y-117750000D02*
X88004406Y-116640000D01*
X88004406Y-116640000D02*
X89334406Y-116640000D01*
X116064406Y-97210000D02*
X116064406Y-95940000D01*
X116064406Y-95940000D02*
X117334406Y-95940000D01*
X92356906Y-114012742D02*
X92356906Y-114487258D01*
X91311906Y-114012742D02*
X91311906Y-114487258D01*
X103576906Y-96785000D02*
X103336906Y-96455000D01*
X103816906Y-96455000D01*
X103576906Y-96785000D01*
G36*
X103576906Y-96785000D02*
G01*
X103336906Y-96455000D01*
X103816906Y-96455000D01*
X103576906Y-96785000D01*
G37*
X109809406Y-101975000D02*
X109809406Y-101715000D01*
X109809406Y-96525000D02*
X109809406Y-96785000D01*
X107084406Y-101975000D02*
X109809406Y-101975000D01*
X107084406Y-101975000D02*
X104359406Y-101975000D01*
X107084406Y-96525000D02*
X109809406Y-96525000D01*
X107084406Y-96525000D02*
X104359406Y-96525000D01*
X104359406Y-101975000D02*
X104359406Y-101715000D01*
X104359406Y-96525000D02*
X104359406Y-96785000D01*
X84984406Y-78615000D02*
X84744406Y-78285000D01*
X85224406Y-78285000D01*
X84984406Y-78615000D01*
G36*
X84984406Y-78615000D02*
G01*
X84744406Y-78285000D01*
X85224406Y-78285000D01*
X84984406Y-78615000D01*
G37*
X86284406Y-81685000D02*
X87084406Y-81685000D01*
X86284406Y-81685000D02*
X85484406Y-81685000D01*
X86284406Y-78565000D02*
X87084406Y-78565000D01*
X86284406Y-78565000D02*
X85484406Y-78565000D01*
X113344406Y-97859420D02*
X113344406Y-98140580D01*
X112324406Y-97859420D02*
X112324406Y-98140580D01*
X72834406Y-95350000D02*
G75*
G02*
X72134406Y-96050000I-700000J0D01*
G01*
X72134406Y-93250000D02*
G75*
G02*
X72834406Y-93950000I1J-699999D01*
G01*
X71534406Y-96050000D02*
G75*
G02*
X70834406Y-95350000I0J700000D01*
G01*
X70834406Y-93950000D02*
G75*
G02*
X71534406Y-93250000I699999J1D01*
G01*
X72834406Y-93950000D02*
X72834406Y-95350000D01*
X72134406Y-96050000D02*
X71534406Y-96050000D01*
X71534406Y-93250000D02*
X72134406Y-93250000D01*
X70834406Y-95350000D02*
X70834406Y-93950000D01*
X94447148Y-82722500D02*
X94921664Y-82722500D01*
X94447148Y-81677500D02*
X94921664Y-81677500D01*
X87994406Y-76665580D02*
X87994406Y-76384420D01*
X86974406Y-76665580D02*
X86974406Y-76384420D01*
X85184406Y-116100000D02*
X85184406Y-111190000D01*
X85144406Y-111190000D02*
X84124406Y-111190000D01*
X84124406Y-112790000D02*
X82844406Y-112790000D01*
X84124406Y-111190000D02*
X84124406Y-112790000D01*
X79324406Y-112790000D02*
X79324406Y-110350000D01*
X78744406Y-119010000D02*
X83424406Y-119010000D01*
X78044406Y-112790000D02*
X79324406Y-112790000D01*
X78044406Y-111190000D02*
X78044406Y-112790000D01*
X77024406Y-111190000D02*
X78044406Y-111190000D01*
X76984406Y-116100000D02*
X76984406Y-111190000D01*
X97356906Y-114012742D02*
X97356906Y-114487258D01*
X96311906Y-114012742D02*
X96311906Y-114487258D01*
X103311906Y-108787742D02*
X103311906Y-109262258D01*
X104356906Y-108787742D02*
X104356906Y-109262258D01*
X85694406Y-76665580D02*
X85694406Y-76384420D01*
X84674406Y-76665580D02*
X84674406Y-76384420D01*
X99856906Y-114012742D02*
X99856906Y-114487258D01*
X98811906Y-114012742D02*
X98811906Y-114487258D01*
X86618826Y-93260000D02*
X86899986Y-93260000D01*
X86618826Y-92240000D02*
X86899986Y-92240000D01*
X84749406Y-94940000D02*
X84419406Y-94700000D01*
X84749406Y-94460000D01*
X84749406Y-94940000D01*
G36*
X84749406Y-94940000D02*
G01*
X84419406Y-94700000D01*
X84749406Y-94460000D01*
X84749406Y-94940000D01*
G37*
X84514406Y-97400000D02*
X84514406Y-99350000D01*
X84514406Y-97400000D02*
X84514406Y-95450000D01*
X79394406Y-97400000D02*
X79394406Y-99350000D01*
X79394406Y-97400000D02*
X79394406Y-95450000D01*
X113484406Y-108550000D02*
G75*
G02*
X112784406Y-109250000I-699999J-1D01*
G01*
X112784406Y-107250000D02*
G75*
G02*
X113484406Y-107950000I1J-699999D01*
G01*
X111384406Y-109250000D02*
G75*
G02*
X110684406Y-108550000I0J700000D01*
G01*
X110684406Y-107950000D02*
G75*
G02*
X111384406Y-107250000I700000J0D01*
G01*
X113484406Y-107950000D02*
X113484406Y-108550000D01*
X112784406Y-109250000D02*
X111384406Y-109250000D01*
X111384406Y-107250000D02*
X112784406Y-107250000D01*
X110684406Y-108550000D02*
X110684406Y-107950000D01*
X87819406Y-106110000D02*
X87819406Y-105960000D01*
X87819406Y-106110000D02*
X83299406Y-106110000D01*
X87819406Y-101590000D02*
X87819406Y-101740000D01*
X87819406Y-101590000D02*
X83299406Y-101590000D01*
X83299406Y-106110000D02*
X83299406Y-105960000D01*
X83299406Y-101590000D02*
X83299406Y-101740000D01*
X115106906Y-98237258D02*
X115106906Y-97762742D01*
X114061906Y-98237258D02*
X114061906Y-97762742D01*
X106131906Y-105324758D02*
X106131906Y-104850242D01*
X105086906Y-105324758D02*
X105086906Y-104850242D01*
X94447148Y-87822500D02*
X94921664Y-87822500D01*
X94447148Y-86777500D02*
X94921664Y-86777500D01*
X80699986Y-104560000D02*
X80418826Y-104560000D01*
X80699986Y-103540000D02*
X80418826Y-103540000D01*
X94856906Y-114012742D02*
X94856906Y-114487258D01*
X93811906Y-114012742D02*
X93811906Y-114487258D01*
X101311906Y-109237258D02*
X101311906Y-108762742D01*
X102356906Y-109237258D02*
X102356906Y-108762742D01*
X94447148Y-80222500D02*
X94921664Y-80222500D01*
X94447148Y-79177500D02*
X94921664Y-79177500D01*
X86284406Y-108000000D02*
G75*
G02*
X85584406Y-108700000I-700000J0D01*
G01*
X85584406Y-106700000D02*
G75*
G02*
X86284406Y-107400000I0J-700000D01*
G01*
X84184406Y-108700000D02*
G75*
G02*
X83484406Y-108000000I-1J699999D01*
G01*
X83484406Y-107400000D02*
G75*
G02*
X84184406Y-106700000I699999J1D01*
G01*
X86284406Y-107400000D02*
X86284406Y-108000000D01*
X85584406Y-108700000D02*
X84184406Y-108700000D01*
X84184406Y-106700000D02*
X85584406Y-106700000D01*
X83484406Y-108000000D02*
X83484406Y-107400000D01*
X74996664Y-94272500D02*
X74522148Y-94272500D01*
X74996664Y-93227500D02*
X74522148Y-93227500D01*
X72544406Y-90685000D02*
X72544406Y-88000000D01*
X70624406Y-90685000D02*
X72544406Y-90685000D01*
X70624406Y-88000000D02*
X70624406Y-90685000D01*
X80699986Y-106260000D02*
X80418826Y-106260000D01*
X80699986Y-105240000D02*
X80418826Y-105240000D01*
X78324406Y-81380000D02*
X77994406Y-81620000D01*
X77994406Y-81140000D01*
X78324406Y-81380000D01*
G36*
X78324406Y-81380000D02*
G01*
X77994406Y-81620000D01*
X77994406Y-81140000D01*
X78324406Y-81380000D01*
G37*
X80594406Y-81000000D02*
X80594406Y-79600000D01*
X78274406Y-81010000D02*
X78274406Y-79600000D01*
X82356906Y-81862742D02*
X82356906Y-82337258D01*
X81311906Y-81862742D02*
X81311906Y-82337258D01*
X81299406Y-78540000D02*
X80819406Y-78540000D01*
X81059406Y-78210000D01*
X81299406Y-78540000D01*
G36*
X81299406Y-78540000D02*
G01*
X80819406Y-78540000D01*
X81059406Y-78210000D01*
X81299406Y-78540000D01*
G37*
X79896906Y-78260000D02*
X80546906Y-78260000D01*
X79896906Y-78260000D02*
X79246906Y-78260000D01*
X79896906Y-75140000D02*
X80546906Y-75140000D01*
X79896906Y-75140000D02*
X79246906Y-75140000D01*
X80699986Y-102860000D02*
X80418826Y-102860000D01*
X80699986Y-101840000D02*
X80418826Y-101840000D01*
X94447148Y-85322500D02*
X94921664Y-85322500D01*
X94447148Y-84277500D02*
X94921664Y-84277500D01*
X104674406Y-104377500D02*
X104344406Y-104137500D01*
X104674406Y-103897500D01*
X104674406Y-104377500D01*
G36*
X104674406Y-104377500D02*
G01*
X104344406Y-104137500D01*
X104674406Y-103897500D01*
X104674406Y-104377500D01*
G37*
X104394406Y-105300000D02*
X104394406Y-105950000D01*
X104394406Y-105300000D02*
X104394406Y-104650000D01*
X101274406Y-105300000D02*
X101274406Y-105950000D01*
X101274406Y-105300000D02*
X101274406Y-104650000D01*
X113484406Y-105800000D02*
G75*
G02*
X112784406Y-106500000I-699999J-1D01*
G01*
X112784406Y-104500000D02*
G75*
G02*
X113484406Y-105200000I1J-699999D01*
G01*
X111384406Y-106500000D02*
G75*
G02*
X110684406Y-105800000I0J700000D01*
G01*
X110684406Y-105200000D02*
G75*
G02*
X111384406Y-104500000I700000J0D01*
G01*
X113484406Y-105200000D02*
X113484406Y-105800000D01*
X112784406Y-106500000D02*
X111384406Y-106500000D01*
X111384406Y-104500000D02*
X112784406Y-104500000D01*
X110684406Y-105800000D02*
X110684406Y-105200000D01*
X85021906Y-90097500D02*
X84234406Y-90097500D01*
X84628156Y-90491250D02*
X84628156Y-89703750D01*
X83994406Y-90595563D02*
X83994406Y-89310000D01*
X83994406Y-90595563D02*
X82929969Y-91660000D01*
X83994406Y-85904437D02*
X83994406Y-87190000D01*
X83994406Y-85904437D02*
X82929969Y-84840000D01*
X82929969Y-91660000D02*
X77174406Y-91660000D01*
X82929969Y-84840000D02*
X77174406Y-84840000D01*
X77174406Y-91660000D02*
X77174406Y-89310000D01*
X77174406Y-84840000D02*
X77174406Y-87190000D01*
X107606906Y-114012742D02*
X107606906Y-114487258D01*
X106561906Y-114012742D02*
X106561906Y-114487258D01*
X74944406Y-90685000D02*
X74944406Y-88000000D01*
X73024406Y-90685000D02*
X74944406Y-90685000D01*
X73024406Y-88000000D02*
X73024406Y-90685000D01*
X78569406Y-95312779D02*
X78569406Y-94987221D01*
X77549406Y-95312779D02*
X77549406Y-94987221D01*
X105106906Y-114012742D02*
X105106906Y-114487258D01*
X104061906Y-114012742D02*
X104061906Y-114487258D01*
X79197148Y-83422500D02*
X79671664Y-83422500D01*
X79197148Y-82377500D02*
X79671664Y-82377500D01*
X102606906Y-114012742D02*
X102606906Y-114487258D01*
X101561906Y-114012742D02*
X101561906Y-114487258D01*
X76999986Y-100660000D02*
X76718826Y-100660000D01*
X76999986Y-99640000D02*
X76718826Y-99640000D01*
D14*
X94284406Y-106500000D02*
X92284406Y-105500000D01*
X94284406Y-104500000D01*
X94284406Y-106500000D01*
G36*
X94284406Y-106500000D02*
G01*
X92284406Y-105500000D01*
X94284406Y-104500000D01*
X94284406Y-106500000D01*
G37*
D11*
X100084406Y-103500000D02*
X100084406Y-107500000D01*
X97584406Y-110000000D02*
X93584406Y-110000000D01*
X93584406Y-101000000D02*
X97584406Y-101000000D01*
X91084406Y-107500000D02*
X91084406Y-103500000D01*
D13*
X77096664Y-98772500D02*
X76622148Y-98772500D01*
X77096664Y-97727500D02*
X76622148Y-97727500D01*
X72984406Y-86100000D02*
X70684406Y-86100000D01*
X72984406Y-84900000D02*
X72984406Y-86100000D01*
X72984406Y-83100000D02*
X72984406Y-82400000D01*
X72984406Y-80600000D02*
X72984406Y-79900000D01*
X72984406Y-76900000D02*
X72984406Y-78100000D01*
X70684406Y-76900000D02*
X72984406Y-76900000D01*
X110106906Y-114012742D02*
X110106906Y-114487258D01*
X109061906Y-114012742D02*
X109061906Y-114487258D01*
D14*
X95846906Y-72000000D02*
X93846906Y-73250000D01*
X93846906Y-70750000D01*
X95846906Y-72000000D01*
G36*
X95846906Y-72000000D02*
G01*
X93846906Y-73250000D01*
X93846906Y-70750000D01*
X95846906Y-72000000D01*
G37*
D10*
X112346906Y-70500000D02*
X116596906Y-70500000D01*
X98596906Y-94250000D02*
X116596906Y-94250000D01*
X98596906Y-70500000D02*
X102846906Y-70500000D01*
D13*
X74522148Y-96072500D02*
X74996664Y-96072500D01*
X74522148Y-95027500D02*
X74996664Y-95027500D01*
X94447148Y-90422500D02*
X94921664Y-90422500D01*
X94447148Y-89377500D02*
X94921664Y-89377500D01*
X88609406Y-93940000D02*
X88609406Y-99450000D01*
X88609406Y-93940000D02*
X85309406Y-93940000D01*
X85309406Y-93940000D02*
X85309406Y-99450000D01*
X94447148Y-92922500D02*
X94921664Y-92922500D01*
X94447148Y-91877500D02*
X94921664Y-91877500D01*
%LPC*%
D15*
X112194406Y-117750000D03*
X109654406Y-117750000D03*
X107114406Y-117750000D03*
X104574406Y-117750000D03*
X102034406Y-117750000D03*
X99494406Y-117750000D03*
X96954406Y-117750000D03*
X94414406Y-117750000D03*
X91874406Y-117750000D03*
D16*
X89334406Y-117750000D03*
D15*
X117334406Y-112450000D03*
X117334406Y-109910000D03*
X117334406Y-107370000D03*
X117334406Y-104830000D03*
X117334406Y-102290000D03*
X117334406Y-99750000D03*
D16*
X117334406Y-97210000D03*
D17*
X91834406Y-115075000D03*
X91834406Y-113425000D03*
D18*
X110684406Y-97345000D03*
X110684406Y-98615000D03*
X110684406Y-99885000D03*
X110684406Y-101155000D03*
X103484406Y-101155000D03*
X103484406Y-99885000D03*
X103484406Y-98615000D03*
X103484406Y-97345000D03*
D19*
X87421906Y-79175000D03*
X87421906Y-81075000D03*
X85146906Y-81075000D03*
X85146906Y-80125000D03*
X85146906Y-79175000D03*
D20*
X112834406Y-98775000D03*
X112834406Y-97225000D03*
D21*
X72084406Y-117500000D03*
D22*
X71834406Y-95300000D03*
D23*
X71834406Y-94000000D03*
D24*
X95509406Y-82200000D03*
X93859406Y-82200000D03*
D25*
X87484406Y-75750000D03*
X87484406Y-77300000D03*
D26*
X84334406Y-117750000D03*
X77834406Y-117750000D03*
D27*
X82084406Y-111400000D03*
X80084406Y-111400000D03*
D17*
X96834406Y-115075000D03*
X96834406Y-113425000D03*
X103834406Y-109850000D03*
X103834406Y-108200000D03*
D25*
X85184406Y-75750000D03*
X85184406Y-77300000D03*
D17*
X99334406Y-115075000D03*
X99334406Y-113425000D03*
D28*
X87534406Y-92750000D03*
X85984406Y-92750000D03*
D29*
X81954406Y-97400000D03*
D30*
X83859406Y-100050000D03*
X82589406Y-100050000D03*
X81319406Y-100050000D03*
X80049406Y-100050000D03*
X80049406Y-94750000D03*
X81319406Y-94750000D03*
X82589406Y-94750000D03*
X83859406Y-94750000D03*
D31*
X111434406Y-108250000D03*
D32*
X112734406Y-108250000D03*
D33*
X84059406Y-103850000D03*
X87059406Y-103850000D03*
D34*
X114584406Y-97175000D03*
X114584406Y-98825000D03*
X105609406Y-104262500D03*
X105609406Y-105912500D03*
D24*
X95509406Y-87300000D03*
X93859406Y-87300000D03*
D35*
X79784406Y-104050000D03*
X81334406Y-104050000D03*
D17*
X94334406Y-115075000D03*
X94334406Y-113425000D03*
D34*
X101834406Y-108175000D03*
X101834406Y-109825000D03*
D24*
X95509406Y-79700000D03*
X93859406Y-79700000D03*
D36*
X85534406Y-107700000D03*
D37*
X84234406Y-107700000D03*
D38*
X73934406Y-93750000D03*
X75584406Y-93750000D03*
D39*
X71584406Y-88062500D03*
X71584406Y-89937500D03*
D35*
X79784406Y-105750000D03*
X81334406Y-105750000D03*
D40*
X78784406Y-79350000D03*
X79434406Y-79350000D03*
X80084406Y-79350000D03*
X80084406Y-81250000D03*
X79434406Y-81250000D03*
X78784406Y-81250000D03*
D17*
X81834406Y-82925000D03*
X81834406Y-81275000D03*
D41*
X78959406Y-76700000D03*
X80834406Y-75750000D03*
X80834406Y-77650000D03*
D35*
X79784406Y-102350000D03*
X81334406Y-102350000D03*
D24*
X95509406Y-84800000D03*
X93859406Y-84800000D03*
D21*
X72084406Y-72500000D03*
D42*
X102834406Y-106237500D03*
X101884406Y-104362500D03*
X103784406Y-104362500D03*
D31*
X111434406Y-105500000D03*
D32*
X112734406Y-105500000D03*
D43*
X77784406Y-88250000D03*
X83384406Y-88250000D03*
D17*
X107084406Y-115075000D03*
X107084406Y-113425000D03*
D39*
X73984406Y-88062500D03*
X73984406Y-89937500D03*
D44*
X78059406Y-94362500D03*
X78059406Y-95937500D03*
D17*
X104584406Y-115075000D03*
X104584406Y-113425000D03*
D24*
X80259406Y-82900000D03*
X78609406Y-82900000D03*
D17*
X102084406Y-115075000D03*
X102084406Y-113425000D03*
D35*
X76084406Y-100150000D03*
X77634406Y-100150000D03*
D45*
X92034406Y-109050000D03*
X92034406Y-101950000D03*
X99134406Y-101950000D03*
X99134406Y-109050000D03*
D38*
X76034406Y-98250000D03*
X77684406Y-98250000D03*
D46*
X73834406Y-84000000D03*
X73834406Y-81500000D03*
X73834406Y-79000000D03*
D47*
X71084406Y-84900000D03*
X71084406Y-78100000D03*
D17*
X109584406Y-115075000D03*
X109584406Y-113425000D03*
D48*
X116266906Y-72090000D03*
X116266906Y-74630000D03*
X116266906Y-77170000D03*
X116266906Y-79710000D03*
X116266906Y-82250000D03*
X116266906Y-84790000D03*
X116266906Y-87330000D03*
X116266906Y-89870000D03*
X116266906Y-92410000D03*
D49*
X98926906Y-92410000D03*
X98926906Y-89870000D03*
X98926906Y-87330000D03*
X98926906Y-84790000D03*
X98926906Y-82250000D03*
X98926906Y-79710000D03*
X98926906Y-77170000D03*
X98926906Y-74630000D03*
X98926906Y-72090000D03*
D21*
X117084406Y-117500000D03*
D24*
X75584406Y-95550000D03*
X73934406Y-95550000D03*
X95509406Y-89900000D03*
X93859406Y-89900000D03*
D50*
X86959406Y-99450000D03*
X86959406Y-95450000D03*
D24*
X95509406Y-92400000D03*
X93859406Y-92400000D03*
%LPD*%
M02*
