G04 #@! TF.GenerationSoftware,KiCad,Pcbnew,8.0.3*
G04 #@! TF.CreationDate,2024-06-08T17:14:38+02:00*
G04 #@! TF.ProjectId,chip8-pcb,63686970-382d-4706-9362-2e6b69636164,1*
G04 #@! TF.SameCoordinates,Original*
G04 #@! TF.FileFunction,Copper,L3,Inr*
G04 #@! TF.FilePolarity,Positive*
%FSLAX46Y46*%
G04 Gerber Fmt 4.6, Leading zero omitted, Abs format (unit mm)*
G04 Created by KiCad (PCBNEW 8.0.3) date 2024-06-08 17:14:38*
%MOMM*%
%LPD*%
G01*
G04 APERTURE LIST*
G04 Aperture macros list*
%AMRoundRect*
0 Rectangle with rounded corners*
0 $1 Rounding radius*
0 $2 $3 $4 $5 $6 $7 $8 $9 X,Y pos of 4 corners*
0 Add a 4 corners polygon primitive as box body*
4,1,4,$2,$3,$4,$5,$6,$7,$8,$9,$2,$3,0*
0 Add four circle primitives for the rounded corners*
1,1,$1+$1,$2,$3*
1,1,$1+$1,$4,$5*
1,1,$1+$1,$6,$7*
1,1,$1+$1,$8,$9*
0 Add four rect primitives between the rounded corners*
20,1,$1+$1,$2,$3,$4,$5,0*
20,1,$1+$1,$4,$5,$6,$7,0*
20,1,$1+$1,$6,$7,$8,$9,0*
20,1,$1+$1,$8,$9,$2,$3,0*%
G04 Aperture macros list end*
G04 #@! TA.AperFunction,ComponentPad*
%ADD10R,1.700000X1.700000*%
G04 #@! TD*
G04 #@! TA.AperFunction,ComponentPad*
%ADD11O,1.700000X1.700000*%
G04 #@! TD*
G04 #@! TA.AperFunction,HeatsinkPad*
%ADD12C,0.500000*%
G04 #@! TD*
G04 #@! TA.AperFunction,ComponentPad*
%ADD13RoundRect,0.600000X1.150000X0.150000X-1.150000X0.150000X-1.150000X-0.150000X1.150000X-0.150000X0*%
G04 #@! TD*
G04 #@! TA.AperFunction,ComponentPad*
%ADD14RoundRect,0.600000X-1.150000X-0.150000X1.150000X-0.150000X1.150000X0.150000X-1.150000X0.150000X0*%
G04 #@! TD*
G04 #@! TA.AperFunction,ViaPad*
%ADD15C,0.600000*%
G04 #@! TD*
G04 #@! TA.AperFunction,ViaPad*
%ADD16C,1.000000*%
G04 #@! TD*
G04 #@! TA.AperFunction,ViaPad*
%ADD17C,0.500000*%
G04 #@! TD*
G04 APERTURE END LIST*
D10*
X68500000Y-162375000D03*
D11*
X71040000Y-162375000D03*
X73580000Y-162375000D03*
X76120000Y-162375000D03*
X78660000Y-162375000D03*
X81200000Y-162375000D03*
X83740000Y-162375000D03*
X86280000Y-162375000D03*
X88820000Y-162375000D03*
X91360000Y-162375000D03*
D12*
X100300000Y-81155000D03*
X100300000Y-79805000D03*
X100300000Y-78455000D03*
X98400000Y-81155000D03*
X98400000Y-79805000D03*
X98400000Y-78455000D03*
D10*
X59075000Y-64580000D03*
D11*
X59075000Y-67120000D03*
X59075000Y-69660000D03*
X59075000Y-72200000D03*
X59075000Y-74740000D03*
X59075000Y-77280000D03*
X59075000Y-79820000D03*
D13*
X88670000Y-47090000D03*
X88670000Y-49630000D03*
X88670000Y-52170000D03*
X88670000Y-54710000D03*
X88670000Y-57250000D03*
X88670000Y-59790000D03*
X88670000Y-62330000D03*
X88670000Y-64870000D03*
X88670000Y-67410000D03*
D14*
X71330000Y-67410000D03*
X71330000Y-64870000D03*
X71330000Y-62330000D03*
X71330000Y-59790000D03*
X71330000Y-57250000D03*
X71330000Y-54710000D03*
X71330000Y-52170000D03*
X71330000Y-49630000D03*
X71330000Y-47090000D03*
D15*
X61600000Y-71600000D03*
X61600000Y-79235000D03*
X61600000Y-72500000D03*
X61600000Y-80505000D03*
X61000000Y-71000000D03*
X77000000Y-77600000D03*
X77000000Y-71554000D03*
X76200000Y-76700000D03*
X76200000Y-71400000D03*
D16*
X74900000Y-81795000D03*
X74900000Y-83095000D03*
X64762500Y-74800000D03*
X63462500Y-74800000D03*
X69162500Y-74800000D03*
X70662500Y-74800000D03*
D15*
X79560000Y-79265000D03*
X62950000Y-78000000D03*
D16*
X102500000Y-72100000D03*
X113000000Y-77500000D03*
X96500000Y-93000000D03*
X113000000Y-75500000D03*
X88700000Y-89600000D03*
X66500000Y-85700000D03*
X91250000Y-85000000D03*
X109000000Y-77500000D03*
X99700000Y-72100000D03*
X99700000Y-70700000D03*
X111000000Y-77500000D03*
X95000000Y-91500000D03*
X92750000Y-83500000D03*
X102500000Y-70700000D03*
X101100000Y-72100000D03*
X111000000Y-75500000D03*
X92750000Y-85000000D03*
X109000000Y-75500000D03*
X94250000Y-85000000D03*
X101100000Y-70700000D03*
X94250000Y-83500000D03*
X66500000Y-87000000D03*
X91250000Y-83500000D03*
X96500000Y-91500000D03*
X69100000Y-92400000D03*
X67900000Y-92400000D03*
D15*
X56300000Y-61300000D03*
X114900000Y-84875000D03*
X114550000Y-81500000D03*
X113900000Y-82100000D03*
X64400000Y-49500000D03*
X64400000Y-52200000D03*
X64400000Y-57200000D03*
X64400000Y-62200000D03*
X64400000Y-54600000D03*
X64400000Y-47000000D03*
X64400000Y-59800000D03*
X64400000Y-64800000D03*
D17*
X63600000Y-88550000D03*
X64400000Y-67400000D03*
D15*
X108300000Y-70900000D03*
X108100000Y-68500000D03*
X100300000Y-86200000D03*
X103102891Y-81089709D03*
X113800000Y-71000000D03*
X104400000Y-70400000D03*
G04 #@! TA.AperFunction,Conductor*
G36*
X115002702Y-45500617D02*
G01*
X115386771Y-45517386D01*
X115397506Y-45518326D01*
X115775971Y-45568152D01*
X115786597Y-45570025D01*
X116159284Y-45652648D01*
X116169710Y-45655442D01*
X116533765Y-45770227D01*
X116543911Y-45773920D01*
X116896578Y-45920000D01*
X116906369Y-45924566D01*
X117244942Y-46100816D01*
X117254310Y-46106224D01*
X117576244Y-46311318D01*
X117585105Y-46317523D01*
X117887930Y-46549889D01*
X117896217Y-46556843D01*
X118177635Y-46814715D01*
X118185284Y-46822364D01*
X118443156Y-47103782D01*
X118450110Y-47112069D01*
X118682476Y-47414894D01*
X118688681Y-47423755D01*
X118893775Y-47745689D01*
X118899183Y-47755057D01*
X119075430Y-48093623D01*
X119080002Y-48103427D01*
X119226075Y-48456078D01*
X119229775Y-48466244D01*
X119344554Y-48830278D01*
X119347354Y-48840727D01*
X119429971Y-49213389D01*
X119431849Y-49224042D01*
X119481671Y-49602473D01*
X119482614Y-49613249D01*
X119499382Y-49997297D01*
X119499500Y-50002706D01*
X119499500Y-164997293D01*
X119499382Y-165002702D01*
X119482614Y-165386750D01*
X119481671Y-165397526D01*
X119431849Y-165775957D01*
X119429971Y-165786610D01*
X119347354Y-166159272D01*
X119344554Y-166169721D01*
X119229775Y-166533755D01*
X119226075Y-166543921D01*
X119080002Y-166896572D01*
X119075430Y-166906376D01*
X118899183Y-167244942D01*
X118893775Y-167254310D01*
X118688681Y-167576244D01*
X118682476Y-167585105D01*
X118450110Y-167887930D01*
X118443156Y-167896217D01*
X118185284Y-168177635D01*
X118177635Y-168185284D01*
X117896217Y-168443156D01*
X117887930Y-168450110D01*
X117585105Y-168682476D01*
X117576244Y-168688681D01*
X117254310Y-168893775D01*
X117244942Y-168899183D01*
X116906376Y-169075430D01*
X116896572Y-169080002D01*
X116543921Y-169226075D01*
X116533755Y-169229775D01*
X116169721Y-169344554D01*
X116159272Y-169347354D01*
X115786610Y-169429971D01*
X115775957Y-169431849D01*
X115397526Y-169481671D01*
X115386750Y-169482614D01*
X115002703Y-169499382D01*
X114997294Y-169499500D01*
X45002706Y-169499500D01*
X44997297Y-169499382D01*
X44613249Y-169482614D01*
X44602473Y-169481671D01*
X44224042Y-169431849D01*
X44213389Y-169429971D01*
X43840727Y-169347354D01*
X43830278Y-169344554D01*
X43466244Y-169229775D01*
X43456078Y-169226075D01*
X43103427Y-169080002D01*
X43093623Y-169075430D01*
X42755057Y-168899183D01*
X42745689Y-168893775D01*
X42423755Y-168688681D01*
X42414894Y-168682476D01*
X42112069Y-168450110D01*
X42103782Y-168443156D01*
X41822364Y-168185284D01*
X41814715Y-168177635D01*
X41556843Y-167896217D01*
X41549889Y-167887930D01*
X41317523Y-167585105D01*
X41311318Y-167576244D01*
X41106224Y-167254310D01*
X41100816Y-167244942D01*
X40924569Y-166906376D01*
X40919997Y-166896572D01*
X40781036Y-166561090D01*
X40773920Y-166543911D01*
X40770224Y-166533755D01*
X40655442Y-166169710D01*
X40652648Y-166159284D01*
X40570025Y-165786597D01*
X40568152Y-165775971D01*
X40518326Y-165397506D01*
X40517386Y-165386771D01*
X40500618Y-165002702D01*
X40500500Y-164997293D01*
X40500500Y-164874038D01*
X43399500Y-164874038D01*
X43399500Y-165125962D01*
X43438910Y-165374785D01*
X43516760Y-165614383D01*
X43631132Y-165838848D01*
X43779201Y-166042649D01*
X43779205Y-166042654D01*
X43957345Y-166220794D01*
X43957350Y-166220798D01*
X44135117Y-166349952D01*
X44161155Y-166368870D01*
X44304184Y-166441747D01*
X44385616Y-166483239D01*
X44385618Y-166483239D01*
X44385621Y-166483241D01*
X44625215Y-166561090D01*
X44874038Y-166600500D01*
X44874039Y-166600500D01*
X45125961Y-166600500D01*
X45125962Y-166600500D01*
X45374785Y-166561090D01*
X45614379Y-166483241D01*
X45838845Y-166368870D01*
X46042656Y-166220793D01*
X46220793Y-166042656D01*
X46368870Y-165838845D01*
X46483241Y-165614379D01*
X46561090Y-165374785D01*
X46600500Y-165125962D01*
X46600500Y-164874038D01*
X113399500Y-164874038D01*
X113399500Y-165125962D01*
X113438910Y-165374785D01*
X113516760Y-165614383D01*
X113631132Y-165838848D01*
X113779201Y-166042649D01*
X113779205Y-166042654D01*
X113957345Y-166220794D01*
X113957350Y-166220798D01*
X114135117Y-166349952D01*
X114161155Y-166368870D01*
X114304184Y-166441747D01*
X114385616Y-166483239D01*
X114385618Y-166483239D01*
X114385621Y-166483241D01*
X114625215Y-166561090D01*
X114874038Y-166600500D01*
X114874039Y-166600500D01*
X115125961Y-166600500D01*
X115125962Y-166600500D01*
X115374785Y-166561090D01*
X115614379Y-166483241D01*
X115838845Y-166368870D01*
X116042656Y-166220793D01*
X116220793Y-166042656D01*
X116368870Y-165838845D01*
X116483241Y-165614379D01*
X116561090Y-165374785D01*
X116600500Y-165125962D01*
X116600500Y-164874038D01*
X116561090Y-164625215D01*
X116483241Y-164385621D01*
X116483239Y-164385618D01*
X116483239Y-164385616D01*
X116441747Y-164304184D01*
X116368870Y-164161155D01*
X116349952Y-164135117D01*
X116220798Y-163957350D01*
X116220794Y-163957345D01*
X116042654Y-163779205D01*
X116042649Y-163779201D01*
X115838848Y-163631132D01*
X115838847Y-163631131D01*
X115838845Y-163631130D01*
X115768747Y-163595413D01*
X115614383Y-163516760D01*
X115374785Y-163438910D01*
X115369178Y-163438022D01*
X115125962Y-163399500D01*
X114874038Y-163399500D01*
X114749626Y-163419205D01*
X114625214Y-163438910D01*
X114385616Y-163516760D01*
X114161151Y-163631132D01*
X113957350Y-163779201D01*
X113957345Y-163779205D01*
X113779205Y-163957345D01*
X113779201Y-163957350D01*
X113631132Y-164161151D01*
X113516760Y-164385616D01*
X113438910Y-164625214D01*
X113438910Y-164625215D01*
X113399500Y-164874038D01*
X46600500Y-164874038D01*
X46561090Y-164625215D01*
X46483241Y-164385621D01*
X46483239Y-164385618D01*
X46483239Y-164385616D01*
X46441747Y-164304184D01*
X46368870Y-164161155D01*
X46349952Y-164135117D01*
X46220798Y-163957350D01*
X46220794Y-163957345D01*
X46042654Y-163779205D01*
X46042649Y-163779201D01*
X45838848Y-163631132D01*
X45838847Y-163631131D01*
X45838845Y-163631130D01*
X45768747Y-163595413D01*
X45614383Y-163516760D01*
X45374785Y-163438910D01*
X45369178Y-163438022D01*
X45125962Y-163399500D01*
X44874038Y-163399500D01*
X44749626Y-163419205D01*
X44625214Y-163438910D01*
X44385616Y-163516760D01*
X44161151Y-163631132D01*
X43957350Y-163779201D01*
X43957345Y-163779205D01*
X43779205Y-163957345D01*
X43779201Y-163957350D01*
X43631132Y-164161151D01*
X43516760Y-164385616D01*
X43438910Y-164625214D01*
X43438910Y-164625215D01*
X43399500Y-164874038D01*
X40500500Y-164874038D01*
X40500500Y-161500321D01*
X67399500Y-161500321D01*
X67399500Y-163249678D01*
X67414032Y-163322735D01*
X67414033Y-163322739D01*
X67414034Y-163322740D01*
X67469399Y-163405601D01*
X67552260Y-163460966D01*
X67552264Y-163460967D01*
X67625321Y-163475499D01*
X67625324Y-163475500D01*
X67625326Y-163475500D01*
X69374676Y-163475500D01*
X69374677Y-163475499D01*
X69447740Y-163460966D01*
X69530601Y-163405601D01*
X69585966Y-163322740D01*
X69600500Y-163249674D01*
X69600500Y-162374999D01*
X69934785Y-162374999D01*
X69934785Y-162375000D01*
X69953602Y-162578082D01*
X70009417Y-162774247D01*
X70009422Y-162774260D01*
X70100327Y-162956821D01*
X70223237Y-163119581D01*
X70373958Y-163256980D01*
X70373960Y-163256982D01*
X70473141Y-163318392D01*
X70547363Y-163364348D01*
X70737544Y-163438024D01*
X70938024Y-163475500D01*
X70938026Y-163475500D01*
X71141974Y-163475500D01*
X71141976Y-163475500D01*
X71342456Y-163438024D01*
X71532637Y-163364348D01*
X71706041Y-163256981D01*
X71856764Y-163119579D01*
X71979673Y-162956821D01*
X72070582Y-162774250D01*
X72126397Y-162578083D01*
X72145215Y-162375000D01*
X72145215Y-162374999D01*
X72474785Y-162374999D01*
X72474785Y-162375000D01*
X72493602Y-162578082D01*
X72549417Y-162774247D01*
X72549422Y-162774260D01*
X72640327Y-162956821D01*
X72763237Y-163119581D01*
X72913958Y-163256980D01*
X72913960Y-163256982D01*
X73013141Y-163318392D01*
X73087363Y-163364348D01*
X73277544Y-163438024D01*
X73478024Y-163475500D01*
X73478026Y-163475500D01*
X73681974Y-163475500D01*
X73681976Y-163475500D01*
X73882456Y-163438024D01*
X74072637Y-163364348D01*
X74246041Y-163256981D01*
X74396764Y-163119579D01*
X74519673Y-162956821D01*
X74610582Y-162774250D01*
X74666397Y-162578083D01*
X74685215Y-162375000D01*
X74685215Y-162374999D01*
X75014785Y-162374999D01*
X75014785Y-162375000D01*
X75033602Y-162578082D01*
X75089417Y-162774247D01*
X75089422Y-162774260D01*
X75180327Y-162956821D01*
X75303237Y-163119581D01*
X75453958Y-163256980D01*
X75453960Y-163256982D01*
X75553141Y-163318392D01*
X75627363Y-163364348D01*
X75817544Y-163438024D01*
X76018024Y-163475500D01*
X76018026Y-163475500D01*
X76221974Y-163475500D01*
X76221976Y-163475500D01*
X76422456Y-163438024D01*
X76612637Y-163364348D01*
X76786041Y-163256981D01*
X76936764Y-163119579D01*
X77059673Y-162956821D01*
X77150582Y-162774250D01*
X77206397Y-162578083D01*
X77225215Y-162375000D01*
X77225215Y-162374999D01*
X77554785Y-162374999D01*
X77554785Y-162375000D01*
X77573602Y-162578082D01*
X77629417Y-162774247D01*
X77629422Y-162774260D01*
X77720327Y-162956821D01*
X77843237Y-163119581D01*
X77993958Y-163256980D01*
X77993960Y-163256982D01*
X78093141Y-163318392D01*
X78167363Y-163364348D01*
X78357544Y-163438024D01*
X78558024Y-163475500D01*
X78558026Y-163475500D01*
X78761974Y-163475500D01*
X78761976Y-163475500D01*
X78962456Y-163438024D01*
X79152637Y-163364348D01*
X79326041Y-163256981D01*
X79476764Y-163119579D01*
X79599673Y-162956821D01*
X79690582Y-162774250D01*
X79746397Y-162578083D01*
X79765215Y-162375000D01*
X79765215Y-162374999D01*
X80094785Y-162374999D01*
X80094785Y-162375000D01*
X80113602Y-162578082D01*
X80169417Y-162774247D01*
X80169422Y-162774260D01*
X80260327Y-162956821D01*
X80383237Y-163119581D01*
X80533958Y-163256980D01*
X80533960Y-163256982D01*
X80633141Y-163318392D01*
X80707363Y-163364348D01*
X80897544Y-163438024D01*
X81098024Y-163475500D01*
X81098026Y-163475500D01*
X81301974Y-163475500D01*
X81301976Y-163475500D01*
X81502456Y-163438024D01*
X81692637Y-163364348D01*
X81866041Y-163256981D01*
X82016764Y-163119579D01*
X82139673Y-162956821D01*
X82230582Y-162774250D01*
X82286397Y-162578083D01*
X82305215Y-162375000D01*
X82305215Y-162374999D01*
X82634785Y-162374999D01*
X82634785Y-162375000D01*
X82653602Y-162578082D01*
X82709417Y-162774247D01*
X82709422Y-162774260D01*
X82800327Y-162956821D01*
X82923237Y-163119581D01*
X83073958Y-163256980D01*
X83073960Y-163256982D01*
X83173141Y-163318392D01*
X83247363Y-163364348D01*
X83437544Y-163438024D01*
X83638024Y-163475500D01*
X83638026Y-163475500D01*
X83841974Y-163475500D01*
X83841976Y-163475500D01*
X84042456Y-163438024D01*
X84232637Y-163364348D01*
X84406041Y-163256981D01*
X84556764Y-163119579D01*
X84679673Y-162956821D01*
X84770582Y-162774250D01*
X84826397Y-162578083D01*
X84845215Y-162375000D01*
X84845215Y-162374999D01*
X85174785Y-162374999D01*
X85174785Y-162375000D01*
X85193602Y-162578082D01*
X85249417Y-162774247D01*
X85249422Y-162774260D01*
X85340327Y-162956821D01*
X85463237Y-163119581D01*
X85613958Y-163256980D01*
X85613960Y-163256982D01*
X85713141Y-163318392D01*
X85787363Y-163364348D01*
X85977544Y-163438024D01*
X86178024Y-163475500D01*
X86178026Y-163475500D01*
X86381974Y-163475500D01*
X86381976Y-163475500D01*
X86582456Y-163438024D01*
X86772637Y-163364348D01*
X86946041Y-163256981D01*
X87096764Y-163119579D01*
X87219673Y-162956821D01*
X87310582Y-162774250D01*
X87366397Y-162578083D01*
X87385215Y-162375000D01*
X87385215Y-162374999D01*
X87714785Y-162374999D01*
X87714785Y-162375000D01*
X87733602Y-162578082D01*
X87789417Y-162774247D01*
X87789422Y-162774260D01*
X87880327Y-162956821D01*
X88003237Y-163119581D01*
X88153958Y-163256980D01*
X88153960Y-163256982D01*
X88253141Y-163318392D01*
X88327363Y-163364348D01*
X88517544Y-163438024D01*
X88718024Y-163475500D01*
X88718026Y-163475500D01*
X88921974Y-163475500D01*
X88921976Y-163475500D01*
X89122456Y-163438024D01*
X89312637Y-163364348D01*
X89486041Y-163256981D01*
X89636764Y-163119579D01*
X89759673Y-162956821D01*
X89850582Y-162774250D01*
X89906397Y-162578083D01*
X89925215Y-162375000D01*
X89925215Y-162374999D01*
X90254785Y-162374999D01*
X90254785Y-162375000D01*
X90273602Y-162578082D01*
X90329417Y-162774247D01*
X90329422Y-162774260D01*
X90420327Y-162956821D01*
X90543237Y-163119581D01*
X90693958Y-163256980D01*
X90693960Y-163256982D01*
X90793141Y-163318392D01*
X90867363Y-163364348D01*
X91057544Y-163438024D01*
X91258024Y-163475500D01*
X91258026Y-163475500D01*
X91461974Y-163475500D01*
X91461976Y-163475500D01*
X91662456Y-163438024D01*
X91852637Y-163364348D01*
X92026041Y-163256981D01*
X92176764Y-163119579D01*
X92299673Y-162956821D01*
X92390582Y-162774250D01*
X92446397Y-162578083D01*
X92465215Y-162375000D01*
X92446397Y-162171917D01*
X92390582Y-161975750D01*
X92299673Y-161793179D01*
X92176764Y-161630421D01*
X92176762Y-161630418D01*
X92026041Y-161493019D01*
X92026039Y-161493017D01*
X91852642Y-161385655D01*
X91852635Y-161385651D01*
X91746150Y-161344399D01*
X91662456Y-161311976D01*
X91461976Y-161274500D01*
X91258024Y-161274500D01*
X91057544Y-161311976D01*
X91057541Y-161311976D01*
X91057541Y-161311977D01*
X90867364Y-161385651D01*
X90867357Y-161385655D01*
X90693960Y-161493017D01*
X90693958Y-161493019D01*
X90543237Y-161630418D01*
X90420327Y-161793178D01*
X90329422Y-161975739D01*
X90329417Y-161975752D01*
X90273602Y-162171917D01*
X90254785Y-162374999D01*
X89925215Y-162374999D01*
X89906397Y-162171917D01*
X89850582Y-161975750D01*
X89759673Y-161793179D01*
X89636764Y-161630421D01*
X89636762Y-161630418D01*
X89486041Y-161493019D01*
X89486039Y-161493017D01*
X89312642Y-161385655D01*
X89312635Y-161385651D01*
X89206150Y-161344399D01*
X89122456Y-161311976D01*
X88921976Y-161274500D01*
X88718024Y-161274500D01*
X88517544Y-161311976D01*
X88517541Y-161311976D01*
X88517541Y-161311977D01*
X88327364Y-161385651D01*
X88327357Y-161385655D01*
X88153960Y-161493017D01*
X88153958Y-161493019D01*
X88003237Y-161630418D01*
X87880327Y-161793178D01*
X87789422Y-161975739D01*
X87789417Y-161975752D01*
X87733602Y-162171917D01*
X87714785Y-162374999D01*
X87385215Y-162374999D01*
X87366397Y-162171917D01*
X87310582Y-161975750D01*
X87219673Y-161793179D01*
X87096764Y-161630421D01*
X87096762Y-161630418D01*
X86946041Y-161493019D01*
X86946039Y-161493017D01*
X86772642Y-161385655D01*
X86772635Y-161385651D01*
X86666150Y-161344399D01*
X86582456Y-161311976D01*
X86381976Y-161274500D01*
X86178024Y-161274500D01*
X85977544Y-161311976D01*
X85977541Y-161311976D01*
X85977541Y-161311977D01*
X85787364Y-161385651D01*
X85787357Y-161385655D01*
X85613960Y-161493017D01*
X85613958Y-161493019D01*
X85463237Y-161630418D01*
X85340327Y-161793178D01*
X85249422Y-161975739D01*
X85249417Y-161975752D01*
X85193602Y-162171917D01*
X85174785Y-162374999D01*
X84845215Y-162374999D01*
X84826397Y-162171917D01*
X84770582Y-161975750D01*
X84679673Y-161793179D01*
X84556764Y-161630421D01*
X84556762Y-161630418D01*
X84406041Y-161493019D01*
X84406039Y-161493017D01*
X84232642Y-161385655D01*
X84232635Y-161385651D01*
X84126150Y-161344399D01*
X84042456Y-161311976D01*
X83841976Y-161274500D01*
X83638024Y-161274500D01*
X83437544Y-161311976D01*
X83437541Y-161311976D01*
X83437541Y-161311977D01*
X83247364Y-161385651D01*
X83247357Y-161385655D01*
X83073960Y-161493017D01*
X83073958Y-161493019D01*
X82923237Y-161630418D01*
X82800327Y-161793178D01*
X82709422Y-161975739D01*
X82709417Y-161975752D01*
X82653602Y-162171917D01*
X82634785Y-162374999D01*
X82305215Y-162374999D01*
X82286397Y-162171917D01*
X82230582Y-161975750D01*
X82139673Y-161793179D01*
X82016764Y-161630421D01*
X82016762Y-161630418D01*
X81866041Y-161493019D01*
X81866039Y-161493017D01*
X81692642Y-161385655D01*
X81692635Y-161385651D01*
X81586150Y-161344399D01*
X81502456Y-161311976D01*
X81301976Y-161274500D01*
X81098024Y-161274500D01*
X80897544Y-161311976D01*
X80897541Y-161311976D01*
X80897541Y-161311977D01*
X80707364Y-161385651D01*
X80707357Y-161385655D01*
X80533960Y-161493017D01*
X80533958Y-161493019D01*
X80383237Y-161630418D01*
X80260327Y-161793178D01*
X80169422Y-161975739D01*
X80169417Y-161975752D01*
X80113602Y-162171917D01*
X80094785Y-162374999D01*
X79765215Y-162374999D01*
X79746397Y-162171917D01*
X79690582Y-161975750D01*
X79599673Y-161793179D01*
X79476764Y-161630421D01*
X79476762Y-161630418D01*
X79326041Y-161493019D01*
X79326039Y-161493017D01*
X79152642Y-161385655D01*
X79152635Y-161385651D01*
X79046150Y-161344399D01*
X78962456Y-161311976D01*
X78761976Y-161274500D01*
X78558024Y-161274500D01*
X78357544Y-161311976D01*
X78357541Y-161311976D01*
X78357541Y-161311977D01*
X78167364Y-161385651D01*
X78167357Y-161385655D01*
X77993960Y-161493017D01*
X77993958Y-161493019D01*
X77843237Y-161630418D01*
X77720327Y-161793178D01*
X77629422Y-161975739D01*
X77629417Y-161975752D01*
X77573602Y-162171917D01*
X77554785Y-162374999D01*
X77225215Y-162374999D01*
X77206397Y-162171917D01*
X77150582Y-161975750D01*
X77059673Y-161793179D01*
X76936764Y-161630421D01*
X76936762Y-161630418D01*
X76786041Y-161493019D01*
X76786039Y-161493017D01*
X76612642Y-161385655D01*
X76612635Y-161385651D01*
X76506150Y-161344399D01*
X76422456Y-161311976D01*
X76221976Y-161274500D01*
X76018024Y-161274500D01*
X75817544Y-161311976D01*
X75817541Y-161311976D01*
X75817541Y-161311977D01*
X75627364Y-161385651D01*
X75627357Y-161385655D01*
X75453960Y-161493017D01*
X75453958Y-161493019D01*
X75303237Y-161630418D01*
X75180327Y-161793178D01*
X75089422Y-161975739D01*
X75089417Y-161975752D01*
X75033602Y-162171917D01*
X75014785Y-162374999D01*
X74685215Y-162374999D01*
X74666397Y-162171917D01*
X74610582Y-161975750D01*
X74519673Y-161793179D01*
X74396764Y-161630421D01*
X74396762Y-161630418D01*
X74246041Y-161493019D01*
X74246039Y-161493017D01*
X74072642Y-161385655D01*
X74072635Y-161385651D01*
X73966150Y-161344399D01*
X73882456Y-161311976D01*
X73681976Y-161274500D01*
X73478024Y-161274500D01*
X73277544Y-161311976D01*
X73277541Y-161311976D01*
X73277541Y-161311977D01*
X73087364Y-161385651D01*
X73087357Y-161385655D01*
X72913960Y-161493017D01*
X72913958Y-161493019D01*
X72763237Y-161630418D01*
X72640327Y-161793178D01*
X72549422Y-161975739D01*
X72549417Y-161975752D01*
X72493602Y-162171917D01*
X72474785Y-162374999D01*
X72145215Y-162374999D01*
X72126397Y-162171917D01*
X72070582Y-161975750D01*
X71979673Y-161793179D01*
X71856764Y-161630421D01*
X71856762Y-161630418D01*
X71706041Y-161493019D01*
X71706039Y-161493017D01*
X71532642Y-161385655D01*
X71532635Y-161385651D01*
X71426150Y-161344399D01*
X71342456Y-161311976D01*
X71141976Y-161274500D01*
X70938024Y-161274500D01*
X70737544Y-161311976D01*
X70737541Y-161311976D01*
X70737541Y-161311977D01*
X70547364Y-161385651D01*
X70547357Y-161385655D01*
X70373960Y-161493017D01*
X70373958Y-161493019D01*
X70223237Y-161630418D01*
X70100327Y-161793178D01*
X70009422Y-161975739D01*
X70009417Y-161975752D01*
X69953602Y-162171917D01*
X69934785Y-162374999D01*
X69600500Y-162374999D01*
X69600500Y-161500326D01*
X69600500Y-161500323D01*
X69600499Y-161500321D01*
X69585967Y-161427264D01*
X69585966Y-161427260D01*
X69530601Y-161344399D01*
X69447740Y-161289034D01*
X69447739Y-161289033D01*
X69447735Y-161289032D01*
X69374677Y-161274500D01*
X69374674Y-161274500D01*
X67625326Y-161274500D01*
X67625323Y-161274500D01*
X67552264Y-161289032D01*
X67552260Y-161289033D01*
X67469399Y-161344399D01*
X67414033Y-161427260D01*
X67414032Y-161427264D01*
X67399500Y-161500321D01*
X40500500Y-161500321D01*
X40500500Y-157793713D01*
X47949500Y-157793713D01*
X47949500Y-158006286D01*
X47982753Y-158216239D01*
X48048444Y-158418414D01*
X48144951Y-158607820D01*
X48269890Y-158779786D01*
X48420213Y-158930109D01*
X48592179Y-159055048D01*
X48592181Y-159055049D01*
X48592184Y-159055051D01*
X48781588Y-159151557D01*
X48983757Y-159217246D01*
X49193713Y-159250500D01*
X49193714Y-159250500D01*
X49406286Y-159250500D01*
X49406287Y-159250500D01*
X49616243Y-159217246D01*
X49818412Y-159151557D01*
X50007816Y-159055051D01*
X50029789Y-159039086D01*
X50179786Y-158930109D01*
X50179788Y-158930106D01*
X50179792Y-158930104D01*
X50330104Y-158779792D01*
X50330106Y-158779788D01*
X50330109Y-158779786D01*
X50455048Y-158607820D01*
X50455047Y-158607820D01*
X50455051Y-158607816D01*
X50551557Y-158418412D01*
X50617246Y-158216243D01*
X50650500Y-158006287D01*
X50650500Y-157793713D01*
X109249500Y-157793713D01*
X109249500Y-158006286D01*
X109282753Y-158216239D01*
X109348444Y-158418414D01*
X109444951Y-158607820D01*
X109569890Y-158779786D01*
X109720213Y-158930109D01*
X109892179Y-159055048D01*
X109892181Y-159055049D01*
X109892184Y-159055051D01*
X110081588Y-159151557D01*
X110283757Y-159217246D01*
X110493713Y-159250500D01*
X110493714Y-159250500D01*
X110706286Y-159250500D01*
X110706287Y-159250500D01*
X110916243Y-159217246D01*
X111118412Y-159151557D01*
X111307816Y-159055051D01*
X111329789Y-159039086D01*
X111479786Y-158930109D01*
X111479788Y-158930106D01*
X111479792Y-158930104D01*
X111630104Y-158779792D01*
X111630106Y-158779788D01*
X111630109Y-158779786D01*
X111755048Y-158607820D01*
X111755047Y-158607820D01*
X111755051Y-158607816D01*
X111851557Y-158418412D01*
X111917246Y-158216243D01*
X111950500Y-158006287D01*
X111950500Y-157793713D01*
X111917246Y-157583757D01*
X111851557Y-157381588D01*
X111755051Y-157192184D01*
X111755049Y-157192181D01*
X111755048Y-157192179D01*
X111630109Y-157020213D01*
X111479786Y-156869890D01*
X111307820Y-156744951D01*
X111118414Y-156648444D01*
X111118413Y-156648443D01*
X111118412Y-156648443D01*
X110916243Y-156582754D01*
X110916241Y-156582753D01*
X110916240Y-156582753D01*
X110754957Y-156557208D01*
X110706287Y-156549500D01*
X110493713Y-156549500D01*
X110445042Y-156557208D01*
X110283760Y-156582753D01*
X110081585Y-156648444D01*
X109892179Y-156744951D01*
X109720213Y-156869890D01*
X109569890Y-157020213D01*
X109444951Y-157192179D01*
X109348444Y-157381585D01*
X109282753Y-157583760D01*
X109249500Y-157793713D01*
X50650500Y-157793713D01*
X50617246Y-157583757D01*
X50551557Y-157381588D01*
X50455051Y-157192184D01*
X50455049Y-157192181D01*
X50455048Y-157192179D01*
X50330109Y-157020213D01*
X50179786Y-156869890D01*
X50007820Y-156744951D01*
X49818414Y-156648444D01*
X49818413Y-156648443D01*
X49818412Y-156648443D01*
X49616243Y-156582754D01*
X49616241Y-156582753D01*
X49616240Y-156582753D01*
X49454957Y-156557208D01*
X49406287Y-156549500D01*
X49193713Y-156549500D01*
X49145042Y-156557208D01*
X48983760Y-156582753D01*
X48781585Y-156648444D01*
X48592179Y-156744951D01*
X48420213Y-156869890D01*
X48269890Y-157020213D01*
X48144951Y-157192179D01*
X48048444Y-157381585D01*
X47982753Y-157583760D01*
X47949500Y-157793713D01*
X40500500Y-157793713D01*
X40500500Y-97793713D01*
X47949500Y-97793713D01*
X47949500Y-98006286D01*
X47982753Y-98216239D01*
X48048444Y-98418414D01*
X48144951Y-98607820D01*
X48269890Y-98779786D01*
X48420213Y-98930109D01*
X48592179Y-99055048D01*
X48592181Y-99055049D01*
X48592184Y-99055051D01*
X48781588Y-99151557D01*
X48983757Y-99217246D01*
X49193713Y-99250500D01*
X49193714Y-99250500D01*
X49406286Y-99250500D01*
X49406287Y-99250500D01*
X49616243Y-99217246D01*
X49818412Y-99151557D01*
X50007816Y-99055051D01*
X50029789Y-99039086D01*
X50179786Y-98930109D01*
X50179788Y-98930106D01*
X50179792Y-98930104D01*
X50330104Y-98779792D01*
X50330106Y-98779788D01*
X50330109Y-98779786D01*
X50455048Y-98607820D01*
X50455047Y-98607820D01*
X50455051Y-98607816D01*
X50551557Y-98418412D01*
X50617246Y-98216243D01*
X50650500Y-98006287D01*
X50650500Y-97793713D01*
X109349500Y-97793713D01*
X109349500Y-98006286D01*
X109382753Y-98216239D01*
X109448444Y-98418414D01*
X109544951Y-98607820D01*
X109669890Y-98779786D01*
X109820213Y-98930109D01*
X109992179Y-99055048D01*
X109992181Y-99055049D01*
X109992184Y-99055051D01*
X110181588Y-99151557D01*
X110383757Y-99217246D01*
X110593713Y-99250500D01*
X110593714Y-99250500D01*
X110806286Y-99250500D01*
X110806287Y-99250500D01*
X111016243Y-99217246D01*
X111218412Y-99151557D01*
X111407816Y-99055051D01*
X111429789Y-99039086D01*
X111579786Y-98930109D01*
X111579788Y-98930106D01*
X111579792Y-98930104D01*
X111730104Y-98779792D01*
X111730106Y-98779788D01*
X111730109Y-98779786D01*
X111855048Y-98607820D01*
X111855047Y-98607820D01*
X111855051Y-98607816D01*
X111951557Y-98418412D01*
X112017246Y-98216243D01*
X112050500Y-98006287D01*
X112050500Y-97793713D01*
X112017246Y-97583757D01*
X111951557Y-97381588D01*
X111855051Y-97192184D01*
X111855049Y-97192181D01*
X111855048Y-97192179D01*
X111730109Y-97020213D01*
X111579786Y-96869890D01*
X111407820Y-96744951D01*
X111218414Y-96648444D01*
X111218413Y-96648443D01*
X111218412Y-96648443D01*
X111016243Y-96582754D01*
X111016241Y-96582753D01*
X111016240Y-96582753D01*
X110854957Y-96557208D01*
X110806287Y-96549500D01*
X110593713Y-96549500D01*
X110545042Y-96557208D01*
X110383760Y-96582753D01*
X110181585Y-96648444D01*
X109992179Y-96744951D01*
X109820213Y-96869890D01*
X109669890Y-97020213D01*
X109544951Y-97192179D01*
X109448444Y-97381585D01*
X109382753Y-97583760D01*
X109349500Y-97793713D01*
X50650500Y-97793713D01*
X50617246Y-97583757D01*
X50551557Y-97381588D01*
X50455051Y-97192184D01*
X50455049Y-97192181D01*
X50455048Y-97192179D01*
X50330109Y-97020213D01*
X50179786Y-96869890D01*
X50007820Y-96744951D01*
X49818414Y-96648444D01*
X49818413Y-96648443D01*
X49818412Y-96648443D01*
X49616243Y-96582754D01*
X49616241Y-96582753D01*
X49616240Y-96582753D01*
X49454957Y-96557208D01*
X49406287Y-96549500D01*
X49193713Y-96549500D01*
X49145042Y-96557208D01*
X48983760Y-96582753D01*
X48781585Y-96648444D01*
X48592179Y-96744951D01*
X48420213Y-96869890D01*
X48269890Y-97020213D01*
X48144951Y-97192179D01*
X48048444Y-97381585D01*
X47982753Y-97583760D01*
X47949500Y-97793713D01*
X40500500Y-97793713D01*
X40500500Y-91499997D01*
X94244751Y-91499997D01*
X94244751Y-91500002D01*
X94263685Y-91668056D01*
X94319545Y-91827694D01*
X94319547Y-91827697D01*
X94409518Y-91970884D01*
X94409523Y-91970890D01*
X94529109Y-92090476D01*
X94529115Y-92090481D01*
X94672302Y-92180452D01*
X94672305Y-92180454D01*
X94672309Y-92180455D01*
X94672310Y-92180456D01*
X94720568Y-92197342D01*
X94831943Y-92236314D01*
X94999997Y-92255249D01*
X95000000Y-92255249D01*
X95000003Y-92255249D01*
X95168056Y-92236314D01*
X95175798Y-92233605D01*
X95327690Y-92180456D01*
X95327692Y-92180454D01*
X95327694Y-92180454D01*
X95327697Y-92180452D01*
X95470884Y-92090481D01*
X95470888Y-92090478D01*
X95470890Y-92090477D01*
X95590477Y-91970890D01*
X95645006Y-91884107D01*
X95697341Y-91837817D01*
X95766395Y-91827169D01*
X95830243Y-91855544D01*
X95854993Y-91884107D01*
X95909523Y-91970890D01*
X96029110Y-92090477D01*
X96047321Y-92101919D01*
X96115892Y-92145007D01*
X96162183Y-92197342D01*
X96172830Y-92266395D01*
X96144455Y-92330244D01*
X96115892Y-92354993D01*
X96029112Y-92409521D01*
X96029109Y-92409523D01*
X95909523Y-92529109D01*
X95909518Y-92529115D01*
X95819547Y-92672302D01*
X95819545Y-92672305D01*
X95763685Y-92831943D01*
X95744751Y-92999997D01*
X95744751Y-93000002D01*
X95763685Y-93168056D01*
X95819545Y-93327694D01*
X95819547Y-93327697D01*
X95909518Y-93470884D01*
X95909523Y-93470890D01*
X96029109Y-93590476D01*
X96029115Y-93590481D01*
X96172302Y-93680452D01*
X96172305Y-93680454D01*
X96172309Y-93680455D01*
X96172310Y-93680456D01*
X96244913Y-93705860D01*
X96331943Y-93736314D01*
X96499997Y-93755249D01*
X96500000Y-93755249D01*
X96500003Y-93755249D01*
X96668056Y-93736314D01*
X96668059Y-93736313D01*
X96827690Y-93680456D01*
X96827692Y-93680454D01*
X96827694Y-93680454D01*
X96827697Y-93680452D01*
X96970884Y-93590481D01*
X96970885Y-93590480D01*
X96970890Y-93590477D01*
X97090477Y-93470890D01*
X97180452Y-93327697D01*
X97180454Y-93327694D01*
X97180454Y-93327692D01*
X97180456Y-93327690D01*
X97236313Y-93168059D01*
X97236313Y-93168058D01*
X97236314Y-93168056D01*
X97255249Y-93000002D01*
X97255249Y-92999997D01*
X97236314Y-92831943D01*
X97180454Y-92672305D01*
X97180452Y-92672302D01*
X97090481Y-92529115D01*
X97090476Y-92529109D01*
X96970890Y-92409523D01*
X96884108Y-92354994D01*
X96837817Y-92302659D01*
X96827169Y-92233605D01*
X96855544Y-92169757D01*
X96884108Y-92145006D01*
X96970890Y-92090477D01*
X97090477Y-91970890D01*
X97180452Y-91827697D01*
X97180454Y-91827694D01*
X97180454Y-91827692D01*
X97180456Y-91827690D01*
X97236313Y-91668059D01*
X97236313Y-91668058D01*
X97236314Y-91668056D01*
X97255249Y-91500002D01*
X97255249Y-91499997D01*
X97236314Y-91331943D01*
X97180454Y-91172305D01*
X97180452Y-91172302D01*
X97090481Y-91029115D01*
X97090476Y-91029109D01*
X96970890Y-90909523D01*
X96970884Y-90909518D01*
X96827697Y-90819547D01*
X96827694Y-90819545D01*
X96668056Y-90763685D01*
X96500003Y-90744751D01*
X96499997Y-90744751D01*
X96331943Y-90763685D01*
X96172305Y-90819545D01*
X96172302Y-90819547D01*
X96029115Y-90909518D01*
X96029109Y-90909523D01*
X95909523Y-91029109D01*
X95909521Y-91029112D01*
X95854993Y-91115892D01*
X95802658Y-91162183D01*
X95733605Y-91172830D01*
X95669756Y-91144455D01*
X95645007Y-91115892D01*
X95590478Y-91029112D01*
X95590476Y-91029109D01*
X95470890Y-90909523D01*
X95470884Y-90909518D01*
X95327697Y-90819547D01*
X95327694Y-90819545D01*
X95168056Y-90763685D01*
X95000003Y-90744751D01*
X94999997Y-90744751D01*
X94831943Y-90763685D01*
X94672305Y-90819545D01*
X94672302Y-90819547D01*
X94529115Y-90909518D01*
X94529109Y-90909523D01*
X94409523Y-91029109D01*
X94409518Y-91029115D01*
X94319547Y-91172302D01*
X94319545Y-91172305D01*
X94263685Y-91331943D01*
X94244751Y-91499997D01*
X40500500Y-91499997D01*
X40500500Y-88274038D01*
X50499500Y-88274038D01*
X50499500Y-88525961D01*
X50538910Y-88774785D01*
X50616760Y-89014383D01*
X50731132Y-89238848D01*
X50879201Y-89442649D01*
X50879205Y-89442654D01*
X51057345Y-89620794D01*
X51057350Y-89620798D01*
X51235117Y-89749952D01*
X51261155Y-89768870D01*
X51404184Y-89841747D01*
X51485616Y-89883239D01*
X51485618Y-89883239D01*
X51485621Y-89883241D01*
X51725215Y-89961090D01*
X51974038Y-90000500D01*
X51974039Y-90000500D01*
X52225961Y-90000500D01*
X52225962Y-90000500D01*
X52474785Y-89961090D01*
X52714379Y-89883241D01*
X52938845Y-89768870D01*
X53142656Y-89620793D01*
X53163452Y-89599997D01*
X87944751Y-89599997D01*
X87944751Y-89600002D01*
X87963685Y-89768056D01*
X88019545Y-89927694D01*
X88019547Y-89927697D01*
X88109518Y-90070884D01*
X88109523Y-90070890D01*
X88229109Y-90190476D01*
X88229115Y-90190481D01*
X88372302Y-90280452D01*
X88372305Y-90280454D01*
X88372309Y-90280455D01*
X88372310Y-90280456D01*
X88444913Y-90305860D01*
X88531943Y-90336314D01*
X88699997Y-90355249D01*
X88700000Y-90355249D01*
X88700003Y-90355249D01*
X88868056Y-90336314D01*
X88868059Y-90336313D01*
X89027690Y-90280456D01*
X89027692Y-90280454D01*
X89027694Y-90280454D01*
X89027697Y-90280452D01*
X89170884Y-90190481D01*
X89170885Y-90190480D01*
X89170890Y-90190477D01*
X89290477Y-90070890D01*
X89290481Y-90070884D01*
X89380452Y-89927697D01*
X89380454Y-89927694D01*
X89380454Y-89927692D01*
X89380456Y-89927690D01*
X89436313Y-89768059D01*
X89436313Y-89768058D01*
X89436314Y-89768056D01*
X89455249Y-89600002D01*
X89455249Y-89599997D01*
X89436314Y-89431943D01*
X89380454Y-89272305D01*
X89380452Y-89272302D01*
X89290481Y-89129115D01*
X89290476Y-89129109D01*
X89170890Y-89009523D01*
X89170884Y-89009518D01*
X89027697Y-88919547D01*
X89027694Y-88919545D01*
X88868056Y-88863685D01*
X88700003Y-88844751D01*
X88699997Y-88844751D01*
X88531943Y-88863685D01*
X88372305Y-88919545D01*
X88372302Y-88919547D01*
X88229115Y-89009518D01*
X88229109Y-89009523D01*
X88109523Y-89129109D01*
X88109518Y-89129115D01*
X88019547Y-89272302D01*
X88019545Y-89272305D01*
X87963685Y-89431943D01*
X87944751Y-89599997D01*
X53163452Y-89599997D01*
X53320793Y-89442656D01*
X53468870Y-89238845D01*
X53583241Y-89014379D01*
X53661090Y-88774785D01*
X53696693Y-88550000D01*
X63094353Y-88550000D01*
X63114834Y-88692456D01*
X63152433Y-88774785D01*
X63174623Y-88823373D01*
X63268872Y-88932143D01*
X63389947Y-89009953D01*
X63389950Y-89009954D01*
X63389949Y-89009954D01*
X63528036Y-89050499D01*
X63528038Y-89050500D01*
X63528039Y-89050500D01*
X63671962Y-89050500D01*
X63671962Y-89050499D01*
X63810053Y-89009953D01*
X63931128Y-88932143D01*
X64025377Y-88823373D01*
X64085165Y-88692457D01*
X64105647Y-88550000D01*
X64085165Y-88407543D01*
X64025377Y-88276627D01*
X64023134Y-88274038D01*
X106299500Y-88274038D01*
X106299500Y-88525961D01*
X106338910Y-88774785D01*
X106416760Y-89014383D01*
X106531132Y-89238848D01*
X106679201Y-89442649D01*
X106679205Y-89442654D01*
X106857345Y-89620794D01*
X106857350Y-89620798D01*
X107035117Y-89749952D01*
X107061155Y-89768870D01*
X107204184Y-89841747D01*
X107285616Y-89883239D01*
X107285618Y-89883239D01*
X107285621Y-89883241D01*
X107525215Y-89961090D01*
X107774038Y-90000500D01*
X107774039Y-90000500D01*
X108025961Y-90000500D01*
X108025962Y-90000500D01*
X108274785Y-89961090D01*
X108514379Y-89883241D01*
X108738845Y-89768870D01*
X108942656Y-89620793D01*
X109120793Y-89442656D01*
X109268870Y-89238845D01*
X109383241Y-89014379D01*
X109461090Y-88774785D01*
X109500500Y-88525962D01*
X109500500Y-88274038D01*
X109461090Y-88025215D01*
X109383241Y-87785621D01*
X109383239Y-87785618D01*
X109383239Y-87785616D01*
X109283810Y-87590477D01*
X109268870Y-87561155D01*
X109203289Y-87470890D01*
X109120798Y-87357350D01*
X109120794Y-87357345D01*
X108942654Y-87179205D01*
X108942649Y-87179201D01*
X108738848Y-87031132D01*
X108738847Y-87031131D01*
X108738845Y-87031130D01*
X108668747Y-86995413D01*
X108514383Y-86916760D01*
X108274785Y-86838910D01*
X108230785Y-86831941D01*
X108025962Y-86799500D01*
X107774038Y-86799500D01*
X107649626Y-86819205D01*
X107525214Y-86838910D01*
X107285616Y-86916760D01*
X107061151Y-87031132D01*
X106857350Y-87179201D01*
X106857345Y-87179205D01*
X106679205Y-87357345D01*
X106679201Y-87357350D01*
X106531132Y-87561151D01*
X106416760Y-87785616D01*
X106338910Y-88025214D01*
X106299500Y-88274038D01*
X64023134Y-88274038D01*
X63931128Y-88167857D01*
X63810053Y-88090047D01*
X63810051Y-88090046D01*
X63810049Y-88090045D01*
X63810050Y-88090045D01*
X63671963Y-88049500D01*
X63671961Y-88049500D01*
X63528039Y-88049500D01*
X63528036Y-88049500D01*
X63389949Y-88090045D01*
X63268873Y-88167856D01*
X63174623Y-88276626D01*
X63174622Y-88276628D01*
X63114834Y-88407543D01*
X63094353Y-88550000D01*
X53696693Y-88550000D01*
X53700500Y-88525962D01*
X53700500Y-88274038D01*
X53661090Y-88025215D01*
X53583241Y-87785621D01*
X53583239Y-87785618D01*
X53583239Y-87785616D01*
X53483810Y-87590477D01*
X53468870Y-87561155D01*
X53403289Y-87470890D01*
X53320798Y-87357350D01*
X53320794Y-87357345D01*
X53142654Y-87179205D01*
X53142649Y-87179201D01*
X52938848Y-87031132D01*
X52938847Y-87031131D01*
X52938845Y-87031130D01*
X52868747Y-86995413D01*
X52714383Y-86916760D01*
X52474785Y-86838910D01*
X52430785Y-86831941D01*
X52225962Y-86799500D01*
X51974038Y-86799500D01*
X51849626Y-86819205D01*
X51725214Y-86838910D01*
X51485616Y-86916760D01*
X51261151Y-87031132D01*
X51057350Y-87179201D01*
X51057345Y-87179205D01*
X50879205Y-87357345D01*
X50879201Y-87357350D01*
X50731132Y-87561151D01*
X50616760Y-87785616D01*
X50538910Y-88025214D01*
X50499500Y-88274038D01*
X40500500Y-88274038D01*
X40500500Y-85699997D01*
X65744751Y-85699997D01*
X65744751Y-85700002D01*
X65763685Y-85868056D01*
X65819545Y-86027694D01*
X65819547Y-86027697D01*
X65909518Y-86170884D01*
X65909523Y-86170890D01*
X66000952Y-86262319D01*
X66034437Y-86323642D01*
X66029453Y-86393334D01*
X66000952Y-86437681D01*
X65909523Y-86529109D01*
X65909518Y-86529115D01*
X65819547Y-86672302D01*
X65819545Y-86672305D01*
X65763685Y-86831943D01*
X65744751Y-86999997D01*
X65744751Y-87000002D01*
X65763685Y-87168056D01*
X65819545Y-87327694D01*
X65819547Y-87327697D01*
X65909518Y-87470884D01*
X65909523Y-87470890D01*
X66029109Y-87590476D01*
X66029115Y-87590481D01*
X66172302Y-87680452D01*
X66172305Y-87680454D01*
X66172309Y-87680455D01*
X66172310Y-87680456D01*
X66244913Y-87705860D01*
X66331943Y-87736314D01*
X66499997Y-87755249D01*
X66500000Y-87755249D01*
X66500003Y-87755249D01*
X66668056Y-87736314D01*
X66668059Y-87736313D01*
X66827690Y-87680456D01*
X66827692Y-87680454D01*
X66827694Y-87680454D01*
X66827697Y-87680452D01*
X66970884Y-87590481D01*
X66970885Y-87590480D01*
X66970890Y-87590477D01*
X67090477Y-87470890D01*
X67090481Y-87470884D01*
X67180452Y-87327697D01*
X67180454Y-87327694D01*
X67180454Y-87327692D01*
X67180456Y-87327690D01*
X67236313Y-87168059D01*
X67236313Y-87168058D01*
X67236314Y-87168056D01*
X67255249Y-87000002D01*
X67255249Y-86999997D01*
X67236314Y-86831943D01*
X67180454Y-86672305D01*
X67180452Y-86672302D01*
X67090481Y-86529115D01*
X67090476Y-86529109D01*
X66999048Y-86437681D01*
X66965563Y-86376358D01*
X66970547Y-86306666D01*
X66999048Y-86262319D01*
X67061368Y-86199999D01*
X99744750Y-86199999D01*
X99744750Y-86200000D01*
X99763670Y-86343708D01*
X99763671Y-86343712D01*
X99819137Y-86477622D01*
X99819138Y-86477624D01*
X99819139Y-86477625D01*
X99907379Y-86592621D01*
X100022375Y-86680861D01*
X100156291Y-86736330D01*
X100283280Y-86753048D01*
X100299999Y-86755250D01*
X100300000Y-86755250D01*
X100300001Y-86755250D01*
X100314977Y-86753278D01*
X100443709Y-86736330D01*
X100577625Y-86680861D01*
X100692621Y-86592621D01*
X100780861Y-86477625D01*
X100836330Y-86343709D01*
X100855250Y-86200000D01*
X100836330Y-86056291D01*
X100780861Y-85922375D01*
X100692621Y-85807379D01*
X100577625Y-85719139D01*
X100577624Y-85719138D01*
X100577622Y-85719137D01*
X100443712Y-85663671D01*
X100443710Y-85663670D01*
X100443709Y-85663670D01*
X100371854Y-85654210D01*
X100300001Y-85644750D01*
X100299999Y-85644750D01*
X100156291Y-85663670D01*
X100156287Y-85663671D01*
X100022377Y-85719137D01*
X99907379Y-85807379D01*
X99819137Y-85922377D01*
X99763671Y-86056287D01*
X99763670Y-86056291D01*
X99744750Y-86199999D01*
X67061368Y-86199999D01*
X67090477Y-86170890D01*
X67162485Y-86056291D01*
X67180452Y-86027697D01*
X67180454Y-86027694D01*
X67180454Y-86027692D01*
X67180456Y-86027690D01*
X67236313Y-85868059D01*
X67236313Y-85868058D01*
X67236314Y-85868056D01*
X67255249Y-85700002D01*
X67255249Y-85699997D01*
X67236314Y-85531943D01*
X67200730Y-85430250D01*
X67180456Y-85372310D01*
X67180455Y-85372309D01*
X67180454Y-85372305D01*
X67180452Y-85372302D01*
X67090481Y-85229115D01*
X67090476Y-85229109D01*
X66970890Y-85109523D01*
X66970884Y-85109518D01*
X66827697Y-85019547D01*
X66827694Y-85019545D01*
X66668056Y-84963685D01*
X66500003Y-84944751D01*
X66499997Y-84944751D01*
X66331943Y-84963685D01*
X66172305Y-85019545D01*
X66172302Y-85019547D01*
X66029115Y-85109518D01*
X66029109Y-85109523D01*
X65909523Y-85229109D01*
X65909518Y-85229115D01*
X65819547Y-85372302D01*
X65819545Y-85372305D01*
X65763685Y-85531943D01*
X65744751Y-85699997D01*
X40500500Y-85699997D01*
X40500500Y-81794997D01*
X74144751Y-81794997D01*
X74144751Y-81795002D01*
X74163685Y-81963056D01*
X74219545Y-82122694D01*
X74219547Y-82122697D01*
X74309518Y-82265884D01*
X74309523Y-82265890D01*
X74400952Y-82357319D01*
X74434437Y-82418642D01*
X74429453Y-82488334D01*
X74400952Y-82532681D01*
X74309523Y-82624109D01*
X74309518Y-82624115D01*
X74219547Y-82767302D01*
X74219545Y-82767305D01*
X74163685Y-82926943D01*
X74144751Y-83094997D01*
X74144751Y-83095002D01*
X74163685Y-83263056D01*
X74219545Y-83422694D01*
X74219547Y-83422697D01*
X74309518Y-83565884D01*
X74309523Y-83565890D01*
X74429109Y-83685476D01*
X74429115Y-83685481D01*
X74572302Y-83775452D01*
X74572305Y-83775454D01*
X74572309Y-83775455D01*
X74572310Y-83775456D01*
X74644913Y-83800860D01*
X74731943Y-83831314D01*
X74899997Y-83850249D01*
X74900000Y-83850249D01*
X74900003Y-83850249D01*
X75068056Y-83831314D01*
X75078393Y-83827697D01*
X75227690Y-83775456D01*
X75227692Y-83775454D01*
X75227694Y-83775454D01*
X75227697Y-83775452D01*
X75370884Y-83685481D01*
X75370885Y-83685480D01*
X75370890Y-83685477D01*
X75490477Y-83565890D01*
X75502607Y-83546585D01*
X75531881Y-83499997D01*
X90494751Y-83499997D01*
X90494751Y-83500002D01*
X90513685Y-83668056D01*
X90569545Y-83827694D01*
X90569547Y-83827697D01*
X90659518Y-83970884D01*
X90659523Y-83970890D01*
X90779109Y-84090476D01*
X90779112Y-84090478D01*
X90865892Y-84145007D01*
X90912183Y-84197342D01*
X90922830Y-84266395D01*
X90894455Y-84330244D01*
X90865892Y-84354993D01*
X90779112Y-84409521D01*
X90779109Y-84409523D01*
X90659523Y-84529109D01*
X90659518Y-84529115D01*
X90569547Y-84672302D01*
X90569545Y-84672305D01*
X90513685Y-84831943D01*
X90494751Y-84999997D01*
X90494751Y-85000002D01*
X90513685Y-85168056D01*
X90569545Y-85327694D01*
X90569547Y-85327697D01*
X90659518Y-85470884D01*
X90659523Y-85470890D01*
X90779109Y-85590476D01*
X90779115Y-85590481D01*
X90922302Y-85680452D01*
X90922305Y-85680454D01*
X90922309Y-85680455D01*
X90922310Y-85680456D01*
X90978155Y-85699997D01*
X91081943Y-85736314D01*
X91249997Y-85755249D01*
X91250000Y-85755249D01*
X91250003Y-85755249D01*
X91418056Y-85736314D01*
X91418059Y-85736313D01*
X91577690Y-85680456D01*
X91577692Y-85680454D01*
X91577694Y-85680454D01*
X91577697Y-85680452D01*
X91720884Y-85590481D01*
X91720885Y-85590480D01*
X91720890Y-85590477D01*
X91840477Y-85470890D01*
X91895006Y-85384107D01*
X91947341Y-85337817D01*
X92016395Y-85327169D01*
X92080243Y-85355544D01*
X92104994Y-85384108D01*
X92159523Y-85470890D01*
X92279109Y-85590476D01*
X92279115Y-85590481D01*
X92422302Y-85680452D01*
X92422305Y-85680454D01*
X92422309Y-85680455D01*
X92422310Y-85680456D01*
X92478155Y-85699997D01*
X92581943Y-85736314D01*
X92749997Y-85755249D01*
X92750000Y-85755249D01*
X92750003Y-85755249D01*
X92918056Y-85736314D01*
X92918059Y-85736313D01*
X93077690Y-85680456D01*
X93077692Y-85680454D01*
X93077694Y-85680454D01*
X93077697Y-85680452D01*
X93220884Y-85590481D01*
X93220885Y-85590480D01*
X93220890Y-85590477D01*
X93340477Y-85470890D01*
X93395006Y-85384107D01*
X93447341Y-85337817D01*
X93516395Y-85327169D01*
X93580243Y-85355544D01*
X93604994Y-85384108D01*
X93659523Y-85470890D01*
X93779109Y-85590476D01*
X93779115Y-85590481D01*
X93922302Y-85680452D01*
X93922305Y-85680454D01*
X93922309Y-85680455D01*
X93922310Y-85680456D01*
X93978155Y-85699997D01*
X94081943Y-85736314D01*
X94249997Y-85755249D01*
X94250000Y-85755249D01*
X94250003Y-85755249D01*
X94418056Y-85736314D01*
X94418059Y-85736313D01*
X94577690Y-85680456D01*
X94577692Y-85680454D01*
X94577694Y-85680454D01*
X94577697Y-85680452D01*
X94720884Y-85590481D01*
X94720885Y-85590480D01*
X94720890Y-85590477D01*
X94840477Y-85470890D01*
X94866013Y-85430250D01*
X94930452Y-85327697D01*
X94930454Y-85327694D01*
X94930454Y-85327692D01*
X94930456Y-85327690D01*
X94986313Y-85168059D01*
X94986313Y-85168058D01*
X94986314Y-85168056D01*
X95005249Y-85000002D01*
X95005249Y-84999997D01*
X94991165Y-84875000D01*
X114344750Y-84875000D01*
X114361206Y-84999997D01*
X114363670Y-85018708D01*
X114363671Y-85018712D01*
X114419137Y-85152622D01*
X114419138Y-85152624D01*
X114419139Y-85152625D01*
X114507379Y-85267621D01*
X114622375Y-85355861D01*
X114756291Y-85411330D01*
X114883280Y-85428048D01*
X114899999Y-85430250D01*
X114900000Y-85430250D01*
X114900001Y-85430250D01*
X114914977Y-85428278D01*
X115043709Y-85411330D01*
X115177625Y-85355861D01*
X115292621Y-85267621D01*
X115380861Y-85152625D01*
X115436330Y-85018709D01*
X115455250Y-84875000D01*
X115436330Y-84731291D01*
X115380861Y-84597375D01*
X115292621Y-84482379D01*
X115177625Y-84394139D01*
X115177624Y-84394138D01*
X115177622Y-84394137D01*
X115043712Y-84338671D01*
X115043710Y-84338670D01*
X115043709Y-84338670D01*
X114971854Y-84329210D01*
X114900001Y-84319750D01*
X114899999Y-84319750D01*
X114756291Y-84338670D01*
X114756287Y-84338671D01*
X114622377Y-84394137D01*
X114507379Y-84482379D01*
X114419137Y-84597377D01*
X114363671Y-84731287D01*
X114363670Y-84731291D01*
X114344750Y-84875000D01*
X94991165Y-84875000D01*
X94986314Y-84831943D01*
X94930454Y-84672305D01*
X94930452Y-84672302D01*
X94840481Y-84529115D01*
X94840476Y-84529109D01*
X94720890Y-84409523D01*
X94634108Y-84354994D01*
X94587817Y-84302659D01*
X94577169Y-84233605D01*
X94605544Y-84169757D01*
X94634108Y-84145006D01*
X94720890Y-84090477D01*
X94840477Y-83970890D01*
X94912954Y-83855544D01*
X94930452Y-83827697D01*
X94930454Y-83827694D01*
X94930454Y-83827692D01*
X94930456Y-83827690D01*
X94986313Y-83668059D01*
X94986313Y-83668058D01*
X94986314Y-83668056D01*
X95005249Y-83500002D01*
X95005249Y-83499997D01*
X94986314Y-83331943D01*
X94930454Y-83172305D01*
X94930452Y-83172302D01*
X94840481Y-83029115D01*
X94840476Y-83029109D01*
X94720890Y-82909523D01*
X94720884Y-82909518D01*
X94577697Y-82819547D01*
X94577694Y-82819545D01*
X94418056Y-82763685D01*
X94250003Y-82744751D01*
X94249997Y-82744751D01*
X94081943Y-82763685D01*
X93922305Y-82819545D01*
X93922302Y-82819547D01*
X93779115Y-82909518D01*
X93779109Y-82909523D01*
X93659523Y-83029109D01*
X93659521Y-83029112D01*
X93604993Y-83115892D01*
X93552658Y-83162183D01*
X93483605Y-83172830D01*
X93419756Y-83144455D01*
X93395007Y-83115892D01*
X93340478Y-83029112D01*
X93340476Y-83029109D01*
X93220890Y-82909523D01*
X93220884Y-82909518D01*
X93077697Y-82819547D01*
X93077694Y-82819545D01*
X92918056Y-82763685D01*
X92750003Y-82744751D01*
X92749997Y-82744751D01*
X92581943Y-82763685D01*
X92422305Y-82819545D01*
X92422302Y-82819547D01*
X92279115Y-82909518D01*
X92279109Y-82909523D01*
X92159523Y-83029109D01*
X92159521Y-83029112D01*
X92104993Y-83115892D01*
X92052658Y-83162183D01*
X91983605Y-83172830D01*
X91919756Y-83144455D01*
X91895007Y-83115892D01*
X91840478Y-83029112D01*
X91840476Y-83029109D01*
X91720890Y-82909523D01*
X91720884Y-82909518D01*
X91577697Y-82819547D01*
X91577694Y-82819545D01*
X91418056Y-82763685D01*
X91250003Y-82744751D01*
X91249997Y-82744751D01*
X91081943Y-82763685D01*
X90922305Y-82819545D01*
X90922302Y-82819547D01*
X90779115Y-82909518D01*
X90779109Y-82909523D01*
X90659523Y-83029109D01*
X90659518Y-83029115D01*
X90569547Y-83172302D01*
X90569545Y-83172305D01*
X90513685Y-83331943D01*
X90494751Y-83499997D01*
X75531881Y-83499997D01*
X75580452Y-83422697D01*
X75580454Y-83422694D01*
X75580454Y-83422692D01*
X75580456Y-83422690D01*
X75636313Y-83263059D01*
X75636313Y-83263058D01*
X75636314Y-83263056D01*
X75655249Y-83095002D01*
X75655249Y-83094997D01*
X75636314Y-82926943D01*
X75580454Y-82767305D01*
X75580452Y-82767302D01*
X75490481Y-82624115D01*
X75490476Y-82624109D01*
X75399048Y-82532681D01*
X75365563Y-82471358D01*
X75370547Y-82401666D01*
X75399048Y-82357319D01*
X75490477Y-82265890D01*
X75490481Y-82265884D01*
X75580452Y-82122697D01*
X75580454Y-82122694D01*
X75580454Y-82122692D01*
X75580456Y-82122690D01*
X75588396Y-82099999D01*
X113344750Y-82099999D01*
X113344750Y-82100000D01*
X113363670Y-82243708D01*
X113363671Y-82243712D01*
X113419137Y-82377622D01*
X113419138Y-82377624D01*
X113419139Y-82377625D01*
X113507379Y-82492621D01*
X113622375Y-82580861D01*
X113756291Y-82636330D01*
X113883280Y-82653048D01*
X113899999Y-82655250D01*
X113900000Y-82655250D01*
X113900001Y-82655250D01*
X113914977Y-82653278D01*
X114043709Y-82636330D01*
X114177625Y-82580861D01*
X114292621Y-82492621D01*
X114380861Y-82377625D01*
X114436330Y-82243709D01*
X114447154Y-82161486D01*
X114475420Y-82097593D01*
X114533744Y-82059121D01*
X114553902Y-82054736D01*
X114693709Y-82036330D01*
X114827625Y-81980861D01*
X114942621Y-81892621D01*
X115030861Y-81777625D01*
X115086330Y-81643709D01*
X115105250Y-81500000D01*
X115086330Y-81356291D01*
X115030861Y-81222375D01*
X114942621Y-81107379D01*
X114827625Y-81019139D01*
X114827624Y-81019138D01*
X114827622Y-81019137D01*
X114693712Y-80963671D01*
X114693710Y-80963670D01*
X114693709Y-80963670D01*
X114559495Y-80946000D01*
X114550001Y-80944750D01*
X114549999Y-80944750D01*
X114406291Y-80963670D01*
X114406287Y-80963671D01*
X114272377Y-81019137D01*
X114157379Y-81107379D01*
X114069137Y-81222377D01*
X114013671Y-81356287D01*
X114013670Y-81356292D01*
X114002845Y-81438511D01*
X113974578Y-81502408D01*
X113916253Y-81540878D01*
X113896092Y-81545264D01*
X113797588Y-81558233D01*
X113756291Y-81563670D01*
X113756290Y-81563670D01*
X113756287Y-81563671D01*
X113622377Y-81619137D01*
X113507379Y-81707379D01*
X113419137Y-81822377D01*
X113363671Y-81956287D01*
X113363670Y-81956291D01*
X113344750Y-82099999D01*
X75588396Y-82099999D01*
X75636313Y-81963059D01*
X75636313Y-81963058D01*
X75636314Y-81963056D01*
X75655249Y-81795002D01*
X75655249Y-81794997D01*
X75636314Y-81626943D01*
X75591894Y-81499999D01*
X75580456Y-81467310D01*
X75580455Y-81467309D01*
X75580454Y-81467305D01*
X75580452Y-81467302D01*
X75490481Y-81324115D01*
X75490476Y-81324109D01*
X75370890Y-81204523D01*
X75370884Y-81204518D01*
X75292077Y-81155000D01*
X97894353Y-81155000D01*
X97914834Y-81297456D01*
X97946747Y-81367334D01*
X97974623Y-81428373D01*
X98068872Y-81537143D01*
X98189947Y-81614953D01*
X98189950Y-81614954D01*
X98189949Y-81614954D01*
X98328036Y-81655499D01*
X98328038Y-81655500D01*
X98328039Y-81655500D01*
X98471962Y-81655500D01*
X98471962Y-81655499D01*
X98595797Y-81619139D01*
X98610050Y-81614954D01*
X98610050Y-81614953D01*
X98610053Y-81614953D01*
X98731128Y-81537143D01*
X98825377Y-81428373D01*
X98885165Y-81297457D01*
X98905647Y-81155000D01*
X99794353Y-81155000D01*
X99814834Y-81297456D01*
X99846747Y-81367334D01*
X99874623Y-81428373D01*
X99968872Y-81537143D01*
X100089947Y-81614953D01*
X100089950Y-81614954D01*
X100089949Y-81614954D01*
X100228036Y-81655499D01*
X100228038Y-81655500D01*
X100228039Y-81655500D01*
X100371962Y-81655500D01*
X100371962Y-81655499D01*
X100495797Y-81619139D01*
X100510050Y-81614954D01*
X100510050Y-81614953D01*
X100510053Y-81614953D01*
X100631128Y-81537143D01*
X100725377Y-81428373D01*
X100785165Y-81297457D01*
X100805647Y-81155000D01*
X100796260Y-81089709D01*
X102547641Y-81089709D01*
X102565107Y-81222377D01*
X102566561Y-81233417D01*
X102566562Y-81233421D01*
X102622028Y-81367331D01*
X102622029Y-81367333D01*
X102622030Y-81367334D01*
X102710270Y-81482330D01*
X102825266Y-81570570D01*
X102959182Y-81626039D01*
X103086171Y-81642757D01*
X103102890Y-81644959D01*
X103102891Y-81644959D01*
X103102892Y-81644959D01*
X103117868Y-81642987D01*
X103246600Y-81626039D01*
X103380516Y-81570570D01*
X103495512Y-81482330D01*
X103583752Y-81367334D01*
X103639221Y-81233418D01*
X103658141Y-81089709D01*
X103639221Y-80946000D01*
X103583752Y-80812084D01*
X103495512Y-80697088D01*
X103380516Y-80608848D01*
X103380515Y-80608847D01*
X103380513Y-80608846D01*
X103246603Y-80553380D01*
X103246601Y-80553379D01*
X103246600Y-80553379D01*
X103174745Y-80543919D01*
X103102892Y-80534459D01*
X103102890Y-80534459D01*
X102959182Y-80553379D01*
X102959178Y-80553380D01*
X102825268Y-80608846D01*
X102710270Y-80697088D01*
X102622028Y-80812086D01*
X102566562Y-80945996D01*
X102566561Y-80946000D01*
X102547641Y-81089709D01*
X100796260Y-81089709D01*
X100785165Y-81012543D01*
X100725377Y-80881627D01*
X100631128Y-80772857D01*
X100510053Y-80695047D01*
X100510051Y-80695046D01*
X100510049Y-80695045D01*
X100510050Y-80695045D01*
X100371963Y-80654500D01*
X100371961Y-80654500D01*
X100228039Y-80654500D01*
X100228036Y-80654500D01*
X100089949Y-80695045D01*
X99968873Y-80772856D01*
X99874623Y-80881626D01*
X99874622Y-80881628D01*
X99814834Y-81012543D01*
X99794353Y-81155000D01*
X98905647Y-81155000D01*
X98885165Y-81012543D01*
X98825377Y-80881627D01*
X98731128Y-80772857D01*
X98610053Y-80695047D01*
X98610051Y-80695046D01*
X98610049Y-80695045D01*
X98610050Y-80695045D01*
X98471963Y-80654500D01*
X98471961Y-80654500D01*
X98328039Y-80654500D01*
X98328036Y-80654500D01*
X98189949Y-80695045D01*
X98068873Y-80772856D01*
X97974623Y-80881626D01*
X97974622Y-80881628D01*
X97914834Y-81012543D01*
X97894353Y-81155000D01*
X75292077Y-81155000D01*
X75227697Y-81114547D01*
X75227694Y-81114545D01*
X75068056Y-81058685D01*
X74900003Y-81039751D01*
X74899997Y-81039751D01*
X74731943Y-81058685D01*
X74572305Y-81114545D01*
X74572302Y-81114547D01*
X74429115Y-81204518D01*
X74429109Y-81204523D01*
X74309523Y-81324109D01*
X74309518Y-81324115D01*
X74219547Y-81467302D01*
X74219545Y-81467305D01*
X74163685Y-81626943D01*
X74144751Y-81794997D01*
X40500500Y-81794997D01*
X40500500Y-79234999D01*
X61044750Y-79234999D01*
X61044750Y-79235000D01*
X61063670Y-79378708D01*
X61063671Y-79378712D01*
X61119137Y-79512622D01*
X61119138Y-79512624D01*
X61119139Y-79512625D01*
X61207379Y-79627621D01*
X61322375Y-79715861D01*
X61354385Y-79729120D01*
X61417925Y-79755439D01*
X61472329Y-79799280D01*
X61494394Y-79865574D01*
X61477115Y-79933273D01*
X61425978Y-79980884D01*
X61417925Y-79984561D01*
X61322378Y-80024137D01*
X61207379Y-80112379D01*
X61119137Y-80227377D01*
X61063671Y-80361287D01*
X61063670Y-80361291D01*
X61044750Y-80505000D01*
X61051119Y-80553380D01*
X61063670Y-80648708D01*
X61063671Y-80648712D01*
X61119137Y-80782622D01*
X61119138Y-80782624D01*
X61119139Y-80782625D01*
X61207379Y-80897621D01*
X61322375Y-80985861D01*
X61456291Y-81041330D01*
X61583280Y-81058048D01*
X61599999Y-81060250D01*
X61600000Y-81060250D01*
X61600001Y-81060250D01*
X61614977Y-81058278D01*
X61743709Y-81041330D01*
X61877625Y-80985861D01*
X61992621Y-80897621D01*
X62080861Y-80782625D01*
X62136330Y-80648709D01*
X62155250Y-80505000D01*
X62136330Y-80361291D01*
X62080861Y-80227375D01*
X61992621Y-80112379D01*
X61877625Y-80024139D01*
X61877624Y-80024138D01*
X61877622Y-80024137D01*
X61782074Y-79984561D01*
X61727670Y-79940721D01*
X61705605Y-79874427D01*
X61722884Y-79806727D01*
X61774021Y-79759116D01*
X61782074Y-79755439D01*
X61805195Y-79745862D01*
X61877625Y-79715861D01*
X61992621Y-79627621D01*
X62080861Y-79512625D01*
X62136330Y-79378709D01*
X62151300Y-79264999D01*
X79004750Y-79264999D01*
X79004750Y-79265000D01*
X79023670Y-79408708D01*
X79023671Y-79408712D01*
X79079137Y-79542622D01*
X79079138Y-79542624D01*
X79079139Y-79542625D01*
X79167379Y-79657621D01*
X79282375Y-79745861D01*
X79282376Y-79745861D01*
X79282377Y-79745862D01*
X79314376Y-79759116D01*
X79416291Y-79801330D01*
X79543280Y-79818048D01*
X79559999Y-79820250D01*
X79560000Y-79820250D01*
X79560001Y-79820250D01*
X79574977Y-79818278D01*
X79675833Y-79805000D01*
X97894353Y-79805000D01*
X97914834Y-79947456D01*
X97931780Y-79984561D01*
X97974623Y-80078373D01*
X98068872Y-80187143D01*
X98189947Y-80264953D01*
X98189950Y-80264954D01*
X98189949Y-80264954D01*
X98328036Y-80305499D01*
X98328038Y-80305500D01*
X98328039Y-80305500D01*
X98471962Y-80305500D01*
X98471962Y-80305499D01*
X98610053Y-80264953D01*
X98731128Y-80187143D01*
X98825377Y-80078373D01*
X98885165Y-79947457D01*
X98905647Y-79805000D01*
X99794353Y-79805000D01*
X99814834Y-79947456D01*
X99831780Y-79984561D01*
X99874623Y-80078373D01*
X99968872Y-80187143D01*
X100089947Y-80264953D01*
X100089950Y-80264954D01*
X100089949Y-80264954D01*
X100228036Y-80305499D01*
X100228038Y-80305500D01*
X100228039Y-80305500D01*
X100371962Y-80305500D01*
X100371962Y-80305499D01*
X100510053Y-80264953D01*
X100631128Y-80187143D01*
X100725377Y-80078373D01*
X100785165Y-79947457D01*
X100805647Y-79805000D01*
X100785165Y-79662543D01*
X100725377Y-79531627D01*
X100631128Y-79422857D01*
X100510053Y-79345047D01*
X100510051Y-79345046D01*
X100510049Y-79345045D01*
X100510050Y-79345045D01*
X100371963Y-79304500D01*
X100371961Y-79304500D01*
X100228039Y-79304500D01*
X100228036Y-79304500D01*
X100089949Y-79345045D01*
X99968873Y-79422856D01*
X99874623Y-79531626D01*
X99874622Y-79531628D01*
X99814834Y-79662543D01*
X99794353Y-79805000D01*
X98905647Y-79805000D01*
X98885165Y-79662543D01*
X98825377Y-79531627D01*
X98731128Y-79422857D01*
X98610053Y-79345047D01*
X98610051Y-79345046D01*
X98610049Y-79345045D01*
X98610050Y-79345045D01*
X98471963Y-79304500D01*
X98471961Y-79304500D01*
X98328039Y-79304500D01*
X98328036Y-79304500D01*
X98189949Y-79345045D01*
X98068873Y-79422856D01*
X97974623Y-79531626D01*
X97974622Y-79531628D01*
X97914834Y-79662543D01*
X97894353Y-79805000D01*
X79675833Y-79805000D01*
X79703709Y-79801330D01*
X79837625Y-79745861D01*
X79952621Y-79657621D01*
X80040861Y-79542625D01*
X80096330Y-79408709D01*
X80115250Y-79265000D01*
X80096330Y-79121291D01*
X80040861Y-78987375D01*
X79952621Y-78872379D01*
X79837625Y-78784139D01*
X79837624Y-78784138D01*
X79837622Y-78784137D01*
X79703712Y-78728671D01*
X79703710Y-78728670D01*
X79703709Y-78728670D01*
X79631854Y-78719210D01*
X79560001Y-78709750D01*
X79559999Y-78709750D01*
X79416291Y-78728670D01*
X79416287Y-78728671D01*
X79282377Y-78784137D01*
X79167379Y-78872379D01*
X79079137Y-78987377D01*
X79023671Y-79121287D01*
X79023670Y-79121291D01*
X79004750Y-79264999D01*
X62151300Y-79264999D01*
X62155250Y-79235000D01*
X62136330Y-79091291D01*
X62080861Y-78957375D01*
X61992621Y-78842379D01*
X61877625Y-78754139D01*
X61877624Y-78754138D01*
X61877622Y-78754137D01*
X61743712Y-78698671D01*
X61743710Y-78698670D01*
X61743709Y-78698670D01*
X61671854Y-78689210D01*
X61600001Y-78679750D01*
X61599999Y-78679750D01*
X61456291Y-78698670D01*
X61456287Y-78698671D01*
X61322377Y-78754137D01*
X61207379Y-78842379D01*
X61119137Y-78957377D01*
X61063671Y-79091287D01*
X61063670Y-79091291D01*
X61044750Y-79234999D01*
X40500500Y-79234999D01*
X40500500Y-77279999D01*
X57969785Y-77279999D01*
X57969785Y-77280000D01*
X57988602Y-77483082D01*
X58044417Y-77679247D01*
X58044422Y-77679260D01*
X58135327Y-77861821D01*
X58258237Y-78024581D01*
X58408958Y-78161980D01*
X58408960Y-78161982D01*
X58440688Y-78181627D01*
X58582363Y-78269348D01*
X58772544Y-78343024D01*
X58973024Y-78380500D01*
X58973026Y-78380500D01*
X59176974Y-78380500D01*
X59176976Y-78380500D01*
X59377456Y-78343024D01*
X59567637Y-78269348D01*
X59741041Y-78161981D01*
X59891764Y-78024579D01*
X59910325Y-78000000D01*
X62394750Y-78000000D01*
X62412698Y-78136329D01*
X62413670Y-78143708D01*
X62413671Y-78143712D01*
X62469137Y-78277622D01*
X62469138Y-78277624D01*
X62469139Y-78277625D01*
X62557379Y-78392621D01*
X62672375Y-78480861D01*
X62806291Y-78536330D01*
X62933280Y-78553048D01*
X62949999Y-78555250D01*
X62950000Y-78555250D01*
X62950001Y-78555250D01*
X62964977Y-78553278D01*
X63093709Y-78536330D01*
X63227625Y-78480861D01*
X63261328Y-78455000D01*
X97894353Y-78455000D01*
X97914834Y-78597456D01*
X97952417Y-78679750D01*
X97974623Y-78728373D01*
X98068872Y-78837143D01*
X98189947Y-78914953D01*
X98189950Y-78914954D01*
X98189949Y-78914954D01*
X98328036Y-78955499D01*
X98328038Y-78955500D01*
X98328039Y-78955500D01*
X98471962Y-78955500D01*
X98471962Y-78955499D01*
X98610053Y-78914953D01*
X98731128Y-78837143D01*
X98825377Y-78728373D01*
X98885165Y-78597457D01*
X98905647Y-78455000D01*
X99794353Y-78455000D01*
X99814834Y-78597456D01*
X99852417Y-78679750D01*
X99874623Y-78728373D01*
X99968872Y-78837143D01*
X100089947Y-78914953D01*
X100089950Y-78914954D01*
X100089949Y-78914954D01*
X100228036Y-78955499D01*
X100228038Y-78955500D01*
X100228039Y-78955500D01*
X100371962Y-78955500D01*
X100371962Y-78955499D01*
X100510053Y-78914953D01*
X100631128Y-78837143D01*
X100725377Y-78728373D01*
X100785165Y-78597457D01*
X100805647Y-78455000D01*
X100785165Y-78312543D01*
X100725377Y-78181627D01*
X100631128Y-78072857D01*
X100510053Y-77995047D01*
X100510051Y-77995046D01*
X100510049Y-77995045D01*
X100510050Y-77995045D01*
X100371963Y-77954500D01*
X100371961Y-77954500D01*
X100228039Y-77954500D01*
X100228036Y-77954500D01*
X100089949Y-77995045D01*
X99968873Y-78072856D01*
X99874623Y-78181626D01*
X99874622Y-78181628D01*
X99814834Y-78312543D01*
X99794353Y-78455000D01*
X98905647Y-78455000D01*
X98885165Y-78312543D01*
X98825377Y-78181627D01*
X98731128Y-78072857D01*
X98610053Y-77995047D01*
X98610051Y-77995046D01*
X98610049Y-77995045D01*
X98610050Y-77995045D01*
X98471963Y-77954500D01*
X98471961Y-77954500D01*
X98328039Y-77954500D01*
X98328036Y-77954500D01*
X98189949Y-77995045D01*
X98068873Y-78072856D01*
X97974623Y-78181626D01*
X97974622Y-78181628D01*
X97914834Y-78312543D01*
X97894353Y-78455000D01*
X63261328Y-78455000D01*
X63342621Y-78392621D01*
X63430861Y-78277625D01*
X63486330Y-78143709D01*
X63505250Y-78000000D01*
X63486330Y-77856291D01*
X63430861Y-77722375D01*
X63342621Y-77607379D01*
X63227625Y-77519139D01*
X63227624Y-77519138D01*
X63227622Y-77519137D01*
X63093712Y-77463671D01*
X63093710Y-77463670D01*
X63093709Y-77463670D01*
X63021854Y-77454210D01*
X62950001Y-77444750D01*
X62949999Y-77444750D01*
X62806291Y-77463670D01*
X62806287Y-77463671D01*
X62672377Y-77519137D01*
X62557379Y-77607379D01*
X62469137Y-77722377D01*
X62413671Y-77856287D01*
X62413670Y-77856291D01*
X62395722Y-77992620D01*
X62394750Y-78000000D01*
X59910325Y-78000000D01*
X60014673Y-77861821D01*
X60105582Y-77679250D01*
X60161397Y-77483083D01*
X60180215Y-77280000D01*
X60176168Y-77236330D01*
X60161397Y-77076917D01*
X60156736Y-77060534D01*
X60105582Y-76880750D01*
X60087139Y-76843712D01*
X60037863Y-76744751D01*
X60015580Y-76700000D01*
X75644750Y-76700000D01*
X75653134Y-76763685D01*
X75663670Y-76843708D01*
X75663671Y-76843712D01*
X75719137Y-76977622D01*
X75719138Y-76977624D01*
X75719139Y-76977625D01*
X75807379Y-77092621D01*
X75922375Y-77180861D01*
X76056291Y-77236330D01*
X76183280Y-77253048D01*
X76199999Y-77255250D01*
X76200000Y-77255250D01*
X76200001Y-77255250D01*
X76251525Y-77248466D01*
X76343709Y-77236330D01*
X76343709Y-77236329D01*
X76351766Y-77235269D01*
X76352142Y-77238126D01*
X76408078Y-77239446D01*
X76465949Y-77278597D01*
X76493466Y-77342819D01*
X76484908Y-77405017D01*
X76463670Y-77456291D01*
X76444750Y-77599999D01*
X76444750Y-77600000D01*
X76463670Y-77743708D01*
X76463671Y-77743712D01*
X76519137Y-77877622D01*
X76519138Y-77877624D01*
X76519139Y-77877625D01*
X76607379Y-77992621D01*
X76722375Y-78080861D01*
X76856291Y-78136330D01*
X76983280Y-78153048D01*
X76999999Y-78155250D01*
X77000000Y-78155250D01*
X77000001Y-78155250D01*
X77014977Y-78153278D01*
X77143709Y-78136330D01*
X77277625Y-78080861D01*
X77392621Y-77992621D01*
X77480861Y-77877625D01*
X77536330Y-77743709D01*
X77555250Y-77600000D01*
X77542084Y-77499997D01*
X108244751Y-77499997D01*
X108244751Y-77500002D01*
X108263685Y-77668056D01*
X108319545Y-77827694D01*
X108319547Y-77827697D01*
X108409518Y-77970884D01*
X108409523Y-77970890D01*
X108529109Y-78090476D01*
X108529115Y-78090481D01*
X108672302Y-78180452D01*
X108672305Y-78180454D01*
X108672309Y-78180455D01*
X108672310Y-78180456D01*
X108744913Y-78205860D01*
X108831943Y-78236314D01*
X108999997Y-78255249D01*
X109000000Y-78255249D01*
X109000003Y-78255249D01*
X109168056Y-78236314D01*
X109168059Y-78236313D01*
X109327690Y-78180456D01*
X109327692Y-78180454D01*
X109327694Y-78180454D01*
X109327697Y-78180452D01*
X109470884Y-78090481D01*
X109470885Y-78090480D01*
X109470890Y-78090477D01*
X109590477Y-77970890D01*
X109649080Y-77877625D01*
X109680452Y-77827697D01*
X109680454Y-77827694D01*
X109680454Y-77827692D01*
X109680456Y-77827690D01*
X109736313Y-77668059D01*
X109736313Y-77668058D01*
X109736314Y-77668056D01*
X109755249Y-77500002D01*
X109755249Y-77499997D01*
X110244751Y-77499997D01*
X110244751Y-77500002D01*
X110263685Y-77668056D01*
X110319545Y-77827694D01*
X110319547Y-77827697D01*
X110409518Y-77970884D01*
X110409523Y-77970890D01*
X110529109Y-78090476D01*
X110529115Y-78090481D01*
X110672302Y-78180452D01*
X110672305Y-78180454D01*
X110672309Y-78180455D01*
X110672310Y-78180456D01*
X110744913Y-78205860D01*
X110831943Y-78236314D01*
X110999997Y-78255249D01*
X111000000Y-78255249D01*
X111000003Y-78255249D01*
X111168056Y-78236314D01*
X111168059Y-78236313D01*
X111327690Y-78180456D01*
X111327692Y-78180454D01*
X111327694Y-78180454D01*
X111327697Y-78180452D01*
X111470884Y-78090481D01*
X111470885Y-78090480D01*
X111470890Y-78090477D01*
X111590477Y-77970890D01*
X111649080Y-77877625D01*
X111680452Y-77827697D01*
X111680454Y-77827694D01*
X111680454Y-77827692D01*
X111680456Y-77827690D01*
X111736313Y-77668059D01*
X111736313Y-77668058D01*
X111736314Y-77668056D01*
X111755249Y-77500002D01*
X111755249Y-77499997D01*
X112244751Y-77499997D01*
X112244751Y-77500002D01*
X112263685Y-77668056D01*
X112319545Y-77827694D01*
X112319547Y-77827697D01*
X112409518Y-77970884D01*
X112409523Y-77970890D01*
X112529109Y-78090476D01*
X112529115Y-78090481D01*
X112672302Y-78180452D01*
X112672305Y-78180454D01*
X112672309Y-78180455D01*
X112672310Y-78180456D01*
X112744913Y-78205860D01*
X112831943Y-78236314D01*
X112999997Y-78255249D01*
X113000000Y-78255249D01*
X113000003Y-78255249D01*
X113168056Y-78236314D01*
X113168059Y-78236313D01*
X113327690Y-78180456D01*
X113327692Y-78180454D01*
X113327694Y-78180454D01*
X113327697Y-78180452D01*
X113470884Y-78090481D01*
X113470885Y-78090480D01*
X113470890Y-78090477D01*
X113590477Y-77970890D01*
X113649080Y-77877625D01*
X113680452Y-77827697D01*
X113680454Y-77827694D01*
X113680454Y-77827692D01*
X113680456Y-77827690D01*
X113736313Y-77668059D01*
X113736313Y-77668058D01*
X113736314Y-77668056D01*
X113755249Y-77500002D01*
X113755249Y-77499997D01*
X113736314Y-77331943D01*
X113680454Y-77172305D01*
X113680452Y-77172302D01*
X113590481Y-77029115D01*
X113590476Y-77029109D01*
X113470890Y-76909523D01*
X113470884Y-76909518D01*
X113327697Y-76819547D01*
X113327694Y-76819545D01*
X113168056Y-76763685D01*
X113000003Y-76744751D01*
X112999997Y-76744751D01*
X112831943Y-76763685D01*
X112672305Y-76819545D01*
X112672302Y-76819547D01*
X112529115Y-76909518D01*
X112529109Y-76909523D01*
X112409523Y-77029109D01*
X112409518Y-77029115D01*
X112319547Y-77172302D01*
X112319545Y-77172305D01*
X112263685Y-77331943D01*
X112244751Y-77499997D01*
X111755249Y-77499997D01*
X111736314Y-77331943D01*
X111680454Y-77172305D01*
X111680452Y-77172302D01*
X111590481Y-77029115D01*
X111590476Y-77029109D01*
X111470890Y-76909523D01*
X111470884Y-76909518D01*
X111327697Y-76819547D01*
X111327694Y-76819545D01*
X111168056Y-76763685D01*
X111000003Y-76744751D01*
X110999997Y-76744751D01*
X110831943Y-76763685D01*
X110672305Y-76819545D01*
X110672302Y-76819547D01*
X110529115Y-76909518D01*
X110529109Y-76909523D01*
X110409523Y-77029109D01*
X110409518Y-77029115D01*
X110319547Y-77172302D01*
X110319545Y-77172305D01*
X110263685Y-77331943D01*
X110244751Y-77499997D01*
X109755249Y-77499997D01*
X109736314Y-77331943D01*
X109680454Y-77172305D01*
X109680452Y-77172302D01*
X109590481Y-77029115D01*
X109590476Y-77029109D01*
X109470890Y-76909523D01*
X109470884Y-76909518D01*
X109327697Y-76819547D01*
X109327694Y-76819545D01*
X109168056Y-76763685D01*
X109000003Y-76744751D01*
X108999997Y-76744751D01*
X108831943Y-76763685D01*
X108672305Y-76819545D01*
X108672302Y-76819547D01*
X108529115Y-76909518D01*
X108529109Y-76909523D01*
X108409523Y-77029109D01*
X108409518Y-77029115D01*
X108319547Y-77172302D01*
X108319545Y-77172305D01*
X108263685Y-77331943D01*
X108244751Y-77499997D01*
X77542084Y-77499997D01*
X77536330Y-77456291D01*
X77480861Y-77322375D01*
X77392621Y-77207379D01*
X77277625Y-77119139D01*
X77277624Y-77119138D01*
X77277622Y-77119137D01*
X77143712Y-77063671D01*
X77143710Y-77063670D01*
X77143709Y-77063670D01*
X77071854Y-77054210D01*
X77000001Y-77044750D01*
X76999999Y-77044750D01*
X76948474Y-77051533D01*
X76856291Y-77063670D01*
X76856290Y-77063670D01*
X76848234Y-77064731D01*
X76847859Y-77061883D01*
X76791863Y-77060534D01*
X76734011Y-77021355D01*
X76706526Y-76957119D01*
X76715091Y-76894984D01*
X76736330Y-76843709D01*
X76755250Y-76700000D01*
X76736330Y-76556291D01*
X76680861Y-76422375D01*
X76592621Y-76307379D01*
X76477625Y-76219139D01*
X76477624Y-76219138D01*
X76477622Y-76219137D01*
X76343712Y-76163671D01*
X76343710Y-76163670D01*
X76343709Y-76163670D01*
X76271854Y-76154210D01*
X76200001Y-76144750D01*
X76199999Y-76144750D01*
X76056291Y-76163670D01*
X76056287Y-76163671D01*
X75922377Y-76219137D01*
X75807379Y-76307379D01*
X75719137Y-76422377D01*
X75663671Y-76556287D01*
X75663670Y-76556291D01*
X75644750Y-76700000D01*
X60015580Y-76700000D01*
X60014673Y-76698179D01*
X59891764Y-76535421D01*
X59891762Y-76535418D01*
X59741041Y-76398019D01*
X59741039Y-76398017D01*
X59567642Y-76290655D01*
X59567635Y-76290651D01*
X59383034Y-76219137D01*
X59377456Y-76216976D01*
X59176976Y-76179500D01*
X58973024Y-76179500D01*
X58772544Y-76216976D01*
X58772541Y-76216976D01*
X58772541Y-76216977D01*
X58582364Y-76290651D01*
X58582357Y-76290655D01*
X58408960Y-76398017D01*
X58408958Y-76398019D01*
X58258237Y-76535418D01*
X58135327Y-76698178D01*
X58044422Y-76880739D01*
X58044417Y-76880752D01*
X57988602Y-77076917D01*
X57969785Y-77279999D01*
X40500500Y-77279999D01*
X40500500Y-74739999D01*
X57969785Y-74739999D01*
X57969785Y-74740000D01*
X57988602Y-74943082D01*
X58044417Y-75139247D01*
X58044422Y-75139260D01*
X58135327Y-75321821D01*
X58258237Y-75484581D01*
X58408958Y-75621980D01*
X58408960Y-75621982D01*
X58483373Y-75668056D01*
X58582363Y-75729348D01*
X58772544Y-75803024D01*
X58973024Y-75840500D01*
X58973026Y-75840500D01*
X59176974Y-75840500D01*
X59176976Y-75840500D01*
X59377456Y-75803024D01*
X59567637Y-75729348D01*
X59741041Y-75621981D01*
X59891764Y-75484579D01*
X60014673Y-75321821D01*
X60105582Y-75139250D01*
X60161397Y-74943083D01*
X60174656Y-74799997D01*
X62707251Y-74799997D01*
X62707251Y-74800002D01*
X62726185Y-74968056D01*
X62782045Y-75127694D01*
X62782047Y-75127697D01*
X62872018Y-75270884D01*
X62872023Y-75270890D01*
X62991609Y-75390476D01*
X62991615Y-75390481D01*
X63134802Y-75480452D01*
X63134805Y-75480454D01*
X63134809Y-75480455D01*
X63134810Y-75480456D01*
X63146599Y-75484581D01*
X63294443Y-75536314D01*
X63462497Y-75555249D01*
X63462500Y-75555249D01*
X63462503Y-75555249D01*
X63630556Y-75536314D01*
X63630559Y-75536313D01*
X63790190Y-75480456D01*
X63790192Y-75480454D01*
X63790194Y-75480454D01*
X63790197Y-75480452D01*
X63933384Y-75390481D01*
X63933385Y-75390480D01*
X63933390Y-75390477D01*
X64024819Y-75299048D01*
X64086142Y-75265563D01*
X64155834Y-75270547D01*
X64200181Y-75299048D01*
X64291609Y-75390476D01*
X64291615Y-75390481D01*
X64434802Y-75480452D01*
X64434805Y-75480454D01*
X64434809Y-75480455D01*
X64434810Y-75480456D01*
X64446599Y-75484581D01*
X64594443Y-75536314D01*
X64762497Y-75555249D01*
X64762500Y-75555249D01*
X64762503Y-75555249D01*
X64930556Y-75536314D01*
X64930559Y-75536313D01*
X65034345Y-75499997D01*
X108244751Y-75499997D01*
X108244751Y-75500002D01*
X108263685Y-75668056D01*
X108319545Y-75827694D01*
X108319547Y-75827697D01*
X108409518Y-75970884D01*
X108409523Y-75970890D01*
X108529109Y-76090476D01*
X108529115Y-76090481D01*
X108672302Y-76180452D01*
X108672305Y-76180454D01*
X108672309Y-76180455D01*
X108672310Y-76180456D01*
X108744913Y-76205860D01*
X108831943Y-76236314D01*
X108999997Y-76255249D01*
X109000000Y-76255249D01*
X109000003Y-76255249D01*
X109168056Y-76236314D01*
X109168059Y-76236313D01*
X109327690Y-76180456D01*
X109327692Y-76180454D01*
X109327694Y-76180454D01*
X109327697Y-76180452D01*
X109470884Y-76090481D01*
X109470885Y-76090480D01*
X109470890Y-76090477D01*
X109590477Y-75970890D01*
X109680452Y-75827697D01*
X109680454Y-75827694D01*
X109680454Y-75827692D01*
X109680456Y-75827690D01*
X109736313Y-75668059D01*
X109736313Y-75668058D01*
X109736314Y-75668056D01*
X109755249Y-75500002D01*
X109755249Y-75499997D01*
X110244751Y-75499997D01*
X110244751Y-75500002D01*
X110263685Y-75668056D01*
X110319545Y-75827694D01*
X110319547Y-75827697D01*
X110409518Y-75970884D01*
X110409523Y-75970890D01*
X110529109Y-76090476D01*
X110529115Y-76090481D01*
X110672302Y-76180452D01*
X110672305Y-76180454D01*
X110672309Y-76180455D01*
X110672310Y-76180456D01*
X110744913Y-76205860D01*
X110831943Y-76236314D01*
X110999997Y-76255249D01*
X111000000Y-76255249D01*
X111000003Y-76255249D01*
X111168056Y-76236314D01*
X111168059Y-76236313D01*
X111327690Y-76180456D01*
X111327692Y-76180454D01*
X111327694Y-76180454D01*
X111327697Y-76180452D01*
X111470884Y-76090481D01*
X111470885Y-76090480D01*
X111470890Y-76090477D01*
X111590477Y-75970890D01*
X111680452Y-75827697D01*
X111680454Y-75827694D01*
X111680454Y-75827692D01*
X111680456Y-75827690D01*
X111736313Y-75668059D01*
X111736313Y-75668058D01*
X111736314Y-75668056D01*
X111755249Y-75500002D01*
X111755249Y-75499997D01*
X112244751Y-75499997D01*
X112244751Y-75500002D01*
X112263685Y-75668056D01*
X112319545Y-75827694D01*
X112319547Y-75827697D01*
X112409518Y-75970884D01*
X112409523Y-75970890D01*
X112529109Y-76090476D01*
X112529115Y-76090481D01*
X112672302Y-76180452D01*
X112672305Y-76180454D01*
X112672309Y-76180455D01*
X112672310Y-76180456D01*
X112744913Y-76205860D01*
X112831943Y-76236314D01*
X112999997Y-76255249D01*
X113000000Y-76255249D01*
X113000003Y-76255249D01*
X113168056Y-76236314D01*
X113168059Y-76236313D01*
X113327690Y-76180456D01*
X113327692Y-76180454D01*
X113327694Y-76180454D01*
X113327697Y-76180452D01*
X113470884Y-76090481D01*
X113470885Y-76090480D01*
X113470890Y-76090477D01*
X113590477Y-75970890D01*
X113680452Y-75827697D01*
X113680454Y-75827694D01*
X113680454Y-75827692D01*
X113680456Y-75827690D01*
X113736313Y-75668059D01*
X113736313Y-75668058D01*
X113736314Y-75668056D01*
X113755249Y-75500002D01*
X113755249Y-75499997D01*
X113736314Y-75331943D01*
X113680454Y-75172305D01*
X113680452Y-75172302D01*
X113590481Y-75029115D01*
X113590476Y-75029109D01*
X113470890Y-74909523D01*
X113470884Y-74909518D01*
X113327697Y-74819547D01*
X113327694Y-74819545D01*
X113168056Y-74763685D01*
X113000003Y-74744751D01*
X112999997Y-74744751D01*
X112831943Y-74763685D01*
X112672305Y-74819545D01*
X112672302Y-74819547D01*
X112529115Y-74909518D01*
X112529109Y-74909523D01*
X112409523Y-75029109D01*
X112409518Y-75029115D01*
X112319547Y-75172302D01*
X112319545Y-75172305D01*
X112263685Y-75331943D01*
X112244751Y-75499997D01*
X111755249Y-75499997D01*
X111736314Y-75331943D01*
X111680454Y-75172305D01*
X111680452Y-75172302D01*
X111590481Y-75029115D01*
X111590476Y-75029109D01*
X111470890Y-74909523D01*
X111470884Y-74909518D01*
X111327697Y-74819547D01*
X111327694Y-74819545D01*
X111168056Y-74763685D01*
X111000003Y-74744751D01*
X110999997Y-74744751D01*
X110831943Y-74763685D01*
X110672305Y-74819545D01*
X110672302Y-74819547D01*
X110529115Y-74909518D01*
X110529109Y-74909523D01*
X110409523Y-75029109D01*
X110409518Y-75029115D01*
X110319547Y-75172302D01*
X110319545Y-75172305D01*
X110263685Y-75331943D01*
X110244751Y-75499997D01*
X109755249Y-75499997D01*
X109736314Y-75331943D01*
X109680454Y-75172305D01*
X109680452Y-75172302D01*
X109590481Y-75029115D01*
X109590476Y-75029109D01*
X109470890Y-74909523D01*
X109470884Y-74909518D01*
X109327697Y-74819547D01*
X109327694Y-74819545D01*
X109168056Y-74763685D01*
X109000003Y-74744751D01*
X108999997Y-74744751D01*
X108831943Y-74763685D01*
X108672305Y-74819545D01*
X108672302Y-74819547D01*
X108529115Y-74909518D01*
X108529109Y-74909523D01*
X108409523Y-75029109D01*
X108409518Y-75029115D01*
X108319547Y-75172302D01*
X108319545Y-75172305D01*
X108263685Y-75331943D01*
X108244751Y-75499997D01*
X65034345Y-75499997D01*
X65090190Y-75480456D01*
X65090192Y-75480454D01*
X65090194Y-75480454D01*
X65090197Y-75480452D01*
X65233384Y-75390481D01*
X65233385Y-75390480D01*
X65233390Y-75390477D01*
X65352977Y-75270890D01*
X65412500Y-75176160D01*
X65442952Y-75127697D01*
X65442954Y-75127694D01*
X65442954Y-75127692D01*
X65442956Y-75127690D01*
X65498813Y-74968059D01*
X65498813Y-74968058D01*
X65498814Y-74968056D01*
X65517749Y-74800002D01*
X65517749Y-74799997D01*
X65498814Y-74631943D01*
X65442954Y-74472305D01*
X65442952Y-74472302D01*
X65440874Y-74468995D01*
X117799499Y-74468995D01*
X117826418Y-74604322D01*
X117826421Y-74604332D01*
X117879221Y-74731804D01*
X117879228Y-74731817D01*
X117955885Y-74846541D01*
X117955888Y-74846545D01*
X118053454Y-74944111D01*
X118053458Y-74944114D01*
X118168182Y-75020771D01*
X118168195Y-75020778D01*
X118295667Y-75073578D01*
X118295672Y-75073580D01*
X118295676Y-75073580D01*
X118295677Y-75073581D01*
X118431004Y-75100500D01*
X118431007Y-75100500D01*
X118568995Y-75100500D01*
X118660041Y-75082389D01*
X118704328Y-75073580D01*
X118811676Y-75029115D01*
X118831804Y-75020778D01*
X118831804Y-75020777D01*
X118831811Y-75020775D01*
X118946542Y-74944114D01*
X119044114Y-74846542D01*
X119120775Y-74731811D01*
X119173580Y-74604328D01*
X119186989Y-74536917D01*
X119200500Y-74468995D01*
X119200500Y-74331004D01*
X119173581Y-74195677D01*
X119173580Y-74195676D01*
X119173580Y-74195672D01*
X119142048Y-74119547D01*
X119120778Y-74068195D01*
X119120771Y-74068182D01*
X119044114Y-73953458D01*
X119044111Y-73953454D01*
X118946545Y-73855888D01*
X118946541Y-73855885D01*
X118831817Y-73779228D01*
X118831804Y-73779221D01*
X118704332Y-73726421D01*
X118704322Y-73726418D01*
X118568995Y-73699500D01*
X118568993Y-73699500D01*
X118431007Y-73699500D01*
X118431005Y-73699500D01*
X118295677Y-73726418D01*
X118295667Y-73726421D01*
X118168195Y-73779221D01*
X118168182Y-73779228D01*
X118053458Y-73855885D01*
X118053454Y-73855888D01*
X117955888Y-73953454D01*
X117955885Y-73953458D01*
X117879228Y-74068182D01*
X117879221Y-74068195D01*
X117826421Y-74195667D01*
X117826418Y-74195677D01*
X117799500Y-74331004D01*
X117799500Y-74331007D01*
X117799500Y-74468993D01*
X117799500Y-74468995D01*
X117799499Y-74468995D01*
X65440874Y-74468995D01*
X65352981Y-74329115D01*
X65352976Y-74329109D01*
X65233390Y-74209523D01*
X65233384Y-74209518D01*
X65090197Y-74119547D01*
X65090194Y-74119545D01*
X64930556Y-74063685D01*
X64762503Y-74044751D01*
X64762497Y-74044751D01*
X64594443Y-74063685D01*
X64434805Y-74119545D01*
X64434802Y-74119547D01*
X64291615Y-74209518D01*
X64291609Y-74209523D01*
X64200181Y-74300952D01*
X64138858Y-74334437D01*
X64069166Y-74329453D01*
X64024819Y-74300952D01*
X63933390Y-74209523D01*
X63933384Y-74209518D01*
X63790197Y-74119547D01*
X63790194Y-74119545D01*
X63630556Y-74063685D01*
X63462503Y-74044751D01*
X63462497Y-74044751D01*
X63294443Y-74063685D01*
X63134805Y-74119545D01*
X63134802Y-74119547D01*
X62991615Y-74209518D01*
X62991609Y-74209523D01*
X62872023Y-74329109D01*
X62872018Y-74329115D01*
X62782047Y-74472302D01*
X62782045Y-74472305D01*
X62726185Y-74631943D01*
X62707251Y-74799997D01*
X60174656Y-74799997D01*
X60180215Y-74740000D01*
X60161397Y-74536917D01*
X60105582Y-74340750D01*
X60100729Y-74331004D01*
X60040239Y-74209523D01*
X60014673Y-74158179D01*
X59946716Y-74068189D01*
X59891762Y-73995418D01*
X59741041Y-73858019D01*
X59741039Y-73858017D01*
X59567642Y-73750655D01*
X59567635Y-73750651D01*
X59472546Y-73713814D01*
X59377456Y-73676976D01*
X59176976Y-73639500D01*
X58973024Y-73639500D01*
X58772544Y-73676976D01*
X58772541Y-73676976D01*
X58772541Y-73676977D01*
X58582364Y-73750651D01*
X58582357Y-73750655D01*
X58408960Y-73858017D01*
X58408958Y-73858019D01*
X58258237Y-73995418D01*
X58135327Y-74158178D01*
X58044422Y-74340739D01*
X58044417Y-74340752D01*
X57988602Y-74536917D01*
X57969785Y-74739999D01*
X40500500Y-74739999D01*
X40500500Y-72199999D01*
X57969785Y-72199999D01*
X57969785Y-72200000D01*
X57988602Y-72403082D01*
X58044417Y-72599247D01*
X58044422Y-72599260D01*
X58135327Y-72781821D01*
X58258237Y-72944581D01*
X58408958Y-73081980D01*
X58408960Y-73081982D01*
X58508141Y-73143392D01*
X58582363Y-73189348D01*
X58772544Y-73263024D01*
X58973024Y-73300500D01*
X58973026Y-73300500D01*
X59176974Y-73300500D01*
X59176976Y-73300500D01*
X59377456Y-73263024D01*
X59567637Y-73189348D01*
X59741041Y-73081981D01*
X59891764Y-72944579D01*
X60014673Y-72781821D01*
X60105582Y-72599250D01*
X60161397Y-72403083D01*
X60180215Y-72200000D01*
X60161397Y-71996917D01*
X60105582Y-71800750D01*
X60101534Y-71792621D01*
X60052057Y-71693257D01*
X60014673Y-71618179D01*
X59910976Y-71480862D01*
X59891762Y-71455418D01*
X59741041Y-71318019D01*
X59741039Y-71318017D01*
X59567642Y-71210655D01*
X59567635Y-71210651D01*
X59440448Y-71161379D01*
X59377456Y-71136976D01*
X59176976Y-71099500D01*
X58973024Y-71099500D01*
X58772544Y-71136976D01*
X58772541Y-71136976D01*
X58772541Y-71136977D01*
X58582364Y-71210651D01*
X58582357Y-71210655D01*
X58408960Y-71318017D01*
X58408958Y-71318019D01*
X58258237Y-71455418D01*
X58135327Y-71618178D01*
X58044422Y-71800739D01*
X58044417Y-71800752D01*
X57988602Y-71996917D01*
X57969785Y-72199999D01*
X40500500Y-72199999D01*
X40500500Y-71000000D01*
X60444750Y-71000000D01*
X60453132Y-71063670D01*
X60463670Y-71143708D01*
X60463671Y-71143712D01*
X60519137Y-71277622D01*
X60519138Y-71277624D01*
X60519139Y-71277625D01*
X60607379Y-71392621D01*
X60722375Y-71480861D01*
X60856291Y-71536330D01*
X60945210Y-71548036D01*
X61009106Y-71576302D01*
X61047577Y-71634627D01*
X61051963Y-71654789D01*
X61063670Y-71743707D01*
X61063671Y-71743712D01*
X61119137Y-71877622D01*
X61119138Y-71877624D01*
X61119139Y-71877625D01*
X61193485Y-71974515D01*
X61218679Y-72039682D01*
X61204641Y-72108127D01*
X61193489Y-72125480D01*
X61145836Y-72187581D01*
X61119137Y-72222377D01*
X61063671Y-72356287D01*
X61063670Y-72356291D01*
X61044750Y-72499999D01*
X61044750Y-72500000D01*
X61063670Y-72643708D01*
X61063671Y-72643712D01*
X61119137Y-72777622D01*
X61119138Y-72777624D01*
X61119139Y-72777625D01*
X61207379Y-72892621D01*
X61322375Y-72980861D01*
X61456291Y-73036330D01*
X61583280Y-73053048D01*
X61599999Y-73055250D01*
X61600000Y-73055250D01*
X61600001Y-73055250D01*
X61614977Y-73053278D01*
X61743709Y-73036330D01*
X61877625Y-72980861D01*
X61992621Y-72892621D01*
X62080861Y-72777625D01*
X62136330Y-72643709D01*
X62155250Y-72500000D01*
X62136330Y-72356291D01*
X62080861Y-72222375D01*
X62006514Y-72125484D01*
X61981321Y-72060318D01*
X61995359Y-71991873D01*
X62006510Y-71974519D01*
X62080861Y-71877625D01*
X62136330Y-71743709D01*
X62155250Y-71600000D01*
X62136330Y-71456291D01*
X62113014Y-71400000D01*
X75644750Y-71400000D01*
X75662698Y-71536329D01*
X75663670Y-71543708D01*
X75663671Y-71543712D01*
X75719137Y-71677622D01*
X75719138Y-71677624D01*
X75719139Y-71677625D01*
X75807379Y-71792621D01*
X75922375Y-71880861D01*
X76056291Y-71936330D01*
X76183280Y-71953048D01*
X76199999Y-71955250D01*
X76200000Y-71955250D01*
X76200001Y-71955250D01*
X76214977Y-71953278D01*
X76343709Y-71936330D01*
X76449890Y-71892348D01*
X76519359Y-71884880D01*
X76581838Y-71916155D01*
X76595717Y-71931423D01*
X76596116Y-71931943D01*
X76607379Y-71946621D01*
X76722375Y-72034861D01*
X76856291Y-72090330D01*
X76983280Y-72107048D01*
X76999999Y-72109250D01*
X77000000Y-72109250D01*
X77000001Y-72109250D01*
X77014977Y-72107278D01*
X77143709Y-72090330D01*
X77277625Y-72034861D01*
X77392621Y-71946621D01*
X77480861Y-71831625D01*
X77536330Y-71697709D01*
X77555250Y-71554000D01*
X77536330Y-71410291D01*
X77480861Y-71276375D01*
X77392621Y-71161379D01*
X77277625Y-71073139D01*
X77277624Y-71073138D01*
X77277622Y-71073137D01*
X77143712Y-71017671D01*
X77143710Y-71017670D01*
X77143709Y-71017670D01*
X77009495Y-71000000D01*
X77000001Y-70998750D01*
X76999999Y-70998750D01*
X76856291Y-71017670D01*
X76750108Y-71061651D01*
X76680639Y-71069118D01*
X76618160Y-71037843D01*
X76604281Y-71022575D01*
X76600517Y-71017670D01*
X76592621Y-71007379D01*
X76477625Y-70919139D01*
X76477624Y-70919138D01*
X76477622Y-70919137D01*
X76343712Y-70863671D01*
X76343710Y-70863670D01*
X76343709Y-70863670D01*
X76271854Y-70854210D01*
X76200001Y-70844750D01*
X76199999Y-70844750D01*
X76056291Y-70863670D01*
X76056287Y-70863671D01*
X75922377Y-70919137D01*
X75807379Y-71007379D01*
X75719137Y-71122377D01*
X75663671Y-71256287D01*
X75663670Y-71256291D01*
X75645722Y-71392620D01*
X75644750Y-71400000D01*
X62113014Y-71400000D01*
X62080861Y-71322375D01*
X61992621Y-71207379D01*
X61877625Y-71119139D01*
X61877624Y-71119138D01*
X61877622Y-71119137D01*
X61743712Y-71063671D01*
X61743710Y-71063670D01*
X61743709Y-71063670D01*
X61697427Y-71057576D01*
X61654789Y-71051963D01*
X61590892Y-71023696D01*
X61552422Y-70965371D01*
X61548036Y-70945209D01*
X61546867Y-70936330D01*
X61536330Y-70856291D01*
X61480861Y-70722375D01*
X61463690Y-70699997D01*
X98944751Y-70699997D01*
X98944751Y-70700002D01*
X98963685Y-70868056D01*
X99019545Y-71027694D01*
X99019547Y-71027697D01*
X99109518Y-71170884D01*
X99109523Y-71170890D01*
X99229109Y-71290476D01*
X99229112Y-71290478D01*
X99236319Y-71295007D01*
X99282610Y-71347342D01*
X99293257Y-71416396D01*
X99264881Y-71480244D01*
X99236319Y-71504993D01*
X99229112Y-71509521D01*
X99229109Y-71509523D01*
X99109523Y-71629109D01*
X99109518Y-71629115D01*
X99019547Y-71772302D01*
X99019545Y-71772305D01*
X98963685Y-71931943D01*
X98944751Y-72099997D01*
X98944751Y-72100002D01*
X98963685Y-72268056D01*
X99019545Y-72427694D01*
X99019547Y-72427697D01*
X99109518Y-72570884D01*
X99109523Y-72570890D01*
X99229109Y-72690476D01*
X99229115Y-72690481D01*
X99372302Y-72780452D01*
X99372305Y-72780454D01*
X99372309Y-72780455D01*
X99372310Y-72780456D01*
X99444913Y-72805860D01*
X99531943Y-72836314D01*
X99699997Y-72855249D01*
X99700000Y-72855249D01*
X99700003Y-72855249D01*
X99868056Y-72836314D01*
X99868059Y-72836313D01*
X100027690Y-72780456D01*
X100027692Y-72780454D01*
X100027694Y-72780454D01*
X100027697Y-72780452D01*
X100170884Y-72690481D01*
X100170885Y-72690480D01*
X100170890Y-72690477D01*
X100290477Y-72570890D01*
X100295006Y-72563682D01*
X100347338Y-72517391D01*
X100416391Y-72506741D01*
X100480240Y-72535115D01*
X100504995Y-72563683D01*
X100509523Y-72570890D01*
X100629109Y-72690476D01*
X100629115Y-72690481D01*
X100772302Y-72780452D01*
X100772305Y-72780454D01*
X100772309Y-72780455D01*
X100772310Y-72780456D01*
X100844913Y-72805860D01*
X100931943Y-72836314D01*
X101099997Y-72855249D01*
X101100000Y-72855249D01*
X101100003Y-72855249D01*
X101268056Y-72836314D01*
X101268059Y-72836313D01*
X101427690Y-72780456D01*
X101427692Y-72780454D01*
X101427694Y-72780454D01*
X101427697Y-72780452D01*
X101570884Y-72690481D01*
X101570885Y-72690480D01*
X101570890Y-72690477D01*
X101690477Y-72570890D01*
X101695006Y-72563682D01*
X101747338Y-72517391D01*
X101816391Y-72506741D01*
X101880240Y-72535115D01*
X101904995Y-72563683D01*
X101909523Y-72570890D01*
X102029109Y-72690476D01*
X102029115Y-72690481D01*
X102172302Y-72780452D01*
X102172305Y-72780454D01*
X102172309Y-72780455D01*
X102172310Y-72780456D01*
X102244913Y-72805860D01*
X102331943Y-72836314D01*
X102499997Y-72855249D01*
X102500000Y-72855249D01*
X102500003Y-72855249D01*
X102668056Y-72836314D01*
X102668059Y-72836313D01*
X102827690Y-72780456D01*
X102827692Y-72780454D01*
X102827694Y-72780454D01*
X102827697Y-72780452D01*
X102970884Y-72690481D01*
X102970885Y-72690480D01*
X102970890Y-72690477D01*
X103090477Y-72570890D01*
X103090481Y-72570884D01*
X103180452Y-72427697D01*
X103180454Y-72427694D01*
X103180454Y-72427692D01*
X103180456Y-72427690D01*
X103236313Y-72268059D01*
X103236313Y-72268058D01*
X103236314Y-72268056D01*
X103255249Y-72100002D01*
X103255249Y-72099997D01*
X103236314Y-71931943D01*
X103190408Y-71800752D01*
X103180456Y-71772310D01*
X103180455Y-71772309D01*
X103180454Y-71772305D01*
X103180452Y-71772302D01*
X103090481Y-71629115D01*
X103090476Y-71629109D01*
X102970890Y-71509523D01*
X102970887Y-71509521D01*
X102963682Y-71504993D01*
X102917391Y-71452662D01*
X102906741Y-71383609D01*
X102935115Y-71319760D01*
X102963680Y-71295006D01*
X102970890Y-71290477D01*
X103090477Y-71170890D01*
X103090481Y-71170884D01*
X103180452Y-71027697D01*
X103180454Y-71027694D01*
X103180454Y-71027692D01*
X103180456Y-71027690D01*
X103236313Y-70868059D01*
X103236313Y-70868058D01*
X103236314Y-70868056D01*
X103255249Y-70700002D01*
X103255249Y-70699997D01*
X103236314Y-70531943D01*
X103190145Y-70400000D01*
X103844750Y-70400000D01*
X103853132Y-70463670D01*
X103863670Y-70543708D01*
X103863671Y-70543712D01*
X103919137Y-70677622D01*
X103919138Y-70677624D01*
X103919139Y-70677625D01*
X104007379Y-70792621D01*
X104122375Y-70880861D01*
X104256291Y-70936330D01*
X104383280Y-70953048D01*
X104399999Y-70955250D01*
X104400000Y-70955250D01*
X104400001Y-70955250D01*
X104414977Y-70953278D01*
X104543709Y-70936330D01*
X104631419Y-70900000D01*
X107744750Y-70900000D01*
X107757916Y-71000000D01*
X107763670Y-71043708D01*
X107763671Y-71043712D01*
X107819137Y-71177622D01*
X107819138Y-71177624D01*
X107819139Y-71177625D01*
X107907379Y-71292621D01*
X108022375Y-71380861D01*
X108022376Y-71380861D01*
X108022377Y-71380862D01*
X108067013Y-71399350D01*
X108156291Y-71436330D01*
X108280343Y-71452662D01*
X108299999Y-71455250D01*
X108300000Y-71455250D01*
X108300001Y-71455250D01*
X108319657Y-71452662D01*
X108443709Y-71436330D01*
X108577625Y-71380861D01*
X108692621Y-71292621D01*
X108780861Y-71177625D01*
X108836330Y-71043709D01*
X108842085Y-71000000D01*
X113244750Y-71000000D01*
X113253132Y-71063670D01*
X113263670Y-71143708D01*
X113263671Y-71143712D01*
X113319137Y-71277622D01*
X113319138Y-71277624D01*
X113319139Y-71277625D01*
X113407379Y-71392621D01*
X113522375Y-71480861D01*
X113656291Y-71536330D01*
X113783280Y-71553048D01*
X113799999Y-71555250D01*
X113800000Y-71555250D01*
X113800001Y-71555250D01*
X113814977Y-71553278D01*
X113943709Y-71536330D01*
X114077625Y-71480861D01*
X114192621Y-71392621D01*
X114280861Y-71277625D01*
X114336330Y-71143709D01*
X114355250Y-71000000D01*
X114355085Y-70998750D01*
X114348036Y-70945209D01*
X114336330Y-70856291D01*
X114280861Y-70722375D01*
X114192621Y-70607379D01*
X114077625Y-70519139D01*
X114077624Y-70519138D01*
X114077622Y-70519137D01*
X113943712Y-70463671D01*
X113943710Y-70463670D01*
X113943709Y-70463670D01*
X113871854Y-70454210D01*
X113800001Y-70444750D01*
X113799999Y-70444750D01*
X113656291Y-70463670D01*
X113656287Y-70463671D01*
X113522377Y-70519137D01*
X113407379Y-70607379D01*
X113319137Y-70722377D01*
X113263671Y-70856287D01*
X113263670Y-70856291D01*
X113244915Y-70998750D01*
X113244750Y-71000000D01*
X108842085Y-71000000D01*
X108855250Y-70900000D01*
X108836330Y-70756291D01*
X108780861Y-70622375D01*
X108692621Y-70507379D01*
X108577625Y-70419139D01*
X108577624Y-70419138D01*
X108577622Y-70419137D01*
X108443712Y-70363671D01*
X108443710Y-70363670D01*
X108443709Y-70363670D01*
X108371854Y-70354210D01*
X108300001Y-70344750D01*
X108299999Y-70344750D01*
X108156291Y-70363670D01*
X108156287Y-70363671D01*
X108022377Y-70419137D01*
X107907379Y-70507379D01*
X107819137Y-70622377D01*
X107763671Y-70756287D01*
X107763670Y-70756291D01*
X107747270Y-70880862D01*
X107744750Y-70900000D01*
X104631419Y-70900000D01*
X104677625Y-70880861D01*
X104792621Y-70792621D01*
X104880861Y-70677625D01*
X104936330Y-70543709D01*
X104955250Y-70400000D01*
X104936330Y-70256291D01*
X104880861Y-70122375D01*
X104792621Y-70007379D01*
X104677625Y-69919139D01*
X104677624Y-69919138D01*
X104677622Y-69919137D01*
X104543712Y-69863671D01*
X104543710Y-69863670D01*
X104543709Y-69863670D01*
X104471854Y-69854210D01*
X104400001Y-69844750D01*
X104399999Y-69844750D01*
X104256291Y-69863670D01*
X104256287Y-69863671D01*
X104122377Y-69919137D01*
X104007379Y-70007379D01*
X103919137Y-70122377D01*
X103863671Y-70256287D01*
X103863670Y-70256291D01*
X103848396Y-70372310D01*
X103844750Y-70400000D01*
X103190145Y-70400000D01*
X103180454Y-70372305D01*
X103180452Y-70372302D01*
X103090481Y-70229115D01*
X103090476Y-70229109D01*
X102970890Y-70109523D01*
X102970884Y-70109518D01*
X102827697Y-70019547D01*
X102827694Y-70019545D01*
X102668056Y-69963685D01*
X102500003Y-69944751D01*
X102499997Y-69944751D01*
X102331943Y-69963685D01*
X102172305Y-70019545D01*
X102172302Y-70019547D01*
X102029115Y-70109518D01*
X102029109Y-70109523D01*
X101909523Y-70229109D01*
X101909521Y-70229112D01*
X101904993Y-70236319D01*
X101852658Y-70282610D01*
X101783604Y-70293257D01*
X101719756Y-70264881D01*
X101695007Y-70236319D01*
X101690478Y-70229112D01*
X101690476Y-70229109D01*
X101570890Y-70109523D01*
X101570884Y-70109518D01*
X101427697Y-70019547D01*
X101427694Y-70019545D01*
X101268056Y-69963685D01*
X101100003Y-69944751D01*
X101099997Y-69944751D01*
X100931943Y-69963685D01*
X100772305Y-70019545D01*
X100772302Y-70019547D01*
X100629115Y-70109518D01*
X100629109Y-70109523D01*
X100509523Y-70229109D01*
X100509521Y-70229112D01*
X100504993Y-70236319D01*
X100452658Y-70282610D01*
X100383604Y-70293257D01*
X100319756Y-70264881D01*
X100295007Y-70236319D01*
X100290478Y-70229112D01*
X100290476Y-70229109D01*
X100170890Y-70109523D01*
X100170884Y-70109518D01*
X100027697Y-70019547D01*
X100027694Y-70019545D01*
X99868056Y-69963685D01*
X99700003Y-69944751D01*
X99699997Y-69944751D01*
X99531943Y-69963685D01*
X99372305Y-70019545D01*
X99372302Y-70019547D01*
X99229115Y-70109518D01*
X99229109Y-70109523D01*
X99109523Y-70229109D01*
X99109518Y-70229115D01*
X99019547Y-70372302D01*
X99019545Y-70372305D01*
X98963685Y-70531943D01*
X98944751Y-70699997D01*
X61463690Y-70699997D01*
X61392621Y-70607379D01*
X61277625Y-70519139D01*
X61277624Y-70519138D01*
X61277622Y-70519137D01*
X61143712Y-70463671D01*
X61143710Y-70463670D01*
X61143709Y-70463670D01*
X61071854Y-70454210D01*
X61000001Y-70444750D01*
X60999999Y-70444750D01*
X60856291Y-70463670D01*
X60856287Y-70463671D01*
X60722377Y-70519137D01*
X60607379Y-70607379D01*
X60519137Y-70722377D01*
X60463671Y-70856287D01*
X60463670Y-70856291D01*
X60444915Y-70998750D01*
X60444750Y-71000000D01*
X40500500Y-71000000D01*
X40500500Y-69659999D01*
X57969785Y-69659999D01*
X57969785Y-69660000D01*
X57988602Y-69863082D01*
X58044417Y-70059247D01*
X58044422Y-70059260D01*
X58135327Y-70241821D01*
X58258237Y-70404581D01*
X58408958Y-70541980D01*
X58408960Y-70541982D01*
X58508141Y-70603392D01*
X58582363Y-70649348D01*
X58772544Y-70723024D01*
X58973024Y-70760500D01*
X58973026Y-70760500D01*
X59176974Y-70760500D01*
X59176976Y-70760500D01*
X59377456Y-70723024D01*
X59567637Y-70649348D01*
X59741041Y-70541981D01*
X59891764Y-70404579D01*
X60014673Y-70241821D01*
X60105582Y-70059250D01*
X60161397Y-69863083D01*
X60180215Y-69660000D01*
X60161397Y-69456917D01*
X60105582Y-69260750D01*
X60014673Y-69078179D01*
X59891764Y-68915421D01*
X59891762Y-68915418D01*
X59741041Y-68778019D01*
X59741039Y-68778017D01*
X59567642Y-68670655D01*
X59567635Y-68670651D01*
X59472546Y-68633814D01*
X59377456Y-68596976D01*
X59176976Y-68559500D01*
X58973024Y-68559500D01*
X58772544Y-68596976D01*
X58772541Y-68596976D01*
X58772541Y-68596977D01*
X58582364Y-68670651D01*
X58582357Y-68670655D01*
X58408960Y-68778017D01*
X58408958Y-68778019D01*
X58258237Y-68915418D01*
X58135327Y-69078178D01*
X58044422Y-69260739D01*
X58044417Y-69260752D01*
X57988602Y-69456917D01*
X57969785Y-69659999D01*
X40500500Y-69659999D01*
X40500500Y-68500000D01*
X107544750Y-68500000D01*
X107552583Y-68559500D01*
X107563670Y-68643708D01*
X107563671Y-68643712D01*
X107619137Y-68777622D01*
X107619138Y-68777624D01*
X107619139Y-68777625D01*
X107707379Y-68892621D01*
X107822375Y-68980861D01*
X107956291Y-69036330D01*
X108083280Y-69053048D01*
X108099999Y-69055250D01*
X108100000Y-69055250D01*
X108100001Y-69055250D01*
X108114977Y-69053278D01*
X108243709Y-69036330D01*
X108377625Y-68980861D01*
X108492621Y-68892621D01*
X108580861Y-68777625D01*
X108636330Y-68643709D01*
X108655250Y-68500000D01*
X108636330Y-68356291D01*
X108580861Y-68222375D01*
X108492621Y-68107379D01*
X108377625Y-68019139D01*
X108377624Y-68019138D01*
X108377622Y-68019137D01*
X108243712Y-67963671D01*
X108243710Y-67963670D01*
X108243709Y-67963670D01*
X108171854Y-67954210D01*
X108100001Y-67944750D01*
X108099999Y-67944750D01*
X107956291Y-67963670D01*
X107956287Y-67963671D01*
X107822377Y-68019137D01*
X107707379Y-68107379D01*
X107619137Y-68222377D01*
X107563671Y-68356287D01*
X107563670Y-68356291D01*
X107544750Y-68500000D01*
X40500500Y-68500000D01*
X40500500Y-67119999D01*
X57969785Y-67119999D01*
X57969785Y-67120000D01*
X57988602Y-67323082D01*
X58044417Y-67519247D01*
X58044422Y-67519260D01*
X58135327Y-67701821D01*
X58258237Y-67864581D01*
X58408958Y-68001980D01*
X58408960Y-68001982D01*
X58480932Y-68046545D01*
X58582363Y-68109348D01*
X58772544Y-68183024D01*
X58973024Y-68220500D01*
X58973026Y-68220500D01*
X59176974Y-68220500D01*
X59176976Y-68220500D01*
X59377456Y-68183024D01*
X59567637Y-68109348D01*
X59741041Y-68001981D01*
X59891764Y-67864579D01*
X60014673Y-67701821D01*
X60105582Y-67519250D01*
X60139512Y-67400000D01*
X63894353Y-67400000D01*
X63914834Y-67542456D01*
X63956619Y-67633951D01*
X63974623Y-67673373D01*
X64068872Y-67782143D01*
X64189947Y-67859953D01*
X64189950Y-67859954D01*
X64189949Y-67859954D01*
X64328036Y-67900499D01*
X64328038Y-67900500D01*
X64328039Y-67900500D01*
X64471962Y-67900500D01*
X64471962Y-67900499D01*
X64610053Y-67859953D01*
X64731128Y-67782143D01*
X64825377Y-67673373D01*
X64885165Y-67542457D01*
X64905647Y-67400000D01*
X64885165Y-67257543D01*
X64852514Y-67186048D01*
X69329500Y-67186048D01*
X69329500Y-67633951D01*
X69332317Y-67675499D01*
X69376963Y-67855021D01*
X69376964Y-67855023D01*
X69459156Y-68020750D01*
X69459157Y-68020751D01*
X69459158Y-68020753D01*
X69492945Y-68062785D01*
X69575059Y-68164940D01*
X69646514Y-68222377D01*
X69719247Y-68280842D01*
X69884979Y-68363037D01*
X70064501Y-68407682D01*
X70064502Y-68407682D01*
X70064505Y-68407683D01*
X70106046Y-68410500D01*
X70106048Y-68410500D01*
X72553952Y-68410500D01*
X72553954Y-68410500D01*
X72595495Y-68407683D01*
X72775021Y-68363037D01*
X72940753Y-68280842D01*
X73084940Y-68164940D01*
X73200842Y-68020753D01*
X73283037Y-67855021D01*
X73327683Y-67675495D01*
X73330500Y-67633954D01*
X73330500Y-67186048D01*
X86669500Y-67186048D01*
X86669500Y-67633951D01*
X86672317Y-67675499D01*
X86716963Y-67855021D01*
X86716964Y-67855023D01*
X86799156Y-68020750D01*
X86799157Y-68020751D01*
X86799158Y-68020753D01*
X86832945Y-68062785D01*
X86915059Y-68164940D01*
X86986514Y-68222377D01*
X87059247Y-68280842D01*
X87224979Y-68363037D01*
X87404501Y-68407682D01*
X87404502Y-68407682D01*
X87404505Y-68407683D01*
X87446046Y-68410500D01*
X87446048Y-68410500D01*
X89893952Y-68410500D01*
X89893954Y-68410500D01*
X89935495Y-68407683D01*
X90115021Y-68363037D01*
X90280753Y-68280842D01*
X90424940Y-68164940D01*
X90540842Y-68020753D01*
X90623037Y-67855021D01*
X90667683Y-67675495D01*
X90668124Y-67668995D01*
X117799499Y-67668995D01*
X117826418Y-67804322D01*
X117826421Y-67804332D01*
X117879221Y-67931804D01*
X117879228Y-67931817D01*
X117955885Y-68046541D01*
X117955888Y-68046545D01*
X118053454Y-68144111D01*
X118053458Y-68144114D01*
X118168182Y-68220771D01*
X118168195Y-68220778D01*
X118295667Y-68273578D01*
X118295672Y-68273580D01*
X118295676Y-68273580D01*
X118295677Y-68273581D01*
X118431004Y-68300500D01*
X118431007Y-68300500D01*
X118568995Y-68300500D01*
X118667820Y-68280842D01*
X118704328Y-68273580D01*
X118802924Y-68232740D01*
X118831804Y-68220778D01*
X118831804Y-68220777D01*
X118831811Y-68220775D01*
X118946542Y-68144114D01*
X119044114Y-68046542D01*
X119120775Y-67931811D01*
X119173580Y-67804328D01*
X119199629Y-67673373D01*
X119200500Y-67668995D01*
X119200500Y-67531004D01*
X119173581Y-67395677D01*
X119173580Y-67395676D01*
X119173580Y-67395672D01*
X119143513Y-67323083D01*
X119120778Y-67268195D01*
X119120771Y-67268182D01*
X119044114Y-67153458D01*
X119044111Y-67153454D01*
X118946545Y-67055888D01*
X118946541Y-67055885D01*
X118831817Y-66979228D01*
X118831804Y-66979221D01*
X118704332Y-66926421D01*
X118704322Y-66926418D01*
X118568995Y-66899500D01*
X118568993Y-66899500D01*
X118431007Y-66899500D01*
X118431005Y-66899500D01*
X118295677Y-66926418D01*
X118295667Y-66926421D01*
X118168195Y-66979221D01*
X118168182Y-66979228D01*
X118053458Y-67055885D01*
X118053454Y-67055888D01*
X117955888Y-67153454D01*
X117955885Y-67153458D01*
X117879228Y-67268182D01*
X117879221Y-67268195D01*
X117826421Y-67395667D01*
X117826418Y-67395677D01*
X117799500Y-67531004D01*
X117799500Y-67531007D01*
X117799500Y-67668993D01*
X117799500Y-67668995D01*
X117799499Y-67668995D01*
X90668124Y-67668995D01*
X90670500Y-67633954D01*
X90670500Y-67186046D01*
X90667683Y-67144505D01*
X90623037Y-66964979D01*
X90540842Y-66799247D01*
X90477735Y-66720739D01*
X90424940Y-66655059D01*
X90322785Y-66572945D01*
X90280753Y-66539158D01*
X90280751Y-66539157D01*
X90280750Y-66539156D01*
X90115023Y-66456964D01*
X90115021Y-66456963D01*
X89935497Y-66412317D01*
X89935501Y-66412317D01*
X89904339Y-66410204D01*
X89893954Y-66409500D01*
X87446046Y-66409500D01*
X87434177Y-66410304D01*
X87404500Y-66412317D01*
X87224978Y-66456963D01*
X87224976Y-66456964D01*
X87059249Y-66539156D01*
X86915059Y-66655059D01*
X86799156Y-66799249D01*
X86716964Y-66964976D01*
X86716963Y-66964978D01*
X86672317Y-67144500D01*
X86669500Y-67186048D01*
X73330500Y-67186048D01*
X73330500Y-67186046D01*
X73327683Y-67144505D01*
X73283037Y-66964979D01*
X73200842Y-66799247D01*
X73137735Y-66720739D01*
X73084940Y-66655059D01*
X72982785Y-66572945D01*
X72940753Y-66539158D01*
X72940751Y-66539157D01*
X72940750Y-66539156D01*
X72775023Y-66456964D01*
X72775021Y-66456963D01*
X72595497Y-66412317D01*
X72595501Y-66412317D01*
X72564339Y-66410204D01*
X72553954Y-66409500D01*
X70106046Y-66409500D01*
X70094177Y-66410304D01*
X70064500Y-66412317D01*
X69884978Y-66456963D01*
X69884976Y-66456964D01*
X69719249Y-66539156D01*
X69575059Y-66655059D01*
X69459156Y-66799249D01*
X69376964Y-66964976D01*
X69376963Y-66964978D01*
X69332317Y-67144500D01*
X69329500Y-67186048D01*
X64852514Y-67186048D01*
X64825377Y-67126627D01*
X64731128Y-67017857D01*
X64610053Y-66940047D01*
X64610051Y-66940046D01*
X64610049Y-66940045D01*
X64610050Y-66940045D01*
X64471963Y-66899500D01*
X64471961Y-66899500D01*
X64328039Y-66899500D01*
X64328036Y-66899500D01*
X64189949Y-66940045D01*
X64068873Y-67017856D01*
X63974623Y-67126626D01*
X63974622Y-67126628D01*
X63914834Y-67257543D01*
X63894353Y-67400000D01*
X60139512Y-67400000D01*
X60161397Y-67323083D01*
X60180215Y-67120000D01*
X60161397Y-66916917D01*
X60105582Y-66720750D01*
X60072872Y-66655060D01*
X60015159Y-66539156D01*
X60014673Y-66538179D01*
X59891764Y-66375421D01*
X59891762Y-66375418D01*
X59741041Y-66238019D01*
X59741039Y-66238017D01*
X59567642Y-66130655D01*
X59567635Y-66130651D01*
X59472546Y-66093814D01*
X59377456Y-66056976D01*
X59176976Y-66019500D01*
X58973024Y-66019500D01*
X58772544Y-66056976D01*
X58772541Y-66056976D01*
X58772541Y-66056977D01*
X58582364Y-66130651D01*
X58582357Y-66130655D01*
X58408960Y-66238017D01*
X58408958Y-66238019D01*
X58258237Y-66375418D01*
X58135327Y-66538178D01*
X58044422Y-66720739D01*
X58044417Y-66720752D01*
X57988602Y-66916917D01*
X57969785Y-67119999D01*
X40500500Y-67119999D01*
X40500500Y-63705321D01*
X57974500Y-63705321D01*
X57974500Y-65454678D01*
X57989032Y-65527735D01*
X57989033Y-65527739D01*
X57989034Y-65527740D01*
X58044399Y-65610601D01*
X58127260Y-65665966D01*
X58127264Y-65665967D01*
X58200321Y-65680499D01*
X58200324Y-65680500D01*
X58200326Y-65680500D01*
X59949676Y-65680500D01*
X59949677Y-65680499D01*
X60022740Y-65665966D01*
X60105601Y-65610601D01*
X60160966Y-65527740D01*
X60175500Y-65454674D01*
X60175500Y-64799999D01*
X63844750Y-64799999D01*
X63844750Y-64800000D01*
X63863670Y-64943708D01*
X63863671Y-64943712D01*
X63919137Y-65077622D01*
X63919138Y-65077624D01*
X63919139Y-65077625D01*
X64007379Y-65192621D01*
X64122375Y-65280861D01*
X64256291Y-65336330D01*
X64383280Y-65353048D01*
X64399999Y-65355250D01*
X64400000Y-65355250D01*
X64400001Y-65355250D01*
X64414977Y-65353278D01*
X64543709Y-65336330D01*
X64677625Y-65280861D01*
X64792621Y-65192621D01*
X64880861Y-65077625D01*
X64936330Y-64943709D01*
X64955250Y-64800000D01*
X64936330Y-64656291D01*
X64932087Y-64646048D01*
X69329500Y-64646048D01*
X69329500Y-65093951D01*
X69332317Y-65135499D01*
X69376963Y-65315021D01*
X69376964Y-65315023D01*
X69459156Y-65480750D01*
X69575059Y-65624940D01*
X69626098Y-65665966D01*
X69719247Y-65740842D01*
X69884979Y-65823037D01*
X70064501Y-65867682D01*
X70064502Y-65867682D01*
X70064505Y-65867683D01*
X70106046Y-65870500D01*
X70106048Y-65870500D01*
X72553952Y-65870500D01*
X72553954Y-65870500D01*
X72595495Y-65867683D01*
X72775021Y-65823037D01*
X72940753Y-65740842D01*
X73084940Y-65624940D01*
X73200842Y-65480753D01*
X73283037Y-65315021D01*
X73327683Y-65135495D01*
X73330500Y-65093954D01*
X73330500Y-64646048D01*
X86669500Y-64646048D01*
X86669500Y-65093951D01*
X86672317Y-65135499D01*
X86716963Y-65315021D01*
X86716964Y-65315023D01*
X86799156Y-65480750D01*
X86915059Y-65624940D01*
X86966098Y-65665966D01*
X87059247Y-65740842D01*
X87224979Y-65823037D01*
X87404501Y-65867682D01*
X87404502Y-65867682D01*
X87404505Y-65867683D01*
X87446046Y-65870500D01*
X87446048Y-65870500D01*
X89893952Y-65870500D01*
X89893954Y-65870500D01*
X89935495Y-65867683D01*
X90115021Y-65823037D01*
X90280753Y-65740842D01*
X90424940Y-65624940D01*
X90540842Y-65480753D01*
X90623037Y-65315021D01*
X90667683Y-65135495D01*
X90670500Y-65093954D01*
X90670500Y-64646046D01*
X90667683Y-64604505D01*
X90623037Y-64424979D01*
X90540842Y-64259247D01*
X90490945Y-64197173D01*
X90424940Y-64115059D01*
X90322785Y-64032945D01*
X90280753Y-63999158D01*
X90280751Y-63999157D01*
X90280750Y-63999156D01*
X90115023Y-63916964D01*
X90115021Y-63916963D01*
X89935497Y-63872317D01*
X89935501Y-63872317D01*
X89904339Y-63870204D01*
X89893954Y-63869500D01*
X87446046Y-63869500D01*
X87434177Y-63870304D01*
X87404500Y-63872317D01*
X87224978Y-63916963D01*
X87224976Y-63916964D01*
X87059249Y-63999156D01*
X86915059Y-64115059D01*
X86799156Y-64259249D01*
X86716964Y-64424976D01*
X86716963Y-64424978D01*
X86672317Y-64604500D01*
X86669500Y-64646048D01*
X73330500Y-64646048D01*
X73330500Y-64646046D01*
X73327683Y-64604505D01*
X73283037Y-64424979D01*
X73200842Y-64259247D01*
X73150945Y-64197173D01*
X73084940Y-64115059D01*
X72982785Y-64032945D01*
X72940753Y-63999158D01*
X72940751Y-63999157D01*
X72940750Y-63999156D01*
X72775023Y-63916964D01*
X72775021Y-63916963D01*
X72595497Y-63872317D01*
X72595501Y-63872317D01*
X72564339Y-63870204D01*
X72553954Y-63869500D01*
X70106046Y-63869500D01*
X70094177Y-63870304D01*
X70064500Y-63872317D01*
X69884978Y-63916963D01*
X69884976Y-63916964D01*
X69719249Y-63999156D01*
X69575059Y-64115059D01*
X69459156Y-64259249D01*
X69376964Y-64424976D01*
X69376963Y-64424978D01*
X69332317Y-64604500D01*
X69329500Y-64646048D01*
X64932087Y-64646048D01*
X64880861Y-64522375D01*
X64792621Y-64407379D01*
X64677625Y-64319139D01*
X64677624Y-64319138D01*
X64677622Y-64319137D01*
X64543712Y-64263671D01*
X64543710Y-64263670D01*
X64543709Y-64263670D01*
X64471854Y-64254210D01*
X64400001Y-64244750D01*
X64399999Y-64244750D01*
X64256291Y-64263670D01*
X64256287Y-64263671D01*
X64122377Y-64319137D01*
X64007379Y-64407379D01*
X63919137Y-64522377D01*
X63863671Y-64656287D01*
X63863670Y-64656291D01*
X63844750Y-64799999D01*
X60175500Y-64799999D01*
X60175500Y-63705326D01*
X60175500Y-63705323D01*
X60175499Y-63705321D01*
X60160967Y-63632264D01*
X60160966Y-63632260D01*
X60105601Y-63549399D01*
X60022740Y-63494034D01*
X60022739Y-63494033D01*
X60022735Y-63494032D01*
X59949677Y-63479500D01*
X59949674Y-63479500D01*
X58200326Y-63479500D01*
X58200323Y-63479500D01*
X58127264Y-63494032D01*
X58127260Y-63494033D01*
X58044399Y-63549399D01*
X57989033Y-63632260D01*
X57989032Y-63632264D01*
X57974500Y-63705321D01*
X40500500Y-63705321D01*
X40500500Y-62199999D01*
X63844750Y-62199999D01*
X63844750Y-62200000D01*
X63863670Y-62343708D01*
X63863671Y-62343712D01*
X63919137Y-62477622D01*
X63919138Y-62477624D01*
X63919139Y-62477625D01*
X64007379Y-62592621D01*
X64122375Y-62680861D01*
X64256291Y-62736330D01*
X64383280Y-62753048D01*
X64399999Y-62755250D01*
X64400000Y-62755250D01*
X64400001Y-62755250D01*
X64414977Y-62753278D01*
X64543709Y-62736330D01*
X64677625Y-62680861D01*
X64792621Y-62592621D01*
X64880861Y-62477625D01*
X64936330Y-62343709D01*
X64955250Y-62200000D01*
X64942881Y-62106048D01*
X69329500Y-62106048D01*
X69329500Y-62553951D01*
X69332317Y-62595499D01*
X69376963Y-62775021D01*
X69376964Y-62775023D01*
X69459156Y-62940750D01*
X69575059Y-63084940D01*
X69657173Y-63150945D01*
X69719247Y-63200842D01*
X69884979Y-63283037D01*
X70064501Y-63327682D01*
X70064502Y-63327682D01*
X70064505Y-63327683D01*
X70106046Y-63330500D01*
X70106048Y-63330500D01*
X72553952Y-63330500D01*
X72553954Y-63330500D01*
X72595495Y-63327683D01*
X72775021Y-63283037D01*
X72940753Y-63200842D01*
X73084940Y-63084940D01*
X73200842Y-62940753D01*
X73283037Y-62775021D01*
X73327683Y-62595495D01*
X73330500Y-62553954D01*
X73330500Y-62106048D01*
X86669500Y-62106048D01*
X86669500Y-62553951D01*
X86672317Y-62595499D01*
X86716963Y-62775021D01*
X86716964Y-62775023D01*
X86799156Y-62940750D01*
X86915059Y-63084940D01*
X86997173Y-63150945D01*
X87059247Y-63200842D01*
X87224979Y-63283037D01*
X87404501Y-63327682D01*
X87404502Y-63327682D01*
X87404505Y-63327683D01*
X87446046Y-63330500D01*
X87446048Y-63330500D01*
X89893952Y-63330500D01*
X89893954Y-63330500D01*
X89935495Y-63327683D01*
X90115021Y-63283037D01*
X90280753Y-63200842D01*
X90424940Y-63084940D01*
X90540842Y-62940753D01*
X90623037Y-62775021D01*
X90667683Y-62595495D01*
X90670500Y-62553954D01*
X90670500Y-62106046D01*
X90667683Y-62064505D01*
X90623037Y-61884979D01*
X90540842Y-61719247D01*
X90480959Y-61644750D01*
X90424940Y-61575059D01*
X90322785Y-61492945D01*
X90280753Y-61459158D01*
X90280751Y-61459157D01*
X90280750Y-61459156D01*
X90115023Y-61376964D01*
X90115021Y-61376963D01*
X89935497Y-61332317D01*
X89935501Y-61332317D01*
X89904339Y-61330204D01*
X89893954Y-61329500D01*
X87446046Y-61329500D01*
X87434177Y-61330304D01*
X87404500Y-61332317D01*
X87224978Y-61376963D01*
X87224976Y-61376964D01*
X87059249Y-61459156D01*
X86915059Y-61575059D01*
X86799156Y-61719249D01*
X86716964Y-61884976D01*
X86716963Y-61884978D01*
X86672317Y-62064500D01*
X86669500Y-62106048D01*
X73330500Y-62106048D01*
X73330500Y-62106046D01*
X73327683Y-62064505D01*
X73283037Y-61884979D01*
X73200842Y-61719247D01*
X73140959Y-61644750D01*
X73084940Y-61575059D01*
X72982785Y-61492945D01*
X72940753Y-61459158D01*
X72940751Y-61459157D01*
X72940750Y-61459156D01*
X72775023Y-61376964D01*
X72775021Y-61376963D01*
X72595497Y-61332317D01*
X72595501Y-61332317D01*
X72564339Y-61330204D01*
X72553954Y-61329500D01*
X70106046Y-61329500D01*
X70094177Y-61330304D01*
X70064500Y-61332317D01*
X69884978Y-61376963D01*
X69884976Y-61376964D01*
X69719249Y-61459156D01*
X69575059Y-61575059D01*
X69459156Y-61719249D01*
X69376964Y-61884976D01*
X69376963Y-61884978D01*
X69332317Y-62064500D01*
X69329500Y-62106048D01*
X64942881Y-62106048D01*
X64936330Y-62056291D01*
X64880861Y-61922375D01*
X64792621Y-61807379D01*
X64677625Y-61719139D01*
X64677624Y-61719138D01*
X64677622Y-61719137D01*
X64543712Y-61663671D01*
X64543710Y-61663670D01*
X64543709Y-61663670D01*
X64471854Y-61654210D01*
X64400001Y-61644750D01*
X64399999Y-61644750D01*
X64256291Y-61663670D01*
X64256287Y-61663671D01*
X64122377Y-61719137D01*
X64007379Y-61807379D01*
X63919137Y-61922377D01*
X63863671Y-62056287D01*
X63863670Y-62056291D01*
X63844750Y-62199999D01*
X40500500Y-62199999D01*
X40500500Y-59799999D01*
X63844750Y-59799999D01*
X63844750Y-59800000D01*
X63863670Y-59943708D01*
X63863671Y-59943712D01*
X63919137Y-60077622D01*
X63919138Y-60077624D01*
X63919139Y-60077625D01*
X64007379Y-60192621D01*
X64122375Y-60280861D01*
X64256291Y-60336330D01*
X64383280Y-60353048D01*
X64399999Y-60355250D01*
X64400000Y-60355250D01*
X64400001Y-60355250D01*
X64414977Y-60353278D01*
X64543709Y-60336330D01*
X64677625Y-60280861D01*
X64792621Y-60192621D01*
X64880861Y-60077625D01*
X64936330Y-59943709D01*
X64955250Y-59800000D01*
X64936330Y-59656291D01*
X64898951Y-59566048D01*
X69329500Y-59566048D01*
X69329500Y-60013951D01*
X69332317Y-60055499D01*
X69376963Y-60235021D01*
X69376964Y-60235023D01*
X69459156Y-60400750D01*
X69575059Y-60544940D01*
X69657173Y-60610945D01*
X69719247Y-60660842D01*
X69884979Y-60743037D01*
X70064501Y-60787682D01*
X70064502Y-60787682D01*
X70064505Y-60787683D01*
X70106046Y-60790500D01*
X70106048Y-60790500D01*
X72553952Y-60790500D01*
X72553954Y-60790500D01*
X72595495Y-60787683D01*
X72775021Y-60743037D01*
X72940753Y-60660842D01*
X73084940Y-60544940D01*
X73200842Y-60400753D01*
X73283037Y-60235021D01*
X73327683Y-60055495D01*
X73330500Y-60013954D01*
X73330500Y-59566048D01*
X86669500Y-59566048D01*
X86669500Y-60013951D01*
X86672317Y-60055499D01*
X86716963Y-60235021D01*
X86716964Y-60235023D01*
X86799156Y-60400750D01*
X86915059Y-60544940D01*
X86997173Y-60610945D01*
X87059247Y-60660842D01*
X87224979Y-60743037D01*
X87404501Y-60787682D01*
X87404502Y-60787682D01*
X87404505Y-60787683D01*
X87446046Y-60790500D01*
X87446048Y-60790500D01*
X89893952Y-60790500D01*
X89893954Y-60790500D01*
X89935495Y-60787683D01*
X90115021Y-60743037D01*
X90280753Y-60660842D01*
X90424940Y-60544940D01*
X90540842Y-60400753D01*
X90623037Y-60235021D01*
X90667683Y-60055495D01*
X90670500Y-60013954D01*
X90670500Y-59566046D01*
X90667683Y-59524505D01*
X90667153Y-59522375D01*
X90638555Y-59407379D01*
X90623037Y-59344979D01*
X90540842Y-59179247D01*
X90490945Y-59117173D01*
X90424940Y-59035059D01*
X90322785Y-58952945D01*
X90280753Y-58919158D01*
X90280751Y-58919157D01*
X90280750Y-58919156D01*
X90115023Y-58836964D01*
X90115021Y-58836963D01*
X89935497Y-58792317D01*
X89935501Y-58792317D01*
X89904339Y-58790204D01*
X89893954Y-58789500D01*
X87446046Y-58789500D01*
X87434177Y-58790304D01*
X87404500Y-58792317D01*
X87224978Y-58836963D01*
X87224976Y-58836964D01*
X87059249Y-58919156D01*
X86915059Y-59035059D01*
X86799156Y-59179249D01*
X86716964Y-59344976D01*
X86716963Y-59344978D01*
X86672317Y-59524500D01*
X86669500Y-59566048D01*
X73330500Y-59566048D01*
X73330500Y-59566046D01*
X73327683Y-59524505D01*
X73327153Y-59522375D01*
X73298555Y-59407379D01*
X73283037Y-59344979D01*
X73200842Y-59179247D01*
X73150945Y-59117173D01*
X73084940Y-59035059D01*
X72982785Y-58952945D01*
X72940753Y-58919158D01*
X72940751Y-58919157D01*
X72940750Y-58919156D01*
X72775023Y-58836964D01*
X72775021Y-58836963D01*
X72595497Y-58792317D01*
X72595501Y-58792317D01*
X72564339Y-58790204D01*
X72553954Y-58789500D01*
X70106046Y-58789500D01*
X70094177Y-58790304D01*
X70064500Y-58792317D01*
X69884978Y-58836963D01*
X69884976Y-58836964D01*
X69719249Y-58919156D01*
X69575059Y-59035059D01*
X69459156Y-59179249D01*
X69376964Y-59344976D01*
X69376963Y-59344978D01*
X69332317Y-59524500D01*
X69329500Y-59566048D01*
X64898951Y-59566048D01*
X64880861Y-59522375D01*
X64792621Y-59407379D01*
X64677625Y-59319139D01*
X64677624Y-59319138D01*
X64677622Y-59319137D01*
X64543712Y-59263671D01*
X64543710Y-59263670D01*
X64543709Y-59263670D01*
X64471854Y-59254210D01*
X64400001Y-59244750D01*
X64399999Y-59244750D01*
X64256291Y-59263670D01*
X64256287Y-59263671D01*
X64122377Y-59319137D01*
X64007379Y-59407379D01*
X63919137Y-59522377D01*
X63863671Y-59656287D01*
X63863670Y-59656291D01*
X63844750Y-59799999D01*
X40500500Y-59799999D01*
X40500500Y-55874038D01*
X50499500Y-55874038D01*
X50499500Y-56125961D01*
X50538910Y-56374785D01*
X50616760Y-56614383D01*
X50695413Y-56768747D01*
X50715097Y-56807379D01*
X50731132Y-56838848D01*
X50879201Y-57042649D01*
X50879205Y-57042654D01*
X51057345Y-57220794D01*
X51057350Y-57220798D01*
X51226522Y-57343708D01*
X51261155Y-57368870D01*
X51404184Y-57441747D01*
X51485616Y-57483239D01*
X51485618Y-57483239D01*
X51485621Y-57483241D01*
X51725215Y-57561090D01*
X51974038Y-57600500D01*
X51974039Y-57600500D01*
X52225961Y-57600500D01*
X52225962Y-57600500D01*
X52474785Y-57561090D01*
X52714379Y-57483241D01*
X52938845Y-57368870D01*
X53142656Y-57220793D01*
X53163450Y-57199999D01*
X63844750Y-57199999D01*
X63844750Y-57200000D01*
X63863670Y-57343708D01*
X63863671Y-57343712D01*
X63919137Y-57477622D01*
X63919138Y-57477624D01*
X63919139Y-57477625D01*
X64007379Y-57592621D01*
X64122375Y-57680861D01*
X64256291Y-57736330D01*
X64383280Y-57753048D01*
X64399999Y-57755250D01*
X64400000Y-57755250D01*
X64400001Y-57755250D01*
X64414977Y-57753278D01*
X64543709Y-57736330D01*
X64677625Y-57680861D01*
X64792621Y-57592621D01*
X64880861Y-57477625D01*
X64936330Y-57343709D01*
X64955250Y-57200000D01*
X64936330Y-57056291D01*
X64923803Y-57026048D01*
X69329500Y-57026048D01*
X69329500Y-57473951D01*
X69332317Y-57515499D01*
X69376963Y-57695021D01*
X69376964Y-57695023D01*
X69459156Y-57860750D01*
X69575059Y-58004940D01*
X69657173Y-58070945D01*
X69719247Y-58120842D01*
X69884979Y-58203037D01*
X70064501Y-58247682D01*
X70064502Y-58247682D01*
X70064505Y-58247683D01*
X70106046Y-58250500D01*
X70106048Y-58250500D01*
X72553952Y-58250500D01*
X72553954Y-58250500D01*
X72595495Y-58247683D01*
X72775021Y-58203037D01*
X72940753Y-58120842D01*
X73084940Y-58004940D01*
X73200842Y-57860753D01*
X73283037Y-57695021D01*
X73327683Y-57515495D01*
X73330500Y-57473954D01*
X73330500Y-57026048D01*
X86669500Y-57026048D01*
X86669500Y-57473951D01*
X86672317Y-57515499D01*
X86716963Y-57695021D01*
X86716964Y-57695023D01*
X86799156Y-57860750D01*
X86915059Y-58004940D01*
X86997173Y-58070945D01*
X87059247Y-58120842D01*
X87224979Y-58203037D01*
X87404501Y-58247682D01*
X87404502Y-58247682D01*
X87404505Y-58247683D01*
X87446046Y-58250500D01*
X87446048Y-58250500D01*
X89893952Y-58250500D01*
X89893954Y-58250500D01*
X89935495Y-58247683D01*
X90115021Y-58203037D01*
X90280753Y-58120842D01*
X90424940Y-58004940D01*
X90540842Y-57860753D01*
X90623037Y-57695021D01*
X90667683Y-57515495D01*
X90670500Y-57473954D01*
X90670500Y-57026046D01*
X90667683Y-56984505D01*
X90623037Y-56804979D01*
X90540842Y-56639247D01*
X90490945Y-56577173D01*
X90424940Y-56495059D01*
X90322785Y-56412945D01*
X90280753Y-56379158D01*
X90280751Y-56379157D01*
X90280750Y-56379156D01*
X90115023Y-56296964D01*
X90115021Y-56296963D01*
X89935497Y-56252317D01*
X89935501Y-56252317D01*
X89904339Y-56250204D01*
X89893954Y-56249500D01*
X87446046Y-56249500D01*
X87434177Y-56250304D01*
X87404500Y-56252317D01*
X87224978Y-56296963D01*
X87224976Y-56296964D01*
X87059249Y-56379156D01*
X86915059Y-56495059D01*
X86799156Y-56639249D01*
X86716964Y-56804976D01*
X86716963Y-56804978D01*
X86672317Y-56984500D01*
X86669500Y-57026048D01*
X73330500Y-57026048D01*
X73330500Y-57026046D01*
X73327683Y-56984505D01*
X73283037Y-56804979D01*
X73200842Y-56639247D01*
X73150945Y-56577173D01*
X73084940Y-56495059D01*
X72982785Y-56412945D01*
X72940753Y-56379158D01*
X72940751Y-56379157D01*
X72940750Y-56379156D01*
X72775023Y-56296964D01*
X72775021Y-56296963D01*
X72595497Y-56252317D01*
X72595501Y-56252317D01*
X72564339Y-56250204D01*
X72553954Y-56249500D01*
X70106046Y-56249500D01*
X70094177Y-56250304D01*
X70064500Y-56252317D01*
X69884978Y-56296963D01*
X69884976Y-56296964D01*
X69719249Y-56379156D01*
X69575059Y-56495059D01*
X69459156Y-56639249D01*
X69376964Y-56804976D01*
X69376963Y-56804978D01*
X69332317Y-56984500D01*
X69329500Y-57026048D01*
X64923803Y-57026048D01*
X64880861Y-56922375D01*
X64792621Y-56807379D01*
X64677625Y-56719139D01*
X64677624Y-56719138D01*
X64677622Y-56719137D01*
X64543712Y-56663671D01*
X64543710Y-56663670D01*
X64543709Y-56663670D01*
X64471854Y-56654210D01*
X64400001Y-56644750D01*
X64399999Y-56644750D01*
X64256291Y-56663670D01*
X64256287Y-56663671D01*
X64122377Y-56719137D01*
X64007379Y-56807379D01*
X63919137Y-56922377D01*
X63863671Y-57056287D01*
X63863670Y-57056291D01*
X63844750Y-57199999D01*
X53163450Y-57199999D01*
X53320793Y-57042656D01*
X53468870Y-56838845D01*
X53583241Y-56614379D01*
X53661090Y-56374785D01*
X53700500Y-56125962D01*
X53700500Y-55874038D01*
X106299500Y-55874038D01*
X106299500Y-56125961D01*
X106338910Y-56374785D01*
X106416760Y-56614383D01*
X106495413Y-56768747D01*
X106515097Y-56807379D01*
X106531132Y-56838848D01*
X106679201Y-57042649D01*
X106679205Y-57042654D01*
X106857345Y-57220794D01*
X106857350Y-57220798D01*
X107026522Y-57343708D01*
X107061155Y-57368870D01*
X107204184Y-57441747D01*
X107285616Y-57483239D01*
X107285618Y-57483239D01*
X107285621Y-57483241D01*
X107525215Y-57561090D01*
X107774038Y-57600500D01*
X107774039Y-57600500D01*
X108025961Y-57600500D01*
X108025962Y-57600500D01*
X108274785Y-57561090D01*
X108514379Y-57483241D01*
X108738845Y-57368870D01*
X108942656Y-57220793D01*
X109120793Y-57042656D01*
X109268870Y-56838845D01*
X109383241Y-56614379D01*
X109461090Y-56374785D01*
X109500500Y-56125962D01*
X109500500Y-55874038D01*
X109461090Y-55625215D01*
X109383241Y-55385621D01*
X109383239Y-55385618D01*
X109383239Y-55385616D01*
X109341747Y-55304184D01*
X109268870Y-55161155D01*
X109210533Y-55080861D01*
X109120798Y-54957350D01*
X109120794Y-54957345D01*
X108942654Y-54779205D01*
X108942649Y-54779201D01*
X108738848Y-54631132D01*
X108738847Y-54631131D01*
X108738845Y-54631130D01*
X108668747Y-54595413D01*
X108514383Y-54516760D01*
X108274785Y-54438910D01*
X108025962Y-54399500D01*
X107774038Y-54399500D01*
X107649626Y-54419205D01*
X107525214Y-54438910D01*
X107285616Y-54516760D01*
X107061151Y-54631132D01*
X106857350Y-54779201D01*
X106857345Y-54779205D01*
X106679205Y-54957345D01*
X106679201Y-54957350D01*
X106531132Y-55161151D01*
X106416760Y-55385616D01*
X106338910Y-55625214D01*
X106299500Y-55874038D01*
X53700500Y-55874038D01*
X53661090Y-55625215D01*
X53583241Y-55385621D01*
X53583239Y-55385618D01*
X53583239Y-55385616D01*
X53541747Y-55304184D01*
X53468870Y-55161155D01*
X53410533Y-55080861D01*
X53320798Y-54957350D01*
X53320794Y-54957345D01*
X53142654Y-54779205D01*
X53142649Y-54779201D01*
X52938848Y-54631132D01*
X52938847Y-54631131D01*
X52938845Y-54631130D01*
X52877747Y-54599999D01*
X63844750Y-54599999D01*
X63844750Y-54600000D01*
X63863670Y-54743708D01*
X63863671Y-54743712D01*
X63919137Y-54877622D01*
X63919138Y-54877624D01*
X63919139Y-54877625D01*
X64007379Y-54992621D01*
X64122375Y-55080861D01*
X64256291Y-55136330D01*
X64383280Y-55153048D01*
X64399999Y-55155250D01*
X64400000Y-55155250D01*
X64400001Y-55155250D01*
X64414977Y-55153278D01*
X64543709Y-55136330D01*
X64677625Y-55080861D01*
X64792621Y-54992621D01*
X64880861Y-54877625D01*
X64936330Y-54743709D01*
X64955250Y-54600000D01*
X64940248Y-54486048D01*
X69329500Y-54486048D01*
X69329500Y-54933951D01*
X69332317Y-54975499D01*
X69376963Y-55155021D01*
X69376964Y-55155023D01*
X69459156Y-55320750D01*
X69575059Y-55464940D01*
X69657173Y-55530945D01*
X69719247Y-55580842D01*
X69884979Y-55663037D01*
X70064501Y-55707682D01*
X70064502Y-55707682D01*
X70064505Y-55707683D01*
X70106046Y-55710500D01*
X70106048Y-55710500D01*
X72553952Y-55710500D01*
X72553954Y-55710500D01*
X72595495Y-55707683D01*
X72775021Y-55663037D01*
X72940753Y-55580842D01*
X73084940Y-55464940D01*
X73200842Y-55320753D01*
X73283037Y-55155021D01*
X73327683Y-54975495D01*
X73330500Y-54933954D01*
X73330500Y-54486048D01*
X86669500Y-54486048D01*
X86669500Y-54933951D01*
X86672317Y-54975499D01*
X86716963Y-55155021D01*
X86716964Y-55155023D01*
X86799156Y-55320750D01*
X86915059Y-55464940D01*
X86997173Y-55530945D01*
X87059247Y-55580842D01*
X87224979Y-55663037D01*
X87404501Y-55707682D01*
X87404502Y-55707682D01*
X87404505Y-55707683D01*
X87446046Y-55710500D01*
X87446048Y-55710500D01*
X89893952Y-55710500D01*
X89893954Y-55710500D01*
X89935495Y-55707683D01*
X90115021Y-55663037D01*
X90280753Y-55580842D01*
X90424940Y-55464940D01*
X90540842Y-55320753D01*
X90623037Y-55155021D01*
X90667683Y-54975495D01*
X90670500Y-54933954D01*
X90670500Y-54486046D01*
X90667683Y-54444505D01*
X90623037Y-54264979D01*
X90540842Y-54099247D01*
X90490945Y-54037173D01*
X90424940Y-53955059D01*
X90322785Y-53872945D01*
X90280753Y-53839158D01*
X90280751Y-53839157D01*
X90280750Y-53839156D01*
X90115023Y-53756964D01*
X90115021Y-53756963D01*
X89935497Y-53712317D01*
X89935501Y-53712317D01*
X89904339Y-53710204D01*
X89893954Y-53709500D01*
X87446046Y-53709500D01*
X87434177Y-53710304D01*
X87404500Y-53712317D01*
X87224978Y-53756963D01*
X87224976Y-53756964D01*
X87059249Y-53839156D01*
X86915059Y-53955059D01*
X86799156Y-54099249D01*
X86716964Y-54264976D01*
X86716963Y-54264978D01*
X86672317Y-54444500D01*
X86669500Y-54486048D01*
X73330500Y-54486048D01*
X73330500Y-54486046D01*
X73327683Y-54444505D01*
X73283037Y-54264979D01*
X73200842Y-54099247D01*
X73150945Y-54037173D01*
X73084940Y-53955059D01*
X72982785Y-53872945D01*
X72940753Y-53839158D01*
X72940751Y-53839157D01*
X72940750Y-53839156D01*
X72775023Y-53756964D01*
X72775021Y-53756963D01*
X72595497Y-53712317D01*
X72595501Y-53712317D01*
X72564339Y-53710204D01*
X72553954Y-53709500D01*
X70106046Y-53709500D01*
X70094177Y-53710304D01*
X70064500Y-53712317D01*
X69884978Y-53756963D01*
X69884976Y-53756964D01*
X69719249Y-53839156D01*
X69575059Y-53955059D01*
X69459156Y-54099249D01*
X69376964Y-54264976D01*
X69376963Y-54264978D01*
X69332317Y-54444500D01*
X69329500Y-54486048D01*
X64940248Y-54486048D01*
X64936330Y-54456291D01*
X64880861Y-54322375D01*
X64792621Y-54207379D01*
X64677625Y-54119139D01*
X64677624Y-54119138D01*
X64677622Y-54119137D01*
X64543712Y-54063671D01*
X64543710Y-54063670D01*
X64543709Y-54063670D01*
X64471854Y-54054210D01*
X64400001Y-54044750D01*
X64399999Y-54044750D01*
X64256291Y-54063670D01*
X64256287Y-54063671D01*
X64122377Y-54119137D01*
X64007379Y-54207379D01*
X63919137Y-54322377D01*
X63863671Y-54456287D01*
X63863670Y-54456291D01*
X63844750Y-54599999D01*
X52877747Y-54599999D01*
X52868747Y-54595413D01*
X52714383Y-54516760D01*
X52474785Y-54438910D01*
X52225962Y-54399500D01*
X51974038Y-54399500D01*
X51849626Y-54419205D01*
X51725214Y-54438910D01*
X51485616Y-54516760D01*
X51261151Y-54631132D01*
X51057350Y-54779201D01*
X51057345Y-54779205D01*
X50879205Y-54957345D01*
X50879201Y-54957350D01*
X50731132Y-55161151D01*
X50616760Y-55385616D01*
X50538910Y-55625214D01*
X50499500Y-55874038D01*
X40500500Y-55874038D01*
X40500500Y-52199999D01*
X63844750Y-52199999D01*
X63844750Y-52200000D01*
X63863670Y-52343708D01*
X63863671Y-52343712D01*
X63919137Y-52477622D01*
X63919138Y-52477624D01*
X63919139Y-52477625D01*
X64007379Y-52592621D01*
X64122375Y-52680861D01*
X64256291Y-52736330D01*
X64383280Y-52753048D01*
X64399999Y-52755250D01*
X64400000Y-52755250D01*
X64400001Y-52755250D01*
X64414977Y-52753278D01*
X64543709Y-52736330D01*
X64677625Y-52680861D01*
X64792621Y-52592621D01*
X64880861Y-52477625D01*
X64936330Y-52343709D01*
X64955250Y-52200000D01*
X64936330Y-52056291D01*
X64890667Y-51946048D01*
X69329500Y-51946048D01*
X69329500Y-52393951D01*
X69332317Y-52435499D01*
X69376963Y-52615021D01*
X69376964Y-52615023D01*
X69459156Y-52780750D01*
X69575059Y-52924940D01*
X69657173Y-52990945D01*
X69719247Y-53040842D01*
X69884979Y-53123037D01*
X70064501Y-53167682D01*
X70064502Y-53167682D01*
X70064505Y-53167683D01*
X70106046Y-53170500D01*
X70106048Y-53170500D01*
X72553952Y-53170500D01*
X72553954Y-53170500D01*
X72595495Y-53167683D01*
X72775021Y-53123037D01*
X72940753Y-53040842D01*
X73084940Y-52924940D01*
X73200842Y-52780753D01*
X73283037Y-52615021D01*
X73327683Y-52435495D01*
X73330500Y-52393954D01*
X73330500Y-51946046D01*
X73327683Y-51904505D01*
X73283037Y-51724979D01*
X73200842Y-51559247D01*
X73139746Y-51483241D01*
X73084940Y-51415059D01*
X72982785Y-51332945D01*
X72940753Y-51299158D01*
X72940751Y-51299157D01*
X72940750Y-51299156D01*
X72775023Y-51216964D01*
X72775021Y-51216963D01*
X72595497Y-51172317D01*
X72595501Y-51172317D01*
X72564339Y-51170204D01*
X72553954Y-51169500D01*
X70106046Y-51169500D01*
X70094177Y-51170304D01*
X70064500Y-51172317D01*
X69884978Y-51216963D01*
X69884976Y-51216964D01*
X69719249Y-51299156D01*
X69575059Y-51415059D01*
X69459156Y-51559249D01*
X69376964Y-51724976D01*
X69376963Y-51724978D01*
X69332317Y-51904500D01*
X69329500Y-51946048D01*
X64890667Y-51946048D01*
X64880861Y-51922375D01*
X64792621Y-51807379D01*
X64677625Y-51719139D01*
X64677624Y-51719138D01*
X64677622Y-51719137D01*
X64543712Y-51663671D01*
X64543710Y-51663670D01*
X64543709Y-51663670D01*
X64471854Y-51654210D01*
X64400001Y-51644750D01*
X64399999Y-51644750D01*
X64256291Y-51663670D01*
X64256287Y-51663671D01*
X64122377Y-51719137D01*
X64007379Y-51807379D01*
X63919137Y-51922377D01*
X63863671Y-52056287D01*
X63863670Y-52056291D01*
X63844750Y-52199999D01*
X40500500Y-52199999D01*
X40500500Y-50002706D01*
X40500618Y-49997297D01*
X40503377Y-49934108D01*
X40506000Y-49874038D01*
X43399500Y-49874038D01*
X43399500Y-50125961D01*
X43438910Y-50374785D01*
X43516760Y-50614383D01*
X43631132Y-50838848D01*
X43779201Y-51042649D01*
X43779205Y-51042654D01*
X43957345Y-51220794D01*
X43957350Y-51220798D01*
X44065204Y-51299158D01*
X44161155Y-51368870D01*
X44304184Y-51441747D01*
X44385616Y-51483239D01*
X44385618Y-51483239D01*
X44385621Y-51483241D01*
X44625215Y-51561090D01*
X44874038Y-51600500D01*
X44874039Y-51600500D01*
X45125961Y-51600500D01*
X45125962Y-51600500D01*
X45374785Y-51561090D01*
X45614379Y-51483241D01*
X45838845Y-51368870D01*
X46042656Y-51220793D01*
X46220793Y-51042656D01*
X46368870Y-50838845D01*
X46483241Y-50614379D01*
X46561090Y-50374785D01*
X46600500Y-50125962D01*
X46600500Y-49874038D01*
X46561090Y-49625215D01*
X46520405Y-49499999D01*
X63844750Y-49499999D01*
X63844750Y-49500000D01*
X63863670Y-49643708D01*
X63863671Y-49643712D01*
X63919137Y-49777622D01*
X63919138Y-49777624D01*
X63919139Y-49777625D01*
X64007379Y-49892621D01*
X64122375Y-49980861D01*
X64256291Y-50036330D01*
X64383280Y-50053048D01*
X64399999Y-50055250D01*
X64400000Y-50055250D01*
X64400001Y-50055250D01*
X64414977Y-50053278D01*
X64543709Y-50036330D01*
X64677625Y-49980861D01*
X64792621Y-49892621D01*
X64880861Y-49777625D01*
X64936330Y-49643709D01*
X64955250Y-49500000D01*
X64942881Y-49406048D01*
X69329500Y-49406048D01*
X69329500Y-49853951D01*
X69332317Y-49895499D01*
X69376963Y-50075021D01*
X69376964Y-50075023D01*
X69459156Y-50240750D01*
X69575059Y-50384940D01*
X69657173Y-50450945D01*
X69719247Y-50500842D01*
X69884979Y-50583037D01*
X70064501Y-50627682D01*
X70064502Y-50627682D01*
X70064505Y-50627683D01*
X70106046Y-50630500D01*
X70106048Y-50630500D01*
X72553952Y-50630500D01*
X72553954Y-50630500D01*
X72595495Y-50627683D01*
X72775021Y-50583037D01*
X72940753Y-50500842D01*
X73084940Y-50384940D01*
X73200842Y-50240753D01*
X73283037Y-50075021D01*
X73327683Y-49895495D01*
X73330500Y-49853954D01*
X73330500Y-49406048D01*
X86669500Y-49406048D01*
X86669500Y-49853951D01*
X86672317Y-49895499D01*
X86716963Y-50075021D01*
X86716964Y-50075023D01*
X86799156Y-50240750D01*
X86915059Y-50384940D01*
X86997173Y-50450945D01*
X87059247Y-50500842D01*
X87224979Y-50583037D01*
X87404501Y-50627682D01*
X87404502Y-50627682D01*
X87404505Y-50627683D01*
X87446046Y-50630500D01*
X87446048Y-50630500D01*
X89893952Y-50630500D01*
X89893954Y-50630500D01*
X89935495Y-50627683D01*
X90115021Y-50583037D01*
X90280753Y-50500842D01*
X90424940Y-50384940D01*
X90540842Y-50240753D01*
X90623037Y-50075021D01*
X90667683Y-49895495D01*
X90669138Y-49874038D01*
X113399500Y-49874038D01*
X113399500Y-50125961D01*
X113438910Y-50374785D01*
X113516760Y-50614383D01*
X113631132Y-50838848D01*
X113779201Y-51042649D01*
X113779205Y-51042654D01*
X113957345Y-51220794D01*
X113957350Y-51220798D01*
X114065204Y-51299158D01*
X114161155Y-51368870D01*
X114304184Y-51441747D01*
X114385616Y-51483239D01*
X114385618Y-51483239D01*
X114385621Y-51483241D01*
X114625215Y-51561090D01*
X114874038Y-51600500D01*
X114874039Y-51600500D01*
X115125961Y-51600500D01*
X115125962Y-51600500D01*
X115374785Y-51561090D01*
X115614379Y-51483241D01*
X115838845Y-51368870D01*
X116042656Y-51220793D01*
X116220793Y-51042656D01*
X116368870Y-50838845D01*
X116483241Y-50614379D01*
X116561090Y-50374785D01*
X116600500Y-50125962D01*
X116600500Y-49874038D01*
X116561090Y-49625215D01*
X116483241Y-49385621D01*
X116483239Y-49385618D01*
X116483239Y-49385616D01*
X116398175Y-49218670D01*
X116368870Y-49161155D01*
X116265690Y-49019139D01*
X116220798Y-48957350D01*
X116220794Y-48957345D01*
X116042654Y-48779205D01*
X116042649Y-48779201D01*
X115838848Y-48631132D01*
X115838847Y-48631131D01*
X115838845Y-48631130D01*
X115768747Y-48595413D01*
X115614383Y-48516760D01*
X115374785Y-48438910D01*
X115313264Y-48429166D01*
X115125962Y-48399500D01*
X114874038Y-48399500D01*
X114749626Y-48419205D01*
X114625214Y-48438910D01*
X114385616Y-48516760D01*
X114161151Y-48631132D01*
X113957350Y-48779201D01*
X113957345Y-48779205D01*
X113779205Y-48957345D01*
X113779201Y-48957350D01*
X113631132Y-49161151D01*
X113516760Y-49385616D01*
X113438910Y-49625214D01*
X113399500Y-49874038D01*
X90669138Y-49874038D01*
X90670500Y-49853954D01*
X90670500Y-49406046D01*
X90667683Y-49364505D01*
X90623037Y-49184979D01*
X90540842Y-49019247D01*
X90480959Y-48944750D01*
X90424940Y-48875059D01*
X90305687Y-48779201D01*
X90280753Y-48759158D01*
X90280751Y-48759157D01*
X90280750Y-48759156D01*
X90115023Y-48676964D01*
X90115021Y-48676963D01*
X89935497Y-48632317D01*
X89935501Y-48632317D01*
X89904339Y-48630204D01*
X89893954Y-48629500D01*
X87446046Y-48629500D01*
X87434177Y-48630304D01*
X87404500Y-48632317D01*
X87224978Y-48676963D01*
X87224976Y-48676964D01*
X87059249Y-48759156D01*
X86915059Y-48875059D01*
X86799156Y-49019249D01*
X86716964Y-49184976D01*
X86716963Y-49184978D01*
X86672317Y-49364500D01*
X86669500Y-49406048D01*
X73330500Y-49406048D01*
X73330500Y-49406046D01*
X73327683Y-49364505D01*
X73283037Y-49184979D01*
X73200842Y-49019247D01*
X73140959Y-48944750D01*
X73084940Y-48875059D01*
X72965687Y-48779201D01*
X72940753Y-48759158D01*
X72940751Y-48759157D01*
X72940750Y-48759156D01*
X72775023Y-48676964D01*
X72775021Y-48676963D01*
X72595497Y-48632317D01*
X72595501Y-48632317D01*
X72564339Y-48630204D01*
X72553954Y-48629500D01*
X70106046Y-48629500D01*
X70094177Y-48630304D01*
X70064500Y-48632317D01*
X69884978Y-48676963D01*
X69884976Y-48676964D01*
X69719249Y-48759156D01*
X69575059Y-48875059D01*
X69459156Y-49019249D01*
X69376964Y-49184976D01*
X69376963Y-49184978D01*
X69332317Y-49364500D01*
X69329500Y-49406048D01*
X64942881Y-49406048D01*
X64936330Y-49356291D01*
X64899350Y-49267013D01*
X64880862Y-49222377D01*
X64880861Y-49222376D01*
X64880861Y-49222375D01*
X64792621Y-49107379D01*
X64677625Y-49019139D01*
X64677624Y-49019138D01*
X64677622Y-49019137D01*
X64543712Y-48963671D01*
X64543710Y-48963670D01*
X64543709Y-48963670D01*
X64471854Y-48954210D01*
X64400001Y-48944750D01*
X64399999Y-48944750D01*
X64256291Y-48963670D01*
X64256287Y-48963671D01*
X64122377Y-49019137D01*
X64007379Y-49107379D01*
X63919137Y-49222377D01*
X63863671Y-49356287D01*
X63863670Y-49356291D01*
X63844750Y-49499999D01*
X46520405Y-49499999D01*
X46483241Y-49385621D01*
X46483239Y-49385618D01*
X46483239Y-49385616D01*
X46398175Y-49218670D01*
X46368870Y-49161155D01*
X46265690Y-49019139D01*
X46220798Y-48957350D01*
X46220794Y-48957345D01*
X46042654Y-48779205D01*
X46042649Y-48779201D01*
X45838848Y-48631132D01*
X45838847Y-48631131D01*
X45838845Y-48631130D01*
X45768747Y-48595413D01*
X45614383Y-48516760D01*
X45374785Y-48438910D01*
X45313264Y-48429166D01*
X45125962Y-48399500D01*
X44874038Y-48399500D01*
X44749626Y-48419205D01*
X44625214Y-48438910D01*
X44385616Y-48516760D01*
X44161151Y-48631132D01*
X43957350Y-48779201D01*
X43957345Y-48779205D01*
X43779205Y-48957345D01*
X43779201Y-48957350D01*
X43631132Y-49161151D01*
X43516760Y-49385616D01*
X43438910Y-49625214D01*
X43399500Y-49874038D01*
X40506000Y-49874038D01*
X40517386Y-49613226D01*
X40518326Y-49602495D01*
X40568152Y-49224025D01*
X40570025Y-49213405D01*
X40652649Y-48840709D01*
X40655440Y-48830295D01*
X40770230Y-48466227D01*
X40773917Y-48456095D01*
X40920003Y-48103412D01*
X40924561Y-48093638D01*
X41100822Y-47755045D01*
X41106217Y-47745700D01*
X41311325Y-47423744D01*
X41317515Y-47414905D01*
X41549896Y-47112060D01*
X41556834Y-47103791D01*
X41651941Y-47000000D01*
X63844750Y-47000000D01*
X63859504Y-47112069D01*
X63863670Y-47143708D01*
X63863671Y-47143712D01*
X63919137Y-47277622D01*
X63919138Y-47277624D01*
X63919139Y-47277625D01*
X64007379Y-47392621D01*
X64122375Y-47480861D01*
X64256291Y-47536330D01*
X64383280Y-47553048D01*
X64399999Y-47555250D01*
X64400000Y-47555250D01*
X64400001Y-47555250D01*
X64414977Y-47553278D01*
X64543709Y-47536330D01*
X64677625Y-47480861D01*
X64792621Y-47392621D01*
X64880861Y-47277625D01*
X64936330Y-47143709D01*
X64955250Y-47000000D01*
X64937615Y-46866048D01*
X69329500Y-46866048D01*
X69329500Y-47313951D01*
X69332317Y-47355499D01*
X69376963Y-47535021D01*
X69376964Y-47535023D01*
X69459156Y-47700750D01*
X69575059Y-47844940D01*
X69657173Y-47910945D01*
X69719247Y-47960842D01*
X69884979Y-48043037D01*
X70064501Y-48087682D01*
X70064502Y-48087682D01*
X70064505Y-48087683D01*
X70106046Y-48090500D01*
X70106048Y-48090500D01*
X72553952Y-48090500D01*
X72553954Y-48090500D01*
X72595495Y-48087683D01*
X72775021Y-48043037D01*
X72940753Y-47960842D01*
X73084940Y-47844940D01*
X73200842Y-47700753D01*
X73283037Y-47535021D01*
X73327683Y-47355495D01*
X73330500Y-47313954D01*
X73330500Y-46866048D01*
X86669500Y-46866048D01*
X86669500Y-47313951D01*
X86672317Y-47355499D01*
X86716963Y-47535021D01*
X86716964Y-47535023D01*
X86799156Y-47700750D01*
X86915059Y-47844940D01*
X86997173Y-47910945D01*
X87059247Y-47960842D01*
X87224979Y-48043037D01*
X87404501Y-48087682D01*
X87404502Y-48087682D01*
X87404505Y-48087683D01*
X87446046Y-48090500D01*
X87446048Y-48090500D01*
X89893952Y-48090500D01*
X89893954Y-48090500D01*
X89935495Y-48087683D01*
X90115021Y-48043037D01*
X90280753Y-47960842D01*
X90424940Y-47844940D01*
X90540842Y-47700753D01*
X90623037Y-47535021D01*
X90667683Y-47355495D01*
X90670500Y-47313954D01*
X90670500Y-46866046D01*
X90667683Y-46824505D01*
X90665248Y-46814715D01*
X90642284Y-46722375D01*
X90623037Y-46644979D01*
X90540842Y-46479247D01*
X90490945Y-46417173D01*
X90424940Y-46335059D01*
X90322785Y-46252945D01*
X90280753Y-46219158D01*
X90280751Y-46219157D01*
X90280750Y-46219156D01*
X90115023Y-46136964D01*
X90115021Y-46136963D01*
X89935497Y-46092317D01*
X89935501Y-46092317D01*
X89904339Y-46090204D01*
X89893954Y-46089500D01*
X87446046Y-46089500D01*
X87434177Y-46090304D01*
X87404500Y-46092317D01*
X87224978Y-46136963D01*
X87224976Y-46136964D01*
X87059249Y-46219156D01*
X86915059Y-46335059D01*
X86799156Y-46479249D01*
X86716964Y-46644976D01*
X86716963Y-46644978D01*
X86672317Y-46824500D01*
X86669500Y-46866048D01*
X73330500Y-46866048D01*
X73330500Y-46866046D01*
X73327683Y-46824505D01*
X73325248Y-46814715D01*
X73302284Y-46722375D01*
X73283037Y-46644979D01*
X73200842Y-46479247D01*
X73150945Y-46417173D01*
X73084940Y-46335059D01*
X72982785Y-46252945D01*
X72940753Y-46219158D01*
X72940751Y-46219157D01*
X72940750Y-46219156D01*
X72775023Y-46136964D01*
X72775021Y-46136963D01*
X72595497Y-46092317D01*
X72595501Y-46092317D01*
X72564339Y-46090204D01*
X72553954Y-46089500D01*
X70106046Y-46089500D01*
X70094177Y-46090304D01*
X70064500Y-46092317D01*
X69884978Y-46136963D01*
X69884976Y-46136964D01*
X69719249Y-46219156D01*
X69575059Y-46335059D01*
X69459156Y-46479249D01*
X69376964Y-46644976D01*
X69376963Y-46644978D01*
X69332317Y-46824500D01*
X69329500Y-46866048D01*
X64937615Y-46866048D01*
X64936330Y-46856291D01*
X64880861Y-46722375D01*
X64792621Y-46607379D01*
X64677625Y-46519139D01*
X64677624Y-46519138D01*
X64677622Y-46519137D01*
X64543712Y-46463671D01*
X64543710Y-46463670D01*
X64543709Y-46463670D01*
X64471854Y-46454210D01*
X64400001Y-46444750D01*
X64399999Y-46444750D01*
X64256291Y-46463670D01*
X64256287Y-46463671D01*
X64122377Y-46519137D01*
X64007379Y-46607379D01*
X63919137Y-46722377D01*
X63863671Y-46856287D01*
X63863670Y-46856291D01*
X63844750Y-47000000D01*
X41651941Y-47000000D01*
X41814726Y-46822352D01*
X41822352Y-46814726D01*
X42103791Y-46556834D01*
X42112060Y-46549896D01*
X42414905Y-46317515D01*
X42423744Y-46311325D01*
X42745700Y-46106217D01*
X42755045Y-46100822D01*
X43093638Y-45924561D01*
X43103412Y-45920003D01*
X43456095Y-45773917D01*
X43466227Y-45770230D01*
X43830295Y-45655440D01*
X43840709Y-45652649D01*
X44213405Y-45570025D01*
X44224025Y-45568152D01*
X44602495Y-45518326D01*
X44613226Y-45517386D01*
X44997297Y-45500617D01*
X45002706Y-45500500D01*
X45065892Y-45500500D01*
X114934108Y-45500500D01*
X114997294Y-45500500D01*
X115002702Y-45500617D01*
G37*
G04 #@! TD.AperFunction*
M02*
