G04 #@! TF.GenerationSoftware,KiCad,Pcbnew,8.0.3*
G04 #@! TF.CreationDate,2024-06-08T17:14:39+02:00*
G04 #@! TF.ProjectId,chip8-pcb,63686970-382d-4706-9362-2e6b69636164,1*
G04 #@! TF.SameCoordinates,Original*
G04 #@! TF.FileFunction,Soldermask,Top*
G04 #@! TF.FilePolarity,Negative*
%FSLAX46Y46*%
G04 Gerber Fmt 4.6, Leading zero omitted, Abs format (unit mm)*
G04 Created by KiCad (PCBNEW 8.0.3) date 2024-06-08 17:14:39*
%MOMM*%
%LPD*%
G01*
G04 APERTURE LIST*
G04 Aperture macros list*
%AMRoundRect*
0 Rectangle with rounded corners*
0 $1 Rounding radius*
0 $2 $3 $4 $5 $6 $7 $8 $9 X,Y pos of 4 corners*
0 Add a 4 corners polygon primitive as box body*
4,1,4,$2,$3,$4,$5,$6,$7,$8,$9,$2,$3,0*
0 Add four circle primitives for the rounded corners*
1,1,$1+$1,$2,$3*
1,1,$1+$1,$4,$5*
1,1,$1+$1,$6,$7*
1,1,$1+$1,$8,$9*
0 Add four rect primitives between the rounded corners*
20,1,$1+$1,$2,$3,$4,$5,0*
20,1,$1+$1,$4,$5,$6,$7,0*
20,1,$1+$1,$6,$7,$8,$9,0*
20,1,$1+$1,$8,$9,$2,$3,0*%
G04 Aperture macros list end*
%ADD10C,2.700000*%
%ADD11C,2.200000*%
%ADD12R,1.700000X1.700000*%
%ADD13O,1.700000X1.700000*%
%ADD14RoundRect,0.243750X-0.456250X0.243750X-0.456250X-0.243750X0.456250X-0.243750X0.456250X0.243750X0*%
%ADD15RoundRect,0.243750X0.456250X-0.243750X0.456250X0.243750X-0.456250X0.243750X-0.456250X-0.243750X0*%
%ADD16C,0.900000*%
%ADD17RoundRect,0.600000X1.150000X0.150000X-1.150000X0.150000X-1.150000X-0.150000X1.150000X-0.150000X0*%
%ADD18RoundRect,0.600000X-1.150000X-0.150000X1.150000X-0.150000X1.150000X0.150000X-1.150000X0.150000X0*%
G04 APERTURE END LIST*
D10*
X45000000Y-50000000D03*
D11*
X49300000Y-157900000D03*
D10*
X115000000Y-165000000D03*
D11*
X110700000Y-97900000D03*
X110600000Y-157900000D03*
D10*
X52100000Y-56000000D03*
D12*
X68500000Y-162375000D03*
D13*
X71040000Y-162375000D03*
X73580000Y-162375000D03*
X76120000Y-162375000D03*
X78660000Y-162375000D03*
X81200000Y-162375000D03*
X83740000Y-162375000D03*
X86280000Y-162375000D03*
X88820000Y-162375000D03*
X91360000Y-162375000D03*
D14*
X117100000Y-79600000D03*
X117100000Y-81475000D03*
D10*
X115000000Y-50000000D03*
X107900000Y-88400000D03*
X52100000Y-88400000D03*
X107900000Y-56000000D03*
D15*
X117100000Y-85475000D03*
X117100000Y-83600000D03*
D10*
X45000000Y-165000000D03*
D11*
X49300000Y-97900000D03*
D12*
X59075000Y-64580000D03*
D13*
X59075000Y-67120000D03*
X59075000Y-69660000D03*
X59075000Y-72200000D03*
X59075000Y-74740000D03*
X59075000Y-77280000D03*
X59075000Y-79820000D03*
D16*
X118500000Y-67600000D03*
X118500000Y-74400000D03*
D17*
X88670000Y-47090000D03*
X88670000Y-49630000D03*
X88670000Y-52170000D03*
X88670000Y-54710000D03*
X88670000Y-57250000D03*
X88670000Y-59790000D03*
X88670000Y-62330000D03*
X88670000Y-64870000D03*
X88670000Y-67410000D03*
D18*
X71330000Y-67410000D03*
X71330000Y-64870000D03*
X71330000Y-62330000D03*
X71330000Y-59790000D03*
X71330000Y-57250000D03*
X71330000Y-54710000D03*
X71330000Y-52170000D03*
X71330000Y-49630000D03*
X71330000Y-47090000D03*
M02*
