G04 #@! TF.GenerationSoftware,KiCad,Pcbnew,8.0.3*
G04 #@! TF.CreationDate,2024-06-08T17:14:39+02:00*
G04 #@! TF.ProjectId,chip8-pcb,63686970-382d-4706-9362-2e6b69636164,1*
G04 #@! TF.SameCoordinates,Original*
G04 #@! TF.FileFunction,Paste,Bot*
G04 #@! TF.FilePolarity,Positive*
%FSLAX46Y46*%
G04 Gerber Fmt 4.6, Leading zero omitted, Abs format (unit mm)*
G04 Created by KiCad (PCBNEW 8.0.3) date 2024-06-08 17:14:39*
%MOMM*%
%LPD*%
G01*
G04 APERTURE LIST*
G04 Aperture macros list*
%AMRoundRect*
0 Rectangle with rounded corners*
0 $1 Rounding radius*
0 $2 $3 $4 $5 $6 $7 $8 $9 X,Y pos of 4 corners*
0 Add a 4 corners polygon primitive as box body*
4,1,4,$2,$3,$4,$5,$6,$7,$8,$9,$2,$3,0*
0 Add four circle primitives for the rounded corners*
1,1,$1+$1,$2,$3*
1,1,$1+$1,$4,$5*
1,1,$1+$1,$6,$7*
1,1,$1+$1,$8,$9*
0 Add four rect primitives between the rounded corners*
20,1,$1+$1,$2,$3,$4,$5,0*
20,1,$1+$1,$4,$5,$6,$7,0*
20,1,$1+$1,$6,$7,$8,$9,0*
20,1,$1+$1,$8,$9,$2,$3,0*%
G04 Aperture macros list end*
%ADD10RoundRect,0.225000X0.225000X0.250000X-0.225000X0.250000X-0.225000X-0.250000X0.225000X-0.250000X0*%
%ADD11RoundRect,0.150000X0.650000X0.150000X-0.650000X0.150000X-0.650000X-0.150000X0.650000X-0.150000X0*%
%ADD12RoundRect,0.200000X0.200000X0.275000X-0.200000X0.275000X-0.200000X-0.275000X0.200000X-0.275000X0*%
%ADD13RoundRect,0.150000X0.512500X0.150000X-0.512500X0.150000X-0.512500X-0.150000X0.512500X-0.150000X0*%
%ADD14RoundRect,0.225000X0.250000X-0.225000X0.250000X0.225000X-0.250000X0.225000X-0.250000X-0.225000X0*%
%ADD15RoundRect,0.225000X0.225000X0.625000X-0.225000X0.625000X-0.225000X-0.625000X0.225000X-0.625000X0*%
%ADD16RoundRect,0.133334X0.266666X1.366666X-0.266666X1.366666X-0.266666X-1.366666X0.266666X-1.366666X0*%
%ADD17RoundRect,0.200000X0.275000X-0.200000X0.275000X0.200000X-0.275000X0.200000X-0.275000X-0.200000X0*%
%ADD18RoundRect,0.242500X0.242500X0.402500X-0.242500X0.402500X-0.242500X-0.402500X0.242500X-0.402500X0*%
%ADD19R,3.700000X1.100000*%
%ADD20RoundRect,0.225000X-0.250000X0.225000X-0.250000X-0.225000X0.250000X-0.225000X0.250000X0.225000X0*%
%ADD21RoundRect,0.200000X-0.275000X0.200000X-0.275000X-0.200000X0.275000X-0.200000X0.275000X0.200000X0*%
%ADD22RoundRect,0.100000X0.100000X-0.225000X0.100000X0.225000X-0.100000X0.225000X-0.100000X-0.225000X0*%
%ADD23RoundRect,0.150000X-0.587500X-0.150000X0.587500X-0.150000X0.587500X0.150000X-0.587500X0.150000X0*%
%ADD24RoundRect,0.150000X-0.150000X0.587500X-0.150000X-0.587500X0.150000X-0.587500X0.150000X0.587500X0*%
%ADD25RoundRect,0.250000X-1.500000X-0.550000X1.500000X-0.550000X1.500000X0.550000X-1.500000X0.550000X0*%
%ADD26RoundRect,0.218750X-0.218750X-0.256250X0.218750X-0.256250X0.218750X0.256250X-0.218750X0.256250X0*%
%ADD27R,2.300000X2.300000*%
%ADD28RoundRect,0.250000X-1.000000X0.375000X-1.000000X-0.375000X1.000000X-0.375000X1.000000X0.375000X0*%
%ADD29RoundRect,0.250000X1.000000X0.650000X-1.000000X0.650000X-1.000000X-0.650000X1.000000X-0.650000X0*%
G04 APERTURE END LIST*
D10*
X66087500Y-74800000D03*
X67637500Y-74800000D03*
D11*
X74900000Y-76695000D03*
X74900000Y-77965000D03*
X74900000Y-79235000D03*
X74900000Y-80505000D03*
X67700000Y-80505000D03*
X67700000Y-79235000D03*
X67700000Y-77965000D03*
X67700000Y-76695000D03*
D12*
X67025000Y-47100000D03*
X65375000Y-47100000D03*
D13*
X104437500Y-67550000D03*
X104437500Y-68500000D03*
X104437500Y-69450000D03*
X102162500Y-69450000D03*
X102162500Y-67550000D03*
D12*
X94625000Y-57200000D03*
X92975000Y-57200000D03*
D14*
X102100000Y-65675000D03*
X102100000Y-64125000D03*
D15*
X95000000Y-93400000D03*
X93000000Y-93400000D03*
D16*
X97250000Y-99750000D03*
X90750000Y-99750000D03*
D12*
X67025000Y-52200000D03*
X65375000Y-52200000D03*
D17*
X64500000Y-94037500D03*
X64500000Y-92387500D03*
D14*
X104400000Y-65675000D03*
X104400000Y-64125000D03*
D12*
X67025000Y-54700000D03*
X65375000Y-54700000D03*
D14*
X104000000Y-75775000D03*
X104000000Y-74225000D03*
D18*
X99950000Y-80605000D03*
X99950000Y-79005000D03*
X98750000Y-80605000D03*
X98750000Y-79005000D03*
D11*
X102000000Y-77900000D03*
X102000000Y-79170000D03*
X102000000Y-80440000D03*
X102000000Y-81710000D03*
X96700000Y-81710000D03*
X96700000Y-80440000D03*
X96700000Y-79170000D03*
X96700000Y-77900000D03*
D19*
X92900000Y-74700000D03*
X92900000Y-77700000D03*
D12*
X59100000Y-61300000D03*
X57450000Y-61300000D03*
X67025000Y-67400000D03*
X65375000Y-67400000D03*
X94625000Y-62300000D03*
X92975000Y-62300000D03*
D20*
X92700000Y-80425000D03*
X92700000Y-81975000D03*
D12*
X67025000Y-49600000D03*
X65375000Y-49600000D03*
D21*
X66500000Y-92362500D03*
X66500000Y-94012500D03*
D12*
X94625000Y-54700000D03*
X92975000Y-54700000D03*
D21*
X103000000Y-86175000D03*
X103000000Y-87825000D03*
D20*
X91000000Y-80425000D03*
X91000000Y-81975000D03*
D22*
X111312500Y-71850000D03*
X110662500Y-71850000D03*
X110012500Y-71850000D03*
X110012500Y-69950000D03*
X110662500Y-69950000D03*
X111312500Y-69950000D03*
D21*
X108262500Y-71875000D03*
X108262500Y-73525000D03*
D23*
X109262500Y-68250000D03*
X109262500Y-66350000D03*
X111137500Y-67300000D03*
D20*
X94400000Y-80425000D03*
X94400000Y-81975000D03*
D12*
X94625000Y-59800000D03*
X92975000Y-59800000D03*
D24*
X64550000Y-88550000D03*
X66450000Y-88550000D03*
X65500000Y-90425000D03*
D25*
X106000000Y-79800000D03*
X111600000Y-79800000D03*
D12*
X67000000Y-62300000D03*
X65350000Y-62300000D03*
D26*
X100812500Y-83700000D03*
X102387500Y-83700000D03*
D12*
X67025000Y-59800000D03*
X65375000Y-59800000D03*
X111487500Y-73500000D03*
X109837500Y-73500000D03*
X67025000Y-57200000D03*
X65375000Y-57200000D03*
D20*
X96600000Y-84125000D03*
X96600000Y-85675000D03*
D27*
X70800000Y-89100000D03*
X77900000Y-89100000D03*
X77900000Y-96200000D03*
X70800000Y-96200000D03*
D21*
X98500000Y-84075000D03*
X98500000Y-85725000D03*
D28*
X115750000Y-68500000D03*
X115750000Y-71000000D03*
X115750000Y-73500000D03*
D12*
X67000000Y-64900000D03*
X65350000Y-64900000D03*
D17*
X101200000Y-87825000D03*
X101200000Y-86175000D03*
D12*
X94625000Y-64900000D03*
X92975000Y-64900000D03*
D29*
X101300000Y-74800000D03*
X97300000Y-74800000D03*
D12*
X94625000Y-67400000D03*
X92975000Y-67400000D03*
M02*
