G04 #@! TF.GenerationSoftware,KiCad,Pcbnew,8.0.3*
G04 #@! TF.CreationDate,2024-06-09T12:16:36+02:00*
G04 #@! TF.ProjectId,chip8-pcb,63686970-382d-4706-9362-2e6b69636164,1*
G04 #@! TF.SameCoordinates,Original*
G04 #@! TF.FileFunction,Copper,L4,Bot*
G04 #@! TF.FilePolarity,Positive*
%FSLAX46Y46*%
G04 Gerber Fmt 4.6, Leading zero omitted, Abs format (unit mm)*
G04 Created by KiCad (PCBNEW 8.0.3) date 2024-06-09 12:16:36*
%MOMM*%
%LPD*%
G01*
G04 APERTURE LIST*
G04 Aperture macros list*
%AMRoundRect*
0 Rectangle with rounded corners*
0 $1 Rounding radius*
0 $2 $3 $4 $5 $6 $7 $8 $9 X,Y pos of 4 corners*
0 Add a 4 corners polygon primitive as box body*
4,1,4,$2,$3,$4,$5,$6,$7,$8,$9,$2,$3,0*
0 Add four circle primitives for the rounded corners*
1,1,$1+$1,$2,$3*
1,1,$1+$1,$4,$5*
1,1,$1+$1,$6,$7*
1,1,$1+$1,$8,$9*
0 Add four rect primitives between the rounded corners*
20,1,$1+$1,$2,$3,$4,$5,0*
20,1,$1+$1,$4,$5,$6,$7,0*
20,1,$1+$1,$6,$7,$8,$9,0*
20,1,$1+$1,$8,$9,$2,$3,0*%
G04 Aperture macros list end*
G04 #@! TA.AperFunction,ComponentPad*
%ADD10O,1.700000X1.700000*%
G04 #@! TD*
G04 #@! TA.AperFunction,ComponentPad*
%ADD11R,1.700000X1.700000*%
G04 #@! TD*
G04 #@! TA.AperFunction,HeatsinkPad*
%ADD12C,0.500000*%
G04 #@! TD*
G04 #@! TA.AperFunction,HeatsinkPad*
%ADD13R,3.200000X2.400000*%
G04 #@! TD*
G04 #@! TA.AperFunction,ComponentPad*
%ADD14RoundRect,0.600000X1.150000X0.150000X-1.150000X0.150000X-1.150000X-0.150000X1.150000X-0.150000X0*%
G04 #@! TD*
G04 #@! TA.AperFunction,ComponentPad*
%ADD15RoundRect,0.600000X-1.150000X-0.150000X1.150000X-0.150000X1.150000X0.150000X-1.150000X0.150000X0*%
G04 #@! TD*
G04 #@! TA.AperFunction,ViaPad*
%ADD16C,0.600000*%
G04 #@! TD*
G04 #@! TA.AperFunction,ViaPad*
%ADD17C,1.000000*%
G04 #@! TD*
G04 #@! TA.AperFunction,ViaPad*
%ADD18C,0.500000*%
G04 #@! TD*
G04 #@! TA.AperFunction,Conductor*
%ADD19C,0.200000*%
G04 #@! TD*
G04 APERTURE END LIST*
D10*
X112194406Y-117750000D03*
X109654406Y-117750000D03*
X107114406Y-117750000D03*
X104574406Y-117750000D03*
X102034406Y-117750000D03*
X99494406Y-117750000D03*
X96954406Y-117750000D03*
X94414406Y-117750000D03*
X91874406Y-117750000D03*
D11*
X89334406Y-117750000D03*
D10*
X117334406Y-112450000D03*
X117334406Y-109910000D03*
X117334406Y-107370000D03*
X117334406Y-104830000D03*
X117334406Y-102290000D03*
X117334406Y-99750000D03*
D11*
X117334406Y-97210000D03*
D12*
X80604406Y-98350000D03*
X81954406Y-98350000D03*
X83304406Y-98350000D03*
D13*
X81954406Y-97400000D03*
D12*
X80604406Y-96450000D03*
X81954406Y-96450000D03*
X83304406Y-96450000D03*
D14*
X116266906Y-72090000D03*
X116266906Y-74630000D03*
X116266906Y-77170000D03*
X116266906Y-79710000D03*
X116266906Y-82250000D03*
X116266906Y-84790000D03*
X116266906Y-87330000D03*
X116266906Y-89870000D03*
X116266906Y-92410000D03*
D15*
X98926906Y-92410000D03*
X98926906Y-89870000D03*
X98926906Y-87330000D03*
X98926906Y-84790000D03*
X98926906Y-82250000D03*
X98926906Y-79710000D03*
X98926906Y-77170000D03*
X98926906Y-74630000D03*
X98926906Y-72090000D03*
D16*
X83859406Y-80125000D03*
D17*
X114584406Y-95800000D03*
X113334406Y-95800000D03*
D18*
X116084406Y-95000000D03*
D17*
X100584406Y-111000000D03*
X101834406Y-111000000D03*
D16*
X76584406Y-93750000D03*
X92284406Y-95046000D03*
X92284406Y-98873000D03*
X113884406Y-101155000D03*
X113884406Y-102400000D03*
X91371119Y-95013287D03*
X91384406Y-99200000D03*
X101184406Y-95373000D03*
X101184406Y-97400000D03*
X101984406Y-95700000D03*
X101984406Y-98600000D03*
X113100406Y-103000000D03*
X113100406Y-99885000D03*
X71584406Y-86900000D03*
X75984406Y-97200000D03*
X71584406Y-91100000D03*
X82584406Y-93200000D03*
X80084406Y-91600000D03*
X73984406Y-91600000D03*
X109284406Y-107900000D03*
X109184406Y-98600000D03*
X108357406Y-104900000D03*
X108357406Y-99900000D03*
X81884406Y-80200000D03*
X82284406Y-77700000D03*
X81284406Y-92300000D03*
X76684406Y-95500000D03*
X95584406Y-113400000D03*
X93084406Y-113400000D03*
X98084406Y-113400000D03*
X100784406Y-113400000D03*
X103384406Y-113400000D03*
X105884406Y-113400000D03*
X108384406Y-113400000D03*
X110884406Y-113400000D03*
X108957406Y-105900000D03*
X108957406Y-103900000D03*
X112784406Y-103900000D03*
X75984406Y-82100000D03*
X85284406Y-82100000D03*
D19*
X116334406Y-99800000D02*
X117284406Y-99800000D01*
X116084406Y-99550000D02*
X116334406Y-99800000D01*
X117284406Y-99800000D02*
X117334406Y-99750000D01*
X116084406Y-95000000D02*
X116084406Y-99550000D01*
X76684406Y-95500000D02*
X77334406Y-95500000D01*
X77334406Y-95500000D02*
X77584406Y-95250000D01*
X77584406Y-95250000D02*
X77584406Y-92450000D01*
X77584406Y-92450000D02*
X77834406Y-92200000D01*
X77834406Y-92200000D02*
X81184406Y-92200000D01*
X81184406Y-92200000D02*
X81284406Y-92300000D01*
X92284406Y-98873000D02*
X92284406Y-95046000D01*
X91384406Y-99200000D02*
X91384406Y-95026574D01*
X91384406Y-95026574D02*
X91371119Y-95013287D01*
X115284406Y-103300000D02*
X115284406Y-104500000D01*
X113100406Y-103000000D02*
X114984406Y-103000000D01*
X114984406Y-103000000D02*
X115284406Y-103300000D01*
X115284406Y-104500000D02*
X115614406Y-104830000D01*
X115614406Y-104830000D02*
X117334406Y-104830000D01*
X113884406Y-102400000D02*
X113884406Y-101155000D01*
X101184406Y-95373000D02*
X101184406Y-97400000D01*
X101984406Y-95700000D02*
X101984406Y-98600000D01*
X113100406Y-103000000D02*
X113100406Y-99885000D01*
X97350000Y-74600000D02*
X97380000Y-74630000D01*
X97350000Y-77200000D02*
X97380000Y-77170000D01*
X75984406Y-92700000D02*
X75584406Y-92300000D01*
X70584406Y-91300000D02*
X70584406Y-87900000D01*
X75584406Y-92300000D02*
X71584406Y-92300000D01*
X75984406Y-97200000D02*
X75984406Y-92700000D01*
X70584406Y-87900000D02*
X71584406Y-86900000D01*
X71584406Y-92300000D02*
X70584406Y-91300000D01*
X82584406Y-91900000D02*
X82584406Y-93200000D01*
X81684406Y-91000000D02*
X82584406Y-91900000D01*
X71684406Y-91000000D02*
X81684406Y-91000000D01*
X71584406Y-91100000D02*
X71684406Y-91000000D01*
X80084406Y-91600000D02*
X73984406Y-91600000D01*
X97370000Y-72100000D02*
X97380000Y-72090000D01*
X109557406Y-98973000D02*
X109184406Y-98600000D01*
X109284406Y-107900000D02*
X109557406Y-107627000D01*
X109557406Y-107627000D02*
X109557406Y-98973000D01*
X108357406Y-99900000D02*
X108357406Y-104900000D01*
X81884406Y-78100000D02*
X82284406Y-77700000D01*
X81884406Y-80200000D02*
X81884406Y-78100000D01*
X107251062Y-111819000D02*
X105229533Y-111819000D01*
X115216906Y-74630000D02*
X112554406Y-74630000D01*
X102948958Y-112046000D02*
X102621958Y-112373000D01*
X97784406Y-112800000D02*
X97234406Y-113350000D01*
X102621958Y-112373000D02*
X100500429Y-112373000D01*
X105229533Y-111819000D02*
X105002533Y-112046000D01*
X112554406Y-74630000D02*
X110211406Y-76973000D01*
X100073429Y-112800000D02*
X97784406Y-112800000D01*
X107578062Y-111492000D02*
X107251062Y-111819000D01*
X100500429Y-112373000D02*
X100073429Y-112800000D01*
X105002533Y-112046000D02*
X102948958Y-112046000D01*
X110211406Y-110912231D02*
X109631637Y-111492000D01*
X95634406Y-113350000D02*
X95584406Y-113400000D01*
X110211406Y-76973000D02*
X110211406Y-110912231D01*
X97234406Y-113350000D02*
X95634406Y-113350000D01*
X109631637Y-111492000D02*
X107578062Y-111492000D01*
X107442614Y-111165000D02*
X107115614Y-111492000D01*
X102486510Y-112046000D02*
X100364981Y-112046000D01*
X112294406Y-72090000D02*
X109884406Y-74500000D01*
X105094085Y-111492000D02*
X104867085Y-111719000D01*
X100364981Y-112046000D02*
X99937981Y-112473000D01*
X99937981Y-112473000D02*
X97648958Y-112473000D01*
X109884406Y-110776783D02*
X109496189Y-111165000D01*
X102813510Y-111719000D02*
X102486510Y-112046000D01*
X97648958Y-112473000D02*
X97321958Y-112800000D01*
X109496189Y-111165000D02*
X107442614Y-111165000D01*
X104867085Y-111719000D02*
X102813510Y-111719000D01*
X94735877Y-113400000D02*
X93084406Y-113400000D01*
X95335877Y-112800000D02*
X94735877Y-113400000D01*
X109884406Y-74500000D02*
X109884406Y-110776783D01*
X107115614Y-111492000D02*
X105094085Y-111492000D01*
X115216906Y-72090000D02*
X112294406Y-72090000D01*
X97321958Y-112800000D02*
X95335877Y-112800000D01*
X115216906Y-77170000D02*
X112814406Y-77170000D01*
X110538406Y-79446000D02*
X110538406Y-111047678D01*
X105137981Y-112373000D02*
X103084406Y-112373000D01*
X99935877Y-113400000D02*
X98084406Y-113400000D01*
X112814406Y-77170000D02*
X110538406Y-79446000D01*
X107386510Y-112146000D02*
X105364981Y-112146000D01*
X109767085Y-111819000D02*
X107713510Y-111819000D01*
X105364981Y-112146000D02*
X105137981Y-112373000D01*
X103084406Y-112373000D02*
X102757406Y-112700000D01*
X107713510Y-111819000D02*
X107386510Y-112146000D01*
X102757406Y-112700000D02*
X100635877Y-112700000D01*
X100635877Y-112700000D02*
X99935877Y-113400000D01*
X110035245Y-111550839D02*
X109767085Y-111819000D01*
X110538406Y-111047678D02*
X110035245Y-111550839D01*
X110865406Y-82019000D02*
X110865406Y-111183127D01*
X109902533Y-112146000D02*
X107848958Y-112146000D01*
X107521958Y-112473000D02*
X105500429Y-112473000D01*
X115216906Y-79710000D02*
X113174406Y-79710000D01*
X105273429Y-112700000D02*
X103235877Y-112700000D01*
X114617500Y-79700000D02*
X114607500Y-79710000D01*
X107848958Y-112146000D02*
X107521958Y-112473000D01*
X105500429Y-112473000D02*
X105273429Y-112700000D01*
X102535877Y-113400000D02*
X100784406Y-113400000D01*
X103235877Y-112700000D02*
X102535877Y-113400000D01*
X110865406Y-111183127D02*
X109902533Y-112146000D01*
X113174406Y-79710000D02*
X110865406Y-82019000D01*
X105635877Y-112800000D02*
X107657406Y-112800000D01*
X107984406Y-112473000D02*
X110037981Y-112473000D01*
X107657406Y-112800000D02*
X107984406Y-112473000D01*
X110037981Y-112473000D02*
X110147693Y-112363287D01*
X110197693Y-112313287D02*
X110229533Y-112281448D01*
X114657500Y-82200000D02*
X114607500Y-82250000D01*
X111192406Y-111318575D02*
X111192406Y-84192000D01*
X111192406Y-84192000D02*
X113184406Y-82200000D01*
X113184406Y-82200000D02*
X115166906Y-82200000D01*
X105035877Y-113400000D02*
X105635877Y-112800000D01*
X115166906Y-82200000D02*
X115216906Y-82250000D01*
X110147693Y-112363287D02*
X110197693Y-112313287D01*
X103384406Y-113400000D02*
X105035877Y-113400000D01*
X110229533Y-112281448D02*
X111192406Y-111318575D01*
X111228918Y-111744512D02*
X111228916Y-111744512D01*
X115206906Y-84800000D02*
X115216906Y-84790000D01*
X108135877Y-112800000D02*
X110173429Y-112800000D01*
X111228916Y-111744512D02*
X110378917Y-112594511D01*
X107535877Y-113400000D02*
X108135877Y-112800000D01*
X111228918Y-111744512D02*
X111519406Y-111454023D01*
X114617500Y-84800000D02*
X114607500Y-84790000D01*
X111519406Y-86765000D02*
X113484406Y-84800000D01*
X110173429Y-112800000D02*
X110378917Y-112594511D01*
X111519406Y-111454023D02*
X111519406Y-86765000D01*
X113484406Y-84800000D02*
X115206906Y-84800000D01*
X105884406Y-113400000D02*
X107535877Y-113400000D01*
X113754406Y-87330000D02*
X111846406Y-89238000D01*
X110035876Y-113400000D02*
X108384406Y-113400000D01*
X115216906Y-87330000D02*
X113754406Y-87330000D01*
X111846406Y-89238000D02*
X111846406Y-111589470D01*
X114637500Y-87300000D02*
X114607500Y-87330000D01*
X111846406Y-111589470D02*
X110035876Y-113400000D01*
X110884406Y-113013918D02*
X110884406Y-113400000D01*
X112173406Y-91811000D02*
X112173406Y-111724918D01*
X114114406Y-89870000D02*
X112173406Y-91811000D01*
X115216906Y-89870000D02*
X114114406Y-89870000D01*
X114637500Y-89900000D02*
X114607500Y-89870000D01*
X112173406Y-111724918D02*
X110884406Y-113013918D01*
X112500406Y-93784000D02*
X112500406Y-103616000D01*
X112500406Y-103616000D02*
X112784406Y-103900000D01*
X113874406Y-92410000D02*
X112500406Y-93784000D01*
X108957406Y-105900000D02*
X108957406Y-103900000D01*
X115216906Y-92410000D02*
X113874406Y-92410000D01*
X114617500Y-92400000D02*
X114607500Y-92410000D01*
X97330000Y-82200000D02*
X97380000Y-82250000D01*
X97370000Y-79700000D02*
X97380000Y-79710000D01*
X97370000Y-84800000D02*
X97380000Y-84790000D01*
X97380000Y-87330000D02*
X97350000Y-87300000D01*
X97380000Y-89870000D02*
X97350000Y-89900000D01*
X97380000Y-92410000D02*
X97370000Y-92400000D01*
X75984406Y-82100000D02*
X85284406Y-82100000D01*
M02*
