G04 #@! TF.GenerationSoftware,KiCad,Pcbnew,8.0.3*
G04 #@! TF.CreationDate,2024-06-09T12:16:37+02:00*
G04 #@! TF.ProjectId,chip8-pcb,63686970-382d-4706-9362-2e6b69636164,1*
G04 #@! TF.SameCoordinates,Original*
G04 #@! TF.FileFunction,Soldermask,Bot*
G04 #@! TF.FilePolarity,Negative*
%FSLAX46Y46*%
G04 Gerber Fmt 4.6, Leading zero omitted, Abs format (unit mm)*
G04 Created by KiCad (PCBNEW 8.0.3) date 2024-06-09 12:16:37*
%MOMM*%
%LPD*%
G01*
G04 APERTURE LIST*
G04 Aperture macros list*
%AMRoundRect*
0 Rectangle with rounded corners*
0 $1 Rounding radius*
0 $2 $3 $4 $5 $6 $7 $8 $9 X,Y pos of 4 corners*
0 Add a 4 corners polygon primitive as box body*
4,1,4,$2,$3,$4,$5,$6,$7,$8,$9,$2,$3,0*
0 Add four circle primitives for the rounded corners*
1,1,$1+$1,$2,$3*
1,1,$1+$1,$4,$5*
1,1,$1+$1,$6,$7*
1,1,$1+$1,$8,$9*
0 Add four rect primitives between the rounded corners*
20,1,$1+$1,$2,$3,$4,$5,0*
20,1,$1+$1,$4,$5,$6,$7,0*
20,1,$1+$1,$6,$7,$8,$9,0*
20,1,$1+$1,$8,$9,$2,$3,0*%
G04 Aperture macros list end*
%ADD10O,1.700000X1.700000*%
%ADD11R,1.700000X1.700000*%
%ADD12C,2.700000*%
%ADD13C,0.900000*%
%ADD14RoundRect,0.600000X1.150000X0.150000X-1.150000X0.150000X-1.150000X-0.150000X1.150000X-0.150000X0*%
%ADD15RoundRect,0.600000X-1.150000X-0.150000X1.150000X-0.150000X1.150000X0.150000X-1.150000X0.150000X0*%
G04 APERTURE END LIST*
D10*
X112194406Y-117750000D03*
X109654406Y-117750000D03*
X107114406Y-117750000D03*
X104574406Y-117750000D03*
X102034406Y-117750000D03*
X99494406Y-117750000D03*
X96954406Y-117750000D03*
X94414406Y-117750000D03*
X91874406Y-117750000D03*
D11*
X89334406Y-117750000D03*
D10*
X117334406Y-112450000D03*
X117334406Y-109910000D03*
X117334406Y-107370000D03*
X117334406Y-104830000D03*
X117334406Y-102290000D03*
X117334406Y-99750000D03*
D11*
X117334406Y-97210000D03*
D12*
X72084406Y-117500000D03*
X72084406Y-72500000D03*
D13*
X71084406Y-84900000D03*
X71084406Y-78100000D03*
D14*
X116266906Y-72090000D03*
X116266906Y-74630000D03*
X116266906Y-77170000D03*
X116266906Y-79710000D03*
X116266906Y-82250000D03*
X116266906Y-84790000D03*
X116266906Y-87330000D03*
X116266906Y-89870000D03*
X116266906Y-92410000D03*
D15*
X98926906Y-92410000D03*
X98926906Y-89870000D03*
X98926906Y-87330000D03*
X98926906Y-84790000D03*
X98926906Y-82250000D03*
X98926906Y-79710000D03*
X98926906Y-77170000D03*
X98926906Y-74630000D03*
X98926906Y-72090000D03*
D12*
X117084406Y-117500000D03*
M02*
