%TF.GenerationSoftware,KiCad,Pcbnew,8.0.3*%
%TF.CreationDate,2024-06-09T12:16:40+02:00*%
%TF.ProjectId,chip8-pcb,63686970-382d-4706-9362-2e6b69636164,1*%
%TF.SameCoordinates,Original*%
%TF.FileFunction,Drillmap*%
%TF.FilePolarity,Positive*%
%FSLAX45Y45*%
G04 Gerber Fmt 4.5, Leading zero omitted, Abs format (unit mm)*
G04 Created by KiCad (PCBNEW 8.0.3) date 2024-06-09 12:16:40*
%MOMM*%
%LPD*%
G01*
G04 APERTURE LIST*
%ADD10C,0.050000*%
%ADD11C,0.200000*%
%ADD12C,0.100000*%
%ADD13C,0.270000*%
G04 APERTURE END LIST*
D10*
X6958441Y-7000000D02*
X11958441Y-7000000D01*
X11958441Y-12000000D01*
X6958441Y-12000000D01*
X6958441Y-7000000D01*
D11*
D12*
X7063441Y-7765000D02*
X7153441Y-7855000D01*
X7153441Y-7765000D02*
X7063441Y-7855000D01*
X7063441Y-8445000D02*
X7153441Y-8535000D01*
X7153441Y-8445000D02*
X7063441Y-8535000D01*
D13*
X7343441Y-7250000D02*
G75*
G02*
X7073441Y-7250000I-135000J0D01*
G01*
X7073441Y-7250000D02*
G75*
G02*
X7343441Y-7250000I135000J0D01*
G01*
X7343441Y-11750000D02*
G75*
G02*
X7073441Y-11750000I-135000J0D01*
G01*
X7073441Y-11750000D02*
G75*
G02*
X7343441Y-11750000I135000J0D01*
G01*
X11843441Y-11750000D02*
G75*
G02*
X11573441Y-11750000I-135000J0D01*
G01*
X11573441Y-11750000D02*
G75*
G02*
X11843441Y-11750000I135000J0D01*
G01*
D11*
X7216717Y-12313984D02*
X7216717Y-12113984D01*
X7216717Y-12113984D02*
X7264336Y-12113984D01*
X7264336Y-12113984D02*
X7292908Y-12123508D01*
X7292908Y-12123508D02*
X7311955Y-12142555D01*
X7311955Y-12142555D02*
X7321479Y-12161603D01*
X7321479Y-12161603D02*
X7331003Y-12199698D01*
X7331003Y-12199698D02*
X7331003Y-12228269D01*
X7331003Y-12228269D02*
X7321479Y-12266365D01*
X7321479Y-12266365D02*
X7311955Y-12285412D01*
X7311955Y-12285412D02*
X7292908Y-12304460D01*
X7292908Y-12304460D02*
X7264336Y-12313984D01*
X7264336Y-12313984D02*
X7216717Y-12313984D01*
X7416717Y-12313984D02*
X7416717Y-12180650D01*
X7416717Y-12218746D02*
X7426241Y-12199698D01*
X7426241Y-12199698D02*
X7435765Y-12190174D01*
X7435765Y-12190174D02*
X7454813Y-12180650D01*
X7454813Y-12180650D02*
X7473860Y-12180650D01*
X7540527Y-12313984D02*
X7540527Y-12180650D01*
X7540527Y-12113984D02*
X7531003Y-12123508D01*
X7531003Y-12123508D02*
X7540527Y-12133031D01*
X7540527Y-12133031D02*
X7550051Y-12123508D01*
X7550051Y-12123508D02*
X7540527Y-12113984D01*
X7540527Y-12113984D02*
X7540527Y-12133031D01*
X7664336Y-12313984D02*
X7645289Y-12304460D01*
X7645289Y-12304460D02*
X7635765Y-12285412D01*
X7635765Y-12285412D02*
X7635765Y-12113984D01*
X7769098Y-12313984D02*
X7750051Y-12304460D01*
X7750051Y-12304460D02*
X7740527Y-12285412D01*
X7740527Y-12285412D02*
X7740527Y-12113984D01*
X7997670Y-12313984D02*
X7997670Y-12113984D01*
X7997670Y-12113984D02*
X8064336Y-12256841D01*
X8064336Y-12256841D02*
X8131003Y-12113984D01*
X8131003Y-12113984D02*
X8131003Y-12313984D01*
X8311955Y-12313984D02*
X8311955Y-12209222D01*
X8311955Y-12209222D02*
X8302432Y-12190174D01*
X8302432Y-12190174D02*
X8283384Y-12180650D01*
X8283384Y-12180650D02*
X8245289Y-12180650D01*
X8245289Y-12180650D02*
X8226241Y-12190174D01*
X8311955Y-12304460D02*
X8292908Y-12313984D01*
X8292908Y-12313984D02*
X8245289Y-12313984D01*
X8245289Y-12313984D02*
X8226241Y-12304460D01*
X8226241Y-12304460D02*
X8216717Y-12285412D01*
X8216717Y-12285412D02*
X8216717Y-12266365D01*
X8216717Y-12266365D02*
X8226241Y-12247317D01*
X8226241Y-12247317D02*
X8245289Y-12237793D01*
X8245289Y-12237793D02*
X8292908Y-12237793D01*
X8292908Y-12237793D02*
X8311955Y-12228269D01*
X8407194Y-12180650D02*
X8407194Y-12380650D01*
X8407194Y-12190174D02*
X8426241Y-12180650D01*
X8426241Y-12180650D02*
X8464337Y-12180650D01*
X8464337Y-12180650D02*
X8483384Y-12190174D01*
X8483384Y-12190174D02*
X8492908Y-12199698D01*
X8492908Y-12199698D02*
X8502432Y-12218746D01*
X8502432Y-12218746D02*
X8502432Y-12275888D01*
X8502432Y-12275888D02*
X8492908Y-12294936D01*
X8492908Y-12294936D02*
X8483384Y-12304460D01*
X8483384Y-12304460D02*
X8464337Y-12313984D01*
X8464337Y-12313984D02*
X8426241Y-12313984D01*
X8426241Y-12313984D02*
X8407194Y-12304460D01*
X8588146Y-12294936D02*
X8597670Y-12304460D01*
X8597670Y-12304460D02*
X8588146Y-12313984D01*
X8588146Y-12313984D02*
X8578622Y-12304460D01*
X8578622Y-12304460D02*
X8588146Y-12294936D01*
X8588146Y-12294936D02*
X8588146Y-12313984D01*
X8588146Y-12190174D02*
X8597670Y-12199698D01*
X8597670Y-12199698D02*
X8588146Y-12209222D01*
X8588146Y-12209222D02*
X8578622Y-12199698D01*
X8578622Y-12199698D02*
X8588146Y-12190174D01*
X8588146Y-12190174D02*
X8588146Y-12209222D01*
D12*
X6865941Y-12597500D02*
X6955941Y-12687500D01*
X6955941Y-12597500D02*
X6865941Y-12687500D01*
D11*
X7254813Y-12533984D02*
X7273860Y-12533984D01*
X7273860Y-12533984D02*
X7292908Y-12543508D01*
X7292908Y-12543508D02*
X7302432Y-12553031D01*
X7302432Y-12553031D02*
X7311955Y-12572079D01*
X7311955Y-12572079D02*
X7321479Y-12610174D01*
X7321479Y-12610174D02*
X7321479Y-12657793D01*
X7321479Y-12657793D02*
X7311955Y-12695888D01*
X7311955Y-12695888D02*
X7302432Y-12714936D01*
X7302432Y-12714936D02*
X7292908Y-12724460D01*
X7292908Y-12724460D02*
X7273860Y-12733984D01*
X7273860Y-12733984D02*
X7254813Y-12733984D01*
X7254813Y-12733984D02*
X7235765Y-12724460D01*
X7235765Y-12724460D02*
X7226241Y-12714936D01*
X7226241Y-12714936D02*
X7216717Y-12695888D01*
X7216717Y-12695888D02*
X7207194Y-12657793D01*
X7207194Y-12657793D02*
X7207194Y-12610174D01*
X7207194Y-12610174D02*
X7216717Y-12572079D01*
X7216717Y-12572079D02*
X7226241Y-12553031D01*
X7226241Y-12553031D02*
X7235765Y-12543508D01*
X7235765Y-12543508D02*
X7254813Y-12533984D01*
X7407194Y-12714936D02*
X7416717Y-12724460D01*
X7416717Y-12724460D02*
X7407194Y-12733984D01*
X7407194Y-12733984D02*
X7397670Y-12724460D01*
X7397670Y-12724460D02*
X7407194Y-12714936D01*
X7407194Y-12714936D02*
X7407194Y-12733984D01*
X7511955Y-12733984D02*
X7550051Y-12733984D01*
X7550051Y-12733984D02*
X7569098Y-12724460D01*
X7569098Y-12724460D02*
X7578622Y-12714936D01*
X7578622Y-12714936D02*
X7597670Y-12686365D01*
X7597670Y-12686365D02*
X7607194Y-12648269D01*
X7607194Y-12648269D02*
X7607194Y-12572079D01*
X7607194Y-12572079D02*
X7597670Y-12553031D01*
X7597670Y-12553031D02*
X7588146Y-12543508D01*
X7588146Y-12543508D02*
X7569098Y-12533984D01*
X7569098Y-12533984D02*
X7531003Y-12533984D01*
X7531003Y-12533984D02*
X7511955Y-12543508D01*
X7511955Y-12543508D02*
X7502432Y-12553031D01*
X7502432Y-12553031D02*
X7492908Y-12572079D01*
X7492908Y-12572079D02*
X7492908Y-12619698D01*
X7492908Y-12619698D02*
X7502432Y-12638746D01*
X7502432Y-12638746D02*
X7511955Y-12648269D01*
X7511955Y-12648269D02*
X7531003Y-12657793D01*
X7531003Y-12657793D02*
X7569098Y-12657793D01*
X7569098Y-12657793D02*
X7588146Y-12648269D01*
X7588146Y-12648269D02*
X7597670Y-12638746D01*
X7597670Y-12638746D02*
X7607194Y-12619698D01*
X7731003Y-12533984D02*
X7750051Y-12533984D01*
X7750051Y-12533984D02*
X7769098Y-12543508D01*
X7769098Y-12543508D02*
X7778622Y-12553031D01*
X7778622Y-12553031D02*
X7788146Y-12572079D01*
X7788146Y-12572079D02*
X7797670Y-12610174D01*
X7797670Y-12610174D02*
X7797670Y-12657793D01*
X7797670Y-12657793D02*
X7788146Y-12695888D01*
X7788146Y-12695888D02*
X7778622Y-12714936D01*
X7778622Y-12714936D02*
X7769098Y-12724460D01*
X7769098Y-12724460D02*
X7750051Y-12733984D01*
X7750051Y-12733984D02*
X7731003Y-12733984D01*
X7731003Y-12733984D02*
X7711955Y-12724460D01*
X7711955Y-12724460D02*
X7702432Y-12714936D01*
X7702432Y-12714936D02*
X7692908Y-12695888D01*
X7692908Y-12695888D02*
X7683384Y-12657793D01*
X7683384Y-12657793D02*
X7683384Y-12610174D01*
X7683384Y-12610174D02*
X7692908Y-12572079D01*
X7692908Y-12572079D02*
X7702432Y-12553031D01*
X7702432Y-12553031D02*
X7711955Y-12543508D01*
X7711955Y-12543508D02*
X7731003Y-12533984D01*
X7921479Y-12533984D02*
X7940527Y-12533984D01*
X7940527Y-12533984D02*
X7959575Y-12543508D01*
X7959575Y-12543508D02*
X7969098Y-12553031D01*
X7969098Y-12553031D02*
X7978622Y-12572079D01*
X7978622Y-12572079D02*
X7988146Y-12610174D01*
X7988146Y-12610174D02*
X7988146Y-12657793D01*
X7988146Y-12657793D02*
X7978622Y-12695888D01*
X7978622Y-12695888D02*
X7969098Y-12714936D01*
X7969098Y-12714936D02*
X7959575Y-12724460D01*
X7959575Y-12724460D02*
X7940527Y-12733984D01*
X7940527Y-12733984D02*
X7921479Y-12733984D01*
X7921479Y-12733984D02*
X7902432Y-12724460D01*
X7902432Y-12724460D02*
X7892908Y-12714936D01*
X7892908Y-12714936D02*
X7883384Y-12695888D01*
X7883384Y-12695888D02*
X7873860Y-12657793D01*
X7873860Y-12657793D02*
X7873860Y-12610174D01*
X7873860Y-12610174D02*
X7883384Y-12572079D01*
X7883384Y-12572079D02*
X7892908Y-12553031D01*
X7892908Y-12553031D02*
X7902432Y-12543508D01*
X7902432Y-12543508D02*
X7921479Y-12533984D01*
X8073860Y-12733984D02*
X8073860Y-12600650D01*
X8073860Y-12619698D02*
X8083384Y-12610174D01*
X8083384Y-12610174D02*
X8102432Y-12600650D01*
X8102432Y-12600650D02*
X8131003Y-12600650D01*
X8131003Y-12600650D02*
X8150051Y-12610174D01*
X8150051Y-12610174D02*
X8159575Y-12629222D01*
X8159575Y-12629222D02*
X8159575Y-12733984D01*
X8159575Y-12629222D02*
X8169098Y-12610174D01*
X8169098Y-12610174D02*
X8188146Y-12600650D01*
X8188146Y-12600650D02*
X8216717Y-12600650D01*
X8216717Y-12600650D02*
X8235765Y-12610174D01*
X8235765Y-12610174D02*
X8245289Y-12629222D01*
X8245289Y-12629222D02*
X8245289Y-12733984D01*
X8340527Y-12733984D02*
X8340527Y-12600650D01*
X8340527Y-12619698D02*
X8350051Y-12610174D01*
X8350051Y-12610174D02*
X8369098Y-12600650D01*
X8369098Y-12600650D02*
X8397670Y-12600650D01*
X8397670Y-12600650D02*
X8416718Y-12610174D01*
X8416718Y-12610174D02*
X8426241Y-12629222D01*
X8426241Y-12629222D02*
X8426241Y-12733984D01*
X8426241Y-12629222D02*
X8435765Y-12610174D01*
X8435765Y-12610174D02*
X8454813Y-12600650D01*
X8454813Y-12600650D02*
X8483384Y-12600650D01*
X8483384Y-12600650D02*
X8502432Y-12610174D01*
X8502432Y-12610174D02*
X8511956Y-12629222D01*
X8511956Y-12629222D02*
X8511956Y-12733984D01*
X8902432Y-12524460D02*
X8731003Y-12781603D01*
X9159575Y-12533984D02*
X9178622Y-12533984D01*
X9178622Y-12533984D02*
X9197670Y-12543508D01*
X9197670Y-12543508D02*
X9207194Y-12553031D01*
X9207194Y-12553031D02*
X9216718Y-12572079D01*
X9216718Y-12572079D02*
X9226241Y-12610174D01*
X9226241Y-12610174D02*
X9226241Y-12657793D01*
X9226241Y-12657793D02*
X9216718Y-12695888D01*
X9216718Y-12695888D02*
X9207194Y-12714936D01*
X9207194Y-12714936D02*
X9197670Y-12724460D01*
X9197670Y-12724460D02*
X9178622Y-12733984D01*
X9178622Y-12733984D02*
X9159575Y-12733984D01*
X9159575Y-12733984D02*
X9140527Y-12724460D01*
X9140527Y-12724460D02*
X9131003Y-12714936D01*
X9131003Y-12714936D02*
X9121480Y-12695888D01*
X9121480Y-12695888D02*
X9111956Y-12657793D01*
X9111956Y-12657793D02*
X9111956Y-12610174D01*
X9111956Y-12610174D02*
X9121480Y-12572079D01*
X9121480Y-12572079D02*
X9131003Y-12553031D01*
X9131003Y-12553031D02*
X9140527Y-12543508D01*
X9140527Y-12543508D02*
X9159575Y-12533984D01*
X9311956Y-12714936D02*
X9321480Y-12724460D01*
X9321480Y-12724460D02*
X9311956Y-12733984D01*
X9311956Y-12733984D02*
X9302432Y-12724460D01*
X9302432Y-12724460D02*
X9311956Y-12714936D01*
X9311956Y-12714936D02*
X9311956Y-12733984D01*
X9445289Y-12533984D02*
X9464337Y-12533984D01*
X9464337Y-12533984D02*
X9483384Y-12543508D01*
X9483384Y-12543508D02*
X9492908Y-12553031D01*
X9492908Y-12553031D02*
X9502432Y-12572079D01*
X9502432Y-12572079D02*
X9511956Y-12610174D01*
X9511956Y-12610174D02*
X9511956Y-12657793D01*
X9511956Y-12657793D02*
X9502432Y-12695888D01*
X9502432Y-12695888D02*
X9492908Y-12714936D01*
X9492908Y-12714936D02*
X9483384Y-12724460D01*
X9483384Y-12724460D02*
X9464337Y-12733984D01*
X9464337Y-12733984D02*
X9445289Y-12733984D01*
X9445289Y-12733984D02*
X9426241Y-12724460D01*
X9426241Y-12724460D02*
X9416718Y-12714936D01*
X9416718Y-12714936D02*
X9407194Y-12695888D01*
X9407194Y-12695888D02*
X9397670Y-12657793D01*
X9397670Y-12657793D02*
X9397670Y-12610174D01*
X9397670Y-12610174D02*
X9407194Y-12572079D01*
X9407194Y-12572079D02*
X9416718Y-12553031D01*
X9416718Y-12553031D02*
X9426241Y-12543508D01*
X9426241Y-12543508D02*
X9445289Y-12533984D01*
X9578622Y-12533984D02*
X9702432Y-12533984D01*
X9702432Y-12533984D02*
X9635765Y-12610174D01*
X9635765Y-12610174D02*
X9664337Y-12610174D01*
X9664337Y-12610174D02*
X9683384Y-12619698D01*
X9683384Y-12619698D02*
X9692908Y-12629222D01*
X9692908Y-12629222D02*
X9702432Y-12648269D01*
X9702432Y-12648269D02*
X9702432Y-12695888D01*
X9702432Y-12695888D02*
X9692908Y-12714936D01*
X9692908Y-12714936D02*
X9683384Y-12724460D01*
X9683384Y-12724460D02*
X9664337Y-12733984D01*
X9664337Y-12733984D02*
X9607194Y-12733984D01*
X9607194Y-12733984D02*
X9588146Y-12724460D01*
X9588146Y-12724460D02*
X9578622Y-12714936D01*
X9883384Y-12533984D02*
X9788146Y-12533984D01*
X9788146Y-12533984D02*
X9778622Y-12629222D01*
X9778622Y-12629222D02*
X9788146Y-12619698D01*
X9788146Y-12619698D02*
X9807194Y-12610174D01*
X9807194Y-12610174D02*
X9854813Y-12610174D01*
X9854813Y-12610174D02*
X9873861Y-12619698D01*
X9873861Y-12619698D02*
X9883384Y-12629222D01*
X9883384Y-12629222D02*
X9892908Y-12648269D01*
X9892908Y-12648269D02*
X9892908Y-12695888D01*
X9892908Y-12695888D02*
X9883384Y-12714936D01*
X9883384Y-12714936D02*
X9873861Y-12724460D01*
X9873861Y-12724460D02*
X9854813Y-12733984D01*
X9854813Y-12733984D02*
X9807194Y-12733984D01*
X9807194Y-12733984D02*
X9788146Y-12724460D01*
X9788146Y-12724460D02*
X9778622Y-12714936D01*
X10064337Y-12600650D02*
X10064337Y-12733984D01*
X10016718Y-12524460D02*
X9969099Y-12667317D01*
X9969099Y-12667317D02*
X10092908Y-12667317D01*
X10159575Y-12533984D02*
X10159575Y-12572079D01*
X10235765Y-12533984D02*
X10235765Y-12572079D01*
X10531004Y-12810174D02*
X10521480Y-12800650D01*
X10521480Y-12800650D02*
X10502432Y-12772079D01*
X10502432Y-12772079D02*
X10492908Y-12753031D01*
X10492908Y-12753031D02*
X10483384Y-12724460D01*
X10483384Y-12724460D02*
X10473861Y-12676841D01*
X10473861Y-12676841D02*
X10473861Y-12638746D01*
X10473861Y-12638746D02*
X10483384Y-12591127D01*
X10483384Y-12591127D02*
X10492908Y-12562555D01*
X10492908Y-12562555D02*
X10502432Y-12543508D01*
X10502432Y-12543508D02*
X10521480Y-12514936D01*
X10521480Y-12514936D02*
X10531004Y-12505412D01*
X10597670Y-12553031D02*
X10607194Y-12543508D01*
X10607194Y-12543508D02*
X10626242Y-12533984D01*
X10626242Y-12533984D02*
X10673861Y-12533984D01*
X10673861Y-12533984D02*
X10692908Y-12543508D01*
X10692908Y-12543508D02*
X10702432Y-12553031D01*
X10702432Y-12553031D02*
X10711956Y-12572079D01*
X10711956Y-12572079D02*
X10711956Y-12591127D01*
X10711956Y-12591127D02*
X10702432Y-12619698D01*
X10702432Y-12619698D02*
X10588146Y-12733984D01*
X10588146Y-12733984D02*
X10711956Y-12733984D01*
X10950051Y-12733984D02*
X10950051Y-12533984D01*
X11035765Y-12733984D02*
X11035765Y-12629222D01*
X11035765Y-12629222D02*
X11026242Y-12610174D01*
X11026242Y-12610174D02*
X11007194Y-12600650D01*
X11007194Y-12600650D02*
X10978623Y-12600650D01*
X10978623Y-12600650D02*
X10959575Y-12610174D01*
X10959575Y-12610174D02*
X10950051Y-12619698D01*
X11159575Y-12733984D02*
X11140527Y-12724460D01*
X11140527Y-12724460D02*
X11131004Y-12714936D01*
X11131004Y-12714936D02*
X11121480Y-12695888D01*
X11121480Y-12695888D02*
X11121480Y-12638746D01*
X11121480Y-12638746D02*
X11131004Y-12619698D01*
X11131004Y-12619698D02*
X11140527Y-12610174D01*
X11140527Y-12610174D02*
X11159575Y-12600650D01*
X11159575Y-12600650D02*
X11188146Y-12600650D01*
X11188146Y-12600650D02*
X11207194Y-12610174D01*
X11207194Y-12610174D02*
X11216718Y-12619698D01*
X11216718Y-12619698D02*
X11226242Y-12638746D01*
X11226242Y-12638746D02*
X11226242Y-12695888D01*
X11226242Y-12695888D02*
X11216718Y-12714936D01*
X11216718Y-12714936D02*
X11207194Y-12724460D01*
X11207194Y-12724460D02*
X11188146Y-12733984D01*
X11188146Y-12733984D02*
X11159575Y-12733984D01*
X11340527Y-12733984D02*
X11321480Y-12724460D01*
X11321480Y-12724460D02*
X11311956Y-12705412D01*
X11311956Y-12705412D02*
X11311956Y-12533984D01*
X11492908Y-12724460D02*
X11473861Y-12733984D01*
X11473861Y-12733984D02*
X11435765Y-12733984D01*
X11435765Y-12733984D02*
X11416718Y-12724460D01*
X11416718Y-12724460D02*
X11407194Y-12705412D01*
X11407194Y-12705412D02*
X11407194Y-12629222D01*
X11407194Y-12629222D02*
X11416718Y-12610174D01*
X11416718Y-12610174D02*
X11435765Y-12600650D01*
X11435765Y-12600650D02*
X11473861Y-12600650D01*
X11473861Y-12600650D02*
X11492908Y-12610174D01*
X11492908Y-12610174D02*
X11502432Y-12629222D01*
X11502432Y-12629222D02*
X11502432Y-12648269D01*
X11502432Y-12648269D02*
X11407194Y-12667317D01*
X11578623Y-12724460D02*
X11597670Y-12733984D01*
X11597670Y-12733984D02*
X11635765Y-12733984D01*
X11635765Y-12733984D02*
X11654813Y-12724460D01*
X11654813Y-12724460D02*
X11664337Y-12705412D01*
X11664337Y-12705412D02*
X11664337Y-12695888D01*
X11664337Y-12695888D02*
X11654813Y-12676841D01*
X11654813Y-12676841D02*
X11635765Y-12667317D01*
X11635765Y-12667317D02*
X11607194Y-12667317D01*
X11607194Y-12667317D02*
X11588146Y-12657793D01*
X11588146Y-12657793D02*
X11578623Y-12638746D01*
X11578623Y-12638746D02*
X11578623Y-12629222D01*
X11578623Y-12629222D02*
X11588146Y-12610174D01*
X11588146Y-12610174D02*
X11607194Y-12600650D01*
X11607194Y-12600650D02*
X11635765Y-12600650D01*
X11635765Y-12600650D02*
X11654813Y-12610174D01*
X11731004Y-12810174D02*
X11740527Y-12800650D01*
X11740527Y-12800650D02*
X11759575Y-12772079D01*
X11759575Y-12772079D02*
X11769099Y-12753031D01*
X11769099Y-12753031D02*
X11778623Y-12724460D01*
X11778623Y-12724460D02*
X11788146Y-12676841D01*
X11788146Y-12676841D02*
X11788146Y-12638746D01*
X11788146Y-12638746D02*
X11778623Y-12591127D01*
X11778623Y-12591127D02*
X11769099Y-12562555D01*
X11769099Y-12562555D02*
X11759575Y-12543508D01*
X11759575Y-12543508D02*
X11740527Y-12514936D01*
X11740527Y-12514936D02*
X11731004Y-12505412D01*
X12092908Y-12810174D02*
X12083384Y-12800650D01*
X12083384Y-12800650D02*
X12064337Y-12772079D01*
X12064337Y-12772079D02*
X12054813Y-12753031D01*
X12054813Y-12753031D02*
X12045289Y-12724460D01*
X12045289Y-12724460D02*
X12035765Y-12676841D01*
X12035765Y-12676841D02*
X12035765Y-12638746D01*
X12035765Y-12638746D02*
X12045289Y-12591127D01*
X12045289Y-12591127D02*
X12054813Y-12562555D01*
X12054813Y-12562555D02*
X12064337Y-12543508D01*
X12064337Y-12543508D02*
X12083384Y-12514936D01*
X12083384Y-12514936D02*
X12092908Y-12505412D01*
X12169099Y-12600650D02*
X12169099Y-12733984D01*
X12169099Y-12619698D02*
X12178623Y-12610174D01*
X12178623Y-12610174D02*
X12197670Y-12600650D01*
X12197670Y-12600650D02*
X12226242Y-12600650D01*
X12226242Y-12600650D02*
X12245289Y-12610174D01*
X12245289Y-12610174D02*
X12254813Y-12629222D01*
X12254813Y-12629222D02*
X12254813Y-12733984D01*
X12378623Y-12733984D02*
X12359575Y-12724460D01*
X12359575Y-12724460D02*
X12350051Y-12714936D01*
X12350051Y-12714936D02*
X12340527Y-12695888D01*
X12340527Y-12695888D02*
X12340527Y-12638746D01*
X12340527Y-12638746D02*
X12350051Y-12619698D01*
X12350051Y-12619698D02*
X12359575Y-12610174D01*
X12359575Y-12610174D02*
X12378623Y-12600650D01*
X12378623Y-12600650D02*
X12407194Y-12600650D01*
X12407194Y-12600650D02*
X12426242Y-12610174D01*
X12426242Y-12610174D02*
X12435765Y-12619698D01*
X12435765Y-12619698D02*
X12445289Y-12638746D01*
X12445289Y-12638746D02*
X12445289Y-12695888D01*
X12445289Y-12695888D02*
X12435765Y-12714936D01*
X12435765Y-12714936D02*
X12426242Y-12724460D01*
X12426242Y-12724460D02*
X12407194Y-12733984D01*
X12407194Y-12733984D02*
X12378623Y-12733984D01*
X12502432Y-12600650D02*
X12578623Y-12600650D01*
X12531004Y-12533984D02*
X12531004Y-12705412D01*
X12531004Y-12705412D02*
X12540527Y-12724460D01*
X12540527Y-12724460D02*
X12559575Y-12733984D01*
X12559575Y-12733984D02*
X12578623Y-12733984D01*
X12797670Y-12600650D02*
X12797670Y-12800650D01*
X12797670Y-12610174D02*
X12816718Y-12600650D01*
X12816718Y-12600650D02*
X12854813Y-12600650D01*
X12854813Y-12600650D02*
X12873861Y-12610174D01*
X12873861Y-12610174D02*
X12883385Y-12619698D01*
X12883385Y-12619698D02*
X12892908Y-12638746D01*
X12892908Y-12638746D02*
X12892908Y-12695888D01*
X12892908Y-12695888D02*
X12883385Y-12714936D01*
X12883385Y-12714936D02*
X12873861Y-12724460D01*
X12873861Y-12724460D02*
X12854813Y-12733984D01*
X12854813Y-12733984D02*
X12816718Y-12733984D01*
X12816718Y-12733984D02*
X12797670Y-12724460D01*
X13007194Y-12733984D02*
X12988146Y-12724460D01*
X12988146Y-12724460D02*
X12978623Y-12705412D01*
X12978623Y-12705412D02*
X12978623Y-12533984D01*
X13169099Y-12733984D02*
X13169099Y-12629222D01*
X13169099Y-12629222D02*
X13159575Y-12610174D01*
X13159575Y-12610174D02*
X13140527Y-12600650D01*
X13140527Y-12600650D02*
X13102432Y-12600650D01*
X13102432Y-12600650D02*
X13083385Y-12610174D01*
X13169099Y-12724460D02*
X13150051Y-12733984D01*
X13150051Y-12733984D02*
X13102432Y-12733984D01*
X13102432Y-12733984D02*
X13083385Y-12724460D01*
X13083385Y-12724460D02*
X13073861Y-12705412D01*
X13073861Y-12705412D02*
X13073861Y-12686365D01*
X13073861Y-12686365D02*
X13083385Y-12667317D01*
X13083385Y-12667317D02*
X13102432Y-12657793D01*
X13102432Y-12657793D02*
X13150051Y-12657793D01*
X13150051Y-12657793D02*
X13169099Y-12648269D01*
X13235766Y-12600650D02*
X13311956Y-12600650D01*
X13264337Y-12533984D02*
X13264337Y-12705412D01*
X13264337Y-12705412D02*
X13273861Y-12724460D01*
X13273861Y-12724460D02*
X13292908Y-12733984D01*
X13292908Y-12733984D02*
X13311956Y-12733984D01*
X13454813Y-12724460D02*
X13435766Y-12733984D01*
X13435766Y-12733984D02*
X13397670Y-12733984D01*
X13397670Y-12733984D02*
X13378623Y-12724460D01*
X13378623Y-12724460D02*
X13369099Y-12705412D01*
X13369099Y-12705412D02*
X13369099Y-12629222D01*
X13369099Y-12629222D02*
X13378623Y-12610174D01*
X13378623Y-12610174D02*
X13397670Y-12600650D01*
X13397670Y-12600650D02*
X13435766Y-12600650D01*
X13435766Y-12600650D02*
X13454813Y-12610174D01*
X13454813Y-12610174D02*
X13464337Y-12629222D01*
X13464337Y-12629222D02*
X13464337Y-12648269D01*
X13464337Y-12648269D02*
X13369099Y-12667317D01*
X13635766Y-12733984D02*
X13635766Y-12533984D01*
X13635766Y-12724460D02*
X13616718Y-12733984D01*
X13616718Y-12733984D02*
X13578623Y-12733984D01*
X13578623Y-12733984D02*
X13559575Y-12724460D01*
X13559575Y-12724460D02*
X13550051Y-12714936D01*
X13550051Y-12714936D02*
X13540527Y-12695888D01*
X13540527Y-12695888D02*
X13540527Y-12638746D01*
X13540527Y-12638746D02*
X13550051Y-12619698D01*
X13550051Y-12619698D02*
X13559575Y-12610174D01*
X13559575Y-12610174D02*
X13578623Y-12600650D01*
X13578623Y-12600650D02*
X13616718Y-12600650D01*
X13616718Y-12600650D02*
X13635766Y-12610174D01*
X13711956Y-12810174D02*
X13721480Y-12800650D01*
X13721480Y-12800650D02*
X13740527Y-12772079D01*
X13740527Y-12772079D02*
X13750051Y-12753031D01*
X13750051Y-12753031D02*
X13759575Y-12724460D01*
X13759575Y-12724460D02*
X13769099Y-12676841D01*
X13769099Y-12676841D02*
X13769099Y-12638746D01*
X13769099Y-12638746D02*
X13759575Y-12591127D01*
X13759575Y-12591127D02*
X13750051Y-12562555D01*
X13750051Y-12562555D02*
X13740527Y-12543508D01*
X13740527Y-12543508D02*
X13721480Y-12514936D01*
X13721480Y-12514936D02*
X13711956Y-12505412D01*
X6955941Y-12906500D02*
G75*
G02*
X6755941Y-12906500I-100000J0D01*
G01*
X6755941Y-12906500D02*
G75*
G02*
X6955941Y-12906500I100000J0D01*
G01*
X7207194Y-12817031D02*
X7216717Y-12807508D01*
X7216717Y-12807508D02*
X7235765Y-12797984D01*
X7235765Y-12797984D02*
X7283384Y-12797984D01*
X7283384Y-12797984D02*
X7302432Y-12807508D01*
X7302432Y-12807508D02*
X7311955Y-12817031D01*
X7311955Y-12817031D02*
X7321479Y-12836079D01*
X7321479Y-12836079D02*
X7321479Y-12855127D01*
X7321479Y-12855127D02*
X7311955Y-12883698D01*
X7311955Y-12883698D02*
X7197670Y-12997984D01*
X7197670Y-12997984D02*
X7321479Y-12997984D01*
X7407194Y-12978936D02*
X7416717Y-12988460D01*
X7416717Y-12988460D02*
X7407194Y-12997984D01*
X7407194Y-12997984D02*
X7397670Y-12988460D01*
X7397670Y-12988460D02*
X7407194Y-12978936D01*
X7407194Y-12978936D02*
X7407194Y-12997984D01*
X7483384Y-12797984D02*
X7616717Y-12797984D01*
X7616717Y-12797984D02*
X7531003Y-12997984D01*
X7731003Y-12797984D02*
X7750051Y-12797984D01*
X7750051Y-12797984D02*
X7769098Y-12807508D01*
X7769098Y-12807508D02*
X7778622Y-12817031D01*
X7778622Y-12817031D02*
X7788146Y-12836079D01*
X7788146Y-12836079D02*
X7797670Y-12874174D01*
X7797670Y-12874174D02*
X7797670Y-12921793D01*
X7797670Y-12921793D02*
X7788146Y-12959888D01*
X7788146Y-12959888D02*
X7778622Y-12978936D01*
X7778622Y-12978936D02*
X7769098Y-12988460D01*
X7769098Y-12988460D02*
X7750051Y-12997984D01*
X7750051Y-12997984D02*
X7731003Y-12997984D01*
X7731003Y-12997984D02*
X7711955Y-12988460D01*
X7711955Y-12988460D02*
X7702432Y-12978936D01*
X7702432Y-12978936D02*
X7692908Y-12959888D01*
X7692908Y-12959888D02*
X7683384Y-12921793D01*
X7683384Y-12921793D02*
X7683384Y-12874174D01*
X7683384Y-12874174D02*
X7692908Y-12836079D01*
X7692908Y-12836079D02*
X7702432Y-12817031D01*
X7702432Y-12817031D02*
X7711955Y-12807508D01*
X7711955Y-12807508D02*
X7731003Y-12797984D01*
X7921479Y-12797984D02*
X7940527Y-12797984D01*
X7940527Y-12797984D02*
X7959575Y-12807508D01*
X7959575Y-12807508D02*
X7969098Y-12817031D01*
X7969098Y-12817031D02*
X7978622Y-12836079D01*
X7978622Y-12836079D02*
X7988146Y-12874174D01*
X7988146Y-12874174D02*
X7988146Y-12921793D01*
X7988146Y-12921793D02*
X7978622Y-12959888D01*
X7978622Y-12959888D02*
X7969098Y-12978936D01*
X7969098Y-12978936D02*
X7959575Y-12988460D01*
X7959575Y-12988460D02*
X7940527Y-12997984D01*
X7940527Y-12997984D02*
X7921479Y-12997984D01*
X7921479Y-12997984D02*
X7902432Y-12988460D01*
X7902432Y-12988460D02*
X7892908Y-12978936D01*
X7892908Y-12978936D02*
X7883384Y-12959888D01*
X7883384Y-12959888D02*
X7873860Y-12921793D01*
X7873860Y-12921793D02*
X7873860Y-12874174D01*
X7873860Y-12874174D02*
X7883384Y-12836079D01*
X7883384Y-12836079D02*
X7892908Y-12817031D01*
X7892908Y-12817031D02*
X7902432Y-12807508D01*
X7902432Y-12807508D02*
X7921479Y-12797984D01*
X8073860Y-12997984D02*
X8073860Y-12864650D01*
X8073860Y-12883698D02*
X8083384Y-12874174D01*
X8083384Y-12874174D02*
X8102432Y-12864650D01*
X8102432Y-12864650D02*
X8131003Y-12864650D01*
X8131003Y-12864650D02*
X8150051Y-12874174D01*
X8150051Y-12874174D02*
X8159575Y-12893222D01*
X8159575Y-12893222D02*
X8159575Y-12997984D01*
X8159575Y-12893222D02*
X8169098Y-12874174D01*
X8169098Y-12874174D02*
X8188146Y-12864650D01*
X8188146Y-12864650D02*
X8216717Y-12864650D01*
X8216717Y-12864650D02*
X8235765Y-12874174D01*
X8235765Y-12874174D02*
X8245289Y-12893222D01*
X8245289Y-12893222D02*
X8245289Y-12997984D01*
X8340527Y-12997984D02*
X8340527Y-12864650D01*
X8340527Y-12883698D02*
X8350051Y-12874174D01*
X8350051Y-12874174D02*
X8369098Y-12864650D01*
X8369098Y-12864650D02*
X8397670Y-12864650D01*
X8397670Y-12864650D02*
X8416718Y-12874174D01*
X8416718Y-12874174D02*
X8426241Y-12893222D01*
X8426241Y-12893222D02*
X8426241Y-12997984D01*
X8426241Y-12893222D02*
X8435765Y-12874174D01*
X8435765Y-12874174D02*
X8454813Y-12864650D01*
X8454813Y-12864650D02*
X8483384Y-12864650D01*
X8483384Y-12864650D02*
X8502432Y-12874174D01*
X8502432Y-12874174D02*
X8511956Y-12893222D01*
X8511956Y-12893222D02*
X8511956Y-12997984D01*
X8902432Y-12788460D02*
X8731003Y-13045603D01*
X9159575Y-12797984D02*
X9178622Y-12797984D01*
X9178622Y-12797984D02*
X9197670Y-12807508D01*
X9197670Y-12807508D02*
X9207194Y-12817031D01*
X9207194Y-12817031D02*
X9216718Y-12836079D01*
X9216718Y-12836079D02*
X9226241Y-12874174D01*
X9226241Y-12874174D02*
X9226241Y-12921793D01*
X9226241Y-12921793D02*
X9216718Y-12959888D01*
X9216718Y-12959888D02*
X9207194Y-12978936D01*
X9207194Y-12978936D02*
X9197670Y-12988460D01*
X9197670Y-12988460D02*
X9178622Y-12997984D01*
X9178622Y-12997984D02*
X9159575Y-12997984D01*
X9159575Y-12997984D02*
X9140527Y-12988460D01*
X9140527Y-12988460D02*
X9131003Y-12978936D01*
X9131003Y-12978936D02*
X9121480Y-12959888D01*
X9121480Y-12959888D02*
X9111956Y-12921793D01*
X9111956Y-12921793D02*
X9111956Y-12874174D01*
X9111956Y-12874174D02*
X9121480Y-12836079D01*
X9121480Y-12836079D02*
X9131003Y-12817031D01*
X9131003Y-12817031D02*
X9140527Y-12807508D01*
X9140527Y-12807508D02*
X9159575Y-12797984D01*
X9311956Y-12978936D02*
X9321480Y-12988460D01*
X9321480Y-12988460D02*
X9311956Y-12997984D01*
X9311956Y-12997984D02*
X9302432Y-12988460D01*
X9302432Y-12988460D02*
X9311956Y-12978936D01*
X9311956Y-12978936D02*
X9311956Y-12997984D01*
X9511956Y-12997984D02*
X9397670Y-12997984D01*
X9454813Y-12997984D02*
X9454813Y-12797984D01*
X9454813Y-12797984D02*
X9435765Y-12826555D01*
X9435765Y-12826555D02*
X9416718Y-12845603D01*
X9416718Y-12845603D02*
X9397670Y-12855127D01*
X9635765Y-12797984D02*
X9654813Y-12797984D01*
X9654813Y-12797984D02*
X9673861Y-12807508D01*
X9673861Y-12807508D02*
X9683384Y-12817031D01*
X9683384Y-12817031D02*
X9692908Y-12836079D01*
X9692908Y-12836079D02*
X9702432Y-12874174D01*
X9702432Y-12874174D02*
X9702432Y-12921793D01*
X9702432Y-12921793D02*
X9692908Y-12959888D01*
X9692908Y-12959888D02*
X9683384Y-12978936D01*
X9683384Y-12978936D02*
X9673861Y-12988460D01*
X9673861Y-12988460D02*
X9654813Y-12997984D01*
X9654813Y-12997984D02*
X9635765Y-12997984D01*
X9635765Y-12997984D02*
X9616718Y-12988460D01*
X9616718Y-12988460D02*
X9607194Y-12978936D01*
X9607194Y-12978936D02*
X9597670Y-12959888D01*
X9597670Y-12959888D02*
X9588146Y-12921793D01*
X9588146Y-12921793D02*
X9588146Y-12874174D01*
X9588146Y-12874174D02*
X9597670Y-12836079D01*
X9597670Y-12836079D02*
X9607194Y-12817031D01*
X9607194Y-12817031D02*
X9616718Y-12807508D01*
X9616718Y-12807508D02*
X9635765Y-12797984D01*
X9873861Y-12797984D02*
X9835765Y-12797984D01*
X9835765Y-12797984D02*
X9816718Y-12807508D01*
X9816718Y-12807508D02*
X9807194Y-12817031D01*
X9807194Y-12817031D02*
X9788146Y-12845603D01*
X9788146Y-12845603D02*
X9778622Y-12883698D01*
X9778622Y-12883698D02*
X9778622Y-12959888D01*
X9778622Y-12959888D02*
X9788146Y-12978936D01*
X9788146Y-12978936D02*
X9797670Y-12988460D01*
X9797670Y-12988460D02*
X9816718Y-12997984D01*
X9816718Y-12997984D02*
X9854813Y-12997984D01*
X9854813Y-12997984D02*
X9873861Y-12988460D01*
X9873861Y-12988460D02*
X9883384Y-12978936D01*
X9883384Y-12978936D02*
X9892908Y-12959888D01*
X9892908Y-12959888D02*
X9892908Y-12912269D01*
X9892908Y-12912269D02*
X9883384Y-12893222D01*
X9883384Y-12893222D02*
X9873861Y-12883698D01*
X9873861Y-12883698D02*
X9854813Y-12874174D01*
X9854813Y-12874174D02*
X9816718Y-12874174D01*
X9816718Y-12874174D02*
X9797670Y-12883698D01*
X9797670Y-12883698D02*
X9788146Y-12893222D01*
X9788146Y-12893222D02*
X9778622Y-12912269D01*
X9959575Y-12797984D02*
X10083384Y-12797984D01*
X10083384Y-12797984D02*
X10016718Y-12874174D01*
X10016718Y-12874174D02*
X10045289Y-12874174D01*
X10045289Y-12874174D02*
X10064337Y-12883698D01*
X10064337Y-12883698D02*
X10073861Y-12893222D01*
X10073861Y-12893222D02*
X10083384Y-12912269D01*
X10083384Y-12912269D02*
X10083384Y-12959888D01*
X10083384Y-12959888D02*
X10073861Y-12978936D01*
X10073861Y-12978936D02*
X10064337Y-12988460D01*
X10064337Y-12988460D02*
X10045289Y-12997984D01*
X10045289Y-12997984D02*
X9988146Y-12997984D01*
X9988146Y-12997984D02*
X9969099Y-12988460D01*
X9969099Y-12988460D02*
X9959575Y-12978936D01*
X10159575Y-12797984D02*
X10159575Y-12836079D01*
X10235765Y-12797984D02*
X10235765Y-12836079D01*
X10531004Y-13074174D02*
X10521480Y-13064650D01*
X10521480Y-13064650D02*
X10502432Y-13036079D01*
X10502432Y-13036079D02*
X10492908Y-13017031D01*
X10492908Y-13017031D02*
X10483384Y-12988460D01*
X10483384Y-12988460D02*
X10473861Y-12940841D01*
X10473861Y-12940841D02*
X10473861Y-12902746D01*
X10473861Y-12902746D02*
X10483384Y-12855127D01*
X10483384Y-12855127D02*
X10492908Y-12826555D01*
X10492908Y-12826555D02*
X10502432Y-12807508D01*
X10502432Y-12807508D02*
X10521480Y-12778936D01*
X10521480Y-12778936D02*
X10531004Y-12769412D01*
X10588146Y-12797984D02*
X10711956Y-12797984D01*
X10711956Y-12797984D02*
X10645289Y-12874174D01*
X10645289Y-12874174D02*
X10673861Y-12874174D01*
X10673861Y-12874174D02*
X10692908Y-12883698D01*
X10692908Y-12883698D02*
X10702432Y-12893222D01*
X10702432Y-12893222D02*
X10711956Y-12912269D01*
X10711956Y-12912269D02*
X10711956Y-12959888D01*
X10711956Y-12959888D02*
X10702432Y-12978936D01*
X10702432Y-12978936D02*
X10692908Y-12988460D01*
X10692908Y-12988460D02*
X10673861Y-12997984D01*
X10673861Y-12997984D02*
X10616718Y-12997984D01*
X10616718Y-12997984D02*
X10597670Y-12988460D01*
X10597670Y-12988460D02*
X10588146Y-12978936D01*
X10950051Y-12997984D02*
X10950051Y-12797984D01*
X11035765Y-12997984D02*
X11035765Y-12893222D01*
X11035765Y-12893222D02*
X11026242Y-12874174D01*
X11026242Y-12874174D02*
X11007194Y-12864650D01*
X11007194Y-12864650D02*
X10978623Y-12864650D01*
X10978623Y-12864650D02*
X10959575Y-12874174D01*
X10959575Y-12874174D02*
X10950051Y-12883698D01*
X11159575Y-12997984D02*
X11140527Y-12988460D01*
X11140527Y-12988460D02*
X11131004Y-12978936D01*
X11131004Y-12978936D02*
X11121480Y-12959888D01*
X11121480Y-12959888D02*
X11121480Y-12902746D01*
X11121480Y-12902746D02*
X11131004Y-12883698D01*
X11131004Y-12883698D02*
X11140527Y-12874174D01*
X11140527Y-12874174D02*
X11159575Y-12864650D01*
X11159575Y-12864650D02*
X11188146Y-12864650D01*
X11188146Y-12864650D02*
X11207194Y-12874174D01*
X11207194Y-12874174D02*
X11216718Y-12883698D01*
X11216718Y-12883698D02*
X11226242Y-12902746D01*
X11226242Y-12902746D02*
X11226242Y-12959888D01*
X11226242Y-12959888D02*
X11216718Y-12978936D01*
X11216718Y-12978936D02*
X11207194Y-12988460D01*
X11207194Y-12988460D02*
X11188146Y-12997984D01*
X11188146Y-12997984D02*
X11159575Y-12997984D01*
X11340527Y-12997984D02*
X11321480Y-12988460D01*
X11321480Y-12988460D02*
X11311956Y-12969412D01*
X11311956Y-12969412D02*
X11311956Y-12797984D01*
X11492908Y-12988460D02*
X11473861Y-12997984D01*
X11473861Y-12997984D02*
X11435765Y-12997984D01*
X11435765Y-12997984D02*
X11416718Y-12988460D01*
X11416718Y-12988460D02*
X11407194Y-12969412D01*
X11407194Y-12969412D02*
X11407194Y-12893222D01*
X11407194Y-12893222D02*
X11416718Y-12874174D01*
X11416718Y-12874174D02*
X11435765Y-12864650D01*
X11435765Y-12864650D02*
X11473861Y-12864650D01*
X11473861Y-12864650D02*
X11492908Y-12874174D01*
X11492908Y-12874174D02*
X11502432Y-12893222D01*
X11502432Y-12893222D02*
X11502432Y-12912269D01*
X11502432Y-12912269D02*
X11407194Y-12931317D01*
X11578623Y-12988460D02*
X11597670Y-12997984D01*
X11597670Y-12997984D02*
X11635765Y-12997984D01*
X11635765Y-12997984D02*
X11654813Y-12988460D01*
X11654813Y-12988460D02*
X11664337Y-12969412D01*
X11664337Y-12969412D02*
X11664337Y-12959888D01*
X11664337Y-12959888D02*
X11654813Y-12940841D01*
X11654813Y-12940841D02*
X11635765Y-12931317D01*
X11635765Y-12931317D02*
X11607194Y-12931317D01*
X11607194Y-12931317D02*
X11588146Y-12921793D01*
X11588146Y-12921793D02*
X11578623Y-12902746D01*
X11578623Y-12902746D02*
X11578623Y-12893222D01*
X11578623Y-12893222D02*
X11588146Y-12874174D01*
X11588146Y-12874174D02*
X11607194Y-12864650D01*
X11607194Y-12864650D02*
X11635765Y-12864650D01*
X11635765Y-12864650D02*
X11654813Y-12874174D01*
X11731004Y-13074174D02*
X11740527Y-13064650D01*
X11740527Y-13064650D02*
X11759575Y-13036079D01*
X11759575Y-13036079D02*
X11769099Y-13017031D01*
X11769099Y-13017031D02*
X11778623Y-12988460D01*
X11778623Y-12988460D02*
X11788146Y-12940841D01*
X11788146Y-12940841D02*
X11788146Y-12902746D01*
X11788146Y-12902746D02*
X11778623Y-12855127D01*
X11778623Y-12855127D02*
X11769099Y-12826555D01*
X11769099Y-12826555D02*
X11759575Y-12807508D01*
X11759575Y-12807508D02*
X11740527Y-12778936D01*
X11740527Y-12778936D02*
X11731004Y-12769412D01*
X12092908Y-13074174D02*
X12083384Y-13064650D01*
X12083384Y-13064650D02*
X12064337Y-13036079D01*
X12064337Y-13036079D02*
X12054813Y-13017031D01*
X12054813Y-13017031D02*
X12045289Y-12988460D01*
X12045289Y-12988460D02*
X12035765Y-12940841D01*
X12035765Y-12940841D02*
X12035765Y-12902746D01*
X12035765Y-12902746D02*
X12045289Y-12855127D01*
X12045289Y-12855127D02*
X12054813Y-12826555D01*
X12054813Y-12826555D02*
X12064337Y-12807508D01*
X12064337Y-12807508D02*
X12083384Y-12778936D01*
X12083384Y-12778936D02*
X12092908Y-12769412D01*
X12169099Y-12864650D02*
X12169099Y-12997984D01*
X12169099Y-12883698D02*
X12178623Y-12874174D01*
X12178623Y-12874174D02*
X12197670Y-12864650D01*
X12197670Y-12864650D02*
X12226242Y-12864650D01*
X12226242Y-12864650D02*
X12245289Y-12874174D01*
X12245289Y-12874174D02*
X12254813Y-12893222D01*
X12254813Y-12893222D02*
X12254813Y-12997984D01*
X12378623Y-12997984D02*
X12359575Y-12988460D01*
X12359575Y-12988460D02*
X12350051Y-12978936D01*
X12350051Y-12978936D02*
X12340527Y-12959888D01*
X12340527Y-12959888D02*
X12340527Y-12902746D01*
X12340527Y-12902746D02*
X12350051Y-12883698D01*
X12350051Y-12883698D02*
X12359575Y-12874174D01*
X12359575Y-12874174D02*
X12378623Y-12864650D01*
X12378623Y-12864650D02*
X12407194Y-12864650D01*
X12407194Y-12864650D02*
X12426242Y-12874174D01*
X12426242Y-12874174D02*
X12435765Y-12883698D01*
X12435765Y-12883698D02*
X12445289Y-12902746D01*
X12445289Y-12902746D02*
X12445289Y-12959888D01*
X12445289Y-12959888D02*
X12435765Y-12978936D01*
X12435765Y-12978936D02*
X12426242Y-12988460D01*
X12426242Y-12988460D02*
X12407194Y-12997984D01*
X12407194Y-12997984D02*
X12378623Y-12997984D01*
X12502432Y-12864650D02*
X12578623Y-12864650D01*
X12531004Y-12797984D02*
X12531004Y-12969412D01*
X12531004Y-12969412D02*
X12540527Y-12988460D01*
X12540527Y-12988460D02*
X12559575Y-12997984D01*
X12559575Y-12997984D02*
X12578623Y-12997984D01*
X12797670Y-12864650D02*
X12797670Y-13064650D01*
X12797670Y-12874174D02*
X12816718Y-12864650D01*
X12816718Y-12864650D02*
X12854813Y-12864650D01*
X12854813Y-12864650D02*
X12873861Y-12874174D01*
X12873861Y-12874174D02*
X12883385Y-12883698D01*
X12883385Y-12883698D02*
X12892908Y-12902746D01*
X12892908Y-12902746D02*
X12892908Y-12959888D01*
X12892908Y-12959888D02*
X12883385Y-12978936D01*
X12883385Y-12978936D02*
X12873861Y-12988460D01*
X12873861Y-12988460D02*
X12854813Y-12997984D01*
X12854813Y-12997984D02*
X12816718Y-12997984D01*
X12816718Y-12997984D02*
X12797670Y-12988460D01*
X13007194Y-12997984D02*
X12988146Y-12988460D01*
X12988146Y-12988460D02*
X12978623Y-12969412D01*
X12978623Y-12969412D02*
X12978623Y-12797984D01*
X13169099Y-12997984D02*
X13169099Y-12893222D01*
X13169099Y-12893222D02*
X13159575Y-12874174D01*
X13159575Y-12874174D02*
X13140527Y-12864650D01*
X13140527Y-12864650D02*
X13102432Y-12864650D01*
X13102432Y-12864650D02*
X13083385Y-12874174D01*
X13169099Y-12988460D02*
X13150051Y-12997984D01*
X13150051Y-12997984D02*
X13102432Y-12997984D01*
X13102432Y-12997984D02*
X13083385Y-12988460D01*
X13083385Y-12988460D02*
X13073861Y-12969412D01*
X13073861Y-12969412D02*
X13073861Y-12950365D01*
X13073861Y-12950365D02*
X13083385Y-12931317D01*
X13083385Y-12931317D02*
X13102432Y-12921793D01*
X13102432Y-12921793D02*
X13150051Y-12921793D01*
X13150051Y-12921793D02*
X13169099Y-12912269D01*
X13235766Y-12864650D02*
X13311956Y-12864650D01*
X13264337Y-12797984D02*
X13264337Y-12969412D01*
X13264337Y-12969412D02*
X13273861Y-12988460D01*
X13273861Y-12988460D02*
X13292908Y-12997984D01*
X13292908Y-12997984D02*
X13311956Y-12997984D01*
X13454813Y-12988460D02*
X13435766Y-12997984D01*
X13435766Y-12997984D02*
X13397670Y-12997984D01*
X13397670Y-12997984D02*
X13378623Y-12988460D01*
X13378623Y-12988460D02*
X13369099Y-12969412D01*
X13369099Y-12969412D02*
X13369099Y-12893222D01*
X13369099Y-12893222D02*
X13378623Y-12874174D01*
X13378623Y-12874174D02*
X13397670Y-12864650D01*
X13397670Y-12864650D02*
X13435766Y-12864650D01*
X13435766Y-12864650D02*
X13454813Y-12874174D01*
X13454813Y-12874174D02*
X13464337Y-12893222D01*
X13464337Y-12893222D02*
X13464337Y-12912269D01*
X13464337Y-12912269D02*
X13369099Y-12931317D01*
X13635766Y-12997984D02*
X13635766Y-12797984D01*
X13635766Y-12988460D02*
X13616718Y-12997984D01*
X13616718Y-12997984D02*
X13578623Y-12997984D01*
X13578623Y-12997984D02*
X13559575Y-12988460D01*
X13559575Y-12988460D02*
X13550051Y-12978936D01*
X13550051Y-12978936D02*
X13540527Y-12959888D01*
X13540527Y-12959888D02*
X13540527Y-12902746D01*
X13540527Y-12902746D02*
X13550051Y-12883698D01*
X13550051Y-12883698D02*
X13559575Y-12874174D01*
X13559575Y-12874174D02*
X13578623Y-12864650D01*
X13578623Y-12864650D02*
X13616718Y-12864650D01*
X13616718Y-12864650D02*
X13635766Y-12874174D01*
X13711956Y-13074174D02*
X13721480Y-13064650D01*
X13721480Y-13064650D02*
X13740527Y-13036079D01*
X13740527Y-13036079D02*
X13750051Y-13017031D01*
X13750051Y-13017031D02*
X13759575Y-12988460D01*
X13759575Y-12988460D02*
X13769099Y-12940841D01*
X13769099Y-12940841D02*
X13769099Y-12902746D01*
X13769099Y-12902746D02*
X13759575Y-12855127D01*
X13759575Y-12855127D02*
X13750051Y-12826555D01*
X13750051Y-12826555D02*
X13740527Y-12807508D01*
X13740527Y-12807508D02*
X13721480Y-12778936D01*
X13721480Y-12778936D02*
X13711956Y-12769412D01*
M02*
