%TF.GenerationSoftware,KiCad,Pcbnew,8.0.3*%
%TF.CreationDate,2024-06-08T17:14:44+02:00*%
%TF.ProjectId,chip8-pcb,63686970-382d-4706-9362-2e6b69636164,1*%
%TF.SameCoordinates,Original*%
%TF.FileFunction,Drillmap*%
%TF.FilePolarity,Positive*%
%FSLAX45Y45*%
G04 Gerber Fmt 4.5, Leading zero omitted, Abs format (unit mm)*
G04 Created by KiCad (PCBNEW 8.0.3) date 2024-06-08 17:14:44*
%MOMM*%
%LPD*%
G01*
G04 APERTURE LIST*
%ADD10C,0.100000*%
%ADD11C,0.200000*%
G04 APERTURE END LIST*
D10*
X12000000Y-16500000D02*
G75*
G02*
X11500000Y-17000000I-500000J0D01*
G01*
X4000000Y-5000000D02*
G75*
G02*
X4500000Y-4500000I500000J0D01*
G01*
X4500000Y-17000000D02*
G75*
G02*
X4000000Y-16500000I0J500000D01*
G01*
X4500000Y-17000000D02*
X11500000Y-17000000D01*
X4500000Y-4500000D02*
X11500000Y-4500000D01*
X12000000Y-5000000D02*
X12000000Y-16500000D01*
X11500000Y-4500000D02*
G75*
G02*
X12000000Y-5000000I0J-500000D01*
G01*
X4000000Y-16500000D02*
X4000000Y-5000000D01*
D11*
D10*
X9830000Y-7835500D02*
X9850000Y-7855500D01*
X9850000Y-7835500D02*
X9830000Y-7855500D01*
X9830000Y-7970500D02*
X9850000Y-7990500D01*
X9850000Y-7970500D02*
X9830000Y-7990500D01*
X9830000Y-8105500D02*
X9850000Y-8125500D01*
X9850000Y-8105500D02*
X9830000Y-8125500D01*
X10020000Y-7835500D02*
X10040000Y-7855500D01*
X10040000Y-7835500D02*
X10020000Y-7855500D01*
X10020000Y-7970500D02*
X10040000Y-7990500D01*
X10040000Y-7970500D02*
X10020000Y-7990500D01*
X10020000Y-8105500D02*
X10040000Y-8125500D01*
X10040000Y-8105500D02*
X10020000Y-8125500D01*
X5645000Y-6130000D02*
G75*
G02*
X5615000Y-6130000I-15000J0D01*
G01*
X5615000Y-6130000D02*
G75*
G02*
X5645000Y-6130000I15000J0D01*
G01*
X6115000Y-7100000D02*
G75*
G02*
X6085000Y-7100000I-15000J0D01*
G01*
X6085000Y-7100000D02*
G75*
G02*
X6115000Y-7100000I15000J0D01*
G01*
X6175000Y-7160000D02*
G75*
G02*
X6145000Y-7160000I-15000J0D01*
G01*
X6145000Y-7160000D02*
G75*
G02*
X6175000Y-7160000I15000J0D01*
G01*
X6175000Y-7250000D02*
G75*
G02*
X6145000Y-7250000I-15000J0D01*
G01*
X6145000Y-7250000D02*
G75*
G02*
X6175000Y-7250000I15000J0D01*
G01*
X6175000Y-7923500D02*
G75*
G02*
X6145000Y-7923500I-15000J0D01*
G01*
X6145000Y-7923500D02*
G75*
G02*
X6175000Y-7923500I15000J0D01*
G01*
X6175000Y-8050500D02*
G75*
G02*
X6145000Y-8050500I-15000J0D01*
G01*
X6145000Y-8050500D02*
G75*
G02*
X6175000Y-8050500I15000J0D01*
G01*
X6310000Y-7800000D02*
G75*
G02*
X6280000Y-7800000I-15000J0D01*
G01*
X6280000Y-7800000D02*
G75*
G02*
X6310000Y-7800000I15000J0D01*
G01*
X6375000Y-8855000D02*
G75*
G02*
X6345000Y-8855000I-15000J0D01*
G01*
X6345000Y-8855000D02*
G75*
G02*
X6375000Y-8855000I15000J0D01*
G01*
X6455000Y-4700000D02*
G75*
G02*
X6425000Y-4700000I-15000J0D01*
G01*
X6425000Y-4700000D02*
G75*
G02*
X6455000Y-4700000I15000J0D01*
G01*
X6455000Y-4950000D02*
G75*
G02*
X6425000Y-4950000I-15000J0D01*
G01*
X6425000Y-4950000D02*
G75*
G02*
X6455000Y-4950000I15000J0D01*
G01*
X6455000Y-5220000D02*
G75*
G02*
X6425000Y-5220000I-15000J0D01*
G01*
X6425000Y-5220000D02*
G75*
G02*
X6455000Y-5220000I15000J0D01*
G01*
X6455000Y-5460000D02*
G75*
G02*
X6425000Y-5460000I-15000J0D01*
G01*
X6425000Y-5460000D02*
G75*
G02*
X6455000Y-5460000I15000J0D01*
G01*
X6455000Y-5720000D02*
G75*
G02*
X6425000Y-5720000I-15000J0D01*
G01*
X6425000Y-5720000D02*
G75*
G02*
X6455000Y-5720000I15000J0D01*
G01*
X6455000Y-5980000D02*
G75*
G02*
X6425000Y-5980000I-15000J0D01*
G01*
X6425000Y-5980000D02*
G75*
G02*
X6455000Y-5980000I15000J0D01*
G01*
X6455000Y-6220000D02*
G75*
G02*
X6425000Y-6220000I-15000J0D01*
G01*
X6425000Y-6220000D02*
G75*
G02*
X6455000Y-6220000I15000J0D01*
G01*
X6455000Y-6480000D02*
G75*
G02*
X6425000Y-6480000I-15000J0D01*
G01*
X6425000Y-6480000D02*
G75*
G02*
X6455000Y-6480000I15000J0D01*
G01*
X6455000Y-6740000D02*
G75*
G02*
X6425000Y-6740000I-15000J0D01*
G01*
X6425000Y-6740000D02*
G75*
G02*
X6455000Y-6740000I15000J0D01*
G01*
X7635000Y-7140000D02*
G75*
G02*
X7605000Y-7140000I-15000J0D01*
G01*
X7605000Y-7140000D02*
G75*
G02*
X7635000Y-7140000I15000J0D01*
G01*
X7635000Y-7670000D02*
G75*
G02*
X7605000Y-7670000I-15000J0D01*
G01*
X7605000Y-7670000D02*
G75*
G02*
X7635000Y-7670000I15000J0D01*
G01*
X7715000Y-7155400D02*
G75*
G02*
X7685000Y-7155400I-15000J0D01*
G01*
X7685000Y-7155400D02*
G75*
G02*
X7715000Y-7155400I15000J0D01*
G01*
X7715000Y-7760000D02*
G75*
G02*
X7685000Y-7760000I-15000J0D01*
G01*
X7685000Y-7760000D02*
G75*
G02*
X7715000Y-7760000I15000J0D01*
G01*
X7971000Y-7926500D02*
G75*
G02*
X7941000Y-7926500I-15000J0D01*
G01*
X7941000Y-7926500D02*
G75*
G02*
X7971000Y-7926500I15000J0D01*
G01*
X10045000Y-8620000D02*
G75*
G02*
X10015000Y-8620000I-15000J0D01*
G01*
X10015000Y-8620000D02*
G75*
G02*
X10045000Y-8620000I15000J0D01*
G01*
X10325289Y-8108971D02*
G75*
G02*
X10295289Y-8108971I-15000J0D01*
G01*
X10295289Y-8108971D02*
G75*
G02*
X10325289Y-8108971I15000J0D01*
G01*
X10455000Y-7040000D02*
G75*
G02*
X10425000Y-7040000I-15000J0D01*
G01*
X10425000Y-7040000D02*
G75*
G02*
X10455000Y-7040000I15000J0D01*
G01*
X10825000Y-6850000D02*
G75*
G02*
X10795000Y-6850000I-15000J0D01*
G01*
X10795000Y-6850000D02*
G75*
G02*
X10825000Y-6850000I15000J0D01*
G01*
X10845000Y-7090000D02*
G75*
G02*
X10815000Y-7090000I-15000J0D01*
G01*
X10815000Y-7090000D02*
G75*
G02*
X10845000Y-7090000I15000J0D01*
G01*
X11395000Y-7100000D02*
G75*
G02*
X11365000Y-7100000I-15000J0D01*
G01*
X11365000Y-7100000D02*
G75*
G02*
X11395000Y-7100000I15000J0D01*
G01*
X11405000Y-8210000D02*
G75*
G02*
X11375000Y-8210000I-15000J0D01*
G01*
X11375000Y-8210000D02*
G75*
G02*
X11405000Y-8210000I15000J0D01*
G01*
X11470000Y-8150000D02*
G75*
G02*
X11440000Y-8150000I-15000J0D01*
G01*
X11440000Y-8150000D02*
G75*
G02*
X11470000Y-8150000I15000J0D01*
G01*
X11505000Y-8487500D02*
G75*
G02*
X11475000Y-8487500I-15000J0D01*
G01*
X11475000Y-8487500D02*
G75*
G02*
X11505000Y-8487500I15000J0D01*
G01*
X6346250Y-7455000D02*
X6346250Y-7505000D01*
X6321250Y-7480000D02*
X6371250Y-7480000D01*
X6476250Y-7455000D02*
X6476250Y-7505000D01*
X6451250Y-7480000D02*
X6501250Y-7480000D01*
X6650000Y-8545000D02*
X6650000Y-8595000D01*
X6625000Y-8570000D02*
X6675000Y-8570000D01*
X6650000Y-8675000D02*
X6650000Y-8725000D01*
X6625000Y-8700000D02*
X6675000Y-8700000D01*
X6790000Y-9215000D02*
X6790000Y-9265000D01*
X6765000Y-9240000D02*
X6815000Y-9240000D01*
X6910000Y-9215000D02*
X6910000Y-9265000D01*
X6885000Y-9240000D02*
X6935000Y-9240000D01*
X6916250Y-7455000D02*
X6916250Y-7505000D01*
X6891250Y-7480000D02*
X6941250Y-7480000D01*
X7066250Y-7455000D02*
X7066250Y-7505000D01*
X7041250Y-7480000D02*
X7091250Y-7480000D01*
X7490000Y-8154500D02*
X7490000Y-8204500D01*
X7465000Y-8179500D02*
X7515000Y-8179500D01*
X7490000Y-8284500D02*
X7490000Y-8334500D01*
X7465000Y-8309500D02*
X7515000Y-8309500D01*
X8870000Y-8935000D02*
X8870000Y-8985000D01*
X8845000Y-8960000D02*
X8895000Y-8960000D01*
X9125000Y-8325000D02*
X9125000Y-8375000D01*
X9100000Y-8350000D02*
X9150000Y-8350000D01*
X9125000Y-8475000D02*
X9125000Y-8525000D01*
X9100000Y-8500000D02*
X9150000Y-8500000D01*
X9275000Y-8325000D02*
X9275000Y-8375000D01*
X9250000Y-8350000D02*
X9300000Y-8350000D01*
X9275000Y-8475000D02*
X9275000Y-8525000D01*
X9250000Y-8500000D02*
X9300000Y-8500000D01*
X9425000Y-8325000D02*
X9425000Y-8375000D01*
X9400000Y-8350000D02*
X9450000Y-8350000D01*
X9425000Y-8475000D02*
X9425000Y-8525000D01*
X9400000Y-8500000D02*
X9450000Y-8500000D01*
X9500000Y-9125000D02*
X9500000Y-9175000D01*
X9475000Y-9150000D02*
X9525000Y-9150000D01*
X9650000Y-9125000D02*
X9650000Y-9175000D01*
X9625000Y-9150000D02*
X9675000Y-9150000D01*
X9650000Y-9275000D02*
X9650000Y-9325000D01*
X9625000Y-9300000D02*
X9675000Y-9300000D01*
X9970000Y-7045000D02*
X9970000Y-7095000D01*
X9945000Y-7070000D02*
X9995000Y-7070000D01*
X9970000Y-7185000D02*
X9970000Y-7235000D01*
X9945000Y-7210000D02*
X9995000Y-7210000D01*
X10110000Y-7045000D02*
X10110000Y-7095000D01*
X10085000Y-7070000D02*
X10135000Y-7070000D01*
X10110000Y-7185000D02*
X10110000Y-7235000D01*
X10085000Y-7210000D02*
X10135000Y-7210000D01*
X10250000Y-7045000D02*
X10250000Y-7095000D01*
X10225000Y-7070000D02*
X10275000Y-7070000D01*
X10250000Y-7185000D02*
X10250000Y-7235000D01*
X10225000Y-7210000D02*
X10275000Y-7210000D01*
X10900000Y-7525000D02*
X10900000Y-7575000D01*
X10875000Y-7550000D02*
X10925000Y-7550000D01*
X10900000Y-7725000D02*
X10900000Y-7775000D01*
X10875000Y-7750000D02*
X10925000Y-7750000D01*
X11100000Y-7525000D02*
X11100000Y-7575000D01*
X11075000Y-7550000D02*
X11125000Y-7550000D01*
X11100000Y-7725000D02*
X11100000Y-7775000D01*
X11075000Y-7750000D02*
X11125000Y-7750000D01*
X11300000Y-7525000D02*
X11300000Y-7575000D01*
X11275000Y-7550000D02*
X11325000Y-7550000D01*
X11300000Y-7725000D02*
X11300000Y-7775000D01*
X11275000Y-7750000D02*
X11325000Y-7750000D01*
X5942856Y-6493356D02*
X5942856Y-6422644D01*
X5872144Y-6422644D01*
X5872144Y-6493356D01*
X5942856Y-6493356D01*
X5942856Y-6747356D02*
X5942856Y-6676644D01*
X5872144Y-6676644D01*
X5872144Y-6747356D01*
X5942856Y-6747356D01*
X5942856Y-7001356D02*
X5942856Y-6930644D01*
X5872144Y-6930644D01*
X5872144Y-7001356D01*
X5942856Y-7001356D01*
X5942856Y-7255356D02*
X5942856Y-7184644D01*
X5872144Y-7184644D01*
X5872144Y-7255356D01*
X5942856Y-7255356D01*
X5942856Y-7509356D02*
X5942856Y-7438644D01*
X5872144Y-7438644D01*
X5872144Y-7509356D01*
X5942856Y-7509356D01*
X5942856Y-7763356D02*
X5942856Y-7692644D01*
X5872144Y-7692644D01*
X5872144Y-7763356D01*
X5942856Y-7763356D01*
X5942856Y-8017356D02*
X5942856Y-7946644D01*
X5872144Y-7946644D01*
X5872144Y-8017356D01*
X5942856Y-8017356D01*
X6885356Y-16272856D02*
X6885356Y-16202144D01*
X6814644Y-16202144D01*
X6814644Y-16272856D01*
X6885356Y-16272856D01*
X7139356Y-16272856D02*
X7139356Y-16202144D01*
X7068644Y-16202144D01*
X7068644Y-16272856D01*
X7139356Y-16272856D01*
X7273356Y-4744356D02*
X7273356Y-4673644D01*
X7202644Y-4673644D01*
X7202644Y-4744356D01*
X7273356Y-4744356D01*
X7273356Y-4998356D02*
X7273356Y-4927644D01*
X7202644Y-4927644D01*
X7202644Y-4998356D01*
X7273356Y-4998356D01*
X7273356Y-5252356D02*
X7273356Y-5181644D01*
X7202644Y-5181644D01*
X7202644Y-5252356D01*
X7273356Y-5252356D01*
X7273356Y-5506356D02*
X7273356Y-5435644D01*
X7202644Y-5435644D01*
X7202644Y-5506356D01*
X7273356Y-5506356D01*
X7273356Y-5760356D02*
X7273356Y-5689644D01*
X7202644Y-5689644D01*
X7202644Y-5760356D01*
X7273356Y-5760356D01*
X7273356Y-6014356D02*
X7273356Y-5943644D01*
X7202644Y-5943644D01*
X7202644Y-6014356D01*
X7273356Y-6014356D01*
X7273356Y-6268356D02*
X7273356Y-6197644D01*
X7202644Y-6197644D01*
X7202644Y-6268356D01*
X7273356Y-6268356D01*
X7273356Y-6522356D02*
X7273356Y-6451644D01*
X7202644Y-6451644D01*
X7202644Y-6522356D01*
X7273356Y-6522356D01*
X7273356Y-6776356D02*
X7273356Y-6705644D01*
X7202644Y-6705644D01*
X7202644Y-6776356D01*
X7273356Y-6776356D01*
X7393356Y-16272856D02*
X7393356Y-16202144D01*
X7322644Y-16202144D01*
X7322644Y-16272856D01*
X7393356Y-16272856D01*
X7647356Y-16272856D02*
X7647356Y-16202144D01*
X7576644Y-16202144D01*
X7576644Y-16272856D01*
X7647356Y-16272856D01*
X7901356Y-16272856D02*
X7901356Y-16202144D01*
X7830644Y-16202144D01*
X7830644Y-16272856D01*
X7901356Y-16272856D01*
X8155356Y-16272856D02*
X8155356Y-16202144D01*
X8084644Y-16202144D01*
X8084644Y-16272856D01*
X8155356Y-16272856D01*
X8409356Y-16272856D02*
X8409356Y-16202144D01*
X8338644Y-16202144D01*
X8338644Y-16272856D01*
X8409356Y-16272856D01*
X8663356Y-16272856D02*
X8663356Y-16202144D01*
X8592644Y-16202144D01*
X8592644Y-16272856D01*
X8663356Y-16272856D01*
X8797356Y-4744356D02*
X8797356Y-4673644D01*
X8726644Y-4673644D01*
X8726644Y-4744356D01*
X8797356Y-4744356D01*
X8797356Y-4998356D02*
X8797356Y-4927644D01*
X8726644Y-4927644D01*
X8726644Y-4998356D01*
X8797356Y-4998356D01*
X8797356Y-5252356D02*
X8797356Y-5181644D01*
X8726644Y-5181644D01*
X8726644Y-5252356D01*
X8797356Y-5252356D01*
X8797356Y-5506356D02*
X8797356Y-5435644D01*
X8726644Y-5435644D01*
X8726644Y-5506356D01*
X8797356Y-5506356D01*
X8797356Y-5760356D02*
X8797356Y-5689644D01*
X8726644Y-5689644D01*
X8726644Y-5760356D01*
X8797356Y-5760356D01*
X8797356Y-6014356D02*
X8797356Y-5943644D01*
X8726644Y-5943644D01*
X8726644Y-6014356D01*
X8797356Y-6014356D01*
X8797356Y-6268356D02*
X8797356Y-6197644D01*
X8726644Y-6197644D01*
X8726644Y-6268356D01*
X8797356Y-6268356D01*
X8797356Y-6522356D02*
X8797356Y-6451644D01*
X8726644Y-6451644D01*
X8726644Y-6522356D01*
X8797356Y-6522356D01*
X8797356Y-6776356D02*
X8797356Y-6705644D01*
X8726644Y-6705644D01*
X8726644Y-6776356D01*
X8797356Y-6776356D01*
X8917356Y-16272856D02*
X8917356Y-16202144D01*
X8846644Y-16202144D01*
X8846644Y-16272856D01*
X8917356Y-16272856D01*
X9171356Y-16272856D02*
X9171356Y-16202144D01*
X9100644Y-16202144D01*
X9100644Y-16272856D01*
X9171356Y-16272856D01*
D11*
X4255777Y-17316484D02*
X4255777Y-17116484D01*
X4255777Y-17116484D02*
X4303396Y-17116484D01*
X4303396Y-17116484D02*
X4331967Y-17126008D01*
X4331967Y-17126008D02*
X4351015Y-17145055D01*
X4351015Y-17145055D02*
X4360539Y-17164103D01*
X4360539Y-17164103D02*
X4370063Y-17202198D01*
X4370063Y-17202198D02*
X4370063Y-17230770D01*
X4370063Y-17230770D02*
X4360539Y-17268865D01*
X4360539Y-17268865D02*
X4351015Y-17287912D01*
X4351015Y-17287912D02*
X4331967Y-17306960D01*
X4331967Y-17306960D02*
X4303396Y-17316484D01*
X4303396Y-17316484D02*
X4255777Y-17316484D01*
X4455777Y-17316484D02*
X4455777Y-17183150D01*
X4455777Y-17221246D02*
X4465301Y-17202198D01*
X4465301Y-17202198D02*
X4474824Y-17192674D01*
X4474824Y-17192674D02*
X4493872Y-17183150D01*
X4493872Y-17183150D02*
X4512920Y-17183150D01*
X4579586Y-17316484D02*
X4579586Y-17183150D01*
X4579586Y-17116484D02*
X4570063Y-17126008D01*
X4570063Y-17126008D02*
X4579586Y-17135531D01*
X4579586Y-17135531D02*
X4589110Y-17126008D01*
X4589110Y-17126008D02*
X4579586Y-17116484D01*
X4579586Y-17116484D02*
X4579586Y-17135531D01*
X4703396Y-17316484D02*
X4684348Y-17306960D01*
X4684348Y-17306960D02*
X4674824Y-17287912D01*
X4674824Y-17287912D02*
X4674824Y-17116484D01*
X4808158Y-17316484D02*
X4789110Y-17306960D01*
X4789110Y-17306960D02*
X4779586Y-17287912D01*
X4779586Y-17287912D02*
X4779586Y-17116484D01*
X5036729Y-17316484D02*
X5036729Y-17116484D01*
X5036729Y-17116484D02*
X5103396Y-17259341D01*
X5103396Y-17259341D02*
X5170063Y-17116484D01*
X5170063Y-17116484D02*
X5170063Y-17316484D01*
X5351015Y-17316484D02*
X5351015Y-17211722D01*
X5351015Y-17211722D02*
X5341491Y-17192674D01*
X5341491Y-17192674D02*
X5322444Y-17183150D01*
X5322444Y-17183150D02*
X5284348Y-17183150D01*
X5284348Y-17183150D02*
X5265301Y-17192674D01*
X5351015Y-17306960D02*
X5331967Y-17316484D01*
X5331967Y-17316484D02*
X5284348Y-17316484D01*
X5284348Y-17316484D02*
X5265301Y-17306960D01*
X5265301Y-17306960D02*
X5255777Y-17287912D01*
X5255777Y-17287912D02*
X5255777Y-17268865D01*
X5255777Y-17268865D02*
X5265301Y-17249817D01*
X5265301Y-17249817D02*
X5284348Y-17240293D01*
X5284348Y-17240293D02*
X5331967Y-17240293D01*
X5331967Y-17240293D02*
X5351015Y-17230770D01*
X5446253Y-17183150D02*
X5446253Y-17383150D01*
X5446253Y-17192674D02*
X5465301Y-17183150D01*
X5465301Y-17183150D02*
X5503396Y-17183150D01*
X5503396Y-17183150D02*
X5522444Y-17192674D01*
X5522444Y-17192674D02*
X5531967Y-17202198D01*
X5531967Y-17202198D02*
X5541491Y-17221246D01*
X5541491Y-17221246D02*
X5541491Y-17278389D01*
X5541491Y-17278389D02*
X5531967Y-17297436D01*
X5531967Y-17297436D02*
X5522444Y-17306960D01*
X5522444Y-17306960D02*
X5503396Y-17316484D01*
X5503396Y-17316484D02*
X5465301Y-17316484D01*
X5465301Y-17316484D02*
X5446253Y-17306960D01*
X5627205Y-17297436D02*
X5636729Y-17306960D01*
X5636729Y-17306960D02*
X5627205Y-17316484D01*
X5627205Y-17316484D02*
X5617682Y-17306960D01*
X5617682Y-17306960D02*
X5627205Y-17297436D01*
X5627205Y-17297436D02*
X5627205Y-17316484D01*
X5627205Y-17192674D02*
X5636729Y-17202198D01*
X5636729Y-17202198D02*
X5627205Y-17211722D01*
X5627205Y-17211722D02*
X5617682Y-17202198D01*
X5617682Y-17202198D02*
X5627205Y-17192674D01*
X5627205Y-17192674D02*
X5627205Y-17211722D01*
D10*
X3975000Y-17635000D02*
X3995000Y-17655000D01*
X3995000Y-17635000D02*
X3975000Y-17655000D01*
D11*
X4293872Y-17536484D02*
X4312920Y-17536484D01*
X4312920Y-17536484D02*
X4331967Y-17546008D01*
X4331967Y-17546008D02*
X4341491Y-17555531D01*
X4341491Y-17555531D02*
X4351015Y-17574579D01*
X4351015Y-17574579D02*
X4360539Y-17612674D01*
X4360539Y-17612674D02*
X4360539Y-17660293D01*
X4360539Y-17660293D02*
X4351015Y-17698389D01*
X4351015Y-17698389D02*
X4341491Y-17717436D01*
X4341491Y-17717436D02*
X4331967Y-17726960D01*
X4331967Y-17726960D02*
X4312920Y-17736484D01*
X4312920Y-17736484D02*
X4293872Y-17736484D01*
X4293872Y-17736484D02*
X4274824Y-17726960D01*
X4274824Y-17726960D02*
X4265301Y-17717436D01*
X4265301Y-17717436D02*
X4255777Y-17698389D01*
X4255777Y-17698389D02*
X4246253Y-17660293D01*
X4246253Y-17660293D02*
X4246253Y-17612674D01*
X4246253Y-17612674D02*
X4255777Y-17574579D01*
X4255777Y-17574579D02*
X4265301Y-17555531D01*
X4265301Y-17555531D02*
X4274824Y-17546008D01*
X4274824Y-17546008D02*
X4293872Y-17536484D01*
X4446253Y-17717436D02*
X4455777Y-17726960D01*
X4455777Y-17726960D02*
X4446253Y-17736484D01*
X4446253Y-17736484D02*
X4436729Y-17726960D01*
X4436729Y-17726960D02*
X4446253Y-17717436D01*
X4446253Y-17717436D02*
X4446253Y-17736484D01*
X4531967Y-17555531D02*
X4541491Y-17546008D01*
X4541491Y-17546008D02*
X4560539Y-17536484D01*
X4560539Y-17536484D02*
X4608158Y-17536484D01*
X4608158Y-17536484D02*
X4627205Y-17546008D01*
X4627205Y-17546008D02*
X4636729Y-17555531D01*
X4636729Y-17555531D02*
X4646253Y-17574579D01*
X4646253Y-17574579D02*
X4646253Y-17593627D01*
X4646253Y-17593627D02*
X4636729Y-17622198D01*
X4636729Y-17622198D02*
X4522444Y-17736484D01*
X4522444Y-17736484D02*
X4646253Y-17736484D01*
X4770063Y-17536484D02*
X4789110Y-17536484D01*
X4789110Y-17536484D02*
X4808158Y-17546008D01*
X4808158Y-17546008D02*
X4817682Y-17555531D01*
X4817682Y-17555531D02*
X4827205Y-17574579D01*
X4827205Y-17574579D02*
X4836729Y-17612674D01*
X4836729Y-17612674D02*
X4836729Y-17660293D01*
X4836729Y-17660293D02*
X4827205Y-17698389D01*
X4827205Y-17698389D02*
X4817682Y-17717436D01*
X4817682Y-17717436D02*
X4808158Y-17726960D01*
X4808158Y-17726960D02*
X4789110Y-17736484D01*
X4789110Y-17736484D02*
X4770063Y-17736484D01*
X4770063Y-17736484D02*
X4751015Y-17726960D01*
X4751015Y-17726960D02*
X4741491Y-17717436D01*
X4741491Y-17717436D02*
X4731967Y-17698389D01*
X4731967Y-17698389D02*
X4722444Y-17660293D01*
X4722444Y-17660293D02*
X4722444Y-17612674D01*
X4722444Y-17612674D02*
X4731967Y-17574579D01*
X4731967Y-17574579D02*
X4741491Y-17555531D01*
X4741491Y-17555531D02*
X4751015Y-17546008D01*
X4751015Y-17546008D02*
X4770063Y-17536484D01*
X4960539Y-17536484D02*
X4979586Y-17536484D01*
X4979586Y-17536484D02*
X4998634Y-17546008D01*
X4998634Y-17546008D02*
X5008158Y-17555531D01*
X5008158Y-17555531D02*
X5017682Y-17574579D01*
X5017682Y-17574579D02*
X5027205Y-17612674D01*
X5027205Y-17612674D02*
X5027205Y-17660293D01*
X5027205Y-17660293D02*
X5017682Y-17698389D01*
X5017682Y-17698389D02*
X5008158Y-17717436D01*
X5008158Y-17717436D02*
X4998634Y-17726960D01*
X4998634Y-17726960D02*
X4979586Y-17736484D01*
X4979586Y-17736484D02*
X4960539Y-17736484D01*
X4960539Y-17736484D02*
X4941491Y-17726960D01*
X4941491Y-17726960D02*
X4931967Y-17717436D01*
X4931967Y-17717436D02*
X4922444Y-17698389D01*
X4922444Y-17698389D02*
X4912920Y-17660293D01*
X4912920Y-17660293D02*
X4912920Y-17612674D01*
X4912920Y-17612674D02*
X4922444Y-17574579D01*
X4922444Y-17574579D02*
X4931967Y-17555531D01*
X4931967Y-17555531D02*
X4941491Y-17546008D01*
X4941491Y-17546008D02*
X4960539Y-17536484D01*
X5112920Y-17736484D02*
X5112920Y-17603150D01*
X5112920Y-17622198D02*
X5122444Y-17612674D01*
X5122444Y-17612674D02*
X5141491Y-17603150D01*
X5141491Y-17603150D02*
X5170063Y-17603150D01*
X5170063Y-17603150D02*
X5189110Y-17612674D01*
X5189110Y-17612674D02*
X5198634Y-17631722D01*
X5198634Y-17631722D02*
X5198634Y-17736484D01*
X5198634Y-17631722D02*
X5208158Y-17612674D01*
X5208158Y-17612674D02*
X5227205Y-17603150D01*
X5227205Y-17603150D02*
X5255777Y-17603150D01*
X5255777Y-17603150D02*
X5274825Y-17612674D01*
X5274825Y-17612674D02*
X5284348Y-17631722D01*
X5284348Y-17631722D02*
X5284348Y-17736484D01*
X5379586Y-17736484D02*
X5379586Y-17603150D01*
X5379586Y-17622198D02*
X5389110Y-17612674D01*
X5389110Y-17612674D02*
X5408158Y-17603150D01*
X5408158Y-17603150D02*
X5436729Y-17603150D01*
X5436729Y-17603150D02*
X5455777Y-17612674D01*
X5455777Y-17612674D02*
X5465301Y-17631722D01*
X5465301Y-17631722D02*
X5465301Y-17736484D01*
X5465301Y-17631722D02*
X5474825Y-17612674D01*
X5474825Y-17612674D02*
X5493872Y-17603150D01*
X5493872Y-17603150D02*
X5522444Y-17603150D01*
X5522444Y-17603150D02*
X5541491Y-17612674D01*
X5541491Y-17612674D02*
X5551015Y-17631722D01*
X5551015Y-17631722D02*
X5551015Y-17736484D01*
X5941491Y-17526960D02*
X5770063Y-17784103D01*
X6198634Y-17536484D02*
X6217682Y-17536484D01*
X6217682Y-17536484D02*
X6236729Y-17546008D01*
X6236729Y-17546008D02*
X6246253Y-17555531D01*
X6246253Y-17555531D02*
X6255777Y-17574579D01*
X6255777Y-17574579D02*
X6265301Y-17612674D01*
X6265301Y-17612674D02*
X6265301Y-17660293D01*
X6265301Y-17660293D02*
X6255777Y-17698389D01*
X6255777Y-17698389D02*
X6246253Y-17717436D01*
X6246253Y-17717436D02*
X6236729Y-17726960D01*
X6236729Y-17726960D02*
X6217682Y-17736484D01*
X6217682Y-17736484D02*
X6198634Y-17736484D01*
X6198634Y-17736484D02*
X6179586Y-17726960D01*
X6179586Y-17726960D02*
X6170063Y-17717436D01*
X6170063Y-17717436D02*
X6160539Y-17698389D01*
X6160539Y-17698389D02*
X6151015Y-17660293D01*
X6151015Y-17660293D02*
X6151015Y-17612674D01*
X6151015Y-17612674D02*
X6160539Y-17574579D01*
X6160539Y-17574579D02*
X6170063Y-17555531D01*
X6170063Y-17555531D02*
X6179586Y-17546008D01*
X6179586Y-17546008D02*
X6198634Y-17536484D01*
X6351015Y-17717436D02*
X6360539Y-17726960D01*
X6360539Y-17726960D02*
X6351015Y-17736484D01*
X6351015Y-17736484D02*
X6341491Y-17726960D01*
X6341491Y-17726960D02*
X6351015Y-17717436D01*
X6351015Y-17717436D02*
X6351015Y-17736484D01*
X6484348Y-17536484D02*
X6503396Y-17536484D01*
X6503396Y-17536484D02*
X6522444Y-17546008D01*
X6522444Y-17546008D02*
X6531967Y-17555531D01*
X6531967Y-17555531D02*
X6541491Y-17574579D01*
X6541491Y-17574579D02*
X6551015Y-17612674D01*
X6551015Y-17612674D02*
X6551015Y-17660293D01*
X6551015Y-17660293D02*
X6541491Y-17698389D01*
X6541491Y-17698389D02*
X6531967Y-17717436D01*
X6531967Y-17717436D02*
X6522444Y-17726960D01*
X6522444Y-17726960D02*
X6503396Y-17736484D01*
X6503396Y-17736484D02*
X6484348Y-17736484D01*
X6484348Y-17736484D02*
X6465301Y-17726960D01*
X6465301Y-17726960D02*
X6455777Y-17717436D01*
X6455777Y-17717436D02*
X6446253Y-17698389D01*
X6446253Y-17698389D02*
X6436729Y-17660293D01*
X6436729Y-17660293D02*
X6436729Y-17612674D01*
X6436729Y-17612674D02*
X6446253Y-17574579D01*
X6446253Y-17574579D02*
X6455777Y-17555531D01*
X6455777Y-17555531D02*
X6465301Y-17546008D01*
X6465301Y-17546008D02*
X6484348Y-17536484D01*
X6674825Y-17536484D02*
X6693872Y-17536484D01*
X6693872Y-17536484D02*
X6712920Y-17546008D01*
X6712920Y-17546008D02*
X6722444Y-17555531D01*
X6722444Y-17555531D02*
X6731967Y-17574579D01*
X6731967Y-17574579D02*
X6741491Y-17612674D01*
X6741491Y-17612674D02*
X6741491Y-17660293D01*
X6741491Y-17660293D02*
X6731967Y-17698389D01*
X6731967Y-17698389D02*
X6722444Y-17717436D01*
X6722444Y-17717436D02*
X6712920Y-17726960D01*
X6712920Y-17726960D02*
X6693872Y-17736484D01*
X6693872Y-17736484D02*
X6674825Y-17736484D01*
X6674825Y-17736484D02*
X6655777Y-17726960D01*
X6655777Y-17726960D02*
X6646253Y-17717436D01*
X6646253Y-17717436D02*
X6636729Y-17698389D01*
X6636729Y-17698389D02*
X6627206Y-17660293D01*
X6627206Y-17660293D02*
X6627206Y-17612674D01*
X6627206Y-17612674D02*
X6636729Y-17574579D01*
X6636729Y-17574579D02*
X6646253Y-17555531D01*
X6646253Y-17555531D02*
X6655777Y-17546008D01*
X6655777Y-17546008D02*
X6674825Y-17536484D01*
X6808158Y-17536484D02*
X6941491Y-17536484D01*
X6941491Y-17536484D02*
X6855777Y-17736484D01*
X7027206Y-17736484D02*
X7065301Y-17736484D01*
X7065301Y-17736484D02*
X7084348Y-17726960D01*
X7084348Y-17726960D02*
X7093872Y-17717436D01*
X7093872Y-17717436D02*
X7112920Y-17688865D01*
X7112920Y-17688865D02*
X7122444Y-17650770D01*
X7122444Y-17650770D02*
X7122444Y-17574579D01*
X7122444Y-17574579D02*
X7112920Y-17555531D01*
X7112920Y-17555531D02*
X7103396Y-17546008D01*
X7103396Y-17546008D02*
X7084348Y-17536484D01*
X7084348Y-17536484D02*
X7046253Y-17536484D01*
X7046253Y-17536484D02*
X7027206Y-17546008D01*
X7027206Y-17546008D02*
X7017682Y-17555531D01*
X7017682Y-17555531D02*
X7008158Y-17574579D01*
X7008158Y-17574579D02*
X7008158Y-17622198D01*
X7008158Y-17622198D02*
X7017682Y-17641246D01*
X7017682Y-17641246D02*
X7027206Y-17650770D01*
X7027206Y-17650770D02*
X7046253Y-17660293D01*
X7046253Y-17660293D02*
X7084348Y-17660293D01*
X7084348Y-17660293D02*
X7103396Y-17650770D01*
X7103396Y-17650770D02*
X7112920Y-17641246D01*
X7112920Y-17641246D02*
X7122444Y-17622198D01*
X7198634Y-17536484D02*
X7198634Y-17574579D01*
X7274825Y-17536484D02*
X7274825Y-17574579D01*
X7570063Y-17812674D02*
X7560539Y-17803150D01*
X7560539Y-17803150D02*
X7541491Y-17774579D01*
X7541491Y-17774579D02*
X7531968Y-17755531D01*
X7531968Y-17755531D02*
X7522444Y-17726960D01*
X7522444Y-17726960D02*
X7512920Y-17679341D01*
X7512920Y-17679341D02*
X7512920Y-17641246D01*
X7512920Y-17641246D02*
X7522444Y-17593627D01*
X7522444Y-17593627D02*
X7531968Y-17565055D01*
X7531968Y-17565055D02*
X7541491Y-17546008D01*
X7541491Y-17546008D02*
X7560539Y-17517436D01*
X7560539Y-17517436D02*
X7570063Y-17507912D01*
X7731968Y-17536484D02*
X7693872Y-17536484D01*
X7693872Y-17536484D02*
X7674825Y-17546008D01*
X7674825Y-17546008D02*
X7665301Y-17555531D01*
X7665301Y-17555531D02*
X7646253Y-17584103D01*
X7646253Y-17584103D02*
X7636729Y-17622198D01*
X7636729Y-17622198D02*
X7636729Y-17698389D01*
X7636729Y-17698389D02*
X7646253Y-17717436D01*
X7646253Y-17717436D02*
X7655777Y-17726960D01*
X7655777Y-17726960D02*
X7674825Y-17736484D01*
X7674825Y-17736484D02*
X7712920Y-17736484D01*
X7712920Y-17736484D02*
X7731968Y-17726960D01*
X7731968Y-17726960D02*
X7741491Y-17717436D01*
X7741491Y-17717436D02*
X7751015Y-17698389D01*
X7751015Y-17698389D02*
X7751015Y-17650770D01*
X7751015Y-17650770D02*
X7741491Y-17631722D01*
X7741491Y-17631722D02*
X7731968Y-17622198D01*
X7731968Y-17622198D02*
X7712920Y-17612674D01*
X7712920Y-17612674D02*
X7674825Y-17612674D01*
X7674825Y-17612674D02*
X7655777Y-17622198D01*
X7655777Y-17622198D02*
X7646253Y-17631722D01*
X7646253Y-17631722D02*
X7636729Y-17650770D01*
X7989110Y-17736484D02*
X7989110Y-17536484D01*
X8074825Y-17736484D02*
X8074825Y-17631722D01*
X8074825Y-17631722D02*
X8065301Y-17612674D01*
X8065301Y-17612674D02*
X8046253Y-17603150D01*
X8046253Y-17603150D02*
X8017682Y-17603150D01*
X8017682Y-17603150D02*
X7998634Y-17612674D01*
X7998634Y-17612674D02*
X7989110Y-17622198D01*
X8198634Y-17736484D02*
X8179587Y-17726960D01*
X8179587Y-17726960D02*
X8170063Y-17717436D01*
X8170063Y-17717436D02*
X8160539Y-17698389D01*
X8160539Y-17698389D02*
X8160539Y-17641246D01*
X8160539Y-17641246D02*
X8170063Y-17622198D01*
X8170063Y-17622198D02*
X8179587Y-17612674D01*
X8179587Y-17612674D02*
X8198634Y-17603150D01*
X8198634Y-17603150D02*
X8227206Y-17603150D01*
X8227206Y-17603150D02*
X8246253Y-17612674D01*
X8246253Y-17612674D02*
X8255777Y-17622198D01*
X8255777Y-17622198D02*
X8265301Y-17641246D01*
X8265301Y-17641246D02*
X8265301Y-17698389D01*
X8265301Y-17698389D02*
X8255777Y-17717436D01*
X8255777Y-17717436D02*
X8246253Y-17726960D01*
X8246253Y-17726960D02*
X8227206Y-17736484D01*
X8227206Y-17736484D02*
X8198634Y-17736484D01*
X8379587Y-17736484D02*
X8360539Y-17726960D01*
X8360539Y-17726960D02*
X8351015Y-17707912D01*
X8351015Y-17707912D02*
X8351015Y-17536484D01*
X8531968Y-17726960D02*
X8512920Y-17736484D01*
X8512920Y-17736484D02*
X8474825Y-17736484D01*
X8474825Y-17736484D02*
X8455777Y-17726960D01*
X8455777Y-17726960D02*
X8446253Y-17707912D01*
X8446253Y-17707912D02*
X8446253Y-17631722D01*
X8446253Y-17631722D02*
X8455777Y-17612674D01*
X8455777Y-17612674D02*
X8474825Y-17603150D01*
X8474825Y-17603150D02*
X8512920Y-17603150D01*
X8512920Y-17603150D02*
X8531968Y-17612674D01*
X8531968Y-17612674D02*
X8541492Y-17631722D01*
X8541492Y-17631722D02*
X8541492Y-17650770D01*
X8541492Y-17650770D02*
X8446253Y-17669817D01*
X8617682Y-17726960D02*
X8636730Y-17736484D01*
X8636730Y-17736484D02*
X8674825Y-17736484D01*
X8674825Y-17736484D02*
X8693873Y-17726960D01*
X8693873Y-17726960D02*
X8703396Y-17707912D01*
X8703396Y-17707912D02*
X8703396Y-17698389D01*
X8703396Y-17698389D02*
X8693873Y-17679341D01*
X8693873Y-17679341D02*
X8674825Y-17669817D01*
X8674825Y-17669817D02*
X8646253Y-17669817D01*
X8646253Y-17669817D02*
X8627206Y-17660293D01*
X8627206Y-17660293D02*
X8617682Y-17641246D01*
X8617682Y-17641246D02*
X8617682Y-17631722D01*
X8617682Y-17631722D02*
X8627206Y-17612674D01*
X8627206Y-17612674D02*
X8646253Y-17603150D01*
X8646253Y-17603150D02*
X8674825Y-17603150D01*
X8674825Y-17603150D02*
X8693873Y-17612674D01*
X8770063Y-17812674D02*
X8779587Y-17803150D01*
X8779587Y-17803150D02*
X8798634Y-17774579D01*
X8798634Y-17774579D02*
X8808158Y-17755531D01*
X8808158Y-17755531D02*
X8817682Y-17726960D01*
X8817682Y-17726960D02*
X8827206Y-17679341D01*
X8827206Y-17679341D02*
X8827206Y-17641246D01*
X8827206Y-17641246D02*
X8817682Y-17593627D01*
X8817682Y-17593627D02*
X8808158Y-17565055D01*
X8808158Y-17565055D02*
X8798634Y-17546008D01*
X8798634Y-17546008D02*
X8779587Y-17517436D01*
X8779587Y-17517436D02*
X8770063Y-17507912D01*
D10*
X3995000Y-17909000D02*
G75*
G02*
X3965000Y-17909000I-15000J0D01*
G01*
X3965000Y-17909000D02*
G75*
G02*
X3995000Y-17909000I15000J0D01*
G01*
D11*
X4293872Y-17800484D02*
X4312920Y-17800484D01*
X4312920Y-17800484D02*
X4331967Y-17810008D01*
X4331967Y-17810008D02*
X4341491Y-17819531D01*
X4341491Y-17819531D02*
X4351015Y-17838579D01*
X4351015Y-17838579D02*
X4360539Y-17876674D01*
X4360539Y-17876674D02*
X4360539Y-17924293D01*
X4360539Y-17924293D02*
X4351015Y-17962389D01*
X4351015Y-17962389D02*
X4341491Y-17981436D01*
X4341491Y-17981436D02*
X4331967Y-17990960D01*
X4331967Y-17990960D02*
X4312920Y-18000484D01*
X4312920Y-18000484D02*
X4293872Y-18000484D01*
X4293872Y-18000484D02*
X4274824Y-17990960D01*
X4274824Y-17990960D02*
X4265301Y-17981436D01*
X4265301Y-17981436D02*
X4255777Y-17962389D01*
X4255777Y-17962389D02*
X4246253Y-17924293D01*
X4246253Y-17924293D02*
X4246253Y-17876674D01*
X4246253Y-17876674D02*
X4255777Y-17838579D01*
X4255777Y-17838579D02*
X4265301Y-17819531D01*
X4265301Y-17819531D02*
X4274824Y-17810008D01*
X4274824Y-17810008D02*
X4293872Y-17800484D01*
X4446253Y-17981436D02*
X4455777Y-17990960D01*
X4455777Y-17990960D02*
X4446253Y-18000484D01*
X4446253Y-18000484D02*
X4436729Y-17990960D01*
X4436729Y-17990960D02*
X4446253Y-17981436D01*
X4446253Y-17981436D02*
X4446253Y-18000484D01*
X4522444Y-17800484D02*
X4646253Y-17800484D01*
X4646253Y-17800484D02*
X4579586Y-17876674D01*
X4579586Y-17876674D02*
X4608158Y-17876674D01*
X4608158Y-17876674D02*
X4627205Y-17886198D01*
X4627205Y-17886198D02*
X4636729Y-17895722D01*
X4636729Y-17895722D02*
X4646253Y-17914770D01*
X4646253Y-17914770D02*
X4646253Y-17962389D01*
X4646253Y-17962389D02*
X4636729Y-17981436D01*
X4636729Y-17981436D02*
X4627205Y-17990960D01*
X4627205Y-17990960D02*
X4608158Y-18000484D01*
X4608158Y-18000484D02*
X4551015Y-18000484D01*
X4551015Y-18000484D02*
X4531967Y-17990960D01*
X4531967Y-17990960D02*
X4522444Y-17981436D01*
X4770063Y-17800484D02*
X4789110Y-17800484D01*
X4789110Y-17800484D02*
X4808158Y-17810008D01*
X4808158Y-17810008D02*
X4817682Y-17819531D01*
X4817682Y-17819531D02*
X4827205Y-17838579D01*
X4827205Y-17838579D02*
X4836729Y-17876674D01*
X4836729Y-17876674D02*
X4836729Y-17924293D01*
X4836729Y-17924293D02*
X4827205Y-17962389D01*
X4827205Y-17962389D02*
X4817682Y-17981436D01*
X4817682Y-17981436D02*
X4808158Y-17990960D01*
X4808158Y-17990960D02*
X4789110Y-18000484D01*
X4789110Y-18000484D02*
X4770063Y-18000484D01*
X4770063Y-18000484D02*
X4751015Y-17990960D01*
X4751015Y-17990960D02*
X4741491Y-17981436D01*
X4741491Y-17981436D02*
X4731967Y-17962389D01*
X4731967Y-17962389D02*
X4722444Y-17924293D01*
X4722444Y-17924293D02*
X4722444Y-17876674D01*
X4722444Y-17876674D02*
X4731967Y-17838579D01*
X4731967Y-17838579D02*
X4741491Y-17819531D01*
X4741491Y-17819531D02*
X4751015Y-17810008D01*
X4751015Y-17810008D02*
X4770063Y-17800484D01*
X4960539Y-17800484D02*
X4979586Y-17800484D01*
X4979586Y-17800484D02*
X4998634Y-17810008D01*
X4998634Y-17810008D02*
X5008158Y-17819531D01*
X5008158Y-17819531D02*
X5017682Y-17838579D01*
X5017682Y-17838579D02*
X5027205Y-17876674D01*
X5027205Y-17876674D02*
X5027205Y-17924293D01*
X5027205Y-17924293D02*
X5017682Y-17962389D01*
X5017682Y-17962389D02*
X5008158Y-17981436D01*
X5008158Y-17981436D02*
X4998634Y-17990960D01*
X4998634Y-17990960D02*
X4979586Y-18000484D01*
X4979586Y-18000484D02*
X4960539Y-18000484D01*
X4960539Y-18000484D02*
X4941491Y-17990960D01*
X4941491Y-17990960D02*
X4931967Y-17981436D01*
X4931967Y-17981436D02*
X4922444Y-17962389D01*
X4922444Y-17962389D02*
X4912920Y-17924293D01*
X4912920Y-17924293D02*
X4912920Y-17876674D01*
X4912920Y-17876674D02*
X4922444Y-17838579D01*
X4922444Y-17838579D02*
X4931967Y-17819531D01*
X4931967Y-17819531D02*
X4941491Y-17810008D01*
X4941491Y-17810008D02*
X4960539Y-17800484D01*
X5112920Y-18000484D02*
X5112920Y-17867150D01*
X5112920Y-17886198D02*
X5122444Y-17876674D01*
X5122444Y-17876674D02*
X5141491Y-17867150D01*
X5141491Y-17867150D02*
X5170063Y-17867150D01*
X5170063Y-17867150D02*
X5189110Y-17876674D01*
X5189110Y-17876674D02*
X5198634Y-17895722D01*
X5198634Y-17895722D02*
X5198634Y-18000484D01*
X5198634Y-17895722D02*
X5208158Y-17876674D01*
X5208158Y-17876674D02*
X5227205Y-17867150D01*
X5227205Y-17867150D02*
X5255777Y-17867150D01*
X5255777Y-17867150D02*
X5274825Y-17876674D01*
X5274825Y-17876674D02*
X5284348Y-17895722D01*
X5284348Y-17895722D02*
X5284348Y-18000484D01*
X5379586Y-18000484D02*
X5379586Y-17867150D01*
X5379586Y-17886198D02*
X5389110Y-17876674D01*
X5389110Y-17876674D02*
X5408158Y-17867150D01*
X5408158Y-17867150D02*
X5436729Y-17867150D01*
X5436729Y-17867150D02*
X5455777Y-17876674D01*
X5455777Y-17876674D02*
X5465301Y-17895722D01*
X5465301Y-17895722D02*
X5465301Y-18000484D01*
X5465301Y-17895722D02*
X5474825Y-17876674D01*
X5474825Y-17876674D02*
X5493872Y-17867150D01*
X5493872Y-17867150D02*
X5522444Y-17867150D01*
X5522444Y-17867150D02*
X5541491Y-17876674D01*
X5541491Y-17876674D02*
X5551015Y-17895722D01*
X5551015Y-17895722D02*
X5551015Y-18000484D01*
X5941491Y-17790960D02*
X5770063Y-18048103D01*
X6198634Y-17800484D02*
X6217682Y-17800484D01*
X6217682Y-17800484D02*
X6236729Y-17810008D01*
X6236729Y-17810008D02*
X6246253Y-17819531D01*
X6246253Y-17819531D02*
X6255777Y-17838579D01*
X6255777Y-17838579D02*
X6265301Y-17876674D01*
X6265301Y-17876674D02*
X6265301Y-17924293D01*
X6265301Y-17924293D02*
X6255777Y-17962389D01*
X6255777Y-17962389D02*
X6246253Y-17981436D01*
X6246253Y-17981436D02*
X6236729Y-17990960D01*
X6236729Y-17990960D02*
X6217682Y-18000484D01*
X6217682Y-18000484D02*
X6198634Y-18000484D01*
X6198634Y-18000484D02*
X6179586Y-17990960D01*
X6179586Y-17990960D02*
X6170063Y-17981436D01*
X6170063Y-17981436D02*
X6160539Y-17962389D01*
X6160539Y-17962389D02*
X6151015Y-17924293D01*
X6151015Y-17924293D02*
X6151015Y-17876674D01*
X6151015Y-17876674D02*
X6160539Y-17838579D01*
X6160539Y-17838579D02*
X6170063Y-17819531D01*
X6170063Y-17819531D02*
X6179586Y-17810008D01*
X6179586Y-17810008D02*
X6198634Y-17800484D01*
X6351015Y-17981436D02*
X6360539Y-17990960D01*
X6360539Y-17990960D02*
X6351015Y-18000484D01*
X6351015Y-18000484D02*
X6341491Y-17990960D01*
X6341491Y-17990960D02*
X6351015Y-17981436D01*
X6351015Y-17981436D02*
X6351015Y-18000484D01*
X6484348Y-17800484D02*
X6503396Y-17800484D01*
X6503396Y-17800484D02*
X6522444Y-17810008D01*
X6522444Y-17810008D02*
X6531967Y-17819531D01*
X6531967Y-17819531D02*
X6541491Y-17838579D01*
X6541491Y-17838579D02*
X6551015Y-17876674D01*
X6551015Y-17876674D02*
X6551015Y-17924293D01*
X6551015Y-17924293D02*
X6541491Y-17962389D01*
X6541491Y-17962389D02*
X6531967Y-17981436D01*
X6531967Y-17981436D02*
X6522444Y-17990960D01*
X6522444Y-17990960D02*
X6503396Y-18000484D01*
X6503396Y-18000484D02*
X6484348Y-18000484D01*
X6484348Y-18000484D02*
X6465301Y-17990960D01*
X6465301Y-17990960D02*
X6455777Y-17981436D01*
X6455777Y-17981436D02*
X6446253Y-17962389D01*
X6446253Y-17962389D02*
X6436729Y-17924293D01*
X6436729Y-17924293D02*
X6436729Y-17876674D01*
X6436729Y-17876674D02*
X6446253Y-17838579D01*
X6446253Y-17838579D02*
X6455777Y-17819531D01*
X6455777Y-17819531D02*
X6465301Y-17810008D01*
X6465301Y-17810008D02*
X6484348Y-17800484D01*
X6741491Y-18000484D02*
X6627206Y-18000484D01*
X6684348Y-18000484D02*
X6684348Y-17800484D01*
X6684348Y-17800484D02*
X6665301Y-17829055D01*
X6665301Y-17829055D02*
X6646253Y-17848103D01*
X6646253Y-17848103D02*
X6627206Y-17857627D01*
X6931967Y-18000484D02*
X6817682Y-18000484D01*
X6874825Y-18000484D02*
X6874825Y-17800484D01*
X6874825Y-17800484D02*
X6855777Y-17829055D01*
X6855777Y-17829055D02*
X6836729Y-17848103D01*
X6836729Y-17848103D02*
X6817682Y-17857627D01*
X7046253Y-17886198D02*
X7027206Y-17876674D01*
X7027206Y-17876674D02*
X7017682Y-17867150D01*
X7017682Y-17867150D02*
X7008158Y-17848103D01*
X7008158Y-17848103D02*
X7008158Y-17838579D01*
X7008158Y-17838579D02*
X7017682Y-17819531D01*
X7017682Y-17819531D02*
X7027206Y-17810008D01*
X7027206Y-17810008D02*
X7046253Y-17800484D01*
X7046253Y-17800484D02*
X7084348Y-17800484D01*
X7084348Y-17800484D02*
X7103396Y-17810008D01*
X7103396Y-17810008D02*
X7112920Y-17819531D01*
X7112920Y-17819531D02*
X7122444Y-17838579D01*
X7122444Y-17838579D02*
X7122444Y-17848103D01*
X7122444Y-17848103D02*
X7112920Y-17867150D01*
X7112920Y-17867150D02*
X7103396Y-17876674D01*
X7103396Y-17876674D02*
X7084348Y-17886198D01*
X7084348Y-17886198D02*
X7046253Y-17886198D01*
X7046253Y-17886198D02*
X7027206Y-17895722D01*
X7027206Y-17895722D02*
X7017682Y-17905246D01*
X7017682Y-17905246D02*
X7008158Y-17924293D01*
X7008158Y-17924293D02*
X7008158Y-17962389D01*
X7008158Y-17962389D02*
X7017682Y-17981436D01*
X7017682Y-17981436D02*
X7027206Y-17990960D01*
X7027206Y-17990960D02*
X7046253Y-18000484D01*
X7046253Y-18000484D02*
X7084348Y-18000484D01*
X7084348Y-18000484D02*
X7103396Y-17990960D01*
X7103396Y-17990960D02*
X7112920Y-17981436D01*
X7112920Y-17981436D02*
X7122444Y-17962389D01*
X7122444Y-17962389D02*
X7122444Y-17924293D01*
X7122444Y-17924293D02*
X7112920Y-17905246D01*
X7112920Y-17905246D02*
X7103396Y-17895722D01*
X7103396Y-17895722D02*
X7084348Y-17886198D01*
X7198634Y-17800484D02*
X7198634Y-17838579D01*
X7274825Y-17800484D02*
X7274825Y-17838579D01*
X7570063Y-18076674D02*
X7560539Y-18067150D01*
X7560539Y-18067150D02*
X7541491Y-18038579D01*
X7541491Y-18038579D02*
X7531968Y-18019531D01*
X7531968Y-18019531D02*
X7522444Y-17990960D01*
X7522444Y-17990960D02*
X7512920Y-17943341D01*
X7512920Y-17943341D02*
X7512920Y-17905246D01*
X7512920Y-17905246D02*
X7522444Y-17857627D01*
X7522444Y-17857627D02*
X7531968Y-17829055D01*
X7531968Y-17829055D02*
X7541491Y-17810008D01*
X7541491Y-17810008D02*
X7560539Y-17781436D01*
X7560539Y-17781436D02*
X7570063Y-17771912D01*
X7627206Y-17800484D02*
X7751015Y-17800484D01*
X7751015Y-17800484D02*
X7684348Y-17876674D01*
X7684348Y-17876674D02*
X7712920Y-17876674D01*
X7712920Y-17876674D02*
X7731968Y-17886198D01*
X7731968Y-17886198D02*
X7741491Y-17895722D01*
X7741491Y-17895722D02*
X7751015Y-17914770D01*
X7751015Y-17914770D02*
X7751015Y-17962389D01*
X7751015Y-17962389D02*
X7741491Y-17981436D01*
X7741491Y-17981436D02*
X7731968Y-17990960D01*
X7731968Y-17990960D02*
X7712920Y-18000484D01*
X7712920Y-18000484D02*
X7655777Y-18000484D01*
X7655777Y-18000484D02*
X7636729Y-17990960D01*
X7636729Y-17990960D02*
X7627206Y-17981436D01*
X7941491Y-18000484D02*
X7827206Y-18000484D01*
X7884348Y-18000484D02*
X7884348Y-17800484D01*
X7884348Y-17800484D02*
X7865301Y-17829055D01*
X7865301Y-17829055D02*
X7846253Y-17848103D01*
X7846253Y-17848103D02*
X7827206Y-17857627D01*
X8179587Y-18000484D02*
X8179587Y-17800484D01*
X8265301Y-18000484D02*
X8265301Y-17895722D01*
X8265301Y-17895722D02*
X8255777Y-17876674D01*
X8255777Y-17876674D02*
X8236730Y-17867150D01*
X8236730Y-17867150D02*
X8208158Y-17867150D01*
X8208158Y-17867150D02*
X8189110Y-17876674D01*
X8189110Y-17876674D02*
X8179587Y-17886198D01*
X8389111Y-18000484D02*
X8370063Y-17990960D01*
X8370063Y-17990960D02*
X8360539Y-17981436D01*
X8360539Y-17981436D02*
X8351015Y-17962389D01*
X8351015Y-17962389D02*
X8351015Y-17905246D01*
X8351015Y-17905246D02*
X8360539Y-17886198D01*
X8360539Y-17886198D02*
X8370063Y-17876674D01*
X8370063Y-17876674D02*
X8389111Y-17867150D01*
X8389111Y-17867150D02*
X8417682Y-17867150D01*
X8417682Y-17867150D02*
X8436730Y-17876674D01*
X8436730Y-17876674D02*
X8446253Y-17886198D01*
X8446253Y-17886198D02*
X8455777Y-17905246D01*
X8455777Y-17905246D02*
X8455777Y-17962389D01*
X8455777Y-17962389D02*
X8446253Y-17981436D01*
X8446253Y-17981436D02*
X8436730Y-17990960D01*
X8436730Y-17990960D02*
X8417682Y-18000484D01*
X8417682Y-18000484D02*
X8389111Y-18000484D01*
X8570063Y-18000484D02*
X8551015Y-17990960D01*
X8551015Y-17990960D02*
X8541492Y-17971912D01*
X8541492Y-17971912D02*
X8541492Y-17800484D01*
X8722444Y-17990960D02*
X8703396Y-18000484D01*
X8703396Y-18000484D02*
X8665301Y-18000484D01*
X8665301Y-18000484D02*
X8646253Y-17990960D01*
X8646253Y-17990960D02*
X8636730Y-17971912D01*
X8636730Y-17971912D02*
X8636730Y-17895722D01*
X8636730Y-17895722D02*
X8646253Y-17876674D01*
X8646253Y-17876674D02*
X8665301Y-17867150D01*
X8665301Y-17867150D02*
X8703396Y-17867150D01*
X8703396Y-17867150D02*
X8722444Y-17876674D01*
X8722444Y-17876674D02*
X8731968Y-17895722D01*
X8731968Y-17895722D02*
X8731968Y-17914770D01*
X8731968Y-17914770D02*
X8636730Y-17933817D01*
X8808158Y-17990960D02*
X8827206Y-18000484D01*
X8827206Y-18000484D02*
X8865301Y-18000484D01*
X8865301Y-18000484D02*
X8884349Y-17990960D01*
X8884349Y-17990960D02*
X8893873Y-17971912D01*
X8893873Y-17971912D02*
X8893873Y-17962389D01*
X8893873Y-17962389D02*
X8884349Y-17943341D01*
X8884349Y-17943341D02*
X8865301Y-17933817D01*
X8865301Y-17933817D02*
X8836730Y-17933817D01*
X8836730Y-17933817D02*
X8817682Y-17924293D01*
X8817682Y-17924293D02*
X8808158Y-17905246D01*
X8808158Y-17905246D02*
X8808158Y-17895722D01*
X8808158Y-17895722D02*
X8817682Y-17876674D01*
X8817682Y-17876674D02*
X8836730Y-17867150D01*
X8836730Y-17867150D02*
X8865301Y-17867150D01*
X8865301Y-17867150D02*
X8884349Y-17876674D01*
X8960539Y-18076674D02*
X8970063Y-18067150D01*
X8970063Y-18067150D02*
X8989111Y-18038579D01*
X8989111Y-18038579D02*
X8998634Y-18019531D01*
X8998634Y-18019531D02*
X9008158Y-17990960D01*
X9008158Y-17990960D02*
X9017682Y-17943341D01*
X9017682Y-17943341D02*
X9017682Y-17905246D01*
X9017682Y-17905246D02*
X9008158Y-17857627D01*
X9008158Y-17857627D02*
X8998634Y-17829055D01*
X8998634Y-17829055D02*
X8989111Y-17810008D01*
X8989111Y-17810008D02*
X8970063Y-17781436D01*
X8970063Y-17781436D02*
X8960539Y-17771912D01*
D10*
X3970000Y-18148000D02*
X3970000Y-18198000D01*
X3945000Y-18173000D02*
X3995000Y-18173000D01*
D11*
X4293872Y-18064484D02*
X4312920Y-18064484D01*
X4312920Y-18064484D02*
X4331967Y-18074008D01*
X4331967Y-18074008D02*
X4341491Y-18083531D01*
X4341491Y-18083531D02*
X4351015Y-18102579D01*
X4351015Y-18102579D02*
X4360539Y-18140674D01*
X4360539Y-18140674D02*
X4360539Y-18188293D01*
X4360539Y-18188293D02*
X4351015Y-18226389D01*
X4351015Y-18226389D02*
X4341491Y-18245436D01*
X4341491Y-18245436D02*
X4331967Y-18254960D01*
X4331967Y-18254960D02*
X4312920Y-18264484D01*
X4312920Y-18264484D02*
X4293872Y-18264484D01*
X4293872Y-18264484D02*
X4274824Y-18254960D01*
X4274824Y-18254960D02*
X4265301Y-18245436D01*
X4265301Y-18245436D02*
X4255777Y-18226389D01*
X4255777Y-18226389D02*
X4246253Y-18188293D01*
X4246253Y-18188293D02*
X4246253Y-18140674D01*
X4246253Y-18140674D02*
X4255777Y-18102579D01*
X4255777Y-18102579D02*
X4265301Y-18083531D01*
X4265301Y-18083531D02*
X4274824Y-18074008D01*
X4274824Y-18074008D02*
X4293872Y-18064484D01*
X4446253Y-18245436D02*
X4455777Y-18254960D01*
X4455777Y-18254960D02*
X4446253Y-18264484D01*
X4446253Y-18264484D02*
X4436729Y-18254960D01*
X4436729Y-18254960D02*
X4446253Y-18245436D01*
X4446253Y-18245436D02*
X4446253Y-18264484D01*
X4636729Y-18064484D02*
X4541491Y-18064484D01*
X4541491Y-18064484D02*
X4531967Y-18159722D01*
X4531967Y-18159722D02*
X4541491Y-18150198D01*
X4541491Y-18150198D02*
X4560539Y-18140674D01*
X4560539Y-18140674D02*
X4608158Y-18140674D01*
X4608158Y-18140674D02*
X4627205Y-18150198D01*
X4627205Y-18150198D02*
X4636729Y-18159722D01*
X4636729Y-18159722D02*
X4646253Y-18178770D01*
X4646253Y-18178770D02*
X4646253Y-18226389D01*
X4646253Y-18226389D02*
X4636729Y-18245436D01*
X4636729Y-18245436D02*
X4627205Y-18254960D01*
X4627205Y-18254960D02*
X4608158Y-18264484D01*
X4608158Y-18264484D02*
X4560539Y-18264484D01*
X4560539Y-18264484D02*
X4541491Y-18254960D01*
X4541491Y-18254960D02*
X4531967Y-18245436D01*
X4770063Y-18064484D02*
X4789110Y-18064484D01*
X4789110Y-18064484D02*
X4808158Y-18074008D01*
X4808158Y-18074008D02*
X4817682Y-18083531D01*
X4817682Y-18083531D02*
X4827205Y-18102579D01*
X4827205Y-18102579D02*
X4836729Y-18140674D01*
X4836729Y-18140674D02*
X4836729Y-18188293D01*
X4836729Y-18188293D02*
X4827205Y-18226389D01*
X4827205Y-18226389D02*
X4817682Y-18245436D01*
X4817682Y-18245436D02*
X4808158Y-18254960D01*
X4808158Y-18254960D02*
X4789110Y-18264484D01*
X4789110Y-18264484D02*
X4770063Y-18264484D01*
X4770063Y-18264484D02*
X4751015Y-18254960D01*
X4751015Y-18254960D02*
X4741491Y-18245436D01*
X4741491Y-18245436D02*
X4731967Y-18226389D01*
X4731967Y-18226389D02*
X4722444Y-18188293D01*
X4722444Y-18188293D02*
X4722444Y-18140674D01*
X4722444Y-18140674D02*
X4731967Y-18102579D01*
X4731967Y-18102579D02*
X4741491Y-18083531D01*
X4741491Y-18083531D02*
X4751015Y-18074008D01*
X4751015Y-18074008D02*
X4770063Y-18064484D01*
X4960539Y-18064484D02*
X4979586Y-18064484D01*
X4979586Y-18064484D02*
X4998634Y-18074008D01*
X4998634Y-18074008D02*
X5008158Y-18083531D01*
X5008158Y-18083531D02*
X5017682Y-18102579D01*
X5017682Y-18102579D02*
X5027205Y-18140674D01*
X5027205Y-18140674D02*
X5027205Y-18188293D01*
X5027205Y-18188293D02*
X5017682Y-18226389D01*
X5017682Y-18226389D02*
X5008158Y-18245436D01*
X5008158Y-18245436D02*
X4998634Y-18254960D01*
X4998634Y-18254960D02*
X4979586Y-18264484D01*
X4979586Y-18264484D02*
X4960539Y-18264484D01*
X4960539Y-18264484D02*
X4941491Y-18254960D01*
X4941491Y-18254960D02*
X4931967Y-18245436D01*
X4931967Y-18245436D02*
X4922444Y-18226389D01*
X4922444Y-18226389D02*
X4912920Y-18188293D01*
X4912920Y-18188293D02*
X4912920Y-18140674D01*
X4912920Y-18140674D02*
X4922444Y-18102579D01*
X4922444Y-18102579D02*
X4931967Y-18083531D01*
X4931967Y-18083531D02*
X4941491Y-18074008D01*
X4941491Y-18074008D02*
X4960539Y-18064484D01*
X5112920Y-18264484D02*
X5112920Y-18131150D01*
X5112920Y-18150198D02*
X5122444Y-18140674D01*
X5122444Y-18140674D02*
X5141491Y-18131150D01*
X5141491Y-18131150D02*
X5170063Y-18131150D01*
X5170063Y-18131150D02*
X5189110Y-18140674D01*
X5189110Y-18140674D02*
X5198634Y-18159722D01*
X5198634Y-18159722D02*
X5198634Y-18264484D01*
X5198634Y-18159722D02*
X5208158Y-18140674D01*
X5208158Y-18140674D02*
X5227205Y-18131150D01*
X5227205Y-18131150D02*
X5255777Y-18131150D01*
X5255777Y-18131150D02*
X5274825Y-18140674D01*
X5274825Y-18140674D02*
X5284348Y-18159722D01*
X5284348Y-18159722D02*
X5284348Y-18264484D01*
X5379586Y-18264484D02*
X5379586Y-18131150D01*
X5379586Y-18150198D02*
X5389110Y-18140674D01*
X5389110Y-18140674D02*
X5408158Y-18131150D01*
X5408158Y-18131150D02*
X5436729Y-18131150D01*
X5436729Y-18131150D02*
X5455777Y-18140674D01*
X5455777Y-18140674D02*
X5465301Y-18159722D01*
X5465301Y-18159722D02*
X5465301Y-18264484D01*
X5465301Y-18159722D02*
X5474825Y-18140674D01*
X5474825Y-18140674D02*
X5493872Y-18131150D01*
X5493872Y-18131150D02*
X5522444Y-18131150D01*
X5522444Y-18131150D02*
X5541491Y-18140674D01*
X5541491Y-18140674D02*
X5551015Y-18159722D01*
X5551015Y-18159722D02*
X5551015Y-18264484D01*
X5941491Y-18054960D02*
X5770063Y-18312103D01*
X6198634Y-18064484D02*
X6217682Y-18064484D01*
X6217682Y-18064484D02*
X6236729Y-18074008D01*
X6236729Y-18074008D02*
X6246253Y-18083531D01*
X6246253Y-18083531D02*
X6255777Y-18102579D01*
X6255777Y-18102579D02*
X6265301Y-18140674D01*
X6265301Y-18140674D02*
X6265301Y-18188293D01*
X6265301Y-18188293D02*
X6255777Y-18226389D01*
X6255777Y-18226389D02*
X6246253Y-18245436D01*
X6246253Y-18245436D02*
X6236729Y-18254960D01*
X6236729Y-18254960D02*
X6217682Y-18264484D01*
X6217682Y-18264484D02*
X6198634Y-18264484D01*
X6198634Y-18264484D02*
X6179586Y-18254960D01*
X6179586Y-18254960D02*
X6170063Y-18245436D01*
X6170063Y-18245436D02*
X6160539Y-18226389D01*
X6160539Y-18226389D02*
X6151015Y-18188293D01*
X6151015Y-18188293D02*
X6151015Y-18140674D01*
X6151015Y-18140674D02*
X6160539Y-18102579D01*
X6160539Y-18102579D02*
X6170063Y-18083531D01*
X6170063Y-18083531D02*
X6179586Y-18074008D01*
X6179586Y-18074008D02*
X6198634Y-18064484D01*
X6351015Y-18245436D02*
X6360539Y-18254960D01*
X6360539Y-18254960D02*
X6351015Y-18264484D01*
X6351015Y-18264484D02*
X6341491Y-18254960D01*
X6341491Y-18254960D02*
X6351015Y-18245436D01*
X6351015Y-18245436D02*
X6351015Y-18264484D01*
X6484348Y-18064484D02*
X6503396Y-18064484D01*
X6503396Y-18064484D02*
X6522444Y-18074008D01*
X6522444Y-18074008D02*
X6531967Y-18083531D01*
X6531967Y-18083531D02*
X6541491Y-18102579D01*
X6541491Y-18102579D02*
X6551015Y-18140674D01*
X6551015Y-18140674D02*
X6551015Y-18188293D01*
X6551015Y-18188293D02*
X6541491Y-18226389D01*
X6541491Y-18226389D02*
X6531967Y-18245436D01*
X6531967Y-18245436D02*
X6522444Y-18254960D01*
X6522444Y-18254960D02*
X6503396Y-18264484D01*
X6503396Y-18264484D02*
X6484348Y-18264484D01*
X6484348Y-18264484D02*
X6465301Y-18254960D01*
X6465301Y-18254960D02*
X6455777Y-18245436D01*
X6455777Y-18245436D02*
X6446253Y-18226389D01*
X6446253Y-18226389D02*
X6436729Y-18188293D01*
X6436729Y-18188293D02*
X6436729Y-18140674D01*
X6436729Y-18140674D02*
X6446253Y-18102579D01*
X6446253Y-18102579D02*
X6455777Y-18083531D01*
X6455777Y-18083531D02*
X6465301Y-18074008D01*
X6465301Y-18074008D02*
X6484348Y-18064484D01*
X6741491Y-18264484D02*
X6627206Y-18264484D01*
X6684348Y-18264484D02*
X6684348Y-18064484D01*
X6684348Y-18064484D02*
X6665301Y-18093055D01*
X6665301Y-18093055D02*
X6646253Y-18112103D01*
X6646253Y-18112103D02*
X6627206Y-18121627D01*
X6836729Y-18264484D02*
X6874825Y-18264484D01*
X6874825Y-18264484D02*
X6893872Y-18254960D01*
X6893872Y-18254960D02*
X6903396Y-18245436D01*
X6903396Y-18245436D02*
X6922444Y-18216865D01*
X6922444Y-18216865D02*
X6931967Y-18178770D01*
X6931967Y-18178770D02*
X6931967Y-18102579D01*
X6931967Y-18102579D02*
X6922444Y-18083531D01*
X6922444Y-18083531D02*
X6912920Y-18074008D01*
X6912920Y-18074008D02*
X6893872Y-18064484D01*
X6893872Y-18064484D02*
X6855777Y-18064484D01*
X6855777Y-18064484D02*
X6836729Y-18074008D01*
X6836729Y-18074008D02*
X6827206Y-18083531D01*
X6827206Y-18083531D02*
X6817682Y-18102579D01*
X6817682Y-18102579D02*
X6817682Y-18150198D01*
X6817682Y-18150198D02*
X6827206Y-18169246D01*
X6827206Y-18169246D02*
X6836729Y-18178770D01*
X6836729Y-18178770D02*
X6855777Y-18188293D01*
X6855777Y-18188293D02*
X6893872Y-18188293D01*
X6893872Y-18188293D02*
X6912920Y-18178770D01*
X6912920Y-18178770D02*
X6922444Y-18169246D01*
X6922444Y-18169246D02*
X6931967Y-18150198D01*
X6998634Y-18064484D02*
X7131967Y-18064484D01*
X7131967Y-18064484D02*
X7046253Y-18264484D01*
X7198634Y-18064484D02*
X7198634Y-18102579D01*
X7274825Y-18064484D02*
X7274825Y-18102579D01*
X7570063Y-18340674D02*
X7560539Y-18331150D01*
X7560539Y-18331150D02*
X7541491Y-18302579D01*
X7541491Y-18302579D02*
X7531968Y-18283531D01*
X7531968Y-18283531D02*
X7522444Y-18254960D01*
X7522444Y-18254960D02*
X7512920Y-18207341D01*
X7512920Y-18207341D02*
X7512920Y-18169246D01*
X7512920Y-18169246D02*
X7522444Y-18121627D01*
X7522444Y-18121627D02*
X7531968Y-18093055D01*
X7531968Y-18093055D02*
X7541491Y-18074008D01*
X7541491Y-18074008D02*
X7560539Y-18045436D01*
X7560539Y-18045436D02*
X7570063Y-18035912D01*
X7627206Y-18064484D02*
X7751015Y-18064484D01*
X7751015Y-18064484D02*
X7684348Y-18140674D01*
X7684348Y-18140674D02*
X7712920Y-18140674D01*
X7712920Y-18140674D02*
X7731968Y-18150198D01*
X7731968Y-18150198D02*
X7741491Y-18159722D01*
X7741491Y-18159722D02*
X7751015Y-18178770D01*
X7751015Y-18178770D02*
X7751015Y-18226389D01*
X7751015Y-18226389D02*
X7741491Y-18245436D01*
X7741491Y-18245436D02*
X7731968Y-18254960D01*
X7731968Y-18254960D02*
X7712920Y-18264484D01*
X7712920Y-18264484D02*
X7655777Y-18264484D01*
X7655777Y-18264484D02*
X7636729Y-18254960D01*
X7636729Y-18254960D02*
X7627206Y-18245436D01*
X7827206Y-18083531D02*
X7836729Y-18074008D01*
X7836729Y-18074008D02*
X7855777Y-18064484D01*
X7855777Y-18064484D02*
X7903396Y-18064484D01*
X7903396Y-18064484D02*
X7922444Y-18074008D01*
X7922444Y-18074008D02*
X7931968Y-18083531D01*
X7931968Y-18083531D02*
X7941491Y-18102579D01*
X7941491Y-18102579D02*
X7941491Y-18121627D01*
X7941491Y-18121627D02*
X7931968Y-18150198D01*
X7931968Y-18150198D02*
X7817682Y-18264484D01*
X7817682Y-18264484D02*
X7941491Y-18264484D01*
X8179587Y-18264484D02*
X8179587Y-18064484D01*
X8265301Y-18264484D02*
X8265301Y-18159722D01*
X8265301Y-18159722D02*
X8255777Y-18140674D01*
X8255777Y-18140674D02*
X8236730Y-18131150D01*
X8236730Y-18131150D02*
X8208158Y-18131150D01*
X8208158Y-18131150D02*
X8189110Y-18140674D01*
X8189110Y-18140674D02*
X8179587Y-18150198D01*
X8389111Y-18264484D02*
X8370063Y-18254960D01*
X8370063Y-18254960D02*
X8360539Y-18245436D01*
X8360539Y-18245436D02*
X8351015Y-18226389D01*
X8351015Y-18226389D02*
X8351015Y-18169246D01*
X8351015Y-18169246D02*
X8360539Y-18150198D01*
X8360539Y-18150198D02*
X8370063Y-18140674D01*
X8370063Y-18140674D02*
X8389111Y-18131150D01*
X8389111Y-18131150D02*
X8417682Y-18131150D01*
X8417682Y-18131150D02*
X8436730Y-18140674D01*
X8436730Y-18140674D02*
X8446253Y-18150198D01*
X8446253Y-18150198D02*
X8455777Y-18169246D01*
X8455777Y-18169246D02*
X8455777Y-18226389D01*
X8455777Y-18226389D02*
X8446253Y-18245436D01*
X8446253Y-18245436D02*
X8436730Y-18254960D01*
X8436730Y-18254960D02*
X8417682Y-18264484D01*
X8417682Y-18264484D02*
X8389111Y-18264484D01*
X8570063Y-18264484D02*
X8551015Y-18254960D01*
X8551015Y-18254960D02*
X8541492Y-18235912D01*
X8541492Y-18235912D02*
X8541492Y-18064484D01*
X8722444Y-18254960D02*
X8703396Y-18264484D01*
X8703396Y-18264484D02*
X8665301Y-18264484D01*
X8665301Y-18264484D02*
X8646253Y-18254960D01*
X8646253Y-18254960D02*
X8636730Y-18235912D01*
X8636730Y-18235912D02*
X8636730Y-18159722D01*
X8636730Y-18159722D02*
X8646253Y-18140674D01*
X8646253Y-18140674D02*
X8665301Y-18131150D01*
X8665301Y-18131150D02*
X8703396Y-18131150D01*
X8703396Y-18131150D02*
X8722444Y-18140674D01*
X8722444Y-18140674D02*
X8731968Y-18159722D01*
X8731968Y-18159722D02*
X8731968Y-18178770D01*
X8731968Y-18178770D02*
X8636730Y-18197817D01*
X8808158Y-18254960D02*
X8827206Y-18264484D01*
X8827206Y-18264484D02*
X8865301Y-18264484D01*
X8865301Y-18264484D02*
X8884349Y-18254960D01*
X8884349Y-18254960D02*
X8893873Y-18235912D01*
X8893873Y-18235912D02*
X8893873Y-18226389D01*
X8893873Y-18226389D02*
X8884349Y-18207341D01*
X8884349Y-18207341D02*
X8865301Y-18197817D01*
X8865301Y-18197817D02*
X8836730Y-18197817D01*
X8836730Y-18197817D02*
X8817682Y-18188293D01*
X8817682Y-18188293D02*
X8808158Y-18169246D01*
X8808158Y-18169246D02*
X8808158Y-18159722D01*
X8808158Y-18159722D02*
X8817682Y-18140674D01*
X8817682Y-18140674D02*
X8836730Y-18131150D01*
X8836730Y-18131150D02*
X8865301Y-18131150D01*
X8865301Y-18131150D02*
X8884349Y-18140674D01*
X8960539Y-18340674D02*
X8970063Y-18331150D01*
X8970063Y-18331150D02*
X8989111Y-18302579D01*
X8989111Y-18302579D02*
X8998634Y-18283531D01*
X8998634Y-18283531D02*
X9008158Y-18254960D01*
X9008158Y-18254960D02*
X9017682Y-18207341D01*
X9017682Y-18207341D02*
X9017682Y-18169246D01*
X9017682Y-18169246D02*
X9008158Y-18121627D01*
X9008158Y-18121627D02*
X8998634Y-18093055D01*
X8998634Y-18093055D02*
X8989111Y-18074008D01*
X8989111Y-18074008D02*
X8970063Y-18045436D01*
X8970063Y-18045436D02*
X8960539Y-18035912D01*
D10*
X3980356Y-18472356D02*
X3980356Y-18401644D01*
X3909644Y-18401644D01*
X3909644Y-18472356D01*
X3980356Y-18472356D01*
D11*
X4360539Y-18528484D02*
X4246253Y-18528484D01*
X4303396Y-18528484D02*
X4303396Y-18328484D01*
X4303396Y-18328484D02*
X4284348Y-18357055D01*
X4284348Y-18357055D02*
X4265301Y-18376103D01*
X4265301Y-18376103D02*
X4246253Y-18385627D01*
X4446253Y-18509436D02*
X4455777Y-18518960D01*
X4455777Y-18518960D02*
X4446253Y-18528484D01*
X4446253Y-18528484D02*
X4436729Y-18518960D01*
X4436729Y-18518960D02*
X4446253Y-18509436D01*
X4446253Y-18509436D02*
X4446253Y-18528484D01*
X4579586Y-18328484D02*
X4598634Y-18328484D01*
X4598634Y-18328484D02*
X4617682Y-18338008D01*
X4617682Y-18338008D02*
X4627205Y-18347531D01*
X4627205Y-18347531D02*
X4636729Y-18366579D01*
X4636729Y-18366579D02*
X4646253Y-18404674D01*
X4646253Y-18404674D02*
X4646253Y-18452293D01*
X4646253Y-18452293D02*
X4636729Y-18490389D01*
X4636729Y-18490389D02*
X4627205Y-18509436D01*
X4627205Y-18509436D02*
X4617682Y-18518960D01*
X4617682Y-18518960D02*
X4598634Y-18528484D01*
X4598634Y-18528484D02*
X4579586Y-18528484D01*
X4579586Y-18528484D02*
X4560539Y-18518960D01*
X4560539Y-18518960D02*
X4551015Y-18509436D01*
X4551015Y-18509436D02*
X4541491Y-18490389D01*
X4541491Y-18490389D02*
X4531967Y-18452293D01*
X4531967Y-18452293D02*
X4531967Y-18404674D01*
X4531967Y-18404674D02*
X4541491Y-18366579D01*
X4541491Y-18366579D02*
X4551015Y-18347531D01*
X4551015Y-18347531D02*
X4560539Y-18338008D01*
X4560539Y-18338008D02*
X4579586Y-18328484D01*
X4770063Y-18328484D02*
X4789110Y-18328484D01*
X4789110Y-18328484D02*
X4808158Y-18338008D01*
X4808158Y-18338008D02*
X4817682Y-18347531D01*
X4817682Y-18347531D02*
X4827205Y-18366579D01*
X4827205Y-18366579D02*
X4836729Y-18404674D01*
X4836729Y-18404674D02*
X4836729Y-18452293D01*
X4836729Y-18452293D02*
X4827205Y-18490389D01*
X4827205Y-18490389D02*
X4817682Y-18509436D01*
X4817682Y-18509436D02*
X4808158Y-18518960D01*
X4808158Y-18518960D02*
X4789110Y-18528484D01*
X4789110Y-18528484D02*
X4770063Y-18528484D01*
X4770063Y-18528484D02*
X4751015Y-18518960D01*
X4751015Y-18518960D02*
X4741491Y-18509436D01*
X4741491Y-18509436D02*
X4731967Y-18490389D01*
X4731967Y-18490389D02*
X4722444Y-18452293D01*
X4722444Y-18452293D02*
X4722444Y-18404674D01*
X4722444Y-18404674D02*
X4731967Y-18366579D01*
X4731967Y-18366579D02*
X4741491Y-18347531D01*
X4741491Y-18347531D02*
X4751015Y-18338008D01*
X4751015Y-18338008D02*
X4770063Y-18328484D01*
X4960539Y-18328484D02*
X4979586Y-18328484D01*
X4979586Y-18328484D02*
X4998634Y-18338008D01*
X4998634Y-18338008D02*
X5008158Y-18347531D01*
X5008158Y-18347531D02*
X5017682Y-18366579D01*
X5017682Y-18366579D02*
X5027205Y-18404674D01*
X5027205Y-18404674D02*
X5027205Y-18452293D01*
X5027205Y-18452293D02*
X5017682Y-18490389D01*
X5017682Y-18490389D02*
X5008158Y-18509436D01*
X5008158Y-18509436D02*
X4998634Y-18518960D01*
X4998634Y-18518960D02*
X4979586Y-18528484D01*
X4979586Y-18528484D02*
X4960539Y-18528484D01*
X4960539Y-18528484D02*
X4941491Y-18518960D01*
X4941491Y-18518960D02*
X4931967Y-18509436D01*
X4931967Y-18509436D02*
X4922444Y-18490389D01*
X4922444Y-18490389D02*
X4912920Y-18452293D01*
X4912920Y-18452293D02*
X4912920Y-18404674D01*
X4912920Y-18404674D02*
X4922444Y-18366579D01*
X4922444Y-18366579D02*
X4931967Y-18347531D01*
X4931967Y-18347531D02*
X4941491Y-18338008D01*
X4941491Y-18338008D02*
X4960539Y-18328484D01*
X5112920Y-18528484D02*
X5112920Y-18395150D01*
X5112920Y-18414198D02*
X5122444Y-18404674D01*
X5122444Y-18404674D02*
X5141491Y-18395150D01*
X5141491Y-18395150D02*
X5170063Y-18395150D01*
X5170063Y-18395150D02*
X5189110Y-18404674D01*
X5189110Y-18404674D02*
X5198634Y-18423722D01*
X5198634Y-18423722D02*
X5198634Y-18528484D01*
X5198634Y-18423722D02*
X5208158Y-18404674D01*
X5208158Y-18404674D02*
X5227205Y-18395150D01*
X5227205Y-18395150D02*
X5255777Y-18395150D01*
X5255777Y-18395150D02*
X5274825Y-18404674D01*
X5274825Y-18404674D02*
X5284348Y-18423722D01*
X5284348Y-18423722D02*
X5284348Y-18528484D01*
X5379586Y-18528484D02*
X5379586Y-18395150D01*
X5379586Y-18414198D02*
X5389110Y-18404674D01*
X5389110Y-18404674D02*
X5408158Y-18395150D01*
X5408158Y-18395150D02*
X5436729Y-18395150D01*
X5436729Y-18395150D02*
X5455777Y-18404674D01*
X5455777Y-18404674D02*
X5465301Y-18423722D01*
X5465301Y-18423722D02*
X5465301Y-18528484D01*
X5465301Y-18423722D02*
X5474825Y-18404674D01*
X5474825Y-18404674D02*
X5493872Y-18395150D01*
X5493872Y-18395150D02*
X5522444Y-18395150D01*
X5522444Y-18395150D02*
X5541491Y-18404674D01*
X5541491Y-18404674D02*
X5551015Y-18423722D01*
X5551015Y-18423722D02*
X5551015Y-18528484D01*
X5941491Y-18318960D02*
X5770063Y-18576103D01*
X6198634Y-18328484D02*
X6217682Y-18328484D01*
X6217682Y-18328484D02*
X6236729Y-18338008D01*
X6236729Y-18338008D02*
X6246253Y-18347531D01*
X6246253Y-18347531D02*
X6255777Y-18366579D01*
X6255777Y-18366579D02*
X6265301Y-18404674D01*
X6265301Y-18404674D02*
X6265301Y-18452293D01*
X6265301Y-18452293D02*
X6255777Y-18490389D01*
X6255777Y-18490389D02*
X6246253Y-18509436D01*
X6246253Y-18509436D02*
X6236729Y-18518960D01*
X6236729Y-18518960D02*
X6217682Y-18528484D01*
X6217682Y-18528484D02*
X6198634Y-18528484D01*
X6198634Y-18528484D02*
X6179586Y-18518960D01*
X6179586Y-18518960D02*
X6170063Y-18509436D01*
X6170063Y-18509436D02*
X6160539Y-18490389D01*
X6160539Y-18490389D02*
X6151015Y-18452293D01*
X6151015Y-18452293D02*
X6151015Y-18404674D01*
X6151015Y-18404674D02*
X6160539Y-18366579D01*
X6160539Y-18366579D02*
X6170063Y-18347531D01*
X6170063Y-18347531D02*
X6179586Y-18338008D01*
X6179586Y-18338008D02*
X6198634Y-18328484D01*
X6351015Y-18509436D02*
X6360539Y-18518960D01*
X6360539Y-18518960D02*
X6351015Y-18528484D01*
X6351015Y-18528484D02*
X6341491Y-18518960D01*
X6341491Y-18518960D02*
X6351015Y-18509436D01*
X6351015Y-18509436D02*
X6351015Y-18528484D01*
X6484348Y-18328484D02*
X6503396Y-18328484D01*
X6503396Y-18328484D02*
X6522444Y-18338008D01*
X6522444Y-18338008D02*
X6531967Y-18347531D01*
X6531967Y-18347531D02*
X6541491Y-18366579D01*
X6541491Y-18366579D02*
X6551015Y-18404674D01*
X6551015Y-18404674D02*
X6551015Y-18452293D01*
X6551015Y-18452293D02*
X6541491Y-18490389D01*
X6541491Y-18490389D02*
X6531967Y-18509436D01*
X6531967Y-18509436D02*
X6522444Y-18518960D01*
X6522444Y-18518960D02*
X6503396Y-18528484D01*
X6503396Y-18528484D02*
X6484348Y-18528484D01*
X6484348Y-18528484D02*
X6465301Y-18518960D01*
X6465301Y-18518960D02*
X6455777Y-18509436D01*
X6455777Y-18509436D02*
X6446253Y-18490389D01*
X6446253Y-18490389D02*
X6436729Y-18452293D01*
X6436729Y-18452293D02*
X6436729Y-18404674D01*
X6436729Y-18404674D02*
X6446253Y-18366579D01*
X6446253Y-18366579D02*
X6455777Y-18347531D01*
X6455777Y-18347531D02*
X6465301Y-18338008D01*
X6465301Y-18338008D02*
X6484348Y-18328484D01*
X6617682Y-18328484D02*
X6741491Y-18328484D01*
X6741491Y-18328484D02*
X6674825Y-18404674D01*
X6674825Y-18404674D02*
X6703396Y-18404674D01*
X6703396Y-18404674D02*
X6722444Y-18414198D01*
X6722444Y-18414198D02*
X6731967Y-18423722D01*
X6731967Y-18423722D02*
X6741491Y-18442770D01*
X6741491Y-18442770D02*
X6741491Y-18490389D01*
X6741491Y-18490389D02*
X6731967Y-18509436D01*
X6731967Y-18509436D02*
X6722444Y-18518960D01*
X6722444Y-18518960D02*
X6703396Y-18528484D01*
X6703396Y-18528484D02*
X6646253Y-18528484D01*
X6646253Y-18528484D02*
X6627206Y-18518960D01*
X6627206Y-18518960D02*
X6617682Y-18509436D01*
X6836729Y-18528484D02*
X6874825Y-18528484D01*
X6874825Y-18528484D02*
X6893872Y-18518960D01*
X6893872Y-18518960D02*
X6903396Y-18509436D01*
X6903396Y-18509436D02*
X6922444Y-18480865D01*
X6922444Y-18480865D02*
X6931967Y-18442770D01*
X6931967Y-18442770D02*
X6931967Y-18366579D01*
X6931967Y-18366579D02*
X6922444Y-18347531D01*
X6922444Y-18347531D02*
X6912920Y-18338008D01*
X6912920Y-18338008D02*
X6893872Y-18328484D01*
X6893872Y-18328484D02*
X6855777Y-18328484D01*
X6855777Y-18328484D02*
X6836729Y-18338008D01*
X6836729Y-18338008D02*
X6827206Y-18347531D01*
X6827206Y-18347531D02*
X6817682Y-18366579D01*
X6817682Y-18366579D02*
X6817682Y-18414198D01*
X6817682Y-18414198D02*
X6827206Y-18433246D01*
X6827206Y-18433246D02*
X6836729Y-18442770D01*
X6836729Y-18442770D02*
X6855777Y-18452293D01*
X6855777Y-18452293D02*
X6893872Y-18452293D01*
X6893872Y-18452293D02*
X6912920Y-18442770D01*
X6912920Y-18442770D02*
X6922444Y-18433246D01*
X6922444Y-18433246D02*
X6931967Y-18414198D01*
X7103396Y-18395150D02*
X7103396Y-18528484D01*
X7055777Y-18318960D02*
X7008158Y-18461817D01*
X7008158Y-18461817D02*
X7131967Y-18461817D01*
X7198634Y-18328484D02*
X7198634Y-18366579D01*
X7274825Y-18328484D02*
X7274825Y-18366579D01*
X7570063Y-18604674D02*
X7560539Y-18595150D01*
X7560539Y-18595150D02*
X7541491Y-18566579D01*
X7541491Y-18566579D02*
X7531968Y-18547531D01*
X7531968Y-18547531D02*
X7522444Y-18518960D01*
X7522444Y-18518960D02*
X7512920Y-18471341D01*
X7512920Y-18471341D02*
X7512920Y-18433246D01*
X7512920Y-18433246D02*
X7522444Y-18385627D01*
X7522444Y-18385627D02*
X7531968Y-18357055D01*
X7531968Y-18357055D02*
X7541491Y-18338008D01*
X7541491Y-18338008D02*
X7560539Y-18309436D01*
X7560539Y-18309436D02*
X7570063Y-18299912D01*
X7627206Y-18328484D02*
X7751015Y-18328484D01*
X7751015Y-18328484D02*
X7684348Y-18404674D01*
X7684348Y-18404674D02*
X7712920Y-18404674D01*
X7712920Y-18404674D02*
X7731968Y-18414198D01*
X7731968Y-18414198D02*
X7741491Y-18423722D01*
X7741491Y-18423722D02*
X7751015Y-18442770D01*
X7751015Y-18442770D02*
X7751015Y-18490389D01*
X7751015Y-18490389D02*
X7741491Y-18509436D01*
X7741491Y-18509436D02*
X7731968Y-18518960D01*
X7731968Y-18518960D02*
X7712920Y-18528484D01*
X7712920Y-18528484D02*
X7655777Y-18528484D01*
X7655777Y-18528484D02*
X7636729Y-18518960D01*
X7636729Y-18518960D02*
X7627206Y-18509436D01*
X7931968Y-18328484D02*
X7836729Y-18328484D01*
X7836729Y-18328484D02*
X7827206Y-18423722D01*
X7827206Y-18423722D02*
X7836729Y-18414198D01*
X7836729Y-18414198D02*
X7855777Y-18404674D01*
X7855777Y-18404674D02*
X7903396Y-18404674D01*
X7903396Y-18404674D02*
X7922444Y-18414198D01*
X7922444Y-18414198D02*
X7931968Y-18423722D01*
X7931968Y-18423722D02*
X7941491Y-18442770D01*
X7941491Y-18442770D02*
X7941491Y-18490389D01*
X7941491Y-18490389D02*
X7931968Y-18509436D01*
X7931968Y-18509436D02*
X7922444Y-18518960D01*
X7922444Y-18518960D02*
X7903396Y-18528484D01*
X7903396Y-18528484D02*
X7855777Y-18528484D01*
X7855777Y-18528484D02*
X7836729Y-18518960D01*
X7836729Y-18518960D02*
X7827206Y-18509436D01*
X8179587Y-18528484D02*
X8179587Y-18328484D01*
X8265301Y-18528484D02*
X8265301Y-18423722D01*
X8265301Y-18423722D02*
X8255777Y-18404674D01*
X8255777Y-18404674D02*
X8236730Y-18395150D01*
X8236730Y-18395150D02*
X8208158Y-18395150D01*
X8208158Y-18395150D02*
X8189110Y-18404674D01*
X8189110Y-18404674D02*
X8179587Y-18414198D01*
X8389111Y-18528484D02*
X8370063Y-18518960D01*
X8370063Y-18518960D02*
X8360539Y-18509436D01*
X8360539Y-18509436D02*
X8351015Y-18490389D01*
X8351015Y-18490389D02*
X8351015Y-18433246D01*
X8351015Y-18433246D02*
X8360539Y-18414198D01*
X8360539Y-18414198D02*
X8370063Y-18404674D01*
X8370063Y-18404674D02*
X8389111Y-18395150D01*
X8389111Y-18395150D02*
X8417682Y-18395150D01*
X8417682Y-18395150D02*
X8436730Y-18404674D01*
X8436730Y-18404674D02*
X8446253Y-18414198D01*
X8446253Y-18414198D02*
X8455777Y-18433246D01*
X8455777Y-18433246D02*
X8455777Y-18490389D01*
X8455777Y-18490389D02*
X8446253Y-18509436D01*
X8446253Y-18509436D02*
X8436730Y-18518960D01*
X8436730Y-18518960D02*
X8417682Y-18528484D01*
X8417682Y-18528484D02*
X8389111Y-18528484D01*
X8570063Y-18528484D02*
X8551015Y-18518960D01*
X8551015Y-18518960D02*
X8541492Y-18499912D01*
X8541492Y-18499912D02*
X8541492Y-18328484D01*
X8722444Y-18518960D02*
X8703396Y-18528484D01*
X8703396Y-18528484D02*
X8665301Y-18528484D01*
X8665301Y-18528484D02*
X8646253Y-18518960D01*
X8646253Y-18518960D02*
X8636730Y-18499912D01*
X8636730Y-18499912D02*
X8636730Y-18423722D01*
X8636730Y-18423722D02*
X8646253Y-18404674D01*
X8646253Y-18404674D02*
X8665301Y-18395150D01*
X8665301Y-18395150D02*
X8703396Y-18395150D01*
X8703396Y-18395150D02*
X8722444Y-18404674D01*
X8722444Y-18404674D02*
X8731968Y-18423722D01*
X8731968Y-18423722D02*
X8731968Y-18442770D01*
X8731968Y-18442770D02*
X8636730Y-18461817D01*
X8808158Y-18518960D02*
X8827206Y-18528484D01*
X8827206Y-18528484D02*
X8865301Y-18528484D01*
X8865301Y-18528484D02*
X8884349Y-18518960D01*
X8884349Y-18518960D02*
X8893873Y-18499912D01*
X8893873Y-18499912D02*
X8893873Y-18490389D01*
X8893873Y-18490389D02*
X8884349Y-18471341D01*
X8884349Y-18471341D02*
X8865301Y-18461817D01*
X8865301Y-18461817D02*
X8836730Y-18461817D01*
X8836730Y-18461817D02*
X8817682Y-18452293D01*
X8817682Y-18452293D02*
X8808158Y-18433246D01*
X8808158Y-18433246D02*
X8808158Y-18423722D01*
X8808158Y-18423722D02*
X8817682Y-18404674D01*
X8817682Y-18404674D02*
X8836730Y-18395150D01*
X8836730Y-18395150D02*
X8865301Y-18395150D01*
X8865301Y-18395150D02*
X8884349Y-18404674D01*
X8960539Y-18604674D02*
X8970063Y-18595150D01*
X8970063Y-18595150D02*
X8989111Y-18566579D01*
X8989111Y-18566579D02*
X8998634Y-18547531D01*
X8998634Y-18547531D02*
X9008158Y-18518960D01*
X9008158Y-18518960D02*
X9017682Y-18471341D01*
X9017682Y-18471341D02*
X9017682Y-18433246D01*
X9017682Y-18433246D02*
X9008158Y-18385627D01*
X9008158Y-18385627D02*
X8998634Y-18357055D01*
X8998634Y-18357055D02*
X8989111Y-18338008D01*
X8989111Y-18338008D02*
X8970063Y-18309436D01*
X8970063Y-18309436D02*
X8960539Y-18299912D01*
M02*
