G04 #@! TF.GenerationSoftware,KiCad,Pcbnew,8.0.3*
G04 #@! TF.CreationDate,2024-06-08T17:14:39+02:00*
G04 #@! TF.ProjectId,chip8-pcb,63686970-382d-4706-9362-2e6b69636164,1*
G04 #@! TF.SameCoordinates,Original*
G04 #@! TF.FileFunction,Legend,Top*
G04 #@! TF.FilePolarity,Positive*
%FSLAX46Y46*%
G04 Gerber Fmt 4.6, Leading zero omitted, Abs format (unit mm)*
G04 Created by KiCad (PCBNEW 8.0.3) date 2024-06-08 17:14:39*
%MOMM*%
%LPD*%
G01*
G04 APERTURE LIST*
G04 Aperture macros list*
%AMRoundRect*
0 Rectangle with rounded corners*
0 $1 Rounding radius*
0 $2 $3 $4 $5 $6 $7 $8 $9 X,Y pos of 4 corners*
0 Add a 4 corners polygon primitive as box body*
4,1,4,$2,$3,$4,$5,$6,$7,$8,$9,$2,$3,0*
0 Add four circle primitives for the rounded corners*
1,1,$1+$1,$2,$3*
1,1,$1+$1,$4,$5*
1,1,$1+$1,$6,$7*
1,1,$1+$1,$8,$9*
0 Add four rect primitives between the rounded corners*
20,1,$1+$1,$2,$3,$4,$5,0*
20,1,$1+$1,$4,$5,$6,$7,0*
20,1,$1+$1,$6,$7,$8,$9,0*
20,1,$1+$1,$8,$9,$2,$3,0*%
G04 Aperture macros list end*
%ADD10C,0.300000*%
%ADD11C,0.250000*%
%ADD12C,0.150000*%
%ADD13C,0.120000*%
%ADD14C,2.700000*%
%ADD15C,2.200000*%
%ADD16R,1.700000X1.700000*%
%ADD17O,1.700000X1.700000*%
%ADD18RoundRect,0.243750X-0.456250X0.243750X-0.456250X-0.243750X0.456250X-0.243750X0.456250X0.243750X0*%
%ADD19RoundRect,0.243750X0.456250X-0.243750X0.456250X0.243750X-0.456250X0.243750X-0.456250X-0.243750X0*%
%ADD20C,0.900000*%
%ADD21RoundRect,0.600000X1.150000X0.150000X-1.150000X0.150000X-1.150000X-0.150000X1.150000X-0.150000X0*%
%ADD22RoundRect,0.600000X-1.150000X-0.150000X1.150000X-0.150000X1.150000X0.150000X-1.150000X0.150000X0*%
G04 APERTURE END LIST*
D10*
X113840225Y-67800828D02*
X114125939Y-67800828D01*
X114125939Y-67800828D02*
X114268796Y-67872257D01*
X114268796Y-67872257D02*
X114411653Y-68015114D01*
X114411653Y-68015114D02*
X114483082Y-68300828D01*
X114483082Y-68300828D02*
X114483082Y-68800828D01*
X114483082Y-68800828D02*
X114411653Y-69086542D01*
X114411653Y-69086542D02*
X114268796Y-69229400D01*
X114268796Y-69229400D02*
X114125939Y-69300828D01*
X114125939Y-69300828D02*
X113840225Y-69300828D01*
X113840225Y-69300828D02*
X113697368Y-69229400D01*
X113697368Y-69229400D02*
X113554510Y-69086542D01*
X113554510Y-69086542D02*
X113483082Y-68800828D01*
X113483082Y-68800828D02*
X113483082Y-68300828D01*
X113483082Y-68300828D02*
X113554510Y-68015114D01*
X113554510Y-68015114D02*
X113697368Y-67872257D01*
X113697368Y-67872257D02*
X113840225Y-67800828D01*
X115125939Y-69300828D02*
X115125939Y-67800828D01*
X115125939Y-67800828D02*
X115983082Y-69300828D01*
X115983082Y-69300828D02*
X115983082Y-67800828D01*
X112840225Y-72300828D02*
X113125939Y-72300828D01*
X113125939Y-72300828D02*
X113268796Y-72372257D01*
X113268796Y-72372257D02*
X113411653Y-72515114D01*
X113411653Y-72515114D02*
X113483082Y-72800828D01*
X113483082Y-72800828D02*
X113483082Y-73300828D01*
X113483082Y-73300828D02*
X113411653Y-73586542D01*
X113411653Y-73586542D02*
X113268796Y-73729400D01*
X113268796Y-73729400D02*
X113125939Y-73800828D01*
X113125939Y-73800828D02*
X112840225Y-73800828D01*
X112840225Y-73800828D02*
X112697368Y-73729400D01*
X112697368Y-73729400D02*
X112554510Y-73586542D01*
X112554510Y-73586542D02*
X112483082Y-73300828D01*
X112483082Y-73300828D02*
X112483082Y-72800828D01*
X112483082Y-72800828D02*
X112554510Y-72515114D01*
X112554510Y-72515114D02*
X112697368Y-72372257D01*
X112697368Y-72372257D02*
X112840225Y-72300828D01*
X114625939Y-73015114D02*
X114125939Y-73015114D01*
X114125939Y-73800828D02*
X114125939Y-72300828D01*
X114125939Y-72300828D02*
X114840225Y-72300828D01*
X115911653Y-73015114D02*
X115411653Y-73015114D01*
X115411653Y-73800828D02*
X115411653Y-72300828D01*
X115411653Y-72300828D02*
X116125939Y-72300828D01*
D11*
X111021615Y-84517714D02*
X110521615Y-84517714D01*
X110521615Y-85303428D02*
X110521615Y-83803428D01*
X110521615Y-83803428D02*
X111235901Y-83803428D01*
X111807329Y-83803428D02*
X111807329Y-85017714D01*
X111807329Y-85017714D02*
X111878758Y-85160571D01*
X111878758Y-85160571D02*
X111950187Y-85232000D01*
X111950187Y-85232000D02*
X112093044Y-85303428D01*
X112093044Y-85303428D02*
X112378758Y-85303428D01*
X112378758Y-85303428D02*
X112521615Y-85232000D01*
X112521615Y-85232000D02*
X112593044Y-85160571D01*
X112593044Y-85160571D02*
X112664472Y-85017714D01*
X112664472Y-85017714D02*
X112664472Y-83803428D01*
X114093044Y-85303428D02*
X113378758Y-85303428D01*
X113378758Y-85303428D02*
X113378758Y-83803428D01*
X115307330Y-85303428D02*
X114593044Y-85303428D01*
X114593044Y-85303428D02*
X114593044Y-83803428D01*
X110878758Y-81160571D02*
X110807330Y-81232000D01*
X110807330Y-81232000D02*
X110593044Y-81303428D01*
X110593044Y-81303428D02*
X110450187Y-81303428D01*
X110450187Y-81303428D02*
X110235901Y-81232000D01*
X110235901Y-81232000D02*
X110093044Y-81089142D01*
X110093044Y-81089142D02*
X110021615Y-80946285D01*
X110021615Y-80946285D02*
X109950187Y-80660571D01*
X109950187Y-80660571D02*
X109950187Y-80446285D01*
X109950187Y-80446285D02*
X110021615Y-80160571D01*
X110021615Y-80160571D02*
X110093044Y-80017714D01*
X110093044Y-80017714D02*
X110235901Y-79874857D01*
X110235901Y-79874857D02*
X110450187Y-79803428D01*
X110450187Y-79803428D02*
X110593044Y-79803428D01*
X110593044Y-79803428D02*
X110807330Y-79874857D01*
X110807330Y-79874857D02*
X110878758Y-79946285D01*
X111521615Y-81303428D02*
X111521615Y-79803428D01*
X111521615Y-80517714D02*
X112378758Y-80517714D01*
X112378758Y-81303428D02*
X112378758Y-79803428D01*
X113950187Y-81303428D02*
X113450187Y-80589142D01*
X113093044Y-81303428D02*
X113093044Y-79803428D01*
X113093044Y-79803428D02*
X113664473Y-79803428D01*
X113664473Y-79803428D02*
X113807330Y-79874857D01*
X113807330Y-79874857D02*
X113878759Y-79946285D01*
X113878759Y-79946285D02*
X113950187Y-80089142D01*
X113950187Y-80089142D02*
X113950187Y-80303428D01*
X113950187Y-80303428D02*
X113878759Y-80446285D01*
X113878759Y-80446285D02*
X113807330Y-80517714D01*
X113807330Y-80517714D02*
X113664473Y-80589142D01*
X113664473Y-80589142D02*
X113093044Y-80589142D01*
X115378759Y-79874857D02*
X115235902Y-79803428D01*
X115235902Y-79803428D02*
X115021616Y-79803428D01*
X115021616Y-79803428D02*
X114807330Y-79874857D01*
X114807330Y-79874857D02*
X114664473Y-80017714D01*
X114664473Y-80017714D02*
X114593044Y-80160571D01*
X114593044Y-80160571D02*
X114521616Y-80446285D01*
X114521616Y-80446285D02*
X114521616Y-80660571D01*
X114521616Y-80660571D02*
X114593044Y-80946285D01*
X114593044Y-80946285D02*
X114664473Y-81089142D01*
X114664473Y-81089142D02*
X114807330Y-81232000D01*
X114807330Y-81232000D02*
X115021616Y-81303428D01*
X115021616Y-81303428D02*
X115164473Y-81303428D01*
X115164473Y-81303428D02*
X115378759Y-81232000D01*
X115378759Y-81232000D02*
X115450187Y-81160571D01*
X115450187Y-81160571D02*
X115450187Y-80660571D01*
X115450187Y-80660571D02*
X115164473Y-80660571D01*
D10*
X64750000Y-161428328D02*
X64750000Y-162499757D01*
X64750000Y-162499757D02*
X64678571Y-162714042D01*
X64678571Y-162714042D02*
X64535714Y-162856900D01*
X64535714Y-162856900D02*
X64321428Y-162928328D01*
X64321428Y-162928328D02*
X64178571Y-162928328D01*
X66107143Y-161928328D02*
X66107143Y-162928328D01*
X65750000Y-161356900D02*
X65392857Y-162428328D01*
X65392857Y-162428328D02*
X66321428Y-162428328D01*
D12*
X119454819Y-81275594D02*
X118454819Y-81275594D01*
X118454819Y-81275594D02*
X118454819Y-81037499D01*
X118454819Y-81037499D02*
X118502438Y-80894642D01*
X118502438Y-80894642D02*
X118597676Y-80799404D01*
X118597676Y-80799404D02*
X118692914Y-80751785D01*
X118692914Y-80751785D02*
X118883390Y-80704166D01*
X118883390Y-80704166D02*
X119026247Y-80704166D01*
X119026247Y-80704166D02*
X119216723Y-80751785D01*
X119216723Y-80751785D02*
X119311961Y-80799404D01*
X119311961Y-80799404D02*
X119407200Y-80894642D01*
X119407200Y-80894642D02*
X119454819Y-81037499D01*
X119454819Y-81037499D02*
X119454819Y-81275594D01*
X119454819Y-79751785D02*
X119454819Y-80323213D01*
X119454819Y-80037499D02*
X118454819Y-80037499D01*
X118454819Y-80037499D02*
X118597676Y-80132737D01*
X118597676Y-80132737D02*
X118692914Y-80227975D01*
X118692914Y-80227975D02*
X118740533Y-80323213D01*
X119454819Y-85238094D02*
X118454819Y-85238094D01*
X118454819Y-85238094D02*
X118454819Y-84999999D01*
X118454819Y-84999999D02*
X118502438Y-84857142D01*
X118502438Y-84857142D02*
X118597676Y-84761904D01*
X118597676Y-84761904D02*
X118692914Y-84714285D01*
X118692914Y-84714285D02*
X118883390Y-84666666D01*
X118883390Y-84666666D02*
X119026247Y-84666666D01*
X119026247Y-84666666D02*
X119216723Y-84714285D01*
X119216723Y-84714285D02*
X119311961Y-84761904D01*
X119311961Y-84761904D02*
X119407200Y-84857142D01*
X119407200Y-84857142D02*
X119454819Y-84999999D01*
X119454819Y-84999999D02*
X119454819Y-85238094D01*
X118550057Y-84285713D02*
X118502438Y-84238094D01*
X118502438Y-84238094D02*
X118454819Y-84142856D01*
X118454819Y-84142856D02*
X118454819Y-83904761D01*
X118454819Y-83904761D02*
X118502438Y-83809523D01*
X118502438Y-83809523D02*
X118550057Y-83761904D01*
X118550057Y-83761904D02*
X118645295Y-83714285D01*
X118645295Y-83714285D02*
X118740533Y-83714285D01*
X118740533Y-83714285D02*
X118883390Y-83761904D01*
X118883390Y-83761904D02*
X119454819Y-84333332D01*
X119454819Y-84333332D02*
X119454819Y-83714285D01*
D10*
X46500000Y-97375000D02*
X46500000Y-158375000D01*
X48750000Y-160625000D02*
X54500000Y-160625000D01*
X54500000Y-160625000D02*
X54500000Y-165875000D01*
X54500000Y-165875000D02*
X105500000Y-165875000D01*
D13*
X67170000Y-161045000D02*
X68500000Y-161045000D01*
X67170000Y-162375000D02*
X67170000Y-161045000D01*
X69770000Y-161045000D02*
X92690000Y-161045000D01*
X69770000Y-163705000D02*
X69770000Y-161045000D01*
X69770000Y-163705000D02*
X92690000Y-163705000D01*
D10*
X77500000Y-95125000D02*
X48750000Y-95125000D01*
X77500000Y-95125000D02*
X77500000Y-98375000D01*
X77500000Y-98375000D02*
X82500000Y-98375000D01*
X82500000Y-95125000D02*
X82500000Y-98375000D01*
D13*
X92690000Y-163705000D02*
X92690000Y-161045000D01*
D10*
X105500000Y-160625000D02*
X105500000Y-165875000D01*
X105500000Y-160625000D02*
X111250000Y-160625000D01*
X111250000Y-95125000D02*
X82500000Y-95125000D01*
X113500000Y-158375000D02*
X113500018Y-97365990D01*
X46500000Y-97375000D02*
G75*
G02*
X48750000Y-95125000I2250000J0D01*
G01*
X48750000Y-160625000D02*
G75*
G02*
X46500000Y-158375000I0J2250000D01*
G01*
X111250000Y-95125000D02*
G75*
G02*
X113500018Y-97365990I9000J-2241000D01*
G01*
X113500000Y-158375000D02*
G75*
G02*
X111250000Y-160625000I-2250000J0D01*
G01*
D13*
X116140000Y-78852500D02*
X116140000Y-81537500D01*
X118060000Y-78852500D02*
X116140000Y-78852500D01*
X118060000Y-81537500D02*
X118060000Y-78852500D01*
X116140000Y-83537500D02*
X116140000Y-86222500D01*
X116140000Y-86222500D02*
X118060000Y-86222500D01*
X118060000Y-86222500D02*
X118060000Y-83537500D01*
%LPC*%
D14*
X45000000Y-50000000D03*
D15*
X49300000Y-157900000D03*
D14*
X115000000Y-165000000D03*
D15*
X110700000Y-97900000D03*
X110600000Y-157900000D03*
D14*
X52100000Y-56000000D03*
D16*
X68500000Y-162375000D03*
D17*
X71040000Y-162375000D03*
X73580000Y-162375000D03*
X76120000Y-162375000D03*
X78660000Y-162375000D03*
X81200000Y-162375000D03*
X83740000Y-162375000D03*
X86280000Y-162375000D03*
X88820000Y-162375000D03*
X91360000Y-162375000D03*
D18*
X117100000Y-79600000D03*
X117100000Y-81475000D03*
D14*
X115000000Y-50000000D03*
X107900000Y-88400000D03*
X52100000Y-88400000D03*
X107900000Y-56000000D03*
D19*
X117100000Y-85475000D03*
X117100000Y-83600000D03*
D14*
X45000000Y-165000000D03*
D15*
X49300000Y-97900000D03*
D16*
X59075000Y-64580000D03*
D17*
X59075000Y-67120000D03*
X59075000Y-69660000D03*
X59075000Y-72200000D03*
X59075000Y-74740000D03*
X59075000Y-77280000D03*
X59075000Y-79820000D03*
D20*
X118500000Y-67600000D03*
X118500000Y-74400000D03*
D21*
X88670000Y-47090000D03*
X88670000Y-49630000D03*
X88670000Y-52170000D03*
X88670000Y-54710000D03*
X88670000Y-57250000D03*
X88670000Y-59790000D03*
X88670000Y-62330000D03*
X88670000Y-64870000D03*
X88670000Y-67410000D03*
D22*
X71330000Y-67410000D03*
X71330000Y-64870000D03*
X71330000Y-62330000D03*
X71330000Y-59790000D03*
X71330000Y-57250000D03*
X71330000Y-54710000D03*
X71330000Y-52170000D03*
X71330000Y-49630000D03*
X71330000Y-47090000D03*
%LPD*%
M02*
