M48
; DRILL file {KiCad 8.0.3} date 2024-06-09T12:16:39+0200
; FORMAT={-:-/ absolute / metric / decimal}
; #@! TF.CreationDate,2024-06-09T12:16:39+02:00
; #@! TF.GenerationSoftware,Kicad,Pcbnew,8.0.3
; #@! TF.FileFunction,Plated,1,4,PTH
FMAT,2
METRIC
; #@! TA.AperFunction,Plated,PTH,ComponentDrill
T1C0.200
; #@! TA.AperFunction,Plated,PTH,ViaDrill
T2C0.300
; #@! TA.AperFunction,Plated,PTH,ViaDrill
T3C0.500
; #@! TA.AperFunction,Plated,PTH,ComponentDrill
T4C1.000
%
G90
G05
T1
X80.604Y-96.45
X80.604Y-98.35
X81.954Y-96.45
X81.954Y-98.35
X83.304Y-96.45
X83.304Y-98.35
T2
X71.584Y-86.9
X71.584Y-91.1
X73.984Y-91.6
X75.984Y-82.1
X75.984Y-97.2
X76.584Y-93.75
X76.684Y-95.5
X80.084Y-91.6
X81.284Y-92.3
X81.884Y-80.2
X82.284Y-77.7
X82.584Y-93.2
X83.859Y-80.125
X85.284Y-82.1
X91.371Y-95.013
X91.384Y-99.2
X92.284Y-95.046
X92.284Y-98.873
X93.084Y-113.4
X95.584Y-113.4
X98.084Y-113.4
X100.784Y-113.4
X101.184Y-95.373
X101.184Y-97.4
X101.984Y-95.7
X101.984Y-98.6
X103.384Y-113.4
X105.884Y-113.4
X108.357Y-99.9
X108.357Y-104.9
X108.384Y-113.4
X108.957Y-103.9
X108.957Y-105.9
X109.184Y-98.6
X109.284Y-107.9
X110.884Y-113.4
X112.784Y-103.9
X113.1Y-99.885
X113.1Y-103.0
X113.884Y-101.155
X113.884Y-102.4
X116.084Y-95.0
T3
X100.584Y-111.0
X101.834Y-111.0
X113.334Y-95.8
X114.584Y-95.8
T4
X89.334Y-117.75
X91.874Y-117.75
X94.414Y-117.75
X96.954Y-117.75
X99.494Y-117.75
X99.977Y-72.09
X99.977Y-74.63
X99.977Y-77.17
X99.977Y-79.71
X99.977Y-82.25
X99.977Y-84.79
X99.977Y-87.33
X99.977Y-89.87
X99.977Y-92.41
X102.034Y-117.75
X104.574Y-117.75
X107.114Y-117.75
X109.654Y-117.75
X112.194Y-117.75
X115.217Y-72.09
X115.217Y-74.63
X115.217Y-77.17
X115.217Y-79.71
X115.217Y-82.25
X115.217Y-84.79
X115.217Y-87.33
X115.217Y-89.87
X115.217Y-92.41
X117.334Y-97.21
X117.334Y-99.75
X117.334Y-102.29
X117.334Y-104.83
X117.334Y-107.37
X117.334Y-109.91
X117.334Y-112.45
M30
