G04 #@! TF.GenerationSoftware,KiCad,Pcbnew,8.0.3*
G04 #@! TF.CreationDate,2024-06-08T17:14:38+02:00*
G04 #@! TF.ProjectId,chip8-pcb,63686970-382d-4706-9362-2e6b69636164,1*
G04 #@! TF.SameCoordinates,Original*
G04 #@! TF.FileFunction,Copper,L2,Inr*
G04 #@! TF.FilePolarity,Positive*
%FSLAX46Y46*%
G04 Gerber Fmt 4.6, Leading zero omitted, Abs format (unit mm)*
G04 Created by KiCad (PCBNEW 8.0.3) date 2024-06-08 17:14:38*
%MOMM*%
%LPD*%
G01*
G04 APERTURE LIST*
G04 Aperture macros list*
%AMRoundRect*
0 Rectangle with rounded corners*
0 $1 Rounding radius*
0 $2 $3 $4 $5 $6 $7 $8 $9 X,Y pos of 4 corners*
0 Add a 4 corners polygon primitive as box body*
4,1,4,$2,$3,$4,$5,$6,$7,$8,$9,$2,$3,0*
0 Add four circle primitives for the rounded corners*
1,1,$1+$1,$2,$3*
1,1,$1+$1,$4,$5*
1,1,$1+$1,$6,$7*
1,1,$1+$1,$8,$9*
0 Add four rect primitives between the rounded corners*
20,1,$1+$1,$2,$3,$4,$5,0*
20,1,$1+$1,$4,$5,$6,$7,0*
20,1,$1+$1,$6,$7,$8,$9,0*
20,1,$1+$1,$8,$9,$2,$3,0*%
G04 Aperture macros list end*
G04 #@! TA.AperFunction,ComponentPad*
%ADD10R,1.700000X1.700000*%
G04 #@! TD*
G04 #@! TA.AperFunction,ComponentPad*
%ADD11O,1.700000X1.700000*%
G04 #@! TD*
G04 #@! TA.AperFunction,HeatsinkPad*
%ADD12C,0.500000*%
G04 #@! TD*
G04 #@! TA.AperFunction,ComponentPad*
%ADD13RoundRect,0.600000X1.150000X0.150000X-1.150000X0.150000X-1.150000X-0.150000X1.150000X-0.150000X0*%
G04 #@! TD*
G04 #@! TA.AperFunction,ComponentPad*
%ADD14RoundRect,0.600000X-1.150000X-0.150000X1.150000X-0.150000X1.150000X0.150000X-1.150000X0.150000X0*%
G04 #@! TD*
G04 #@! TA.AperFunction,ViaPad*
%ADD15C,0.600000*%
G04 #@! TD*
G04 #@! TA.AperFunction,ViaPad*
%ADD16C,1.000000*%
G04 #@! TD*
G04 #@! TA.AperFunction,ViaPad*
%ADD17C,0.500000*%
G04 #@! TD*
G04 APERTURE END LIST*
D10*
X68500000Y-162375000D03*
D11*
X71040000Y-162375000D03*
X73580000Y-162375000D03*
X76120000Y-162375000D03*
X78660000Y-162375000D03*
X81200000Y-162375000D03*
X83740000Y-162375000D03*
X86280000Y-162375000D03*
X88820000Y-162375000D03*
X91360000Y-162375000D03*
D12*
X100300000Y-81155000D03*
X100300000Y-79805000D03*
X100300000Y-78455000D03*
X98400000Y-81155000D03*
X98400000Y-79805000D03*
X98400000Y-78455000D03*
D10*
X59075000Y-64580000D03*
D11*
X59075000Y-67120000D03*
X59075000Y-69660000D03*
X59075000Y-72200000D03*
X59075000Y-74740000D03*
X59075000Y-77280000D03*
X59075000Y-79820000D03*
D13*
X88670000Y-47090000D03*
X88670000Y-49630000D03*
X88670000Y-52170000D03*
X88670000Y-54710000D03*
X88670000Y-57250000D03*
X88670000Y-59790000D03*
X88670000Y-62330000D03*
X88670000Y-64870000D03*
X88670000Y-67410000D03*
D14*
X71330000Y-67410000D03*
X71330000Y-64870000D03*
X71330000Y-62330000D03*
X71330000Y-59790000D03*
X71330000Y-57250000D03*
X71330000Y-54710000D03*
X71330000Y-52170000D03*
X71330000Y-49630000D03*
X71330000Y-47090000D03*
D15*
X61600000Y-71600000D03*
X61600000Y-79235000D03*
X61600000Y-72500000D03*
X61600000Y-80505000D03*
X61000000Y-71000000D03*
X77000000Y-77600000D03*
X77000000Y-71554000D03*
X76200000Y-76700000D03*
X76200000Y-71400000D03*
D16*
X74900000Y-81795000D03*
X74900000Y-83095000D03*
X64762500Y-74800000D03*
X63462500Y-74800000D03*
X69162500Y-74800000D03*
X70662500Y-74800000D03*
D15*
X79560000Y-79265000D03*
X62950000Y-78000000D03*
D16*
X102500000Y-72100000D03*
X113000000Y-77500000D03*
X96500000Y-93000000D03*
X113000000Y-75500000D03*
X88700000Y-89600000D03*
X66500000Y-85700000D03*
X91250000Y-85000000D03*
X109000000Y-77500000D03*
X99700000Y-72100000D03*
X99700000Y-70700000D03*
X111000000Y-77500000D03*
X95000000Y-91500000D03*
X92750000Y-83500000D03*
X102500000Y-70700000D03*
X101100000Y-72100000D03*
X111000000Y-75500000D03*
X92750000Y-85000000D03*
X109000000Y-75500000D03*
X94250000Y-85000000D03*
X101100000Y-70700000D03*
X94250000Y-83500000D03*
X66500000Y-87000000D03*
X91250000Y-83500000D03*
X96500000Y-91500000D03*
X69100000Y-92400000D03*
X67900000Y-92400000D03*
D15*
X56300000Y-61300000D03*
X114900000Y-84875000D03*
X114550000Y-81500000D03*
X113900000Y-82100000D03*
X64400000Y-49500000D03*
X64400000Y-52200000D03*
X64400000Y-57200000D03*
X64400000Y-62200000D03*
X64400000Y-54600000D03*
X64400000Y-47000000D03*
X64400000Y-59800000D03*
X64400000Y-64800000D03*
D17*
X63600000Y-88550000D03*
X64400000Y-67400000D03*
D15*
X108300000Y-70900000D03*
X108100000Y-68500000D03*
X100300000Y-86200000D03*
X103102891Y-81089709D03*
X113800000Y-71000000D03*
X104400000Y-70400000D03*
G04 #@! TA.AperFunction,Conductor*
G36*
X115002702Y-45500617D02*
G01*
X115386771Y-45517386D01*
X115397506Y-45518326D01*
X115775971Y-45568152D01*
X115786597Y-45570025D01*
X116159284Y-45652648D01*
X116169710Y-45655442D01*
X116533765Y-45770227D01*
X116543911Y-45773920D01*
X116896578Y-45920000D01*
X116906369Y-45924566D01*
X117219406Y-46087523D01*
X117244942Y-46100816D01*
X117254309Y-46106223D01*
X117517997Y-46274211D01*
X117576244Y-46311318D01*
X117585105Y-46317523D01*
X117887930Y-46549889D01*
X117896217Y-46556843D01*
X118177635Y-46814715D01*
X118185284Y-46822364D01*
X118443156Y-47103782D01*
X118450110Y-47112069D01*
X118682476Y-47414894D01*
X118688681Y-47423755D01*
X118893775Y-47745689D01*
X118899183Y-47755057D01*
X119075430Y-48093623D01*
X119080002Y-48103427D01*
X119226075Y-48456078D01*
X119229775Y-48466244D01*
X119344554Y-48830278D01*
X119347354Y-48840727D01*
X119429971Y-49213389D01*
X119431849Y-49224042D01*
X119481671Y-49602473D01*
X119482614Y-49613249D01*
X119499382Y-49997297D01*
X119499500Y-50002706D01*
X119499500Y-164997293D01*
X119499382Y-165002702D01*
X119482614Y-165386750D01*
X119481671Y-165397526D01*
X119431849Y-165775957D01*
X119429971Y-165786610D01*
X119347354Y-166159272D01*
X119344554Y-166169721D01*
X119229775Y-166533755D01*
X119226075Y-166543921D01*
X119080002Y-166896572D01*
X119075430Y-166906376D01*
X118899183Y-167244942D01*
X118893775Y-167254310D01*
X118688681Y-167576244D01*
X118682476Y-167585105D01*
X118450110Y-167887930D01*
X118443156Y-167896217D01*
X118185284Y-168177635D01*
X118177635Y-168185284D01*
X117896217Y-168443156D01*
X117887930Y-168450110D01*
X117585105Y-168682476D01*
X117576244Y-168688681D01*
X117254310Y-168893775D01*
X117244942Y-168899183D01*
X116906376Y-169075430D01*
X116896572Y-169080002D01*
X116543921Y-169226075D01*
X116533755Y-169229775D01*
X116169721Y-169344554D01*
X116159272Y-169347354D01*
X115786610Y-169429971D01*
X115775957Y-169431849D01*
X115397526Y-169481671D01*
X115386750Y-169482614D01*
X115002703Y-169499382D01*
X114997294Y-169499500D01*
X45002706Y-169499500D01*
X44997297Y-169499382D01*
X44613249Y-169482614D01*
X44602473Y-169481671D01*
X44224042Y-169431849D01*
X44213389Y-169429971D01*
X43840727Y-169347354D01*
X43830278Y-169344554D01*
X43466244Y-169229775D01*
X43456078Y-169226075D01*
X43103427Y-169080002D01*
X43093623Y-169075430D01*
X42755057Y-168899183D01*
X42745689Y-168893775D01*
X42423755Y-168688681D01*
X42414894Y-168682476D01*
X42112069Y-168450110D01*
X42103782Y-168443156D01*
X41822364Y-168185284D01*
X41814715Y-168177635D01*
X41556843Y-167896217D01*
X41549889Y-167887930D01*
X41317523Y-167585105D01*
X41311318Y-167576244D01*
X41106224Y-167254310D01*
X41100816Y-167244942D01*
X40924569Y-166906376D01*
X40919997Y-166896572D01*
X40781036Y-166561090D01*
X40773920Y-166543911D01*
X40770224Y-166533755D01*
X40655442Y-166169710D01*
X40652648Y-166159284D01*
X40570025Y-165786597D01*
X40568152Y-165775971D01*
X40518326Y-165397506D01*
X40517386Y-165386771D01*
X40500618Y-165002702D01*
X40500500Y-164997293D01*
X40500500Y-164874038D01*
X43399500Y-164874038D01*
X43399500Y-165125962D01*
X43438910Y-165374785D01*
X43516760Y-165614383D01*
X43631132Y-165838848D01*
X43779201Y-166042649D01*
X43779205Y-166042654D01*
X43957345Y-166220794D01*
X43957350Y-166220798D01*
X44135117Y-166349952D01*
X44161155Y-166368870D01*
X44304184Y-166441747D01*
X44385616Y-166483239D01*
X44385618Y-166483239D01*
X44385621Y-166483241D01*
X44625215Y-166561090D01*
X44874038Y-166600500D01*
X44874039Y-166600500D01*
X45125961Y-166600500D01*
X45125962Y-166600500D01*
X45374785Y-166561090D01*
X45614379Y-166483241D01*
X45838845Y-166368870D01*
X46042656Y-166220793D01*
X46220793Y-166042656D01*
X46368870Y-165838845D01*
X46483241Y-165614379D01*
X46561090Y-165374785D01*
X46600500Y-165125962D01*
X46600500Y-164874038D01*
X113399500Y-164874038D01*
X113399500Y-165125962D01*
X113438910Y-165374785D01*
X113516760Y-165614383D01*
X113631132Y-165838848D01*
X113779201Y-166042649D01*
X113779205Y-166042654D01*
X113957345Y-166220794D01*
X113957350Y-166220798D01*
X114135117Y-166349952D01*
X114161155Y-166368870D01*
X114304184Y-166441747D01*
X114385616Y-166483239D01*
X114385618Y-166483239D01*
X114385621Y-166483241D01*
X114625215Y-166561090D01*
X114874038Y-166600500D01*
X114874039Y-166600500D01*
X115125961Y-166600500D01*
X115125962Y-166600500D01*
X115374785Y-166561090D01*
X115614379Y-166483241D01*
X115838845Y-166368870D01*
X116042656Y-166220793D01*
X116220793Y-166042656D01*
X116368870Y-165838845D01*
X116483241Y-165614379D01*
X116561090Y-165374785D01*
X116600500Y-165125962D01*
X116600500Y-164874038D01*
X116561090Y-164625215D01*
X116483241Y-164385621D01*
X116483239Y-164385618D01*
X116483239Y-164385616D01*
X116441747Y-164304184D01*
X116368870Y-164161155D01*
X116349952Y-164135117D01*
X116220798Y-163957350D01*
X116220794Y-163957345D01*
X116042654Y-163779205D01*
X116042649Y-163779201D01*
X115838848Y-163631132D01*
X115838847Y-163631131D01*
X115838845Y-163631130D01*
X115768747Y-163595413D01*
X115614383Y-163516760D01*
X115374785Y-163438910D01*
X115214322Y-163413495D01*
X115125962Y-163399500D01*
X114874038Y-163399500D01*
X114785678Y-163413495D01*
X114625214Y-163438910D01*
X114385616Y-163516760D01*
X114161151Y-163631132D01*
X113957350Y-163779201D01*
X113957345Y-163779205D01*
X113779205Y-163957345D01*
X113779201Y-163957350D01*
X113631132Y-164161151D01*
X113516760Y-164385616D01*
X113438910Y-164625214D01*
X113438910Y-164625215D01*
X113399500Y-164874038D01*
X46600500Y-164874038D01*
X46561090Y-164625215D01*
X46483241Y-164385621D01*
X46483239Y-164385618D01*
X46483239Y-164385616D01*
X46441747Y-164304184D01*
X46368870Y-164161155D01*
X46349952Y-164135117D01*
X46220798Y-163957350D01*
X46220794Y-163957345D01*
X46042654Y-163779205D01*
X46042649Y-163779201D01*
X45838848Y-163631132D01*
X45838847Y-163631131D01*
X45838845Y-163631130D01*
X45768747Y-163595413D01*
X45614383Y-163516760D01*
X45374785Y-163438910D01*
X45214322Y-163413495D01*
X45125962Y-163399500D01*
X44874038Y-163399500D01*
X44785678Y-163413495D01*
X44625214Y-163438910D01*
X44385616Y-163516760D01*
X44161151Y-163631132D01*
X43957350Y-163779201D01*
X43957345Y-163779205D01*
X43779205Y-163957345D01*
X43779201Y-163957350D01*
X43631132Y-164161151D01*
X43516760Y-164385616D01*
X43438910Y-164625214D01*
X43438910Y-164625215D01*
X43399500Y-164874038D01*
X40500500Y-164874038D01*
X40500500Y-161477135D01*
X67149500Y-161477135D01*
X67149500Y-163272870D01*
X67149501Y-163272876D01*
X67155908Y-163332483D01*
X67206202Y-163467328D01*
X67206206Y-163467335D01*
X67292452Y-163582544D01*
X67292455Y-163582547D01*
X67407664Y-163668793D01*
X67407671Y-163668797D01*
X67542517Y-163719091D01*
X67542516Y-163719091D01*
X67549444Y-163719835D01*
X67602127Y-163725500D01*
X69397872Y-163725499D01*
X69457483Y-163719091D01*
X69592331Y-163668796D01*
X69707546Y-163582546D01*
X69793796Y-163467331D01*
X69842810Y-163335916D01*
X69884681Y-163279984D01*
X69950145Y-163255566D01*
X70018418Y-163270417D01*
X70046673Y-163291569D01*
X70168599Y-163413495D01*
X70265384Y-163481265D01*
X70362165Y-163549032D01*
X70362167Y-163549033D01*
X70362170Y-163549035D01*
X70576337Y-163648903D01*
X70804592Y-163710063D01*
X70981034Y-163725500D01*
X71039999Y-163730659D01*
X71040000Y-163730659D01*
X71040001Y-163730659D01*
X71098966Y-163725500D01*
X71275408Y-163710063D01*
X71503663Y-163648903D01*
X71717830Y-163549035D01*
X71911401Y-163413495D01*
X72078495Y-163246401D01*
X72208425Y-163060842D01*
X72263002Y-163017217D01*
X72332500Y-163010023D01*
X72394855Y-163041546D01*
X72411575Y-163060842D01*
X72541500Y-163246395D01*
X72541505Y-163246401D01*
X72708599Y-163413495D01*
X72805384Y-163481265D01*
X72902165Y-163549032D01*
X72902167Y-163549033D01*
X72902170Y-163549035D01*
X73116337Y-163648903D01*
X73344592Y-163710063D01*
X73521034Y-163725500D01*
X73579999Y-163730659D01*
X73580000Y-163730659D01*
X73580001Y-163730659D01*
X73638966Y-163725500D01*
X73815408Y-163710063D01*
X74043663Y-163648903D01*
X74257830Y-163549035D01*
X74451401Y-163413495D01*
X74618495Y-163246401D01*
X74748425Y-163060842D01*
X74803002Y-163017217D01*
X74872500Y-163010023D01*
X74934855Y-163041546D01*
X74951575Y-163060842D01*
X75081500Y-163246395D01*
X75081505Y-163246401D01*
X75248599Y-163413495D01*
X75345384Y-163481265D01*
X75442165Y-163549032D01*
X75442167Y-163549033D01*
X75442170Y-163549035D01*
X75656337Y-163648903D01*
X75884592Y-163710063D01*
X76061034Y-163725500D01*
X76119999Y-163730659D01*
X76120000Y-163730659D01*
X76120001Y-163730659D01*
X76178966Y-163725500D01*
X76355408Y-163710063D01*
X76583663Y-163648903D01*
X76797830Y-163549035D01*
X76991401Y-163413495D01*
X77158495Y-163246401D01*
X77288425Y-163060842D01*
X77343002Y-163017217D01*
X77412500Y-163010023D01*
X77474855Y-163041546D01*
X77491575Y-163060842D01*
X77621500Y-163246395D01*
X77621505Y-163246401D01*
X77788599Y-163413495D01*
X77885384Y-163481265D01*
X77982165Y-163549032D01*
X77982167Y-163549033D01*
X77982170Y-163549035D01*
X78196337Y-163648903D01*
X78424592Y-163710063D01*
X78601034Y-163725500D01*
X78659999Y-163730659D01*
X78660000Y-163730659D01*
X78660001Y-163730659D01*
X78718966Y-163725500D01*
X78895408Y-163710063D01*
X79123663Y-163648903D01*
X79337830Y-163549035D01*
X79531401Y-163413495D01*
X79698495Y-163246401D01*
X79828425Y-163060842D01*
X79883002Y-163017217D01*
X79952500Y-163010023D01*
X80014855Y-163041546D01*
X80031575Y-163060842D01*
X80161500Y-163246395D01*
X80161505Y-163246401D01*
X80328599Y-163413495D01*
X80425384Y-163481265D01*
X80522165Y-163549032D01*
X80522167Y-163549033D01*
X80522170Y-163549035D01*
X80736337Y-163648903D01*
X80964592Y-163710063D01*
X81141034Y-163725500D01*
X81199999Y-163730659D01*
X81200000Y-163730659D01*
X81200001Y-163730659D01*
X81258966Y-163725500D01*
X81435408Y-163710063D01*
X81663663Y-163648903D01*
X81877830Y-163549035D01*
X82071401Y-163413495D01*
X82238495Y-163246401D01*
X82368425Y-163060842D01*
X82423002Y-163017217D01*
X82492500Y-163010023D01*
X82554855Y-163041546D01*
X82571575Y-163060842D01*
X82701500Y-163246395D01*
X82701505Y-163246401D01*
X82868599Y-163413495D01*
X82965384Y-163481265D01*
X83062165Y-163549032D01*
X83062167Y-163549033D01*
X83062170Y-163549035D01*
X83276337Y-163648903D01*
X83504592Y-163710063D01*
X83681034Y-163725500D01*
X83739999Y-163730659D01*
X83740000Y-163730659D01*
X83740001Y-163730659D01*
X83798966Y-163725500D01*
X83975408Y-163710063D01*
X84203663Y-163648903D01*
X84417830Y-163549035D01*
X84611401Y-163413495D01*
X84778495Y-163246401D01*
X84908425Y-163060842D01*
X84963002Y-163017217D01*
X85032500Y-163010023D01*
X85094855Y-163041546D01*
X85111575Y-163060842D01*
X85241500Y-163246395D01*
X85241505Y-163246401D01*
X85408599Y-163413495D01*
X85505384Y-163481265D01*
X85602165Y-163549032D01*
X85602167Y-163549033D01*
X85602170Y-163549035D01*
X85816337Y-163648903D01*
X86044592Y-163710063D01*
X86221034Y-163725500D01*
X86279999Y-163730659D01*
X86280000Y-163730659D01*
X86280001Y-163730659D01*
X86338966Y-163725500D01*
X86515408Y-163710063D01*
X86743663Y-163648903D01*
X86957830Y-163549035D01*
X87151401Y-163413495D01*
X87318495Y-163246401D01*
X87448425Y-163060842D01*
X87503002Y-163017217D01*
X87572500Y-163010023D01*
X87634855Y-163041546D01*
X87651575Y-163060842D01*
X87781500Y-163246395D01*
X87781505Y-163246401D01*
X87948599Y-163413495D01*
X88045384Y-163481265D01*
X88142165Y-163549032D01*
X88142167Y-163549033D01*
X88142170Y-163549035D01*
X88356337Y-163648903D01*
X88584592Y-163710063D01*
X88761034Y-163725500D01*
X88819999Y-163730659D01*
X88820000Y-163730659D01*
X88820001Y-163730659D01*
X88878966Y-163725500D01*
X89055408Y-163710063D01*
X89283663Y-163648903D01*
X89497830Y-163549035D01*
X89691401Y-163413495D01*
X89858495Y-163246401D01*
X89988425Y-163060842D01*
X90043002Y-163017217D01*
X90112500Y-163010023D01*
X90174855Y-163041546D01*
X90191575Y-163060842D01*
X90321500Y-163246395D01*
X90321505Y-163246401D01*
X90488599Y-163413495D01*
X90585384Y-163481265D01*
X90682165Y-163549032D01*
X90682167Y-163549033D01*
X90682170Y-163549035D01*
X90896337Y-163648903D01*
X91124592Y-163710063D01*
X91301034Y-163725500D01*
X91359999Y-163730659D01*
X91360000Y-163730659D01*
X91360001Y-163730659D01*
X91418966Y-163725500D01*
X91595408Y-163710063D01*
X91823663Y-163648903D01*
X92037830Y-163549035D01*
X92231401Y-163413495D01*
X92398495Y-163246401D01*
X92534035Y-163052830D01*
X92633903Y-162838663D01*
X92695063Y-162610408D01*
X92715659Y-162375000D01*
X92695063Y-162139592D01*
X92633903Y-161911337D01*
X92534035Y-161697171D01*
X92528425Y-161689158D01*
X92398494Y-161503597D01*
X92231402Y-161336506D01*
X92231395Y-161336501D01*
X92037834Y-161200967D01*
X92037830Y-161200965D01*
X92037828Y-161200964D01*
X91823663Y-161101097D01*
X91823659Y-161101096D01*
X91823655Y-161101094D01*
X91595413Y-161039938D01*
X91595403Y-161039936D01*
X91360001Y-161019341D01*
X91359999Y-161019341D01*
X91124596Y-161039936D01*
X91124586Y-161039938D01*
X90896344Y-161101094D01*
X90896335Y-161101098D01*
X90682171Y-161200964D01*
X90682169Y-161200965D01*
X90488597Y-161336505D01*
X90321505Y-161503597D01*
X90191575Y-161689158D01*
X90136998Y-161732783D01*
X90067500Y-161739977D01*
X90005145Y-161708454D01*
X89988425Y-161689158D01*
X89858494Y-161503597D01*
X89691402Y-161336506D01*
X89691395Y-161336501D01*
X89497834Y-161200967D01*
X89497830Y-161200965D01*
X89497828Y-161200964D01*
X89283663Y-161101097D01*
X89283659Y-161101096D01*
X89283655Y-161101094D01*
X89055413Y-161039938D01*
X89055403Y-161039936D01*
X88820001Y-161019341D01*
X88819999Y-161019341D01*
X88584596Y-161039936D01*
X88584586Y-161039938D01*
X88356344Y-161101094D01*
X88356335Y-161101098D01*
X88142171Y-161200964D01*
X88142169Y-161200965D01*
X87948597Y-161336505D01*
X87781505Y-161503597D01*
X87651575Y-161689158D01*
X87596998Y-161732783D01*
X87527500Y-161739977D01*
X87465145Y-161708454D01*
X87448425Y-161689158D01*
X87318494Y-161503597D01*
X87151402Y-161336506D01*
X87151395Y-161336501D01*
X86957834Y-161200967D01*
X86957830Y-161200965D01*
X86957828Y-161200964D01*
X86743663Y-161101097D01*
X86743659Y-161101096D01*
X86743655Y-161101094D01*
X86515413Y-161039938D01*
X86515403Y-161039936D01*
X86280001Y-161019341D01*
X86279999Y-161019341D01*
X86044596Y-161039936D01*
X86044586Y-161039938D01*
X85816344Y-161101094D01*
X85816335Y-161101098D01*
X85602171Y-161200964D01*
X85602169Y-161200965D01*
X85408597Y-161336505D01*
X85241505Y-161503597D01*
X85111575Y-161689158D01*
X85056998Y-161732783D01*
X84987500Y-161739977D01*
X84925145Y-161708454D01*
X84908425Y-161689158D01*
X84778494Y-161503597D01*
X84611402Y-161336506D01*
X84611395Y-161336501D01*
X84417834Y-161200967D01*
X84417830Y-161200965D01*
X84417828Y-161200964D01*
X84203663Y-161101097D01*
X84203659Y-161101096D01*
X84203655Y-161101094D01*
X83975413Y-161039938D01*
X83975403Y-161039936D01*
X83740001Y-161019341D01*
X83739999Y-161019341D01*
X83504596Y-161039936D01*
X83504586Y-161039938D01*
X83276344Y-161101094D01*
X83276335Y-161101098D01*
X83062171Y-161200964D01*
X83062169Y-161200965D01*
X82868597Y-161336505D01*
X82701505Y-161503597D01*
X82571575Y-161689158D01*
X82516998Y-161732783D01*
X82447500Y-161739977D01*
X82385145Y-161708454D01*
X82368425Y-161689158D01*
X82238494Y-161503597D01*
X82071402Y-161336506D01*
X82071395Y-161336501D01*
X81877834Y-161200967D01*
X81877830Y-161200965D01*
X81877828Y-161200964D01*
X81663663Y-161101097D01*
X81663659Y-161101096D01*
X81663655Y-161101094D01*
X81435413Y-161039938D01*
X81435403Y-161039936D01*
X81200001Y-161019341D01*
X81199999Y-161019341D01*
X80964596Y-161039936D01*
X80964586Y-161039938D01*
X80736344Y-161101094D01*
X80736335Y-161101098D01*
X80522171Y-161200964D01*
X80522169Y-161200965D01*
X80328597Y-161336505D01*
X80161505Y-161503597D01*
X80031575Y-161689158D01*
X79976998Y-161732783D01*
X79907500Y-161739977D01*
X79845145Y-161708454D01*
X79828425Y-161689158D01*
X79698494Y-161503597D01*
X79531402Y-161336506D01*
X79531395Y-161336501D01*
X79337834Y-161200967D01*
X79337830Y-161200965D01*
X79337828Y-161200964D01*
X79123663Y-161101097D01*
X79123659Y-161101096D01*
X79123655Y-161101094D01*
X78895413Y-161039938D01*
X78895403Y-161039936D01*
X78660001Y-161019341D01*
X78659999Y-161019341D01*
X78424596Y-161039936D01*
X78424586Y-161039938D01*
X78196344Y-161101094D01*
X78196335Y-161101098D01*
X77982171Y-161200964D01*
X77982169Y-161200965D01*
X77788597Y-161336505D01*
X77621505Y-161503597D01*
X77491575Y-161689158D01*
X77436998Y-161732783D01*
X77367500Y-161739977D01*
X77305145Y-161708454D01*
X77288425Y-161689158D01*
X77158494Y-161503597D01*
X76991402Y-161336506D01*
X76991395Y-161336501D01*
X76797834Y-161200967D01*
X76797830Y-161200965D01*
X76797828Y-161200964D01*
X76583663Y-161101097D01*
X76583659Y-161101096D01*
X76583655Y-161101094D01*
X76355413Y-161039938D01*
X76355403Y-161039936D01*
X76120001Y-161019341D01*
X76119999Y-161019341D01*
X75884596Y-161039936D01*
X75884586Y-161039938D01*
X75656344Y-161101094D01*
X75656335Y-161101098D01*
X75442171Y-161200964D01*
X75442169Y-161200965D01*
X75248597Y-161336505D01*
X75081505Y-161503597D01*
X74951575Y-161689158D01*
X74896998Y-161732783D01*
X74827500Y-161739977D01*
X74765145Y-161708454D01*
X74748425Y-161689158D01*
X74618494Y-161503597D01*
X74451402Y-161336506D01*
X74451395Y-161336501D01*
X74257834Y-161200967D01*
X74257830Y-161200965D01*
X74257828Y-161200964D01*
X74043663Y-161101097D01*
X74043659Y-161101096D01*
X74043655Y-161101094D01*
X73815413Y-161039938D01*
X73815403Y-161039936D01*
X73580001Y-161019341D01*
X73579999Y-161019341D01*
X73344596Y-161039936D01*
X73344586Y-161039938D01*
X73116344Y-161101094D01*
X73116335Y-161101098D01*
X72902171Y-161200964D01*
X72902169Y-161200965D01*
X72708597Y-161336505D01*
X72541505Y-161503597D01*
X72411575Y-161689158D01*
X72356998Y-161732783D01*
X72287500Y-161739977D01*
X72225145Y-161708454D01*
X72208425Y-161689158D01*
X72078494Y-161503597D01*
X71911402Y-161336506D01*
X71911395Y-161336501D01*
X71717834Y-161200967D01*
X71717830Y-161200965D01*
X71717828Y-161200964D01*
X71503663Y-161101097D01*
X71503659Y-161101096D01*
X71503655Y-161101094D01*
X71275413Y-161039938D01*
X71275403Y-161039936D01*
X71040001Y-161019341D01*
X71039999Y-161019341D01*
X70804596Y-161039936D01*
X70804586Y-161039938D01*
X70576344Y-161101094D01*
X70576335Y-161101098D01*
X70362171Y-161200964D01*
X70362169Y-161200965D01*
X70168600Y-161336503D01*
X70046673Y-161458430D01*
X69985350Y-161491914D01*
X69915658Y-161486930D01*
X69859725Y-161445058D01*
X69842810Y-161414081D01*
X69793797Y-161282671D01*
X69793793Y-161282664D01*
X69707547Y-161167455D01*
X69707544Y-161167452D01*
X69592335Y-161081206D01*
X69592328Y-161081202D01*
X69457482Y-161030908D01*
X69457483Y-161030908D01*
X69397883Y-161024501D01*
X69397881Y-161024500D01*
X69397873Y-161024500D01*
X69397864Y-161024500D01*
X67602129Y-161024500D01*
X67602123Y-161024501D01*
X67542516Y-161030908D01*
X67407671Y-161081202D01*
X67407664Y-161081206D01*
X67292455Y-161167452D01*
X67292452Y-161167455D01*
X67206206Y-161282664D01*
X67206202Y-161282671D01*
X67155908Y-161417517D01*
X67149501Y-161477116D01*
X67149500Y-161477135D01*
X40500500Y-161477135D01*
X40500500Y-157793713D01*
X47949500Y-157793713D01*
X47949500Y-158006286D01*
X47982753Y-158216239D01*
X48048444Y-158418414D01*
X48144951Y-158607820D01*
X48269890Y-158779786D01*
X48420213Y-158930109D01*
X48592179Y-159055048D01*
X48592181Y-159055049D01*
X48592184Y-159055051D01*
X48781588Y-159151557D01*
X48983757Y-159217246D01*
X49193713Y-159250500D01*
X49193714Y-159250500D01*
X49406286Y-159250500D01*
X49406287Y-159250500D01*
X49616243Y-159217246D01*
X49818412Y-159151557D01*
X50007816Y-159055051D01*
X50029789Y-159039086D01*
X50179786Y-158930109D01*
X50179788Y-158930106D01*
X50179792Y-158930104D01*
X50330104Y-158779792D01*
X50330106Y-158779788D01*
X50330109Y-158779786D01*
X50455048Y-158607820D01*
X50455047Y-158607820D01*
X50455051Y-158607816D01*
X50551557Y-158418412D01*
X50617246Y-158216243D01*
X50650500Y-158006287D01*
X50650500Y-157793713D01*
X109249500Y-157793713D01*
X109249500Y-158006286D01*
X109282753Y-158216239D01*
X109348444Y-158418414D01*
X109444951Y-158607820D01*
X109569890Y-158779786D01*
X109720213Y-158930109D01*
X109892179Y-159055048D01*
X109892181Y-159055049D01*
X109892184Y-159055051D01*
X110081588Y-159151557D01*
X110283757Y-159217246D01*
X110493713Y-159250500D01*
X110493714Y-159250500D01*
X110706286Y-159250500D01*
X110706287Y-159250500D01*
X110916243Y-159217246D01*
X111118412Y-159151557D01*
X111307816Y-159055051D01*
X111329789Y-159039086D01*
X111479786Y-158930109D01*
X111479788Y-158930106D01*
X111479792Y-158930104D01*
X111630104Y-158779792D01*
X111630106Y-158779788D01*
X111630109Y-158779786D01*
X111755048Y-158607820D01*
X111755047Y-158607820D01*
X111755051Y-158607816D01*
X111851557Y-158418412D01*
X111917246Y-158216243D01*
X111950500Y-158006287D01*
X111950500Y-157793713D01*
X111917246Y-157583757D01*
X111851557Y-157381588D01*
X111755051Y-157192184D01*
X111755049Y-157192181D01*
X111755048Y-157192179D01*
X111630109Y-157020213D01*
X111479786Y-156869890D01*
X111307820Y-156744951D01*
X111118414Y-156648444D01*
X111118413Y-156648443D01*
X111118412Y-156648443D01*
X110916243Y-156582754D01*
X110916241Y-156582753D01*
X110916240Y-156582753D01*
X110754957Y-156557208D01*
X110706287Y-156549500D01*
X110493713Y-156549500D01*
X110445042Y-156557208D01*
X110283760Y-156582753D01*
X110081585Y-156648444D01*
X109892179Y-156744951D01*
X109720213Y-156869890D01*
X109569890Y-157020213D01*
X109444951Y-157192179D01*
X109348444Y-157381585D01*
X109282753Y-157583760D01*
X109249500Y-157793713D01*
X50650500Y-157793713D01*
X50617246Y-157583757D01*
X50551557Y-157381588D01*
X50455051Y-157192184D01*
X50455049Y-157192181D01*
X50455048Y-157192179D01*
X50330109Y-157020213D01*
X50179786Y-156869890D01*
X50007820Y-156744951D01*
X49818414Y-156648444D01*
X49818413Y-156648443D01*
X49818412Y-156648443D01*
X49616243Y-156582754D01*
X49616241Y-156582753D01*
X49616240Y-156582753D01*
X49454957Y-156557208D01*
X49406287Y-156549500D01*
X49193713Y-156549500D01*
X49145042Y-156557208D01*
X48983760Y-156582753D01*
X48781585Y-156648444D01*
X48592179Y-156744951D01*
X48420213Y-156869890D01*
X48269890Y-157020213D01*
X48144951Y-157192179D01*
X48048444Y-157381585D01*
X47982753Y-157583760D01*
X47949500Y-157793713D01*
X40500500Y-157793713D01*
X40500500Y-97793713D01*
X47949500Y-97793713D01*
X47949500Y-98006286D01*
X47982753Y-98216239D01*
X48048444Y-98418414D01*
X48144951Y-98607820D01*
X48269890Y-98779786D01*
X48420213Y-98930109D01*
X48592179Y-99055048D01*
X48592181Y-99055049D01*
X48592184Y-99055051D01*
X48781588Y-99151557D01*
X48983757Y-99217246D01*
X49193713Y-99250500D01*
X49193714Y-99250500D01*
X49406286Y-99250500D01*
X49406287Y-99250500D01*
X49616243Y-99217246D01*
X49818412Y-99151557D01*
X50007816Y-99055051D01*
X50029789Y-99039086D01*
X50179786Y-98930109D01*
X50179788Y-98930106D01*
X50179792Y-98930104D01*
X50330104Y-98779792D01*
X50330106Y-98779788D01*
X50330109Y-98779786D01*
X50455048Y-98607820D01*
X50455047Y-98607820D01*
X50455051Y-98607816D01*
X50551557Y-98418412D01*
X50617246Y-98216243D01*
X50650500Y-98006287D01*
X50650500Y-97793713D01*
X109349500Y-97793713D01*
X109349500Y-98006286D01*
X109382753Y-98216239D01*
X109448444Y-98418414D01*
X109544951Y-98607820D01*
X109669890Y-98779786D01*
X109820213Y-98930109D01*
X109992179Y-99055048D01*
X109992181Y-99055049D01*
X109992184Y-99055051D01*
X110181588Y-99151557D01*
X110383757Y-99217246D01*
X110593713Y-99250500D01*
X110593714Y-99250500D01*
X110806286Y-99250500D01*
X110806287Y-99250500D01*
X111016243Y-99217246D01*
X111218412Y-99151557D01*
X111407816Y-99055051D01*
X111429789Y-99039086D01*
X111579786Y-98930109D01*
X111579788Y-98930106D01*
X111579792Y-98930104D01*
X111730104Y-98779792D01*
X111730106Y-98779788D01*
X111730109Y-98779786D01*
X111855048Y-98607820D01*
X111855047Y-98607820D01*
X111855051Y-98607816D01*
X111951557Y-98418412D01*
X112017246Y-98216243D01*
X112050500Y-98006287D01*
X112050500Y-97793713D01*
X112017246Y-97583757D01*
X111951557Y-97381588D01*
X111855051Y-97192184D01*
X111855049Y-97192181D01*
X111855048Y-97192179D01*
X111730109Y-97020213D01*
X111579786Y-96869890D01*
X111407820Y-96744951D01*
X111218414Y-96648444D01*
X111218413Y-96648443D01*
X111218412Y-96648443D01*
X111016243Y-96582754D01*
X111016241Y-96582753D01*
X111016240Y-96582753D01*
X110854957Y-96557208D01*
X110806287Y-96549500D01*
X110593713Y-96549500D01*
X110545042Y-96557208D01*
X110383760Y-96582753D01*
X110181585Y-96648444D01*
X109992179Y-96744951D01*
X109820213Y-96869890D01*
X109669890Y-97020213D01*
X109544951Y-97192179D01*
X109448444Y-97381585D01*
X109382753Y-97583760D01*
X109349500Y-97793713D01*
X50650500Y-97793713D01*
X50617246Y-97583757D01*
X50551557Y-97381588D01*
X50455051Y-97192184D01*
X50455049Y-97192181D01*
X50455048Y-97192179D01*
X50330109Y-97020213D01*
X50179786Y-96869890D01*
X50007820Y-96744951D01*
X49818414Y-96648444D01*
X49818413Y-96648443D01*
X49818412Y-96648443D01*
X49616243Y-96582754D01*
X49616241Y-96582753D01*
X49616240Y-96582753D01*
X49454957Y-96557208D01*
X49406287Y-96549500D01*
X49193713Y-96549500D01*
X49145042Y-96557208D01*
X48983760Y-96582753D01*
X48781585Y-96648444D01*
X48592179Y-96744951D01*
X48420213Y-96869890D01*
X48269890Y-97020213D01*
X48144951Y-97192179D01*
X48048444Y-97381585D01*
X47982753Y-97583760D01*
X47949500Y-97793713D01*
X40500500Y-97793713D01*
X40500500Y-92400000D01*
X66894659Y-92400000D01*
X66913975Y-92596129D01*
X66971188Y-92784733D01*
X67064086Y-92958532D01*
X67064090Y-92958539D01*
X67189116Y-93110883D01*
X67341460Y-93235909D01*
X67341467Y-93235913D01*
X67515266Y-93328811D01*
X67515269Y-93328811D01*
X67515273Y-93328814D01*
X67703868Y-93386024D01*
X67900000Y-93405341D01*
X68096132Y-93386024D01*
X68284727Y-93328814D01*
X68441550Y-93244990D01*
X68509949Y-93230749D01*
X68558448Y-93244989D01*
X68715273Y-93328814D01*
X68903868Y-93386024D01*
X69100000Y-93405341D01*
X69296132Y-93386024D01*
X69484727Y-93328814D01*
X69658538Y-93235910D01*
X69810883Y-93110883D01*
X69935910Y-92958538D01*
X70028814Y-92784727D01*
X70086024Y-92596132D01*
X70105341Y-92400000D01*
X70086024Y-92203868D01*
X70028814Y-92015273D01*
X70028811Y-92015269D01*
X70028811Y-92015266D01*
X69935913Y-91841467D01*
X69935909Y-91841460D01*
X69810883Y-91689116D01*
X69658539Y-91564090D01*
X69658532Y-91564086D01*
X69484733Y-91471188D01*
X69484727Y-91471186D01*
X69296132Y-91413976D01*
X69296129Y-91413975D01*
X69100000Y-91394659D01*
X68903870Y-91413975D01*
X68715266Y-91471188D01*
X68558453Y-91555007D01*
X68490050Y-91569249D01*
X68441547Y-91555007D01*
X68284733Y-91471188D01*
X68284727Y-91471186D01*
X68096132Y-91413976D01*
X68096129Y-91413975D01*
X67900000Y-91394659D01*
X67703870Y-91413975D01*
X67515266Y-91471188D01*
X67341467Y-91564086D01*
X67341460Y-91564090D01*
X67189116Y-91689116D01*
X67064090Y-91841460D01*
X67064086Y-91841467D01*
X66971188Y-92015266D01*
X66913975Y-92203870D01*
X66894659Y-92400000D01*
X40500500Y-92400000D01*
X40500500Y-88274038D01*
X50499500Y-88274038D01*
X50499500Y-88525961D01*
X50538910Y-88774785D01*
X50616760Y-89014383D01*
X50731132Y-89238848D01*
X50879201Y-89442649D01*
X50879205Y-89442654D01*
X51057345Y-89620794D01*
X51057350Y-89620798D01*
X51235117Y-89749952D01*
X51261155Y-89768870D01*
X51404184Y-89841747D01*
X51485616Y-89883239D01*
X51485618Y-89883239D01*
X51485621Y-89883241D01*
X51725215Y-89961090D01*
X51974038Y-90000500D01*
X51974039Y-90000500D01*
X52225961Y-90000500D01*
X52225962Y-90000500D01*
X52474785Y-89961090D01*
X52714379Y-89883241D01*
X52938845Y-89768870D01*
X53142656Y-89620793D01*
X53320793Y-89442656D01*
X53468870Y-89238845D01*
X53583241Y-89014379D01*
X53661090Y-88774785D01*
X53696693Y-88549997D01*
X62844751Y-88549997D01*
X62844751Y-88550002D01*
X62863685Y-88718056D01*
X62919545Y-88877694D01*
X62919547Y-88877697D01*
X63009518Y-89020884D01*
X63009523Y-89020890D01*
X63129109Y-89140476D01*
X63129115Y-89140481D01*
X63272302Y-89230452D01*
X63272305Y-89230454D01*
X63272309Y-89230455D01*
X63272310Y-89230456D01*
X63344913Y-89255860D01*
X63431943Y-89286314D01*
X63599997Y-89305249D01*
X63600000Y-89305249D01*
X63600003Y-89305249D01*
X63768056Y-89286314D01*
X63768059Y-89286313D01*
X63927690Y-89230456D01*
X63927692Y-89230454D01*
X63927694Y-89230454D01*
X63927697Y-89230452D01*
X64070884Y-89140481D01*
X64070885Y-89140480D01*
X64070890Y-89140477D01*
X64190477Y-89020890D01*
X64280452Y-88877697D01*
X64280454Y-88877694D01*
X64280454Y-88877692D01*
X64280456Y-88877690D01*
X64336313Y-88718059D01*
X64336313Y-88718058D01*
X64336314Y-88718056D01*
X64355249Y-88550002D01*
X64355249Y-88549997D01*
X64336314Y-88381943D01*
X64298556Y-88274038D01*
X106299500Y-88274038D01*
X106299500Y-88525961D01*
X106338910Y-88774785D01*
X106416760Y-89014383D01*
X106531132Y-89238848D01*
X106679201Y-89442649D01*
X106679205Y-89442654D01*
X106857345Y-89620794D01*
X106857350Y-89620798D01*
X107035117Y-89749952D01*
X107061155Y-89768870D01*
X107204184Y-89841747D01*
X107285616Y-89883239D01*
X107285618Y-89883239D01*
X107285621Y-89883241D01*
X107525215Y-89961090D01*
X107774038Y-90000500D01*
X107774039Y-90000500D01*
X108025961Y-90000500D01*
X108025962Y-90000500D01*
X108274785Y-89961090D01*
X108514379Y-89883241D01*
X108738845Y-89768870D01*
X108942656Y-89620793D01*
X109120793Y-89442656D01*
X109268870Y-89238845D01*
X109383241Y-89014379D01*
X109461090Y-88774785D01*
X109500500Y-88525962D01*
X109500500Y-88274038D01*
X109461090Y-88025215D01*
X109383241Y-87785621D01*
X109383239Y-87785618D01*
X109383239Y-87785616D01*
X109341747Y-87704184D01*
X109268870Y-87561155D01*
X109249952Y-87535117D01*
X109120798Y-87357350D01*
X109120794Y-87357345D01*
X108942654Y-87179205D01*
X108942649Y-87179201D01*
X108738848Y-87031132D01*
X108738847Y-87031131D01*
X108738845Y-87031130D01*
X108649032Y-86985368D01*
X108514383Y-86916760D01*
X108274785Y-86838910D01*
X108217362Y-86829815D01*
X108025962Y-86799500D01*
X107774038Y-86799500D01*
X107649626Y-86819205D01*
X107525214Y-86838910D01*
X107285616Y-86916760D01*
X107061151Y-87031132D01*
X106857350Y-87179201D01*
X106857345Y-87179205D01*
X106679205Y-87357345D01*
X106679201Y-87357350D01*
X106531132Y-87561151D01*
X106416760Y-87785616D01*
X106338910Y-88025214D01*
X106299500Y-88274038D01*
X64298556Y-88274038D01*
X64280454Y-88222305D01*
X64280452Y-88222302D01*
X64190481Y-88079115D01*
X64190476Y-88079109D01*
X64070890Y-87959523D01*
X64070884Y-87959518D01*
X63927697Y-87869547D01*
X63927694Y-87869545D01*
X63768056Y-87813685D01*
X63600003Y-87794751D01*
X63599997Y-87794751D01*
X63431943Y-87813685D01*
X63272305Y-87869545D01*
X63272302Y-87869547D01*
X63129115Y-87959518D01*
X63129109Y-87959523D01*
X63009523Y-88079109D01*
X63009518Y-88079115D01*
X62919547Y-88222302D01*
X62919545Y-88222305D01*
X62863685Y-88381943D01*
X62844751Y-88549997D01*
X53696693Y-88549997D01*
X53700500Y-88525962D01*
X53700500Y-88274038D01*
X53661090Y-88025215D01*
X53583241Y-87785621D01*
X53583239Y-87785618D01*
X53583239Y-87785616D01*
X53541747Y-87704184D01*
X53468870Y-87561155D01*
X53449952Y-87535117D01*
X53320798Y-87357350D01*
X53320794Y-87357345D01*
X53142654Y-87179205D01*
X53142649Y-87179201D01*
X52938848Y-87031132D01*
X52938847Y-87031131D01*
X52938845Y-87031130D01*
X52849032Y-86985368D01*
X52714383Y-86916760D01*
X52474785Y-86838910D01*
X52417362Y-86829815D01*
X52225962Y-86799500D01*
X51974038Y-86799500D01*
X51849626Y-86819205D01*
X51725214Y-86838910D01*
X51485616Y-86916760D01*
X51261151Y-87031132D01*
X51057350Y-87179201D01*
X51057345Y-87179205D01*
X50879205Y-87357345D01*
X50879201Y-87357350D01*
X50731132Y-87561151D01*
X50616760Y-87785616D01*
X50538910Y-88025214D01*
X50499500Y-88274038D01*
X40500500Y-88274038D01*
X40500500Y-86199996D01*
X99494435Y-86199996D01*
X99494435Y-86200003D01*
X99514630Y-86379249D01*
X99514631Y-86379254D01*
X99574211Y-86549523D01*
X99670184Y-86702262D01*
X99797738Y-86829816D01*
X99950478Y-86925789D01*
X100120745Y-86985368D01*
X100120750Y-86985369D01*
X100299996Y-87005565D01*
X100300000Y-87005565D01*
X100300004Y-87005565D01*
X100479249Y-86985369D01*
X100479252Y-86985368D01*
X100479255Y-86985368D01*
X100649522Y-86925789D01*
X100802262Y-86829816D01*
X100929816Y-86702262D01*
X101025789Y-86549522D01*
X101085368Y-86379255D01*
X101105565Y-86200000D01*
X101085368Y-86020745D01*
X101025789Y-85850478D01*
X100929816Y-85697738D01*
X100802262Y-85570184D01*
X100698230Y-85504816D01*
X100649523Y-85474211D01*
X100479254Y-85414631D01*
X100479249Y-85414630D01*
X100300004Y-85394435D01*
X100299996Y-85394435D01*
X100120750Y-85414630D01*
X100120745Y-85414631D01*
X99950476Y-85474211D01*
X99797737Y-85570184D01*
X99670184Y-85697737D01*
X99574211Y-85850476D01*
X99514631Y-86020745D01*
X99514630Y-86020750D01*
X99494435Y-86199996D01*
X40500500Y-86199996D01*
X40500500Y-84874996D01*
X114094435Y-84874996D01*
X114094435Y-84875003D01*
X114114630Y-85054249D01*
X114114631Y-85054254D01*
X114174211Y-85224523D01*
X114270184Y-85377262D01*
X114397738Y-85504816D01*
X114550478Y-85600789D01*
X114720745Y-85660368D01*
X114720750Y-85660369D01*
X114899996Y-85680565D01*
X114900000Y-85680565D01*
X114900004Y-85680565D01*
X115079249Y-85660369D01*
X115079252Y-85660368D01*
X115079255Y-85660368D01*
X115249522Y-85600789D01*
X115402262Y-85504816D01*
X115529816Y-85377262D01*
X115625789Y-85224522D01*
X115685368Y-85054255D01*
X115705565Y-84875000D01*
X115685368Y-84695745D01*
X115625789Y-84525478D01*
X115529816Y-84372738D01*
X115402262Y-84245184D01*
X115249523Y-84149211D01*
X115079254Y-84089631D01*
X115079249Y-84089630D01*
X114900004Y-84069435D01*
X114899996Y-84069435D01*
X114720750Y-84089630D01*
X114720745Y-84089631D01*
X114550476Y-84149211D01*
X114397737Y-84245184D01*
X114270184Y-84372737D01*
X114174211Y-84525476D01*
X114114631Y-84695745D01*
X114114630Y-84695750D01*
X114094435Y-84874996D01*
X40500500Y-84874996D01*
X40500500Y-82099996D01*
X113094435Y-82099996D01*
X113094435Y-82100003D01*
X113114630Y-82279249D01*
X113114631Y-82279254D01*
X113174211Y-82449523D01*
X113270184Y-82602262D01*
X113397738Y-82729816D01*
X113550478Y-82825789D01*
X113720745Y-82885368D01*
X113720750Y-82885369D01*
X113899996Y-82905565D01*
X113900000Y-82905565D01*
X113900004Y-82905565D01*
X114079249Y-82885369D01*
X114079252Y-82885368D01*
X114079255Y-82885368D01*
X114249522Y-82825789D01*
X114402262Y-82729816D01*
X114529816Y-82602262D01*
X114625789Y-82449522D01*
X114657083Y-82360084D01*
X114697804Y-82303309D01*
X114733167Y-82283999D01*
X114899522Y-82225789D01*
X115052262Y-82129816D01*
X115179816Y-82002262D01*
X115275789Y-81849522D01*
X115335368Y-81679255D01*
X115344553Y-81597737D01*
X115355565Y-81500003D01*
X115355565Y-81499996D01*
X115335369Y-81320750D01*
X115335368Y-81320745D01*
X115277393Y-81155063D01*
X115275789Y-81150478D01*
X115179816Y-80997738D01*
X115052262Y-80870184D01*
X115027336Y-80854522D01*
X114899523Y-80774211D01*
X114729254Y-80714631D01*
X114729249Y-80714630D01*
X114550004Y-80694435D01*
X114549996Y-80694435D01*
X114370750Y-80714630D01*
X114370745Y-80714631D01*
X114200476Y-80774211D01*
X114047737Y-80870184D01*
X113920184Y-80997737D01*
X113824209Y-81150480D01*
X113792914Y-81239916D01*
X113752193Y-81296692D01*
X113716827Y-81316003D01*
X113550478Y-81374210D01*
X113397737Y-81470184D01*
X113270184Y-81597737D01*
X113174211Y-81750476D01*
X113114631Y-81920745D01*
X113114630Y-81920750D01*
X113094435Y-82099996D01*
X40500500Y-82099996D01*
X40500500Y-81835266D01*
X98073285Y-81835266D01*
X98232056Y-81890824D01*
X98399996Y-81909746D01*
X98400004Y-81909746D01*
X98567943Y-81890824D01*
X98726713Y-81835267D01*
X98726714Y-81835266D01*
X99973285Y-81835266D01*
X100132056Y-81890824D01*
X100299996Y-81909746D01*
X100300004Y-81909746D01*
X100467943Y-81890824D01*
X100626713Y-81835267D01*
X100626714Y-81835266D01*
X100300001Y-81508553D01*
X100300000Y-81508553D01*
X99973285Y-81835266D01*
X98726714Y-81835266D01*
X98400001Y-81508553D01*
X98400000Y-81508553D01*
X98073285Y-81835266D01*
X40500500Y-81835266D01*
X40500500Y-67119999D01*
X57719341Y-67119999D01*
X57719341Y-67120000D01*
X57739936Y-67355403D01*
X57739938Y-67355413D01*
X57801094Y-67583655D01*
X57801096Y-67583659D01*
X57801097Y-67583663D01*
X57889951Y-67774211D01*
X57900965Y-67797830D01*
X57900967Y-67797834D01*
X57994784Y-67931817D01*
X58035857Y-67990476D01*
X58036501Y-67991395D01*
X58036506Y-67991402D01*
X58203597Y-68158493D01*
X58203603Y-68158498D01*
X58389158Y-68288425D01*
X58432783Y-68343002D01*
X58439977Y-68412500D01*
X58408454Y-68474855D01*
X58389158Y-68491575D01*
X58203597Y-68621505D01*
X58036505Y-68788597D01*
X57900965Y-68982169D01*
X57900964Y-68982171D01*
X57801098Y-69196335D01*
X57801094Y-69196344D01*
X57739938Y-69424586D01*
X57739936Y-69424596D01*
X57719341Y-69659999D01*
X57719341Y-69660000D01*
X57739936Y-69895403D01*
X57739938Y-69895413D01*
X57801094Y-70123655D01*
X57801096Y-70123659D01*
X57801097Y-70123663D01*
X57869421Y-70270184D01*
X57900965Y-70337830D01*
X57900967Y-70337834D01*
X58036501Y-70531395D01*
X58036506Y-70531402D01*
X58203597Y-70698493D01*
X58203603Y-70698498D01*
X58389158Y-70828425D01*
X58432783Y-70883002D01*
X58439977Y-70952500D01*
X58408454Y-71014855D01*
X58389158Y-71031575D01*
X58203597Y-71161505D01*
X58036505Y-71328597D01*
X57900965Y-71522169D01*
X57900964Y-71522171D01*
X57801098Y-71736335D01*
X57801094Y-71736344D01*
X57739938Y-71964586D01*
X57739936Y-71964596D01*
X57719341Y-72199999D01*
X57719341Y-72200000D01*
X57739936Y-72435403D01*
X57739938Y-72435413D01*
X57801094Y-72663655D01*
X57801096Y-72663659D01*
X57801097Y-72663663D01*
X57808368Y-72679255D01*
X57900965Y-72877830D01*
X57900967Y-72877834D01*
X58036501Y-73071395D01*
X58036506Y-73071402D01*
X58203597Y-73238493D01*
X58203603Y-73238498D01*
X58389158Y-73368425D01*
X58432783Y-73423002D01*
X58439977Y-73492500D01*
X58408454Y-73554855D01*
X58389158Y-73571575D01*
X58203597Y-73701505D01*
X58036505Y-73868597D01*
X57900965Y-74062169D01*
X57900964Y-74062171D01*
X57801098Y-74276335D01*
X57801094Y-74276344D01*
X57739938Y-74504586D01*
X57739936Y-74504596D01*
X57719341Y-74739999D01*
X57719341Y-74740000D01*
X57739936Y-74975403D01*
X57739938Y-74975413D01*
X57801094Y-75203655D01*
X57801096Y-75203659D01*
X57801097Y-75203663D01*
X57873314Y-75358532D01*
X57900965Y-75417830D01*
X57900967Y-75417834D01*
X58036501Y-75611395D01*
X58036506Y-75611402D01*
X58203597Y-75778493D01*
X58203603Y-75778498D01*
X58241939Y-75805341D01*
X58369178Y-75894435D01*
X58389594Y-75908730D01*
X58433219Y-75963307D01*
X58440413Y-76032805D01*
X58408890Y-76095160D01*
X58389595Y-76111880D01*
X58203922Y-76241890D01*
X58203920Y-76241891D01*
X58036891Y-76408920D01*
X58036886Y-76408926D01*
X57901400Y-76602420D01*
X57901399Y-76602422D01*
X57801570Y-76816507D01*
X57801567Y-76816513D01*
X57744364Y-77029999D01*
X57744364Y-77030000D01*
X58641988Y-77030000D01*
X58609075Y-77087007D01*
X58575000Y-77214174D01*
X58575000Y-77345826D01*
X58609075Y-77472993D01*
X58641988Y-77530000D01*
X57744364Y-77530000D01*
X57801567Y-77743486D01*
X57801570Y-77743492D01*
X57901399Y-77957578D01*
X58036894Y-78151082D01*
X58203917Y-78318105D01*
X58389595Y-78448119D01*
X58433219Y-78502696D01*
X58440412Y-78572195D01*
X58408890Y-78634549D01*
X58389595Y-78651269D01*
X58203594Y-78781508D01*
X58036505Y-78948597D01*
X57900965Y-79142169D01*
X57900964Y-79142171D01*
X57801098Y-79356335D01*
X57801094Y-79356344D01*
X57739938Y-79584586D01*
X57739936Y-79584596D01*
X57719341Y-79819999D01*
X57719341Y-79820000D01*
X57739936Y-80055403D01*
X57739938Y-80055413D01*
X57801094Y-80283655D01*
X57801096Y-80283659D01*
X57801097Y-80283663D01*
X57820723Y-80325750D01*
X57900965Y-80497830D01*
X57900967Y-80497834D01*
X58009281Y-80652521D01*
X58036505Y-80691401D01*
X58203599Y-80858495D01*
X58220293Y-80870184D01*
X58397165Y-80994032D01*
X58397167Y-80994033D01*
X58397170Y-80994035D01*
X58611337Y-81093903D01*
X58839592Y-81155063D01*
X59027918Y-81171539D01*
X59074999Y-81175659D01*
X59075000Y-81175659D01*
X59075001Y-81175659D01*
X59114234Y-81172226D01*
X59310408Y-81155063D01*
X59538663Y-81093903D01*
X59752830Y-80994035D01*
X59946401Y-80858495D01*
X60113495Y-80691401D01*
X60249035Y-80497830D01*
X60348903Y-80283663D01*
X60410063Y-80055408D01*
X60430659Y-79820000D01*
X60410063Y-79584592D01*
X60348903Y-79356337D01*
X60292320Y-79234996D01*
X60794435Y-79234996D01*
X60794435Y-79235003D01*
X60814630Y-79414249D01*
X60814631Y-79414254D01*
X60874211Y-79584523D01*
X60970184Y-79737262D01*
X60970185Y-79737263D01*
X61015241Y-79782320D01*
X61048725Y-79843643D01*
X61043740Y-79913335D01*
X61015241Y-79957680D01*
X60970184Y-80002737D01*
X60874211Y-80155476D01*
X60814631Y-80325745D01*
X60814630Y-80325750D01*
X60794435Y-80504996D01*
X60794435Y-80505003D01*
X60814630Y-80684249D01*
X60814631Y-80684254D01*
X60874211Y-80854523D01*
X60957486Y-80987053D01*
X60970184Y-81007262D01*
X61097738Y-81134816D01*
X61129958Y-81155061D01*
X61220010Y-81211645D01*
X61250478Y-81230789D01*
X61359559Y-81268958D01*
X61420745Y-81290368D01*
X61420750Y-81290369D01*
X61599996Y-81310565D01*
X61600000Y-81310565D01*
X61600004Y-81310565D01*
X61779249Y-81290369D01*
X61779252Y-81290368D01*
X61779255Y-81290368D01*
X61949522Y-81230789D01*
X62070146Y-81154996D01*
X97645254Y-81154996D01*
X97645254Y-81155003D01*
X97664175Y-81322938D01*
X97664176Y-81322943D01*
X97719732Y-81481714D01*
X98046447Y-81155000D01*
X98026556Y-81135109D01*
X98300000Y-81135109D01*
X98300000Y-81174891D01*
X98315224Y-81211645D01*
X98343355Y-81239776D01*
X98380109Y-81255000D01*
X98419891Y-81255000D01*
X98456645Y-81239776D01*
X98484776Y-81211645D01*
X98500000Y-81174891D01*
X98500000Y-81154999D01*
X98753553Y-81154999D01*
X98753553Y-81155001D01*
X99080266Y-81481714D01*
X99080267Y-81481713D01*
X99135824Y-81322943D01*
X99154746Y-81155003D01*
X99154746Y-81154996D01*
X99545254Y-81154996D01*
X99545254Y-81155003D01*
X99564175Y-81322938D01*
X99564176Y-81322943D01*
X99619732Y-81481714D01*
X99946447Y-81155000D01*
X99926556Y-81135109D01*
X100200000Y-81135109D01*
X100200000Y-81174891D01*
X100215224Y-81211645D01*
X100243355Y-81239776D01*
X100280109Y-81255000D01*
X100319891Y-81255000D01*
X100356645Y-81239776D01*
X100384776Y-81211645D01*
X100400000Y-81174891D01*
X100400000Y-81154999D01*
X100653553Y-81154999D01*
X100653553Y-81155001D01*
X100980266Y-81481714D01*
X100980267Y-81481713D01*
X101035824Y-81322943D01*
X101054746Y-81155003D01*
X101054746Y-81154996D01*
X101047390Y-81089705D01*
X102297326Y-81089705D01*
X102297326Y-81089712D01*
X102317521Y-81268958D01*
X102317522Y-81268963D01*
X102377102Y-81439232D01*
X102420660Y-81508553D01*
X102473075Y-81591971D01*
X102600629Y-81719525D01*
X102753369Y-81815498D01*
X102809863Y-81835266D01*
X102923636Y-81875077D01*
X102923641Y-81875078D01*
X103102887Y-81895274D01*
X103102891Y-81895274D01*
X103102895Y-81895274D01*
X103282140Y-81875078D01*
X103282143Y-81875077D01*
X103282146Y-81875077D01*
X103452413Y-81815498D01*
X103605153Y-81719525D01*
X103732707Y-81591971D01*
X103828680Y-81439231D01*
X103888259Y-81268964D01*
X103888260Y-81268958D01*
X103908456Y-81089712D01*
X103908456Y-81089705D01*
X103888260Y-80910459D01*
X103888259Y-80910454D01*
X103868688Y-80854523D01*
X103828680Y-80740187D01*
X103812621Y-80714630D01*
X103732706Y-80587446D01*
X103605153Y-80459893D01*
X103452414Y-80363920D01*
X103282145Y-80304340D01*
X103282140Y-80304339D01*
X103102895Y-80284144D01*
X103102887Y-80284144D01*
X102923641Y-80304339D01*
X102923636Y-80304340D01*
X102753367Y-80363920D01*
X102600628Y-80459893D01*
X102473075Y-80587446D01*
X102377102Y-80740185D01*
X102317522Y-80910454D01*
X102317521Y-80910459D01*
X102297326Y-81089705D01*
X101047390Y-81089705D01*
X101035824Y-80987056D01*
X100980266Y-80828285D01*
X100653553Y-81154999D01*
X100400000Y-81154999D01*
X100400000Y-81135109D01*
X100384776Y-81098355D01*
X100356645Y-81070224D01*
X100319891Y-81055000D01*
X100280109Y-81055000D01*
X100243355Y-81070224D01*
X100215224Y-81098355D01*
X100200000Y-81135109D01*
X99926556Y-81135109D01*
X99619732Y-80828285D01*
X99564176Y-80987053D01*
X99564175Y-80987058D01*
X99545254Y-81154996D01*
X99154746Y-81154996D01*
X99135824Y-80987056D01*
X99080266Y-80828285D01*
X98753553Y-81154999D01*
X98500000Y-81154999D01*
X98500000Y-81135109D01*
X98484776Y-81098355D01*
X98456645Y-81070224D01*
X98419891Y-81055000D01*
X98380109Y-81055000D01*
X98343355Y-81070224D01*
X98315224Y-81098355D01*
X98300000Y-81135109D01*
X98026556Y-81135109D01*
X97719732Y-80828285D01*
X97664176Y-80987053D01*
X97664175Y-80987058D01*
X97645254Y-81154996D01*
X62070146Y-81154996D01*
X62102262Y-81134816D01*
X62229816Y-81007262D01*
X62325789Y-80854522D01*
X62385368Y-80684255D01*
X62405565Y-80505000D01*
X62404757Y-80497830D01*
X62402748Y-80480000D01*
X98078553Y-80480000D01*
X98400000Y-80801447D01*
X98721447Y-80480000D01*
X99978553Y-80480000D01*
X100300000Y-80801447D01*
X100621447Y-80480000D01*
X100300000Y-80158553D01*
X99978553Y-80480000D01*
X98721447Y-80480000D01*
X98400000Y-80158553D01*
X98078553Y-80480000D01*
X62402748Y-80480000D01*
X62385369Y-80325750D01*
X62385368Y-80325745D01*
X62325788Y-80155476D01*
X62262911Y-80055408D01*
X62229816Y-80002738D01*
X62184758Y-79957680D01*
X62151274Y-79896358D01*
X62156258Y-79826666D01*
X62170185Y-79804996D01*
X97645254Y-79804996D01*
X97645254Y-79805003D01*
X97664175Y-79972938D01*
X97664176Y-79972943D01*
X97719732Y-80131714D01*
X98046447Y-79805000D01*
X98026556Y-79785109D01*
X98300000Y-79785109D01*
X98300000Y-79824891D01*
X98315224Y-79861645D01*
X98343355Y-79889776D01*
X98380109Y-79905000D01*
X98419891Y-79905000D01*
X98456645Y-79889776D01*
X98484776Y-79861645D01*
X98500000Y-79824891D01*
X98500000Y-79804999D01*
X98753553Y-79804999D01*
X98753553Y-79805001D01*
X99080266Y-80131714D01*
X99080267Y-80131713D01*
X99135824Y-79972943D01*
X99154746Y-79805003D01*
X99154746Y-79804996D01*
X99545254Y-79804996D01*
X99545254Y-79805003D01*
X99564175Y-79972938D01*
X99564176Y-79972943D01*
X99619732Y-80131714D01*
X99946447Y-79805000D01*
X99926556Y-79785109D01*
X100200000Y-79785109D01*
X100200000Y-79824891D01*
X100215224Y-79861645D01*
X100243355Y-79889776D01*
X100280109Y-79905000D01*
X100319891Y-79905000D01*
X100356645Y-79889776D01*
X100384776Y-79861645D01*
X100400000Y-79824891D01*
X100400000Y-79804999D01*
X100653553Y-79804999D01*
X100653553Y-79805001D01*
X100980266Y-80131714D01*
X100980267Y-80131713D01*
X101035824Y-79972943D01*
X101054746Y-79805003D01*
X101054746Y-79804996D01*
X101035824Y-79637056D01*
X100980266Y-79478285D01*
X100653553Y-79804999D01*
X100400000Y-79804999D01*
X100400000Y-79785109D01*
X100384776Y-79748355D01*
X100356645Y-79720224D01*
X100319891Y-79705000D01*
X100280109Y-79705000D01*
X100243355Y-79720224D01*
X100215224Y-79748355D01*
X100200000Y-79785109D01*
X99926556Y-79785109D01*
X99619732Y-79478285D01*
X99564176Y-79637053D01*
X99564175Y-79637058D01*
X99545254Y-79804996D01*
X99154746Y-79804996D01*
X99135824Y-79637056D01*
X99080266Y-79478285D01*
X98753553Y-79804999D01*
X98500000Y-79804999D01*
X98500000Y-79785109D01*
X98484776Y-79748355D01*
X98456645Y-79720224D01*
X98419891Y-79705000D01*
X98380109Y-79705000D01*
X98343355Y-79720224D01*
X98315224Y-79748355D01*
X98300000Y-79785109D01*
X98026556Y-79785109D01*
X97719732Y-79478285D01*
X97664176Y-79637053D01*
X97664175Y-79637058D01*
X97645254Y-79804996D01*
X62170185Y-79804996D01*
X62184759Y-79782319D01*
X62229816Y-79737262D01*
X62325789Y-79584522D01*
X62385368Y-79414255D01*
X62405565Y-79235000D01*
X62393734Y-79130000D01*
X98078553Y-79130000D01*
X98400000Y-79451447D01*
X98721447Y-79130000D01*
X99978553Y-79130000D01*
X100300000Y-79451447D01*
X100621447Y-79130000D01*
X100300000Y-78808553D01*
X99978553Y-79130000D01*
X98721447Y-79130000D01*
X98400000Y-78808553D01*
X98078553Y-79130000D01*
X62393734Y-79130000D01*
X62385369Y-79055750D01*
X62385368Y-79055745D01*
X62325788Y-78885476D01*
X62229815Y-78732737D01*
X62102262Y-78605184D01*
X61949523Y-78509211D01*
X61794586Y-78454996D01*
X97645254Y-78454996D01*
X97645254Y-78455003D01*
X97664175Y-78622938D01*
X97664176Y-78622943D01*
X97719732Y-78781714D01*
X98046447Y-78455000D01*
X98026556Y-78435109D01*
X98300000Y-78435109D01*
X98300000Y-78474891D01*
X98315224Y-78511645D01*
X98343355Y-78539776D01*
X98380109Y-78555000D01*
X98419891Y-78555000D01*
X98456645Y-78539776D01*
X98484776Y-78511645D01*
X98500000Y-78474891D01*
X98500000Y-78454999D01*
X98753553Y-78454999D01*
X98753553Y-78455001D01*
X99080266Y-78781714D01*
X99080267Y-78781713D01*
X99135824Y-78622943D01*
X99154746Y-78455003D01*
X99154746Y-78454996D01*
X99545254Y-78454996D01*
X99545254Y-78455003D01*
X99564175Y-78622938D01*
X99564176Y-78622943D01*
X99619732Y-78781714D01*
X99946447Y-78455000D01*
X99926556Y-78435109D01*
X100200000Y-78435109D01*
X100200000Y-78474891D01*
X100215224Y-78511645D01*
X100243355Y-78539776D01*
X100280109Y-78555000D01*
X100319891Y-78555000D01*
X100356645Y-78539776D01*
X100384776Y-78511645D01*
X100400000Y-78474891D01*
X100400000Y-78454999D01*
X100653553Y-78454999D01*
X100653553Y-78455001D01*
X100980266Y-78781714D01*
X100980267Y-78781713D01*
X101035824Y-78622943D01*
X101054746Y-78455003D01*
X101054746Y-78454996D01*
X101035824Y-78287056D01*
X100980266Y-78128285D01*
X100653553Y-78454999D01*
X100400000Y-78454999D01*
X100400000Y-78435109D01*
X100384776Y-78398355D01*
X100356645Y-78370224D01*
X100319891Y-78355000D01*
X100280109Y-78355000D01*
X100243355Y-78370224D01*
X100215224Y-78398355D01*
X100200000Y-78435109D01*
X99926556Y-78435109D01*
X99619732Y-78128285D01*
X99564176Y-78287053D01*
X99564175Y-78287058D01*
X99545254Y-78454996D01*
X99154746Y-78454996D01*
X99135824Y-78287056D01*
X99080266Y-78128285D01*
X98753553Y-78454999D01*
X98500000Y-78454999D01*
X98500000Y-78435109D01*
X98484776Y-78398355D01*
X98456645Y-78370224D01*
X98419891Y-78355000D01*
X98380109Y-78355000D01*
X98343355Y-78370224D01*
X98315224Y-78398355D01*
X98300000Y-78435109D01*
X98026556Y-78435109D01*
X97719732Y-78128285D01*
X97664176Y-78287053D01*
X97664175Y-78287058D01*
X97645254Y-78454996D01*
X61794586Y-78454996D01*
X61779254Y-78449631D01*
X61779249Y-78449630D01*
X61600004Y-78429435D01*
X61599996Y-78429435D01*
X61420750Y-78449630D01*
X61420745Y-78449631D01*
X61250476Y-78509211D01*
X61097737Y-78605184D01*
X60970184Y-78732737D01*
X60874211Y-78885476D01*
X60814631Y-79055745D01*
X60814630Y-79055750D01*
X60794435Y-79234996D01*
X60292320Y-79234996D01*
X60249035Y-79142171D01*
X60188520Y-79055745D01*
X60113494Y-78948597D01*
X59946402Y-78781506D01*
X59946401Y-78781505D01*
X59760405Y-78651269D01*
X59716781Y-78596692D01*
X59709588Y-78527193D01*
X59741110Y-78464839D01*
X59760405Y-78448119D01*
X59946082Y-78318105D01*
X60113105Y-78151082D01*
X60248600Y-77957578D01*
X60348429Y-77743492D01*
X60348432Y-77743486D01*
X60405636Y-77530000D01*
X59508012Y-77530000D01*
X59540925Y-77472993D01*
X59575000Y-77345826D01*
X59575000Y-77214174D01*
X59540925Y-77087007D01*
X59508012Y-77030000D01*
X60405636Y-77030000D01*
X60405635Y-77029999D01*
X60348432Y-76816513D01*
X60348429Y-76816507D01*
X60294099Y-76699996D01*
X75394435Y-76699996D01*
X75394435Y-76700003D01*
X75414630Y-76879249D01*
X75414631Y-76879254D01*
X75474211Y-77049523D01*
X75504507Y-77097738D01*
X75570184Y-77202262D01*
X75697738Y-77329816D01*
X75723218Y-77345826D01*
X75842450Y-77420745D01*
X75850478Y-77425789D01*
X75985379Y-77472993D01*
X76020745Y-77485368D01*
X76020749Y-77485369D01*
X76085320Y-77492644D01*
X76149734Y-77519710D01*
X76189289Y-77577304D01*
X76194657Y-77601980D01*
X76214630Y-77779250D01*
X76214631Y-77779254D01*
X76274211Y-77949523D01*
X76369672Y-78101447D01*
X76370184Y-78102262D01*
X76497738Y-78229816D01*
X76650478Y-78325789D01*
X76777466Y-78370224D01*
X76820745Y-78385368D01*
X76820750Y-78385369D01*
X76999996Y-78405565D01*
X77000000Y-78405565D01*
X77000004Y-78405565D01*
X77179249Y-78385369D01*
X77179252Y-78385368D01*
X77179255Y-78385368D01*
X77349522Y-78325789D01*
X77502262Y-78229816D01*
X77629816Y-78102262D01*
X77725789Y-77949522D01*
X77785368Y-77779255D01*
X77785878Y-77774732D01*
X98073285Y-77774732D01*
X98400000Y-78101447D01*
X98400001Y-78101447D01*
X98726714Y-77774732D01*
X99973285Y-77774732D01*
X100300000Y-78101447D01*
X100300001Y-78101447D01*
X100626714Y-77774732D01*
X100467943Y-77719176D01*
X100467938Y-77719175D01*
X100300004Y-77700254D01*
X100299996Y-77700254D01*
X100132058Y-77719175D01*
X100132053Y-77719176D01*
X99973285Y-77774732D01*
X98726714Y-77774732D01*
X98567943Y-77719176D01*
X98567938Y-77719175D01*
X98400004Y-77700254D01*
X98399996Y-77700254D01*
X98232058Y-77719175D01*
X98232053Y-77719176D01*
X98073285Y-77774732D01*
X77785878Y-77774732D01*
X77805565Y-77600003D01*
X77805565Y-77599996D01*
X77785369Y-77420750D01*
X77785368Y-77420745D01*
X77759153Y-77345826D01*
X77725789Y-77250478D01*
X77629816Y-77097738D01*
X77502262Y-76970184D01*
X77349523Y-76874211D01*
X77179254Y-76814631D01*
X77179250Y-76814630D01*
X77114678Y-76807355D01*
X77050264Y-76780288D01*
X77010709Y-76722693D01*
X77005342Y-76698018D01*
X76985369Y-76520750D01*
X76985368Y-76520745D01*
X76925788Y-76350476D01*
X76857559Y-76241891D01*
X76829816Y-76197738D01*
X76702262Y-76070184D01*
X76549523Y-75974211D01*
X76379254Y-75914631D01*
X76379249Y-75914630D01*
X76200004Y-75894435D01*
X76199996Y-75894435D01*
X76020750Y-75914630D01*
X76020745Y-75914631D01*
X75850476Y-75974211D01*
X75697737Y-76070184D01*
X75570184Y-76197737D01*
X75474211Y-76350476D01*
X75414631Y-76520745D01*
X75414630Y-76520750D01*
X75394435Y-76699996D01*
X60294099Y-76699996D01*
X60248600Y-76602422D01*
X60248599Y-76602420D01*
X60113113Y-76408926D01*
X60113108Y-76408920D01*
X59946078Y-76241890D01*
X59760405Y-76111879D01*
X59716780Y-76057302D01*
X59709588Y-75987804D01*
X59741110Y-75925449D01*
X59760406Y-75908730D01*
X59946401Y-75778495D01*
X60113495Y-75611401D01*
X60249035Y-75417830D01*
X60348903Y-75203663D01*
X60410063Y-74975408D01*
X60425410Y-74800000D01*
X68157159Y-74800000D01*
X68176475Y-74996129D01*
X68233688Y-75184733D01*
X68326586Y-75358532D01*
X68326590Y-75358539D01*
X68451616Y-75510883D01*
X68603960Y-75635909D01*
X68603967Y-75635913D01*
X68777766Y-75728811D01*
X68777769Y-75728811D01*
X68777773Y-75728814D01*
X68966368Y-75786024D01*
X69162500Y-75805341D01*
X69358632Y-75786024D01*
X69547227Y-75728814D01*
X69721038Y-75635910D01*
X69833835Y-75543338D01*
X69898144Y-75516026D01*
X69967012Y-75527817D01*
X69991165Y-75543339D01*
X70103960Y-75635909D01*
X70103967Y-75635913D01*
X70277766Y-75728811D01*
X70277769Y-75728811D01*
X70277773Y-75728814D01*
X70466368Y-75786024D01*
X70662500Y-75805341D01*
X70858632Y-75786024D01*
X71047227Y-75728814D01*
X71221038Y-75635910D01*
X71373383Y-75510883D01*
X71498410Y-75358538D01*
X71581192Y-75203664D01*
X71591311Y-75184733D01*
X71591311Y-75184732D01*
X71591314Y-75184727D01*
X71648524Y-74996132D01*
X71667841Y-74800000D01*
X71648524Y-74603868D01*
X71607610Y-74468995D01*
X117799499Y-74468995D01*
X117826418Y-74604322D01*
X117826421Y-74604332D01*
X117879221Y-74731804D01*
X117879228Y-74731817D01*
X117955885Y-74846541D01*
X117955888Y-74846545D01*
X118053454Y-74944111D01*
X118053458Y-74944114D01*
X118168182Y-75020771D01*
X118168195Y-75020778D01*
X118295667Y-75073578D01*
X118295672Y-75073580D01*
X118295676Y-75073580D01*
X118295677Y-75073581D01*
X118431004Y-75100500D01*
X118431007Y-75100500D01*
X118568995Y-75100500D01*
X118660041Y-75082389D01*
X118704328Y-75073580D01*
X118831811Y-75020775D01*
X118946542Y-74944114D01*
X119044114Y-74846542D01*
X119120775Y-74731811D01*
X119173580Y-74604328D01*
X119200500Y-74468993D01*
X119200500Y-74331007D01*
X119200500Y-74331004D01*
X119173581Y-74195677D01*
X119173580Y-74195676D01*
X119173580Y-74195672D01*
X119129444Y-74089117D01*
X119120778Y-74068195D01*
X119120771Y-74068182D01*
X119044114Y-73953458D01*
X119044111Y-73953454D01*
X118946545Y-73855888D01*
X118946541Y-73855885D01*
X118831817Y-73779228D01*
X118831804Y-73779221D01*
X118704332Y-73726421D01*
X118704322Y-73726418D01*
X118568995Y-73699500D01*
X118568993Y-73699500D01*
X118431007Y-73699500D01*
X118431005Y-73699500D01*
X118295677Y-73726418D01*
X118295667Y-73726421D01*
X118168195Y-73779221D01*
X118168182Y-73779228D01*
X118053458Y-73855885D01*
X118053454Y-73855888D01*
X117955888Y-73953454D01*
X117955885Y-73953458D01*
X117879228Y-74068182D01*
X117879221Y-74068195D01*
X117826421Y-74195667D01*
X117826418Y-74195677D01*
X117799500Y-74331004D01*
X117799500Y-74331007D01*
X117799500Y-74468993D01*
X117799500Y-74468995D01*
X117799499Y-74468995D01*
X71607610Y-74468995D01*
X71591314Y-74415273D01*
X71591311Y-74415269D01*
X71591311Y-74415266D01*
X71498413Y-74241467D01*
X71498409Y-74241460D01*
X71373383Y-74089116D01*
X71221039Y-73964090D01*
X71221032Y-73964086D01*
X71047233Y-73871188D01*
X71047227Y-73871186D01*
X70858632Y-73813976D01*
X70858629Y-73813975D01*
X70662500Y-73794659D01*
X70466370Y-73813975D01*
X70277766Y-73871188D01*
X70103967Y-73964086D01*
X70103960Y-73964090D01*
X69991165Y-74056660D01*
X69926855Y-74083973D01*
X69857987Y-74072182D01*
X69833835Y-74056660D01*
X69721039Y-73964090D01*
X69721032Y-73964086D01*
X69547233Y-73871188D01*
X69547227Y-73871186D01*
X69358632Y-73813976D01*
X69358629Y-73813975D01*
X69162500Y-73794659D01*
X68966370Y-73813975D01*
X68777766Y-73871188D01*
X68603967Y-73964086D01*
X68603960Y-73964090D01*
X68451616Y-74089116D01*
X68326590Y-74241460D01*
X68326586Y-74241467D01*
X68233688Y-74415266D01*
X68176475Y-74603870D01*
X68157159Y-74800000D01*
X60425410Y-74800000D01*
X60430659Y-74740000D01*
X60410063Y-74504592D01*
X60348903Y-74276337D01*
X60249035Y-74062171D01*
X60245177Y-74056660D01*
X60113494Y-73868597D01*
X59946402Y-73701506D01*
X59946396Y-73701501D01*
X59760842Y-73571575D01*
X59717217Y-73516998D01*
X59710023Y-73447500D01*
X59741546Y-73385145D01*
X59760842Y-73368425D01*
X59879459Y-73285368D01*
X59946401Y-73238495D01*
X60113495Y-73071401D01*
X60249035Y-72877830D01*
X60348903Y-72663663D01*
X60410063Y-72435408D01*
X60430659Y-72200000D01*
X60410063Y-71964592D01*
X60389365Y-71887347D01*
X60366224Y-71800979D01*
X60367887Y-71731129D01*
X60407050Y-71673267D01*
X60471279Y-71645763D01*
X60540181Y-71657350D01*
X60551964Y-71663889D01*
X60650478Y-71725789D01*
X60759851Y-71764060D01*
X60816627Y-71804782D01*
X60835939Y-71840147D01*
X60874210Y-71949520D01*
X60874211Y-71949523D01*
X60895893Y-71984030D01*
X60914892Y-72051267D01*
X60895893Y-72115970D01*
X60874209Y-72150480D01*
X60814633Y-72320737D01*
X60814630Y-72320750D01*
X60794435Y-72499996D01*
X60794435Y-72500003D01*
X60814630Y-72679249D01*
X60814631Y-72679254D01*
X60874211Y-72849523D01*
X60970184Y-73002262D01*
X61097738Y-73129816D01*
X61250478Y-73225789D01*
X61420745Y-73285368D01*
X61420750Y-73285369D01*
X61599996Y-73305565D01*
X61600000Y-73305565D01*
X61600004Y-73305565D01*
X61779249Y-73285369D01*
X61779252Y-73285368D01*
X61779255Y-73285368D01*
X61949522Y-73225789D01*
X62102262Y-73129816D01*
X62229816Y-73002262D01*
X62325789Y-72849522D01*
X62385368Y-72679255D01*
X62405565Y-72500000D01*
X62398287Y-72435408D01*
X62385369Y-72320750D01*
X62385368Y-72320745D01*
X62325788Y-72150475D01*
X62304108Y-72115973D01*
X62285107Y-72048737D01*
X62304108Y-71984027D01*
X62325788Y-71949524D01*
X62325789Y-71949522D01*
X62385368Y-71779255D01*
X62390552Y-71733249D01*
X62405565Y-71600003D01*
X62405565Y-71599996D01*
X62385369Y-71420750D01*
X62385368Y-71420745D01*
X62378108Y-71399996D01*
X75394435Y-71399996D01*
X75394435Y-71400003D01*
X75414630Y-71579249D01*
X75414631Y-71579254D01*
X75474211Y-71749523D01*
X75570184Y-71902262D01*
X75697738Y-72029816D01*
X75850478Y-72125789D01*
X75999420Y-72177906D01*
X76020745Y-72185368D01*
X76020750Y-72185369D01*
X76199996Y-72205565D01*
X76200000Y-72205565D01*
X76200004Y-72205565D01*
X76379247Y-72185369D01*
X76379247Y-72185368D01*
X76379255Y-72185368D01*
X76400580Y-72177905D01*
X76470354Y-72174343D01*
X76507504Y-72189952D01*
X76650478Y-72279789D01*
X76767501Y-72320737D01*
X76820745Y-72339368D01*
X76820750Y-72339369D01*
X76999996Y-72359565D01*
X77000000Y-72359565D01*
X77000004Y-72359565D01*
X77179249Y-72339369D01*
X77179252Y-72339368D01*
X77179255Y-72339368D01*
X77349522Y-72279789D01*
X77502262Y-72183816D01*
X77629816Y-72056262D01*
X77725789Y-71903522D01*
X77785368Y-71733255D01*
X77785608Y-71731129D01*
X77805565Y-71554003D01*
X77805565Y-71553996D01*
X77785369Y-71374750D01*
X77785368Y-71374745D01*
X77741551Y-71249523D01*
X77725789Y-71204478D01*
X77713781Y-71185368D01*
X77629815Y-71051737D01*
X77502262Y-70924184D01*
X77349523Y-70828211D01*
X77179254Y-70768631D01*
X77179249Y-70768630D01*
X77000004Y-70748435D01*
X76999996Y-70748435D01*
X76820747Y-70768631D01*
X76799419Y-70776094D01*
X76729640Y-70779655D01*
X76692493Y-70764046D01*
X76669378Y-70749522D01*
X76642885Y-70732875D01*
X76549523Y-70674211D01*
X76379254Y-70614631D01*
X76379249Y-70614630D01*
X76200004Y-70594435D01*
X76199996Y-70594435D01*
X76020750Y-70614630D01*
X76020745Y-70614631D01*
X75850476Y-70674211D01*
X75697737Y-70770184D01*
X75570184Y-70897737D01*
X75474211Y-71050476D01*
X75414631Y-71220745D01*
X75414630Y-71220750D01*
X75394435Y-71399996D01*
X62378108Y-71399996D01*
X62325789Y-71250478D01*
X62325188Y-71249522D01*
X62269884Y-71161506D01*
X62229816Y-71097738D01*
X62102262Y-70970184D01*
X62038310Y-70930000D01*
X61949524Y-70874212D01*
X61949523Y-70874211D01*
X61840146Y-70835938D01*
X61783371Y-70795216D01*
X61764060Y-70759851D01*
X61737195Y-70683074D01*
X61725789Y-70650478D01*
X61703265Y-70614632D01*
X61662955Y-70550478D01*
X61629816Y-70497738D01*
X61532074Y-70399996D01*
X103594435Y-70399996D01*
X103594435Y-70400003D01*
X103614630Y-70579249D01*
X103614631Y-70579254D01*
X103674211Y-70749523D01*
X103723789Y-70828425D01*
X103770184Y-70902262D01*
X103897738Y-71029816D01*
X103932625Y-71051737D01*
X104005833Y-71097737D01*
X104050478Y-71125789D01*
X104200320Y-71178221D01*
X104220745Y-71185368D01*
X104220750Y-71185369D01*
X104399996Y-71205565D01*
X104400000Y-71205565D01*
X104400004Y-71205565D01*
X104579249Y-71185369D01*
X104579252Y-71185368D01*
X104579255Y-71185368D01*
X104749522Y-71125789D01*
X104902262Y-71029816D01*
X105029816Y-70902262D01*
X105031240Y-70899996D01*
X107494435Y-70899996D01*
X107494435Y-70900003D01*
X107514630Y-71079249D01*
X107514631Y-71079254D01*
X107574211Y-71249523D01*
X107623897Y-71328597D01*
X107670184Y-71402262D01*
X107797738Y-71529816D01*
X107950478Y-71625789D01*
X108120745Y-71685368D01*
X108120750Y-71685369D01*
X108299996Y-71705565D01*
X108300000Y-71705565D01*
X108300004Y-71705565D01*
X108479249Y-71685369D01*
X108479252Y-71685368D01*
X108479255Y-71685368D01*
X108649522Y-71625789D01*
X108802262Y-71529816D01*
X108929816Y-71402262D01*
X109025789Y-71249522D01*
X109085368Y-71079255D01*
X109085369Y-71079249D01*
X109094299Y-70999996D01*
X112994435Y-70999996D01*
X112994435Y-71000003D01*
X113014630Y-71179249D01*
X113014631Y-71179254D01*
X113074211Y-71349523D01*
X113170184Y-71502262D01*
X113297738Y-71629816D01*
X113341558Y-71657350D01*
X113450474Y-71725787D01*
X113450478Y-71725789D01*
X113603258Y-71779249D01*
X113620745Y-71785368D01*
X113620750Y-71785369D01*
X113799996Y-71805565D01*
X113800000Y-71805565D01*
X113800004Y-71805565D01*
X113979249Y-71785369D01*
X113979252Y-71785368D01*
X113979255Y-71785368D01*
X114149522Y-71725789D01*
X114302262Y-71629816D01*
X114429816Y-71502262D01*
X114525789Y-71349522D01*
X114585368Y-71179255D01*
X114587368Y-71161505D01*
X114605565Y-71000003D01*
X114605565Y-70999996D01*
X114585369Y-70820750D01*
X114585368Y-70820745D01*
X114567133Y-70768632D01*
X114525789Y-70650478D01*
X114503265Y-70614632D01*
X114462955Y-70550478D01*
X114429816Y-70497738D01*
X114302262Y-70370184D01*
X114276182Y-70353797D01*
X114149523Y-70274211D01*
X113979254Y-70214631D01*
X113979249Y-70214630D01*
X113800004Y-70194435D01*
X113799996Y-70194435D01*
X113620750Y-70214630D01*
X113620745Y-70214631D01*
X113450476Y-70274211D01*
X113297737Y-70370184D01*
X113170184Y-70497737D01*
X113074211Y-70650476D01*
X113014631Y-70820745D01*
X113014630Y-70820750D01*
X112994435Y-70999996D01*
X109094299Y-70999996D01*
X109105565Y-70900003D01*
X109105565Y-70899996D01*
X109085369Y-70720750D01*
X109085368Y-70720745D01*
X109069085Y-70674211D01*
X109025789Y-70550478D01*
X109013798Y-70531395D01*
X108986582Y-70488080D01*
X108929816Y-70397738D01*
X108802262Y-70270184D01*
X108733704Y-70227106D01*
X108649523Y-70174211D01*
X108479254Y-70114631D01*
X108479249Y-70114630D01*
X108300004Y-70094435D01*
X108299996Y-70094435D01*
X108120750Y-70114630D01*
X108120745Y-70114631D01*
X107950476Y-70174211D01*
X107797737Y-70270184D01*
X107670184Y-70397737D01*
X107574211Y-70550476D01*
X107514631Y-70720745D01*
X107514630Y-70720750D01*
X107494435Y-70899996D01*
X105031240Y-70899996D01*
X105125789Y-70749522D01*
X105185368Y-70579255D01*
X105186326Y-70570755D01*
X105205565Y-70400003D01*
X105205565Y-70399996D01*
X105185369Y-70220750D01*
X105185368Y-70220745D01*
X105151398Y-70123664D01*
X105125789Y-70050478D01*
X105029816Y-69897738D01*
X104902262Y-69770184D01*
X104749523Y-69674211D01*
X104579254Y-69614631D01*
X104579249Y-69614630D01*
X104400004Y-69594435D01*
X104399996Y-69594435D01*
X104220750Y-69614630D01*
X104220745Y-69614631D01*
X104050476Y-69674211D01*
X103897737Y-69770184D01*
X103770184Y-69897737D01*
X103674211Y-70050476D01*
X103614631Y-70220745D01*
X103614630Y-70220750D01*
X103594435Y-70399996D01*
X61532074Y-70399996D01*
X61502262Y-70370184D01*
X61476182Y-70353797D01*
X61349523Y-70274211D01*
X61179254Y-70214631D01*
X61179249Y-70214630D01*
X61000004Y-70194435D01*
X60999996Y-70194435D01*
X60820750Y-70214630D01*
X60820745Y-70214631D01*
X60650476Y-70274211D01*
X60497737Y-70370184D01*
X60492295Y-70374525D01*
X60490784Y-70372630D01*
X60439374Y-70400685D01*
X60369683Y-70395683D01*
X60313761Y-70353797D01*
X60289361Y-70288326D01*
X60300663Y-70227111D01*
X60348903Y-70123663D01*
X60410063Y-69895408D01*
X60430659Y-69660000D01*
X60410063Y-69424592D01*
X60348903Y-69196337D01*
X60249035Y-68982171D01*
X60156155Y-68849523D01*
X60113494Y-68788597D01*
X59946402Y-68621506D01*
X59946396Y-68621501D01*
X59760842Y-68491575D01*
X59717217Y-68436998D01*
X59710023Y-68367500D01*
X59741546Y-68305145D01*
X59760842Y-68288425D01*
X59795921Y-68263862D01*
X59946401Y-68158495D01*
X60113495Y-67991401D01*
X60249035Y-67797830D01*
X60348903Y-67583663D01*
X60398116Y-67399997D01*
X63644751Y-67399997D01*
X63644751Y-67400002D01*
X63663685Y-67568056D01*
X63719545Y-67727694D01*
X63719547Y-67727697D01*
X63809518Y-67870884D01*
X63809523Y-67870890D01*
X63929109Y-67990476D01*
X63929115Y-67990481D01*
X64072302Y-68080452D01*
X64072305Y-68080454D01*
X64072309Y-68080455D01*
X64072310Y-68080456D01*
X64099037Y-68089808D01*
X64231943Y-68136314D01*
X64399997Y-68155249D01*
X64400000Y-68155249D01*
X64400003Y-68155249D01*
X64568056Y-68136314D01*
X64568059Y-68136313D01*
X64727690Y-68080456D01*
X64727692Y-68080454D01*
X64727694Y-68080454D01*
X64727697Y-68080452D01*
X64870884Y-67990481D01*
X64870885Y-67990480D01*
X64870890Y-67990477D01*
X64990477Y-67870890D01*
X64990921Y-67870184D01*
X65080452Y-67727697D01*
X65080454Y-67727694D01*
X65080454Y-67727692D01*
X65080456Y-67727690D01*
X65136313Y-67568059D01*
X65136313Y-67568058D01*
X65136314Y-67568056D01*
X65155249Y-67400002D01*
X65155249Y-67399997D01*
X65136314Y-67231943D01*
X65080454Y-67072305D01*
X65080452Y-67072302D01*
X64990481Y-66929115D01*
X64990476Y-66929109D01*
X64870890Y-66809523D01*
X64870884Y-66809518D01*
X64727697Y-66719547D01*
X64727694Y-66719545D01*
X64568056Y-66663685D01*
X64400003Y-66644751D01*
X64399997Y-66644751D01*
X64231943Y-66663685D01*
X64072305Y-66719545D01*
X64072302Y-66719547D01*
X63929115Y-66809518D01*
X63929109Y-66809523D01*
X63809523Y-66929109D01*
X63809518Y-66929115D01*
X63719547Y-67072302D01*
X63719545Y-67072305D01*
X63663685Y-67231943D01*
X63644751Y-67399997D01*
X60398116Y-67399997D01*
X60410063Y-67355408D01*
X60430659Y-67120000D01*
X60410063Y-66884592D01*
X60363626Y-66711285D01*
X60348905Y-66656344D01*
X60348904Y-66656343D01*
X60348903Y-66656337D01*
X60249035Y-66442171D01*
X60224774Y-66407523D01*
X60113496Y-66248600D01*
X60069434Y-66204538D01*
X59991567Y-66126671D01*
X59958084Y-66065351D01*
X59963068Y-65995659D01*
X60004939Y-65939725D01*
X60035915Y-65922810D01*
X60167331Y-65873796D01*
X60282546Y-65787546D01*
X60368796Y-65672331D01*
X60419091Y-65537483D01*
X60425500Y-65477873D01*
X60425500Y-64799996D01*
X63594435Y-64799996D01*
X63594435Y-64800003D01*
X63614630Y-64979249D01*
X63614631Y-64979254D01*
X63674211Y-65149523D01*
X63770184Y-65302262D01*
X63897738Y-65429816D01*
X64050478Y-65525789D01*
X64119135Y-65549813D01*
X64220745Y-65585368D01*
X64220750Y-65585369D01*
X64399996Y-65605565D01*
X64400000Y-65605565D01*
X64400004Y-65605565D01*
X64579249Y-65585369D01*
X64579252Y-65585368D01*
X64579255Y-65585368D01*
X64749522Y-65525789D01*
X64902262Y-65429816D01*
X65029816Y-65302262D01*
X65125789Y-65149522D01*
X65185368Y-64979255D01*
X65205565Y-64800000D01*
X65185368Y-64620745D01*
X65125789Y-64450478D01*
X65029816Y-64297738D01*
X64902262Y-64170184D01*
X64749523Y-64074211D01*
X64579254Y-64014631D01*
X64579249Y-64014630D01*
X64400004Y-63994435D01*
X64399996Y-63994435D01*
X64220750Y-64014630D01*
X64220745Y-64014631D01*
X64050476Y-64074211D01*
X63897737Y-64170184D01*
X63770184Y-64297737D01*
X63674211Y-64450476D01*
X63614631Y-64620745D01*
X63614630Y-64620750D01*
X63594435Y-64799996D01*
X60425500Y-64799996D01*
X60425499Y-63682128D01*
X60419091Y-63622517D01*
X60411793Y-63602951D01*
X60368797Y-63487671D01*
X60368793Y-63487664D01*
X60282547Y-63372455D01*
X60282544Y-63372452D01*
X60167335Y-63286206D01*
X60167328Y-63286202D01*
X60032482Y-63235908D01*
X60032483Y-63235908D01*
X59972883Y-63229501D01*
X59972881Y-63229500D01*
X59972873Y-63229500D01*
X59972864Y-63229500D01*
X58177129Y-63229500D01*
X58177123Y-63229501D01*
X58117516Y-63235908D01*
X57982671Y-63286202D01*
X57982664Y-63286206D01*
X57867455Y-63372452D01*
X57867452Y-63372455D01*
X57781206Y-63487664D01*
X57781202Y-63487671D01*
X57730908Y-63622517D01*
X57725857Y-63669503D01*
X57724501Y-63682123D01*
X57724500Y-63682135D01*
X57724500Y-65477870D01*
X57724501Y-65477876D01*
X57730908Y-65537483D01*
X57781202Y-65672328D01*
X57781206Y-65672335D01*
X57867452Y-65787544D01*
X57867455Y-65787547D01*
X57982664Y-65873793D01*
X57982671Y-65873797D01*
X58114081Y-65922810D01*
X58170015Y-65964681D01*
X58194432Y-66030145D01*
X58179580Y-66098418D01*
X58158430Y-66126673D01*
X58036503Y-66248600D01*
X57900965Y-66442169D01*
X57900964Y-66442171D01*
X57801098Y-66656335D01*
X57801094Y-66656344D01*
X57739938Y-66884586D01*
X57739936Y-66884596D01*
X57719341Y-67119999D01*
X40500500Y-67119999D01*
X40500500Y-62199996D01*
X63594435Y-62199996D01*
X63594435Y-62200003D01*
X63614630Y-62379249D01*
X63614631Y-62379254D01*
X63674211Y-62549523D01*
X63712994Y-62611245D01*
X63770184Y-62702262D01*
X63897738Y-62829816D01*
X64050478Y-62925789D01*
X64220745Y-62985368D01*
X64220750Y-62985369D01*
X64399996Y-63005565D01*
X64400000Y-63005565D01*
X64400004Y-63005565D01*
X64579249Y-62985369D01*
X64579252Y-62985368D01*
X64579255Y-62985368D01*
X64749522Y-62925789D01*
X64902262Y-62829816D01*
X65029816Y-62702262D01*
X65125789Y-62549522D01*
X65185368Y-62379255D01*
X65205565Y-62200000D01*
X65193844Y-62095973D01*
X65185369Y-62020750D01*
X65185368Y-62020745D01*
X65125789Y-61850478D01*
X65029816Y-61697738D01*
X64902262Y-61570184D01*
X64749523Y-61474211D01*
X64579254Y-61414631D01*
X64579249Y-61414630D01*
X64400004Y-61394435D01*
X64399996Y-61394435D01*
X64220750Y-61414630D01*
X64220745Y-61414631D01*
X64050476Y-61474211D01*
X63897737Y-61570184D01*
X63770184Y-61697737D01*
X63674211Y-61850476D01*
X63614631Y-62020745D01*
X63614630Y-62020750D01*
X63594435Y-62199996D01*
X40500500Y-62199996D01*
X40500500Y-61299996D01*
X55494435Y-61299996D01*
X55494435Y-61300003D01*
X55514630Y-61479249D01*
X55514631Y-61479254D01*
X55574211Y-61649523D01*
X55604507Y-61697738D01*
X55670184Y-61802262D01*
X55797738Y-61929816D01*
X55888080Y-61986582D01*
X55942450Y-62020745D01*
X55950478Y-62025789D01*
X56120745Y-62085368D01*
X56120750Y-62085369D01*
X56299996Y-62105565D01*
X56300000Y-62105565D01*
X56300004Y-62105565D01*
X56479249Y-62085369D01*
X56479252Y-62085368D01*
X56479255Y-62085368D01*
X56649522Y-62025789D01*
X56802262Y-61929816D01*
X56929816Y-61802262D01*
X57025789Y-61649522D01*
X57085368Y-61479255D01*
X57085369Y-61479249D01*
X57105565Y-61300003D01*
X57105565Y-61299996D01*
X57085369Y-61120750D01*
X57085368Y-61120745D01*
X57056305Y-61037688D01*
X57025789Y-60950478D01*
X56929816Y-60797738D01*
X56802262Y-60670184D01*
X56699422Y-60605565D01*
X56649523Y-60574211D01*
X56479254Y-60514631D01*
X56479249Y-60514630D01*
X56300004Y-60494435D01*
X56299996Y-60494435D01*
X56120750Y-60514630D01*
X56120745Y-60514631D01*
X55950476Y-60574211D01*
X55797737Y-60670184D01*
X55670184Y-60797737D01*
X55574211Y-60950476D01*
X55514631Y-61120745D01*
X55514630Y-61120750D01*
X55494435Y-61299996D01*
X40500500Y-61299996D01*
X40500500Y-59799996D01*
X63594435Y-59799996D01*
X63594435Y-59800003D01*
X63614630Y-59979249D01*
X63614631Y-59979254D01*
X63674211Y-60149523D01*
X63754061Y-60276602D01*
X63770184Y-60302262D01*
X63897738Y-60429816D01*
X63961385Y-60469808D01*
X64032721Y-60514632D01*
X64050478Y-60525789D01*
X64188860Y-60574211D01*
X64220745Y-60585368D01*
X64220750Y-60585369D01*
X64399996Y-60605565D01*
X64400000Y-60605565D01*
X64400004Y-60605565D01*
X64579249Y-60585369D01*
X64579252Y-60585368D01*
X64579255Y-60585368D01*
X64749522Y-60525789D01*
X64902262Y-60429816D01*
X65029816Y-60302262D01*
X65125789Y-60149522D01*
X65185368Y-59979255D01*
X65205565Y-59800000D01*
X65185368Y-59620745D01*
X65125789Y-59450478D01*
X65029816Y-59297738D01*
X64902262Y-59170184D01*
X64806784Y-59110191D01*
X64749523Y-59074211D01*
X64579254Y-59014631D01*
X64579249Y-59014630D01*
X64400004Y-58994435D01*
X64399996Y-58994435D01*
X64220750Y-59014630D01*
X64220745Y-59014631D01*
X64050476Y-59074211D01*
X63897737Y-59170184D01*
X63770184Y-59297737D01*
X63674211Y-59450476D01*
X63614631Y-59620745D01*
X63614630Y-59620750D01*
X63594435Y-59799996D01*
X40500500Y-59799996D01*
X40500500Y-55874038D01*
X50499500Y-55874038D01*
X50499500Y-56125962D01*
X50518753Y-56247521D01*
X50538910Y-56374785D01*
X50616760Y-56614383D01*
X50731132Y-56838848D01*
X50879201Y-57042649D01*
X50879205Y-57042654D01*
X51057345Y-57220794D01*
X51057350Y-57220798D01*
X51235117Y-57349952D01*
X51261155Y-57368870D01*
X51404184Y-57441747D01*
X51485616Y-57483239D01*
X51485618Y-57483239D01*
X51485621Y-57483241D01*
X51725215Y-57561090D01*
X51974038Y-57600500D01*
X51974039Y-57600500D01*
X52225961Y-57600500D01*
X52225962Y-57600500D01*
X52474785Y-57561090D01*
X52714379Y-57483241D01*
X52938845Y-57368870D01*
X53142656Y-57220793D01*
X53163453Y-57199996D01*
X63594435Y-57199996D01*
X63594435Y-57200003D01*
X63614630Y-57379249D01*
X63614631Y-57379254D01*
X63674211Y-57549523D01*
X63770184Y-57702262D01*
X63897738Y-57829816D01*
X64050478Y-57925789D01*
X64220745Y-57985368D01*
X64220750Y-57985369D01*
X64399996Y-58005565D01*
X64400000Y-58005565D01*
X64400004Y-58005565D01*
X64579249Y-57985369D01*
X64579252Y-57985368D01*
X64579255Y-57985368D01*
X64749522Y-57925789D01*
X64902262Y-57829816D01*
X65029816Y-57702262D01*
X65125789Y-57549522D01*
X65185368Y-57379255D01*
X65186538Y-57368870D01*
X65205565Y-57200003D01*
X65205565Y-57199996D01*
X65185369Y-57020750D01*
X65185368Y-57020745D01*
X65125788Y-56850476D01*
X65029815Y-56697737D01*
X64902262Y-56570184D01*
X64749523Y-56474211D01*
X64579254Y-56414631D01*
X64579249Y-56414630D01*
X64400004Y-56394435D01*
X64399996Y-56394435D01*
X64220750Y-56414630D01*
X64220745Y-56414631D01*
X64050476Y-56474211D01*
X63897737Y-56570184D01*
X63770184Y-56697737D01*
X63674211Y-56850476D01*
X63614631Y-57020745D01*
X63614630Y-57020750D01*
X63594435Y-57199996D01*
X53163453Y-57199996D01*
X53320793Y-57042656D01*
X53468870Y-56838845D01*
X53583241Y-56614379D01*
X53661090Y-56374785D01*
X53700500Y-56125962D01*
X53700500Y-55874038D01*
X53661090Y-55625215D01*
X53583241Y-55385621D01*
X53583239Y-55385618D01*
X53583239Y-55385616D01*
X53503854Y-55229816D01*
X53468870Y-55161155D01*
X53426082Y-55102262D01*
X53320798Y-54957350D01*
X53320794Y-54957345D01*
X53142654Y-54779205D01*
X53142649Y-54779201D01*
X52938848Y-54631132D01*
X52938847Y-54631131D01*
X52938845Y-54631130D01*
X52877742Y-54599996D01*
X63594435Y-54599996D01*
X63594435Y-54600003D01*
X63614630Y-54779249D01*
X63614631Y-54779254D01*
X63674211Y-54949523D01*
X63700427Y-54991245D01*
X63770184Y-55102262D01*
X63897738Y-55229816D01*
X64050478Y-55325789D01*
X64220745Y-55385368D01*
X64220750Y-55385369D01*
X64399996Y-55405565D01*
X64400000Y-55405565D01*
X64400004Y-55405565D01*
X64579249Y-55385369D01*
X64579252Y-55385368D01*
X64579255Y-55385368D01*
X64749522Y-55325789D01*
X64902262Y-55229816D01*
X65029816Y-55102262D01*
X65125789Y-54949522D01*
X65185368Y-54779255D01*
X65185369Y-54779249D01*
X65205565Y-54600003D01*
X65205565Y-54599996D01*
X65185369Y-54420750D01*
X65185368Y-54420745D01*
X65125788Y-54250476D01*
X65029815Y-54097737D01*
X64902262Y-53970184D01*
X64749523Y-53874211D01*
X64579254Y-53814631D01*
X64579249Y-53814630D01*
X64400004Y-53794435D01*
X64399996Y-53794435D01*
X64220750Y-53814630D01*
X64220745Y-53814631D01*
X64050476Y-53874211D01*
X63897737Y-53970184D01*
X63770184Y-54097737D01*
X63674211Y-54250476D01*
X63614631Y-54420745D01*
X63614630Y-54420750D01*
X63594435Y-54599996D01*
X52877742Y-54599996D01*
X52868747Y-54595413D01*
X52714383Y-54516760D01*
X52474785Y-54438910D01*
X52360128Y-54420750D01*
X52225962Y-54399500D01*
X51974038Y-54399500D01*
X51849626Y-54419205D01*
X51725214Y-54438910D01*
X51485616Y-54516760D01*
X51261151Y-54631132D01*
X51057350Y-54779201D01*
X51057345Y-54779205D01*
X50879205Y-54957345D01*
X50879201Y-54957350D01*
X50731132Y-55161151D01*
X50616760Y-55385616D01*
X50558843Y-55563867D01*
X50538910Y-55625215D01*
X50499500Y-55874038D01*
X40500500Y-55874038D01*
X40500500Y-52199996D01*
X63594435Y-52199996D01*
X63594435Y-52200003D01*
X63614630Y-52379249D01*
X63614631Y-52379254D01*
X63674211Y-52549523D01*
X63741494Y-52656602D01*
X63770184Y-52702262D01*
X63897738Y-52829816D01*
X64050478Y-52925789D01*
X64220745Y-52985368D01*
X64220750Y-52985369D01*
X64399996Y-53005565D01*
X64400000Y-53005565D01*
X64400004Y-53005565D01*
X64579249Y-52985369D01*
X64579252Y-52985368D01*
X64579255Y-52985368D01*
X64749522Y-52925789D01*
X64902262Y-52829816D01*
X65029816Y-52702262D01*
X65125789Y-52549522D01*
X65185368Y-52379255D01*
X65205565Y-52200000D01*
X65185368Y-52020745D01*
X65125789Y-51850478D01*
X65029816Y-51697738D01*
X64902262Y-51570184D01*
X64887787Y-51561089D01*
X64749523Y-51474211D01*
X64579254Y-51414631D01*
X64579249Y-51414630D01*
X64400004Y-51394435D01*
X64399996Y-51394435D01*
X64220750Y-51414630D01*
X64220745Y-51414631D01*
X64050476Y-51474211D01*
X63897737Y-51570184D01*
X63770184Y-51697737D01*
X63674211Y-51850476D01*
X63614631Y-52020745D01*
X63614630Y-52020750D01*
X63594435Y-52199996D01*
X40500500Y-52199996D01*
X40500500Y-50002706D01*
X40500618Y-49997297D01*
X40504377Y-49911191D01*
X40505999Y-49874038D01*
X43399500Y-49874038D01*
X43399500Y-50125962D01*
X43400140Y-50130000D01*
X43438910Y-50374785D01*
X43516760Y-50614383D01*
X43585780Y-50749841D01*
X43629406Y-50835462D01*
X43631132Y-50838848D01*
X43779201Y-51042649D01*
X43779205Y-51042654D01*
X43957345Y-51220794D01*
X43957350Y-51220798D01*
X44088567Y-51316132D01*
X44161155Y-51368870D01*
X44304184Y-51441747D01*
X44385616Y-51483239D01*
X44385618Y-51483239D01*
X44385621Y-51483241D01*
X44625215Y-51561090D01*
X44874038Y-51600500D01*
X44874039Y-51600500D01*
X45125961Y-51600500D01*
X45125962Y-51600500D01*
X45374785Y-51561090D01*
X45614379Y-51483241D01*
X45838845Y-51368870D01*
X46042656Y-51220793D01*
X46220793Y-51042656D01*
X46368870Y-50838845D01*
X46483241Y-50614379D01*
X46561090Y-50374785D01*
X46600500Y-50125962D01*
X46600500Y-49874038D01*
X46561090Y-49625215D01*
X46520404Y-49499996D01*
X63594435Y-49499996D01*
X63594435Y-49500003D01*
X63614630Y-49679249D01*
X63614631Y-49679254D01*
X63674211Y-49849523D01*
X63767064Y-49997297D01*
X63770184Y-50002262D01*
X63897738Y-50129816D01*
X64050478Y-50225789D01*
X64220745Y-50285368D01*
X64220750Y-50285369D01*
X64399996Y-50305565D01*
X64400000Y-50305565D01*
X64400004Y-50305565D01*
X64579249Y-50285369D01*
X64579252Y-50285368D01*
X64579255Y-50285368D01*
X64749522Y-50225789D01*
X64902262Y-50129816D01*
X65029816Y-50002262D01*
X65125789Y-49849522D01*
X65185368Y-49679255D01*
X65193414Y-49607843D01*
X65205565Y-49500003D01*
X65205565Y-49499996D01*
X65185369Y-49320750D01*
X65185368Y-49320745D01*
X65149650Y-49218670D01*
X65125789Y-49150478D01*
X65121431Y-49143543D01*
X65029815Y-48997737D01*
X64902262Y-48870184D01*
X64749523Y-48774211D01*
X64579254Y-48714631D01*
X64579249Y-48714630D01*
X64400004Y-48694435D01*
X64399996Y-48694435D01*
X64220750Y-48714630D01*
X64220745Y-48714631D01*
X64050476Y-48774211D01*
X63897737Y-48870184D01*
X63770184Y-48997737D01*
X63674211Y-49150476D01*
X63614631Y-49320745D01*
X63614630Y-49320750D01*
X63594435Y-49499996D01*
X46520404Y-49499996D01*
X46483241Y-49385621D01*
X46483239Y-49385618D01*
X46483239Y-49385616D01*
X46441747Y-49304184D01*
X46368870Y-49161155D01*
X46250141Y-48997738D01*
X46220798Y-48957350D01*
X46220794Y-48957345D01*
X46042654Y-48779205D01*
X46042649Y-48779201D01*
X45838848Y-48631132D01*
X45838847Y-48631131D01*
X45838845Y-48631130D01*
X45768747Y-48595413D01*
X45614383Y-48516760D01*
X45374785Y-48438910D01*
X45125962Y-48399500D01*
X44874038Y-48399500D01*
X44749626Y-48419205D01*
X44625214Y-48438910D01*
X44385616Y-48516760D01*
X44161151Y-48631132D01*
X43957350Y-48779201D01*
X43957345Y-48779205D01*
X43779205Y-48957345D01*
X43779201Y-48957350D01*
X43631132Y-49161151D01*
X43516760Y-49385616D01*
X43442798Y-49613249D01*
X43438910Y-49625215D01*
X43399500Y-49874038D01*
X40505999Y-49874038D01*
X40517386Y-49613226D01*
X40518326Y-49602495D01*
X40568152Y-49224025D01*
X40570025Y-49213405D01*
X40652649Y-48840709D01*
X40655440Y-48830295D01*
X40770230Y-48466227D01*
X40773917Y-48456095D01*
X40920003Y-48103412D01*
X40924561Y-48093638D01*
X41100822Y-47755045D01*
X41106217Y-47745700D01*
X41311325Y-47423744D01*
X41317515Y-47414905D01*
X41549896Y-47112060D01*
X41556834Y-47103791D01*
X41651945Y-46999996D01*
X63594435Y-46999996D01*
X63594435Y-47000003D01*
X63614630Y-47179249D01*
X63614631Y-47179254D01*
X63674211Y-47349523D01*
X63770184Y-47502262D01*
X63897738Y-47629816D01*
X64050478Y-47725789D01*
X64220745Y-47785368D01*
X64220750Y-47785369D01*
X64399996Y-47805565D01*
X64400000Y-47805565D01*
X64400004Y-47805565D01*
X64579249Y-47785369D01*
X64579252Y-47785368D01*
X64579255Y-47785368D01*
X64749522Y-47725789D01*
X64902262Y-47629816D01*
X65029816Y-47502262D01*
X65125789Y-47349522D01*
X65185368Y-47179255D01*
X65205565Y-47000000D01*
X65189337Y-46855973D01*
X65189336Y-46855962D01*
X69079500Y-46855962D01*
X69079500Y-47324038D01*
X69081018Y-47349522D01*
X69082312Y-47371250D01*
X69126984Y-47576602D01*
X69126987Y-47576613D01*
X69209718Y-47769808D01*
X69209720Y-47769811D01*
X69209721Y-47769813D01*
X69327523Y-47943865D01*
X69476135Y-48092477D01*
X69650187Y-48210279D01*
X69650192Y-48210281D01*
X69733630Y-48246012D01*
X69787508Y-48290497D01*
X69808782Y-48357050D01*
X69790698Y-48424538D01*
X69738998Y-48471537D01*
X69733630Y-48473988D01*
X69650192Y-48509718D01*
X69650188Y-48509720D01*
X69650187Y-48509721D01*
X69639787Y-48516760D01*
X69476137Y-48627521D01*
X69476132Y-48627525D01*
X69327525Y-48776132D01*
X69327521Y-48776137D01*
X69209718Y-48950191D01*
X69126987Y-49143386D01*
X69126984Y-49143397D01*
X69082312Y-49348749D01*
X69082308Y-49348821D01*
X69079500Y-49395962D01*
X69079500Y-49864038D01*
X69080096Y-49874038D01*
X69082312Y-49911250D01*
X69126984Y-50116602D01*
X69126987Y-50116613D01*
X69209718Y-50309808D01*
X69209720Y-50309811D01*
X69209721Y-50309813D01*
X69327523Y-50483865D01*
X69476135Y-50632477D01*
X69650187Y-50750279D01*
X69650192Y-50750281D01*
X69733630Y-50786012D01*
X69787508Y-50830497D01*
X69808782Y-50897050D01*
X69790698Y-50964538D01*
X69738998Y-51011537D01*
X69733630Y-51013988D01*
X69650192Y-51049718D01*
X69650188Y-51049720D01*
X69650187Y-51049721D01*
X69585313Y-51093628D01*
X69476137Y-51167521D01*
X69476132Y-51167525D01*
X69327525Y-51316132D01*
X69327521Y-51316137D01*
X69209718Y-51490191D01*
X69126987Y-51683386D01*
X69126984Y-51683397D01*
X69082312Y-51888749D01*
X69082312Y-51888755D01*
X69079500Y-51935962D01*
X69079500Y-52404038D01*
X69081484Y-52437360D01*
X69082312Y-52451250D01*
X69126984Y-52656602D01*
X69126987Y-52656613D01*
X69209718Y-52849808D01*
X69209720Y-52849811D01*
X69209721Y-52849813D01*
X69327523Y-53023865D01*
X69476135Y-53172477D01*
X69650187Y-53290279D01*
X69650192Y-53290281D01*
X69733630Y-53326012D01*
X69787508Y-53370497D01*
X69808782Y-53437050D01*
X69790698Y-53504538D01*
X69738998Y-53551537D01*
X69733630Y-53553988D01*
X69650192Y-53589718D01*
X69650188Y-53589720D01*
X69650187Y-53589721D01*
X69585313Y-53633628D01*
X69476137Y-53707521D01*
X69476132Y-53707525D01*
X69327525Y-53856132D01*
X69327521Y-53856137D01*
X69209718Y-54030191D01*
X69126987Y-54223386D01*
X69126984Y-54223397D01*
X69082312Y-54428749D01*
X69082312Y-54428755D01*
X69079500Y-54475962D01*
X69079500Y-54944038D01*
X69079827Y-54949522D01*
X69082312Y-54991250D01*
X69126984Y-55196602D01*
X69126987Y-55196613D01*
X69209718Y-55389808D01*
X69209720Y-55389811D01*
X69209721Y-55389813D01*
X69327523Y-55563865D01*
X69476135Y-55712477D01*
X69650187Y-55830279D01*
X69650192Y-55830281D01*
X69733630Y-55866012D01*
X69787508Y-55910497D01*
X69808782Y-55977050D01*
X69790698Y-56044538D01*
X69738998Y-56091537D01*
X69733630Y-56093988D01*
X69650192Y-56129718D01*
X69650188Y-56129720D01*
X69650187Y-56129721D01*
X69585313Y-56173628D01*
X69476137Y-56247521D01*
X69476132Y-56247525D01*
X69327525Y-56396132D01*
X69327521Y-56396137D01*
X69209718Y-56570191D01*
X69126987Y-56763386D01*
X69126984Y-56763397D01*
X69082312Y-56968749D01*
X69082312Y-56968755D01*
X69079500Y-57015962D01*
X69079500Y-57484038D01*
X69081484Y-57517360D01*
X69082312Y-57531250D01*
X69126984Y-57736602D01*
X69126987Y-57736613D01*
X69209718Y-57929808D01*
X69209720Y-57929811D01*
X69209721Y-57929813D01*
X69327523Y-58103865D01*
X69476135Y-58252477D01*
X69650187Y-58370279D01*
X69650192Y-58370281D01*
X69733630Y-58406012D01*
X69787508Y-58450497D01*
X69808782Y-58517050D01*
X69790698Y-58584538D01*
X69738998Y-58631537D01*
X69733630Y-58633988D01*
X69650192Y-58669718D01*
X69650188Y-58669720D01*
X69650187Y-58669721D01*
X69585313Y-58713628D01*
X69476137Y-58787521D01*
X69476132Y-58787525D01*
X69327525Y-58936132D01*
X69327521Y-58936137D01*
X69209718Y-59110191D01*
X69126987Y-59303386D01*
X69126984Y-59303397D01*
X69082312Y-59508749D01*
X69082312Y-59508755D01*
X69079500Y-59555962D01*
X69079500Y-60024038D01*
X69081484Y-60057360D01*
X69082312Y-60071250D01*
X69126984Y-60276602D01*
X69126987Y-60276613D01*
X69209718Y-60469808D01*
X69209720Y-60469811D01*
X69209721Y-60469813D01*
X69327523Y-60643865D01*
X69476135Y-60792477D01*
X69650187Y-60910279D01*
X69650192Y-60910281D01*
X69733630Y-60946012D01*
X69787508Y-60990497D01*
X69808782Y-61057050D01*
X69790698Y-61124538D01*
X69738998Y-61171537D01*
X69733630Y-61173988D01*
X69650192Y-61209718D01*
X69650188Y-61209720D01*
X69650187Y-61209721D01*
X69585313Y-61253628D01*
X69476137Y-61327521D01*
X69476132Y-61327525D01*
X69327525Y-61476132D01*
X69327521Y-61476137D01*
X69209718Y-61650191D01*
X69126987Y-61843386D01*
X69126984Y-61843397D01*
X69082312Y-62048749D01*
X69082312Y-62048755D01*
X69079500Y-62095962D01*
X69079500Y-62564038D01*
X69081484Y-62597360D01*
X69082312Y-62611250D01*
X69126984Y-62816602D01*
X69126987Y-62816613D01*
X69209718Y-63009808D01*
X69209720Y-63009811D01*
X69209721Y-63009813D01*
X69327523Y-63183865D01*
X69476135Y-63332477D01*
X69650187Y-63450279D01*
X69650192Y-63450281D01*
X69733630Y-63486012D01*
X69787508Y-63530497D01*
X69808782Y-63597050D01*
X69790698Y-63664538D01*
X69738998Y-63711537D01*
X69733630Y-63713988D01*
X69650192Y-63749718D01*
X69650188Y-63749720D01*
X69650187Y-63749721D01*
X69585313Y-63793628D01*
X69476137Y-63867521D01*
X69476132Y-63867525D01*
X69327525Y-64016132D01*
X69327521Y-64016137D01*
X69209718Y-64190191D01*
X69126987Y-64383386D01*
X69126984Y-64383397D01*
X69082312Y-64588749D01*
X69082312Y-64588755D01*
X69079500Y-64635962D01*
X69079500Y-65104038D01*
X69081484Y-65137360D01*
X69082312Y-65151250D01*
X69126984Y-65356602D01*
X69126987Y-65356613D01*
X69209718Y-65549808D01*
X69209720Y-65549811D01*
X69209721Y-65549813D01*
X69327523Y-65723865D01*
X69476135Y-65872477D01*
X69650187Y-65990279D01*
X69671770Y-65999521D01*
X69733630Y-66026012D01*
X69787508Y-66070497D01*
X69808782Y-66137050D01*
X69790698Y-66204538D01*
X69738998Y-66251537D01*
X69733630Y-66253988D01*
X69650192Y-66289718D01*
X69650188Y-66289720D01*
X69650187Y-66289721D01*
X69585313Y-66333628D01*
X69476137Y-66407521D01*
X69476132Y-66407525D01*
X69327525Y-66556132D01*
X69327521Y-66556137D01*
X69209718Y-66730191D01*
X69126987Y-66923386D01*
X69126984Y-66923397D01*
X69082312Y-67128749D01*
X69082312Y-67128755D01*
X69079500Y-67175962D01*
X69079500Y-67644038D01*
X69080987Y-67668993D01*
X69082312Y-67691250D01*
X69126984Y-67896602D01*
X69126987Y-67896613D01*
X69209718Y-68089808D01*
X69209720Y-68089811D01*
X69209721Y-68089813D01*
X69327523Y-68263865D01*
X69476135Y-68412477D01*
X69650187Y-68530279D01*
X69650189Y-68530280D01*
X69650191Y-68530281D01*
X69778987Y-68585435D01*
X69843388Y-68613013D01*
X69843396Y-68613014D01*
X69843397Y-68613015D01*
X70048749Y-68657687D01*
X70048750Y-68657687D01*
X70048755Y-68657688D01*
X70095962Y-68660500D01*
X70095973Y-68660500D01*
X72564027Y-68660500D01*
X72564038Y-68660500D01*
X72611245Y-68657688D01*
X72816612Y-68613013D01*
X73009813Y-68530279D01*
X73183865Y-68412477D01*
X73332477Y-68263865D01*
X73450279Y-68089813D01*
X73533013Y-67896612D01*
X73569760Y-67727690D01*
X73577687Y-67691250D01*
X73577687Y-67691249D01*
X73577688Y-67691245D01*
X73580500Y-67644038D01*
X73580500Y-67175962D01*
X73577688Y-67128755D01*
X73575783Y-67120000D01*
X73533015Y-66923397D01*
X73533012Y-66923386D01*
X73450281Y-66730191D01*
X73450280Y-66730189D01*
X73450279Y-66730187D01*
X73332477Y-66556135D01*
X73183865Y-66407523D01*
X73009813Y-66289721D01*
X73009811Y-66289720D01*
X73009808Y-66289718D01*
X72926369Y-66253988D01*
X72872492Y-66209503D01*
X72851217Y-66142951D01*
X72869301Y-66075462D01*
X72921001Y-66028463D01*
X72926369Y-66026012D01*
X73009813Y-65990279D01*
X73183865Y-65872477D01*
X73332477Y-65723865D01*
X73450279Y-65549813D01*
X73533013Y-65356612D01*
X73577688Y-65151245D01*
X73580500Y-65104038D01*
X73580500Y-64635962D01*
X73577688Y-64588755D01*
X73533013Y-64383388D01*
X73450279Y-64190187D01*
X73332477Y-64016135D01*
X73183865Y-63867523D01*
X73009813Y-63749721D01*
X73009811Y-63749720D01*
X73009808Y-63749718D01*
X72926369Y-63713988D01*
X72872492Y-63669503D01*
X72851217Y-63602951D01*
X72869301Y-63535462D01*
X72921001Y-63488463D01*
X72926369Y-63486012D01*
X73009808Y-63450281D01*
X73009807Y-63450281D01*
X73009813Y-63450279D01*
X73183865Y-63332477D01*
X73332477Y-63183865D01*
X73450279Y-63009813D01*
X73533013Y-62816612D01*
X73577688Y-62611245D01*
X73580500Y-62564038D01*
X73580500Y-62095962D01*
X73577688Y-62048755D01*
X73533013Y-61843388D01*
X73450279Y-61650187D01*
X73332477Y-61476135D01*
X73183865Y-61327523D01*
X73009813Y-61209721D01*
X73009811Y-61209720D01*
X73009808Y-61209718D01*
X72926369Y-61173988D01*
X72872492Y-61129503D01*
X72851217Y-61062951D01*
X72869301Y-60995462D01*
X72921001Y-60948463D01*
X72926369Y-60946012D01*
X73009808Y-60910281D01*
X73009807Y-60910281D01*
X73009813Y-60910279D01*
X73183865Y-60792477D01*
X73332477Y-60643865D01*
X73450279Y-60469813D01*
X73533013Y-60276612D01*
X73577688Y-60071245D01*
X73580500Y-60024038D01*
X73580500Y-59555962D01*
X73577688Y-59508755D01*
X73533013Y-59303388D01*
X73505435Y-59238987D01*
X73450281Y-59110191D01*
X73450280Y-59110189D01*
X73450279Y-59110187D01*
X73332477Y-58936135D01*
X73183865Y-58787523D01*
X73009813Y-58669721D01*
X73009811Y-58669720D01*
X73009808Y-58669718D01*
X72926369Y-58633988D01*
X72872492Y-58589503D01*
X72851217Y-58522951D01*
X72869301Y-58455462D01*
X72921001Y-58408463D01*
X72926369Y-58406012D01*
X73009808Y-58370281D01*
X73009807Y-58370281D01*
X73009813Y-58370279D01*
X73183865Y-58252477D01*
X73332477Y-58103865D01*
X73450279Y-57929813D01*
X73533013Y-57736612D01*
X73577688Y-57531245D01*
X73580500Y-57484038D01*
X73580500Y-57015962D01*
X73577688Y-56968755D01*
X73549428Y-56838848D01*
X73533015Y-56763397D01*
X73533012Y-56763386D01*
X73450281Y-56570191D01*
X73450280Y-56570189D01*
X73450279Y-56570187D01*
X73332477Y-56396135D01*
X73183865Y-56247523D01*
X73009813Y-56129721D01*
X73009811Y-56129720D01*
X73009808Y-56129718D01*
X72926369Y-56093988D01*
X72872492Y-56049503D01*
X72851217Y-55982951D01*
X72869301Y-55915462D01*
X72921001Y-55868463D01*
X72926369Y-55866012D01*
X73009808Y-55830281D01*
X73009807Y-55830281D01*
X73009813Y-55830279D01*
X73183865Y-55712477D01*
X73332477Y-55563865D01*
X73450279Y-55389813D01*
X73533013Y-55196612D01*
X73577688Y-54991245D01*
X73580500Y-54944038D01*
X73580500Y-54475962D01*
X73577688Y-54428755D01*
X73533013Y-54223388D01*
X73450279Y-54030187D01*
X73332477Y-53856135D01*
X73183865Y-53707523D01*
X73009813Y-53589721D01*
X73009811Y-53589720D01*
X73009808Y-53589718D01*
X72926369Y-53553988D01*
X72872492Y-53509503D01*
X72851217Y-53442951D01*
X72869301Y-53375462D01*
X72921001Y-53328463D01*
X72926369Y-53326012D01*
X73009808Y-53290281D01*
X73009807Y-53290281D01*
X73009813Y-53290279D01*
X73183865Y-53172477D01*
X73332477Y-53023865D01*
X73450279Y-52849813D01*
X73533013Y-52656612D01*
X73577688Y-52451245D01*
X73580500Y-52404038D01*
X73580500Y-51935962D01*
X73577688Y-51888755D01*
X73569361Y-51850478D01*
X73533015Y-51683397D01*
X73533012Y-51683386D01*
X73450281Y-51490191D01*
X73450280Y-51490189D01*
X73450279Y-51490187D01*
X73332477Y-51316135D01*
X73183865Y-51167523D01*
X73009813Y-51049721D01*
X73009811Y-51049720D01*
X73009808Y-51049718D01*
X72926369Y-51013988D01*
X72872492Y-50969503D01*
X72851217Y-50902951D01*
X72869301Y-50835462D01*
X72921001Y-50788463D01*
X72926369Y-50786012D01*
X73009808Y-50750281D01*
X73009807Y-50750281D01*
X73009813Y-50750279D01*
X73183865Y-50632477D01*
X73332477Y-50483865D01*
X73450279Y-50309813D01*
X73533013Y-50116612D01*
X73572084Y-49937007D01*
X73577687Y-49911250D01*
X73577687Y-49911249D01*
X73577688Y-49911245D01*
X73580500Y-49864038D01*
X73580500Y-49395962D01*
X73577688Y-49348755D01*
X73571225Y-49319047D01*
X73533015Y-49143397D01*
X73533012Y-49143386D01*
X73450281Y-48950191D01*
X73450280Y-48950189D01*
X73450279Y-48950187D01*
X73332477Y-48776135D01*
X73183865Y-48627523D01*
X73009813Y-48509721D01*
X73009811Y-48509720D01*
X73009808Y-48509718D01*
X72926369Y-48473988D01*
X72872492Y-48429503D01*
X72851217Y-48362951D01*
X72869301Y-48295462D01*
X72921001Y-48248463D01*
X72926369Y-48246012D01*
X73009808Y-48210281D01*
X73009807Y-48210281D01*
X73009813Y-48210279D01*
X73183865Y-48092477D01*
X73332477Y-47943865D01*
X73450279Y-47769813D01*
X73533013Y-47576612D01*
X73577688Y-47371245D01*
X73580500Y-47324038D01*
X73580500Y-46855962D01*
X86419500Y-46855962D01*
X86419500Y-47324038D01*
X86421018Y-47349522D01*
X86422312Y-47371250D01*
X86466984Y-47576602D01*
X86466987Y-47576613D01*
X86549718Y-47769808D01*
X86549720Y-47769811D01*
X86549721Y-47769813D01*
X86667523Y-47943865D01*
X86816135Y-48092477D01*
X86990187Y-48210279D01*
X86990191Y-48210280D01*
X86990193Y-48210282D01*
X87074263Y-48246283D01*
X87128141Y-48290768D01*
X87149416Y-48357320D01*
X87131332Y-48424809D01*
X87079632Y-48471808D01*
X87074265Y-48474259D01*
X86990431Y-48510159D01*
X86816453Y-48627910D01*
X86667910Y-48776453D01*
X86550158Y-48950433D01*
X86467465Y-49143537D01*
X86467463Y-49143543D01*
X86422811Y-49348809D01*
X86422810Y-49348821D01*
X86420953Y-49380000D01*
X87186988Y-49380000D01*
X87154075Y-49437007D01*
X87120000Y-49564174D01*
X87120000Y-49695826D01*
X87154075Y-49822993D01*
X87186988Y-49880000D01*
X86420955Y-49880000D01*
X86422812Y-49911191D01*
X86467463Y-50116454D01*
X86467465Y-50116462D01*
X86550158Y-50309566D01*
X86667910Y-50483546D01*
X86816453Y-50632089D01*
X86990433Y-50749841D01*
X87074264Y-50785740D01*
X87128142Y-50830225D01*
X87149416Y-50896777D01*
X87131332Y-50964266D01*
X87079632Y-51011265D01*
X87074265Y-51013716D01*
X86990190Y-51049719D01*
X86816137Y-51167521D01*
X86816132Y-51167525D01*
X86667525Y-51316132D01*
X86667521Y-51316137D01*
X86549718Y-51490191D01*
X86466987Y-51683386D01*
X86466984Y-51683397D01*
X86422312Y-51888749D01*
X86422312Y-51888755D01*
X86419500Y-51935962D01*
X86419500Y-52404038D01*
X86421484Y-52437360D01*
X86422312Y-52451250D01*
X86466984Y-52656602D01*
X86466987Y-52656613D01*
X86549718Y-52849808D01*
X86549720Y-52849811D01*
X86549721Y-52849813D01*
X86667523Y-53023865D01*
X86816135Y-53172477D01*
X86990187Y-53290279D01*
X86990192Y-53290281D01*
X87073630Y-53326012D01*
X87127508Y-53370497D01*
X87148782Y-53437050D01*
X87130698Y-53504538D01*
X87078998Y-53551537D01*
X87073630Y-53553988D01*
X86990192Y-53589718D01*
X86990188Y-53589720D01*
X86990187Y-53589721D01*
X86925313Y-53633628D01*
X86816137Y-53707521D01*
X86816132Y-53707525D01*
X86667525Y-53856132D01*
X86667521Y-53856137D01*
X86549718Y-54030191D01*
X86466987Y-54223386D01*
X86466984Y-54223397D01*
X86422312Y-54428749D01*
X86422312Y-54428755D01*
X86419500Y-54475962D01*
X86419500Y-54944038D01*
X86419827Y-54949522D01*
X86422312Y-54991250D01*
X86466984Y-55196602D01*
X86466987Y-55196613D01*
X86549718Y-55389808D01*
X86549720Y-55389811D01*
X86549721Y-55389813D01*
X86667523Y-55563865D01*
X86816135Y-55712477D01*
X86990187Y-55830279D01*
X86990192Y-55830281D01*
X87073630Y-55866012D01*
X87127508Y-55910497D01*
X87148782Y-55977050D01*
X87130698Y-56044538D01*
X87078998Y-56091537D01*
X87073630Y-56093988D01*
X86990192Y-56129718D01*
X86990188Y-56129720D01*
X86990187Y-56129721D01*
X86925313Y-56173628D01*
X86816137Y-56247521D01*
X86816132Y-56247525D01*
X86667525Y-56396132D01*
X86667521Y-56396137D01*
X86549718Y-56570191D01*
X86466987Y-56763386D01*
X86466984Y-56763397D01*
X86422312Y-56968749D01*
X86422312Y-56968755D01*
X86419500Y-57015962D01*
X86419500Y-57484038D01*
X86421484Y-57517360D01*
X86422312Y-57531250D01*
X86466984Y-57736602D01*
X86466987Y-57736613D01*
X86549718Y-57929808D01*
X86549720Y-57929811D01*
X86549721Y-57929813D01*
X86667523Y-58103865D01*
X86816135Y-58252477D01*
X86990187Y-58370279D01*
X86990192Y-58370281D01*
X87073630Y-58406012D01*
X87127508Y-58450497D01*
X87148782Y-58517050D01*
X87130698Y-58584538D01*
X87078998Y-58631537D01*
X87073630Y-58633988D01*
X86990192Y-58669718D01*
X86990188Y-58669720D01*
X86990187Y-58669721D01*
X86925313Y-58713628D01*
X86816137Y-58787521D01*
X86816132Y-58787525D01*
X86667525Y-58936132D01*
X86667521Y-58936137D01*
X86549718Y-59110191D01*
X86466987Y-59303386D01*
X86466984Y-59303397D01*
X86422312Y-59508749D01*
X86422312Y-59508755D01*
X86419500Y-59555962D01*
X86419500Y-60024038D01*
X86421484Y-60057360D01*
X86422312Y-60071250D01*
X86466984Y-60276602D01*
X86466987Y-60276613D01*
X86549718Y-60469808D01*
X86549720Y-60469811D01*
X86549721Y-60469813D01*
X86667523Y-60643865D01*
X86816135Y-60792477D01*
X86990187Y-60910279D01*
X86990192Y-60910281D01*
X87073630Y-60946012D01*
X87127508Y-60990497D01*
X87148782Y-61057050D01*
X87130698Y-61124538D01*
X87078998Y-61171537D01*
X87073630Y-61173988D01*
X86990192Y-61209718D01*
X86990188Y-61209720D01*
X86990187Y-61209721D01*
X86925313Y-61253628D01*
X86816137Y-61327521D01*
X86816132Y-61327525D01*
X86667525Y-61476132D01*
X86667521Y-61476137D01*
X86549718Y-61650191D01*
X86466987Y-61843386D01*
X86466984Y-61843397D01*
X86422312Y-62048749D01*
X86422312Y-62048755D01*
X86419500Y-62095962D01*
X86419500Y-62564038D01*
X86421484Y-62597360D01*
X86422312Y-62611250D01*
X86466984Y-62816602D01*
X86466987Y-62816613D01*
X86549718Y-63009808D01*
X86549720Y-63009811D01*
X86549721Y-63009813D01*
X86667523Y-63183865D01*
X86816135Y-63332477D01*
X86990187Y-63450279D01*
X86990192Y-63450281D01*
X87073630Y-63486012D01*
X87127508Y-63530497D01*
X87148782Y-63597050D01*
X87130698Y-63664538D01*
X87078998Y-63711537D01*
X87073630Y-63713988D01*
X86990192Y-63749718D01*
X86990188Y-63749720D01*
X86990187Y-63749721D01*
X86925313Y-63793628D01*
X86816137Y-63867521D01*
X86816132Y-63867525D01*
X86667525Y-64016132D01*
X86667521Y-64016137D01*
X86549718Y-64190191D01*
X86466987Y-64383386D01*
X86466984Y-64383397D01*
X86422312Y-64588749D01*
X86422312Y-64588755D01*
X86419500Y-64635962D01*
X86419500Y-65104038D01*
X86421484Y-65137360D01*
X86422312Y-65151250D01*
X86466984Y-65356602D01*
X86466987Y-65356613D01*
X86549718Y-65549808D01*
X86549720Y-65549811D01*
X86549721Y-65549813D01*
X86667523Y-65723865D01*
X86816135Y-65872477D01*
X86990187Y-65990279D01*
X87011770Y-65999521D01*
X87073630Y-66026012D01*
X87127508Y-66070497D01*
X87148782Y-66137050D01*
X87130698Y-66204538D01*
X87078998Y-66251537D01*
X87073630Y-66253988D01*
X86990192Y-66289718D01*
X86990188Y-66289720D01*
X86990187Y-66289721D01*
X86925313Y-66333628D01*
X86816137Y-66407521D01*
X86816132Y-66407525D01*
X86667525Y-66556132D01*
X86667521Y-66556137D01*
X86549718Y-66730191D01*
X86466987Y-66923386D01*
X86466984Y-66923397D01*
X86422312Y-67128749D01*
X86422312Y-67128755D01*
X86419500Y-67175962D01*
X86419500Y-67644038D01*
X86420987Y-67668993D01*
X86422312Y-67691250D01*
X86466984Y-67896602D01*
X86466987Y-67896613D01*
X86549718Y-68089808D01*
X86549720Y-68089811D01*
X86549721Y-68089813D01*
X86667523Y-68263865D01*
X86816135Y-68412477D01*
X86990187Y-68530279D01*
X86990189Y-68530280D01*
X86990191Y-68530281D01*
X87118987Y-68585435D01*
X87183388Y-68613013D01*
X87183396Y-68613014D01*
X87183397Y-68613015D01*
X87388749Y-68657687D01*
X87388750Y-68657687D01*
X87388755Y-68657688D01*
X87435962Y-68660500D01*
X87435973Y-68660500D01*
X89904027Y-68660500D01*
X89904038Y-68660500D01*
X89951245Y-68657688D01*
X90156612Y-68613013D01*
X90349813Y-68530279D01*
X90394556Y-68499996D01*
X107294435Y-68499996D01*
X107294435Y-68500003D01*
X107314630Y-68679249D01*
X107314631Y-68679254D01*
X107374211Y-68849523D01*
X107457559Y-68982169D01*
X107470184Y-69002262D01*
X107597738Y-69129816D01*
X107688080Y-69186582D01*
X107703616Y-69196344D01*
X107750478Y-69225789D01*
X107920745Y-69285368D01*
X107920750Y-69285369D01*
X108099996Y-69305565D01*
X108100000Y-69305565D01*
X108100004Y-69305565D01*
X108279249Y-69285369D01*
X108279252Y-69285368D01*
X108279255Y-69285368D01*
X108449522Y-69225789D01*
X108602262Y-69129816D01*
X108729816Y-69002262D01*
X108825789Y-68849522D01*
X108885368Y-68679255D01*
X108891875Y-68621505D01*
X108905565Y-68500003D01*
X108905565Y-68499996D01*
X108885369Y-68320750D01*
X108885368Y-68320745D01*
X108868864Y-68273580D01*
X108825789Y-68150478D01*
X108821788Y-68144111D01*
X108781789Y-68080452D01*
X108729816Y-67997738D01*
X108602262Y-67870184D01*
X108449523Y-67774211D01*
X108279254Y-67714631D01*
X108279249Y-67714630D01*
X108100004Y-67694435D01*
X108099996Y-67694435D01*
X107920750Y-67714630D01*
X107920745Y-67714631D01*
X107750476Y-67774211D01*
X107597737Y-67870184D01*
X107470184Y-67997737D01*
X107374211Y-68150476D01*
X107314631Y-68320745D01*
X107314630Y-68320750D01*
X107294435Y-68499996D01*
X90394556Y-68499996D01*
X90523865Y-68412477D01*
X90672477Y-68263865D01*
X90790279Y-68089813D01*
X90873013Y-67896612D01*
X90909760Y-67727690D01*
X90917687Y-67691250D01*
X90917687Y-67691249D01*
X90917688Y-67691245D01*
X90919013Y-67668995D01*
X117799499Y-67668995D01*
X117826418Y-67804322D01*
X117826421Y-67804332D01*
X117879221Y-67931804D01*
X117879228Y-67931817D01*
X117955885Y-68046541D01*
X117955888Y-68046545D01*
X118053454Y-68144111D01*
X118053458Y-68144114D01*
X118168182Y-68220771D01*
X118168195Y-68220778D01*
X118295667Y-68273578D01*
X118295672Y-68273580D01*
X118295676Y-68273580D01*
X118295677Y-68273581D01*
X118431004Y-68300500D01*
X118431007Y-68300500D01*
X118568995Y-68300500D01*
X118660041Y-68282389D01*
X118704328Y-68273580D01*
X118831811Y-68220775D01*
X118946542Y-68144114D01*
X119044114Y-68046542D01*
X119120775Y-67931811D01*
X119173580Y-67804328D01*
X119191422Y-67714630D01*
X119200500Y-67668995D01*
X119200500Y-67531004D01*
X119173581Y-67395677D01*
X119173580Y-67395676D01*
X119173580Y-67395672D01*
X119156900Y-67355403D01*
X119120778Y-67268195D01*
X119120771Y-67268182D01*
X119044114Y-67153458D01*
X119044111Y-67153454D01*
X118946545Y-67055888D01*
X118946541Y-67055885D01*
X118831817Y-66979228D01*
X118831804Y-66979221D01*
X118704332Y-66926421D01*
X118704322Y-66926418D01*
X118568995Y-66899500D01*
X118568993Y-66899500D01*
X118431007Y-66899500D01*
X118431005Y-66899500D01*
X118295677Y-66926418D01*
X118295667Y-66926421D01*
X118168195Y-66979221D01*
X118168182Y-66979228D01*
X118053458Y-67055885D01*
X118053454Y-67055888D01*
X117955888Y-67153454D01*
X117955885Y-67153458D01*
X117879228Y-67268182D01*
X117879221Y-67268195D01*
X117826421Y-67395667D01*
X117826418Y-67395677D01*
X117799500Y-67531004D01*
X117799500Y-67531007D01*
X117799500Y-67668993D01*
X117799500Y-67668995D01*
X117799499Y-67668995D01*
X90919013Y-67668995D01*
X90920500Y-67644038D01*
X90920500Y-67175962D01*
X90917688Y-67128755D01*
X90915783Y-67120000D01*
X90873015Y-66923397D01*
X90873012Y-66923386D01*
X90790281Y-66730191D01*
X90790280Y-66730189D01*
X90790279Y-66730187D01*
X90672477Y-66556135D01*
X90523865Y-66407523D01*
X90349813Y-66289721D01*
X90349811Y-66289720D01*
X90349808Y-66289718D01*
X90266369Y-66253988D01*
X90212492Y-66209503D01*
X90191217Y-66142951D01*
X90209301Y-66075462D01*
X90261001Y-66028463D01*
X90266369Y-66026012D01*
X90349813Y-65990279D01*
X90523865Y-65872477D01*
X90672477Y-65723865D01*
X90790279Y-65549813D01*
X90873013Y-65356612D01*
X90917688Y-65151245D01*
X90920500Y-65104038D01*
X90920500Y-64635962D01*
X90917688Y-64588755D01*
X90873013Y-64383388D01*
X90790279Y-64190187D01*
X90672477Y-64016135D01*
X90523865Y-63867523D01*
X90349813Y-63749721D01*
X90349811Y-63749720D01*
X90349808Y-63749718D01*
X90266369Y-63713988D01*
X90212492Y-63669503D01*
X90191217Y-63602951D01*
X90209301Y-63535462D01*
X90261001Y-63488463D01*
X90266369Y-63486012D01*
X90349808Y-63450281D01*
X90349807Y-63450281D01*
X90349813Y-63450279D01*
X90523865Y-63332477D01*
X90672477Y-63183865D01*
X90790279Y-63009813D01*
X90873013Y-62816612D01*
X90917688Y-62611245D01*
X90920500Y-62564038D01*
X90920500Y-62095962D01*
X90917688Y-62048755D01*
X90873013Y-61843388D01*
X90790279Y-61650187D01*
X90672477Y-61476135D01*
X90523865Y-61327523D01*
X90349813Y-61209721D01*
X90349811Y-61209720D01*
X90349808Y-61209718D01*
X90266369Y-61173988D01*
X90212492Y-61129503D01*
X90191217Y-61062951D01*
X90209301Y-60995462D01*
X90261001Y-60948463D01*
X90266369Y-60946012D01*
X90349808Y-60910281D01*
X90349807Y-60910281D01*
X90349813Y-60910279D01*
X90523865Y-60792477D01*
X90672477Y-60643865D01*
X90790279Y-60469813D01*
X90873013Y-60276612D01*
X90917688Y-60071245D01*
X90920500Y-60024038D01*
X90920500Y-59555962D01*
X90917688Y-59508755D01*
X90873013Y-59303388D01*
X90845435Y-59238987D01*
X90790281Y-59110191D01*
X90790280Y-59110189D01*
X90790279Y-59110187D01*
X90672477Y-58936135D01*
X90523865Y-58787523D01*
X90349813Y-58669721D01*
X90349811Y-58669720D01*
X90349808Y-58669718D01*
X90266369Y-58633988D01*
X90212492Y-58589503D01*
X90191217Y-58522951D01*
X90209301Y-58455462D01*
X90261001Y-58408463D01*
X90266369Y-58406012D01*
X90349808Y-58370281D01*
X90349807Y-58370281D01*
X90349813Y-58370279D01*
X90523865Y-58252477D01*
X90672477Y-58103865D01*
X90790279Y-57929813D01*
X90873013Y-57736612D01*
X90917688Y-57531245D01*
X90920500Y-57484038D01*
X90920500Y-57015962D01*
X90917688Y-56968755D01*
X90889428Y-56838848D01*
X90873015Y-56763397D01*
X90873012Y-56763386D01*
X90790281Y-56570191D01*
X90790280Y-56570189D01*
X90790279Y-56570187D01*
X90672477Y-56396135D01*
X90523865Y-56247523D01*
X90349813Y-56129721D01*
X90349811Y-56129720D01*
X90349808Y-56129718D01*
X90266369Y-56093988D01*
X90212492Y-56049503D01*
X90191217Y-55982951D01*
X90209301Y-55915462D01*
X90254868Y-55874038D01*
X106299500Y-55874038D01*
X106299500Y-56125962D01*
X106318753Y-56247521D01*
X106338910Y-56374785D01*
X106416760Y-56614383D01*
X106531132Y-56838848D01*
X106679201Y-57042649D01*
X106679205Y-57042654D01*
X106857345Y-57220794D01*
X106857350Y-57220798D01*
X107035117Y-57349952D01*
X107061155Y-57368870D01*
X107204184Y-57441747D01*
X107285616Y-57483239D01*
X107285618Y-57483239D01*
X107285621Y-57483241D01*
X107525215Y-57561090D01*
X107774038Y-57600500D01*
X107774039Y-57600500D01*
X108025961Y-57600500D01*
X108025962Y-57600500D01*
X108274785Y-57561090D01*
X108514379Y-57483241D01*
X108738845Y-57368870D01*
X108942656Y-57220793D01*
X109120793Y-57042656D01*
X109268870Y-56838845D01*
X109383241Y-56614379D01*
X109461090Y-56374785D01*
X109500500Y-56125962D01*
X109500500Y-55874038D01*
X109461090Y-55625215D01*
X109383241Y-55385621D01*
X109383239Y-55385618D01*
X109383239Y-55385616D01*
X109303854Y-55229816D01*
X109268870Y-55161155D01*
X109226082Y-55102262D01*
X109120798Y-54957350D01*
X109120794Y-54957345D01*
X108942654Y-54779205D01*
X108942649Y-54779201D01*
X108738848Y-54631132D01*
X108738847Y-54631131D01*
X108738845Y-54631130D01*
X108668747Y-54595413D01*
X108514383Y-54516760D01*
X108274785Y-54438910D01*
X108160128Y-54420750D01*
X108025962Y-54399500D01*
X107774038Y-54399500D01*
X107649626Y-54419205D01*
X107525214Y-54438910D01*
X107285616Y-54516760D01*
X107061151Y-54631132D01*
X106857350Y-54779201D01*
X106857345Y-54779205D01*
X106679205Y-54957345D01*
X106679201Y-54957350D01*
X106531132Y-55161151D01*
X106416760Y-55385616D01*
X106358843Y-55563867D01*
X106338910Y-55625215D01*
X106299500Y-55874038D01*
X90254868Y-55874038D01*
X90261001Y-55868463D01*
X90266369Y-55866012D01*
X90349808Y-55830281D01*
X90349807Y-55830281D01*
X90349813Y-55830279D01*
X90523865Y-55712477D01*
X90672477Y-55563865D01*
X90790279Y-55389813D01*
X90873013Y-55196612D01*
X90917688Y-54991245D01*
X90920500Y-54944038D01*
X90920500Y-54475962D01*
X90917688Y-54428755D01*
X90873013Y-54223388D01*
X90790279Y-54030187D01*
X90672477Y-53856135D01*
X90523865Y-53707523D01*
X90349813Y-53589721D01*
X90349811Y-53589720D01*
X90349808Y-53589718D01*
X90266369Y-53553988D01*
X90212492Y-53509503D01*
X90191217Y-53442951D01*
X90209301Y-53375462D01*
X90261001Y-53328463D01*
X90266369Y-53326012D01*
X90349808Y-53290281D01*
X90349807Y-53290281D01*
X90349813Y-53290279D01*
X90523865Y-53172477D01*
X90672477Y-53023865D01*
X90790279Y-52849813D01*
X90873013Y-52656612D01*
X90917688Y-52451245D01*
X90920500Y-52404038D01*
X90920500Y-51935962D01*
X90917688Y-51888755D01*
X90909361Y-51850478D01*
X90873015Y-51683397D01*
X90873012Y-51683386D01*
X90790281Y-51490191D01*
X90790280Y-51490189D01*
X90790279Y-51490187D01*
X90672477Y-51316135D01*
X90523865Y-51167523D01*
X90349813Y-51049721D01*
X90349808Y-51049719D01*
X90349807Y-51049718D01*
X90265735Y-51013716D01*
X90211857Y-50969231D01*
X90190583Y-50902678D01*
X90208667Y-50835190D01*
X90260367Y-50788191D01*
X90265736Y-50785740D01*
X90349565Y-50749842D01*
X90523546Y-50632089D01*
X90672089Y-50483546D01*
X90789841Y-50309566D01*
X90872534Y-50116462D01*
X90872536Y-50116456D01*
X90917188Y-49911190D01*
X90917189Y-49911178D01*
X90919047Y-49880000D01*
X88053012Y-49880000D01*
X88056454Y-49874038D01*
X113399500Y-49874038D01*
X113399500Y-50125962D01*
X113400140Y-50130000D01*
X113438910Y-50374785D01*
X113516760Y-50614383D01*
X113585780Y-50749841D01*
X113629406Y-50835462D01*
X113631132Y-50838848D01*
X113779201Y-51042649D01*
X113779205Y-51042654D01*
X113957345Y-51220794D01*
X113957350Y-51220798D01*
X114088567Y-51316132D01*
X114161155Y-51368870D01*
X114304184Y-51441747D01*
X114385616Y-51483239D01*
X114385618Y-51483239D01*
X114385621Y-51483241D01*
X114625215Y-51561090D01*
X114874038Y-51600500D01*
X114874039Y-51600500D01*
X115125961Y-51600500D01*
X115125962Y-51600500D01*
X115374785Y-51561090D01*
X115614379Y-51483241D01*
X115838845Y-51368870D01*
X116042656Y-51220793D01*
X116220793Y-51042656D01*
X116368870Y-50838845D01*
X116483241Y-50614379D01*
X116561090Y-50374785D01*
X116600500Y-50125962D01*
X116600500Y-49874038D01*
X116561090Y-49625215D01*
X116483241Y-49385621D01*
X116483239Y-49385618D01*
X116483239Y-49385616D01*
X116441747Y-49304184D01*
X116368870Y-49161155D01*
X116250141Y-48997738D01*
X116220798Y-48957350D01*
X116220794Y-48957345D01*
X116042654Y-48779205D01*
X116042649Y-48779201D01*
X115838848Y-48631132D01*
X115838847Y-48631131D01*
X115838845Y-48631130D01*
X115768747Y-48595413D01*
X115614383Y-48516760D01*
X115374785Y-48438910D01*
X115125962Y-48399500D01*
X114874038Y-48399500D01*
X114749626Y-48419205D01*
X114625214Y-48438910D01*
X114385616Y-48516760D01*
X114161151Y-48631132D01*
X113957350Y-48779201D01*
X113957345Y-48779205D01*
X113779205Y-48957345D01*
X113779201Y-48957350D01*
X113631132Y-49161151D01*
X113516760Y-49385616D01*
X113442798Y-49613249D01*
X113438910Y-49625215D01*
X113399500Y-49874038D01*
X88056454Y-49874038D01*
X88085925Y-49822993D01*
X88120000Y-49695826D01*
X88120000Y-49564174D01*
X88085925Y-49437007D01*
X88053012Y-49380000D01*
X90919045Y-49380000D01*
X90917187Y-49348808D01*
X90872536Y-49143545D01*
X90872534Y-49143537D01*
X90789841Y-48950433D01*
X90672089Y-48776453D01*
X90523546Y-48627910D01*
X90349566Y-48510158D01*
X90265735Y-48474259D01*
X90211857Y-48429773D01*
X90190583Y-48363221D01*
X90208667Y-48295732D01*
X90260368Y-48248734D01*
X90265697Y-48246299D01*
X90349813Y-48210279D01*
X90523865Y-48092477D01*
X90672477Y-47943865D01*
X90790279Y-47769813D01*
X90873013Y-47576612D01*
X90917688Y-47371245D01*
X90920500Y-47324038D01*
X90920500Y-46855962D01*
X90917688Y-46808755D01*
X90883256Y-46650476D01*
X90873015Y-46603397D01*
X90873012Y-46603386D01*
X90790281Y-46410191D01*
X90790280Y-46410189D01*
X90790279Y-46410187D01*
X90672477Y-46236135D01*
X90523865Y-46087523D01*
X90349813Y-45969721D01*
X90349811Y-45969720D01*
X90349808Y-45969718D01*
X90156613Y-45886987D01*
X90156602Y-45886984D01*
X89951250Y-45842312D01*
X89936492Y-45841433D01*
X89904038Y-45839500D01*
X87435962Y-45839500D01*
X87405416Y-45841319D01*
X87388749Y-45842312D01*
X87183397Y-45886984D01*
X87183386Y-45886987D01*
X86990191Y-45969718D01*
X86816137Y-46087521D01*
X86816132Y-46087525D01*
X86667525Y-46236132D01*
X86667521Y-46236137D01*
X86549718Y-46410191D01*
X86466987Y-46603386D01*
X86466984Y-46603397D01*
X86422312Y-46808749D01*
X86422312Y-46808755D01*
X86419500Y-46855962D01*
X73580500Y-46855962D01*
X73577688Y-46808755D01*
X73543256Y-46650476D01*
X73533015Y-46603397D01*
X73533012Y-46603386D01*
X73450281Y-46410191D01*
X73450280Y-46410189D01*
X73450279Y-46410187D01*
X73332477Y-46236135D01*
X73183865Y-46087523D01*
X73009813Y-45969721D01*
X73009811Y-45969720D01*
X73009808Y-45969718D01*
X72816613Y-45886987D01*
X72816602Y-45886984D01*
X72611250Y-45842312D01*
X72596492Y-45841433D01*
X72564038Y-45839500D01*
X70095962Y-45839500D01*
X70065416Y-45841319D01*
X70048749Y-45842312D01*
X69843397Y-45886984D01*
X69843386Y-45886987D01*
X69650191Y-45969718D01*
X69476137Y-46087521D01*
X69476132Y-46087525D01*
X69327525Y-46236132D01*
X69327521Y-46236137D01*
X69209718Y-46410191D01*
X69126987Y-46603386D01*
X69126984Y-46603397D01*
X69082312Y-46808749D01*
X69082312Y-46808755D01*
X69079500Y-46855962D01*
X65189336Y-46855962D01*
X65185369Y-46820750D01*
X65185368Y-46820745D01*
X65183258Y-46814715D01*
X65125789Y-46650478D01*
X65029816Y-46497738D01*
X64902262Y-46370184D01*
X64813204Y-46314225D01*
X64749523Y-46274211D01*
X64579254Y-46214631D01*
X64579249Y-46214630D01*
X64400004Y-46194435D01*
X64399996Y-46194435D01*
X64220750Y-46214630D01*
X64220745Y-46214631D01*
X64050476Y-46274211D01*
X63897737Y-46370184D01*
X63770184Y-46497737D01*
X63674211Y-46650476D01*
X63614631Y-46820745D01*
X63614630Y-46820750D01*
X63594435Y-46999996D01*
X41651945Y-46999996D01*
X41814726Y-46822352D01*
X41822352Y-46814726D01*
X42103791Y-46556834D01*
X42112060Y-46549896D01*
X42414905Y-46317515D01*
X42423744Y-46311325D01*
X42745700Y-46106217D01*
X42755045Y-46100822D01*
X43093638Y-45924561D01*
X43103412Y-45920003D01*
X43456095Y-45773917D01*
X43466227Y-45770230D01*
X43830295Y-45655440D01*
X43840709Y-45652649D01*
X44213405Y-45570025D01*
X44224025Y-45568152D01*
X44602495Y-45518326D01*
X44613226Y-45517386D01*
X44997297Y-45500617D01*
X45002706Y-45500500D01*
X45065892Y-45500500D01*
X114934108Y-45500500D01*
X114997294Y-45500500D01*
X115002702Y-45500617D01*
G37*
G04 #@! TD.AperFunction*
M02*
