M48
; DRILL file {KiCad 8.0.3} date 2024-06-08T17:14:43+0200
; FORMAT={-:-/ absolute / metric / decimal}
; #@! TF.CreationDate,2024-06-08T17:14:43+02:00
; #@! TF.GenerationSoftware,Kicad,Pcbnew,8.0.3
; #@! TF.FileFunction,Plated,1,4,PTH
FMAT,2
METRIC
; #@! TA.AperFunction,Plated,PTH,ComponentDrill
T1C0.200
; #@! TA.AperFunction,Plated,PTH,ViaDrill
T2C0.300
; #@! TA.AperFunction,Plated,PTH,ViaDrill
T3C0.500
; #@! TA.AperFunction,Plated,PTH,ComponentDrill
T4C1.000
%
G90
G05
T1
X98.4Y-78.455
X98.4Y-79.805
X98.4Y-81.155
X100.3Y-78.455
X100.3Y-79.805
X100.3Y-81.155
T2
X56.3Y-61.3
X61.0Y-71.0
X61.6Y-71.6
X61.6Y-72.5
X61.6Y-79.235
X61.6Y-80.505
X62.95Y-78.0
X63.6Y-88.55
X64.4Y-47.0
X64.4Y-49.5
X64.4Y-52.2
X64.4Y-54.6
X64.4Y-57.2
X64.4Y-59.8
X64.4Y-62.2
X64.4Y-64.8
X64.4Y-67.4
X76.2Y-71.4
X76.2Y-76.7
X77.0Y-71.554
X77.0Y-77.6
X79.56Y-79.265
X100.3Y-86.2
X103.103Y-81.09
X104.4Y-70.4
X108.1Y-68.5
X108.3Y-70.9
X113.8Y-71.0
X113.9Y-82.1
X114.55Y-81.5
X114.9Y-84.875
T3
X63.462Y-74.8
X64.763Y-74.8
X66.5Y-85.7
X66.5Y-87.0
X67.9Y-92.4
X69.1Y-92.4
X69.162Y-74.8
X70.662Y-74.8
X74.9Y-81.795
X74.9Y-83.095
X88.7Y-89.6
X91.25Y-83.5
X91.25Y-85.0
X92.75Y-83.5
X92.75Y-85.0
X94.25Y-83.5
X94.25Y-85.0
X95.0Y-91.5
X96.5Y-91.5
X96.5Y-93.0
X99.7Y-70.7
X99.7Y-72.1
X101.1Y-70.7
X101.1Y-72.1
X102.5Y-70.7
X102.5Y-72.1
X109.0Y-75.5
X109.0Y-77.5
X111.0Y-75.5
X111.0Y-77.5
X113.0Y-75.5
X113.0Y-77.5
T4
X59.075Y-64.58
X59.075Y-67.12
X59.075Y-69.66
X59.075Y-72.2
X59.075Y-74.74
X59.075Y-77.28
X59.075Y-79.82
X68.5Y-162.375
X71.04Y-162.375
X72.38Y-47.09
X72.38Y-49.63
X72.38Y-52.17
X72.38Y-54.71
X72.38Y-57.25
X72.38Y-59.79
X72.38Y-62.33
X72.38Y-64.87
X72.38Y-67.41
X73.58Y-162.375
X76.12Y-162.375
X78.66Y-162.375
X81.2Y-162.375
X83.74Y-162.375
X86.28Y-162.375
X87.62Y-47.09
X87.62Y-49.63
X87.62Y-52.17
X87.62Y-54.71
X87.62Y-57.25
X87.62Y-59.79
X87.62Y-62.33
X87.62Y-64.87
X87.62Y-67.41
X88.82Y-162.375
X91.36Y-162.375
M30
