%TF.GenerationSoftware,KiCad,Pcbnew,8.0.3*%
%TF.CreationDate,2024-06-09T12:16:40+02:00*%
%TF.ProjectId,chip8-pcb,63686970-382d-4706-9362-2e6b69636164,1*%
%TF.SameCoordinates,Original*%
%TF.FileFunction,Drillmap*%
%TF.FilePolarity,Positive*%
%FSLAX45Y45*%
G04 Gerber Fmt 4.5, Leading zero omitted, Abs format (unit mm)*
G04 Created by KiCad (PCBNEW 8.0.3) date 2024-06-09 12:16:40*
%MOMM*%
%LPD*%
G01*
G04 APERTURE LIST*
%ADD10C,0.050000*%
%ADD11C,0.200000*%
%ADD12C,0.100000*%
G04 APERTURE END LIST*
D10*
X6958441Y-7000000D02*
X11958441Y-7000000D01*
X11958441Y-12000000D01*
X6958441Y-12000000D01*
X6958441Y-7000000D01*
D11*
D12*
X8050441Y-9635000D02*
X8070441Y-9655000D01*
X8070441Y-9635000D02*
X8050441Y-9655000D01*
X8050441Y-9825000D02*
X8070441Y-9845000D01*
X8070441Y-9825000D02*
X8050441Y-9845000D01*
X8185441Y-9635000D02*
X8205441Y-9655000D01*
X8205441Y-9635000D02*
X8185441Y-9655000D01*
X8185441Y-9825000D02*
X8205441Y-9845000D01*
X8205441Y-9825000D02*
X8185441Y-9845000D01*
X8320441Y-9635000D02*
X8340441Y-9655000D01*
X8340441Y-9635000D02*
X8320441Y-9655000D01*
X8320441Y-9825000D02*
X8340441Y-9845000D01*
X8340441Y-9825000D02*
X8320441Y-9845000D01*
X7173441Y-8690000D02*
G75*
G02*
X7143441Y-8690000I-15000J0D01*
G01*
X7143441Y-8690000D02*
G75*
G02*
X7173441Y-8690000I15000J0D01*
G01*
X7173441Y-9110000D02*
G75*
G02*
X7143441Y-9110000I-15000J0D01*
G01*
X7143441Y-9110000D02*
G75*
G02*
X7173441Y-9110000I15000J0D01*
G01*
X7413441Y-9160000D02*
G75*
G02*
X7383441Y-9160000I-15000J0D01*
G01*
X7383441Y-9160000D02*
G75*
G02*
X7413441Y-9160000I15000J0D01*
G01*
X7613441Y-8210000D02*
G75*
G02*
X7583441Y-8210000I-15000J0D01*
G01*
X7583441Y-8210000D02*
G75*
G02*
X7613441Y-8210000I15000J0D01*
G01*
X7613441Y-9720000D02*
G75*
G02*
X7583441Y-9720000I-15000J0D01*
G01*
X7583441Y-9720000D02*
G75*
G02*
X7613441Y-9720000I15000J0D01*
G01*
X7673441Y-9375000D02*
G75*
G02*
X7643441Y-9375000I-15000J0D01*
G01*
X7643441Y-9375000D02*
G75*
G02*
X7673441Y-9375000I15000J0D01*
G01*
X7683441Y-9550000D02*
G75*
G02*
X7653441Y-9550000I-15000J0D01*
G01*
X7653441Y-9550000D02*
G75*
G02*
X7683441Y-9550000I15000J0D01*
G01*
X8023441Y-9160000D02*
G75*
G02*
X7993441Y-9160000I-15000J0D01*
G01*
X7993441Y-9160000D02*
G75*
G02*
X8023441Y-9160000I15000J0D01*
G01*
X8143441Y-9230000D02*
G75*
G02*
X8113441Y-9230000I-15000J0D01*
G01*
X8113441Y-9230000D02*
G75*
G02*
X8143441Y-9230000I15000J0D01*
G01*
X8203441Y-8020000D02*
G75*
G02*
X8173441Y-8020000I-15000J0D01*
G01*
X8173441Y-8020000D02*
G75*
G02*
X8203441Y-8020000I15000J0D01*
G01*
X8243441Y-7770000D02*
G75*
G02*
X8213441Y-7770000I-15000J0D01*
G01*
X8213441Y-7770000D02*
G75*
G02*
X8243441Y-7770000I15000J0D01*
G01*
X8273441Y-9320000D02*
G75*
G02*
X8243441Y-9320000I-15000J0D01*
G01*
X8243441Y-9320000D02*
G75*
G02*
X8273441Y-9320000I15000J0D01*
G01*
X8400941Y-8012500D02*
G75*
G02*
X8370941Y-8012500I-15000J0D01*
G01*
X8370941Y-8012500D02*
G75*
G02*
X8400941Y-8012500I15000J0D01*
G01*
X8543441Y-8210000D02*
G75*
G02*
X8513441Y-8210000I-15000J0D01*
G01*
X8513441Y-8210000D02*
G75*
G02*
X8543441Y-8210000I15000J0D01*
G01*
X9152112Y-9501329D02*
G75*
G02*
X9122112Y-9501329I-15000J0D01*
G01*
X9122112Y-9501329D02*
G75*
G02*
X9152112Y-9501329I15000J0D01*
G01*
X9153441Y-9920000D02*
G75*
G02*
X9123441Y-9920000I-15000J0D01*
G01*
X9123441Y-9920000D02*
G75*
G02*
X9153441Y-9920000I15000J0D01*
G01*
X9243441Y-9504600D02*
G75*
G02*
X9213441Y-9504600I-15000J0D01*
G01*
X9213441Y-9504600D02*
G75*
G02*
X9243441Y-9504600I15000J0D01*
G01*
X9243441Y-9887300D02*
G75*
G02*
X9213441Y-9887300I-15000J0D01*
G01*
X9213441Y-9887300D02*
G75*
G02*
X9243441Y-9887300I15000J0D01*
G01*
X9323441Y-11340000D02*
G75*
G02*
X9293441Y-11340000I-15000J0D01*
G01*
X9293441Y-11340000D02*
G75*
G02*
X9323441Y-11340000I15000J0D01*
G01*
X9573441Y-11340000D02*
G75*
G02*
X9543441Y-11340000I-15000J0D01*
G01*
X9543441Y-11340000D02*
G75*
G02*
X9573441Y-11340000I15000J0D01*
G01*
X9823441Y-11340000D02*
G75*
G02*
X9793441Y-11340000I-15000J0D01*
G01*
X9793441Y-11340000D02*
G75*
G02*
X9823441Y-11340000I15000J0D01*
G01*
X10093441Y-11340000D02*
G75*
G02*
X10063441Y-11340000I-15000J0D01*
G01*
X10063441Y-11340000D02*
G75*
G02*
X10093441Y-11340000I15000J0D01*
G01*
X10133441Y-9537300D02*
G75*
G02*
X10103441Y-9537300I-15000J0D01*
G01*
X10103441Y-9537300D02*
G75*
G02*
X10133441Y-9537300I15000J0D01*
G01*
X10133441Y-9740000D02*
G75*
G02*
X10103441Y-9740000I-15000J0D01*
G01*
X10103441Y-9740000D02*
G75*
G02*
X10133441Y-9740000I15000J0D01*
G01*
X10213441Y-9570000D02*
G75*
G02*
X10183441Y-9570000I-15000J0D01*
G01*
X10183441Y-9570000D02*
G75*
G02*
X10213441Y-9570000I15000J0D01*
G01*
X10213441Y-9860000D02*
G75*
G02*
X10183441Y-9860000I-15000J0D01*
G01*
X10183441Y-9860000D02*
G75*
G02*
X10213441Y-9860000I15000J0D01*
G01*
X10353441Y-11340000D02*
G75*
G02*
X10323441Y-11340000I-15000J0D01*
G01*
X10323441Y-11340000D02*
G75*
G02*
X10353441Y-11340000I15000J0D01*
G01*
X10603441Y-11340000D02*
G75*
G02*
X10573441Y-11340000I-15000J0D01*
G01*
X10573441Y-11340000D02*
G75*
G02*
X10603441Y-11340000I15000J0D01*
G01*
X10850741Y-9990000D02*
G75*
G02*
X10820741Y-9990000I-15000J0D01*
G01*
X10820741Y-9990000D02*
G75*
G02*
X10850741Y-9990000I15000J0D01*
G01*
X10850741Y-10490000D02*
G75*
G02*
X10820741Y-10490000I-15000J0D01*
G01*
X10820741Y-10490000D02*
G75*
G02*
X10850741Y-10490000I15000J0D01*
G01*
X10853441Y-11340000D02*
G75*
G02*
X10823441Y-11340000I-15000J0D01*
G01*
X10823441Y-11340000D02*
G75*
G02*
X10853441Y-11340000I15000J0D01*
G01*
X10910741Y-10390000D02*
G75*
G02*
X10880741Y-10390000I-15000J0D01*
G01*
X10880741Y-10390000D02*
G75*
G02*
X10910741Y-10390000I15000J0D01*
G01*
X10910741Y-10590000D02*
G75*
G02*
X10880741Y-10590000I-15000J0D01*
G01*
X10880741Y-10590000D02*
G75*
G02*
X10910741Y-10590000I15000J0D01*
G01*
X10933441Y-9860000D02*
G75*
G02*
X10903441Y-9860000I-15000J0D01*
G01*
X10903441Y-9860000D02*
G75*
G02*
X10933441Y-9860000I15000J0D01*
G01*
X10943441Y-10790000D02*
G75*
G02*
X10913441Y-10790000I-15000J0D01*
G01*
X10913441Y-10790000D02*
G75*
G02*
X10943441Y-10790000I15000J0D01*
G01*
X11103441Y-11340000D02*
G75*
G02*
X11073441Y-11340000I-15000J0D01*
G01*
X11073441Y-11340000D02*
G75*
G02*
X11103441Y-11340000I15000J0D01*
G01*
X11293441Y-10390000D02*
G75*
G02*
X11263441Y-10390000I-15000J0D01*
G01*
X11263441Y-10390000D02*
G75*
G02*
X11293441Y-10390000I15000J0D01*
G01*
X11325041Y-9988500D02*
G75*
G02*
X11295041Y-9988500I-15000J0D01*
G01*
X11295041Y-9988500D02*
G75*
G02*
X11325041Y-9988500I15000J0D01*
G01*
X11325041Y-10300000D02*
G75*
G02*
X11295041Y-10300000I-15000J0D01*
G01*
X11295041Y-10300000D02*
G75*
G02*
X11325041Y-10300000I15000J0D01*
G01*
X11403441Y-10115500D02*
G75*
G02*
X11373441Y-10115500I-15000J0D01*
G01*
X11373441Y-10115500D02*
G75*
G02*
X11403441Y-10115500I15000J0D01*
G01*
X11403441Y-10240000D02*
G75*
G02*
X11373441Y-10240000I-15000J0D01*
G01*
X11373441Y-10240000D02*
G75*
G02*
X11403441Y-10240000I15000J0D01*
G01*
X11623441Y-9500000D02*
G75*
G02*
X11593441Y-9500000I-15000J0D01*
G01*
X11593441Y-9500000D02*
G75*
G02*
X11623441Y-9500000I15000J0D01*
G01*
X10058441Y-11075000D02*
X10058441Y-11125000D01*
X10033441Y-11100000D02*
X10083441Y-11100000D01*
X10183441Y-11075000D02*
X10183441Y-11125000D01*
X10158441Y-11100000D02*
X10208441Y-11100000D01*
X11333441Y-9555000D02*
X11333441Y-9605000D01*
X11308441Y-9580000D02*
X11358441Y-9580000D01*
X11458441Y-9555000D02*
X11458441Y-9605000D01*
X11433441Y-9580000D02*
X11483441Y-9580000D01*
X8968796Y-11810356D02*
X8968796Y-11739644D01*
X8898085Y-11739644D01*
X8898085Y-11810356D01*
X8968796Y-11810356D01*
X9222796Y-11810356D02*
X9222796Y-11739644D01*
X9152085Y-11739644D01*
X9152085Y-11810356D01*
X9222796Y-11810356D01*
X9476796Y-11810356D02*
X9476796Y-11739644D01*
X9406085Y-11739644D01*
X9406085Y-11810356D01*
X9476796Y-11810356D01*
X9730796Y-11810356D02*
X9730796Y-11739644D01*
X9660085Y-11739644D01*
X9660085Y-11810356D01*
X9730796Y-11810356D01*
X9984796Y-11810356D02*
X9984796Y-11739644D01*
X9914085Y-11739644D01*
X9914085Y-11810356D01*
X9984796Y-11810356D01*
X10033046Y-7244356D02*
X10033046Y-7173644D01*
X9962335Y-7173644D01*
X9962335Y-7244356D01*
X10033046Y-7244356D01*
X10033046Y-7498356D02*
X10033046Y-7427644D01*
X9962335Y-7427644D01*
X9962335Y-7498356D01*
X10033046Y-7498356D01*
X10033046Y-7752356D02*
X10033046Y-7681644D01*
X9962335Y-7681644D01*
X9962335Y-7752356D01*
X10033046Y-7752356D01*
X10033046Y-8006356D02*
X10033046Y-7935644D01*
X9962335Y-7935644D01*
X9962335Y-8006356D01*
X10033046Y-8006356D01*
X10033046Y-8260356D02*
X10033046Y-8189644D01*
X9962335Y-8189644D01*
X9962335Y-8260356D01*
X10033046Y-8260356D01*
X10033046Y-8514356D02*
X10033046Y-8443644D01*
X9962335Y-8443644D01*
X9962335Y-8514356D01*
X10033046Y-8514356D01*
X10033046Y-8768356D02*
X10033046Y-8697644D01*
X9962335Y-8697644D01*
X9962335Y-8768356D01*
X10033046Y-8768356D01*
X10033046Y-9022356D02*
X10033046Y-8951644D01*
X9962335Y-8951644D01*
X9962335Y-9022356D01*
X10033046Y-9022356D01*
X10033046Y-9276356D02*
X10033046Y-9205644D01*
X9962335Y-9205644D01*
X9962335Y-9276356D01*
X10033046Y-9276356D01*
X10238796Y-11810356D02*
X10238796Y-11739644D01*
X10168085Y-11739644D01*
X10168085Y-11810356D01*
X10238796Y-11810356D01*
X10492796Y-11810356D02*
X10492796Y-11739644D01*
X10422085Y-11739644D01*
X10422085Y-11810356D01*
X10492796Y-11810356D01*
X10746796Y-11810356D02*
X10746796Y-11739644D01*
X10676085Y-11739644D01*
X10676085Y-11810356D01*
X10746796Y-11810356D01*
X11000796Y-11810356D02*
X11000796Y-11739644D01*
X10930085Y-11739644D01*
X10930085Y-11810356D01*
X11000796Y-11810356D01*
X11254796Y-11810356D02*
X11254796Y-11739644D01*
X11184085Y-11739644D01*
X11184085Y-11810356D01*
X11254796Y-11810356D01*
X11557046Y-7244356D02*
X11557046Y-7173644D01*
X11486335Y-7173644D01*
X11486335Y-7244356D01*
X11557046Y-7244356D01*
X11557046Y-7498356D02*
X11557046Y-7427644D01*
X11486335Y-7427644D01*
X11486335Y-7498356D01*
X11557046Y-7498356D01*
X11557046Y-7752356D02*
X11557046Y-7681644D01*
X11486335Y-7681644D01*
X11486335Y-7752356D01*
X11557046Y-7752356D01*
X11557046Y-8006356D02*
X11557046Y-7935644D01*
X11486335Y-7935644D01*
X11486335Y-8006356D01*
X11557046Y-8006356D01*
X11557046Y-8260356D02*
X11557046Y-8189644D01*
X11486335Y-8189644D01*
X11486335Y-8260356D01*
X11557046Y-8260356D01*
X11557046Y-8514356D02*
X11557046Y-8443644D01*
X11486335Y-8443644D01*
X11486335Y-8514356D01*
X11557046Y-8514356D01*
X11557046Y-8768356D02*
X11557046Y-8697644D01*
X11486335Y-8697644D01*
X11486335Y-8768356D01*
X11557046Y-8768356D01*
X11557046Y-9022356D02*
X11557046Y-8951644D01*
X11486335Y-8951644D01*
X11486335Y-9022356D01*
X11557046Y-9022356D01*
X11557046Y-9276356D02*
X11557046Y-9205644D01*
X11486335Y-9205644D01*
X11486335Y-9276356D01*
X11557046Y-9276356D01*
X11768796Y-9756356D02*
X11768796Y-9685644D01*
X11698085Y-9685644D01*
X11698085Y-9756356D01*
X11768796Y-9756356D01*
X11768796Y-10010356D02*
X11768796Y-9939644D01*
X11698085Y-9939644D01*
X11698085Y-10010356D01*
X11768796Y-10010356D01*
X11768796Y-10264356D02*
X11768796Y-10193644D01*
X11698085Y-10193644D01*
X11698085Y-10264356D01*
X11768796Y-10264356D01*
X11768796Y-10518356D02*
X11768796Y-10447644D01*
X11698085Y-10447644D01*
X11698085Y-10518356D01*
X11768796Y-10518356D01*
X11768796Y-10772356D02*
X11768796Y-10701644D01*
X11698085Y-10701644D01*
X11698085Y-10772356D01*
X11768796Y-10772356D01*
X11768796Y-11026356D02*
X11768796Y-10955644D01*
X11698085Y-10955644D01*
X11698085Y-11026356D01*
X11768796Y-11026356D01*
X11768796Y-11280356D02*
X11768796Y-11209644D01*
X11698085Y-11209644D01*
X11698085Y-11280356D01*
X11768796Y-11280356D01*
D11*
X7216717Y-12313984D02*
X7216717Y-12113984D01*
X7216717Y-12113984D02*
X7264336Y-12113984D01*
X7264336Y-12113984D02*
X7292908Y-12123508D01*
X7292908Y-12123508D02*
X7311955Y-12142555D01*
X7311955Y-12142555D02*
X7321479Y-12161603D01*
X7321479Y-12161603D02*
X7331003Y-12199698D01*
X7331003Y-12199698D02*
X7331003Y-12228269D01*
X7331003Y-12228269D02*
X7321479Y-12266365D01*
X7321479Y-12266365D02*
X7311955Y-12285412D01*
X7311955Y-12285412D02*
X7292908Y-12304460D01*
X7292908Y-12304460D02*
X7264336Y-12313984D01*
X7264336Y-12313984D02*
X7216717Y-12313984D01*
X7416717Y-12313984D02*
X7416717Y-12180650D01*
X7416717Y-12218746D02*
X7426241Y-12199698D01*
X7426241Y-12199698D02*
X7435765Y-12190174D01*
X7435765Y-12190174D02*
X7454813Y-12180650D01*
X7454813Y-12180650D02*
X7473860Y-12180650D01*
X7540527Y-12313984D02*
X7540527Y-12180650D01*
X7540527Y-12113984D02*
X7531003Y-12123508D01*
X7531003Y-12123508D02*
X7540527Y-12133031D01*
X7540527Y-12133031D02*
X7550051Y-12123508D01*
X7550051Y-12123508D02*
X7540527Y-12113984D01*
X7540527Y-12113984D02*
X7540527Y-12133031D01*
X7664336Y-12313984D02*
X7645289Y-12304460D01*
X7645289Y-12304460D02*
X7635765Y-12285412D01*
X7635765Y-12285412D02*
X7635765Y-12113984D01*
X7769098Y-12313984D02*
X7750051Y-12304460D01*
X7750051Y-12304460D02*
X7740527Y-12285412D01*
X7740527Y-12285412D02*
X7740527Y-12113984D01*
X7997670Y-12313984D02*
X7997670Y-12113984D01*
X7997670Y-12113984D02*
X8064336Y-12256841D01*
X8064336Y-12256841D02*
X8131003Y-12113984D01*
X8131003Y-12113984D02*
X8131003Y-12313984D01*
X8311955Y-12313984D02*
X8311955Y-12209222D01*
X8311955Y-12209222D02*
X8302432Y-12190174D01*
X8302432Y-12190174D02*
X8283384Y-12180650D01*
X8283384Y-12180650D02*
X8245289Y-12180650D01*
X8245289Y-12180650D02*
X8226241Y-12190174D01*
X8311955Y-12304460D02*
X8292908Y-12313984D01*
X8292908Y-12313984D02*
X8245289Y-12313984D01*
X8245289Y-12313984D02*
X8226241Y-12304460D01*
X8226241Y-12304460D02*
X8216717Y-12285412D01*
X8216717Y-12285412D02*
X8216717Y-12266365D01*
X8216717Y-12266365D02*
X8226241Y-12247317D01*
X8226241Y-12247317D02*
X8245289Y-12237793D01*
X8245289Y-12237793D02*
X8292908Y-12237793D01*
X8292908Y-12237793D02*
X8311955Y-12228269D01*
X8407194Y-12180650D02*
X8407194Y-12380650D01*
X8407194Y-12190174D02*
X8426241Y-12180650D01*
X8426241Y-12180650D02*
X8464337Y-12180650D01*
X8464337Y-12180650D02*
X8483384Y-12190174D01*
X8483384Y-12190174D02*
X8492908Y-12199698D01*
X8492908Y-12199698D02*
X8502432Y-12218746D01*
X8502432Y-12218746D02*
X8502432Y-12275888D01*
X8502432Y-12275888D02*
X8492908Y-12294936D01*
X8492908Y-12294936D02*
X8483384Y-12304460D01*
X8483384Y-12304460D02*
X8464337Y-12313984D01*
X8464337Y-12313984D02*
X8426241Y-12313984D01*
X8426241Y-12313984D02*
X8407194Y-12304460D01*
X8588146Y-12294936D02*
X8597670Y-12304460D01*
X8597670Y-12304460D02*
X8588146Y-12313984D01*
X8588146Y-12313984D02*
X8578622Y-12304460D01*
X8578622Y-12304460D02*
X8588146Y-12294936D01*
X8588146Y-12294936D02*
X8588146Y-12313984D01*
X8588146Y-12190174D02*
X8597670Y-12199698D01*
X8597670Y-12199698D02*
X8588146Y-12209222D01*
X8588146Y-12209222D02*
X8578622Y-12199698D01*
X8578622Y-12199698D02*
X8588146Y-12190174D01*
X8588146Y-12190174D02*
X8588146Y-12209222D01*
D12*
X6935941Y-12632500D02*
X6955941Y-12652500D01*
X6955941Y-12632500D02*
X6935941Y-12652500D01*
D11*
X7254813Y-12533984D02*
X7273860Y-12533984D01*
X7273860Y-12533984D02*
X7292908Y-12543508D01*
X7292908Y-12543508D02*
X7302432Y-12553031D01*
X7302432Y-12553031D02*
X7311955Y-12572079D01*
X7311955Y-12572079D02*
X7321479Y-12610174D01*
X7321479Y-12610174D02*
X7321479Y-12657793D01*
X7321479Y-12657793D02*
X7311955Y-12695888D01*
X7311955Y-12695888D02*
X7302432Y-12714936D01*
X7302432Y-12714936D02*
X7292908Y-12724460D01*
X7292908Y-12724460D02*
X7273860Y-12733984D01*
X7273860Y-12733984D02*
X7254813Y-12733984D01*
X7254813Y-12733984D02*
X7235765Y-12724460D01*
X7235765Y-12724460D02*
X7226241Y-12714936D01*
X7226241Y-12714936D02*
X7216717Y-12695888D01*
X7216717Y-12695888D02*
X7207194Y-12657793D01*
X7207194Y-12657793D02*
X7207194Y-12610174D01*
X7207194Y-12610174D02*
X7216717Y-12572079D01*
X7216717Y-12572079D02*
X7226241Y-12553031D01*
X7226241Y-12553031D02*
X7235765Y-12543508D01*
X7235765Y-12543508D02*
X7254813Y-12533984D01*
X7407194Y-12714936D02*
X7416717Y-12724460D01*
X7416717Y-12724460D02*
X7407194Y-12733984D01*
X7407194Y-12733984D02*
X7397670Y-12724460D01*
X7397670Y-12724460D02*
X7407194Y-12714936D01*
X7407194Y-12714936D02*
X7407194Y-12733984D01*
X7492908Y-12553031D02*
X7502432Y-12543508D01*
X7502432Y-12543508D02*
X7521479Y-12533984D01*
X7521479Y-12533984D02*
X7569098Y-12533984D01*
X7569098Y-12533984D02*
X7588146Y-12543508D01*
X7588146Y-12543508D02*
X7597670Y-12553031D01*
X7597670Y-12553031D02*
X7607194Y-12572079D01*
X7607194Y-12572079D02*
X7607194Y-12591127D01*
X7607194Y-12591127D02*
X7597670Y-12619698D01*
X7597670Y-12619698D02*
X7483384Y-12733984D01*
X7483384Y-12733984D02*
X7607194Y-12733984D01*
X7731003Y-12533984D02*
X7750051Y-12533984D01*
X7750051Y-12533984D02*
X7769098Y-12543508D01*
X7769098Y-12543508D02*
X7778622Y-12553031D01*
X7778622Y-12553031D02*
X7788146Y-12572079D01*
X7788146Y-12572079D02*
X7797670Y-12610174D01*
X7797670Y-12610174D02*
X7797670Y-12657793D01*
X7797670Y-12657793D02*
X7788146Y-12695888D01*
X7788146Y-12695888D02*
X7778622Y-12714936D01*
X7778622Y-12714936D02*
X7769098Y-12724460D01*
X7769098Y-12724460D02*
X7750051Y-12733984D01*
X7750051Y-12733984D02*
X7731003Y-12733984D01*
X7731003Y-12733984D02*
X7711955Y-12724460D01*
X7711955Y-12724460D02*
X7702432Y-12714936D01*
X7702432Y-12714936D02*
X7692908Y-12695888D01*
X7692908Y-12695888D02*
X7683384Y-12657793D01*
X7683384Y-12657793D02*
X7683384Y-12610174D01*
X7683384Y-12610174D02*
X7692908Y-12572079D01*
X7692908Y-12572079D02*
X7702432Y-12553031D01*
X7702432Y-12553031D02*
X7711955Y-12543508D01*
X7711955Y-12543508D02*
X7731003Y-12533984D01*
X7921479Y-12533984D02*
X7940527Y-12533984D01*
X7940527Y-12533984D02*
X7959575Y-12543508D01*
X7959575Y-12543508D02*
X7969098Y-12553031D01*
X7969098Y-12553031D02*
X7978622Y-12572079D01*
X7978622Y-12572079D02*
X7988146Y-12610174D01*
X7988146Y-12610174D02*
X7988146Y-12657793D01*
X7988146Y-12657793D02*
X7978622Y-12695888D01*
X7978622Y-12695888D02*
X7969098Y-12714936D01*
X7969098Y-12714936D02*
X7959575Y-12724460D01*
X7959575Y-12724460D02*
X7940527Y-12733984D01*
X7940527Y-12733984D02*
X7921479Y-12733984D01*
X7921479Y-12733984D02*
X7902432Y-12724460D01*
X7902432Y-12724460D02*
X7892908Y-12714936D01*
X7892908Y-12714936D02*
X7883384Y-12695888D01*
X7883384Y-12695888D02*
X7873860Y-12657793D01*
X7873860Y-12657793D02*
X7873860Y-12610174D01*
X7873860Y-12610174D02*
X7883384Y-12572079D01*
X7883384Y-12572079D02*
X7892908Y-12553031D01*
X7892908Y-12553031D02*
X7902432Y-12543508D01*
X7902432Y-12543508D02*
X7921479Y-12533984D01*
X8073860Y-12733984D02*
X8073860Y-12600650D01*
X8073860Y-12619698D02*
X8083384Y-12610174D01*
X8083384Y-12610174D02*
X8102432Y-12600650D01*
X8102432Y-12600650D02*
X8131003Y-12600650D01*
X8131003Y-12600650D02*
X8150051Y-12610174D01*
X8150051Y-12610174D02*
X8159575Y-12629222D01*
X8159575Y-12629222D02*
X8159575Y-12733984D01*
X8159575Y-12629222D02*
X8169098Y-12610174D01*
X8169098Y-12610174D02*
X8188146Y-12600650D01*
X8188146Y-12600650D02*
X8216717Y-12600650D01*
X8216717Y-12600650D02*
X8235765Y-12610174D01*
X8235765Y-12610174D02*
X8245289Y-12629222D01*
X8245289Y-12629222D02*
X8245289Y-12733984D01*
X8340527Y-12733984D02*
X8340527Y-12600650D01*
X8340527Y-12619698D02*
X8350051Y-12610174D01*
X8350051Y-12610174D02*
X8369098Y-12600650D01*
X8369098Y-12600650D02*
X8397670Y-12600650D01*
X8397670Y-12600650D02*
X8416718Y-12610174D01*
X8416718Y-12610174D02*
X8426241Y-12629222D01*
X8426241Y-12629222D02*
X8426241Y-12733984D01*
X8426241Y-12629222D02*
X8435765Y-12610174D01*
X8435765Y-12610174D02*
X8454813Y-12600650D01*
X8454813Y-12600650D02*
X8483384Y-12600650D01*
X8483384Y-12600650D02*
X8502432Y-12610174D01*
X8502432Y-12610174D02*
X8511956Y-12629222D01*
X8511956Y-12629222D02*
X8511956Y-12733984D01*
X8902432Y-12524460D02*
X8731003Y-12781603D01*
X9159575Y-12533984D02*
X9178622Y-12533984D01*
X9178622Y-12533984D02*
X9197670Y-12543508D01*
X9197670Y-12543508D02*
X9207194Y-12553031D01*
X9207194Y-12553031D02*
X9216718Y-12572079D01*
X9216718Y-12572079D02*
X9226241Y-12610174D01*
X9226241Y-12610174D02*
X9226241Y-12657793D01*
X9226241Y-12657793D02*
X9216718Y-12695888D01*
X9216718Y-12695888D02*
X9207194Y-12714936D01*
X9207194Y-12714936D02*
X9197670Y-12724460D01*
X9197670Y-12724460D02*
X9178622Y-12733984D01*
X9178622Y-12733984D02*
X9159575Y-12733984D01*
X9159575Y-12733984D02*
X9140527Y-12724460D01*
X9140527Y-12724460D02*
X9131003Y-12714936D01*
X9131003Y-12714936D02*
X9121480Y-12695888D01*
X9121480Y-12695888D02*
X9111956Y-12657793D01*
X9111956Y-12657793D02*
X9111956Y-12610174D01*
X9111956Y-12610174D02*
X9121480Y-12572079D01*
X9121480Y-12572079D02*
X9131003Y-12553031D01*
X9131003Y-12553031D02*
X9140527Y-12543508D01*
X9140527Y-12543508D02*
X9159575Y-12533984D01*
X9311956Y-12714936D02*
X9321480Y-12724460D01*
X9321480Y-12724460D02*
X9311956Y-12733984D01*
X9311956Y-12733984D02*
X9302432Y-12724460D01*
X9302432Y-12724460D02*
X9311956Y-12714936D01*
X9311956Y-12714936D02*
X9311956Y-12733984D01*
X9445289Y-12533984D02*
X9464337Y-12533984D01*
X9464337Y-12533984D02*
X9483384Y-12543508D01*
X9483384Y-12543508D02*
X9492908Y-12553031D01*
X9492908Y-12553031D02*
X9502432Y-12572079D01*
X9502432Y-12572079D02*
X9511956Y-12610174D01*
X9511956Y-12610174D02*
X9511956Y-12657793D01*
X9511956Y-12657793D02*
X9502432Y-12695888D01*
X9502432Y-12695888D02*
X9492908Y-12714936D01*
X9492908Y-12714936D02*
X9483384Y-12724460D01*
X9483384Y-12724460D02*
X9464337Y-12733984D01*
X9464337Y-12733984D02*
X9445289Y-12733984D01*
X9445289Y-12733984D02*
X9426241Y-12724460D01*
X9426241Y-12724460D02*
X9416718Y-12714936D01*
X9416718Y-12714936D02*
X9407194Y-12695888D01*
X9407194Y-12695888D02*
X9397670Y-12657793D01*
X9397670Y-12657793D02*
X9397670Y-12610174D01*
X9397670Y-12610174D02*
X9407194Y-12572079D01*
X9407194Y-12572079D02*
X9416718Y-12553031D01*
X9416718Y-12553031D02*
X9426241Y-12543508D01*
X9426241Y-12543508D02*
X9445289Y-12533984D01*
X9635765Y-12533984D02*
X9654813Y-12533984D01*
X9654813Y-12533984D02*
X9673861Y-12543508D01*
X9673861Y-12543508D02*
X9683384Y-12553031D01*
X9683384Y-12553031D02*
X9692908Y-12572079D01*
X9692908Y-12572079D02*
X9702432Y-12610174D01*
X9702432Y-12610174D02*
X9702432Y-12657793D01*
X9702432Y-12657793D02*
X9692908Y-12695888D01*
X9692908Y-12695888D02*
X9683384Y-12714936D01*
X9683384Y-12714936D02*
X9673861Y-12724460D01*
X9673861Y-12724460D02*
X9654813Y-12733984D01*
X9654813Y-12733984D02*
X9635765Y-12733984D01*
X9635765Y-12733984D02*
X9616718Y-12724460D01*
X9616718Y-12724460D02*
X9607194Y-12714936D01*
X9607194Y-12714936D02*
X9597670Y-12695888D01*
X9597670Y-12695888D02*
X9588146Y-12657793D01*
X9588146Y-12657793D02*
X9588146Y-12610174D01*
X9588146Y-12610174D02*
X9597670Y-12572079D01*
X9597670Y-12572079D02*
X9607194Y-12553031D01*
X9607194Y-12553031D02*
X9616718Y-12543508D01*
X9616718Y-12543508D02*
X9635765Y-12533984D01*
X9769099Y-12533984D02*
X9902432Y-12533984D01*
X9902432Y-12533984D02*
X9816718Y-12733984D01*
X9988146Y-12733984D02*
X10026241Y-12733984D01*
X10026241Y-12733984D02*
X10045289Y-12724460D01*
X10045289Y-12724460D02*
X10054813Y-12714936D01*
X10054813Y-12714936D02*
X10073861Y-12686365D01*
X10073861Y-12686365D02*
X10083384Y-12648269D01*
X10083384Y-12648269D02*
X10083384Y-12572079D01*
X10083384Y-12572079D02*
X10073861Y-12553031D01*
X10073861Y-12553031D02*
X10064337Y-12543508D01*
X10064337Y-12543508D02*
X10045289Y-12533984D01*
X10045289Y-12533984D02*
X10007194Y-12533984D01*
X10007194Y-12533984D02*
X9988146Y-12543508D01*
X9988146Y-12543508D02*
X9978622Y-12553031D01*
X9978622Y-12553031D02*
X9969099Y-12572079D01*
X9969099Y-12572079D02*
X9969099Y-12619698D01*
X9969099Y-12619698D02*
X9978622Y-12638746D01*
X9978622Y-12638746D02*
X9988146Y-12648269D01*
X9988146Y-12648269D02*
X10007194Y-12657793D01*
X10007194Y-12657793D02*
X10045289Y-12657793D01*
X10045289Y-12657793D02*
X10064337Y-12648269D01*
X10064337Y-12648269D02*
X10073861Y-12638746D01*
X10073861Y-12638746D02*
X10083384Y-12619698D01*
X10159575Y-12533984D02*
X10159575Y-12572079D01*
X10235765Y-12533984D02*
X10235765Y-12572079D01*
X10531004Y-12810174D02*
X10521480Y-12800650D01*
X10521480Y-12800650D02*
X10502432Y-12772079D01*
X10502432Y-12772079D02*
X10492908Y-12753031D01*
X10492908Y-12753031D02*
X10483384Y-12724460D01*
X10483384Y-12724460D02*
X10473861Y-12676841D01*
X10473861Y-12676841D02*
X10473861Y-12638746D01*
X10473861Y-12638746D02*
X10483384Y-12591127D01*
X10483384Y-12591127D02*
X10492908Y-12562555D01*
X10492908Y-12562555D02*
X10502432Y-12543508D01*
X10502432Y-12543508D02*
X10521480Y-12514936D01*
X10521480Y-12514936D02*
X10531004Y-12505412D01*
X10692908Y-12533984D02*
X10654813Y-12533984D01*
X10654813Y-12533984D02*
X10635765Y-12543508D01*
X10635765Y-12543508D02*
X10626242Y-12553031D01*
X10626242Y-12553031D02*
X10607194Y-12581603D01*
X10607194Y-12581603D02*
X10597670Y-12619698D01*
X10597670Y-12619698D02*
X10597670Y-12695888D01*
X10597670Y-12695888D02*
X10607194Y-12714936D01*
X10607194Y-12714936D02*
X10616718Y-12724460D01*
X10616718Y-12724460D02*
X10635765Y-12733984D01*
X10635765Y-12733984D02*
X10673861Y-12733984D01*
X10673861Y-12733984D02*
X10692908Y-12724460D01*
X10692908Y-12724460D02*
X10702432Y-12714936D01*
X10702432Y-12714936D02*
X10711956Y-12695888D01*
X10711956Y-12695888D02*
X10711956Y-12648269D01*
X10711956Y-12648269D02*
X10702432Y-12629222D01*
X10702432Y-12629222D02*
X10692908Y-12619698D01*
X10692908Y-12619698D02*
X10673861Y-12610174D01*
X10673861Y-12610174D02*
X10635765Y-12610174D01*
X10635765Y-12610174D02*
X10616718Y-12619698D01*
X10616718Y-12619698D02*
X10607194Y-12629222D01*
X10607194Y-12629222D02*
X10597670Y-12648269D01*
X10950051Y-12733984D02*
X10950051Y-12533984D01*
X11035765Y-12733984D02*
X11035765Y-12629222D01*
X11035765Y-12629222D02*
X11026242Y-12610174D01*
X11026242Y-12610174D02*
X11007194Y-12600650D01*
X11007194Y-12600650D02*
X10978623Y-12600650D01*
X10978623Y-12600650D02*
X10959575Y-12610174D01*
X10959575Y-12610174D02*
X10950051Y-12619698D01*
X11159575Y-12733984D02*
X11140527Y-12724460D01*
X11140527Y-12724460D02*
X11131004Y-12714936D01*
X11131004Y-12714936D02*
X11121480Y-12695888D01*
X11121480Y-12695888D02*
X11121480Y-12638746D01*
X11121480Y-12638746D02*
X11131004Y-12619698D01*
X11131004Y-12619698D02*
X11140527Y-12610174D01*
X11140527Y-12610174D02*
X11159575Y-12600650D01*
X11159575Y-12600650D02*
X11188146Y-12600650D01*
X11188146Y-12600650D02*
X11207194Y-12610174D01*
X11207194Y-12610174D02*
X11216718Y-12619698D01*
X11216718Y-12619698D02*
X11226242Y-12638746D01*
X11226242Y-12638746D02*
X11226242Y-12695888D01*
X11226242Y-12695888D02*
X11216718Y-12714936D01*
X11216718Y-12714936D02*
X11207194Y-12724460D01*
X11207194Y-12724460D02*
X11188146Y-12733984D01*
X11188146Y-12733984D02*
X11159575Y-12733984D01*
X11340527Y-12733984D02*
X11321480Y-12724460D01*
X11321480Y-12724460D02*
X11311956Y-12705412D01*
X11311956Y-12705412D02*
X11311956Y-12533984D01*
X11492908Y-12724460D02*
X11473861Y-12733984D01*
X11473861Y-12733984D02*
X11435765Y-12733984D01*
X11435765Y-12733984D02*
X11416718Y-12724460D01*
X11416718Y-12724460D02*
X11407194Y-12705412D01*
X11407194Y-12705412D02*
X11407194Y-12629222D01*
X11407194Y-12629222D02*
X11416718Y-12610174D01*
X11416718Y-12610174D02*
X11435765Y-12600650D01*
X11435765Y-12600650D02*
X11473861Y-12600650D01*
X11473861Y-12600650D02*
X11492908Y-12610174D01*
X11492908Y-12610174D02*
X11502432Y-12629222D01*
X11502432Y-12629222D02*
X11502432Y-12648269D01*
X11502432Y-12648269D02*
X11407194Y-12667317D01*
X11578623Y-12724460D02*
X11597670Y-12733984D01*
X11597670Y-12733984D02*
X11635765Y-12733984D01*
X11635765Y-12733984D02*
X11654813Y-12724460D01*
X11654813Y-12724460D02*
X11664337Y-12705412D01*
X11664337Y-12705412D02*
X11664337Y-12695888D01*
X11664337Y-12695888D02*
X11654813Y-12676841D01*
X11654813Y-12676841D02*
X11635765Y-12667317D01*
X11635765Y-12667317D02*
X11607194Y-12667317D01*
X11607194Y-12667317D02*
X11588146Y-12657793D01*
X11588146Y-12657793D02*
X11578623Y-12638746D01*
X11578623Y-12638746D02*
X11578623Y-12629222D01*
X11578623Y-12629222D02*
X11588146Y-12610174D01*
X11588146Y-12610174D02*
X11607194Y-12600650D01*
X11607194Y-12600650D02*
X11635765Y-12600650D01*
X11635765Y-12600650D02*
X11654813Y-12610174D01*
X11731004Y-12810174D02*
X11740527Y-12800650D01*
X11740527Y-12800650D02*
X11759575Y-12772079D01*
X11759575Y-12772079D02*
X11769099Y-12753031D01*
X11769099Y-12753031D02*
X11778623Y-12724460D01*
X11778623Y-12724460D02*
X11788146Y-12676841D01*
X11788146Y-12676841D02*
X11788146Y-12638746D01*
X11788146Y-12638746D02*
X11778623Y-12591127D01*
X11778623Y-12591127D02*
X11769099Y-12562555D01*
X11769099Y-12562555D02*
X11759575Y-12543508D01*
X11759575Y-12543508D02*
X11740527Y-12514936D01*
X11740527Y-12514936D02*
X11731004Y-12505412D01*
D12*
X6955941Y-12906500D02*
G75*
G02*
X6925941Y-12906500I-15000J0D01*
G01*
X6925941Y-12906500D02*
G75*
G02*
X6955941Y-12906500I15000J0D01*
G01*
D11*
X7254813Y-12797984D02*
X7273860Y-12797984D01*
X7273860Y-12797984D02*
X7292908Y-12807508D01*
X7292908Y-12807508D02*
X7302432Y-12817031D01*
X7302432Y-12817031D02*
X7311955Y-12836079D01*
X7311955Y-12836079D02*
X7321479Y-12874174D01*
X7321479Y-12874174D02*
X7321479Y-12921793D01*
X7321479Y-12921793D02*
X7311955Y-12959888D01*
X7311955Y-12959888D02*
X7302432Y-12978936D01*
X7302432Y-12978936D02*
X7292908Y-12988460D01*
X7292908Y-12988460D02*
X7273860Y-12997984D01*
X7273860Y-12997984D02*
X7254813Y-12997984D01*
X7254813Y-12997984D02*
X7235765Y-12988460D01*
X7235765Y-12988460D02*
X7226241Y-12978936D01*
X7226241Y-12978936D02*
X7216717Y-12959888D01*
X7216717Y-12959888D02*
X7207194Y-12921793D01*
X7207194Y-12921793D02*
X7207194Y-12874174D01*
X7207194Y-12874174D02*
X7216717Y-12836079D01*
X7216717Y-12836079D02*
X7226241Y-12817031D01*
X7226241Y-12817031D02*
X7235765Y-12807508D01*
X7235765Y-12807508D02*
X7254813Y-12797984D01*
X7407194Y-12978936D02*
X7416717Y-12988460D01*
X7416717Y-12988460D02*
X7407194Y-12997984D01*
X7407194Y-12997984D02*
X7397670Y-12988460D01*
X7397670Y-12988460D02*
X7407194Y-12978936D01*
X7407194Y-12978936D02*
X7407194Y-12997984D01*
X7483384Y-12797984D02*
X7607194Y-12797984D01*
X7607194Y-12797984D02*
X7540527Y-12874174D01*
X7540527Y-12874174D02*
X7569098Y-12874174D01*
X7569098Y-12874174D02*
X7588146Y-12883698D01*
X7588146Y-12883698D02*
X7597670Y-12893222D01*
X7597670Y-12893222D02*
X7607194Y-12912269D01*
X7607194Y-12912269D02*
X7607194Y-12959888D01*
X7607194Y-12959888D02*
X7597670Y-12978936D01*
X7597670Y-12978936D02*
X7588146Y-12988460D01*
X7588146Y-12988460D02*
X7569098Y-12997984D01*
X7569098Y-12997984D02*
X7511955Y-12997984D01*
X7511955Y-12997984D02*
X7492908Y-12988460D01*
X7492908Y-12988460D02*
X7483384Y-12978936D01*
X7731003Y-12797984D02*
X7750051Y-12797984D01*
X7750051Y-12797984D02*
X7769098Y-12807508D01*
X7769098Y-12807508D02*
X7778622Y-12817031D01*
X7778622Y-12817031D02*
X7788146Y-12836079D01*
X7788146Y-12836079D02*
X7797670Y-12874174D01*
X7797670Y-12874174D02*
X7797670Y-12921793D01*
X7797670Y-12921793D02*
X7788146Y-12959888D01*
X7788146Y-12959888D02*
X7778622Y-12978936D01*
X7778622Y-12978936D02*
X7769098Y-12988460D01*
X7769098Y-12988460D02*
X7750051Y-12997984D01*
X7750051Y-12997984D02*
X7731003Y-12997984D01*
X7731003Y-12997984D02*
X7711955Y-12988460D01*
X7711955Y-12988460D02*
X7702432Y-12978936D01*
X7702432Y-12978936D02*
X7692908Y-12959888D01*
X7692908Y-12959888D02*
X7683384Y-12921793D01*
X7683384Y-12921793D02*
X7683384Y-12874174D01*
X7683384Y-12874174D02*
X7692908Y-12836079D01*
X7692908Y-12836079D02*
X7702432Y-12817031D01*
X7702432Y-12817031D02*
X7711955Y-12807508D01*
X7711955Y-12807508D02*
X7731003Y-12797984D01*
X7921479Y-12797984D02*
X7940527Y-12797984D01*
X7940527Y-12797984D02*
X7959575Y-12807508D01*
X7959575Y-12807508D02*
X7969098Y-12817031D01*
X7969098Y-12817031D02*
X7978622Y-12836079D01*
X7978622Y-12836079D02*
X7988146Y-12874174D01*
X7988146Y-12874174D02*
X7988146Y-12921793D01*
X7988146Y-12921793D02*
X7978622Y-12959888D01*
X7978622Y-12959888D02*
X7969098Y-12978936D01*
X7969098Y-12978936D02*
X7959575Y-12988460D01*
X7959575Y-12988460D02*
X7940527Y-12997984D01*
X7940527Y-12997984D02*
X7921479Y-12997984D01*
X7921479Y-12997984D02*
X7902432Y-12988460D01*
X7902432Y-12988460D02*
X7892908Y-12978936D01*
X7892908Y-12978936D02*
X7883384Y-12959888D01*
X7883384Y-12959888D02*
X7873860Y-12921793D01*
X7873860Y-12921793D02*
X7873860Y-12874174D01*
X7873860Y-12874174D02*
X7883384Y-12836079D01*
X7883384Y-12836079D02*
X7892908Y-12817031D01*
X7892908Y-12817031D02*
X7902432Y-12807508D01*
X7902432Y-12807508D02*
X7921479Y-12797984D01*
X8073860Y-12997984D02*
X8073860Y-12864650D01*
X8073860Y-12883698D02*
X8083384Y-12874174D01*
X8083384Y-12874174D02*
X8102432Y-12864650D01*
X8102432Y-12864650D02*
X8131003Y-12864650D01*
X8131003Y-12864650D02*
X8150051Y-12874174D01*
X8150051Y-12874174D02*
X8159575Y-12893222D01*
X8159575Y-12893222D02*
X8159575Y-12997984D01*
X8159575Y-12893222D02*
X8169098Y-12874174D01*
X8169098Y-12874174D02*
X8188146Y-12864650D01*
X8188146Y-12864650D02*
X8216717Y-12864650D01*
X8216717Y-12864650D02*
X8235765Y-12874174D01*
X8235765Y-12874174D02*
X8245289Y-12893222D01*
X8245289Y-12893222D02*
X8245289Y-12997984D01*
X8340527Y-12997984D02*
X8340527Y-12864650D01*
X8340527Y-12883698D02*
X8350051Y-12874174D01*
X8350051Y-12874174D02*
X8369098Y-12864650D01*
X8369098Y-12864650D02*
X8397670Y-12864650D01*
X8397670Y-12864650D02*
X8416718Y-12874174D01*
X8416718Y-12874174D02*
X8426241Y-12893222D01*
X8426241Y-12893222D02*
X8426241Y-12997984D01*
X8426241Y-12893222D02*
X8435765Y-12874174D01*
X8435765Y-12874174D02*
X8454813Y-12864650D01*
X8454813Y-12864650D02*
X8483384Y-12864650D01*
X8483384Y-12864650D02*
X8502432Y-12874174D01*
X8502432Y-12874174D02*
X8511956Y-12893222D01*
X8511956Y-12893222D02*
X8511956Y-12997984D01*
X8902432Y-12788460D02*
X8731003Y-13045603D01*
X9159575Y-12797984D02*
X9178622Y-12797984D01*
X9178622Y-12797984D02*
X9197670Y-12807508D01*
X9197670Y-12807508D02*
X9207194Y-12817031D01*
X9207194Y-12817031D02*
X9216718Y-12836079D01*
X9216718Y-12836079D02*
X9226241Y-12874174D01*
X9226241Y-12874174D02*
X9226241Y-12921793D01*
X9226241Y-12921793D02*
X9216718Y-12959888D01*
X9216718Y-12959888D02*
X9207194Y-12978936D01*
X9207194Y-12978936D02*
X9197670Y-12988460D01*
X9197670Y-12988460D02*
X9178622Y-12997984D01*
X9178622Y-12997984D02*
X9159575Y-12997984D01*
X9159575Y-12997984D02*
X9140527Y-12988460D01*
X9140527Y-12988460D02*
X9131003Y-12978936D01*
X9131003Y-12978936D02*
X9121480Y-12959888D01*
X9121480Y-12959888D02*
X9111956Y-12921793D01*
X9111956Y-12921793D02*
X9111956Y-12874174D01*
X9111956Y-12874174D02*
X9121480Y-12836079D01*
X9121480Y-12836079D02*
X9131003Y-12817031D01*
X9131003Y-12817031D02*
X9140527Y-12807508D01*
X9140527Y-12807508D02*
X9159575Y-12797984D01*
X9311956Y-12978936D02*
X9321480Y-12988460D01*
X9321480Y-12988460D02*
X9311956Y-12997984D01*
X9311956Y-12997984D02*
X9302432Y-12988460D01*
X9302432Y-12988460D02*
X9311956Y-12978936D01*
X9311956Y-12978936D02*
X9311956Y-12997984D01*
X9445289Y-12797984D02*
X9464337Y-12797984D01*
X9464337Y-12797984D02*
X9483384Y-12807508D01*
X9483384Y-12807508D02*
X9492908Y-12817031D01*
X9492908Y-12817031D02*
X9502432Y-12836079D01*
X9502432Y-12836079D02*
X9511956Y-12874174D01*
X9511956Y-12874174D02*
X9511956Y-12921793D01*
X9511956Y-12921793D02*
X9502432Y-12959888D01*
X9502432Y-12959888D02*
X9492908Y-12978936D01*
X9492908Y-12978936D02*
X9483384Y-12988460D01*
X9483384Y-12988460D02*
X9464337Y-12997984D01*
X9464337Y-12997984D02*
X9445289Y-12997984D01*
X9445289Y-12997984D02*
X9426241Y-12988460D01*
X9426241Y-12988460D02*
X9416718Y-12978936D01*
X9416718Y-12978936D02*
X9407194Y-12959888D01*
X9407194Y-12959888D02*
X9397670Y-12921793D01*
X9397670Y-12921793D02*
X9397670Y-12874174D01*
X9397670Y-12874174D02*
X9407194Y-12836079D01*
X9407194Y-12836079D02*
X9416718Y-12817031D01*
X9416718Y-12817031D02*
X9426241Y-12807508D01*
X9426241Y-12807508D02*
X9445289Y-12797984D01*
X9702432Y-12997984D02*
X9588146Y-12997984D01*
X9645289Y-12997984D02*
X9645289Y-12797984D01*
X9645289Y-12797984D02*
X9626241Y-12826555D01*
X9626241Y-12826555D02*
X9607194Y-12845603D01*
X9607194Y-12845603D02*
X9588146Y-12855127D01*
X9892908Y-12997984D02*
X9778622Y-12997984D01*
X9835765Y-12997984D02*
X9835765Y-12797984D01*
X9835765Y-12797984D02*
X9816718Y-12826555D01*
X9816718Y-12826555D02*
X9797670Y-12845603D01*
X9797670Y-12845603D02*
X9778622Y-12855127D01*
X10007194Y-12883698D02*
X9988146Y-12874174D01*
X9988146Y-12874174D02*
X9978622Y-12864650D01*
X9978622Y-12864650D02*
X9969099Y-12845603D01*
X9969099Y-12845603D02*
X9969099Y-12836079D01*
X9969099Y-12836079D02*
X9978622Y-12817031D01*
X9978622Y-12817031D02*
X9988146Y-12807508D01*
X9988146Y-12807508D02*
X10007194Y-12797984D01*
X10007194Y-12797984D02*
X10045289Y-12797984D01*
X10045289Y-12797984D02*
X10064337Y-12807508D01*
X10064337Y-12807508D02*
X10073861Y-12817031D01*
X10073861Y-12817031D02*
X10083384Y-12836079D01*
X10083384Y-12836079D02*
X10083384Y-12845603D01*
X10083384Y-12845603D02*
X10073861Y-12864650D01*
X10073861Y-12864650D02*
X10064337Y-12874174D01*
X10064337Y-12874174D02*
X10045289Y-12883698D01*
X10045289Y-12883698D02*
X10007194Y-12883698D01*
X10007194Y-12883698D02*
X9988146Y-12893222D01*
X9988146Y-12893222D02*
X9978622Y-12902746D01*
X9978622Y-12902746D02*
X9969099Y-12921793D01*
X9969099Y-12921793D02*
X9969099Y-12959888D01*
X9969099Y-12959888D02*
X9978622Y-12978936D01*
X9978622Y-12978936D02*
X9988146Y-12988460D01*
X9988146Y-12988460D02*
X10007194Y-12997984D01*
X10007194Y-12997984D02*
X10045289Y-12997984D01*
X10045289Y-12997984D02*
X10064337Y-12988460D01*
X10064337Y-12988460D02*
X10073861Y-12978936D01*
X10073861Y-12978936D02*
X10083384Y-12959888D01*
X10083384Y-12959888D02*
X10083384Y-12921793D01*
X10083384Y-12921793D02*
X10073861Y-12902746D01*
X10073861Y-12902746D02*
X10064337Y-12893222D01*
X10064337Y-12893222D02*
X10045289Y-12883698D01*
X10159575Y-12797984D02*
X10159575Y-12836079D01*
X10235765Y-12797984D02*
X10235765Y-12836079D01*
X10531004Y-13074174D02*
X10521480Y-13064650D01*
X10521480Y-13064650D02*
X10502432Y-13036079D01*
X10502432Y-13036079D02*
X10492908Y-13017031D01*
X10492908Y-13017031D02*
X10483384Y-12988460D01*
X10483384Y-12988460D02*
X10473861Y-12940841D01*
X10473861Y-12940841D02*
X10473861Y-12902746D01*
X10473861Y-12902746D02*
X10483384Y-12855127D01*
X10483384Y-12855127D02*
X10492908Y-12826555D01*
X10492908Y-12826555D02*
X10502432Y-12807508D01*
X10502432Y-12807508D02*
X10521480Y-12778936D01*
X10521480Y-12778936D02*
X10531004Y-12769412D01*
X10692908Y-12864650D02*
X10692908Y-12997984D01*
X10645289Y-12788460D02*
X10597670Y-12931317D01*
X10597670Y-12931317D02*
X10721480Y-12931317D01*
X10788146Y-12817031D02*
X10797670Y-12807508D01*
X10797670Y-12807508D02*
X10816718Y-12797984D01*
X10816718Y-12797984D02*
X10864337Y-12797984D01*
X10864337Y-12797984D02*
X10883384Y-12807508D01*
X10883384Y-12807508D02*
X10892908Y-12817031D01*
X10892908Y-12817031D02*
X10902432Y-12836079D01*
X10902432Y-12836079D02*
X10902432Y-12855127D01*
X10902432Y-12855127D02*
X10892908Y-12883698D01*
X10892908Y-12883698D02*
X10778623Y-12997984D01*
X10778623Y-12997984D02*
X10902432Y-12997984D01*
X11140527Y-12997984D02*
X11140527Y-12797984D01*
X11226242Y-12997984D02*
X11226242Y-12893222D01*
X11226242Y-12893222D02*
X11216718Y-12874174D01*
X11216718Y-12874174D02*
X11197670Y-12864650D01*
X11197670Y-12864650D02*
X11169099Y-12864650D01*
X11169099Y-12864650D02*
X11150051Y-12874174D01*
X11150051Y-12874174D02*
X11140527Y-12883698D01*
X11350051Y-12997984D02*
X11331003Y-12988460D01*
X11331003Y-12988460D02*
X11321480Y-12978936D01*
X11321480Y-12978936D02*
X11311956Y-12959888D01*
X11311956Y-12959888D02*
X11311956Y-12902746D01*
X11311956Y-12902746D02*
X11321480Y-12883698D01*
X11321480Y-12883698D02*
X11331003Y-12874174D01*
X11331003Y-12874174D02*
X11350051Y-12864650D01*
X11350051Y-12864650D02*
X11378623Y-12864650D01*
X11378623Y-12864650D02*
X11397670Y-12874174D01*
X11397670Y-12874174D02*
X11407194Y-12883698D01*
X11407194Y-12883698D02*
X11416718Y-12902746D01*
X11416718Y-12902746D02*
X11416718Y-12959888D01*
X11416718Y-12959888D02*
X11407194Y-12978936D01*
X11407194Y-12978936D02*
X11397670Y-12988460D01*
X11397670Y-12988460D02*
X11378623Y-12997984D01*
X11378623Y-12997984D02*
X11350051Y-12997984D01*
X11531003Y-12997984D02*
X11511956Y-12988460D01*
X11511956Y-12988460D02*
X11502432Y-12969412D01*
X11502432Y-12969412D02*
X11502432Y-12797984D01*
X11683384Y-12988460D02*
X11664337Y-12997984D01*
X11664337Y-12997984D02*
X11626242Y-12997984D01*
X11626242Y-12997984D02*
X11607194Y-12988460D01*
X11607194Y-12988460D02*
X11597670Y-12969412D01*
X11597670Y-12969412D02*
X11597670Y-12893222D01*
X11597670Y-12893222D02*
X11607194Y-12874174D01*
X11607194Y-12874174D02*
X11626242Y-12864650D01*
X11626242Y-12864650D02*
X11664337Y-12864650D01*
X11664337Y-12864650D02*
X11683384Y-12874174D01*
X11683384Y-12874174D02*
X11692908Y-12893222D01*
X11692908Y-12893222D02*
X11692908Y-12912269D01*
X11692908Y-12912269D02*
X11597670Y-12931317D01*
X11769099Y-12988460D02*
X11788146Y-12997984D01*
X11788146Y-12997984D02*
X11826242Y-12997984D01*
X11826242Y-12997984D02*
X11845289Y-12988460D01*
X11845289Y-12988460D02*
X11854813Y-12969412D01*
X11854813Y-12969412D02*
X11854813Y-12959888D01*
X11854813Y-12959888D02*
X11845289Y-12940841D01*
X11845289Y-12940841D02*
X11826242Y-12931317D01*
X11826242Y-12931317D02*
X11797670Y-12931317D01*
X11797670Y-12931317D02*
X11778623Y-12921793D01*
X11778623Y-12921793D02*
X11769099Y-12902746D01*
X11769099Y-12902746D02*
X11769099Y-12893222D01*
X11769099Y-12893222D02*
X11778623Y-12874174D01*
X11778623Y-12874174D02*
X11797670Y-12864650D01*
X11797670Y-12864650D02*
X11826242Y-12864650D01*
X11826242Y-12864650D02*
X11845289Y-12874174D01*
X11921480Y-13074174D02*
X11931004Y-13064650D01*
X11931004Y-13064650D02*
X11950051Y-13036079D01*
X11950051Y-13036079D02*
X11959575Y-13017031D01*
X11959575Y-13017031D02*
X11969099Y-12988460D01*
X11969099Y-12988460D02*
X11978623Y-12940841D01*
X11978623Y-12940841D02*
X11978623Y-12902746D01*
X11978623Y-12902746D02*
X11969099Y-12855127D01*
X11969099Y-12855127D02*
X11959575Y-12826555D01*
X11959575Y-12826555D02*
X11950051Y-12807508D01*
X11950051Y-12807508D02*
X11931004Y-12778936D01*
X11931004Y-12778936D02*
X11921480Y-12769412D01*
D12*
X6930941Y-13145500D02*
X6930941Y-13195500D01*
X6905941Y-13170500D02*
X6955941Y-13170500D01*
D11*
X7254813Y-13061984D02*
X7273860Y-13061984D01*
X7273860Y-13061984D02*
X7292908Y-13071508D01*
X7292908Y-13071508D02*
X7302432Y-13081031D01*
X7302432Y-13081031D02*
X7311955Y-13100079D01*
X7311955Y-13100079D02*
X7321479Y-13138174D01*
X7321479Y-13138174D02*
X7321479Y-13185793D01*
X7321479Y-13185793D02*
X7311955Y-13223888D01*
X7311955Y-13223888D02*
X7302432Y-13242936D01*
X7302432Y-13242936D02*
X7292908Y-13252460D01*
X7292908Y-13252460D02*
X7273860Y-13261984D01*
X7273860Y-13261984D02*
X7254813Y-13261984D01*
X7254813Y-13261984D02*
X7235765Y-13252460D01*
X7235765Y-13252460D02*
X7226241Y-13242936D01*
X7226241Y-13242936D02*
X7216717Y-13223888D01*
X7216717Y-13223888D02*
X7207194Y-13185793D01*
X7207194Y-13185793D02*
X7207194Y-13138174D01*
X7207194Y-13138174D02*
X7216717Y-13100079D01*
X7216717Y-13100079D02*
X7226241Y-13081031D01*
X7226241Y-13081031D02*
X7235765Y-13071508D01*
X7235765Y-13071508D02*
X7254813Y-13061984D01*
X7407194Y-13242936D02*
X7416717Y-13252460D01*
X7416717Y-13252460D02*
X7407194Y-13261984D01*
X7407194Y-13261984D02*
X7397670Y-13252460D01*
X7397670Y-13252460D02*
X7407194Y-13242936D01*
X7407194Y-13242936D02*
X7407194Y-13261984D01*
X7597670Y-13061984D02*
X7502432Y-13061984D01*
X7502432Y-13061984D02*
X7492908Y-13157222D01*
X7492908Y-13157222D02*
X7502432Y-13147698D01*
X7502432Y-13147698D02*
X7521479Y-13138174D01*
X7521479Y-13138174D02*
X7569098Y-13138174D01*
X7569098Y-13138174D02*
X7588146Y-13147698D01*
X7588146Y-13147698D02*
X7597670Y-13157222D01*
X7597670Y-13157222D02*
X7607194Y-13176269D01*
X7607194Y-13176269D02*
X7607194Y-13223888D01*
X7607194Y-13223888D02*
X7597670Y-13242936D01*
X7597670Y-13242936D02*
X7588146Y-13252460D01*
X7588146Y-13252460D02*
X7569098Y-13261984D01*
X7569098Y-13261984D02*
X7521479Y-13261984D01*
X7521479Y-13261984D02*
X7502432Y-13252460D01*
X7502432Y-13252460D02*
X7492908Y-13242936D01*
X7731003Y-13061984D02*
X7750051Y-13061984D01*
X7750051Y-13061984D02*
X7769098Y-13071508D01*
X7769098Y-13071508D02*
X7778622Y-13081031D01*
X7778622Y-13081031D02*
X7788146Y-13100079D01*
X7788146Y-13100079D02*
X7797670Y-13138174D01*
X7797670Y-13138174D02*
X7797670Y-13185793D01*
X7797670Y-13185793D02*
X7788146Y-13223888D01*
X7788146Y-13223888D02*
X7778622Y-13242936D01*
X7778622Y-13242936D02*
X7769098Y-13252460D01*
X7769098Y-13252460D02*
X7750051Y-13261984D01*
X7750051Y-13261984D02*
X7731003Y-13261984D01*
X7731003Y-13261984D02*
X7711955Y-13252460D01*
X7711955Y-13252460D02*
X7702432Y-13242936D01*
X7702432Y-13242936D02*
X7692908Y-13223888D01*
X7692908Y-13223888D02*
X7683384Y-13185793D01*
X7683384Y-13185793D02*
X7683384Y-13138174D01*
X7683384Y-13138174D02*
X7692908Y-13100079D01*
X7692908Y-13100079D02*
X7702432Y-13081031D01*
X7702432Y-13081031D02*
X7711955Y-13071508D01*
X7711955Y-13071508D02*
X7731003Y-13061984D01*
X7921479Y-13061984D02*
X7940527Y-13061984D01*
X7940527Y-13061984D02*
X7959575Y-13071508D01*
X7959575Y-13071508D02*
X7969098Y-13081031D01*
X7969098Y-13081031D02*
X7978622Y-13100079D01*
X7978622Y-13100079D02*
X7988146Y-13138174D01*
X7988146Y-13138174D02*
X7988146Y-13185793D01*
X7988146Y-13185793D02*
X7978622Y-13223888D01*
X7978622Y-13223888D02*
X7969098Y-13242936D01*
X7969098Y-13242936D02*
X7959575Y-13252460D01*
X7959575Y-13252460D02*
X7940527Y-13261984D01*
X7940527Y-13261984D02*
X7921479Y-13261984D01*
X7921479Y-13261984D02*
X7902432Y-13252460D01*
X7902432Y-13252460D02*
X7892908Y-13242936D01*
X7892908Y-13242936D02*
X7883384Y-13223888D01*
X7883384Y-13223888D02*
X7873860Y-13185793D01*
X7873860Y-13185793D02*
X7873860Y-13138174D01*
X7873860Y-13138174D02*
X7883384Y-13100079D01*
X7883384Y-13100079D02*
X7892908Y-13081031D01*
X7892908Y-13081031D02*
X7902432Y-13071508D01*
X7902432Y-13071508D02*
X7921479Y-13061984D01*
X8073860Y-13261984D02*
X8073860Y-13128650D01*
X8073860Y-13147698D02*
X8083384Y-13138174D01*
X8083384Y-13138174D02*
X8102432Y-13128650D01*
X8102432Y-13128650D02*
X8131003Y-13128650D01*
X8131003Y-13128650D02*
X8150051Y-13138174D01*
X8150051Y-13138174D02*
X8159575Y-13157222D01*
X8159575Y-13157222D02*
X8159575Y-13261984D01*
X8159575Y-13157222D02*
X8169098Y-13138174D01*
X8169098Y-13138174D02*
X8188146Y-13128650D01*
X8188146Y-13128650D02*
X8216717Y-13128650D01*
X8216717Y-13128650D02*
X8235765Y-13138174D01*
X8235765Y-13138174D02*
X8245289Y-13157222D01*
X8245289Y-13157222D02*
X8245289Y-13261984D01*
X8340527Y-13261984D02*
X8340527Y-13128650D01*
X8340527Y-13147698D02*
X8350051Y-13138174D01*
X8350051Y-13138174D02*
X8369098Y-13128650D01*
X8369098Y-13128650D02*
X8397670Y-13128650D01*
X8397670Y-13128650D02*
X8416718Y-13138174D01*
X8416718Y-13138174D02*
X8426241Y-13157222D01*
X8426241Y-13157222D02*
X8426241Y-13261984D01*
X8426241Y-13157222D02*
X8435765Y-13138174D01*
X8435765Y-13138174D02*
X8454813Y-13128650D01*
X8454813Y-13128650D02*
X8483384Y-13128650D01*
X8483384Y-13128650D02*
X8502432Y-13138174D01*
X8502432Y-13138174D02*
X8511956Y-13157222D01*
X8511956Y-13157222D02*
X8511956Y-13261984D01*
X8902432Y-13052460D02*
X8731003Y-13309603D01*
X9159575Y-13061984D02*
X9178622Y-13061984D01*
X9178622Y-13061984D02*
X9197670Y-13071508D01*
X9197670Y-13071508D02*
X9207194Y-13081031D01*
X9207194Y-13081031D02*
X9216718Y-13100079D01*
X9216718Y-13100079D02*
X9226241Y-13138174D01*
X9226241Y-13138174D02*
X9226241Y-13185793D01*
X9226241Y-13185793D02*
X9216718Y-13223888D01*
X9216718Y-13223888D02*
X9207194Y-13242936D01*
X9207194Y-13242936D02*
X9197670Y-13252460D01*
X9197670Y-13252460D02*
X9178622Y-13261984D01*
X9178622Y-13261984D02*
X9159575Y-13261984D01*
X9159575Y-13261984D02*
X9140527Y-13252460D01*
X9140527Y-13252460D02*
X9131003Y-13242936D01*
X9131003Y-13242936D02*
X9121480Y-13223888D01*
X9121480Y-13223888D02*
X9111956Y-13185793D01*
X9111956Y-13185793D02*
X9111956Y-13138174D01*
X9111956Y-13138174D02*
X9121480Y-13100079D01*
X9121480Y-13100079D02*
X9131003Y-13081031D01*
X9131003Y-13081031D02*
X9140527Y-13071508D01*
X9140527Y-13071508D02*
X9159575Y-13061984D01*
X9311956Y-13242936D02*
X9321480Y-13252460D01*
X9321480Y-13252460D02*
X9311956Y-13261984D01*
X9311956Y-13261984D02*
X9302432Y-13252460D01*
X9302432Y-13252460D02*
X9311956Y-13242936D01*
X9311956Y-13242936D02*
X9311956Y-13261984D01*
X9445289Y-13061984D02*
X9464337Y-13061984D01*
X9464337Y-13061984D02*
X9483384Y-13071508D01*
X9483384Y-13071508D02*
X9492908Y-13081031D01*
X9492908Y-13081031D02*
X9502432Y-13100079D01*
X9502432Y-13100079D02*
X9511956Y-13138174D01*
X9511956Y-13138174D02*
X9511956Y-13185793D01*
X9511956Y-13185793D02*
X9502432Y-13223888D01*
X9502432Y-13223888D02*
X9492908Y-13242936D01*
X9492908Y-13242936D02*
X9483384Y-13252460D01*
X9483384Y-13252460D02*
X9464337Y-13261984D01*
X9464337Y-13261984D02*
X9445289Y-13261984D01*
X9445289Y-13261984D02*
X9426241Y-13252460D01*
X9426241Y-13252460D02*
X9416718Y-13242936D01*
X9416718Y-13242936D02*
X9407194Y-13223888D01*
X9407194Y-13223888D02*
X9397670Y-13185793D01*
X9397670Y-13185793D02*
X9397670Y-13138174D01*
X9397670Y-13138174D02*
X9407194Y-13100079D01*
X9407194Y-13100079D02*
X9416718Y-13081031D01*
X9416718Y-13081031D02*
X9426241Y-13071508D01*
X9426241Y-13071508D02*
X9445289Y-13061984D01*
X9702432Y-13261984D02*
X9588146Y-13261984D01*
X9645289Y-13261984D02*
X9645289Y-13061984D01*
X9645289Y-13061984D02*
X9626241Y-13090555D01*
X9626241Y-13090555D02*
X9607194Y-13109603D01*
X9607194Y-13109603D02*
X9588146Y-13119127D01*
X9797670Y-13261984D02*
X9835765Y-13261984D01*
X9835765Y-13261984D02*
X9854813Y-13252460D01*
X9854813Y-13252460D02*
X9864337Y-13242936D01*
X9864337Y-13242936D02*
X9883384Y-13214365D01*
X9883384Y-13214365D02*
X9892908Y-13176269D01*
X9892908Y-13176269D02*
X9892908Y-13100079D01*
X9892908Y-13100079D02*
X9883384Y-13081031D01*
X9883384Y-13081031D02*
X9873861Y-13071508D01*
X9873861Y-13071508D02*
X9854813Y-13061984D01*
X9854813Y-13061984D02*
X9816718Y-13061984D01*
X9816718Y-13061984D02*
X9797670Y-13071508D01*
X9797670Y-13071508D02*
X9788146Y-13081031D01*
X9788146Y-13081031D02*
X9778622Y-13100079D01*
X9778622Y-13100079D02*
X9778622Y-13147698D01*
X9778622Y-13147698D02*
X9788146Y-13166746D01*
X9788146Y-13166746D02*
X9797670Y-13176269D01*
X9797670Y-13176269D02*
X9816718Y-13185793D01*
X9816718Y-13185793D02*
X9854813Y-13185793D01*
X9854813Y-13185793D02*
X9873861Y-13176269D01*
X9873861Y-13176269D02*
X9883384Y-13166746D01*
X9883384Y-13166746D02*
X9892908Y-13147698D01*
X9959575Y-13061984D02*
X10092908Y-13061984D01*
X10092908Y-13061984D02*
X10007194Y-13261984D01*
X10159575Y-13061984D02*
X10159575Y-13100079D01*
X10235765Y-13061984D02*
X10235765Y-13100079D01*
X10531004Y-13338174D02*
X10521480Y-13328650D01*
X10521480Y-13328650D02*
X10502432Y-13300079D01*
X10502432Y-13300079D02*
X10492908Y-13281031D01*
X10492908Y-13281031D02*
X10483384Y-13252460D01*
X10483384Y-13252460D02*
X10473861Y-13204841D01*
X10473861Y-13204841D02*
X10473861Y-13166746D01*
X10473861Y-13166746D02*
X10483384Y-13119127D01*
X10483384Y-13119127D02*
X10492908Y-13090555D01*
X10492908Y-13090555D02*
X10502432Y-13071508D01*
X10502432Y-13071508D02*
X10521480Y-13042936D01*
X10521480Y-13042936D02*
X10531004Y-13033412D01*
X10692908Y-13128650D02*
X10692908Y-13261984D01*
X10645289Y-13052460D02*
X10597670Y-13195317D01*
X10597670Y-13195317D02*
X10721480Y-13195317D01*
X10950051Y-13261984D02*
X10950051Y-13061984D01*
X11035765Y-13261984D02*
X11035765Y-13157222D01*
X11035765Y-13157222D02*
X11026242Y-13138174D01*
X11026242Y-13138174D02*
X11007194Y-13128650D01*
X11007194Y-13128650D02*
X10978623Y-13128650D01*
X10978623Y-13128650D02*
X10959575Y-13138174D01*
X10959575Y-13138174D02*
X10950051Y-13147698D01*
X11159575Y-13261984D02*
X11140527Y-13252460D01*
X11140527Y-13252460D02*
X11131004Y-13242936D01*
X11131004Y-13242936D02*
X11121480Y-13223888D01*
X11121480Y-13223888D02*
X11121480Y-13166746D01*
X11121480Y-13166746D02*
X11131004Y-13147698D01*
X11131004Y-13147698D02*
X11140527Y-13138174D01*
X11140527Y-13138174D02*
X11159575Y-13128650D01*
X11159575Y-13128650D02*
X11188146Y-13128650D01*
X11188146Y-13128650D02*
X11207194Y-13138174D01*
X11207194Y-13138174D02*
X11216718Y-13147698D01*
X11216718Y-13147698D02*
X11226242Y-13166746D01*
X11226242Y-13166746D02*
X11226242Y-13223888D01*
X11226242Y-13223888D02*
X11216718Y-13242936D01*
X11216718Y-13242936D02*
X11207194Y-13252460D01*
X11207194Y-13252460D02*
X11188146Y-13261984D01*
X11188146Y-13261984D02*
X11159575Y-13261984D01*
X11340527Y-13261984D02*
X11321480Y-13252460D01*
X11321480Y-13252460D02*
X11311956Y-13233412D01*
X11311956Y-13233412D02*
X11311956Y-13061984D01*
X11492908Y-13252460D02*
X11473861Y-13261984D01*
X11473861Y-13261984D02*
X11435765Y-13261984D01*
X11435765Y-13261984D02*
X11416718Y-13252460D01*
X11416718Y-13252460D02*
X11407194Y-13233412D01*
X11407194Y-13233412D02*
X11407194Y-13157222D01*
X11407194Y-13157222D02*
X11416718Y-13138174D01*
X11416718Y-13138174D02*
X11435765Y-13128650D01*
X11435765Y-13128650D02*
X11473861Y-13128650D01*
X11473861Y-13128650D02*
X11492908Y-13138174D01*
X11492908Y-13138174D02*
X11502432Y-13157222D01*
X11502432Y-13157222D02*
X11502432Y-13176269D01*
X11502432Y-13176269D02*
X11407194Y-13195317D01*
X11578623Y-13252460D02*
X11597670Y-13261984D01*
X11597670Y-13261984D02*
X11635765Y-13261984D01*
X11635765Y-13261984D02*
X11654813Y-13252460D01*
X11654813Y-13252460D02*
X11664337Y-13233412D01*
X11664337Y-13233412D02*
X11664337Y-13223888D01*
X11664337Y-13223888D02*
X11654813Y-13204841D01*
X11654813Y-13204841D02*
X11635765Y-13195317D01*
X11635765Y-13195317D02*
X11607194Y-13195317D01*
X11607194Y-13195317D02*
X11588146Y-13185793D01*
X11588146Y-13185793D02*
X11578623Y-13166746D01*
X11578623Y-13166746D02*
X11578623Y-13157222D01*
X11578623Y-13157222D02*
X11588146Y-13138174D01*
X11588146Y-13138174D02*
X11607194Y-13128650D01*
X11607194Y-13128650D02*
X11635765Y-13128650D01*
X11635765Y-13128650D02*
X11654813Y-13138174D01*
X11731004Y-13338174D02*
X11740527Y-13328650D01*
X11740527Y-13328650D02*
X11759575Y-13300079D01*
X11759575Y-13300079D02*
X11769099Y-13281031D01*
X11769099Y-13281031D02*
X11778623Y-13252460D01*
X11778623Y-13252460D02*
X11788146Y-13204841D01*
X11788146Y-13204841D02*
X11788146Y-13166746D01*
X11788146Y-13166746D02*
X11778623Y-13119127D01*
X11778623Y-13119127D02*
X11769099Y-13090555D01*
X11769099Y-13090555D02*
X11759575Y-13071508D01*
X11759575Y-13071508D02*
X11740527Y-13042936D01*
X11740527Y-13042936D02*
X11731004Y-13033412D01*
D12*
X6941296Y-13469856D02*
X6941296Y-13399144D01*
X6870585Y-13399144D01*
X6870585Y-13469856D01*
X6941296Y-13469856D01*
D11*
X7321479Y-13525984D02*
X7207194Y-13525984D01*
X7264336Y-13525984D02*
X7264336Y-13325984D01*
X7264336Y-13325984D02*
X7245289Y-13354555D01*
X7245289Y-13354555D02*
X7226241Y-13373603D01*
X7226241Y-13373603D02*
X7207194Y-13383127D01*
X7407194Y-13506936D02*
X7416717Y-13516460D01*
X7416717Y-13516460D02*
X7407194Y-13525984D01*
X7407194Y-13525984D02*
X7397670Y-13516460D01*
X7397670Y-13516460D02*
X7407194Y-13506936D01*
X7407194Y-13506936D02*
X7407194Y-13525984D01*
X7540527Y-13325984D02*
X7559575Y-13325984D01*
X7559575Y-13325984D02*
X7578622Y-13335508D01*
X7578622Y-13335508D02*
X7588146Y-13345031D01*
X7588146Y-13345031D02*
X7597670Y-13364079D01*
X7597670Y-13364079D02*
X7607194Y-13402174D01*
X7607194Y-13402174D02*
X7607194Y-13449793D01*
X7607194Y-13449793D02*
X7597670Y-13487888D01*
X7597670Y-13487888D02*
X7588146Y-13506936D01*
X7588146Y-13506936D02*
X7578622Y-13516460D01*
X7578622Y-13516460D02*
X7559575Y-13525984D01*
X7559575Y-13525984D02*
X7540527Y-13525984D01*
X7540527Y-13525984D02*
X7521479Y-13516460D01*
X7521479Y-13516460D02*
X7511955Y-13506936D01*
X7511955Y-13506936D02*
X7502432Y-13487888D01*
X7502432Y-13487888D02*
X7492908Y-13449793D01*
X7492908Y-13449793D02*
X7492908Y-13402174D01*
X7492908Y-13402174D02*
X7502432Y-13364079D01*
X7502432Y-13364079D02*
X7511955Y-13345031D01*
X7511955Y-13345031D02*
X7521479Y-13335508D01*
X7521479Y-13335508D02*
X7540527Y-13325984D01*
X7731003Y-13325984D02*
X7750051Y-13325984D01*
X7750051Y-13325984D02*
X7769098Y-13335508D01*
X7769098Y-13335508D02*
X7778622Y-13345031D01*
X7778622Y-13345031D02*
X7788146Y-13364079D01*
X7788146Y-13364079D02*
X7797670Y-13402174D01*
X7797670Y-13402174D02*
X7797670Y-13449793D01*
X7797670Y-13449793D02*
X7788146Y-13487888D01*
X7788146Y-13487888D02*
X7778622Y-13506936D01*
X7778622Y-13506936D02*
X7769098Y-13516460D01*
X7769098Y-13516460D02*
X7750051Y-13525984D01*
X7750051Y-13525984D02*
X7731003Y-13525984D01*
X7731003Y-13525984D02*
X7711955Y-13516460D01*
X7711955Y-13516460D02*
X7702432Y-13506936D01*
X7702432Y-13506936D02*
X7692908Y-13487888D01*
X7692908Y-13487888D02*
X7683384Y-13449793D01*
X7683384Y-13449793D02*
X7683384Y-13402174D01*
X7683384Y-13402174D02*
X7692908Y-13364079D01*
X7692908Y-13364079D02*
X7702432Y-13345031D01*
X7702432Y-13345031D02*
X7711955Y-13335508D01*
X7711955Y-13335508D02*
X7731003Y-13325984D01*
X7921479Y-13325984D02*
X7940527Y-13325984D01*
X7940527Y-13325984D02*
X7959575Y-13335508D01*
X7959575Y-13335508D02*
X7969098Y-13345031D01*
X7969098Y-13345031D02*
X7978622Y-13364079D01*
X7978622Y-13364079D02*
X7988146Y-13402174D01*
X7988146Y-13402174D02*
X7988146Y-13449793D01*
X7988146Y-13449793D02*
X7978622Y-13487888D01*
X7978622Y-13487888D02*
X7969098Y-13506936D01*
X7969098Y-13506936D02*
X7959575Y-13516460D01*
X7959575Y-13516460D02*
X7940527Y-13525984D01*
X7940527Y-13525984D02*
X7921479Y-13525984D01*
X7921479Y-13525984D02*
X7902432Y-13516460D01*
X7902432Y-13516460D02*
X7892908Y-13506936D01*
X7892908Y-13506936D02*
X7883384Y-13487888D01*
X7883384Y-13487888D02*
X7873860Y-13449793D01*
X7873860Y-13449793D02*
X7873860Y-13402174D01*
X7873860Y-13402174D02*
X7883384Y-13364079D01*
X7883384Y-13364079D02*
X7892908Y-13345031D01*
X7892908Y-13345031D02*
X7902432Y-13335508D01*
X7902432Y-13335508D02*
X7921479Y-13325984D01*
X8073860Y-13525984D02*
X8073860Y-13392650D01*
X8073860Y-13411698D02*
X8083384Y-13402174D01*
X8083384Y-13402174D02*
X8102432Y-13392650D01*
X8102432Y-13392650D02*
X8131003Y-13392650D01*
X8131003Y-13392650D02*
X8150051Y-13402174D01*
X8150051Y-13402174D02*
X8159575Y-13421222D01*
X8159575Y-13421222D02*
X8159575Y-13525984D01*
X8159575Y-13421222D02*
X8169098Y-13402174D01*
X8169098Y-13402174D02*
X8188146Y-13392650D01*
X8188146Y-13392650D02*
X8216717Y-13392650D01*
X8216717Y-13392650D02*
X8235765Y-13402174D01*
X8235765Y-13402174D02*
X8245289Y-13421222D01*
X8245289Y-13421222D02*
X8245289Y-13525984D01*
X8340527Y-13525984D02*
X8340527Y-13392650D01*
X8340527Y-13411698D02*
X8350051Y-13402174D01*
X8350051Y-13402174D02*
X8369098Y-13392650D01*
X8369098Y-13392650D02*
X8397670Y-13392650D01*
X8397670Y-13392650D02*
X8416718Y-13402174D01*
X8416718Y-13402174D02*
X8426241Y-13421222D01*
X8426241Y-13421222D02*
X8426241Y-13525984D01*
X8426241Y-13421222D02*
X8435765Y-13402174D01*
X8435765Y-13402174D02*
X8454813Y-13392650D01*
X8454813Y-13392650D02*
X8483384Y-13392650D01*
X8483384Y-13392650D02*
X8502432Y-13402174D01*
X8502432Y-13402174D02*
X8511956Y-13421222D01*
X8511956Y-13421222D02*
X8511956Y-13525984D01*
X8902432Y-13316460D02*
X8731003Y-13573603D01*
X9159575Y-13325984D02*
X9178622Y-13325984D01*
X9178622Y-13325984D02*
X9197670Y-13335508D01*
X9197670Y-13335508D02*
X9207194Y-13345031D01*
X9207194Y-13345031D02*
X9216718Y-13364079D01*
X9216718Y-13364079D02*
X9226241Y-13402174D01*
X9226241Y-13402174D02*
X9226241Y-13449793D01*
X9226241Y-13449793D02*
X9216718Y-13487888D01*
X9216718Y-13487888D02*
X9207194Y-13506936D01*
X9207194Y-13506936D02*
X9197670Y-13516460D01*
X9197670Y-13516460D02*
X9178622Y-13525984D01*
X9178622Y-13525984D02*
X9159575Y-13525984D01*
X9159575Y-13525984D02*
X9140527Y-13516460D01*
X9140527Y-13516460D02*
X9131003Y-13506936D01*
X9131003Y-13506936D02*
X9121480Y-13487888D01*
X9121480Y-13487888D02*
X9111956Y-13449793D01*
X9111956Y-13449793D02*
X9111956Y-13402174D01*
X9111956Y-13402174D02*
X9121480Y-13364079D01*
X9121480Y-13364079D02*
X9131003Y-13345031D01*
X9131003Y-13345031D02*
X9140527Y-13335508D01*
X9140527Y-13335508D02*
X9159575Y-13325984D01*
X9311956Y-13506936D02*
X9321480Y-13516460D01*
X9321480Y-13516460D02*
X9311956Y-13525984D01*
X9311956Y-13525984D02*
X9302432Y-13516460D01*
X9302432Y-13516460D02*
X9311956Y-13506936D01*
X9311956Y-13506936D02*
X9311956Y-13525984D01*
X9445289Y-13325984D02*
X9464337Y-13325984D01*
X9464337Y-13325984D02*
X9483384Y-13335508D01*
X9483384Y-13335508D02*
X9492908Y-13345031D01*
X9492908Y-13345031D02*
X9502432Y-13364079D01*
X9502432Y-13364079D02*
X9511956Y-13402174D01*
X9511956Y-13402174D02*
X9511956Y-13449793D01*
X9511956Y-13449793D02*
X9502432Y-13487888D01*
X9502432Y-13487888D02*
X9492908Y-13506936D01*
X9492908Y-13506936D02*
X9483384Y-13516460D01*
X9483384Y-13516460D02*
X9464337Y-13525984D01*
X9464337Y-13525984D02*
X9445289Y-13525984D01*
X9445289Y-13525984D02*
X9426241Y-13516460D01*
X9426241Y-13516460D02*
X9416718Y-13506936D01*
X9416718Y-13506936D02*
X9407194Y-13487888D01*
X9407194Y-13487888D02*
X9397670Y-13449793D01*
X9397670Y-13449793D02*
X9397670Y-13402174D01*
X9397670Y-13402174D02*
X9407194Y-13364079D01*
X9407194Y-13364079D02*
X9416718Y-13345031D01*
X9416718Y-13345031D02*
X9426241Y-13335508D01*
X9426241Y-13335508D02*
X9445289Y-13325984D01*
X9578622Y-13325984D02*
X9702432Y-13325984D01*
X9702432Y-13325984D02*
X9635765Y-13402174D01*
X9635765Y-13402174D02*
X9664337Y-13402174D01*
X9664337Y-13402174D02*
X9683384Y-13411698D01*
X9683384Y-13411698D02*
X9692908Y-13421222D01*
X9692908Y-13421222D02*
X9702432Y-13440269D01*
X9702432Y-13440269D02*
X9702432Y-13487888D01*
X9702432Y-13487888D02*
X9692908Y-13506936D01*
X9692908Y-13506936D02*
X9683384Y-13516460D01*
X9683384Y-13516460D02*
X9664337Y-13525984D01*
X9664337Y-13525984D02*
X9607194Y-13525984D01*
X9607194Y-13525984D02*
X9588146Y-13516460D01*
X9588146Y-13516460D02*
X9578622Y-13506936D01*
X9797670Y-13525984D02*
X9835765Y-13525984D01*
X9835765Y-13525984D02*
X9854813Y-13516460D01*
X9854813Y-13516460D02*
X9864337Y-13506936D01*
X9864337Y-13506936D02*
X9883384Y-13478365D01*
X9883384Y-13478365D02*
X9892908Y-13440269D01*
X9892908Y-13440269D02*
X9892908Y-13364079D01*
X9892908Y-13364079D02*
X9883384Y-13345031D01*
X9883384Y-13345031D02*
X9873861Y-13335508D01*
X9873861Y-13335508D02*
X9854813Y-13325984D01*
X9854813Y-13325984D02*
X9816718Y-13325984D01*
X9816718Y-13325984D02*
X9797670Y-13335508D01*
X9797670Y-13335508D02*
X9788146Y-13345031D01*
X9788146Y-13345031D02*
X9778622Y-13364079D01*
X9778622Y-13364079D02*
X9778622Y-13411698D01*
X9778622Y-13411698D02*
X9788146Y-13430746D01*
X9788146Y-13430746D02*
X9797670Y-13440269D01*
X9797670Y-13440269D02*
X9816718Y-13449793D01*
X9816718Y-13449793D02*
X9854813Y-13449793D01*
X9854813Y-13449793D02*
X9873861Y-13440269D01*
X9873861Y-13440269D02*
X9883384Y-13430746D01*
X9883384Y-13430746D02*
X9892908Y-13411698D01*
X10064337Y-13392650D02*
X10064337Y-13525984D01*
X10016718Y-13316460D02*
X9969099Y-13459317D01*
X9969099Y-13459317D02*
X10092908Y-13459317D01*
X10159575Y-13325984D02*
X10159575Y-13364079D01*
X10235765Y-13325984D02*
X10235765Y-13364079D01*
X10531004Y-13602174D02*
X10521480Y-13592650D01*
X10521480Y-13592650D02*
X10502432Y-13564079D01*
X10502432Y-13564079D02*
X10492908Y-13545031D01*
X10492908Y-13545031D02*
X10483384Y-13516460D01*
X10483384Y-13516460D02*
X10473861Y-13468841D01*
X10473861Y-13468841D02*
X10473861Y-13430746D01*
X10473861Y-13430746D02*
X10483384Y-13383127D01*
X10483384Y-13383127D02*
X10492908Y-13354555D01*
X10492908Y-13354555D02*
X10502432Y-13335508D01*
X10502432Y-13335508D02*
X10521480Y-13306936D01*
X10521480Y-13306936D02*
X10531004Y-13297412D01*
X10588146Y-13325984D02*
X10711956Y-13325984D01*
X10711956Y-13325984D02*
X10645289Y-13402174D01*
X10645289Y-13402174D02*
X10673861Y-13402174D01*
X10673861Y-13402174D02*
X10692908Y-13411698D01*
X10692908Y-13411698D02*
X10702432Y-13421222D01*
X10702432Y-13421222D02*
X10711956Y-13440269D01*
X10711956Y-13440269D02*
X10711956Y-13487888D01*
X10711956Y-13487888D02*
X10702432Y-13506936D01*
X10702432Y-13506936D02*
X10692908Y-13516460D01*
X10692908Y-13516460D02*
X10673861Y-13525984D01*
X10673861Y-13525984D02*
X10616718Y-13525984D01*
X10616718Y-13525984D02*
X10597670Y-13516460D01*
X10597670Y-13516460D02*
X10588146Y-13506936D01*
X10892908Y-13325984D02*
X10797670Y-13325984D01*
X10797670Y-13325984D02*
X10788146Y-13421222D01*
X10788146Y-13421222D02*
X10797670Y-13411698D01*
X10797670Y-13411698D02*
X10816718Y-13402174D01*
X10816718Y-13402174D02*
X10864337Y-13402174D01*
X10864337Y-13402174D02*
X10883384Y-13411698D01*
X10883384Y-13411698D02*
X10892908Y-13421222D01*
X10892908Y-13421222D02*
X10902432Y-13440269D01*
X10902432Y-13440269D02*
X10902432Y-13487888D01*
X10902432Y-13487888D02*
X10892908Y-13506936D01*
X10892908Y-13506936D02*
X10883384Y-13516460D01*
X10883384Y-13516460D02*
X10864337Y-13525984D01*
X10864337Y-13525984D02*
X10816718Y-13525984D01*
X10816718Y-13525984D02*
X10797670Y-13516460D01*
X10797670Y-13516460D02*
X10788146Y-13506936D01*
X11140527Y-13525984D02*
X11140527Y-13325984D01*
X11226242Y-13525984D02*
X11226242Y-13421222D01*
X11226242Y-13421222D02*
X11216718Y-13402174D01*
X11216718Y-13402174D02*
X11197670Y-13392650D01*
X11197670Y-13392650D02*
X11169099Y-13392650D01*
X11169099Y-13392650D02*
X11150051Y-13402174D01*
X11150051Y-13402174D02*
X11140527Y-13411698D01*
X11350051Y-13525984D02*
X11331003Y-13516460D01*
X11331003Y-13516460D02*
X11321480Y-13506936D01*
X11321480Y-13506936D02*
X11311956Y-13487888D01*
X11311956Y-13487888D02*
X11311956Y-13430746D01*
X11311956Y-13430746D02*
X11321480Y-13411698D01*
X11321480Y-13411698D02*
X11331003Y-13402174D01*
X11331003Y-13402174D02*
X11350051Y-13392650D01*
X11350051Y-13392650D02*
X11378623Y-13392650D01*
X11378623Y-13392650D02*
X11397670Y-13402174D01*
X11397670Y-13402174D02*
X11407194Y-13411698D01*
X11407194Y-13411698D02*
X11416718Y-13430746D01*
X11416718Y-13430746D02*
X11416718Y-13487888D01*
X11416718Y-13487888D02*
X11407194Y-13506936D01*
X11407194Y-13506936D02*
X11397670Y-13516460D01*
X11397670Y-13516460D02*
X11378623Y-13525984D01*
X11378623Y-13525984D02*
X11350051Y-13525984D01*
X11531003Y-13525984D02*
X11511956Y-13516460D01*
X11511956Y-13516460D02*
X11502432Y-13497412D01*
X11502432Y-13497412D02*
X11502432Y-13325984D01*
X11683384Y-13516460D02*
X11664337Y-13525984D01*
X11664337Y-13525984D02*
X11626242Y-13525984D01*
X11626242Y-13525984D02*
X11607194Y-13516460D01*
X11607194Y-13516460D02*
X11597670Y-13497412D01*
X11597670Y-13497412D02*
X11597670Y-13421222D01*
X11597670Y-13421222D02*
X11607194Y-13402174D01*
X11607194Y-13402174D02*
X11626242Y-13392650D01*
X11626242Y-13392650D02*
X11664337Y-13392650D01*
X11664337Y-13392650D02*
X11683384Y-13402174D01*
X11683384Y-13402174D02*
X11692908Y-13421222D01*
X11692908Y-13421222D02*
X11692908Y-13440269D01*
X11692908Y-13440269D02*
X11597670Y-13459317D01*
X11769099Y-13516460D02*
X11788146Y-13525984D01*
X11788146Y-13525984D02*
X11826242Y-13525984D01*
X11826242Y-13525984D02*
X11845289Y-13516460D01*
X11845289Y-13516460D02*
X11854813Y-13497412D01*
X11854813Y-13497412D02*
X11854813Y-13487888D01*
X11854813Y-13487888D02*
X11845289Y-13468841D01*
X11845289Y-13468841D02*
X11826242Y-13459317D01*
X11826242Y-13459317D02*
X11797670Y-13459317D01*
X11797670Y-13459317D02*
X11778623Y-13449793D01*
X11778623Y-13449793D02*
X11769099Y-13430746D01*
X11769099Y-13430746D02*
X11769099Y-13421222D01*
X11769099Y-13421222D02*
X11778623Y-13402174D01*
X11778623Y-13402174D02*
X11797670Y-13392650D01*
X11797670Y-13392650D02*
X11826242Y-13392650D01*
X11826242Y-13392650D02*
X11845289Y-13402174D01*
X11921480Y-13602174D02*
X11931004Y-13592650D01*
X11931004Y-13592650D02*
X11950051Y-13564079D01*
X11950051Y-13564079D02*
X11959575Y-13545031D01*
X11959575Y-13545031D02*
X11969099Y-13516460D01*
X11969099Y-13516460D02*
X11978623Y-13468841D01*
X11978623Y-13468841D02*
X11978623Y-13430746D01*
X11978623Y-13430746D02*
X11969099Y-13383127D01*
X11969099Y-13383127D02*
X11959575Y-13354555D01*
X11959575Y-13354555D02*
X11950051Y-13335508D01*
X11950051Y-13335508D02*
X11931004Y-13306936D01*
X11931004Y-13306936D02*
X11921480Y-13297412D01*
M02*
